<svg xmlns="http://www.w3.org/2000/svg" xmlns:xlink="http://www.w3.org/1999/xlink" contentStyleType="text/css" data-diagram-type="DESCRIPTION" height="930px" preserveAspectRatio="none" style="width:2402px;height:930px;background:#FFFFFF;" version="1.1" viewBox="0 0 2402 930" width="2402px" zoomAndPan="magnify"><defs/><g><!--cluster IHM--><g class="cluster" data-entity="IHM" data-source-line="11" data-uid="ent0002" id="cluster_IHM"><rect fill="none" height="626" rx="2.5" ry="2.5" style="stroke:#181818;stroke-width:1;" width="350" x="7" y="127.1884"/><text fill="#000000" font-family="sans-serif" font-size="14" font-weight="bold" lengthAdjust="spacing" textLength="29.3579" x="167.3211" y="144.1544">IHM</text></g><!--cluster Nuvem--><g class="cluster" data-entity="Nuvem" data-source-line="23" data-uid="ent0011" id="cluster_Nuvem"><path d="M400.3901,35.5875 C409.696,20.6187 423.9781,21.5517 431.4841,37.4033 C443.3499,16.1844 458.3896,19.4384 471.5567,36.0239 C480.321,19.5276 494.0137,20.4337 503.2194,35.5823 C510.4063,14.4446 526.4221,14.6178 539.0439,30.2934 C549.4544,12.8359 566.4191,15.269 576.4123,30.7666 C584.1168,12.4307 597.5728,11.4484 610.6805,24.951 C618.4391,10.2802 633.5614,10.1416 642.0233,24.1832 C654.5247,7.4012 668.7413,6 679.0981,26.3258 C693.1468,12.3041 703.9771,14.0808 711.7402,32.626 C722.7825,12.975 739.6629,14.883 750.9177,32.4021 C760.8636,18.1105 771.7627,16.564 782.6086,31.4236 C798.8034,14.5917 810.5213,16.132 820.1252,37.8395 C829.7645,21.7626 843.8078,22.0274 854.6992,36.4187 C870.6131,19.2845 882.148,20.1329 892,42.1884 C892.8484,41.3401 893.4519,41.5267 893.9255,42.57 C915.5339,53.4237 914.144,66.9714 898.1728,81.885 C914.5009,89.9734 915.8434,106.2377 899.068,115.2151 C918.126,125.4859 916.7443,141.3405 898.5673,151.0917 C913.7196,161.8516 914.9508,172.4966 900.033,184.5729 C914.5715,193.7817 910.1496,207.2475 897.5249,214.1532 C912.8697,225.1876 913.8517,237.4787 898.7782,249.5889 C916.4415,259.9584 917.5431,271.6426 901.3935,284.542 C917.8171,294.3993 921.221,309.4249 902.1906,320.0776 C916.8751,329.1732 914.6078,342.8802 901.3144,351.1878 C918.765,361.8776 920.1499,379.3577 900.758,389.5127 C915.772,401.4298 915.1418,411.322 898.3758,420.8211 C915.6457,435.082 911.6649,446.6905 894.0005,456.6901 C906.4011,467.3215 909.912,477.2906 893.2454,487.2027 C912.1959,503.8456 905.6707,518.7158 885,527.1884 C887.9957,526.4961 890.0803,527.5661 889.6775,531.0213 C877.2827,549.485 864.4524,546.6785 852.7142,530.3242 C845.1188,545.9175 830.7563,547.1272 820.6983,532.9748 C812.1633,550.0453 795.4734,553.2128 785.0748,534.8482 C775.7692,554.6918 758.398,553.2164 747.7406,536.218 C736.1356,551.3554 724.7393,546.7171 716.4332,532.6781 C703.898,552.2916 689.7071,552.66 676.3916,533.4837 C670.0695,547.7249 655.9298,547.7596 646.9654,536.5372 C635.5041,554.4491 617.7563,553.4477 607.5455,535.175 C599.0441,553.6261 581.9034,550.7458 573.2551,535.3237 C561.1436,548.4997 550.5104,547.1211 541.0423,532.2839 C526.4301,550.7525 513.5882,550.2464 501.7315,529.5203 C493.5509,542.6305 479.6103,544.6102 471.2846,529.6778 C463.029,546.158 447.4119,550.6598 436.1117,532.7958 C415.4552,548.7791 399.103,543.642 389,520.1884 C392.0662,517.9086 394.9217,519.5083 395.1056,523.1569 C376.3582,515.5484 375.8112,499.0893 390.6185,487.2837 C376.1978,479.4966 374.5056,469.2799 386.4532,457.7712 C369.7733,443.9445 367.7137,431.3883 387.6116,418.6446 C371.0646,407.6601 370.4382,397.8734 387.4072,386.6746 C372.3273,376.0337 370.416,363.1758 385.6295,351.0244 C370.6077,343.6766 369.8452,330.3905 383.2444,320.8 C367.6693,312.0023 365.5803,297.4689 379.9372,285.8397 C363.8532,274.8139 361.7028,260.8255 380.3911,250.2432 C364.8109,240.6307 363.7163,222.8484 381.7548,214.5192 C368.1448,204.7651 369.6043,189.3445 384.6295,182.132 C369.6429,169.7799 369.3533,156.8352 385.7925,145.4804 C373.112,132.2173 372.3215,120.4416 391.7842,113.1322 C376.3474,106.3106 374.7809,91.6128 389.682,82.6958 C367.5437,63.5338 372.7178,48.3099 396,35.1884 C397.6348,33.2285 399.1342,33.3794 400.3901,35.5875" fill="none" style="stroke:#181818;stroke-width:1;"/><text fill="#000000" font-family="sans-serif" font-size="14" font-weight="bold" lengthAdjust="spacing" textLength="50.5678" x="615.2161" y="55.1544">Nuvem</text></g><!--cluster Cloud--><g class="cluster" data-entity="Cloud" data-source-line="24" data-uid="ent0012" id="cluster_Cloud"><rect fill="none" height="198" rx="2.5" ry="2.5" style="stroke:#181818;stroke-width:1;" width="455" x="413" y="81.1884"/><text fill="#000000" font-family="sans-serif" font-size="14" font-weight="bold" lengthAdjust="spacing" textLength="100.5616" x="590.2192" y="98.1544">Cloud Services</text><text fill="#000000" font-family="sans-serif" font-size="14" font-weight="bold" lengthAdjust="spacing" textLength="214.2972" x="533.3514" y="117.2223">&#171;AWS/Azure/GCP/On Premise&#187;</text></g><!--cluster EdgeNode--><g class="cluster" data-entity="EdgeNode" data-source-line="34" data-uid="ent0017" id="cluster_EdgeNode"><polygon fill="none" points="924,348.1884,934,338.1884,1628,338.1884,1628,903.1884,1618,913.1884,924,913.1884,924,348.1884" style="stroke:#181818;stroke-width:1;"/><line style="stroke:#181818;stroke-width:1;" x1="1618" x2="1628" y1="348.1884" y2="338.1884"/><line style="stroke:#181818;stroke-width:1;" x1="924" x2="1618" y1="348.1884" y2="348.1884"/><line style="stroke:#181818;stroke-width:1;" x1="1618" x2="1618" y1="348.1884" y2="913.1884"/><text fill="#000000" font-family="sans-serif" font-size="14" font-weight="bold" lengthAdjust="spacing" textLength="90.3417" x="1226.8292" y="366.1544">M&#243;dulo Edge</text></g><!--cluster EdgeIfcComm--><g class="cluster" data-entity="EdgeIfcComm" data-source-line="36" data-uid="ent0018" id="cluster_EdgeIfcComm"><rect fill="none" height="141" rx="2.5" ry="2.5" style="stroke:#181818;stroke-width:1;" width="580" x="956" y="402.1884"/><text fill="#000000" font-family="sans-serif" font-size="14" font-weight="bold" lengthAdjust="spacing" textLength="190.0353" x="1150.9824" y="419.1544">Interfaces de Comunica&#231;&#227;o</text></g><!--cluster Drivers--><g class="cluster" data-entity="Drivers" data-source-line="48" data-uid="ent0027" id="cluster_Drivers"><rect fill="none" height="270" rx="2.5" ry="2.5" style="stroke:#181818;stroke-width:1;" width="346" x="1250" y="611.1884"/><text fill="#000000" font-family="sans-serif" font-size="14" font-weight="bold" lengthAdjust="spacing" textLength="151.9414" x="1347.0293" y="628.1544">Drivers de Integra&#231;&#227;o</text></g><!--cluster NBIoTNode--><g class="cluster" data-entity="NBIoTNode" data-source-line="56" data-uid="ent0032" id="cluster_NBIoTNode"><polygon fill="none" points="1486,119.1884,1496,109.1884,1951,109.1884,1951,269.1884,1941,279.1884,1486,279.1884,1486,119.1884" style="stroke:#181818;stroke-width:1;"/><line style="stroke:#181818;stroke-width:1;" x1="1941" x2="1951" y1="119.1884" y2="109.1884"/><line style="stroke:#181818;stroke-width:1;" x1="1486" x2="1941" y1="119.1884" y2="119.1884"/><line style="stroke:#181818;stroke-width:1;" x1="1941" x2="1941" y1="119.1884" y2="279.1884"/><text fill="#000000" font-family="sans-serif" font-size="14" font-weight="bold" lengthAdjust="spacing" textLength="97.4816" x="1665.7592" y="137.1544">M&#243;dulo NBIot</text></g><!--cluster M?dulo MCU--><g class="cluster" data-entity="M.dulo MCU" data-source-line="62" data-uid="ent0035" id="cluster_M.dulo MCU"><polygon fill="none" points="1999,400.6884,2009,390.6884,2385,390.6884,2385,534.6884,2375,544.6884,1999,544.6884,1999,400.6884" style="stroke:#181818;stroke-width:1;"/><line style="stroke:#181818;stroke-width:1;" x1="2375" x2="2385" y1="400.6884" y2="390.6884"/><line style="stroke:#181818;stroke-width:1;" x1="1999" x2="2375" y1="400.6884" y2="400.6884"/><line style="stroke:#181818;stroke-width:1;" x1="2375" x2="2375" y1="400.6884" y2="544.6884"/><text fill="#000000" font-family="sans-serif" font-size="14" font-weight="bold" lengthAdjust="spacing" textLength="89.2077" x="2143.3962" y="418.6544">M&#243;dulo MCU</text></g><!--cluster Sensores--><g class="cluster" data-entity="Sensores" data-source-line="68" data-uid="ent0038" id="cluster_Sensores"><rect fill="none" height="125" rx="2.5" ry="2.5" style="stroke:#181818;stroke-width:1;" width="296" x="1983" y="136.6884"/><text fill="#000000" font-family="sans-serif" font-size="14" font-weight="bold" lengthAdjust="spacing" textLength="62.3978" x="2099.8011" y="153.6544">Sensores</text></g><!--cluster Atuadores--><g class="cluster" data-entity="Atuadores" data-source-line="73" data-uid="ent0041" id="cluster_Atuadores"><rect fill="none" height="125" rx="2.5" ry="2.5" style="stroke:#181818;stroke-width:1;" width="267" x="1924" y="619.1884"/><text fill="#000000" font-family="sans-serif" font-size="14" font-weight="bold" lengthAdjust="spacing" textLength="72.5057" x="2021.2471" y="636.1544">Atuadores</text></g><!--cluster C?meras--><g class="cluster" data-entity="C.meras" data-source-line="79" data-uid="ent0044" id="cluster_C.meras"><rect fill="none" height="125" rx="2.5" ry="2.5" style="stroke:#181818;stroke-width:1;" width="323" x="1652" y="410.1884"/><text fill="#000000" font-family="sans-serif" font-size="14" font-weight="bold" lengthAdjust="spacing" textLength="61.1658" x="1782.9171" y="427.1544">C&#226;meras</text></g><!--entity Frontend--><g class="entity" data-entity="Frontend" data-source-line="12" data-uid="ent0003" id="entity_Frontend"><rect fill="#ADD8E6" height="68.1358" rx="2.5" ry="2.5" style="stroke:#000000;stroke-width:0.5;" width="100.3818" x="23" y="187.1884"/><rect fill="#ADD8E6" height="10" style="stroke:#000000;stroke-width:0.5;" width="15" x="103.3818" y="192.1884"/><rect fill="#ADD8E6" height="2" style="stroke:#000000;stroke-width:0.5;" width="4" x="101.3818" y="194.1884"/><rect fill="#ADD8E6" height="2" style="stroke:#000000;stroke-width:0.5;" width="4" x="101.3818" y="198.1884"/><text fill="#000000" font-family="sans-serif" font-size="14" lengthAdjust="spacing" textLength="60.3818" x="38" y="222.1544">Frontend</text><text fill="#000000" font-family="sans-serif" font-size="14" lengthAdjust="spacing" textLength="17.8919" x="38" y="241.2223">&#171; &#187;</text></g><!--entity Backend--><g class="entity" data-entity="Backend" data-source-line="13" data-uid="ent0004" id="entity_Backend"><rect fill="#ADD8E6" height="87.2038" rx="2.5" ry="2.5" style="stroke:#000000;stroke-width:0.5;" width="97.7638" x="23" y="451.1884"/><rect fill="#ADD8E6" height="10" style="stroke:#000000;stroke-width:0.5;" width="15" x="100.7638" y="456.1884"/><rect fill="#ADD8E6" height="2" style="stroke:#000000;stroke-width:0.5;" width="4" x="98.7638" y="458.1884"/><rect fill="#ADD8E6" height="2" style="stroke:#000000;stroke-width:0.5;" width="4" x="98.7638" y="462.1884"/><text fill="#000000" font-family="sans-serif" font-size="14" lengthAdjust="spacing" textLength="56.3078" x="38" y="486.1544">Backend</text><text fill="#000000" font-family="sans-serif" font-size="14" lengthAdjust="spacing" textLength="57.7638" x="38" y="505.2223">API REST</text><text fill="#000000" font-family="sans-serif" font-size="14" lengthAdjust="spacing" textLength="17.8919" x="38" y="524.2902">&#171; &#187;</text></g><!--entity DB--><g class="entity" data-entity="DB" data-source-line="14" data-uid="ent0005" id="entity_DB"><path d="M23,680.1884 C23,670.1884 86.2208,670.1884 86.2208,670.1884 C86.2208,670.1884 149.4416,670.1884 149.4416,680.1884 L149.4416,727.3243 C149.4416,737.3243 86.2208,737.3243 86.2208,737.3243 C86.2208,737.3243 23,737.3243 23,727.3243 L23,680.1884" fill="#F1F1F1" style="stroke:#181818;stroke-width:0.5;"/><path d="M23,680.1884 C23,690.1884 86.2208,690.1884 86.2208,690.1884 C86.2208,690.1884 149.4416,690.1884 149.4416,680.1884" fill="none" style="stroke:#181818;stroke-width:0.5;"/><text fill="#000000" font-family="sans-serif" font-size="14" lengthAdjust="spacing" textLength="106.4416" x="33" y="709.1544">Banco de Dados</text><text fill="#000000" font-family="sans-serif" font-size="14" lengthAdjust="spacing" textLength="71.3717" x="33" y="728.2223">&#171;MariaDB&#187;</text></g><!--entity MQTTclient--><g class="entity" data-entity="MQTTclient" data-source-line="15" data-uid="ent0006" id="entity_MQTTclient"><rect fill="#ADD8E6" height="68.1358" rx="2.5" ry="2.5" style="stroke:#000000;stroke-width:0.5;" width="131.9936" x="209" y="460.6884"/><rect fill="#ADD8E6" height="10" style="stroke:#000000;stroke-width:0.5;" width="15" x="320.9936" y="465.6884"/><rect fill="#ADD8E6" height="2" style="stroke:#000000;stroke-width:0.5;" width="4" x="318.9936" y="467.6884"/><rect fill="#ADD8E6" height="2" style="stroke:#000000;stroke-width:0.5;" width="4" x="318.9936" y="471.6884"/><text fill="#000000" font-family="sans-serif" font-size="14" lengthAdjust="spacing" textLength="91.9936" x="224" y="495.6544">PubSub Client</text><text fill="#000000" font-family="sans-serif" font-size="14" lengthAdjust="spacing" textLength="81.5777" x="224" y="514.7223">&#171;Mosquitto&#187;</text></g><!--entity CloudDB--><g class="entity" data-entity="CloudDB" data-source-line="28" data-uid="ent0015" id="entity_CloudDB"><rect fill="#ADD8E6" height="49.0679" rx="2.5" ry="2.5" style="stroke:#000000;stroke-width:0.5;" width="133.1837" x="750.5" y="470.1884"/><rect fill="#ADD8E6" height="10" style="stroke:#000000;stroke-width:0.5;" width="15" x="863.6837" y="475.1884"/><rect fill="#ADD8E6" height="2" style="stroke:#000000;stroke-width:0.5;" width="4" x="861.6837" y="477.1884"/><rect fill="#ADD8E6" height="2" style="stroke:#000000;stroke-width:0.5;" width="4" x="861.6837" y="481.1884"/><text fill="#000000" font-family="sans-serif" font-size="14" lengthAdjust="spacing" textLength="93.1837" x="765.5" y="505.1544">Cloud Storage</text></g><!--entity APIGW--><g class="entity" data-entity="APIGW" data-source-line="25" data-uid="ent0013" id="entity_APIGW"><rect fill="#ADD8E6" height="49.0679" rx="2.5" ry="2.5" style="stroke:#000000;stroke-width:0.5;" width="122.7957" x="437.5" y="196.6884"/><rect fill="#ADD8E6" height="10" style="stroke:#000000;stroke-width:0.5;" width="15" x="540.2957" y="201.6884"/><rect fill="#ADD8E6" height="2" style="stroke:#000000;stroke-width:0.5;" width="4" x="538.2957" y="203.6884"/><rect fill="#ADD8E6" height="2" style="stroke:#000000;stroke-width:0.5;" width="4" x="538.2957" y="207.6884"/><text fill="#000000" font-family="sans-serif" font-size="14" lengthAdjust="spacing" textLength="82.7957" x="452.5" y="231.6544">API Gateway</text></g><!--entity MQTTserver--><g class="entity" data-entity="MQTTserver" data-source-line="26" data-uid="ent0014" id="entity_MQTTserver"><rect fill="#ADD8E6" height="68.1358" rx="2.5" ry="2.5" style="stroke:#000000;stroke-width:0.5;" width="228.7473" x="595.5" y="187.1884"/><rect fill="#ADD8E6" height="10" style="stroke:#000000;stroke-width:0.5;" width="15" x="804.2473" y="192.1884"/><rect fill="#ADD8E6" height="2" style="stroke:#000000;stroke-width:0.5;" width="4" x="802.2473" y="194.1884"/><rect fill="#ADD8E6" height="2" style="stroke:#000000;stroke-width:0.5;" width="4" x="802.2473" y="198.1884"/><text fill="#000000" font-family="sans-serif" font-size="14" lengthAdjust="spacing" textLength="92.8336" x="610.5" y="222.1544">PubSubServer</text><text fill="#000000" font-family="sans-serif" font-size="14" lengthAdjust="spacing" textLength="188.7473" x="610.5" y="241.2223">&#171;SQS / Pub/Sub / Mosquitto&#187;</text></g><!--entity EdgeProcess--><g class="entity" data-entity="EdgeProcess" data-source-line="41" data-uid="ent0022" id="entity_EdgeProcess"><rect fill="#ADD8E6" height="87.2038" rx="2.5" ry="2.5" style="stroke:#000000;stroke-width:0.5;" width="239.1212" x="939.5" y="660.1884"/><rect fill="#ADD8E6" height="10" style="stroke:#000000;stroke-width:0.5;" width="15" x="1158.6212" y="665.1884"/><rect fill="#ADD8E6" height="2" style="stroke:#000000;stroke-width:0.5;" width="4" x="1156.6212" y="667.1884"/><rect fill="#ADD8E6" height="2" style="stroke:#000000;stroke-width:0.5;" width="4" x="1156.6212" y="671.1884"/><text fill="#000000" font-family="sans-serif" font-size="14" lengthAdjust="spacing" textLength="125.4395" x="954.5" y="695.1544">Processamento ML</text><text fill="#000000" font-family="sans-serif" font-size="14" lengthAdjust="spacing" textLength="199.1212" x="954.5" y="714.2223">&lt;&lt;Processamento de Imagens</text><text fill="#000000" font-family="sans-serif" font-size="14" lengthAdjust="spacing" textLength="150.2054" x="954.5" y="733.2902">OpenCV/TensorFlow&gt;&gt;</text></g><!--entity EdgeCache--><g class="entity" data-entity="EdgeCache" data-source-line="42" data-uid="ent0023" id="entity_EdgeCache"><rect fill="#ADD8E6" height="49.0679" rx="2.5" ry="2.5" style="stroke:#000000;stroke-width:0.5;" width="117.6017" x="1000" y="808.1884"/><rect fill="#ADD8E6" height="10" style="stroke:#000000;stroke-width:0.5;" width="15" x="1097.6017" y="813.1884"/><rect fill="#ADD8E6" height="2" style="stroke:#000000;stroke-width:0.5;" width="4" x="1095.6017" y="815.1884"/><rect fill="#ADD8E6" height="2" style="stroke:#000000;stroke-width:0.5;" width="4" x="1095.6017" y="819.1884"/><text fill="#000000" font-family="sans-serif" font-size="14" lengthAdjust="spacing" textLength="77.6017" x="1015" y="843.1544">Cache Local</text></g><!--entity EdgeGateway--><g class="entity" data-entity="EdgeGateway" data-source-line="37" data-uid="ent0019" id="entity_EdgeGateway"><rect fill="#ADD8E6" height="49.0679" rx="2.5" ry="2.5" style="stroke:#000000;stroke-width:0.5;" width="133.5336" x="1359" y="470.1884"/><rect fill="#ADD8E6" height="10" style="stroke:#000000;stroke-width:0.5;" width="15" x="1472.5336" y="475.1884"/><rect fill="#ADD8E6" height="2" style="stroke:#000000;stroke-width:0.5;" width="4" x="1470.5336" y="477.1884"/><rect fill="#ADD8E6" height="2" style="stroke:#000000;stroke-width:0.5;" width="4" x="1470.5336" y="481.1884"/><text fill="#000000" font-family="sans-serif" font-size="14" lengthAdjust="spacing" textLength="93.5336" x="1374" y="505.1544">Edge Gateway</text></g><!--entity EdgeMQTT--><g class="entity" data-entity="EdgeMQTT" data-source-line="38" data-uid="ent0020" id="entity_EdgeMQTT"><rect fill="#ADD8E6" height="49.0679" rx="2.5" ry="2.5" style="stroke:#000000;stroke-width:0.5;" width="179.3555" x="1144.5" y="470.1884"/><rect fill="#ADD8E6" height="10" style="stroke:#000000;stroke-width:0.5;" width="15" x="1303.8555" y="475.1884"/><rect fill="#ADD8E6" height="2" style="stroke:#000000;stroke-width:0.5;" width="4" x="1301.8555" y="477.1884"/><rect fill="#ADD8E6" height="2" style="stroke:#000000;stroke-width:0.5;" width="4" x="1301.8555" y="481.1884"/><text fill="#000000" font-family="sans-serif" font-size="14" lengthAdjust="spacing" textLength="139.3555" x="1159.5" y="505.1544">PubSub Client/Server</text></g><!--entity EdgeComm--><g class="entity" data-entity="EdgeComm" data-source-line="39" data-uid="ent0021" id="entity_EdgeComm"><rect fill="#ADD8E6" height="49.0679" rx="2.5" ry="2.5" style="stroke:#000000;stroke-width:0.5;" width="128.5917" x="980.5" y="470.1884"/><rect fill="#ADD8E6" height="10" style="stroke:#000000;stroke-width:0.5;" width="15" x="1089.0917" y="475.1884"/><rect fill="#ADD8E6" height="2" style="stroke:#000000;stroke-width:0.5;" width="4" x="1087.0917" y="477.1884"/><rect fill="#ADD8E6" height="2" style="stroke:#000000;stroke-width:0.5;" width="4" x="1087.0917" y="481.1884"/><text fill="#000000" font-family="sans-serif" font-size="14" lengthAdjust="spacing" textLength="88.5917" x="995.5" y="505.1544">I2C/SPI/UART</text></g><!--entity DriverRTSP--><g class="entity" data-entity="DriverRTSP" data-source-line="49" data-uid="ent0028" id="entity_DriverRTSP"><rect fill="#ADD8E6" height="49.0679" rx="2.5" ry="2.5" style="stroke:#000000;stroke-width:0.5;" width="116.6917" x="1293.5" y="679.1884"/><rect fill="#ADD8E6" height="10" style="stroke:#000000;stroke-width:0.5;" width="15" x="1390.1917" y="684.1884"/><rect fill="#ADD8E6" height="2" style="stroke:#000000;stroke-width:0.5;" width="4" x="1388.1917" y="686.1884"/><rect fill="#ADD8E6" height="2" style="stroke:#000000;stroke-width:0.5;" width="4" x="1388.1917" y="690.1884"/><text fill="#000000" font-family="sans-serif" font-size="14" lengthAdjust="spacing" textLength="76.6917" x="1308.5" y="714.1544">Driver RTSP</text></g><!--entity DriverONVIF--><g class="entity" data-entity="DriverONVIF" data-source-line="50" data-uid="ent0029" id="entity_DriverONVIF"><rect fill="#ADD8E6" height="49.0679" rx="2.5" ry="2.5" style="stroke:#000000;stroke-width:0.5;" width="126.0297" x="1446" y="679.1884"/><rect fill="#ADD8E6" height="10" style="stroke:#000000;stroke-width:0.5;" width="15" x="1552.0297" y="684.1884"/><rect fill="#ADD8E6" height="2" style="stroke:#000000;stroke-width:0.5;" width="4" x="1550.0297" y="686.1884"/><rect fill="#ADD8E6" height="2" style="stroke:#000000;stroke-width:0.5;" width="4" x="1550.0297" y="690.1884"/><text fill="#000000" font-family="sans-serif" font-size="14" lengthAdjust="spacing" textLength="86.0297" x="1461" y="714.1544">Driver ONVIF</text></g><!--entity DriverV4L2--><g class="entity" data-entity="DriverV4L2" data-source-line="51" data-uid="ent0030" id="entity_DriverV4L2"><rect fill="#ADD8E6" height="49.0679" rx="2.5" ry="2.5" style="stroke:#000000;stroke-width:0.5;" width="115.7957" x="1294" y="808.1884"/><rect fill="#ADD8E6" height="10" style="stroke:#000000;stroke-width:0.5;" width="15" x="1389.7957" y="813.1884"/><rect fill="#ADD8E6" height="2" style="stroke:#000000;stroke-width:0.5;" width="4" x="1387.7957" y="815.1884"/><rect fill="#ADD8E6" height="2" style="stroke:#000000;stroke-width:0.5;" width="4" x="1387.7957" y="819.1884"/><text fill="#000000" font-family="sans-serif" font-size="14" lengthAdjust="spacing" textLength="75.7957" x="1309" y="843.1544">Driver V4L2</text></g><!--entity DriverCSI--><g class="entity" data-entity="DriverCSI" data-source-line="52" data-uid="ent0031" id="entity_DriverCSI"><rect fill="#ADD8E6" height="49.0679" rx="2.5" ry="2.5" style="stroke:#000000;stroke-width:0.5;" width="93.7178" x="1445" y="808.1884"/><rect fill="#ADD8E6" height="10" style="stroke:#000000;stroke-width:0.5;" width="15" x="1518.7178" y="813.1884"/><rect fill="#ADD8E6" height="2" style="stroke:#000000;stroke-width:0.5;" width="4" x="1516.7178" y="815.1884"/><rect fill="#ADD8E6" height="2" style="stroke:#000000;stroke-width:0.5;" width="4" x="1516.7178" y="819.1884"/><text fill="#000000" font-family="sans-serif" font-size="14" lengthAdjust="spacing" textLength="53.7178" x="1460" y="843.1544">CSI RPi5</text></g><!--entity NBIoTModule--><g class="entity" data-entity="NBIoTModule" data-source-line="57" data-uid="ent0033" id="entity_NBIoTModule"><rect fill="#ADD8E6" height="68.1358" rx="2.5" ry="2.5" style="stroke:#000000;stroke-width:0.5;" width="142.6196" x="1783.5" y="187.1884"/><rect fill="#ADD8E6" height="10" style="stroke:#000000;stroke-width:0.5;" width="15" x="1906.1196" y="192.1884"/><rect fill="#ADD8E6" height="2" style="stroke:#000000;stroke-width:0.5;" width="4" x="1904.1196" y="194.1884"/><rect fill="#ADD8E6" height="2" style="stroke:#000000;stroke-width:0.5;" width="4" x="1904.1196" y="198.1884"/><text fill="#000000" font-family="sans-serif" font-size="14" lengthAdjust="spacing" textLength="99.3996" x="1798.5" y="222.1544">M&#243;dulo NB-IoT</text><text fill="#000000" font-family="sans-serif" font-size="14" lengthAdjust="spacing" textLength="102.6196" x="1798.5" y="241.2223">&#171;Quectel BC66&#187;</text></g><!--entity NBIoTComm--><g class="entity" data-entity="NBIoTComm" data-source-line="58" data-uid="ent0034" id="entity_NBIoTComm"><rect fill="#ADD8E6" height="68.1358" rx="2.5" ry="2.5" style="stroke:#000000;stroke-width:0.5;" width="218.8493" x="1529.5" y="187.1884"/><rect fill="#ADD8E6" height="10" style="stroke:#000000;stroke-width:0.5;" width="15" x="1728.3493" y="192.1884"/><rect fill="#ADD8E6" height="2" style="stroke:#000000;stroke-width:0.5;" width="4" x="1726.3493" y="194.1884"/><rect fill="#ADD8E6" height="2" style="stroke:#000000;stroke-width:0.5;" width="4" x="1726.3493" y="198.1884"/><text fill="#000000" font-family="sans-serif" font-size="14" lengthAdjust="spacing" textLength="178.8493" x="1544.5" y="222.1544">Interfaces de Comunica&#231;&#227;o</text><text fill="#000000" font-family="sans-serif" font-size="14" lengthAdjust="spacing" textLength="82.1517" x="1544.5" y="241.2223">&#171;UART/USB&#187;</text></g><!--entity MCU--><g class="entity" data-entity="MCU" data-source-line="63" data-uid="ent0036" id="entity_MCU"><rect fill="#ADD8E6" height="49.0679" rx="2.5" ry="2.5" style="stroke:#000000;stroke-width:0.5;" width="99.4438" x="2015.5" y="470.1884"/><rect fill="#ADD8E6" height="10" style="stroke:#000000;stroke-width:0.5;" width="15" x="2094.9438" y="475.1884"/><rect fill="#ADD8E6" height="2" style="stroke:#000000;stroke-width:0.5;" width="4" x="2092.9438" y="477.1884"/><rect fill="#ADD8E6" height="2" style="stroke:#000000;stroke-width:0.5;" width="4" x="2092.9438" y="481.1884"/><text fill="#000000" font-family="sans-serif" font-size="14" lengthAdjust="spacing" textLength="59.4438" x="2030.5" y="505.1544">PIC32MK</text></g><!--entity MCUComm--><g class="entity" data-entity="MCUComm" data-source-line="64" data-uid="ent0037" id="entity_MCUComm"><rect fill="#ADD8E6" height="68.1358" rx="2.5" ry="2.5" style="stroke:#000000;stroke-width:0.5;" width="218.8493" x="2149.5" y="460.6884"/><rect fill="#ADD8E6" height="10" style="stroke:#000000;stroke-width:0.5;" width="15" x="2348.3493" y="465.6884"/><rect fill="#ADD8E6" height="2" style="stroke:#000000;stroke-width:0.5;" width="4" x="2346.3493" y="467.6884"/><rect fill="#ADD8E6" height="2" style="stroke:#000000;stroke-width:0.5;" width="4" x="2346.3493" y="471.6884"/><text fill="#000000" font-family="sans-serif" font-size="14" lengthAdjust="spacing" textLength="178.8493" x="2164.5" y="495.6544">Interfaces de Comunica&#231;&#227;o</text><text fill="#000000" font-family="sans-serif" font-size="14" lengthAdjust="spacing" textLength="102.8436" x="2164.5" y="514.7223">&#171;I2C/SPI/UART&#187;</text></g><!--entity SensorOpt--><g class="entity" data-entity="SensorOpt" data-source-line="69" data-uid="ent0039" id="entity_SensorOpt"><rect fill="#ADD8E6" height="49.0679" rx="2.5" ry="2.5" style="stroke:#000000;stroke-width:0.5;" width="132.2317" x="1999" y="196.6884"/><rect fill="#ADD8E6" height="10" style="stroke:#000000;stroke-width:0.5;" width="15" x="2111.2317" y="201.6884"/><rect fill="#ADD8E6" height="2" style="stroke:#000000;stroke-width:0.5;" width="4" x="2109.2317" y="203.6884"/><rect fill="#ADD8E6" height="2" style="stroke:#000000;stroke-width:0.5;" width="4" x="2109.2317" y="207.6884"/><text fill="#000000" font-family="sans-serif" font-size="14" lengthAdjust="spacing" textLength="92.2317" x="2014" y="231.6544">Sensor &#211;ptico</text></g><!--entity SensorMov--><g class="entity" data-entity="SensorMov" data-source-line="70" data-uid="ent0040" id="entity_SensorMov"><rect fill="#ADD8E6" height="49.0679" rx="2.5" ry="2.5" style="stroke:#000000;stroke-width:0.5;" width="97.3018" x="2166.5" y="196.6884"/><rect fill="#ADD8E6" height="10" style="stroke:#000000;stroke-width:0.5;" width="15" x="2243.8018" y="201.6884"/><rect fill="#ADD8E6" height="2" style="stroke:#000000;stroke-width:0.5;" width="4" x="2241.8018" y="203.6884"/><rect fill="#ADD8E6" height="2" style="stroke:#000000;stroke-width:0.5;" width="4" x="2241.8018" y="207.6884"/><text fill="#000000" font-family="sans-serif" font-size="14" lengthAdjust="spacing" textLength="57.3018" x="2181.5" y="231.6544">Vibra&#231;&#227;o</text></g><!--entity ActRelay--><g class="entity" data-entity="ActRelay" data-source-line="74" data-uid="ent0042" id="entity_ActRelay"><rect fill="#ADD8E6" height="49.0679" rx="2.5" ry="2.5" style="stroke:#000000;stroke-width:0.5;" width="74.8179" x="2100.5" y="679.1884"/><rect fill="#ADD8E6" height="10" style="stroke:#000000;stroke-width:0.5;" width="15" x="2155.3179" y="684.1884"/><rect fill="#ADD8E6" height="2" style="stroke:#000000;stroke-width:0.5;" width="4" x="2153.3179" y="686.1884"/><rect fill="#ADD8E6" height="2" style="stroke:#000000;stroke-width:0.5;" width="4" x="2153.3179" y="690.1884"/><text fill="#000000" font-family="sans-serif" font-size="14" lengthAdjust="spacing" textLength="34.8179" x="2115.5" y="714.1544">Rel&#233;s</text></g><!--entity Pneum--><g class="entity" data-entity="Pneum" data-source-line="75" data-uid="ent0043" id="entity_Pneum"><rect fill="#ADD8E6" height="49.0679" rx="2.5" ry="2.5" style="stroke:#000000;stroke-width:0.5;" width="125.1757" x="1940.5" y="679.1884"/><rect fill="#ADD8E6" height="10" style="stroke:#000000;stroke-width:0.5;" width="15" x="2045.6757" y="684.1884"/><rect fill="#ADD8E6" height="2" style="stroke:#000000;stroke-width:0.5;" width="4" x="2043.6757" y="686.1884"/><rect fill="#ADD8E6" height="2" style="stroke:#000000;stroke-width:0.5;" width="4" x="2043.6757" y="690.1884"/><text fill="#000000" font-family="sans-serif" font-size="14" lengthAdjust="spacing" textLength="85.1757" x="1955.5" y="714.1544">Pneum&#225;ticos</text></g><!--entity Cam1--><g class="entity" data-entity="Cam1" data-source-line="80" data-uid="ent0045" id="entity_Cam1"><rect fill="#ADD8E6" height="49.0679" rx="2.5" ry="2.5" style="stroke:#000000;stroke-width:0.5;" width="124.2237" x="1668" y="470.1884"/><rect fill="#ADD8E6" height="10" style="stroke:#000000;stroke-width:0.5;" width="15" x="1772.2237" y="475.1884"/><rect fill="#ADD8E6" height="2" style="stroke:#000000;stroke-width:0.5;" width="4" x="1770.2237" y="477.1884"/><rect fill="#ADD8E6" height="2" style="stroke:#000000;stroke-width:0.5;" width="4" x="1770.2237" y="481.1884"/><text fill="#000000" font-family="sans-serif" font-size="14" lengthAdjust="spacing" textLength="84.2237" x="1683" y="505.1544">C&#226;mera Foto</text></g><!--entity Cam2--><g class="entity" data-entity="Cam2" data-source-line="81" data-uid="ent0046" id="entity_Cam2"><rect fill="#ADD8E6" height="49.0679" rx="2.5" ry="2.5" style="stroke:#000000;stroke-width:0.5;" width="131.9516" x="1827" y="470.1884"/><rect fill="#ADD8E6" height="10" style="stroke:#000000;stroke-width:0.5;" width="15" x="1938.9516" y="475.1884"/><rect fill="#ADD8E6" height="2" style="stroke:#000000;stroke-width:0.5;" width="4" x="1936.9516" y="477.1884"/><rect fill="#ADD8E6" height="2" style="stroke:#000000;stroke-width:0.5;" width="4" x="1936.9516" y="481.1884"/><text fill="#000000" font-family="sans-serif" font-size="14" lengthAdjust="spacing" textLength="91.9516" x="1842" y="505.1544">C&#226;mera V&#237;deo</text></g><!--link Frontend to Backend--><g class="link" data-entity-1="Frontend" data-entity-2="Backend" data-source-line="17" data-uid="lnk7" id="link_Frontend_Backend"><path d="M72.88,255.2084 C72.7,304.3884 72.3821,390.8885 72.1821,445.0985" fill="none" id="Frontend-to-Backend" style="stroke:#181818;stroke-width:1;"/><polygon fill="#181818" points="72.16,451.0984,76.1932,442.1133,72.1784,446.0985,68.1932,442.0837,72.16,451.0984" style="stroke:#181818;stroke-width:1;"/><text fill="#000000" font-family="sans-serif" font-size="13" lengthAdjust="spacing" textLength="75.8811" x="74" y="318.0855">HTTP/HTTPS</text></g><!--link Backend to DB--><g class="link" data-entity-1="Backend" data-entity-2="DB" data-source-line="18" data-uid="lnk8" id="link_Backend_DB"><path d="M74.88,538.3284 C77.53,577.3884 80.9746,628.3822 83.3846,663.9722" fill="none" id="Backend-to-DB" style="stroke:#181818;stroke-width:1;"/><polygon fill="#181818" points="83.79,669.9584,87.1728,660.7088,83.4522,664.9699,79.1911,661.2493,83.79,669.9584" style="stroke:#181818;stroke-width:1;"/><text fill="#000000" font-family="sans-serif" font-size="13" lengthAdjust="spacing" textLength="24.102" x="80" y="583.0855">SQL</text></g><!--reverse link MQTTclient to Backend--><g class="link" data-entity-1="MQTTclient" data-entity-2="Backend" data-source-line="19" data-uid="lnk10" id="link_MQTTclient_Backend"><path d="M202.67,494.6884 C174.16,494.6884 147.42,494.6884 121.14,494.6884" fill="none" id="MQTTclient-backto-Backend" style="stroke:#181818;stroke-width:1;"/><polygon fill="#181818" points="208.67,494.6884,199.67,490.6884,203.67,494.6884,199.67,498.6884,208.67,494.6884" style="stroke:#181818;stroke-width:1;"/><text fill="#000000" font-family="sans-serif" font-size="13" lengthAdjust="spacing" textLength="51.8961" x="139.5" y="487.5855">Pub/Sub</text></g><!--link Cloud to CloudDB--><g class="link" data-entity-1="Cloud" data-entity-2="CloudDB" data-source-line="30" data-uid="lnk16" id="link_Cloud_CloudDB"><path d="M850.9399,279.3865 C850.8833,279.7443 850.8264,280.1033 850.7694,280.4634 C850.5413,281.9036 850.3104,283.3614 850.077,284.8356 C848.2094,296.6288 846.1756,309.4709 844.065,322.7984 C835.6225,376.1084 826.8887,431.2573 821.6987,464.0223" fill="none" id="Cloud-to-CloudDB" style="stroke:#181818;stroke-width:1;"/><polygon fill="#181818" points="820.76,469.9484,826.1188,461.6851,821.5423,465.01,818.2173,460.4335,820.76,469.9484" style="stroke:#181818;stroke-width:1;"/></g><!--link EdgeGateway to EdgeProcess--><g class="link" data-entity-1="EdgeGateway" data-entity-2="EdgeProcess" data-source-line="44" data-uid="lnk24" id="link_EdgeGateway_EdgeProcess"><path d="M1394.0238,523.1227 C1378.0038,536.1427 1361.58,548.0684 1341,559.1884 C1299.81,581.4384 1284.36,575.2484 1242,595.1884 C1201.83,614.0984 1164.036,635.8775 1129.876,656.9575" fill="none" id="EdgeGateway-EdgeProcess" style="stroke:#181818;stroke-width:1;"/><polygon fill="#181818" points="1398.68,519.3384,1389.173,521.9107,1394.7999,522.492,1394.2186,528.1189,1398.68,519.3384" style="stroke:#181818;stroke-width:1;"/><polygon fill="#181818" points="1124.77,660.1084,1134.5297,658.7861,1129.025,657.4827,1130.3285,651.978,1124.77,660.1084" style="stroke:#181818;stroke-width:1;"/></g><!--link EdgeProcess to EdgeCache--><g class="link" data-entity-1="EdgeProcess" data-entity-2="EdgeCache" data-source-line="45" data-uid="lnk25" id="link_EdgeProcess_EdgeCache"><path d="M1059,753.3284 C1059,773.5084 1059,784.8484 1059,801.8484" fill="none" id="EdgeProcess-EdgeCache" style="stroke:#181818;stroke-width:1;"/><polygon fill="#181818" points="1059,747.3284,1055,756.3284,1059,752.3284,1063,756.3284,1059,747.3284" style="stroke:#181818;stroke-width:1;"/><polygon fill="#181818" points="1059,807.8484,1063,798.8484,1059,802.8484,1055,798.8484,1059,807.8484" style="stroke:#181818;stroke-width:1;"/></g><!--link EdgeMQTT to EdgeProcess--><g class="link" data-entity-1="EdgeMQTT" data-entity-2="EdgeProcess" data-source-line="46" data-uid="lnk26" id="link_EdgeMQTT_EdgeProcess"><path d="M1210.0559,524.0201 C1181.1459,558.2101 1135.0634,612.7162 1099.1034,655.2562" fill="none" id="EdgeMQTT-EdgeProcess" style="stroke:#181818;stroke-width:1;"/><polygon fill="#181818" points="1213.93,519.4384,1205.0644,523.7282,1210.7016,523.2565,1211.1733,528.8936,1213.93,519.4384" style="stroke:#181818;stroke-width:1;"/><polygon fill="#181818" points="1095.23,659.8384,1104.0949,655.5474,1098.4579,656.0199,1097.9854,650.3829,1095.23,659.8384" style="stroke:#181818;stroke-width:1;"/></g><!--link SensorOpt to MCU--><g class="link" data-entity-1="SensorOpt" data-entity-2="MCU" data-source-line="85" data-uid="lnk47" id="link_SensorOpt_MCU"><path d="M2065,245.8084 C2065,297.1584 2065,412.4584 2065,463.9284" fill="none" id="SensorOpt-to-MCU" style="stroke:#181818;stroke-width:1;"/><polygon fill="#181818" points="2065,469.9284,2069,460.9284,2065,464.9284,2061,460.9284,2065,469.9284" style="stroke:#181818;stroke-width:1;"/><text fill="#000000" font-family="sans-serif" font-size="13" lengthAdjust="spacing" textLength="81.029" x="2066" y="318.0855">GPIO/I2C/SPI</text></g><!--link SensorMov to MCU--><g class="link" data-entity-1="SensorMov" data-entity-2="MCU" data-source-line="86" data-uid="lnk48" id="link_SensorMov_MCU"><path d="M2206.74,245.6984 C2197.65,268.3484 2180.93,302.0384 2156,322.1884 C2147.26,329.2584 2140.21,322.5084 2132,330.1884 C2091.22,368.3184 2075.6015,428.9595 2069.3815,464.2495" fill="none" id="SensorMov-to-MCU" style="stroke:#181818;stroke-width:1;"/><polygon fill="#181818" points="2068.34,470.1584,2073.8415,461.9894,2069.2079,465.2343,2065.9629,460.6007,2068.34,470.1584" style="stroke:#181818;stroke-width:1;"/><text fill="#000000" font-family="sans-serif" font-size="13" lengthAdjust="spacing" textLength="81.029" x="2174" y="318.0855">GPIO/I2C/SPI</text></g><!--link MCU to ActRelay--><g class="link" data-entity-1="MCU" data-entity-2="ActRelay" data-source-line="87" data-uid="lnk49" id="link_MCU_ActRelay"><path d="M2073.37,519.4384 C2087.42,559.2584 2113.5649,633.3898 2127.6149,673.2398" fill="none" id="MCU-to-ActRelay" style="stroke:#181818;stroke-width:1;"/><polygon fill="#181818" points="2129.61,678.8984,2130.3898,669.0805,2127.9474,674.1829,2122.845,671.7406,2129.61,678.8984" style="stroke:#181818;stroke-width:1;"/><text fill="#000000" font-family="sans-serif" font-size="13" lengthAdjust="spacing" textLength="31.889" x="2098" y="583.0855">GPIO</text></g><!--link MCU to Pneum--><g class="link" data-entity-1="MCU" data-entity-2="Pneum" data-source-line="88" data-uid="lnk50" id="link_MCU_Pneum"><path d="M2043.01,519.2384 C2031.96,532.5584 2019.55,550.1384 2013,568.1884 C1999.58,605.1684 1999.1433,645.5473 2000.6433,673.0573" fill="none" id="MCU-to-Pneum" style="stroke:#181818;stroke-width:1;"/><polygon fill="#181818" points="2000.97,679.0484,2004.4741,669.844,2000.6978,674.0559,1996.4859,670.2796,2000.97,679.0484" style="stroke:#181818;stroke-width:1;"/><text fill="#000000" font-family="sans-serif" font-size="13" lengthAdjust="spacing" textLength="68.4711" x="2014" y="583.0855">PWM/GPIO</text></g><!--link MCU to MCUComm--><g class="link" data-entity-1="MCU" data-entity-2="MCUComm" data-source-line="91" data-uid="lnk51" id="link_MCU_MCUComm"><path d="M2114.64,494.6884 C2126.2,494.6884 2131.76,494.6884 2143.32,494.6884" fill="none" id="MCU-to-MCUComm" style="stroke:#181818;stroke-width:1;"/><polygon fill="#181818" points="2149.32,494.6884,2140.32,490.6884,2144.32,494.6884,2140.32,498.6884,2149.32,494.6884" style="stroke:#181818;stroke-width:1;"/></g><!--link MCUComm to EdgeComm--><g class="link" data-entity-1="MCUComm" data-entity-2="EdgeComm" data-source-line="92" data-uid="lnk52" id="link_MCUComm_EdgeComm"><path d="M2240.73,460.5384 C2219.76,425.3984 2181.75,372.6984 2132,350.1884 C2030.26,304.1584 1223.5,293.9984 1127,350.1884 C1082.51,376.0984 1061.7949,430.3471 1052.3649,464.3171" fill="none" id="MCUComm-to-EdgeComm" style="stroke:#181818;stroke-width:1;"/><polygon fill="#181818" points="1050.76,470.0984,1057.0216,462.4963,1052.0974,465.2806,1049.3131,460.3564,1050.76,470.0984" style="stroke:#181818;stroke-width:1;"/><text fill="#000000" font-family="sans-serif" font-size="13" lengthAdjust="spacing" textLength="82.2641" x="1770" y="318.0855">I2C/UART/SPI</text></g><!--link Cam1 to Drivers--><g class="link" data-entity-1="Cam1" data-entity-2="Drivers" data-source-line="95" data-uid="lnk53" id="link_Cam1_Drivers"><path d="M1669.19,519.2984 C1633.22,532.5484 1586.53,548.5084 1544,559.1884 C1469.73,577.8484 1450,577.8084 1374,587.1884 C1363.27,588.5084 1284.99,587.9084 1277,595.1884 C1272.5875,599.2097 1268.9733,603.8689 1266.0277,608.9482 C1265.6595,609.5831 1268.139,604.9378 1267.7914,605.5855" fill="none" id="Cam1-to-Drivers" style="stroke:#181818;stroke-width:1;"/><polygon fill="#181818" points="1264.9542,610.8722,1272.7346,604.8336,1267.3186,606.4666,1265.6856,601.0506,1264.9542,610.8722" style="stroke:#181818;stroke-width:1;"/></g><!--link Cam2 to Drivers--><g class="link" data-entity-1="Cam2" data-entity-2="Drivers" data-source-line="96" data-uid="lnk54" id="link_Cam2_Drivers"><path d="M1869.88,519.2684 C1854.37,533.4784 1832.69,550.4684 1810,559.1884 C1666.41,614.3884 1618.54,577.6984 1465,587.1884 C1454.57,587.8384 1284.86,588.2984 1277,595.1884 C1274.7537,597.1547 1272.7727,600.2647 1271.0255,604.2072 C1270.1519,606.1784 1269.3368,608.3578 1268.5762,610.7064 C1268.5287,610.8532 1270.3001,605.2829 1270.253,605.431" fill="none" id="Cam2-to-Drivers" style="stroke:#181818;stroke-width:1;"/><polygon fill="#181818" points="1268.4342,611.1487,1274.9742,603.7847,1269.9499,606.384,1267.3505,601.3597,1268.4342,611.1487" style="stroke:#181818;stroke-width:1;"/></g><!--link Drivers to EdgeProcess--><g class="link" data-entity-1="Drivers" data-entity-2="EdgeProcess" data-source-line="98" data-uid="lnk55" id="link_Drivers_EdgeProcess"><path d="M1249.8603,703.6884 C1249.5911,703.6884 1249.3159,703.6884 1249.0348,703.6884 C1244.5372,703.6884 1238.5244,703.6884 1231.4087,703.6884 C1217.1775,703.6884 1204.535,703.6884 1184.78,703.6884" fill="none" id="Drivers-to-EdgeProcess" style="stroke:#181818;stroke-width:1;"/><polygon fill="#181818" points="1178.78,703.6884,1187.78,707.6884,1183.78,703.6884,1187.78,699.6884,1178.78,703.6884" style="stroke:#181818;stroke-width:1;"/><text fill="#000000" font-family="sans-serif" font-size="13" lengthAdjust="spacing" textLength="43.979" x="1196.57" y="696.5855">Stream</text></g><!--reverse link Cloud to EdgeGateway--><g class="link" data-entity-1="Cloud" data-entity-2="EdgeGateway" data-source-line="101" data-uid="lnk57" id="link_Cloud_EdgeGateway"><path d="M874.1359,223.7416 C876.3795,223.9939 876.1004,223.9717 878.945,224.2998 C890.3235,225.612 906.3427,227.5263 925.6641,230.0128 C964.3069,234.9859 1016.1587,242.2484 1070.5125,251.5634 C1179.22,270.1934 1297.935,297.0334 1341,330.1884 C1387.39,365.9084 1410.89,434.1084 1420.52,470.0984" fill="none" id="Cloud-backto-EdgeGateway" style="stroke:#181818;stroke-width:1;"/><polygon fill="#181818" points="868.1726,223.079,876.6758,228.0484,873.142,223.6311,877.5593,220.0973,868.1726,223.079" style="stroke:#181818;stroke-width:1;"/><text fill="#000000" font-family="sans-serif" font-size="13" lengthAdjust="spacing" textLength="39.091" x="1324" y="318.0855">HTTPS</text></g><!--reverse link MQTTserver to EdgeMQTT--><g class="link" data-entity-1="MQTTserver" data-entity-2="EdgeMQTT" data-source-line="102" data-uid="lnk59" id="link_MQTTserver_EdgeMQTT"><path d="M758.2691,258.7605 C779.6291,273.4005 801.5,285.9584 828,295.1884 C954.35,339.2084 1013.21,259.8084 1127,330.1884 C1180.09,363.0184 1212.14,433.1184 1225.97,469.9584" fill="none" id="MQTTserver-backto-EdgeMQTT" style="stroke:#181818;stroke-width:1;"/><polygon fill="#181818" points="753.32,255.3684,758.4823,263.756,757.4443,258.1952,763.0051,257.1572,753.32,255.3684" style="stroke:#181818;stroke-width:1;"/><text fill="#000000" font-family="sans-serif" font-size="13" lengthAdjust="spacing" textLength="80.2751" x="1109" y="318.0855">MQTT Bridge</text></g><!--reverse link NBIoTNode to EdgeIfcComm--><g class="link" data-entity-1="NBIoTNode" data-entity-2="EdgeIfcComm" data-source-line="103" data-uid="lnk61" id="link_NBIoTNode_EdgeIfcComm"><path d="M1503.0384,285.4888 C1503.243,286.9616 1502.6991,283.0551 1502.9057,284.5493 C1503.3189,287.5377 1503.7352,290.5648 1504.1519,293.6139 C1505.8188,305.8103 1507.4925,318.3584 1509,330.1884 C1511.2775,348.0459 1513.585,367.0159 1515.7697,385.4694 C1516.3159,390.0827 1516.8544,394.6638 1517.3828,399.1871 C1517.4488,399.7526 1517.5147,400.3171 1517.5805,400.8806 C1517.6133,401.1624 1517.6462,401.444 1517.679,401.7253" fill="none" id="NBIoTNode-backto-EdgeIfcComm" style="stroke:#181818;stroke-width:1;"/><polygon fill="#181818" points="1502.212,279.546,1499.4897,289.0112,1502.9006,284.4984,1507.4134,287.9093,1502.212,279.546" style="stroke:#181818;stroke-width:1;"/><text fill="#000000" font-family="sans-serif" font-size="13" lengthAdjust="spacing" textLength="63.0501" x="1508" y="318.0855">UART/USB</text></g><!--reverse link APIGW to Backend--><g class="link" data-entity-1="APIGW" data-entity-2="Backend" data-source-line="106" data-uid="lnk63" id="link_APIGW_Backend"><path d="M454.9766,248.7259 C427.1266,264.7159 393.44,282.2484 357,295.1884 C285.95,320.4284 254.29,289.1984 191,330.1884 C145.47,359.6784 111.55,413.1184 91.82,450.8684" fill="none" id="APIGW-backto-Backend" style="stroke:#181818;stroke-width:1;"/><polygon fill="#181818" points="460.18,245.7384,450.3833,246.7508,455.8439,248.228,454.3666,253.6886,460.18,245.7384" style="stroke:#181818;stroke-width:1;"/><text fill="#000000" font-family="sans-serif" font-size="13" lengthAdjust="spacing" textLength="53.6381" x="327" y="318.0855">API REST</text></g><!--reverse link MQTTserver to MQTTclient--><g class="link" data-entity-1="MQTTserver" data-entity-2="MQTTclient" data-source-line="107" data-uid="lnk65" id="link_MQTTserver_MQTTclient"><path d="M656.2406,258.3776 C632.1906,273.0776 607.23,285.9884 578,295.1884 C545.6,305.3884 535.52,297.6984 502,303.1884 C447.62,312.0884 426.24,298.7284 381,330.1884 C334.34,362.6284 303.27,422.9084 287.42,460.5084" fill="none" id="MQTTserver-backto-MQTTclient" style="stroke:#181818;stroke-width:1;"/><polygon fill="#181818" points="661.36,255.2484,651.5948,256.5292,657.0938,257.8561,655.7669,263.3551,661.36,255.2484" style="stroke:#181818;stroke-width:1;"/><text fill="#000000" font-family="sans-serif" font-size="13" lengthAdjust="spacing" textLength="80.2751" x="503" y="318.0855">MQTT Bridge</text></g><!--SRC=[bLR1RkCs4BthArXVUWg4kkqUWjI092jUePQjMB9JO9i3BJ6Ei9BeKbA2tSLUsaC_OD4FQ7ieUkYfdw0Vwv0Y9LgHisWEZiXvmtbyCnpoYuJSfmL16zU9hDLYwQ8umsLf6ENRj3XYXdDqnF5RV21XzIuZY96umiKX8nfW3u03etMHE3IZ33qzf9LkZsb-f0KfAlJ1GF1d3_1PUdYezbbDMYjb2M6jPPy1rFXe65-Yxxe_P0LBpx6QNvjVrkZMjJMJ8RcYYVVQdyXmVVWtrumM5IcI7ukhApIRtI5S8ZKtn7AM0ce57iWJHhgJD0gV15TuZqi8QkCYfYWXQ8uJMdAyZrcAv_PiDk5UStiO9AZtORr7JfR2K3ZGygSwhIeg0_atKHGBgt0LFuenkaZeKt4nKspG9NeTHO79Vy9EQHqujm4JtYnFZHcvhy3OXm8G43E1sJFjLzkTw-kAnncj4pHPrOyaLuftMN24CIJiCOs94CIw3KthVSs8kN02SrsWW94yBObKg7LeLnb8nTEmm1Lvmk-4CZ1Ut8u1MqrvKC9uoF0cHARQ47oDILmAj5ZjusbItyWzL9J1bkuwaZANugU5A96LUIYTttoQRvThvCuNhgvWGQ5Y9dxpRr9d5Bd9WGWf-CUAcpxqWVhoXW9WznX4vUNcqBmkqXWtVpL_qixPku_1a8-hoG4dSl89EJulgYnKinMty-CAZZbvKySC0y_SMfke0tDEcj1w34PXGoNEOKIHl-J9Evs3lNev2510BQsFf71sPWG3ogup-YJJoMD8hs401ySF12rfZBEU3f_h5TPaG5SgeyCbjV4fg5zCoJA-o6aovom5DKKcULuFJ4kaieqciJMYJHG6TpsO3rz0hrSxxrg3Y_4B-Dqtowa6vyCnj1D2bmpIRpKeJBM95kh2SJYjz9NjqKfiadz5Mgrho_RW2y3mYhYfuGeY6RATLwzaoeM_Jm58Xlul71I-6AzCSnlQ-aAYGCyTNj_PdZ-xO1ovT0BF-NhgVz_s6cVxFndgPqWrB6SxoZ5qL-4QRYha8YlQMdFnFNOvXkBCa7A4R6j2pQTZbSPKX6kdriTgYDsbUrcg6iwdZvnO5ykgQhWCnuDjIDRyNRRTFAvW97kFBbv1whpvdPDfWMBYsTQTvcVVtLZZstMQFtB2y1W3QKBNj6etuU3ygtEWNVDFGZhOz3c9zShzeVaDHETLSWLdNcN47Cr79sntTN2_IxG8lBKfysvqghu4ubFAh9IKc1ER48_VxhU-AOoVsy3mhXABCVvUQuc8EfJ_UuDgyn29CnI7ZDCy5wtBtbX8df7-0TEsGpuvVJPfg6PvGaGrQdZuL8pW_2mB4PWpUFR6qI-5Y_gexdZvtWgDhjctnlv10GWnRxCK88P-AxVGllDT8jMBpX8Sldj7kNQlEh6-U2J1skeDQsYFlC-G_Gy0]--></g></svg>