<svg xmlns="http://www.w3.org/2000/svg" xmlns:xlink="http://www.w3.org/1999/xlink" contentStyleType="text/css" data-diagram-type="SEQUENCE" height="751.5702px" preserveAspectRatio="none" style="width:1297px;height:751px;background:#EEEBDC;" version="1.1" viewBox="0 0 1297 751" width="1297.7112px" zoomAndPan="magnify"><defs/><g><rect fill="#EEEBDC" height="751.5702" style="stroke:none;stroke-width:1.6702;" width="1297.7112" x="0" y="0"/><g><title>M.dulo Edge</title><polygon fill="#A9DCDF" points="536.3851,309.1458,536.3851,309.2628,539.7254,308.9151,543.0657,309.2534,546.406,309.3683,549.7463,308.7486,553.0866,309.1458,552.9568,309.1458,552.3743,325.7246,552.4461,342.3034,552.9728,358.8822,551.9319,375.461,554.0113,392.0398,552.034,408.6186,552.7563,425.1975,553.8081,441.7763,552.9434,458.3551,553.2006,474.9339,553.0333,491.5127,553.3848,508.0915,553.486,524.6703,554.0648,541.2491,554.2074,557.8279,553.0866,574.4068,553.0866,574.7849,549.7463,574.5485,546.406,574.6648,543.0657,574.7977,539.7254,574.0053,536.3851,574.4068,537.5183,574.4068,535.8899,557.8279,537.2766,541.2491,535.5583,524.6703,536.2707,508.0915,537.6237,491.5127,536.3037,474.9339,536.5609,458.3551,536.9506,441.7763,537.0802,425.1975,536.3786,408.6186,536.8648,392.0398,535.4291,375.461,536.86,358.8822,537.3006,342.3034,537.1275,325.7246,536.3851,309.1458" style="stroke:#181818;stroke-width:1.6702;"/></g><g><title>MCU</title><polygon fill="#000000" fill-opacity="0.00000" points="375.6024,252.8515,375.6024,252.9685,378.2746,252.6208,380.9469,252.9591,383.6191,253.074,386.2914,252.4543,388.9636,252.8515,388.8338,252.8515,388.2513,269.6808,388.3231,286.5101,388.8498,303.3395,387.8089,320.1688,389.8883,336.9981,387.911,353.8275,388.6333,370.6568,389.6851,387.4861,388.8204,404.3155,389.0776,421.1448,388.9103,437.9741,389.2618,454.8035,389.363,471.6328,389.9418,488.4622,390.0844,505.2915,390.0981,522.1208,389.3889,538.9502,389.7379,555.7795,390.1365,572.6088,388.9636,589.4382,388.9636,589.0367,386.2914,589.8159,383.6191,589.2731,380.9469,589.7353,378.2746,589.1626,375.6024,589.4382,375.488,589.4382,376.841,572.6088,375.521,555.7795,375.7783,538.9502,376.1679,522.1208,376.2976,505.2915,375.5959,488.4622,376.0821,471.6328,374.6464,454.8035,376.0774,437.9741,376.518,421.1448,376.3448,404.3155,376.6262,387.4861,374.7956,370.6568,374.5131,353.8275,374.5645,336.9981,375.504,320.1688,375.2742,303.3395,376.7404,286.5101,375.3106,269.6808,375.6024,252.8515"/><path d="M381.7904,252.8515 L382.2584,252.8515 L380.8678,269.6808 L382.2208,286.5101 L382.6804,303.3395 L380.2018,320.1688 L381.6173,336.9981 L380.8406,353.8275 L380.9364,370.6568 L381.6386,387.4861 L380.2508,404.3155 L383.0233,421.1448 L380.3868,437.9741 L381.35,454.8035 L382.7523,471.6328 L381.5994,488.4622 L381.9424,505.2915 L381.7192,522.1208 L382.1879,538.9502 L382.3229,555.7795 L383.0947,572.6088 L381.7904,589.4382" fill="none" style="stroke:#0000FF;stroke-width:0.8351;stroke-dasharray:8.3508,8.3508;"/></g><g><title>M.dulo Edge</title><polygon fill="#000000" fill-opacity="0.00000" points="538.0552,252.8515,538.0552,252.9685,540.7275,252.6208,543.3997,252.9591,546.072,253.074,548.7442,252.4543,551.4165,252.8515,551.2867,252.8515,550.7042,269.6808,550.776,286.5101,551.3026,303.3395,550.2618,320.1688,552.3412,336.9981,550.3638,353.8275,551.0862,370.6568,552.1379,387.4861,551.2732,404.3155,551.5305,421.1448,551.3631,437.9741,551.7146,454.8035,551.8159,471.6328,552.3947,488.4622,552.5372,505.2915,552.5509,522.1208,551.8417,538.9502,552.1907,555.7795,552.5893,572.6088,551.4165,589.4382,551.4165,589.0367,548.7442,589.8159,546.072,589.2731,543.3997,589.7353,540.7275,589.1626,538.0552,589.4382,537.9408,589.4382,539.2938,572.6088,537.9738,555.7795,538.2311,538.9502,538.6208,522.1208,538.7504,505.2915,538.0487,488.4622,538.5349,471.6328,537.0992,454.8035,538.5302,437.9741,538.9708,421.1448,538.7977,404.3155,539.0791,387.4861,537.2484,370.6568,536.966,353.8275,537.0174,336.9981,537.9569,320.1688,537.727,303.3395,539.1933,286.5101,537.7635,269.6808,538.0552,252.8515"/><path d="M543.3114,252.8515 L543.7795,252.8515 L542.3888,269.6808 L543.7419,286.5101 L544.2015,303.3395 L541.7228,320.1688 L543.1384,336.9981 L542.3617,353.8275 L542.4574,370.6568 L543.1597,387.4861 L541.7718,404.3155 L544.5443,421.1448 L541.9079,437.9741 L542.871,454.8035 L544.2733,471.6328 L543.1204,488.4622 L543.4634,505.2915 L543.2403,522.1208 L543.709,538.9502 L543.844,555.7795 L544.6157,572.6088 L543.3114,589.4382" fill="none" style="stroke:#0000FF;stroke-width:0.8351;stroke-dasharray:8.3508,8.3508;"/></g><g><title>Cloud</title><polygon fill="#000000" fill-opacity="0.00000" points="980.1075,252.8515,980.1075,252.9685,982.7797,252.6208,985.452,252.9591,988.1242,253.074,990.7965,252.4543,993.4687,252.8515,993.3389,252.8515,992.7564,269.6808,992.8282,286.5101,993.3549,303.3395,992.314,320.1688,994.3934,336.9981,992.416,353.8275,993.1384,370.6568,994.1901,387.4861,993.3254,404.3155,993.5827,421.1448,993.4153,437.9741,993.7669,454.8035,993.8681,471.6328,994.4469,488.4622,994.5895,505.2915,994.6032,522.1208,993.894,538.9502,994.243,555.7795,994.6415,572.6088,993.4687,589.4382,993.4687,589.0367,990.7965,589.8159,988.1242,589.2731,985.452,589.7353,982.7797,589.1626,980.1075,589.4382,979.9931,589.4382,981.3461,572.6088,980.0261,555.7795,980.2833,538.9502,980.673,522.1208,980.8026,505.2915,980.1009,488.4622,980.5871,471.6328,979.1514,454.8035,980.5824,437.9741,981.023,421.1448,980.8499,404.3155,981.1313,387.4861,979.3006,370.6568,979.0182,353.8275,979.0696,336.9981,980.0091,320.1688,979.7792,303.3395,981.2455,286.5101,979.8157,269.6808,980.1075,252.8515"/><path d="M986.4742,252.8515 L986.9422,252.8515 L985.5515,269.6808 L986.9046,286.5101 L987.3642,303.3395 L984.8855,320.1688 L986.3011,336.9981 L985.5244,353.8275 L985.6202,370.6568 L986.3224,387.4861 L984.9346,404.3155 L987.7071,421.1448 L985.0706,437.9741 L986.0338,454.8035 L987.4361,471.6328 L986.2832,488.4622 L986.6261,505.2915 L986.403,522.1208 L986.8717,538.9502 L987.0067,555.7795 L987.7784,572.6088 L986.4742,589.4382" fill="none" style="stroke:#0000FF;stroke-width:0.8351;stroke-dasharray:8.3508,8.3508;"/></g><g class="participant participant-head" data-participant="MCU"><polygon fill="#1E90FF" points="342.5417,189.1284,342.5417,189.4795,358.4382,188.4364,374.3348,189.4512,390.2313,189.796,406.1278,187.9369,422.0243,189.1284,422.0077,189.0885,422.5239,189.1537,423.1236,189.4204,423.7812,189.8271,424.239,189.7512,424.9767,190.3514,425.2615,190.4693,424.8971,190.8076,425.3642,191.4902,425.9327,192.2149,425.911,192.6951,426.1997,193.3038,426.2377,193.3038,426.1819,204.0442,426.2991,214.7847,426.3328,225.5251,426.5257,236.2655,426.1997,247.0059,426.5448,247.1489,426.3045,247.7411,425.8415,248.2412,425.7044,248.8762,425.5825,249.5175,424.9767,249.9584,424.8231,249.5874,424.5308,250.5519,423.7326,250.295,423.319,250.9667,422.5093,250.6821,422.0243,251.1813,422.0243,251.0669,406.1278,252.4199,390.2313,251.0999,374.3348,251.3572,358.4382,251.7469,342.5417,251.1813,342.6304,251.3954,341.9504,250.9347,341.4219,250.8399,340.6483,250.1531,340.2404,250.3492,339.5893,249.9584,339.8712,250.0752,339.5733,249.4626,339.4154,248.908,338.607,248.084,338.2755,247.4575,338.3663,247.0059,338.0204,247.0059,338.3336,236.2655,338.2569,225.5251,338.7457,214.7847,338.2691,204.0442,338.3663,193.3038,338.1899,193.2307,338.7283,192.762,338.5125,191.9808,338.8331,191.4218,339.6785,191.0801,339.5893,190.3514,339.6821,190.5755,340.3362,190.4846,340.7017,189.6967,341.4288,189.7818,342.077,189.6767,342.5417,189.1284" style="stroke:#00BFFF;stroke-width:0.8351;"/><text fill="#A9DCDF" font-family="Impact" font-size="28.3927" lengthAdjust="spacing" textLength="64.4512" x="350.0574" y="231.1712">MCU</text></g><g class="participant participant-head" data-participant="EDGE"><polygon fill="#1E90FF" points="448.9476,189.1284,448.9476,189.4795,466.3637,188.4364,483.7797,189.4512,501.1957,189.796,518.6118,187.9369,536.0278,188.9986,553.4439,188.4161,570.8599,188.4879,588.276,189.0146,605.692,187.9737,623.1081,190.0531,640.5241,189.1284,640.3898,188.8042,641.0725,189.2713,641.7971,189.8398,642.2773,189.8181,642.9006,190.1419,643.4765,190.3514,643.4601,190.3446,643.813,190.9799,644.0887,191.5833,644.5116,192.2476,644.8,192.8563,644.6995,193.3038,645.0776,193.3038,644.8412,204.0442,644.9576,214.7847,645.0904,225.5251,644.298,236.2655,644.6995,247.0059,645.0485,247.1505,644.3024,247.5332,644.4849,248.3006,643.7111,248.6719,643.6859,249.3533,643.4765,249.9584,643.6345,250.3398,642.8757,250.1779,642.318,250.5017,641.7772,250.8663,641.2033,251.1508,640.5241,251.1813,640.5241,251.1748,623.1081,251.661,605.692,250.2253,588.276,251.6563,570.8599,252.0969,553.4439,251.9238,536.0278,252.2052,518.6118,250.3745,501.1957,250.0921,483.7797,250.1435,466.3637,251.083,448.9476,251.1813,448.9058,251.0802,448.5023,251.2872,447.7294,250.6023,447.1031,250.2711,446.6343,250.3204,445.9952,249.9584,445.6522,249.8163,445.4836,249.2573,445.8398,248.9157,445.4855,248.2797,445.3946,247.7529,444.7722,247.0059,444.5931,247.0059,444.9499,236.2655,445.1009,225.5251,444.5092,214.7847,444.7189,204.0442,444.7722,193.3038,444.837,193.3307,445.352,192.8522,445.2593,192.1219,445.7439,191.6309,445.4658,190.8239,445.9952,190.3514,445.8509,190.003,446.693,190.3658,447.0234,189.4934,447.8751,189.8794,448.4012,189.4793,448.9476,189.1284" style="stroke:#00BFFF;stroke-width:0.8351;"/><text fill="#A9DCDF" font-family="Impact" font-size="28.3927" lengthAdjust="spacing" textLength="176.5451" x="456.4633" y="231.1712">M&#243;dulo Edge</text></g><g class="participant participant-head" data-participant="Cloud"><polygon fill="#1E90FF" points="940.5449,189.1284,940.5449,189.4795,955.9593,188.4364,971.3737,189.4512,986.7881,189.796,1002.2025,187.9369,1017.6169,188.9986,1033.0313,189.1284,1032.9404,188.9091,1033.5401,189.1758,1034.1977,189.5825,1034.6554,189.5066,1035.5112,190.3915,1035.9837,190.3514,1035.6595,190.2171,1036.1266,190.8997,1036.6951,191.6244,1036.6734,192.1046,1036.9972,192.7279,1037.2067,193.3038,1037.1889,193.3038,1037.306,204.0442,1037.3398,214.7847,1037.5327,225.5251,1037.5802,236.2655,1037.2067,247.0059,1037.556,247.1506,1037.093,247.6507,1036.9559,248.2857,1036.8341,248.927,1035.8574,249.2142,1035.9837,249.9584,1036.1283,250.3074,1035.3301,250.0505,1034.9165,250.7221,1034.1068,250.4375,1033.6072,250.9015,1033.0313,251.1813,1033.0313,252.4199,1017.6169,251.0999,1002.2025,251.3572,986.7881,251.7469,971.3737,251.8765,955.9593,251.1748,940.5449,251.1813,940.6061,251.329,939.8325,250.6423,939.4245,250.8384,938.8902,250.7295,938.2776,250.4316,937.5925,249.9584,937.9078,250.089,937.0994,249.265,936.7678,248.6384,936.5391,248.0545,936.5838,247.5839,936.3695,247.0059,936.2601,247.0059,936.7489,236.2655,936.2723,225.5251,936.1785,214.7847,936.4966,204.0442,936.3695,193.3038,936.0265,193.1618,936.3471,192.6027,937.1925,192.2611,937.3274,191.6252,937.7256,191.0983,937.5925,190.3514,937.5239,190.1859,938.2509,190.271,938.8992,190.1659,939.2633,189.3746,939.934,189.3237,940.5449,189.1284" style="stroke:#00BFFF;stroke-width:0.8351;"/><text fill="#A9DCDF" font-family="Impact" font-size="28.3927" lengthAdjust="spacing" textLength="77.455" x="948.0606" y="231.1712">Cloud</text></g><g><title>M.dulo Edge</title><polygon fill="#A9DCDF" points="536.3851,309.1458,536.3851,309.2628,539.7254,308.9151,543.0657,309.2534,546.406,309.3683,549.7463,308.7486,553.0866,309.1458,552.9568,309.1458,552.3743,325.7246,552.4461,342.3034,552.9728,358.8822,551.9319,375.461,554.0113,392.0398,552.034,408.6186,552.7563,425.1975,553.8081,441.7763,552.9434,458.3551,553.2006,474.9339,553.0333,491.5127,553.3848,508.0915,553.486,524.6703,554.0648,541.2491,554.2074,557.8279,553.0866,574.4068,553.0866,574.7849,549.7463,574.5485,546.406,574.6648,543.0657,574.7977,539.7254,574.0053,536.3851,574.4068,537.5183,574.4068,535.8899,557.8279,537.2766,541.2491,535.5583,524.6703,536.2707,508.0915,537.6237,491.5127,536.3037,474.9339,536.5609,458.3551,536.9506,441.7763,537.0802,425.1975,536.3786,408.6186,536.8648,392.0398,535.4291,375.461,536.86,358.8822,537.3006,342.3034,537.1275,325.7246,536.3851,309.1458" style="stroke:#181818;stroke-width:1.6702;"/></g><g class="message" data-participant-1="MCU" data-participant-2="EDGE"><polygon fill="#00BFFF" points="516.3432,302.4652,516.3867,302.5738,519.5979,303.5871,523.0638,305.2373,526.4468,306.6801,529.557,307.4409,533.0448,309.1458,533.0287,309.1056,529.6163,310.2614,526.2848,311.6198,523.0097,313.1189,519.5406,314.1329,516.3432,315.8264,516.5612,316.0443,517.4312,314.2422,518.9376,313.0763,520.5216,311.9881,521.6539,310.4481,523.0238,309.1458,523.0507,309.1726,521.6751,307.7971,520.4219,306.5438,519.1096,305.2315,517.9099,304.0318,516.3432,302.4652" style="stroke:#00BFFF;stroke-width:1.6702;"/><path d="M382.283,309.1458 L382.283,309.6138 L398.292,308.2231 L414.301,309.5762 L430.3101,310.0358 L446.3191,307.5571 L462.3281,308.9727 L478.3371,308.196 L494.3461,308.2918 L510.3551,308.994 L526.3641,309.1458" fill="none" style="stroke:#00BFFF;stroke-width:1.6702;"/><text fill="#000000" font-family="sans-serif" font-size="21.712" lengthAdjust="spacing" textLength="122.3691" x="393.9741" y="299.4438">Envia dados</text></g><polygon fill="#FEFFDD" points="266.5496,330.8578,266.5496,331.2088,282.9728,330.1658,299.396,331.1806,315.8192,331.5253,332.2424,329.6663,348.6656,330.728,365.0888,330.1455,381.512,330.2173,397.9352,330.744,414.3584,329.7031,430.7816,331.7825,447.2048,329.8051,463.628,330.5275,480.0512,331.5792,496.4744,330.7145,512.8976,330.9718,529.3208,330.8045,545.744,331.156,562.1672,331.2572,578.5904,331.836,595.0136,331.9786,611.4368,331.9923,627.86,331.2831,644.2833,331.6321,660.7065,330.8578,661.0068,331.1081,663.7383,334.6091,667.6773,339.1164,670.6006,342.7773,674.296,347.0816,677.408,350.8997,677.1896,350.7317,674.0375,355.2188,671.0546,359.8362,667.3656,363.9104,664.0932,368.305,660.7065,372.6117,660.7065,373.1773,644.2833,373.3069,627.86,372.6052,611.4368,373.0914,595.0136,371.6557,578.5904,373.0867,562.1672,373.5273,545.744,373.3541,529.3208,373.6356,512.8976,371.8049,496.4744,371.5225,480.0512,371.5739,463.628,372.5134,447.2048,372.2835,430.7816,373.7498,414.3584,372.32,397.9352,372.0388,381.512,372.993,365.0888,371.498,348.6656,371.7447,332.2424,373.6956,315.8192,373.3393,299.396,373.8384,282.9728,372.0743,266.5496,372.6117,266.6905,372.7201,263.4698,368.4697,259.6605,363.7665,256.4864,359.552,253.244,355.2848,249.8481,350.8997,250.1268,351.132,253.1866,346.8898,256.7265,343.0478,259.6322,338.6772,262.9197,334.6248,266.5496,330.8578" style="stroke:#181818;stroke-width:0.8351;"/><text fill="#000000" font-family="sans-serif" font-size="21.712" lengthAdjust="spacing" textLength="387.8857" x="269.8899" y="360.7486">dados de contagem e status a cada 1s</text><g class="message" data-participant-1="EDGE" data-participant-2="EDGE"><path d="M553.0866,421.7344 L553.0866,421.8904 L567.1159,421.4268 L581.1453,421.8779 L595.1746,422.0311 L609.2039,421.2048 L623.2332,421.7344" fill="none" style="stroke:#00BFFF;stroke-width:1.6702;"/><path d="M623.2332,421.7344 L623.3892,421.7344 L622.9256,426.0768 L623.3767,430.4192 L623.5299,434.7616 L622.7036,439.104 L623.2332,443.4464" fill="none" style="stroke:#00BFFF;stroke-width:1.6702;"/><path d="M554.7568,443.4464 L554.7568,443.6024 L568.4521,443.1389 L582.1474,443.5899 L595.8426,443.7431 L609.5379,442.9169 L623.2332,443.4464" fill="none" style="stroke:#00BFFF;stroke-width:1.6702;"/><polygon fill="#00BFFF" points="571.4584,436.7658,571.5018,436.8744,568.0324,437.8878,564.8177,439.538,561.5201,440.9808,557.9496,441.7415,554.7568,443.4464,554.7407,443.4063,558.0089,444.5621,561.3581,445.9204,564.7636,447.4196,567.9751,448.4336,571.4584,450.127,571.6763,450.345,569.8741,448.5428,568.7083,447.3769,567.62,446.2887,566.0801,444.7488,564.7777,443.4464,564.8046,443.4733,566.1013,442.0977,567.5203,440.8445,568.8802,439.5322,570.3528,438.3325,571.4584,436.7658" style="stroke:#00BFFF;stroke-width:1.6702;"/><text fill="#000000" font-family="sans-serif" font-size="21.712" lengthAdjust="spacing" textLength="199.664" x="564.7777" y="412.0325">Calcular KPI de OEE</text></g><path d="M256.5287,465.1584 L256.8407,465.1584 L255.9136,474.1773 L256.8156,483.1961 L257.122,492.215 L255.4696,501.2338 L256.5287,510.2527 L256.5287,509.9065 L273.4267,508.3532 L290.3248,508.5447 L307.2228,509.9491 L324.1209,507.1735 L341.0189,512.7184 L357.917,507.4455 L374.815,509.3719 L391.7131,512.1764 L408.6111,509.8706 L425.5092,510.5566 L442.4072,510.1104 L459.3053,511.0478 L476.2033,511.3177 L493.1014,512.8612 L509.9994,513.2414 L526.8975,513.2779 L543.7955,511.3867 L560.6936,512.3174 L577.5916,513.3802 L594.4897,507.0407 L611.3877,513.2746 L628.2858,508.9321 L645.1838,512.6301 L662.0819,508.048 L678.9799,509.9476 L695.878,513.5556 L712.776,510.0356 L729.6741,510.7217 L746.5721,511.7608 L763.4702,512.1065 L780.3682,510.2353 L797.2663,511.5318 L814.1643,507.7033 L831.0624,510.2527 L831.4846,510.2527 L831.8762,504.5741 L831.7223,498.8956 L831.9725,493.2171 L830.3452,487.5385 L831.0624,481.86 L830.3777,481.1754 L827.0697,477.8674 L824.3199,475.1176 L820.8351,471.6328 L818.4164,469.2141 L814.3608,465.1584 L814.3608,464.3805 L797.4568,463.6306 L780.5528,466.1751 L763.6488,462.1885 L746.7448,462.8464 L729.8408,468.0487 L712.9368,467.0988 L696.0328,468.4297 L679.1288,463.7253 L662.2248,466.5801 L645.3208,467.788 L628.4168,463.0545 L611.5128,464.7315 L594.6088,465.7195 L577.7048,468.0612 L560.8008,465.1398 L543.8968,467.2186 L526.9927,462.692 L510.0887,462.1421 L493.1847,467.4014 L476.2807,461.9654 L459.3767,467.4252 L442.4727,466.0787 L425.5687,463.9652 L408.6647,463.5828 L391.7607,467.2016 L374.8567,463.8253 L357.9527,467.7945 L341.0487,462.6967 L324.1447,467.9083 L307.2407,467.3154 L290.3367,466.2495 L273.4327,465.3688 L256.5287,465.1584" fill="#FEFFDD" style="stroke:#181818;stroke-width:0.8351;"/><path d="M814.3608,465.1584 L815.4395,465.1584 L815.2717,468.4988 L814.6121,471.8391 L814.759,475.1794 L814.1674,478.5197 L814.3608,481.86 L814.3608,482.9236 L817.7011,482.0899 L821.0414,482.1162 L824.3817,480.9569 L827.7221,481.2584 L831.0624,481.86 L831.6195,482.4172 L828.1732,478.9708 L824.3367,475.1343 L820.7032,471.5009 L817.4713,468.2689 L814.3608,465.1584" fill="#FEFFDD" style="stroke:#181818;stroke-width:0.8351;"/><text fill="#000000" font-family="sans-serif" font-size="21.712" lengthAdjust="spacing" textLength="540.2609" x="266.5496" y="496.7194">Overall Equipment Effectiveness calculado a cada 5m</text><g class="message" data-participant-1="EDGE" data-participant-2="Cloud"><polygon fill="#00BFFF" points="966.7462,552.6947,966.7897,552.8034,970.0009,553.8167,973.4668,555.4669,976.8498,556.9097,979.96,557.6705,983.4478,559.3753,983.4317,559.3352,980.0193,560.491,976.6879,561.8494,973.4127,563.3485,969.9436,564.3625,966.7462,566.056,966.9642,566.2739,967.8342,564.4717,969.3406,563.3059,970.9246,562.2176,972.0569,560.6777,973.4268,559.3753,973.4537,559.4022,972.0781,558.0266,970.8249,556.7734,969.5126,555.4611,968.3129,554.2614,966.7462,552.6947" style="stroke:#00BFFF;stroke-width:1.6702;"/><path d="M553.0866,559.3753 L553.0866,559.8434 L570.0339,558.4527 L586.9811,559.8058 L603.9283,560.2654 L620.8755,557.7867 L637.8227,559.2023 L654.77,558.4256 L671.7172,558.5213 L688.6644,559.2236 L705.6116,557.8358 L722.5588,560.6082 L739.5061,557.9718 L756.4533,558.9349 L773.4005,560.3372 L790.3477,559.1843 L807.2949,559.5273 L824.2422,559.3042 L841.1894,559.7729 L858.1366,559.9079 L875.0838,560.6796 L892.031,560.8697 L908.9783,560.888 L925.9255,559.9424 L942.8727,560.4077 L959.8199,560.9391 L976.7671,559.3753" fill="none" style="stroke:#00BFFF;stroke-width:1.6702;"/><text fill="#000000" font-family="sans-serif" font-size="21.712" lengthAdjust="spacing" textLength="393.6177" x="564.7777" y="549.6734">Envia dados consolidados para Nuvem</text></g><text fill="#1E90FF" font-family="Arial" font-size="23.3822" font-weight="bold" lengthAdjust="spacing" textLength="265.9948" x="50.1047" y="649.5069">Casos de Uso cobertos:</text><text fill="#1E90FF" font-family="Arial" font-size="23.3822" lengthAdjust="spacing" textLength="7.529" x="50.1047" y="681.3533">-</text><text fill="#1E90FF" font-family="Arial" font-size="23.3822" font-weight="bold" lengthAdjust="spacing" textLength="94.978" x="63.7131" y="681.3533">EDG-001</text><text fill="#1E90FF" font-family="Arial" font-size="23.3822" lengthAdjust="spacing" textLength="409.1867" x="164.7704" y="681.3533">Agrega&#231;&#227;o de Dados e C&#225;lculo de KPI</text><polygon fill="none" points="45.9293,41.7539,45.9293,42.1049,62.7395,41.0619,79.5497,42.0767,96.36,42.4214,113.1702,40.5624,129.9804,41.6241,146.7906,41.0416,163.6009,41.1134,180.4111,41.6401,197.2213,40.5992,214.0315,42.6786,230.8418,40.7012,247.652,41.4236,264.4622,42.4753,281.2724,41.6106,298.0827,41.8679,314.8929,41.7005,331.7031,42.0521,348.5133,42.1533,365.3236,42.7321,382.1338,42.8747,398.944,42.8884,415.7542,42.1792,432.5645,42.5282,449.3747,42.9267,466.1849,40.5494,482.9951,42.8871,499.8054,41.2587,516.6156,42.6455,533.4258,40.9271,550.236,41.6395,567.0463,42.9925,583.8565,41.6725,600.6667,41.9298,617.4769,42.3195,634.2872,42.4491,651.0974,41.7474,667.9076,42.2336,684.7178,40.7979,701.5281,42.2289,718.3383,42.6695,735.1485,42.4963,751.9587,42.7777,768.769,40.9471,785.5792,40.6647,802.3894,40.7161,819.1996,41.6556,836.0099,41.4257,852.8201,42.892,869.6303,41.4622,886.4405,41.1809,903.2508,42.1351,920.061,40.6402,936.8712,40.8869,953.6814,42.8378,970.4917,42.4815,987.3019,42.9806,1004.1121,41.2165,1020.9223,42.287,1037.7326,42.74,1054.5428,40.9649,1071.353,41.5938,1088.1632,41.9643,1104.9735,42.8424,1121.7837,41.7469,1138.5939,42.5265,1155.4041,40.829,1172.2144,40.6228,1189.0246,42.595,1205.8348,40.5565,1222.6451,42.6039,1239.4553,41.7539,1239.4993,41.8602,1241.1697,42.3499,1242.9228,43.0395,1244.8674,44.1912,1246.4774,44.535,1248.3126,45.4227,1248.617,45.5488,1248.7621,47.0764,1250.0977,49.0972,1250.763,50.8403,1251.3737,52.5608,1251.9814,54.2801,1252.0603,54.2801,1253.195,71.7299,1253.0062,89.1796,1252.2641,106.6294,1252.4294,124.0792,1251.9814,141.529,1251.9144,141.5012,1251.6162,143.4531,1250.5936,145.1049,1249.8689,146.8802,1248.7335,148.4852,1248.3126,150.3863,1248.2263,150.1779,1246.6542,151.3931,1244.8612,152.0749,1242.9891,152.5655,1241.1581,153.1557,1239.4553,154.0552,1239.4553,153.6895,1222.6451,152.9091,1205.8348,154.7478,1189.0246,155.2903,1172.2144,154.9343,1155.4041,155.2158,1138.5939,153.8268,1121.7837,154.2008,1104.9735,153.4078,1088.1632,154.5295,1071.353,154.4673,1054.5428,154.9777,1037.7326,153.6716,1020.9223,153.8307,1004.1121,154.7958,987.3019,155.0027,970.4917,153.1991,953.6814,153.7313,936.8712,154.3044,920.061,153.0349,903.2508,154.6454,886.4405,154.486,869.6303,153.8869,852.8201,154.2927,836.0099,155.2722,819.1996,153.5326,802.3894,154.5812,785.5792,154.5322,768.769,154.2485,751.9587,154.2905,735.1485,154.2447,718.3383,153.0127,701.5281,153.3857,684.7178,153.2843,667.9076,154.1617,651.0974,154.2023,634.2872,154.3253,617.4769,153.5692,600.6667,153.9424,583.8565,153.8544,567.0463,155.0186,550.236,154.7676,533.4258,153.2442,516.6156,153.9334,499.8054,153.0911,482.9951,154.5368,466.1849,155.0714,449.3747,154.9647,432.5645,153.3277,415.7542,154.8301,398.944,152.8145,382.1338,154.3894,365.3236,153.5553,348.5133,154.2167,331.7031,154.4565,314.8929,154.8436,298.0827,152.8528,281.2724,154.8493,264.4622,154.3527,247.652,154.6486,230.8418,155.3041,214.0315,154.0643,197.2213,154.3479,180.4111,154.4116,163.6009,154.3846,146.7906,154.0538,129.9804,155.2421,113.1702,153.0368,96.36,154.9993,79.5497,153.013,62.7395,153.1527,45.9293,154.0552,45.9378,154.0757,44.1638,153.3359,42.2814,152.3341,40.703,152.0666,38.8666,151.1761,37.072,150.3863,37.4457,150.5411,36.6813,148.757,35.3739,146.7479,34.666,144.9871,34.0704,143.2729,33.4031,141.529,33.9969,141.529,34.0762,124.0792,33.9061,106.6294,32.832,89.1796,34.4659,71.7299,33.4031,54.2801,33.7291,54.4151,34.1126,52.4985,34.7477,50.6862,35.398,48.8802,36.2278,47.1485,37.072,45.4227,37.1012,45.4934,38.8288,44.6538,40.5259,43.7403,42.4902,43.4721,44.06,42.2516,45.9293,41.7539" style="stroke:#000000;stroke-width:1.6702;"/><text fill="#1E90FF" font-family="Arial" font-size="33.4031" font-weight="bold" lengthAdjust="spacing" textLength="1151.7721" x="66.8062" y="110.8649">Diagrama de Sequ&#234;ncia - M&#243;dulo Edge (EDG) - Processamento de KPIs</text><!--SRC=[LP5DJWCn38NtEONf2aOKjGisNI2XcO0GAgrKzG0cSOT8cMIQdxaFOe74bYFCnKZIGkacYXFxU_RpXJ92HqdGy8VDJHyxpPYcbeo4O7i6K5MDmjPXXv2oDhIFuvSH2c4Ao_5RHcs1ovRWaZUFL-bnxQmWxx4Z4smkULu_-QfYcNW0CzQZ2qge7as0PRqzYoV_gHD03mdC6KjvCBqhmGAu6L874gNrxCtOG607SfbrVSmeVrbUM1EmfGu8VC0GFI08b0Xppr04DM2gBXBvE4dKg4NKw7B_cRFYd9sK3ZchT4MjWU-ZwlF0m7Sxob0ooOEaKnZI_chUTdygjRPHdasIM_LMgqEGF45uYGDrZEri4dPb6JNwmrnRRrF1AxbW_IBv2v3Chwg4dyvcywg2-zPHY-Fd-57Mq1GgGJs-vwP-LrFsSkJ_0000]--></g></svg>