<svg xmlns="http://www.w3.org/2000/svg" xmlns:xlink="http://www.w3.org/1999/xlink" contentStyleType="text/css" data-diagram-type="SEQUENCE" height="750.4625px" preserveAspectRatio="none" style="width:1222px;height:750px;background:#EEEBDC;" version="1.1" viewBox="0 0 1222 750" width="1222.976px" zoomAndPan="magnify"><defs/><g><rect fill="#EEEBDC" height="750.4625" style="stroke:none;stroke-width:1.5442;" width="1222.976" x="0" y="0"/><rect fill="#FFFFCC" height="41.1374" rx="3.8604" ry="3.8604" style="stroke:#FFDD88;stroke-width:4.6325;" width="1206.9467" x="7.7208" y="7.7208"/><text fill="#000000" font-family="monospace" font-size="15.4416" lengthAdjust="spacing" textLength="548.5016" x="15.4416" y="30.8832">Please&#160;use&#160;'!option&#160;handwritten&#160;true'&#160;to&#160;enable&#160;handwritten</text><g><title>M.dulo Edge</title><polygon fill="#A9DCDF" points="495.9209,342.4033,495.9209,342.5114,499.0092,342.19,502.0975,342.5027,505.1858,342.609,508.2742,342.0361,511.3625,342.4033,511.2425,342.4033,510.7039,357.7314,510.7703,373.0595,511.2572,388.3876,510.2949,403.7158,512.2174,419.0439,510.3892,434.372,511.0571,449.7001,512.0295,465.0283,511.23,480.3564,511.4679,495.6845,511.3132,511.0127,511.6382,526.3408,511.7317,541.6689,512.2669,556.997,512.3987,572.3252,511.3625,587.6533,511.3625,588.0029,508.2742,587.7843,505.1858,587.8919,502.0975,588.0147,499.0092,587.2821,495.9209,587.6533,496.9686,587.6533,495.463,572.3252,496.7452,556.997,495.1565,541.6689,495.8151,526.3408,497.066,511.0127,495.8456,495.6845,496.0835,480.3564,496.4438,465.0283,496.5636,449.7001,495.9148,434.372,496.3644,419.0439,495.037,403.7158,496.36,388.3876,496.7674,373.0595,496.6073,357.7314,495.9209,342.4033" style="stroke:#181818;stroke-width:1.5442;"/></g><g><title>MCU</title><polygon fill="#000000" fill-opacity="0.00000" points="347.2674,290.3557,347.2674,290.4639,349.7381,290.1425,352.2087,290.4552,354.6794,290.5614,357.1501,289.9885,359.6207,290.3557,359.5007,290.3557,358.9621,305.9155,359.0285,321.4752,359.5155,337.035,358.5531,352.5947,360.4756,368.1545,358.6475,383.7142,359.3153,399.274,360.2877,414.8337,359.4883,430.3935,359.7261,445.9532,359.5714,461.513,359.8964,477.0727,359.99,492.6325,360.5251,508.1922,360.6569,523.752,360.6696,539.3117,360.0139,554.8715,360.3366,570.4312,360.7051,585.991,359.6207,601.5507,359.6207,601.1795,357.1501,601.9,354.6794,601.3981,352.2087,601.8255,349.7381,601.2959,347.2674,601.5507,347.1616,601.5507,348.4126,585.991,347.1922,570.4312,347.43,554.8715,347.7903,539.3117,347.9101,523.752,347.2614,508.1922,347.7109,492.6325,346.3835,477.0727,347.7066,461.513,348.1139,445.9532,347.9538,430.3935,348.214,414.8337,346.5215,399.274,346.2603,383.7142,346.3079,368.1545,347.1765,352.5947,346.9639,337.035,348.3196,321.4752,346.9977,305.9155,347.2674,290.3557"/><path d="M352.9886,290.3557 L353.4214,290.3557 L352.1356,305.9155 L353.3866,321.4752 L353.8115,337.035 L351.5198,352.5947 L352.8286,368.1545 L352.1105,383.7142 L352.199,399.274 L352.8483,414.8337 L351.5652,430.3935 L354.1285,445.9532 L351.6909,461.513 L352.5814,477.0727 L353.8779,492.6325 L352.812,508.1922 L353.1291,523.752 L352.9228,539.3117 L353.3562,554.8715 L353.481,570.4312 L354.1945,585.991 L352.9886,601.5507" fill="none" style="stroke:#0000FF;stroke-width:0.7721;stroke-dasharray:7.7208,7.7208;"/></g><g><title>M.dulo Edge</title><polygon fill="#000000" fill-opacity="0.00000" points="497.465,290.3557,497.465,290.4639,499.9357,290.1425,502.4063,290.4552,504.877,290.5614,507.3477,289.9885,509.8183,290.3557,509.6983,290.3557,509.1597,305.9155,509.2261,321.4752,509.7131,337.035,508.7507,352.5947,510.6732,368.1545,508.8451,383.7142,509.5129,399.274,510.4853,414.8337,509.6859,430.3935,509.9237,445.9532,509.769,461.513,510.094,477.0727,510.1876,492.6325,510.7227,508.1922,510.8545,523.752,510.8672,539.3117,510.2115,554.8715,510.5342,570.4312,510.9027,585.991,509.8183,601.5507,509.8183,601.1795,507.3477,601.9,504.877,601.3981,502.4063,601.8255,499.9357,601.2959,497.465,601.5507,497.3593,601.5507,498.6102,585.991,497.3898,570.4312,497.6276,554.8715,497.9879,539.3117,498.1078,523.752,497.459,508.1922,497.9085,492.6325,496.5811,477.0727,497.9042,461.513,498.3115,445.9532,498.1515,430.3935,498.4116,414.8337,496.7191,399.274,496.458,383.7142,496.5055,368.1545,497.3741,352.5947,497.1616,337.035,498.5172,321.4752,497.1953,305.9155,497.465,290.3557"/><path d="M502.3247,290.3557 L502.7575,290.3557 L501.4717,305.9155 L502.7227,321.4752 L503.1476,337.035 L500.8559,352.5947 L502.1647,368.1545 L501.4466,383.7142 L501.5351,399.274 L502.1844,414.8337 L500.9013,430.3935 L503.4646,445.9532 L501.027,461.513 L501.9175,477.0727 L503.214,492.6325 L502.1481,508.1922 L502.4652,523.752 L502.2589,539.3117 L502.6923,554.8715 L502.8171,570.4312 L503.5306,585.991 L502.3247,601.5507" fill="none" style="stroke:#0000FF;stroke-width:0.7721;stroke-dasharray:7.7208,7.7208;"/></g><g><title>Cloud</title><polygon fill="#000000" fill-opacity="0.00000" points="906.1694,290.3557,906.1694,290.4639,908.6401,290.1425,911.1107,290.4552,913.5814,290.5614,916.052,289.9885,918.5227,290.3557,918.4027,290.3557,917.8641,305.9155,917.9305,321.4752,918.4174,337.035,917.4551,352.5947,919.3776,368.1545,917.5494,383.7142,918.2173,399.274,919.1897,414.8337,918.3902,430.3935,918.6281,445.9532,918.4734,461.513,918.7984,477.0727,918.892,492.6325,919.4271,508.1922,919.5589,523.752,919.5716,539.3117,918.9159,554.8715,919.2385,570.4312,919.6071,585.991,918.5227,601.5507,918.5227,601.1795,916.052,601.9,913.5814,601.3981,911.1107,601.8255,908.6401,601.2959,906.1694,601.5507,906.0636,601.5507,907.3146,585.991,906.0941,570.4312,906.332,554.8715,906.6923,539.3117,906.8121,523.752,906.1634,508.1922,906.6129,492.6325,905.2855,477.0727,906.6085,461.513,907.0159,445.9532,906.8558,430.3935,907.116,414.8337,905.4234,399.274,905.1623,383.7142,905.2099,368.1545,906.0785,352.5947,905.8659,337.035,907.2216,321.4752,905.8997,305.9155,906.1694,290.3557"/><path d="M912.0558,290.3557 L912.4886,290.3557 L911.2028,305.9155 L912.4538,321.4752 L912.8787,337.035 L910.587,352.5947 L911.8958,368.1545 L911.1777,383.7142 L911.2663,399.274 L911.9155,414.8337 L910.6324,430.3935 L913.1957,445.9532 L910.7582,461.513 L911.6487,477.0727 L912.9452,492.6325 L911.8792,508.1922 L912.1963,523.752 L911.9901,539.3117 L912.4234,554.8715 L912.5482,570.4312 L913.2617,585.991 L912.0558,601.5507" fill="none" style="stroke:#0000FF;stroke-width:0.7721;stroke-dasharray:7.7208,7.7208;"/></g><g class="participant participant-head" data-participant="MCU"><polygon fill="#1E90FF" points="316.7008,231.4399,316.7008,231.7644,331.3981,230.8001,346.0954,231.7383,360.7927,232.057,375.49,230.3383,390.1873,231.4399,390.172,231.4029,390.6493,231.4632,391.2037,231.7098,391.8117,232.0859,392.2349,232.0156,392.917,232.5706,393.1803,232.6796,392.8434,232.9923,393.2753,233.6235,393.8009,234.2935,393.7808,234.7374,394.0477,235.3003,394.0828,235.3003,394.0313,245.2304,394.1396,255.1606,394.1708,265.0908,394.3492,275.021,394.0477,284.9512,394.3668,285.0833,394.1446,285.6309,393.7165,286.0932,393.5898,286.6803,393.4771,287.2733,392.917,287.6809,392.775,287.3379,392.5047,288.2297,391.7667,287.9922,391.3844,288.6131,390.6358,288.35,390.1873,288.8116,390.1873,288.7058,375.49,289.9567,360.7927,288.7363,346.0954,288.9742,331.3981,289.3345,316.7008,288.8116,316.7828,289.0095,316.1541,288.5836,315.6655,288.4959,314.9502,287.8609,314.5731,288.0423,313.9711,287.6809,314.2318,287.7889,313.9564,287.2225,313.8103,286.7097,313.063,285.9479,312.7564,285.3686,312.8404,284.9512,312.5206,284.9512,312.8101,275.021,312.7393,265.0908,313.1911,255.1606,312.7505,245.2304,312.8404,235.3003,312.6773,235.2327,313.1751,234.7993,312.9756,234.077,313.272,233.5602,314.0536,233.2443,313.9711,232.5706,314.0569,232.7777,314.6617,232.6937,314.9996,231.9653,315.6718,232.0439,316.2712,231.9468,316.7008,231.4399" style="stroke:#00BFFF;stroke-width:0.7721;"/><text fill="#A9DCDF" font-family="Impact" font-size="26.2507" lengthAdjust="spacing" textLength="59.589" x="323.6495" y="270.311">MCU</text></g><g class="participant participant-head" data-participant="EDGE"><polygon fill="#1E90FF" points="415.0796,231.4399,415.0796,231.7644,431.1818,230.8001,447.284,231.7383,463.3862,232.057,479.4884,230.3383,495.5906,231.3199,511.6928,230.7813,527.795,230.8477,543.8972,231.3346,559.9994,230.3723,576.1016,232.2948,592.2038,231.4399,592.0796,231.1401,592.7108,231.572,593.3807,232.0975,593.8247,232.0775,594.401,232.3769,594.9335,232.5706,594.9183,232.5643,595.2445,233.1517,595.4995,233.7095,595.8904,234.3237,596.1572,234.8865,596.0642,235.3003,596.4138,235.3003,596.1952,245.2304,596.3028,255.1606,596.4256,265.0908,595.693,275.021,596.0642,284.9512,596.3868,285.0848,595.697,285.4387,595.8658,286.1482,595.1504,286.4915,595.1271,287.1214,594.9335,287.6809,595.0796,288.0335,594.3779,287.8838,593.8623,288.1832,593.3624,288.5203,592.8317,288.7834,592.2038,288.8116,592.2038,288.8055,576.1016,289.2551,559.9994,287.9277,543.8972,289.2507,527.795,289.6581,511.6928,289.498,495.5906,289.7582,479.4884,288.0656,463.3862,287.8045,447.284,287.852,431.1818,288.7206,415.0796,288.8116,415.0409,288.7181,414.6679,288.9095,413.9533,288.2762,413.3742,287.97,412.9408,288.0156,412.3499,287.6809,412.0328,287.5495,411.8769,287.0327,412.2062,286.7168,411.8786,286.1289,411.7946,285.6418,411.2192,284.9512,411.0535,284.9512,411.3835,275.021,411.5231,265.0908,410.976,255.1606,411.1698,245.2304,411.2192,235.3003,411.2791,235.3251,411.7553,234.8827,411.6695,234.2076,412.1176,233.7536,411.8604,233.0074,412.3499,232.5706,412.2165,232.2485,412.995,232.5839,413.3005,231.7773,414.0879,232.1342,414.5743,231.7643,415.0796,231.4399" style="stroke:#00BFFF;stroke-width:0.7721;"/><text fill="#A9DCDF" font-family="Impact" font-size="26.2507" lengthAdjust="spacing" textLength="163.2267" x="422.0283" y="270.311">M&#243;dulo Edge</text></g><g class="participant participant-head" data-participant="Cloud"><polygon fill="#1E90FF" points="869.5914,231.4399,869.5914,231.7644,883.8429,230.8001,898.0945,231.7383,912.346,232.057,926.5976,230.3383,940.8492,231.3199,955.1007,231.4399,955.0167,231.2371,955.5711,231.4836,956.1792,231.8597,956.6024,231.7895,957.3935,232.6077,957.8304,232.5706,957.5307,232.4464,957.9625,233.0775,958.4881,233.7475,958.468,234.1915,958.7674,234.7678,958.9611,235.3003,958.9447,235.3003,959.053,245.2304,959.0842,255.1606,959.2626,265.0908,959.3065,275.021,958.9611,284.9512,959.2841,285.085,958.8561,285.5473,958.7293,286.1344,958.6166,286.7273,957.7136,286.9929,957.8304,287.6809,957.9641,288.0035,957.2261,287.766,956.8437,288.387,956.0951,288.1239,955.6332,288.5529,955.1007,288.8116,955.1007,289.9567,940.8492,288.7363,926.5976,288.9742,912.346,289.3345,898.0945,289.4543,883.8429,288.8055,869.5914,288.8116,869.648,288.9481,868.9327,288.3132,868.5555,288.4945,868.0615,288.3938,867.4952,288.1184,866.8617,287.6809,867.1532,287.8016,866.4058,287.0398,866.0993,286.4605,865.8878,285.9206,865.9291,285.4855,865.731,284.9512,865.6298,284.9512,866.0817,275.021,865.6411,265.0908,865.5544,255.1606,865.8485,245.2304,865.731,235.3003,865.4139,235.1689,865.7103,234.6521,866.4919,234.3362,866.6166,233.7483,866.9848,233.2612,866.8617,232.5706,866.7983,232.4175,867.4705,232.4962,868.0699,232.399,868.4064,231.6675,869.0266,231.6204,869.5914,231.4399" style="stroke:#00BFFF;stroke-width:0.7721;"/><text fill="#A9DCDF" font-family="Impact" font-size="26.2507" lengthAdjust="spacing" textLength="71.6119" x="876.5401" y="270.311">Cloud</text></g><g><title>M.dulo Edge</title><polygon fill="#A9DCDF" points="495.9209,342.4033,495.9209,342.5114,499.0092,342.19,502.0975,342.5027,505.1858,342.609,508.2742,342.0361,511.3625,342.4033,511.2425,342.4033,510.7039,357.7314,510.7703,373.0595,511.2572,388.3876,510.2949,403.7158,512.2174,419.0439,510.3892,434.372,511.0571,449.7001,512.0295,465.0283,511.23,480.3564,511.4679,495.6845,511.3132,511.0127,511.6382,526.3408,511.7317,541.6689,512.2669,556.997,512.3987,572.3252,511.3625,587.6533,511.3625,588.0029,508.2742,587.7843,505.1858,587.8919,502.0975,588.0147,499.0092,587.2821,495.9209,587.6533,496.9686,587.6533,495.463,572.3252,496.7452,556.997,495.1565,541.6689,495.8151,526.3408,497.066,511.0127,495.8456,495.6845,496.0835,480.3564,496.4438,465.0283,496.5636,449.7001,495.9148,434.372,496.3644,419.0439,495.037,403.7158,496.36,388.3876,496.7674,373.0595,496.6073,357.7314,495.9209,342.4033" style="stroke:#181818;stroke-width:1.5442;"/></g><g class="message" data-participant-1="MCU" data-participant-2="EDGE"><polygon fill="#00BFFF" points="477.3909,336.2266,477.4311,336.3271,480.4001,337.2639,483.6045,338.7896,486.7323,340.1236,489.6078,340.827,492.8325,342.4033,492.8177,342.3661,489.6627,343.4348,486.5826,344.6906,483.5545,346.0767,480.3471,347.0142,477.3909,348.5799,477.5924,348.7814,478.3969,347.1152,479.7896,346.0373,481.2541,345.0311,482.301,343.6074,483.5676,342.4033,483.5924,342.4281,482.3206,341.1563,481.1619,339.9976,479.9486,338.7843,478.8394,337.6751,477.3909,336.2266" style="stroke:#00BFFF;stroke-width:1.5442;"/><path d="M353.4441,342.4033 L353.4441,342.836 L368.2454,341.5502 L383.0467,342.8012 L397.848,343.2262 L412.6493,340.9345 L427.4506,342.2433 L442.252,341.5252 L457.0533,341.6137 L471.8546,342.2629 L486.6559,342.4033" fill="none" style="stroke:#00BFFF;stroke-width:1.5442;"/><text fill="#000000" font-family="sans-serif" font-size="20.0741" lengthAdjust="spacing" textLength="113.1377" x="364.2532" y="333.4332">Envia dados</text></g><polygon fill="#FEFFDD" points="246.4415,362.4774,246.4415,362.8019,261.6257,361.8376,276.81,362.7758,291.9942,363.0945,307.1785,361.3758,322.3627,362.3574,337.547,361.8188,352.7313,361.8852,367.9155,362.3721,383.0998,361.4098,398.284,363.3323,413.4683,361.5041,428.6525,362.172,443.8368,363.1444,459.021,362.3449,474.2053,362.5827,489.3896,362.428,504.5738,362.753,519.7581,362.8466,534.9423,363.3818,550.1266,363.5136,565.3108,363.5262,580.4951,362.8705,595.6793,363.1932,610.8636,362.4774,611.1413,362.7088,613.6667,365.9457,617.3085,370.1129,620.0113,373.4976,623.428,377.4772,626.3052,381.0073,626.1033,380.8519,623.1889,385.0006,620.4311,389.2697,617.0204,393.0365,613.9949,397.0996,610.8636,401.0814,610.8636,401.6043,595.6793,401.7241,580.4951,401.0754,565.3108,401.5249,550.1266,400.1975,534.9423,401.5205,519.7581,401.9279,504.5738,401.7678,489.3896,402.028,474.2053,400.3354,459.021,400.0743,443.8368,400.1219,428.6525,400.9905,413.4683,400.7779,398.284,402.1336,383.0998,400.8117,367.9155,400.5517,352.7313,401.4339,337.547,400.0517,322.3627,400.2798,307.1785,402.0835,291.9942,401.7541,276.81,402.2156,261.6257,400.5845,246.4415,401.0814,246.5717,401.1816,243.594,397.2519,240.0721,392.9035,237.1374,389.0069,234.1396,385.0617,230.9998,381.0073,231.2576,381.2221,234.0865,377.2999,237.3594,373.7477,240.0458,369.7069,243.0853,365.9602,246.4415,362.4774" style="stroke:#181818;stroke-width:0.7721;"/><text fill="#000000" font-family="sans-serif" font-size="20.0741" lengthAdjust="spacing" textLength="358.6241" x="249.5298" y="390.1132">dados de contagem e status a cada 1s</text><g class="message" data-participant-1="EDGE" data-participant-2="EDGE"><path d="M511.3625,446.4983 L511.3625,446.6426 L524.3334,446.214 L537.3044,446.631 L550.2754,446.7726 L563.2463,446.0087 L576.2173,446.4983" fill="none" style="stroke:#00BFFF;stroke-width:1.5442;"/><path d="M576.2173,446.4983 L576.3615,446.4983 L575.9329,450.5132 L576.3499,454.528 L576.4916,458.5428 L575.7277,462.5576 L576.2173,466.5724" fill="none" style="stroke:#00BFFF;stroke-width:1.5442;"/><path d="M512.9066,466.5724 L512.9066,466.7167 L525.5688,466.2881 L538.2309,466.7051 L550.893,466.8467 L563.5551,466.0828 L576.2173,466.5724" fill="none" style="stroke:#00BFFF;stroke-width:1.5442;"/><polygon fill="#00BFFF" points="528.3483,460.3958,528.3884,460.4962,525.1807,461.4331,522.2086,462.9588,519.1597,464.2928,515.8586,464.9962,512.9066,466.5724,512.8918,466.5353,515.9134,467.6039,519.01,468.8598,522.1586,470.2458,525.1278,471.1833,528.3483,472.7491,528.5498,472.9506,526.8835,471.2844,525.8056,470.2064,524.7995,469.2003,523.3757,467.7765,522.1716,466.5724,522.1965,466.5973,523.3953,465.3255,524.7073,464.1668,525.9646,462.9535,527.3261,461.8443,528.3483,460.3958" style="stroke:#00BFFF;stroke-width:1.5442;"/><text fill="#000000" font-family="sans-serif" font-size="20.0741" lengthAdjust="spacing" textLength="184.6016" x="522.1716" y="437.5283">Calcular KPI de OEE</text></g><path d="M237.1765,486.6465 L237.465,486.6465 L236.6078,494.985 L237.4418,503.3235 L237.7251,511.662 L236.1973,520.0004 L237.1765,528.3389 L237.1765,528.0189 L252.7998,526.5827 L268.4231,526.7597 L284.0463,528.0582 L299.6696,525.492 L315.2929,530.6187 L330.9162,525.7435 L346.5395,527.5245 L362.1627,530.1176 L377.786,527.9857 L393.4093,528.6199 L409.0326,528.2073 L424.6559,529.074 L440.2792,529.3236 L455.9024,530.7506 L471.5257,531.1021 L487.149,531.1359 L502.7723,529.3874 L518.3956,530.2478 L534.0188,531.2305 L549.6421,525.3692 L565.2654,531.1328 L580.8887,527.118 L596.512,530.537 L612.1353,526.3005 L627.7585,528.0568 L643.3818,531.3927 L659.0051,528.1382 L674.6284,528.7725 L690.2517,529.7333 L705.875,530.0528 L721.4982,528.3228 L737.1215,529.5216 L752.7448,525.9818 L768.3681,528.3389 L768.7584,528.3389 L769.1205,523.0887 L768.9782,517.8386 L769.2095,512.5884 L767.705,507.3383 L768.3681,502.0882 L767.7351,501.4552 L764.6766,498.3967 L762.1343,495.8544 L758.9124,492.6324 L756.6761,490.3962 L752.9265,486.6465 L752.9265,485.9273 L737.2977,485.2339 L721.6689,487.5865 L706.0401,483.9006 L690.4113,484.5089 L674.7825,489.3188 L659.1537,488.4405 L643.525,489.671 L627.8962,485.3215 L612.2674,487.9609 L596.6386,489.0777 L581.0098,484.7013 L565.381,486.2518 L549.7522,487.1653 L534.1234,489.3303 L518.4947,486.6293 L502.8659,488.5513 L487.2371,484.3662 L471.6083,483.8577 L455.9795,488.7203 L440.3507,483.6943 L424.7219,488.7423 L409.0931,487.4974 L393.4644,485.5433 L377.8356,485.1898 L362.2068,488.5356 L346.578,485.414 L330.9492,489.0837 L315.3204,484.3705 L299.6916,489.1889 L284.0629,488.6408 L268.4341,487.6553 L252.8053,486.841 L237.1765,486.6465" fill="#FEFFDD" style="stroke:#181818;stroke-width:0.7721;"/><path d="M752.9265,486.6465 L753.9238,486.6465 L753.7687,489.7349 L753.1588,492.8232 L753.2946,495.9115 L752.7477,498.9998 L752.9265,502.0882 L752.9265,503.0715 L756.0148,502.3007 L759.1031,502.325 L762.1914,501.2531 L765.2798,501.5319 L768.3681,502.0882 L768.8832,502.6033 L765.6969,499.4169 L762.1498,495.8698 L758.7904,492.5105 L755.8023,489.5224 L752.9265,486.6465" fill="#FEFFDD" style="stroke:#181818;stroke-width:0.7721;"/><text fill="#000000" font-family="sans-serif" font-size="20.0741" lengthAdjust="spacing" textLength="499.5043" x="246.4415" y="515.8266">Overall Equipment Effectiveness calculado a cada 5m</text><g class="message" data-participant-1="EDGE" data-participant-2="Cloud"><polygon fill="#00BFFF" points="893.8161,567.5792,893.8563,567.6796,896.8252,568.6165,900.0297,570.1422,903.1575,571.4762,906.033,572.1796,909.2577,573.7558,909.2429,573.7187,906.0879,574.7873,903.0078,576.0432,899.9797,577.4292,896.7723,578.3667,893.8161,579.9325,894.0176,580.134,894.822,578.4677,896.2148,577.3898,897.6793,576.3837,898.7262,574.9599,899.9928,573.7558,900.0176,573.7807,898.7458,572.5089,897.5871,571.3501,896.3738,570.1369,895.2646,569.0277,893.8161,567.5792" style="stroke:#00BFFF;stroke-width:1.5442;"/><path d="M511.3625,573.7558 L511.3625,574.1886 L527.0312,572.9028 L542.7,574.1538 L558.3687,574.5787 L574.0375,572.287 L589.7062,573.5958 L605.3749,572.8777 L621.0437,572.9663 L636.7124,573.6155 L652.3812,572.3324 L668.0499,574.8957 L683.7187,572.4582 L699.3874,573.3487 L715.0562,574.6452 L730.7249,573.5792 L746.3936,573.8963 L762.0624,573.6901 L777.7311,574.1234 L793.3999,574.2482 L809.0686,574.9617 L824.7374,575.1374 L840.4061,575.1543 L856.0748,574.2801 L871.7436,574.7103 L887.4123,575.2016 L903.0811,573.7558" fill="none" style="stroke:#00BFFF;stroke-width:1.5442;"/><text fill="#000000" font-family="sans-serif" font-size="20.0741" lengthAdjust="spacing" textLength="363.9237" x="522.1716" y="564.7858">Envia dados consolidados para Nuvem</text></g><text fill="#1E90FF" font-family="Arial" font-size="21.6183" font-weight="bold" lengthAdjust="spacing" textLength="245.9284" x="46.3248" y="657.088">Casos de Uso cobertos:</text><text fill="#1E90FF" font-family="Arial" font-size="21.6183" lengthAdjust="spacing" textLength="6.9611" x="46.3248" y="686.5319">-</text><text fill="#1E90FF" font-family="Arial" font-size="21.6183" font-weight="bold" lengthAdjust="spacing" textLength="87.813" x="58.9066" y="686.5319">EDG-001</text><text fill="#1E90FF" font-family="Arial" font-size="21.6183" lengthAdjust="spacing" textLength="378.3182" x="152.3403" y="686.5319">Agrega&#231;&#227;o de Dados e C&#225;lculo de KPI</text><polygon fill="none" points="42.4644,95.1831,42.4644,95.5076,58.0065,94.5433,73.5486,95.4816,89.0907,95.8003,104.6328,94.0815,120.1749,95.0631,135.7169,94.5245,151.259,94.5909,166.8011,95.0778,182.3432,94.1155,197.8853,96.038,213.4274,94.2098,228.9694,94.8777,244.5115,95.8501,260.0536,95.0506,275.5957,95.2885,291.1378,95.1338,306.6799,95.4588,322.2219,95.5523,337.764,96.0875,353.3061,96.2193,368.8482,96.232,384.3903,95.5763,399.9324,95.8989,415.4744,96.2674,431.0165,94.0695,446.5586,96.2308,462.1007,94.7252,477.6428,96.0074,493.1849,94.4187,508.7269,95.0773,524.269,96.3282,539.8111,95.1078,555.3532,95.3457,570.8953,95.706,586.4374,95.8258,601.9794,95.1771,617.5215,95.6266,633.0636,94.2992,648.6057,95.6222,664.1478,96.0296,679.6899,95.8695,695.2319,96.1297,710.774,94.4371,726.3161,94.176,741.8582,94.2235,757.4003,95.0922,772.9424,94.8796,788.4844,96.2353,804.0265,94.9134,819.5686,94.6534,835.1107,95.5356,850.6528,94.1534,866.1948,94.3815,881.7369,96.1852,897.279,95.8558,912.8211,96.3173,928.3632,94.6862,943.9053,95.676,959.4473,96.0948,974.9894,94.4536,990.5315,95.0351,1006.0736,95.3776,1021.6157,96.1895,1037.1578,95.1766,1052.6998,95.8974,1068.2419,94.328,1083.784,94.1373,1099.3261,95.9607,1114.8682,94.076,1130.4103,95.969,1145.9523,95.1831,1145.993,95.2813,1147.5374,95.7341,1149.1583,96.3717,1150.9562,97.4365,1152.4447,97.7544,1154.1415,98.5751,1154.423,98.6917,1154.5571,100.1041,1155.7919,101.9724,1156.407,103.584,1156.9716,105.1747,1157.5336,106.7643,1157.6065,106.7643,1158.6556,122.8977,1158.481,139.0311,1157.7949,155.1645,1157.9477,171.2979,1157.5336,187.4313,1157.4716,187.4056,1157.1958,189.2102,1156.2504,190.7374,1155.5804,192.3787,1154.5306,193.8628,1154.1415,195.6204,1154.0617,195.4277,1152.6082,196.5512,1150.9505,197.1816,1149.2196,197.6352,1147.5267,198.1809,1145.9523,199.0125,1145.9523,198.6744,1130.4103,197.9529,1114.8682,199.6529,1099.3261,200.1545,1083.784,199.8253,1068.2419,200.0856,1052.6998,198.8013,1037.1578,199.1472,1021.6157,198.414,1006.0736,199.4511,990.5315,199.3935,974.9894,199.8655,959.4473,198.6578,943.9053,198.8049,928.3632,199.6972,912.8211,199.8885,897.279,198.221,881.7369,198.7131,866.1948,199.243,850.6528,198.0692,835.1107,199.5582,819.5686,199.4109,804.0265,198.8569,788.4844,199.2321,772.9424,200.1377,757.4003,198.5293,741.8582,199.4989,726.3161,199.4536,710.774,199.1912,695.2319,199.2301,679.6899,199.1877,664.1478,198.0487,648.6057,198.3935,633.0636,198.2998,617.5215,199.111,601.9794,199.1486,586.4374,199.2622,570.8953,198.5632,555.3532,198.9082,539.8111,198.8268,524.269,199.9032,508.7269,199.6712,493.1849,198.2627,477.6428,198.8999,462.1007,198.1211,446.5586,199.4578,431.0165,199.9521,415.4744,199.8534,399.9324,198.3399,384.3903,199.7289,368.8482,197.8655,353.3061,199.3215,337.764,198.5503,322.2219,199.1618,306.6799,199.3836,291.1378,199.7415,275.5957,197.9008,260.0536,199.7467,244.5115,199.2876,228.9694,199.5612,213.4274,200.1672,197.8853,199.0209,182.3432,199.2831,166.8011,199.3421,151.259,199.317,135.7169,199.0112,120.1749,200.1099,104.6328,198.0709,89.0907,199.8854,73.5486,198.0489,58.0065,198.1781,42.4644,199.0125,42.4723,199.0315,40.8322,198.3475,39.0917,197.4213,37.6324,197.174,35.9346,196.3506,34.2753,195.6204,34.6208,195.7635,33.9141,194.114,32.7053,192.2565,32.0508,190.6285,31.5002,189.0436,30.8832,187.4313,31.4322,187.4313,31.5055,171.2979,31.3483,155.1645,30.3552,139.0311,31.8659,122.8977,30.8832,106.7643,31.1846,106.8891,31.5392,105.1172,32.1264,103.4415,32.7276,101.7717,33.4948,100.1707,34.2753,98.5751,34.3024,98.6405,35.8996,97.8642,37.4687,97.0196,39.2848,96.7717,40.7362,95.6433,42.4644,95.1831" style="stroke:#000000;stroke-width:1.5442;"/><text fill="#1E90FF" font-family="Arial" font-size="30.8832" font-weight="bold" lengthAdjust="spacing" textLength="1064.8839" x="61.7665" y="159.0805">Diagrama de Sequ&#234;ncia - M&#243;dulo Edge (EDG) - Processamento de KPIs</text><!--SRC=[LP5DJWCn38NtEONf2aOKjGisNI2XcO0GAgrKzG0cSOT8cMIQdxaFOe74bYFCnKZIGkacYXFxU_RpXJ92HqdGy8VDJHyxpPYcbeo4O7i6K5MDmjPXXv2oDhIFuvSH2c4Ao_5RHcs1ovRWaZUFL-bnxQmWxx4Z4smkULu_-QfYcNW0CzQZ2qge7as0PRqzYoV_gHD03mdC6KjvCBqhmGAu6L874gNrxCtOG607SfbrVSmeVrbUM1EmfGu8VC0GFI08b0Xppr04DM2gBXBvE4dKg4NKw7B_cRFYd9sK3ZchT4MjWU-ZwlF0m7Sxob0ooOEaKnZI_chUTdygjRPHdasIM_LMgqEGF45uYGDrZEri4dPb6JNwmrnRRrF1AxbW_IBv2v3Chwg4dyvcywg2-zPHY-Fd-57Mq1GgGJs-vwP-LrFsSkJ_0000]--></g></svg>