<svg xmlns="http://www.w3.org/2000/svg" xmlns:xlink="http://www.w3.org/1999/xlink" contentStyleType="text/css" data-diagram-type="SEQUENCE" height="750.8353px" preserveAspectRatio="none" style="width:699px;height:750px;background:#EEEBDC;" version="1.1" viewBox="0 0 699 750" width="699.4879px" zoomAndPan="magnify"><defs/><g><rect fill="#EEEBDC" height="750.8353" style="stroke:none;stroke-width:0.9688;" width="699.4879" x="0" y="0"/><g><title>Usu.rio</title><polygon fill="#A9DCDF" points="100.8919,502.5734,100.8919,502.6413,102.8296,502.4396,104.7672,502.6358,106.7049,502.7025,108.6425,502.343,110.5801,502.5734,110.5048,502.5734,110.1669,512.4481,110.2086,522.3229,110.5141,532.1976,109.9103,542.0724,111.1165,551.9471,109.9695,561.8219,110.3885,571.6966,110.9986,581.5713,110.497,591.4461,110.6462,601.3208,110.5801,611.1956,110.5801,611.1853,108.6425,611.2532,106.7049,611.2728,104.7672,611.3847,102.8296,611.4123,100.8919,611.1956,101.55,611.1956,101.1386,601.3208,101.3411,591.4461,101.5723,581.5713,100.1932,571.6966,101.5493,561.8219,100.6047,551.9471,101.4091,542.0724,100.4123,532.1976,100.8256,522.3229,101.6104,512.4481,100.8919,502.5734" style="stroke:#181818;stroke-width:0.9688;"/></g><g><title>MCU</title><polygon fill="#A9DCDF" points="276.0101,223.8942,276.0101,223.9621,277.9477,223.7604,279.8854,223.9566,281.823,224.0233,283.7607,223.6638,285.6983,223.8942,285.623,223.8942,285.2851,233.5767,285.3268,243.2593,285.6323,252.9418,285.0285,262.6243,286.2347,272.3069,285.0877,281.9894,285.5067,291.6719,286.1168,301.3545,285.6152,311.037,285.7644,320.7195,285.6674,330.4021,285.8713,340.0846,285.93,349.7671,286.2657,359.4497,286.3484,369.1322,286.3564,378.8147,285.945,388.4973,286.1474,398.1798,286.3786,407.8623,284.9996,417.5449,286.3557,427.2274,285.411,436.91,286.2155,446.5925,285.2187,456.275,285.6319,465.9576,286.4168,475.6401,285.6511,485.3226,285.8003,495.0052,286.0264,504.6877,286.1016,514.3702,285.6945,524.0528,285.9766,533.7353,285.1437,543.4178,285.9738,553.1004,286.2294,562.7829,286.129,572.4654,286.2922,582.148,285.2303,591.8305,285.0665,601.513,285.6983,611.1956,285.6983,610.9949,283.7607,611.1766,281.823,611.1321,279.8854,611.4156,277.9477,611.1392,276.0101,611.1956,275.6777,611.1956,276.2313,601.513,275.3641,591.8305,275.5072,582.148,276.6388,572.4654,276.4322,562.7829,276.7217,553.1004,275.6983,543.4178,276.3193,533.7353,276.5821,524.0528,275.5524,514.3702,275.9172,504.6877,276.1322,495.0052,276.6415,485.3226,276.006,475.6401,276.4582,465.9576,275.4736,456.275,275.354,446.5925,276.498,436.91,275.3155,427.2274,276.5032,417.5449,276.2103,407.8623,275.7505,398.1798,275.6674,388.4973,276.4546,378.8147,275.7201,369.1322,276.5835,359.4497,275.4746,349.7671,276.6083,340.0846,276.4793,330.4021,276.2474,320.7195,276.0559,311.037,276.7141,301.3545,276.6045,291.6719,276.1741,281.9894,276.2699,272.3069,275.8839,262.6243,276.7042,252.9418,276.1601,243.2593,276.1773,233.5767,276.0101,223.8942" style="stroke:#181818;stroke-width:0.9688;"/></g><g><title>MCU</title><polygon fill="#A9DCDF" points="280.8542,296.9549,280.8542,297.0227,282.7918,296.8211,284.7295,297.0173,286.6671,297.0839,288.6048,296.7245,290.5424,296.9549,290.4671,296.9549,290.1292,306.7749,290.1709,316.5949,290.4764,326.4149,289.8726,336.2349,291.0788,346.055,289.9318,355.875,290.3508,365.695,290.9609,375.515,290.4593,385.3351,290.6085,395.1551,290.5114,404.9751,290.7154,414.7951,290.7741,424.6152,291.1098,434.4352,291.1925,444.2552,291.2005,454.0752,290.7891,463.8952,290.9915,473.7153,291.2227,483.5353,289.8437,493.3553,291.1998,503.1753,290.2551,512.9954,291.0596,522.8154,290.0628,532.6354,290.476,542.4554,291.2609,552.2754,290.4952,562.0955,290.6444,571.9155,290.8705,581.7355,290.9457,591.5555,290.5386,601.3756,290.5424,611.1956,290.5424,611.2883,288.6048,611.0107,286.6671,611.2874,284.7295,611.3726,282.7918,611.3391,280.8542,611.1956,281.4481,611.1956,280.3862,601.3756,280.2224,591.5555,280.2522,581.7355,280.7972,571.9155,280.6638,562.0955,281.5144,552.2754,280.685,542.4554,280.5218,532.6354,281.0754,522.8154,280.2082,512.9954,280.3513,503.1753,281.4829,493.3553,281.2763,483.5353,281.5658,473.7153,280.5424,463.8952,281.1634,454.0752,281.4262,444.2552,280.3965,434.4352,280.7613,424.6152,280.9763,414.7951,281.4856,404.9751,280.8501,395.1551,281.3023,385.3351,280.3177,375.515,280.1981,365.695,281.3421,355.875,280.1596,346.055,281.3473,336.2349,281.0544,326.4149,280.5946,316.5949,280.5115,306.7749,280.8542,296.9549" style="stroke:#181818;stroke-width:0.9688;"/></g><g><title>MCU</title><polygon fill="#A9DCDF" points="285.6983,436.2945,285.6983,436.3623,287.6359,436.1607,289.5736,436.3569,291.5112,436.4235,293.4489,436.0641,295.3865,436.2945,295.3112,436.2945,294.9733,446.0112,295.015,455.7279,295.3205,465.4446,294.7167,475.1614,295.9229,484.8781,294.7759,494.5948,295.1949,504.3116,295.805,514.0283,295.3034,523.745,295.4526,533.4617,295.3555,543.1785,295.5595,552.8952,295.6182,562.6119,295.9539,572.3287,296.0366,582.0454,296.0446,591.7621,295.6332,601.4788,295.3865,611.1956,295.3865,611.3453,293.4489,611.4224,291.5112,610.9627,289.5736,611.4147,287.6359,611.0998,285.6983,611.1956,286.2155,611.1956,285.2187,601.4788,285.6319,591.7621,286.4168,582.0454,285.6511,572.3287,285.8003,562.6119,286.0264,552.8952,286.1016,543.1785,285.6945,533.4617,285.9766,523.745,285.1437,514.0283,285.9738,504.3116,286.2294,494.5948,286.129,484.8781,286.2922,475.1614,285.2303,465.4446,285.0665,455.7279,285.0963,446.0112,285.6983,436.2945" style="stroke:#181818;stroke-width:0.9688;"/></g><g><title>Esteira</title><polygon fill="#A9DCDF" points="496.8905,332.5164,496.8905,332.5843,498.8282,332.3826,500.7658,332.5788,502.7035,332.6454,504.6411,332.286,506.5787,332.5164,506.5034,332.5164,506.1655,341.8464,506.2072,351.1764,506.5127,360.5064,505.9089,369.8364,507.1151,379.1665,505.9681,388.4965,506.5787,397.8265,506.5787,397.7626,504.6411,397.966,502.7035,397.7988,500.7658,397.8485,498.8282,397.8162,496.8905,397.8265,497.0635,397.8265,497.1222,388.4965,497.458,379.1665,497.5407,369.8364,497.5486,360.5064,497.1372,351.1764,497.3397,341.8464,496.8905,332.5164" style="stroke:#181818;stroke-width:0.9688;"/></g><g><title>Monitor</title><polygon fill="#A9DCDF" points="577.4492,471.856,577.4492,471.9239,579.3868,471.7222,581.3245,471.9184,583.2621,471.985,585.1998,471.6256,587.1374,471.856,587.0621,471.856,586.7242,481.8088,586.7659,491.7616,587.0714,501.7145,586.4676,511.6673,587.6738,521.6201,586.5268,531.5729,586.9458,541.5258,587.5559,551.4786,587.0543,561.4314,587.2035,571.3843,587.1064,581.3371,587.3104,591.2899,587.3691,601.2427,587.1374,611.1956,587.1374,611.3847,585.1998,611.4123,583.2621,611.4149,581.3245,611.2778,579.3868,611.3453,577.4492,611.1956,578.1295,611.1956,576.7505,601.2427,578.1066,591.2899,577.1619,581.3371,577.9664,571.3843,576.9696,561.4314,577.3828,551.4786,578.1677,541.5258,577.402,531.5729,577.5512,521.6201,577.7773,511.6673,577.8525,501.7145,577.4454,491.7616,577.7275,481.8088,577.4492,471.856" style="stroke:#181818;stroke-width:0.9688;"/></g><g><title>Monitor</title><polygon fill="#A9DCDF" points="582.2933,567.8835,582.2933,567.9514,584.2309,567.7497,586.1686,567.9459,588.1062,568.0126,590.0439,567.6531,591.9815,567.8835,591.9564,567.8835,591.8438,576.5459,591.8576,585.2083,591.9595,593.8707,591.7582,602.5332,591.9815,611.1956,591.9815,611.3744,590.0439,610.992,588.1062,611.1317,586.1686,611.3351,584.2309,611.1679,582.2933,611.1956,582.3153,611.1956,582.283,602.5332,582.351,593.8707,582.3705,585.2083,582.4824,576.5459,582.2933,567.8835" style="stroke:#181818;stroke-width:0.9688;"/></g><g><title>Usu.rio</title><polygon fill="#000000" fill-opacity="0.00000" points="101.8608,191.2391,101.8608,191.307,103.4109,191.1053,104.961,191.3016,106.5111,191.3682,108.0612,191.0088,109.6113,191.2391,109.536,191.2391,109.1981,200.9818,109.2398,210.7244,109.5453,220.467,108.9415,230.2097,110.1477,239.9523,109.0007,249.6949,109.4197,259.4376,110.0298,269.1802,109.5282,278.9228,109.6774,288.6655,109.5804,298.4081,109.7843,308.1507,109.843,317.8934,110.1787,327.636,110.2614,337.3786,110.2694,347.1213,109.858,356.8639,110.0604,366.6065,110.2917,376.3491,108.9126,386.0918,110.2687,395.8344,109.3241,405.577,110.1285,415.3197,109.1317,425.0623,109.545,434.8049,110.3298,444.5476,109.5641,454.2902,109.7133,464.0328,109.9394,473.7755,110.0146,483.5181,109.6075,493.2607,109.8896,503.0034,109.0567,512.746,109.8868,522.4886,110.1424,532.2313,110.042,541.9739,110.2052,551.7165,109.1433,561.4592,108.9795,571.2018,109.0093,580.9444,109.5543,590.6871,109.4209,600.4297,110.2715,610.1723,109.6113,619.915,109.6113,619.8585,108.0612,619.8042,106.5111,619.9887,104.961,619.6996,103.4109,619.7473,101.8608,619.915,102.4895,619.915,102.2828,610.1723,102.5723,600.4297,101.549,590.6871,102.17,580.9444,102.4328,571.2018,101.4031,561.4592,101.7679,551.7165,101.9828,541.9739,102.4922,532.2313,101.8567,522.4886,102.3089,512.746,101.3242,503.0034,101.2046,493.2607,102.3487,483.5181,101.1662,473.7755,102.3539,464.0328,102.0609,454.2902,101.6012,444.5476,101.518,434.8049,102.3052,425.0623,101.5708,415.3197,102.4342,405.577,101.3252,395.8344,102.4589,386.0918,102.33,376.3491,102.0981,366.6065,101.9065,356.8639,102.5647,347.1213,102.4552,337.3786,102.0247,327.636,102.1206,317.8934,101.7346,308.1507,102.5549,298.4081,102.0108,288.6655,102.028,278.9228,101.2714,269.1802,101.4682,259.4376,102.375,249.6949,102.2771,239.9523,101.8192,230.2097,101.5486,220.467,101.6487,210.7244,101.196,200.9818,101.8608,191.2391"/><path d="M105.5884,191.2391 L105.8599,191.2391 L105.0532,200.9818 L105.838,210.7244 L106.1047,220.467 L104.6668,230.2097 L105.488,239.9523 L105.0374,249.6949 L105.093,259.4376 L105.5003,269.1802 L104.6953,278.9228 L106.3035,288.6655 L104.7742,298.4081 L105.3329,308.1507 L106.1463,317.8934 L105.4776,327.636 L105.6765,337.3786 L105.5471,347.1213 L105.819,356.8639 L105.8973,366.6065 L106.3449,376.3491 L106.4552,386.0918 L106.4658,395.8344 L105.9173,405.577 L106.1872,415.3197 L106.4955,425.0623 L104.6568,434.8049 L106.4648,444.5476 L105.2054,454.2902 L106.2779,464.0328 L104.9489,473.7755 L105.4999,483.5181 L106.5463,493.2607 L105.5254,503.0034 L105.7244,512.746 L106.0258,522.4886 L106.126,532.2313 L105.5833,541.9739 L105.9594,551.7165 L104.8489,561.4592 L105.9557,571.2018 L106.2965,580.9444 L106.1626,590.6871 L106.3802,600.4297 L104.9643,610.1723 L105.5884,619.915" fill="none" style="stroke:#0000FF;stroke-width:0.4844;stroke-dasharray:4.8441,4.8441;"/></g><g><title>MCU</title><polygon fill="#000000" fill-opacity="0.00000" points="276.9789,191.2391,276.9789,191.307,278.529,191.1053,280.0791,191.3016,281.6293,191.3682,283.1794,191.0088,284.7295,191.2391,284.6542,191.2391,284.3163,200.9818,284.3579,210.7244,284.6635,220.467,284.0597,230.2097,285.2659,239.9523,284.1189,249.6949,284.5379,259.4376,285.148,269.1802,284.6464,278.9228,284.7956,288.6655,284.6985,298.4081,284.9024,308.1507,284.9612,317.8934,285.2969,327.636,285.3796,337.3786,285.3876,347.1213,284.9762,356.8639,285.1786,366.6065,285.4098,376.3491,284.0308,386.0918,285.3868,395.8344,284.4422,405.577,285.2466,415.3197,284.2499,425.0623,284.6631,434.8049,285.448,444.5476,284.6823,454.2902,284.8315,464.0328,285.0576,473.7755,285.1327,483.5181,284.7257,493.2607,285.0077,503.0034,284.1749,512.746,285.005,522.4886,285.2606,532.2313,285.1602,541.9739,285.3234,551.7165,284.2615,561.4592,284.0976,571.2018,284.1275,580.9444,284.6724,590.6871,284.5391,600.4297,285.3896,610.1723,284.7295,619.915,284.7295,619.8585,283.1794,619.8042,281.6293,619.9887,280.0791,619.6996,278.529,619.7473,276.9789,619.915,277.6076,619.915,277.401,610.1723,277.6905,600.4297,276.6672,590.6871,277.2882,580.9444,277.5509,571.2018,276.5212,561.4592,276.8861,551.7165,277.101,541.9739,277.6104,532.2313,276.9749,522.4886,277.4271,512.746,276.4424,503.0034,276.3228,493.2607,277.4668,483.5181,276.2843,473.7755,277.472,464.0328,277.1791,454.2902,276.7194,444.5476,276.6362,434.8049,277.4234,425.0623,276.6889,415.3197,277.5523,405.577,276.4434,395.8344,277.5771,386.0918,277.4481,376.3491,277.2163,366.6065,277.0247,356.8639,277.6829,347.1213,277.5734,337.3786,277.1429,327.636,277.2388,317.8934,276.8527,308.1507,277.673,298.4081,277.129,288.6655,277.1461,278.9228,276.3895,269.1802,276.5863,259.4376,277.4931,249.6949,277.3953,239.9523,276.9373,230.2097,276.6668,220.467,276.7668,210.7244,276.3141,200.9818,276.9789,191.2391"/><path d="M280.5684,191.2391 L280.84,191.2391 L280.0332,200.9818 L280.8181,210.7244 L281.0847,220.467 L279.6469,230.2097 L280.4681,239.9523 L280.0175,249.6949 L280.0731,259.4376 L280.4804,269.1802 L279.6754,278.9228 L281.2836,288.6655 L279.7543,298.4081 L280.313,308.1507 L281.1264,317.8934 L280.4576,327.636 L280.6566,337.3786 L280.5272,347.1213 L280.7991,356.8639 L280.8774,366.6065 L281.325,376.3491 L281.4353,386.0918 L281.4459,395.8344 L280.8974,405.577 L281.1673,415.3197 L281.4756,425.0623 L279.6368,434.8049 L281.4449,444.5476 L280.1854,454.2902 L281.258,464.0328 L279.929,473.7755 L280.48,483.5181 L281.5264,493.2607 L280.5055,503.0034 L280.7045,512.746 L281.0059,522.4886 L281.1061,532.2313 L280.5634,541.9739 L280.9395,551.7165 L279.829,561.4592 L280.9358,571.2018 L281.2766,580.9444 L281.1427,590.6871 L281.3603,600.4297 L279.9444,610.1723 L280.5684,619.915" fill="none" style="stroke:#0000FF;stroke-width:0.4844;stroke-dasharray:4.8441,4.8441;"/></g><g><title>Esteira</title><polygon fill="#000000" fill-opacity="0.00000" points="497.8594,191.2391,497.8594,191.307,499.4095,191.1053,500.9596,191.3016,502.5097,191.3682,504.0598,191.0088,505.6099,191.2391,505.5346,191.2391,505.1967,200.9818,505.2384,210.7244,505.5439,220.467,504.9401,230.2097,506.1463,239.9523,504.9993,249.6949,505.4183,259.4376,506.0284,269.1802,505.5268,278.9228,505.676,288.6655,505.579,298.4081,505.7829,308.1507,505.8416,317.8934,506.1773,327.636,506.26,337.3786,506.268,347.1213,505.8566,356.8639,506.059,366.6065,506.2902,376.3491,504.9112,386.0918,506.2673,395.8344,505.3227,405.577,506.1271,415.3197,505.1303,425.0623,505.5435,434.8049,506.3284,444.5476,505.5627,454.2902,505.7119,464.0328,505.938,473.7755,506.0132,483.5181,505.6061,493.2607,505.8882,503.0034,505.0553,512.746,505.8854,522.4886,506.141,532.2313,506.0406,541.9739,506.2038,551.7165,505.1419,561.4592,504.9781,571.2018,505.0079,580.9444,505.5529,590.6871,505.4195,600.4297,506.2701,610.1723,505.6099,619.915,505.6099,619.8585,504.0598,619.8042,502.5097,619.9887,500.9596,619.6996,499.4095,619.7473,497.8594,619.915,498.4881,619.915,498.2814,610.1723,498.5709,600.4297,497.5476,590.6871,498.1686,580.9444,498.4314,571.2018,497.4017,561.4592,497.7665,551.7165,497.9814,541.9739,498.4908,532.2313,497.8553,522.4886,498.3075,512.746,497.3228,503.0034,497.2032,493.2607,498.3473,483.5181,497.1648,473.7755,498.3524,464.0328,498.0595,454.2902,497.5998,444.5476,497.5166,434.8049,498.3038,425.0623,497.5694,415.3197,498.4328,405.577,497.3238,395.8344,498.4575,386.0918,498.3286,376.3491,498.0967,366.6065,497.9051,356.8639,498.5633,347.1213,498.4538,337.3786,498.0233,327.636,498.1192,317.8934,497.7331,308.1507,498.5535,298.4081,498.0094,288.6655,498.0265,278.9228,497.27,269.1802,497.4668,259.4376,498.3736,249.6949,498.2757,239.9523,497.8178,230.2097,497.5472,220.467,497.6473,210.7244,497.1946,200.9818,497.8594,191.2391"/><path d="M501.6068,191.2391 L501.8783,191.2391 L501.0716,200.9818 L501.8565,210.7244 L502.1231,220.467 L500.6853,230.2097 L501.5064,239.9523 L501.0559,249.6949 L501.1114,259.4376 L501.5188,269.1802 L500.7137,278.9228 L502.322,288.6655 L500.7926,298.4081 L501.3514,308.1507 L502.1648,317.8934 L501.496,327.636 L501.695,337.3786 L501.5655,347.1213 L501.8374,356.8639 L501.9157,366.6065 L502.3634,376.3491 L502.4737,386.0918 L502.4843,395.8344 L501.9357,405.577 L502.2057,415.3197 L502.5139,425.0623 L500.6752,434.8049 L502.4833,444.5476 L501.2238,454.2902 L502.2964,464.0328 L500.9674,473.7755 L501.5183,483.5181 L502.5648,493.2607 L501.5439,503.0034 L501.7428,512.746 L502.0442,522.4886 L502.1445,532.2313 L501.6018,541.9739 L501.9778,551.7165 L500.8674,561.4592 L501.9742,571.2018 L502.315,580.9444 L502.181,590.6871 L502.3987,600.4297 L500.9828,610.1723 L501.6068,619.915" fill="none" style="stroke:#0000FF;stroke-width:0.4844;stroke-dasharray:4.8441,4.8441;"/></g><g><title>Monitor</title><polygon fill="#000000" fill-opacity="0.00000" points="578.418,191.2391,578.418,191.307,579.9681,191.1053,581.5182,191.3016,583.0684,191.3682,584.6185,191.0088,586.1686,191.2391,586.0933,191.2391,585.7554,200.9818,585.797,210.7244,586.1025,220.467,585.4988,230.2097,586.705,239.9523,585.5579,249.6949,585.977,259.4376,586.5871,269.1802,586.0855,278.9228,586.2347,288.6655,586.1376,298.4081,586.3415,308.1507,586.4003,317.8934,586.736,327.636,586.8187,337.3786,586.8267,347.1213,586.4153,356.8639,586.6177,366.6065,586.8489,376.3491,585.4699,386.0918,586.8259,395.8344,585.8813,405.577,586.6857,415.3197,585.689,425.0623,586.1022,434.8049,586.8871,444.5476,586.1214,454.2902,586.2706,464.0328,586.4966,473.7755,586.5718,483.5181,586.1648,493.2607,586.4468,503.0034,585.614,512.746,586.4441,522.4886,586.6997,532.2313,586.5993,541.9739,586.7625,551.7165,585.7006,561.4592,585.5367,571.2018,585.5666,580.9444,586.1115,590.6871,585.9782,600.4297,586.8287,610.1723,586.1686,619.915,586.1686,619.8585,584.6185,619.8042,583.0684,619.9887,581.5182,619.6996,579.9681,619.7473,578.418,619.915,579.0467,619.915,578.8401,610.1723,579.1296,600.4297,578.1063,590.6871,578.7273,580.9444,578.99,571.2018,577.9603,561.4592,578.3251,551.7165,578.5401,541.9739,579.0495,532.2313,578.414,522.4886,578.8662,512.746,577.8815,503.0034,577.7619,493.2607,578.9059,483.5181,577.7234,473.7755,578.9111,464.0328,578.6182,454.2902,578.1585,444.5476,578.0753,434.8049,578.8625,425.0623,578.128,415.3197,578.9914,405.577,577.8825,395.8344,579.0162,386.0918,578.8872,376.3491,578.6554,366.6065,578.4638,356.8639,579.122,347.1213,579.0125,337.3786,578.582,327.636,578.6778,317.8934,578.2918,308.1507,579.1121,298.4081,578.5681,288.6655,578.5852,278.9228,577.8286,269.1802,578.0254,259.4376,578.9322,249.6949,578.8344,239.9523,578.3764,230.2097,578.1059,220.467,578.2059,210.7244,577.7532,200.9818,578.418,191.2391"/><path d="M582.2745,191.2391 L582.546,191.2391 L581.7393,200.9818 L582.5242,210.7244 L582.7908,220.467 L581.353,230.2097 L582.1741,239.9523 L581.7236,249.6949 L581.7791,259.4376 L582.1864,269.1802 L581.3814,278.9228 L582.9897,288.6655 L581.4603,298.4081 L582.019,308.1507 L582.8325,317.8934 L582.1637,327.636 L582.3626,337.3786 L582.2332,347.1213 L582.5051,356.8639 L582.5834,366.6065 L583.0311,376.3491 L583.1413,386.0918 L583.1519,395.8344 L582.6034,405.577 L582.8733,415.3197 L583.1816,425.0623 L581.3429,434.8049 L583.151,444.5476 L581.8915,454.2902 L582.964,464.0328 L581.635,473.7755 L582.186,483.5181 L583.2325,493.2607 L582.2115,503.0034 L582.4105,512.746 L582.7119,522.4886 L582.8122,532.2313 L582.2694,541.9739 L582.6455,551.7165 L581.5351,561.4592 L582.6418,571.2018 L582.9826,580.9444 L582.8487,590.6871 L583.0664,600.4297 L581.6505,610.1723 L582.2745,619.915" fill="none" style="stroke:#0000FF;stroke-width:0.4844;stroke-dasharray:4.8441,4.8441;"/></g><g class="participant participant-head" data-participant="Usu.rio"><text fill="#1E90FF" font-family="Aapex" font-size="16.4699" lengthAdjust="spacing" textLength="60.3622" x="72.6485" y="186.4135">Usu&#225;rio</text><polygon fill="#00BFFF" points="121.3228,129.4651,119.0506,132.5698,116.3631,137.1172,112.5194,140.1817,108.4803,141.8575,105.2597,142.003,101.1205,139.9071,97.2149,138.5379,94.2505,135.758,92.6955,132.5754,91.7733,130.0414,90.8699,126.7314,89.4035,123.8831,90.5303,121.1021,91.5176,118.0557,95.2225,115.6464,97.829,112.5203,101.0553,111.4822,104.8907,110.5882,109.8092,111.1193,112.5031,112.3898,115.6352,112.9657,119.4435,116.8674,120.7711,120.9865,121.3479,123.797,120.6945,128.4283" style="stroke:#00BFFF;stroke-width:0.4844;"/><path d="M105.736,145.071 L105.736,145.071 L105.767,145.1561 L107.8065,144.1283 L110.0273,143.5992 L112.1891,142.9076 L114.1567,141.6821 L116.3931,141.1958 L116.3931,141.1958 L116.3792,141.1653 L118.4485,141.9974 L120.5875,142.9831 L122.7751,144.0755 L124.7955,144.8 L127.0501,146.0399 L127.2671,146.1385 L127.7718,148.059 L128.9102,150.2674 L130.1259,152.511 L130.8917,154.5502 L131.8942,156.6969 L131.9529,156.6969 L131.8667,157.4719 L132.0479,158.247 L132.1001,159.0221 L132.3986,159.7971 L131.8942,160.5722 L131.8942,160.5722 L132.0985,160.7765 L130.5509,162.3291 L128.8715,163.7499 L127.385,165.3636 L125.9075,166.9864 L124.1436,168.3227 L124.1436,167.7017 L116.7806,168.907 L109.4176,168.0674 L102.0545,168.7824 L94.6915,167.8964 L87.3285,168.3227 L87.3285,168.3227 L87.3076,168.3019 L86.0041,166.9984 L84.2134,165.2077 L82.7102,163.7045 L81.2311,162.2254 L79.5779,160.5722 L79.9363,160.5722 L79.5745,159.7971 L79.8252,159.0221 L79.085,158.247 L79.8228,157.4719 L79.5779,156.6969 L79.5779,156.6969 L79.7928,156.7946 L80.721,154.6447 L81.7558,152.5433 L82.295,150.2166 L83.1975,148.0551 L84.422,146.0399 L84.3113,145.7963 L86.5429,145.048 L88.6498,144.0252 L90.9376,143.4005 L92.9165,142.0961 L95.079,141.1958 L95.079,141.1958 L95.0285,141.0569 L97.244,142.0632 L99.2437,142.476 L101.3968,143.3109 L103.7001,144.5586 L105.736,145.071" fill="#00BFFF"/></g><g class="participant participant-head" data-participant="MCU"><polygon fill="#1E90FF" points="257.8012,154.2748,257.8012,154.4785,267.0224,153.8734,276.2436,154.4621,285.4648,154.6621,294.686,153.5837,303.9072,154.2748,303.8976,154.2517,304.197,154.2895,304.5449,154.4442,304.9264,154.6801,305.1919,154.6361,305.6199,154.9842,305.7851,155.0527,305.5737,155.2489,305.8446,155.6449,306.1744,156.0652,306.1618,156.3438,306.3293,156.6969,306.3513,156.6969,306.319,162.9272,306.3869,169.1574,306.4065,175.3877,306.5184,181.618,306.3293,187.8483,306.5295,187.9312,306.3901,188.2747,306.1215,188.5648,306.0419,188.9331,305.9713,189.3052,305.6199,189.5609,305.5307,189.3457,305.3612,189.9052,304.8982,189.7562,304.6583,190.1458,304.1886,189.9807,303.9072,190.2703,303.9072,190.204,294.686,190.9888,285.4648,190.2231,276.2436,190.3723,267.0224,190.5984,257.8012,190.2703,257.8526,190.3945,257.4582,190.1273,257.1516,190.0722,256.7029,189.6739,256.4662,189.7876,256.0885,189.5609,256.2521,189.6287,256.0793,189.2733,255.9877,188.9516,255.5188,188.4736,255.3264,188.1102,255.3791,187.8483,255.1785,187.8483,255.3601,181.618,255.3157,175.3877,255.5992,169.1574,255.3227,162.9272,255.3791,156.6969,255.2768,156.6545,255.5891,156.3826,255.4639,155.9294,255.6499,155.6051,256.1403,155.407,256.0885,154.9842,256.1424,155.1142,256.5218,155.0615,256.7338,154.6045,257.1556,154.6538,257.5316,154.5929,257.8012,154.2748" style="stroke:#00BFFF;stroke-width:0.4844;"/><text fill="#A9DCDF" font-family="Impact" font-size="16.4699" lengthAdjust="spacing" textLength="37.3867" x="262.1609" y="178.6629">MCU</text></g><g class="participant participant-head" data-participant="Esteira"><polygon fill="#1E90FF" points="471.089,154.2748,471.089,154.4785,481.3042,153.8734,491.5194,154.4621,501.7346,154.6621,511.9498,153.5837,522.1651,154.1995,532.3803,154.2748,532.3276,154.1476,532.6754,154.3023,533.0569,154.5383,533.3224,154.4942,533.8188,155.0075,534.0929,154.9842,533.9049,154.9063,534.1758,155.3023,534.5056,155.7227,534.493,156.0012,534.6808,156.3628,534.8023,156.6969,534.792,156.6969,534.86,162.9272,534.8795,169.1574,534.9915,175.3877,535.019,181.618,534.8023,187.8483,535.005,187.9322,534.7364,188.2223,534.6569,188.5906,534.5862,188.9626,534.0196,189.1293,534.0929,189.5609,534.1768,189.7634,533.7137,189.6143,533.4738,190.0039,533.0042,189.8389,532.7143,190.108,532.3803,190.2703,532.3803,190.9888,522.1651,190.2231,511.9498,190.3723,501.7346,190.5984,491.5194,190.6736,481.3042,190.2665,471.089,190.2703,471.1245,190.356,470.6757,189.9576,470.4391,190.0714,470.1292,190.0082,469.7738,189.8354,469.3763,189.5609,469.5592,189.6367,469.0903,189.1587,468.898,188.7953,468.7653,188.4565,468.7913,188.1835,468.6669,187.8483,468.6035,187.8483,468.887,181.618,468.6105,175.3877,468.5562,169.1574,468.7407,162.9272,468.6669,156.6969,468.468,156.6145,468.6539,156.2902,469.1443,156.092,469.2226,155.7231,469.4536,155.4175,469.3763,154.9842,469.3366,154.8882,469.7583,154.9376,470.1344,154.8766,470.3456,154.4177,470.7346,154.3881,471.089,154.2748" style="stroke:#00BFFF;stroke-width:0.4844;"/><text fill="#A9DCDF" font-family="Impact" font-size="16.4699" lengthAdjust="spacing" textLength="52.5719" x="475.4487" y="178.6629">Esteira</text></g><g class="participant participant-head" data-participant="Monitor"><polygon fill="#1E90FF" points="546.9126,154.2748,546.9126,154.4785,557.0213,153.8734,567.1301,154.4621,577.2389,154.6621,587.3477,153.5837,597.4565,154.1995,607.5653,153.8616,617.674,154.2748,617.6266,154.1604,618.0081,154.3964,618.2736,154.3523,618.77,154.8657,618.9663,154.6543,619.3867,154.9842,619.3277,154.9598,619.6574,155.3802,619.6448,155.6587,619.8327,156.0203,619.9447,156.3504,620.0961,156.6969,620.1537,156.6969,620.1733,162.9272,620.2852,169.1574,620.3128,175.3877,620.3154,181.618,620.0961,187.8483,620.1721,187.8797,620.0925,188.2481,620.0218,188.6201,619.4553,188.7867,619.731,189.3022,619.3867,189.5609,619.35,189.4724,619.1101,189.8621,618.6404,189.697,618.3506,189.9661,618.1082,190.3497,617.674,190.2703,617.674,190.2231,607.5653,190.3723,597.4565,190.5984,587.3477,190.6736,577.2389,190.2665,567.1301,190.5486,557.0213,189.7157,546.9126,190.2703,546.9477,190.3552,546.6378,190.292,546.2824,190.1192,545.9607,190.0276,545.4827,189.5587,545.1999,189.5609,545.0053,189.4803,544.8726,189.1416,544.8986,188.8686,544.7156,188.509,544.8357,188.275,544.4905,187.8483,544.4341,187.8483,544.3797,181.618,544.5642,175.3877,544.2752,169.1574,544.3229,162.9272,544.4905,156.6969,544.6841,156.7771,544.7624,156.4082,544.9934,156.1026,544.8201,155.6295,545.1533,155.3662,545.1999,154.9842,545.2729,155.1604,545.4841,154.7014,545.8731,154.6719,546.2431,154.5962,546.6506,154.6112,546.9126,154.2748" style="stroke:#00BFFF;stroke-width:0.4844;"/><text fill="#A9DCDF" font-family="Impact" font-size="16.4699" lengthAdjust="spacing" textLength="62.0421" x="551.2723" y="178.6629">Monitor</text></g><g><title>Usu.rio</title><polygon fill="#A9DCDF" points="100.8919,502.5734,100.8919,502.6413,102.8296,502.4396,104.7672,502.6358,106.7049,502.7025,108.6425,502.343,110.5801,502.5734,110.5048,502.5734,110.1669,512.4481,110.2086,522.3229,110.5141,532.1976,109.9103,542.0724,111.1165,551.9471,109.9695,561.8219,110.3885,571.6966,110.9986,581.5713,110.497,591.4461,110.6462,601.3208,110.5801,611.1956,110.5801,611.1853,108.6425,611.2532,106.7049,611.2728,104.7672,611.3847,102.8296,611.4123,100.8919,611.1956,101.55,611.1956,101.1386,601.3208,101.3411,591.4461,101.5723,581.5713,100.1932,571.6966,101.5493,561.8219,100.6047,551.9471,101.4091,542.0724,100.4123,532.1976,100.8256,522.3229,101.6104,512.4481,100.8919,502.5734" style="stroke:#181818;stroke-width:0.9688;"/></g><g><title>MCU</title><polygon fill="#A9DCDF" points="276.0101,223.8942,276.0101,223.9621,277.9477,223.7604,279.8854,223.9566,281.823,224.0233,283.7607,223.6638,285.6983,223.8942,285.623,223.8942,285.2851,233.5767,285.3268,243.2593,285.6323,252.9418,285.0285,262.6243,286.2347,272.3069,285.0877,281.9894,285.5067,291.6719,286.1168,301.3545,285.6152,311.037,285.7644,320.7195,285.6674,330.4021,285.8713,340.0846,285.93,349.7671,286.2657,359.4497,286.3484,369.1322,286.3564,378.8147,285.945,388.4973,286.1474,398.1798,286.3786,407.8623,284.9996,417.5449,286.3557,427.2274,285.411,436.91,286.2155,446.5925,285.2187,456.275,285.6319,465.9576,286.4168,475.6401,285.6511,485.3226,285.8003,495.0052,286.0264,504.6877,286.1016,514.3702,285.6945,524.0528,285.9766,533.7353,285.1437,543.4178,285.9738,553.1004,286.2294,562.7829,286.129,572.4654,286.2922,582.148,285.2303,591.8305,285.0665,601.513,285.6983,611.1956,285.6983,610.9949,283.7607,611.1766,281.823,611.1321,279.8854,611.4156,277.9477,611.1392,276.0101,611.1956,275.6777,611.1956,276.2313,601.513,275.3641,591.8305,275.5072,582.148,276.6388,572.4654,276.4322,562.7829,276.7217,553.1004,275.6983,543.4178,276.3193,533.7353,276.5821,524.0528,275.5524,514.3702,275.9172,504.6877,276.1322,495.0052,276.6415,485.3226,276.006,475.6401,276.4582,465.9576,275.4736,456.275,275.354,446.5925,276.498,436.91,275.3155,427.2274,276.5032,417.5449,276.2103,407.8623,275.7505,398.1798,275.6674,388.4973,276.4546,378.8147,275.7201,369.1322,276.5835,359.4497,275.4746,349.7671,276.6083,340.0846,276.4793,330.4021,276.2474,320.7195,276.0559,311.037,276.7141,301.3545,276.6045,291.6719,276.1741,281.9894,276.2699,272.3069,275.8839,262.6243,276.7042,252.9418,276.1601,243.2593,276.1773,233.5767,276.0101,223.8942" style="stroke:#181818;stroke-width:0.9688;"/></g><g><title>MCU</title><polygon fill="#A9DCDF" points="280.8542,296.9549,280.8542,297.0227,282.7918,296.8211,284.7295,297.0173,286.6671,297.0839,288.6048,296.7245,290.5424,296.9549,290.4671,296.9549,290.1292,306.7749,290.1709,316.5949,290.4764,326.4149,289.8726,336.2349,291.0788,346.055,289.9318,355.875,290.3508,365.695,290.9609,375.515,290.4593,385.3351,290.6085,395.1551,290.5114,404.9751,290.7154,414.7951,290.7741,424.6152,291.1098,434.4352,291.1925,444.2552,291.2005,454.0752,290.7891,463.8952,290.9915,473.7153,291.2227,483.5353,289.8437,493.3553,291.1998,503.1753,290.2551,512.9954,291.0596,522.8154,290.0628,532.6354,290.476,542.4554,291.2609,552.2754,290.4952,562.0955,290.6444,571.9155,290.8705,581.7355,290.9457,591.5555,290.5386,601.3756,290.5424,611.1956,290.5424,611.2883,288.6048,611.0107,286.6671,611.2874,284.7295,611.3726,282.7918,611.3391,280.8542,611.1956,281.4481,611.1956,280.3862,601.3756,280.2224,591.5555,280.2522,581.7355,280.7972,571.9155,280.6638,562.0955,281.5144,552.2754,280.685,542.4554,280.5218,532.6354,281.0754,522.8154,280.2082,512.9954,280.3513,503.1753,281.4829,493.3553,281.2763,483.5353,281.5658,473.7153,280.5424,463.8952,281.1634,454.0752,281.4262,444.2552,280.3965,434.4352,280.7613,424.6152,280.9763,414.7951,281.4856,404.9751,280.8501,395.1551,281.3023,385.3351,280.3177,375.515,280.1981,365.695,281.3421,355.875,280.1596,346.055,281.3473,336.2349,281.0544,326.4149,280.5946,316.5949,280.5115,306.7749,280.8542,296.9549" style="stroke:#181818;stroke-width:0.9688;"/></g><g><title>MCU</title><polygon fill="#A9DCDF" points="285.6983,436.2945,285.6983,436.3623,287.6359,436.1607,289.5736,436.3569,291.5112,436.4235,293.4489,436.0641,295.3865,436.2945,295.3112,436.2945,294.9733,446.0112,295.015,455.7279,295.3205,465.4446,294.7167,475.1614,295.9229,484.8781,294.7759,494.5948,295.1949,504.3116,295.805,514.0283,295.3034,523.745,295.4526,533.4617,295.3555,543.1785,295.5595,552.8952,295.6182,562.6119,295.9539,572.3287,296.0366,582.0454,296.0446,591.7621,295.6332,601.4788,295.3865,611.1956,295.3865,611.3453,293.4489,611.4224,291.5112,610.9627,289.5736,611.4147,287.6359,611.0998,285.6983,611.1956,286.2155,611.1956,285.2187,601.4788,285.6319,591.7621,286.4168,582.0454,285.6511,572.3287,285.8003,562.6119,286.0264,552.8952,286.1016,543.1785,285.6945,533.4617,285.9766,523.745,285.1437,514.0283,285.9738,504.3116,286.2294,494.5948,286.129,484.8781,286.2922,475.1614,285.2303,465.4446,285.0665,455.7279,285.0963,446.0112,285.6983,436.2945" style="stroke:#181818;stroke-width:0.9688;"/></g><g><title>Esteira</title><polygon fill="#A9DCDF" points="496.8905,332.5164,496.8905,332.5843,498.8282,332.3826,500.7658,332.5788,502.7035,332.6454,504.6411,332.286,506.5787,332.5164,506.5034,332.5164,506.1655,341.8464,506.2072,351.1764,506.5127,360.5064,505.9089,369.8364,507.1151,379.1665,505.9681,388.4965,506.5787,397.8265,506.5787,397.7626,504.6411,397.966,502.7035,397.7988,500.7658,397.8485,498.8282,397.8162,496.8905,397.8265,497.0635,397.8265,497.1222,388.4965,497.458,379.1665,497.5407,369.8364,497.5486,360.5064,497.1372,351.1764,497.3397,341.8464,496.8905,332.5164" style="stroke:#181818;stroke-width:0.9688;"/></g><g><title>Monitor</title><polygon fill="#A9DCDF" points="577.4492,471.856,577.4492,471.9239,579.3868,471.7222,581.3245,471.9184,583.2621,471.985,585.1998,471.6256,587.1374,471.856,587.0621,471.856,586.7242,481.8088,586.7659,491.7616,587.0714,501.7145,586.4676,511.6673,587.6738,521.6201,586.5268,531.5729,586.9458,541.5258,587.5559,551.4786,587.0543,561.4314,587.2035,571.3843,587.1064,581.3371,587.3104,591.2899,587.3691,601.2427,587.1374,611.1956,587.1374,611.3847,585.1998,611.4123,583.2621,611.4149,581.3245,611.2778,579.3868,611.3453,577.4492,611.1956,578.1295,611.1956,576.7505,601.2427,578.1066,591.2899,577.1619,581.3371,577.9664,571.3843,576.9696,561.4314,577.3828,551.4786,578.1677,541.5258,577.402,531.5729,577.5512,521.6201,577.7773,511.6673,577.8525,501.7145,577.4454,491.7616,577.7275,481.8088,577.4492,471.856" style="stroke:#181818;stroke-width:0.9688;"/></g><g><title>Monitor</title><polygon fill="#A9DCDF" points="582.2933,567.8835,582.2933,567.9514,584.2309,567.7497,586.1686,567.9459,588.1062,568.0126,590.0439,567.6531,591.9815,567.8835,591.9564,567.8835,591.8438,576.5459,591.8576,585.2083,591.9595,593.8707,591.7582,602.5332,591.9815,611.1956,591.9815,611.3744,590.0439,610.992,588.1062,611.1317,586.1686,611.3351,584.2309,611.1679,582.2933,611.1956,582.3153,611.1956,582.283,602.5332,582.351,593.8707,582.3705,585.2083,582.4824,576.5459,582.2933,567.8835" style="stroke:#181818;stroke-width:0.9688;"/></g><g class="message" data-participant-1="Usu.rio" data-participant-2="MCU"><polygon fill="#00BFFF" points="264.3843,220.0189,264.4095,220.0819,266.2722,220.6697,268.2827,221.627,270.2451,222.4639,272.0493,222.9052,274.0725,223.8942,274.0631,223.8709,272.0837,224.5414,270.1512,225.3293,268.2514,226.1989,266.239,226.7871,264.3843,227.7695,264.5107,227.8959,265.0154,226.8505,265.8892,226.1742,266.8081,225.5429,267.4649,224.6497,268.2595,223.8942,268.2751,223.9098,267.4772,223.1118,266.7502,222.3848,265.989,221.6236,265.2931,220.9277,264.3843,220.0189" style="stroke:#00BFFF;stroke-width:0.9688;"/><path d="M105.736,223.8942 L105.736,224.1657 L115.4102,223.359 L125.0844,224.1439 L134.7586,224.4105 L144.4328,222.9727 L154.107,223.7938 L163.7811,223.3433 L173.4553,223.3988 L183.1295,223.8061 L192.8037,223.0011 L202.4779,224.6094 L212.1521,223.08 L221.8263,223.6387 L231.5004,224.4522 L241.1746,223.7834 L250.8488,223.9823 L260.523,223.8529 L270.1972,223.8942" fill="none" style="stroke:#00BFFF;stroke-width:0.9688;"/><text fill="#000000" font-family="sans-serif" font-size="12.5947" lengthAdjust="spacing" textLength="151.8665" x="112.5178" y="218.2663">Aciona o bot&#227;o de parada</text></g><polygon fill="#FEFFDD" points="479.5528,236.4888,479.5528,236.5567,488.0784,236.355,496.604,236.5513,505.1296,236.6179,513.6553,236.2585,522.1809,236.4888,522.1616,236.4728,524.0127,238.7258,525.961,241.0599,527.9769,243.4503,529.7599,245.6466,531.8691,248.1147,532.0108,248.2237,529.7701,250.5095,527.9432,253.1136,526.1667,255.7565,524.0966,258.1735,522.1809,260.7093,522.1809,260.7314,513.6553,260.699,505.1296,260.767,496.604,260.7866,488.0784,260.8985,479.5528,260.7093,479.7246,260.8415,477.789,258.3242,475.7427,255.7216,473.8585,253.2438,471.982,250.7719,469.8646,248.1147,469.6857,247.9656,471.9706,245.9298,473.6663,243.4031,475.81,241.2495,477.4924,238.7117,479.5528,236.4888" style="stroke:#181818;stroke-width:0.4844;"/><text fill="#000000" font-family="sans-serif" font-size="12.5947" lengthAdjust="spacing" textLength="39.4717" x="481.4904" y="253.8278">Ligada</text><g class="message" data-participant-1="MCU" data-participant-2="MCU"><path d="M285.6983,284.3602 L285.6983,284.6317 L294.8052,283.825 L303.9121,284.6099 L313.019,284.8765 L322.1259,283.4387 L331.2328,284.3602" fill="none" style="stroke:#00BFFF;stroke-width:0.9688;"/><path d="M331.2328,284.3602 L331.3233,284.3602 L331.0544,286.8791 L331.3161,289.3981 L331.4049,291.917 L330.9257,294.4359 L331.2328,296.9549" fill="none" style="stroke:#00BFFF;stroke-width:0.9688;"/><path d="M291.5112,296.9549 L291.5112,297.0454 L299.4555,296.7765 L307.3999,297.0381 L315.3442,297.127 L323.2885,296.6477 L331.2328,296.9549" fill="none" style="stroke:#00BFFF;stroke-width:0.9688;"/><polygon fill="#00BFFF" points="301.1994,293.0796,301.2246,293.1426,299.2121,293.7304,297.3473,294.6876,295.4344,295.5246,293.3633,295.9659,291.5112,296.9549,291.5019,296.9316,293.3977,297.602,295.3405,298.39,297.316,299.2596,299.1789,299.8478,301.1994,300.8301,301.3258,300.9566,300.2804,299.9112,299.6041,299.2349,298.9729,298.6036,298.0796,297.7103,297.3241,296.9549,297.3397,296.9704,298.0919,296.1725,298.915,295.4455,299.7039,294.6843,300.5581,293.9884,301.1994,293.0796" style="stroke:#00BFFF;stroke-width:0.9688;"/><text fill="#000000" font-family="sans-serif" font-size="12.5947" lengthAdjust="spacing" textLength="140.5943" x="297.3241" y="278.7323">Dispositivo de manobra</text></g><g class="message" data-participant-1="MCU" data-participant-2="Esteira"><polygon fill="#00BFFF" points="485.2647,328.6411,485.2899,328.7041,487.1526,329.2919,489.1632,330.2492,491.1256,331.0861,492.9297,331.5274,494.9529,332.5164,494.9436,332.4931,492.9641,333.1635,491.0316,333.9515,489.1318,334.8211,487.1194,335.4093,485.2647,336.3917,485.3911,336.5181,485.8958,335.4727,486.7696,334.7964,487.6885,334.1651,488.3453,333.2718,489.14,332.5164,489.1556,332.532,488.3576,331.734,487.6306,331.007,486.8694,330.2458,486.1735,329.5499,485.2647,328.6411" style="stroke:#00BFFF;stroke-width:0.9688;"/><path d="M290.5424,332.5164 L290.5424,332.7879 L300.0917,331.9812 L309.641,332.7661 L319.1903,333.0327 L328.7396,331.5948 L338.2889,332.416 L347.8382,331.9654 L357.3875,332.021 L366.9368,332.4283 L376.4861,331.6233 L386.0354,333.2315 L395.5847,331.7022 L405.134,332.2609 L414.6832,333.0743 L424.2325,332.4056 L433.7818,332.6045 L443.3311,332.4751 L452.8804,332.747 L462.4297,332.8253 L471.979,333.2729 L481.5283,333.3832 L491.0776,332.5164" fill="none" style="stroke:#00BFFF;stroke-width:0.9688;"/><text fill="#000000" font-family="sans-serif" font-size="12.5947" lengthAdjust="spacing" textLength="87.2181" x="297.3241" y="326.8885">Desliga esteira</text></g><polygon fill="#FEFFDD" points="469.8646,345.111,469.8646,345.3147,480.1987,344.7096,490.5328,345.2983,500.8668,345.4982,511.2009,344.4199,521.535,345.0357,531.8691,345.111,531.7633,345.0229,533.7116,347.3569,535.7274,349.7473,537.5105,351.9436,539.757,354.5262,541.5573,356.7369,541.3959,356.6128,539.569,359.2169,537.7926,361.8598,535.7224,364.2768,533.8242,366.826,531.8691,369.3315,531.8691,369.3006,521.535,369.5045,511.2009,369.5632,500.8668,369.899,490.5328,369.9817,480.1987,369.9896,469.8646,369.3315,469.9298,369.3817,468.0456,366.9039,466.1691,364.4319,463.8671,361.6327,462.2877,359.3894,460.1764,356.7369,460.1028,356.6756,462.2465,354.5221,463.9289,351.9842,465.9723,349.7472,468.111,347.5895,469.8646,345.111" style="stroke:#181818;stroke-width:0.4844;"/><text fill="#000000" font-family="sans-serif" font-size="12.5947" lengthAdjust="spacing" textLength="58.4518" x="471.8022" y="362.45">Desligada</text><g class="message" data-participant-1="Esteira" data-participant-2="MCU"><polygon fill="#00BFFF" points="301.1994,393.9512,301.2246,394.0142,299.2121,394.602,297.3473,395.5593,295.4344,396.3962,293.3633,396.8375,291.5112,397.8265,291.5019,397.8032,293.3977,398.4737,295.3405,399.2616,297.316,400.1312,299.1789,400.7194,301.1994,401.7018,301.3258,401.8282,300.2804,400.7828,299.6041,400.1065,298.9729,399.4752,298.0796,398.582,297.3241,397.8265,297.3397,397.8421,298.0919,397.0441,298.915,396.3171,299.7039,395.5559,300.5581,394.86,301.1994,393.9512" style="stroke:#00BFFF;stroke-width:0.9688;"/><path d="M295.3865,397.8265 L295.3865,398.098 L305.1665,397.2913 L314.9464,398.0762 L324.7264,398.3428 L334.5064,396.905 L344.2863,397.7261 L354.0663,397.2756 L363.8463,397.3311 L373.6262,397.7384 L383.4062,396.9334 L393.1862,398.5417 L402.9661,397.0123 L412.7461,397.571 L422.5261,398.3845 L432.306,397.7157 L442.086,397.9146 L451.866,397.7852 L461.6459,398.0571 L471.4259,398.1354 L481.2059,398.5831 L490.9858,398.6933 L500.7658,397.8265" fill="none" style="stroke:#00BFFF;stroke-width:0.9688;stroke-dasharray:1.9376,1.9376;"/><text fill="#000000" font-family="sans-serif" font-size="12.5947" lengthAdjust="spacing" textLength="102.6088" x="307.0123" y="392.1986">Atualiza o display</text></g><g class="message" data-participant-1="MCU" data-participant-2="MCU"><path d="M290.5424,423.6998 L290.5424,423.9713 L299.6493,423.1646 L308.7562,423.9495 L317.8631,424.2161 L326.97,422.7783 L336.0769,423.6998" fill="none" style="stroke:#00BFFF;stroke-width:0.9688;"/><path d="M336.0769,423.6998 L336.1674,423.6998 L335.8985,426.2187 L336.1602,428.7377 L336.249,431.2566 L335.7698,433.7755 L336.0769,436.2945" fill="none" style="stroke:#00BFFF;stroke-width:0.9688;"/><path d="M296.3553,436.2945 L296.3553,436.385 L304.2996,436.1161 L312.244,436.3777 L320.1883,436.4666 L328.1326,435.9873 L336.0769,436.2945" fill="none" style="stroke:#00BFFF;stroke-width:0.9688;"/><polygon fill="#00BFFF" points="306.0435,432.4192,306.0687,432.4822,304.0562,433.07,302.1914,434.0272,300.2785,434.8642,298.2074,435.3055,296.3553,436.2945,296.346,436.2712,298.2418,436.9416,300.1846,437.7296,302.1601,438.5992,304.023,439.1874,306.0435,440.1697,306.1699,440.2962,305.1245,439.2508,304.4482,438.5745,303.817,437.9432,302.9237,437.0499,302.1682,436.2945,302.1838,436.31,302.936,435.5121,303.7591,434.7851,304.548,434.0239,305.4022,433.328,306.0435,432.4192" style="stroke:#00BFFF;stroke-width:0.9688;"/><text fill="#000000" font-family="sans-serif" font-size="12.5947" lengthAdjust="spacing" textLength="178.2524" x="302.1682" y="418.0719">Emite sinal sonoro e luminoso</text></g><g class="message" data-participant-1="MCU" data-participant-2="Monitor"><polygon fill="#00BFFF" points="565.8234,467.9807,565.8486,468.0437,567.7113,468.6315,569.7218,469.5888,571.6842,470.4257,573.4884,470.867,575.5116,471.856,575.5022,471.8327,573.5228,472.5031,571.5903,473.2911,569.6905,474.1607,567.6781,474.7489,565.8234,475.7313,565.9498,475.8577,566.4545,474.8123,567.3283,474.136,568.2472,473.5047,568.904,472.6114,569.6986,471.856,569.7142,471.8716,568.9163,471.0736,568.1893,470.3466,567.4281,469.5854,566.7322,468.8895,565.8234,467.9807" style="stroke:#00BFFF;stroke-width:0.9688;"/><path d="M295.3865,471.856 L295.3865,472.1275 L304.9124,471.3208 L314.4382,472.1057 L323.9641,472.3723 L333.4899,470.9344 L343.0158,471.7556 L352.5416,471.305 L362.0675,471.3606 L371.5933,471.7679 L381.1192,470.9629 L390.645,472.5711 L400.1709,471.0418 L409.6968,471.6005 L419.2226,472.4139 L428.7485,471.7452 L438.2743,471.9441 L447.8002,471.8147 L457.326,472.0866 L466.8519,472.1649 L476.3777,472.6125 L485.9036,472.7228 L495.4294,472.7334 L504.9553,472.1849 L514.4812,472.4548 L524.007,472.7631 L533.5329,470.9244 L543.0587,472.7324 L552.5846,471.473 L562.1104,472.5455 L571.6363,471.856" fill="none" style="stroke:#00BFFF;stroke-width:0.9688;"/><text fill="#000000" font-family="sans-serif" font-size="12.5947" lengthAdjust="spacing" textLength="140.5313" x="302.1682" y="466.2281">Envia dados para o IHM</text></g><g class="message" data-participant-1="Monitor" data-participant-2="Usu.rio"><polygon fill="#00BFFF" points="121.2372,498.6981,121.2624,498.7611,119.2498,499.3489,117.3851,500.3062,115.4722,501.1431,113.401,501.5844,111.549,502.5734,111.5396,502.5501,113.4354,503.2206,115.3782,504.0085,117.3537,504.8781,119.2166,505.4663,121.2372,506.4487,121.3636,506.5751,120.3182,505.5297,119.6419,504.8534,119.0106,504.2221,118.1173,503.3289,117.3619,502.5734,117.3775,502.589,118.1296,501.791,118.9528,501.064,119.7416,500.3028,120.5958,499.6069,121.2372,498.6981" style="stroke:#00BFFF;stroke-width:0.9688;"/><path d="M115.4242,502.5734 L115.4242,502.8449 L125.0296,502.0382 L134.6349,502.8231 L144.2402,503.0897 L153.8456,501.6519 L163.4509,502.473 L173.0563,502.0225 L182.6616,502.078 L192.2669,502.4853 L201.8723,501.6803 L211.4776,503.2886 L221.0829,501.7592 L230.6883,502.3179 L240.2936,503.1314 L249.8989,502.4626 L259.5043,502.6615 L269.1096,502.5321 L278.715,502.804 L288.3203,502.8823 L297.9256,503.33 L307.531,503.4402 L317.1363,503.4508 L326.7416,502.9023 L336.347,503.1722 L345.9523,503.4805 L355.5576,501.6418 L365.163,503.4499 L374.7683,502.1904 L384.3737,503.2629 L393.979,501.9339 L403.5843,502.4849 L413.1897,503.5314 L422.795,502.5104 L432.4003,502.7094 L442.0057,503.0108 L451.611,503.1111 L461.2163,502.5683 L470.8217,502.9444 L480.427,501.834 L490.0324,502.9408 L499.6377,503.2815 L509.243,503.1476 L518.8484,503.3653 L528.4537,501.9494 L538.059,501.7309 L547.6644,501.7707 L557.2697,502.4973 L566.875,502.3195 L576.4804,502.5734" fill="none" style="stroke:#00BFFF;stroke-width:0.9688;"/><text fill="#000000" font-family="sans-serif" font-size="12.5947" lengthAdjust="spacing" textLength="132.71" x="127.0501" y="496.9455">Exibe status da esteira</text></g><polygon fill="#FEFFDD" points="462.114,515.168,462.114,515.3717,471.8022,514.7666,481.4904,515.3553,491.1786,515.5553,500.8668,514.4769,510.555,515.0928,520.2432,514.7549,529.9314,514.7965,539.6196,515.168,539.6027,515.154,541.3857,517.3503,543.6323,519.9328,545.2762,522.0132,547.3211,524.4278,549.3078,526.7939,549.4184,526.8789,547.3482,529.2959,545.45,531.8452,543.4867,534.3444,541.603,536.9048,539.6196,539.3885,539.6196,539.6202,529.9314,539.956,520.2432,540.0387,510.555,540.0466,500.8668,539.6352,491.1786,539.8377,481.4904,540.0689,471.8022,538.6898,462.114,539.3885,462.2877,539.5221,460.1005,536.8112,458.3754,534.4558,456.1744,531.7343,454.346,529.2993,452.4259,526.7939,452.6098,526.9472,454.3514,524.4586,456.3273,522.1653,458.3228,519.8884,460.2797,517.5793,462.114,515.168" style="stroke:#181818;stroke-width:0.4844;"/><text fill="#000000" font-family="sans-serif" font-size="12.5947" lengthAdjust="spacing" textLength="74.2204" x="464.0517" y="532.507">Manuten&#231;&#227;o</text><g class="message" data-participant-1="Usu.rio" data-participant-2="Monitor"><polygon fill="#00BFFF" points="570.6675,564.0082,570.6927,564.0712,572.5554,564.659,574.5659,565.6163,576.5283,566.4532,578.3325,566.8945,580.3557,567.8835,580.3463,567.8602,578.3669,568.5307,576.4344,569.3186,574.5346,570.1882,572.5222,570.7764,570.6675,571.7588,570.7939,571.8852,571.2986,570.8398,572.1724,570.1635,573.0913,569.5322,573.7481,568.639,574.5427,567.8835,574.5583,567.8991,573.7604,567.1012,573.0334,566.3742,572.2722,565.6129,571.5763,564.917,570.6675,564.0082" style="stroke:#00BFFF;stroke-width:0.9688;"/><path d="M110.5801,567.8835 L110.5801,568.155 L120.2864,567.3483 L129.9926,568.1332 L139.6989,568.3998 L149.4052,566.962 L159.1114,567.7831 L168.8177,567.3326 L178.5239,567.3881 L188.2302,567.7955 L197.9364,566.9904 L207.6427,568.5987 L217.3489,567.0693 L227.0552,567.628 L236.7615,568.4415 L246.4677,567.7727 L256.174,567.9716 L265.8802,567.8422 L275.5865,568.1141 L285.2927,568.1924 L294.999,568.6401 L304.7052,568.7503 L314.4115,568.7609 L324.1177,568.2124 L333.824,568.4823 L343.5303,568.7906 L353.2365,566.9519 L362.9428,568.76 L372.649,567.5005 L382.3553,568.5731 L392.0615,567.2441 L401.7678,567.795 L411.474,568.8415 L421.1803,567.8205 L430.8866,568.0195 L440.5928,568.3209 L450.2991,568.4212 L460.0053,567.8785 L469.7116,568.2545 L479.4178,567.1441 L489.1241,568.2509 L498.8303,568.5916 L508.5366,568.4577 L518.2428,568.6754 L527.9491,567.2595 L537.6554,567.041 L547.3616,567.0808 L557.0679,567.8074 L566.7741,567.6296 L576.4804,567.8835" fill="none" style="stroke:#00BFFF;stroke-width:0.9688;"/><text fill="#000000" font-family="sans-serif" font-size="12.5947" lengthAdjust="spacing" textLength="103.377" x="117.3619" y="562.2556">Rearme pelo IHM</text></g><polygon fill="#FEFFDD" points="479.5528,580.4782,479.5528,580.546,488.0784,580.3444,496.604,580.5406,505.1296,580.6072,513.6553,580.2478,522.1809,580.4782,522.1616,580.4621,524.0127,582.7152,525.961,585.0492,527.9769,587.4396,529.7599,589.6359,531.8691,592.104,532.0108,592.213,529.7701,594.4988,527.9432,597.1029,526.1667,599.7458,524.0966,602.1628,522.1809,604.6987,522.1809,604.7207,513.6553,604.6883,505.1296,604.7563,496.604,604.7759,488.0784,604.8878,479.5528,604.6987,479.7246,604.8308,477.789,602.3135,475.7427,599.7109,473.8585,597.2331,471.982,594.7612,469.8646,592.104,469.6857,591.9549,471.9706,589.9191,473.6663,587.3924,475.81,585.2389,477.4924,582.701,479.5528,580.4782" style="stroke:#181818;stroke-width:0.4844;"/><text fill="#000000" font-family="sans-serif" font-size="12.5947" lengthAdjust="spacing" textLength="39.4717" x="481.4904" y="597.8171">Ligada</text><text fill="#1E90FF" font-family="Arial" font-size="13.5635" lengthAdjust="spacing" textLength="3.5265" x="29.0646" y="654.7595">&#160;</text><text fill="#1E90FF" font-family="Arial" font-size="13.5635" lengthAdjust="spacing" textLength="3.5265" x="29.0646" y="673.2328">&#160;</text><text fill="#1E90FF" font-family="Arial" font-size="13.5635" font-weight="bold" lengthAdjust="spacing" textLength="154.2975" x="29.0646" y="691.7062">Casos de Uso cobertos:</text><text fill="#1E90FF" font-family="Arial" font-size="13.5635" font-weight="bold" lengthAdjust="spacing" textLength="60.832" x="29.0646" y="710.1796">- MC-003:</text><text fill="#1E90FF" font-family="Arial" font-size="13.5635" lengthAdjust="spacing" textLength="182.1432" x="93.423" y="710.1796">L&#243;gica de Seguran&#231;a (NR-12)</text><polygon fill="none" points="26.6425,24.2205,26.6425,24.4241,36.3166,23.8191,45.9907,24.4078,55.6648,24.6077,65.3389,23.5293,75.013,24.1452,84.6872,23.8073,94.3613,23.849,104.0354,24.1545,113.7095,23.5507,123.3836,24.7569,133.0577,23.6099,142.7318,24.0289,152.4059,24.639,162.08,24.1374,171.7541,24.2866,181.4282,24.1895,191.1023,24.3935,200.7764,24.4522,210.4505,24.7879,220.1246,24.8706,229.7987,24.8786,239.4728,24.4672,249.1469,24.6696,258.821,24.9008,268.4951,23.5218,278.1692,24.8778,287.8433,23.9332,297.5174,24.7377,307.1915,23.7409,316.8656,24.1541,326.5397,24.939,336.2138,24.1733,345.8879,24.3225,355.562,24.5486,365.2361,24.6237,374.9102,24.2167,384.5843,24.4988,394.2584,23.6659,403.9325,24.496,413.6066,24.7516,423.2807,24.6512,432.9548,24.8144,442.6289,23.7525,452.303,23.5886,461.9771,23.6185,471.6512,24.1634,481.3253,24.0301,490.9994,24.8807,500.6735,24.0513,510.3476,23.8881,520.0217,24.4416,529.6958,23.5744,539.3699,23.7176,549.044,24.8492,558.7181,24.6426,568.3922,24.9321,578.0663,23.9087,587.7404,24.5297,597.4145,24.7925,607.0886,23.7628,616.7627,24.1276,626.4368,24.3425,636.1109,24.8519,645.785,24.2164,655.4591,24.6686,665.1332,24.2205,665.0648,24.0553,666.0771,24.4441,667.2506,25.222,668.1274,25.2835,669.3065,26.0749,670.2712,26.3487,670.3328,26.3742,670.6169,27.3432,671.0169,28.3602,671.685,29.4882,671.8844,30.4221,672.3994,31.4866,672.9728,31.4866,671.8639,41.6089,672.9975,51.7311,672.8686,61.8533,672.6367,71.9755,672.3994,82.0978,672.4135,82.1036,672.1905,83.2151,671.7311,84.2288,671.1729,85.2014,670.7768,86.2413,670.2712,87.2357,670.2551,87.1968,669.3321,87.8751,668.2351,88.1332,667.2097,88.5641,666.0856,88.7568,665.1332,89.3639,665.1332,88.9713,655.4591,89.8781,645.785,89.7803,636.1109,89.3223,626.4368,89.0518,616.7627,89.1518,607.0886,88.6991,597.4145,89.7657,587.7404,90.0804,578.0663,89.8739,568.3922,90.0372,558.7181,89.2314,549.044,89.4484,539.3699,88.9884,529.6958,89.6391,520.0217,89.603,510.3476,89.8991,500.6735,89.1414,490.9994,89.2337,481.3253,89.7935,471.6512,89.9136,461.9771,88.8674,452.303,89.1761,442.6289,89.5085,432.9548,88.7721,423.2807,89.7063,413.6066,89.6139,403.9325,89.2663,394.2584,89.5017,384.5843,90.0699,374.9102,89.0608,365.2361,89.6691,355.562,89.6407,345.8879,89.4761,336.2138,89.5004,326.5397,89.4739,316.8656,88.7592,307.1915,88.9756,297.5174,88.9168,287.8433,89.4257,278.1692,89.4493,268.4951,89.5206,258.821,89.082,249.1469,89.2985,239.4728,89.2474,229.7987,89.9228,220.1246,89.7772,210.4505,88.8935,200.7764,89.2933,191.1023,88.8047,181.4282,89.6433,171.7541,89.9534,162.08,89.8915,152.4059,88.9419,142.7318,89.8134,133.0577,88.6443,123.3836,89.5578,113.7095,89.0739,104.0354,89.4576,94.3613,89.5968,84.6872,89.8213,75.013,88.6664,65.3389,89.8246,55.6648,89.5365,45.9907,89.7082,36.3166,90.0884,26.6425,89.3639,26.6432,89.3655,25.6366,88.9906,24.6137,88.5763,23.5842,88.1458,22.5321,87.6611,21.5046,87.2357,21.7166,87.3235,20.897,86.1328,20.822,85.2504,20.0415,84.0758,19.6408,83.0586,19.3764,82.0978,19.4152,82.0978,19.4038,71.9755,18.8989,61.8533,19.7772,51.7311,19.4819,41.6089,19.3764,31.4866,19.5932,31.5764,20.0011,30.5415,20.0939,29.3761,20.5346,28.3547,21.0404,27.3603,21.5046,26.3487,21.5485,26.4548,22.582,26.0433,23.597,25.5873,24.5451,24.9698,25.6936,24.836,26.6425,24.2205" style="stroke:#000000;stroke-width:0.9688;"/><text fill="#1E90FF" font-family="Arial" font-size="19.3764" font-weight="bold" lengthAdjust="spacing" textLength="614.2702" x="38.7528" y="64.3102">Diagrama de Sequ&#234;ncia - M&#243;dulo de Controle (MC) - Emerg&#234;ncia</text><!--SRC=[VP1DIiH048NtVOfofmCZ_knS299458mBXpb0JLB6WavNx9z1lOsu4DnwX5pCocGcCY3kcgxttbVr3jXLDjK4UN6zEEvIQut150Mho6kC1EACliN3CgJ-tREOtGFcbr1cIxY0guh58GYi9FOV0XhNeSSQpPEJ8MDD7eeGYJsg_8wROJPufuYSGoU15Rgnj-XavIVDhpUdODKEDFxy3TYAbE4f9k_WAYQq_3QiM2l8uki-lMXPKm8xj134YHSWiAbb9q4cgJWUYb2vMpD2ZRM4pQ4QUtjJcfr0jLD7AdxXbMP7Z2cev__DItGfaki_jSRzeYVu0w5ljM2o8_M_YesbXbmDKJe3irdEs7XiSMXuGS-f_tAL7ZA7il-kazqqducBNYp1OPaTwQXeoJUZS3OpGzYOQSoZADWROq2ZCmnQXlgNGQ2I5VaeuK8TC4oLaCrFJixr0-xwxuQhxGvDygZN8XpUFynFpuusW34Om9WV]--></g></svg>