<svg xmlns="http://www.w3.org/2000/svg" xmlns:xlink="http://www.w3.org/1999/xlink" contentStyleType="text/css" data-diagram-type="DESCRIPTION" height="1220.6425px" preserveAspectRatio="none" style="width:960px;height:1220px;background:#FFFFFF;" version="1.1" viewBox="0 0 960 1220" width="960.9948px" zoomAndPan="magnify"><title>Edge - Event Stream e Interconexoes</title><defs/><g><g class="title" data-source-line="2"><text fill="#000000" font-family="sans-serif" font-size="13.9275" font-weight="bold" lengthAdjust="spacing" textLength="254.1473" x="346.46" y="24.8366">Edge - Event Stream e Interconexoes</text></g><!--cluster Entradas--><g class="cluster" data-entity="Entradas" data-source-line="28" data-uid="ent0002" id="cluster_Entradas"><rect fill="#FBFCFE" height="300.4352" rx="2.487" ry="2.487" style="stroke:#8FA3BF;stroke-width:0.9948;" width="187.0259" x="31.8342" y="46.824"/><text fill="#1F2A44" font-family="sans-serif" font-size="13.9275" font-weight="bold" lengthAdjust="spacing" textLength="61.8795" x="94.4074" y="63.7021">Entradas</text></g><!--cluster Nucleo Edge--><g class="cluster" data-entity="Nucleo Edge" data-source-line="34" data-uid="ent0006" id="cluster_Nucleo Edge"><rect fill="#FBFCFE" height="540.6839" rx="2.487" ry="2.487" style="stroke:#8FA3BF;stroke-width:0.9948;" width="507.3575" x="242.7358" y="235.8396"/><text fill="#1F2A44" font-family="sans-serif" font-size="13.9275" font-weight="bold" lengthAdjust="spacing" textLength="86.0157" x="453.4067" y="252.7176">Nucleo Edge</text></g><!--cluster Saidas--><g class="cluster" data-entity="Saidas" data-source-line="50" data-uid="ent0018" id="cluster_Saidas"><rect fill="#FBFCFE" height="424.2902" rx="2.487" ry="2.487" style="stroke:#8FA3BF;stroke-width:0.9948;" width="181.057" x="773.9689" y="674.5546"/><text fill="#1F2A44" font-family="sans-serif" font-size="13.9275" font-weight="bold" lengthAdjust="spacing" textLength="44.4841" x="842.2553" y="691.4326">Saidas</text></g><!--entity camera--><g class="entity" data-entity="camera" data-source-line="29" data-uid="ent0003" id="entity_camera"><rect fill="#F7F9FC" height="57.8346" rx="2.487" ry="2.487" style="stroke:#355070;stroke-width:0.4974;" width="105.2853" x="90.5285" y="84.6272"/><text fill="#1F2A44" font-family="sans-serif" font-size="13.9275" lengthAdjust="spacing" textLength="59.86" x="113.2412" y="109.4637">Camera /</text><text fill="#1F2A44" font-family="sans-serif" font-size="13.9275" lengthAdjust="spacing" textLength="85.3889" x="100.4767" y="128.4328">Video Source</text></g><!--entity mqtt_in--><g class="entity" data-entity="mqtt_in" data-source-line="30" data-uid="ent0004" id="entity_mqtt_in"><rect fill="#F7F9FC" height="57.8346" rx="2.487" ry="2.487" style="stroke:#355070;stroke-width:0.4974;" width="132.012" x="70.1347" y="162.223"/><text fill="#1F2A44" font-family="sans-serif" font-size="13.9275" lengthAdjust="spacing" textLength="86.8931" x="92.6942" y="187.0596">MQTT Broker</text><text fill="#1F2A44" font-family="sans-serif" font-size="13.9275" lengthAdjust="spacing" textLength="112.1156" x="80.0829" y="206.0287">Topic: edge/cbelt</text></g><!--entity uart_in--><g class="entity" data-entity="uart_in" data-source-line="31" data-uid="ent0005" id="entity_uart_in"><rect fill="#F7F9FC" height="57.8346" rx="2.487" ry="2.487" style="stroke:#355070;stroke-width:0.4974;" width="153.9059" x="48.2487" y="273.6427"/><text fill="#1F2A44" font-family="sans-serif" font-size="13.9275" lengthAdjust="spacing" textLength="79.5255" x="85.4389" y="298.4793">MCU / UART</text><text fill="#1F2A44" font-family="sans-serif" font-size="13.9275" lengthAdjust="spacing" textLength="134.0095" x="58.1969" y="317.4484">telemetria e eventos</text></g><!--entity model_mgr--><g class="entity" data-entity="model_mgr" data-source-line="35" data-uid="ent0007" id="entity_model_mgr"><rect fill="#F7F9FC" height="57.8346" rx="2.487" ry="2.487" style="stroke:#355070;stroke-width:0.4974;" width="164.1983" x="465.0777" y="273.6427"/><text fill="#1F2A44" font-family="sans-serif" font-size="13.9275" lengthAdjust="spacing" textLength="100.1102" x="497.1217" y="298.4793">ModelManager</text><text fill="#1F2A44" font-family="sans-serif" font-size="13.9275" lengthAdjust="spacing" textLength="144.3019" x="475.0259" y="317.4484">carrega modelo YOLO</text></g><!--entity capture--><g class="entity" data-entity="capture" data-source-line="36" data-uid="ent0008" id="entity_capture"><rect fill="#F7F9FC" height="57.8346" rx="2.487" ry="2.487" style="stroke:#355070;stroke-width:0.4974;" width="146.399" x="587.4404" y="363.1764"/><text fill="#1F2A44" font-family="sans-serif" font-size="13.9275" lengthAdjust="spacing" textLength="93.3554" x="613.9622" y="388.013">CaptureWriter</text><text fill="#1F2A44" font-family="sans-serif" font-size="13.9275" lengthAdjust="spacing" textLength="126.5026" x="597.3886" y="406.9821">inferencia + stream</text></g><!--entity detection_q--><g class="entity" data-entity="detection_q" data-source-line="38" data-uid="ent0009" id="entity_detection_q"><path d="M609.8238,455.1971 L729.0882,455.1971 C734.0623,455.1971 734.0623,469.6558 734.0623,469.6558 C734.0623,469.6558 734.0623,484.1144 729.0882,484.1144 L609.8238,484.1144 C604.8497,484.1144 604.8497,469.6558 604.8497,469.6558 C604.8497,469.6558 604.8497,455.1971 609.8238,455.1971" fill="#F1F1F1" style="stroke:#181818;stroke-width:0.4974;"/><path d="M729.0882,455.1971 C724.1141,455.1971 724.1141,469.6558 724.1141,469.6558 C724.1141,484.1144 729.0882,484.1144 729.0882,484.1144" fill="none" style="stroke:#181818;stroke-width:0.4974;"/><text fill="#000000" font-family="sans-serif" font-size="13.9275" lengthAdjust="spacing" textLength="109.3162" x="609.8238" y="475.0596">detection_queue</text></g><!--entity aggregator--><g class="entity" data-entity="aggregator" data-source-line="39" data-uid="ent0010" id="entity_aggregator"><rect fill="#F7F9FC" height="57.8346" rx="2.487" ry="2.487" style="stroke:#355070;stroke-width:0.4974;" width="176.5936" x="522.2798" y="518.3681"/><text fill="#1F2A44" font-family="sans-serif" font-size="13.9275" lengthAdjust="spacing" textLength="106.0433" x="557.555" y="543.2047">DataAggregator</text><text fill="#1F2A44" font-family="sans-serif" font-size="13.9275" lengthAdjust="spacing" textLength="156.6973" x="532.228" y="562.1738">correlacao UART + visao</text></g><!--entity input_q--><g class="entity" data-entity="input_q" data-source-line="40" data-uid="ent0011" id="entity_input_q"><path d="M379.5233,377.6012 L471.5457,377.6012 C476.5198,377.6012 476.5198,392.0599 476.5198,392.0599 C476.5198,392.0599 476.5198,406.5185 471.5457,406.5185 L379.5233,406.5185 C374.5492,406.5185 374.5492,392.0599 374.5492,392.0599 C374.5492,392.0599 374.5492,377.6012 379.5233,377.6012" fill="#F1F1F1" style="stroke:#181818;stroke-width:0.4974;"/><path d="M471.5457,377.6012 C466.5716,377.6012 466.5716,392.0599 466.5716,392.0599 C466.5716,406.5185 471.5457,406.5185 471.5457,406.5185" fill="none" style="stroke:#181818;stroke-width:0.4974;"/><text fill="#000000" font-family="sans-serif" font-size="13.9275" lengthAdjust="spacing" textLength="82.0742" x="379.5233" y="397.4637">input_queue</text></g><!--entity consume_input--><g class="entity" data-entity="consume_input" data-source-line="41" data-uid="ent0012" id="entity_consume_input"><rect fill="#F7F9FC" height="38.8655" rx="2.487" ry="2.487" style="stroke:#355070;stroke-width:0.4974;" width="169.6299" x="414.342" y="450.223"/><text fill="#1F2A44" font-family="sans-serif" font-size="13.9275" lengthAdjust="spacing" textLength="149.7335" x="424.2902" y="475.0596">consume_input_events</text></g><!--entity output_q--><g class="entity" data-entity="output_q" data-source-line="42" data-uid="ent0013" id="entity_output_q"><path d="M590.9223,612.8759 L692.8053,612.8759 C697.7794,612.8759 697.7794,627.3345 697.7794,627.3345 C697.7794,627.3345 697.7794,641.7932 692.8053,641.7932 L590.9223,641.7932 C585.9482,641.7932 585.9482,627.3345 585.9482,627.3345 C585.9482,627.3345 585.9482,612.8759 590.9223,612.8759" fill="#F1F1F1" style="stroke:#181818;stroke-width:0.4974;"/><path d="M692.8053,612.8759 C687.8312,612.8759 687.8312,627.3345 687.8312,627.3345 C687.8312,641.7932 692.8053,641.7932 692.8053,641.7932" fill="none" style="stroke:#181818;stroke-width:0.4974;"/><text fill="#000000" font-family="sans-serif" font-size="13.9275" lengthAdjust="spacing" textLength="91.9348" x="590.9223" y="632.7383">output_queue</text></g><!--entity process_output--><g class="entity" data-entity="process_output" data-source-line="43" data-uid="ent0014" id="entity_process_output"><rect fill="#F7F9FC" height="38.8655" rx="2.487" ry="2.487" style="stroke:#355070;stroke-width:0.4974;" width="120.9676" x="612.8083" y="721.8085"/><text fill="#1F2A44" font-family="sans-serif" font-size="13.9275" lengthAdjust="spacing" textLength="101.0712" x="622.7565" y="746.6451">process_output</text></g><!--entity mqtt_sub--><g class="entity" data-entity="mqtt_sub" data-source-line="45" data-uid="ent0015" id="entity_mqtt_sub"><rect fill="#F7F9FC" height="57.8346" rx="2.487" ry="2.487" style="stroke:#355070;stroke-width:0.4974;" width="156.9003" x="273.5751" y="273.6427"/><text fill="#1F2A44" font-family="sans-serif" font-size="13.9275" lengthAdjust="spacing" textLength="120.11" x="291.9703" y="298.4793">PubSubSubscriber</text><text fill="#1F2A44" font-family="sans-serif" font-size="13.9275" lengthAdjust="spacing" textLength="137.0039" x="283.5233" y="317.4484">normaliza comandos</text></g><!--entity uart_sub--><g class="entity" data-entity="uart_sub" data-source-line="46" data-uid="ent0016" id="entity_uart_sub"><rect fill="#F7F9FC" height="57.8346" rx="2.487" ry="2.487" style="stroke:#355070;stroke-width:0.4974;" width="135.271" x="258.6528" y="440.7722"/><text fill="#1F2A44" font-family="sans-serif" font-size="13.9275" lengthAdjust="spacing" textLength="105.1798" x="273.6985" y="465.6088">UARTSubscriber</text><text fill="#1F2A44" font-family="sans-serif" font-size="13.9275" lengthAdjust="spacing" textLength="115.3747" x="268.601" y="484.5779">interpreta frames</text></g><!--entity uart_pub--><g class="entity" data-entity="uart_pub" data-source-line="47" data-uid="ent0017" id="entity_uart_pub"><rect fill="#F7F9FC" height="57.8346" rx="2.487" ry="2.487" style="stroke:#355070;stroke-width:0.4974;" width="139.1568" x="328.2902" y="518.3681"/><text fill="#1F2A44" font-family="sans-serif" font-size="13.9275" lengthAdjust="spacing" textLength="97.1576" x="349.2897" y="543.2047">UARTPublisher</text><text fill="#1F2A44" font-family="sans-serif" font-size="13.9275" lengthAdjust="spacing" textLength="119.2604" x="338.2383" y="562.1738">publica comandos</text></g><!--entity stream_out--><g class="entity" data-entity="stream_out" data-source-line="51" data-uid="ent0019" id="entity_stream_out"><rect fill="#F7F9FC" height="57.8346" rx="2.487" ry="2.487" style="stroke:#355070;stroke-width:0.4974;" width="130.7725" x="794.3627" y="712.3577"/><text fill="#1F2A44" font-family="sans-serif" font-size="13.9275" lengthAdjust="spacing" textLength="84.9711" x="817.2634" y="737.1943">HTTP Stream</text><text fill="#1F2A44" font-family="sans-serif" font-size="13.9275" lengthAdjust="spacing" textLength="110.8761" x="804.3109" y="756.1634">frames anotados</text></g><!--entity mqtt_metrics--><g class="entity" data-entity="mqtt_metrics" data-source-line="52" data-uid="ent0020" id="entity_mqtt_metrics"><rect fill="#F7F9FC" height="57.8346" rx="2.487" ry="2.487" style="stroke:#355070;stroke-width:0.4974;" width="149.3656" x="789.886" y="792.4406"/><text fill="#1F2A44" font-family="sans-serif" font-size="13.9275" lengthAdjust="spacing" textLength="86.8931" x="821.1223" y="817.2772">MQTT Broker</text><text fill="#1F2A44" font-family="sans-serif" font-size="13.9275" lengthAdjust="spacing" textLength="129.4692" x="799.8342" y="836.2463">aggregated-metrics</text></g><!--entity mqtt_count--><g class="entity" data-entity="mqtt_count" data-source-line="53" data-uid="ent0021" id="entity_mqtt_count"><rect fill="#F7F9FC" height="57.8346" rx="2.487" ry="2.487" style="stroke:#355070;stroke-width:0.4974;" width="106.7895" x="792.3731" y="870.0365"/><text fill="#1F2A44" font-family="sans-serif" font-size="13.9275" lengthAdjust="spacing" textLength="86.8931" x="802.3212" y="894.8731">MQTT Broker</text><text fill="#1F2A44" font-family="sans-serif" font-size="13.9275" lengthAdjust="spacing" textLength="37.3533" x="827.0911" y="913.8422">count</text></g><!--entity mqtt_status--><g class="entity" data-entity="mqtt_status" data-source-line="54" data-uid="ent0022" id="entity_mqtt_status"><rect fill="#F7F9FC" height="57.8346" rx="2.487" ry="2.487" style="stroke:#355070;stroke-width:0.4974;" width="106.7895" x="792.3731" y="947.6323"/><text fill="#1F2A44" font-family="sans-serif" font-size="13.9275" lengthAdjust="spacing" textLength="86.8931" x="802.3212" y="972.4689">MQTT Broker</text><text fill="#1F2A44" font-family="sans-serif" font-size="13.9275" lengthAdjust="spacing" textLength="76.7261" x="807.4047" y="991.438">cbelt/status</text></g><!--entity actuator_out--><g class="entity" data-entity="actuator_out" data-source-line="55" data-uid="ent0023" id="entity_actuator_out"><rect fill="#F7F9FC" height="57.8346" rx="2.487" ry="2.487" style="stroke:#355070;stroke-width:0.4974;" width="117.0261" x="789.886" y="1025.2282"/><text fill="#1F2A44" font-family="sans-serif" font-size="13.9275" lengthAdjust="spacing" textLength="97.1298" x="799.8342" y="1050.0648">MCU / Atuador</text><text fill="#1F2A44" font-family="sans-serif" font-size="13.9275" lengthAdjust="spacing" textLength="44.5677" x="826.1152" y="1069.0339">esteira</text></g><g class="entity" data-entity="GMN47" data-source-line="88" data-uid="ent0048" id="entity_GMN47"><path d="M5.9689,595.9639 L5.9689,658.755 L227.2516,658.755 L227.2516,605.9121 L217.3034,595.9639 L5.9689,595.9639" fill="#FFF7DB" style="stroke:#D6B656;stroke-width:0.4974;"/><path d="M217.3034,595.9639 L217.3034,605.9121 L227.2516,605.9121 L217.3034,595.9639" fill="#FFF7DB" style="stroke:#D6B656;stroke-width:0.9948;"/><text fill="#000000" font-family="sans-serif" font-size="12.9326" lengthAdjust="spacing" textLength="147.29" x="38.4886" y="614.763">Centro do event stream:</text><text fill="#000000" font-family="sans-serif" font-size="12.9326" lengthAdjust="spacing" textLength="184.342" x="19.9625" y="632.3773">combina deteccoes da camera</text><text fill="#000000" font-family="sans-serif" font-size="12.9326" lengthAdjust="spacing" textLength="200.3915" x="11.9378" y="649.9916">com eventos recebidos via UART.</text></g><!--link camera to capture--><g class="link" data-entity-1="camera" data-entity-2="capture" data-source-line="58" data-uid="lnk24" id="link_camera_capture"><path d="M196.3275,113.9743 C332.1103,113.9743 681.4508,113.9743 681.4508,113.9743 C681.4508,113.9743 681.4508,285.869 681.4508,357.0881" fill="none" id="camera-to-capture" style="stroke:#4E5B6E;stroke-width:0.9948;"/><polygon fill="#4E5B6E" points="681.4508,363.057,685.4301,354.1036,681.4508,358.0829,677.4715,354.1036,681.4508,363.057" style="stroke:#4E5B6E;stroke-width:0.9948;"/></g><!--link model_mgr to capture--><g class="link" data-entity-1="model_mgr" data-entity-2="capture" data-source-line="59" data-uid="lnk25" id="link_model_mgr_capture"><path d="M608.3316,331.8097 C608.3316,341.8077 608.3316,347.0006 608.3316,356.9787" fill="none" id="model_mgr-to-capture" style="stroke:#4E5B6E;stroke-width:0.9948;stroke-dasharray:6.9637,6.9637;"/><polygon fill="#4E5B6E" points="608.3316,362.9476,612.3109,353.9942,608.3316,357.9735,604.3523,353.9942,608.3316,362.9476" style="stroke:#4E5B6E;stroke-width:0.9948;"/><text fill="#000000" font-family="sans-serif" font-size="12.9326" lengthAdjust="spacing" textLength="92.6366" x="514.8187" y="362.1985">modelo default</text></g><!--link capture to detection_q--><g class="link" data-entity-1="capture" data-entity-2="detection_q" data-source-line="60" data-uid="lnk26" id="link_capture_detection_q"><path d="M669.2642,420.9156 C669.2642,432.4655 669.2642,439.2999 669.2642,448.88" fill="none" id="capture-to-detection_q" style="stroke:#4E5B6E;stroke-width:0.9948;"/><polygon fill="#4E5B6E" points="669.2642,454.8489,673.2435,445.8955,669.2642,449.8748,665.285,445.8955,669.2642,454.8489" style="stroke:#4E5B6E;stroke-width:0.9948;"/><text fill="#000000" font-family="sans-serif" font-size="12.9326" lengthAdjust="spacing" textLength="63.4347" x="605.5959" y="452.7071">detections</text></g><!--link capture to stream_out--><g class="link" data-entity-1="capture" data-entity-2="stream_out" data-source-line="61" data-uid="lnk27" id="link_capture_stream_out"><path d="M733.7981,392.5235 C790.5326,392.5235 859.5233,392.5235 859.5233,392.5235 C859.5233,392.5235 859.5233,622.3067 859.5233,706.1103" fill="none" id="capture-to-stream_out" style="stroke:#4E5B6E;stroke-width:0.9948;"/><polygon fill="#4E5B6E" points="859.5233,712.0792,863.5026,703.1258,859.5233,707.1051,855.544,703.1258,859.5233,712.0792" style="stroke:#4E5B6E;stroke-width:0.9948;"/><text fill="#000000" font-family="sans-serif" font-size="12.9326" lengthAdjust="spacing" textLength="27.9604" x="830.6736" y="485.357">JPEG</text></g><!--link mqtt_in to mqtt_sub--><g class="link" data-entity-1="mqtt_in" data-entity-2="mqtt_sub" data-source-line="63" data-uid="lnk28" id="link_mqtt_in_mqtt_sub"><path d="M202.5252,191.5702 C265.9847,191.5702 352.1658,191.5702 352.1658,191.5702 C352.1658,191.5702 352.1658,234.805 352.1658,267.6738" fill="none" id="mqtt_in-to-mqtt_sub" style="stroke:#4E5B6E;stroke-width:0.9948;"/><polygon fill="#4E5B6E" points="352.1658,273.6427,356.1451,264.6893,352.1658,268.6686,348.1865,264.6893,352.1658,273.6427" style="stroke:#4E5B6E;stroke-width:0.9948;"/></g><!--link mqtt_sub to input_q--><g class="link" data-entity-1="mqtt_sub" data-entity-2="input_q" data-source-line="64" data-uid="lnk29" id="link_mqtt_sub_input_q"><path d="M402.6528,331.8097 C402.6528,347.1101 402.6528,359.1872 402.6528,371.503" fill="none" id="mqtt_sub-to-input_q" style="stroke:#4E5B6E;stroke-width:0.9948;"/><polygon fill="#4E5B6E" points="402.6528,377.4719,406.6321,368.5185,402.6528,372.4978,398.6736,368.5185,402.6528,377.4719" style="stroke:#4E5B6E;stroke-width:0.9948;"/><text fill="#000000" font-family="sans-serif" font-size="12.9326" lengthAdjust="spacing" textLength="121.2953" x="281.285" y="350.5591">evento normalizado</text></g><!--link input_q to consume_input--><g class="link" data-entity-1="input_q" data-entity-2="consume_input" data-source-line="65" data-uid="lnk30" id="link_input_q_consume_input"><path d="M445.6788,406.6201 C445.6788,418.9161 445.6788,430.635 445.6788,444.1447" fill="none" id="input_q-to-consume_input" style="stroke:#4E5B6E;stroke-width:0.9948;"/><polygon fill="#4E5B6E" points="445.6788,450.1136,449.658,441.1602,445.6788,445.1395,441.6995,441.1602,445.6788,450.1136" style="stroke:#4E5B6E;stroke-width:0.9948;"/></g><!--link consume_input to uart_pub--><g class="link" data-entity-1="consume_input" data-entity-2="uart_pub" data-source-line="66" data-uid="lnk31" id="link_consume_input_uart_pub"><path d="M440.9534,489.2 C440.9534,498.0041 440.9534,502.6002 440.9534,512.2897" fill="none" id="consume_input-to-uart_pub" style="stroke:#4E5B6E;stroke-width:0.9948;"/><polygon fill="#4E5B6E" points="440.9534,518.2587,444.9326,509.3053,440.9534,513.2846,436.9741,509.3053,440.9534,518.2587" style="stroke:#4E5B6E;stroke-width:0.9948;"/><text fill="#000000" font-family="sans-serif" font-size="12.9326" lengthAdjust="spacing" textLength="93.4643" x="418.3212" y="518.5442">comando UART</text></g><!--link uart_pub to actuator_out--><g class="link" data-entity-1="uart_pub" data-entity-2="actuator_out" data-source-line="67" data-uid="lnk32" id="link_uart_pub_actuator_out"><path d="M397.9275,576.2864 C397.9275,683.9954 397.9275,1054.0779 397.9275,1054.0779 C397.9275,1054.0779 661.5445,1054.0779 783.6982,1054.0779" fill="none" id="uart_pub-to-actuator_out" style="stroke:#4E5B6E;stroke-width:0.9948;"/><polygon fill="#4E5B6E" points="789.6672,1054.0779,780.7138,1050.0987,784.6931,1054.0779,780.7138,1058.0572,789.6672,1054.0779" style="stroke:#4E5B6E;stroke-width:0.9948;"/></g><!--link uart_in to uart_sub--><g class="link" data-entity-1="uart_in" data-entity-2="uart_sub" data-source-line="69" data-uid="lnk33" id="link_uart_in_uart_sub"><path d="M202.7341,302.9898 C235.4437,302.9898 266.114,302.9898 266.114,302.9898 C266.114,302.9898 266.114,386.8829 266.114,434.6242" fill="none" id="uart_in-to-uart_sub" style="stroke:#4E5B6E;stroke-width:0.9948;"/><polygon fill="#4E5B6E" points="266.114,440.5932,270.0933,431.6398,266.114,435.6191,262.1347,431.6398,266.114,440.5932" style="stroke:#4E5B6E;stroke-width:0.9948;"/></g><!--link uart_sub to aggregator--><g class="link" data-entity-1="uart_sub" data-entity-2="aggregator" data-source-line="70" data-uid="lnk34" id="link_uart_sub_aggregator"><path d="M394.1173,493.995 C461.0288,493.995 553.3679,493.995 553.3679,493.995 C553.3679,493.995 553.3679,499.7252 553.3679,512.1505" fill="none" id="uart_sub-to-aggregator" style="stroke:#4E5B6E;stroke-width:0.9948;"/><polygon fill="#4E5B6E" points="553.3679,518.1194,557.3472,509.166,553.3679,513.1453,549.3886,509.166,553.3679,518.1194" style="stroke:#4E5B6E;stroke-width:0.9948;"/><text fill="#000000" font-family="sans-serif" font-size="12.9326" lengthAdjust="spacing" textLength="77.958" x="486.7946" y="508.8149">evento UART</text></g><!--link detection_q to aggregator--><g class="link" data-entity-1="detection_q" data-entity-2="aggregator" data-source-line="72" data-uid="lnk35" id="link_detection_q_aggregator"><path d="M652.1036,484.216 C652.1036,493.7861 652.1036,500.6603 652.1036,512.2499" fill="none" id="detection_q-to-aggregator" style="stroke:#4E5B6E;stroke-width:0.9948;"/><polygon fill="#4E5B6E" points="652.1036,518.2189,656.0829,509.2655,652.1036,513.2448,648.1244,509.2655,652.1036,518.2189" style="stroke:#4E5B6E;stroke-width:0.9948;"/><text fill="#000000" font-family="sans-serif" font-size="12.9326" lengthAdjust="spacing" textLength="116.5879" x="653.0984" y="497.1357">deteccoes recentes</text></g><!--link aggregator to output_q--><g class="link" data-entity-1="aggregator" data-entity-2="output_q" data-source-line="73" data-uid="lnk36" id="link_aggregator_output_q"><path d="M641.658,576.1273 C641.658,588.4928 641.658,596.4315 641.658,606.6184" fill="none" id="aggregator-to-output_q" style="stroke:#4E5B6E;stroke-width:0.9948;"/><polygon fill="#4E5B6E" points="641.658,612.5874,645.6373,603.634,641.658,607.6133,637.6788,603.634,641.658,612.5874" style="stroke:#4E5B6E;stroke-width:0.9948;"/><text fill="#000000" font-family="sans-serif" font-size="12.9326" lengthAdjust="spacing" textLength="103.8363" x="537.2021" y="609.1821">evento agregado</text></g><!--link output_q to process_output--><g class="link" data-entity-1="output_q" data-entity-2="process_output" data-source-line="74" data-uid="lnk37" id="link_output_q_process_output"><path d="M655.0881,641.7256 C655.0881,661.9602 655.0881,692.8692 655.0881,715.5909" fill="none" id="output_q-to-process_output" style="stroke:#4E5B6E;stroke-width:0.9948;"/><polygon fill="#4E5B6E" points="655.0881,721.5598,659.0674,712.6064,655.0881,716.5857,651.1088,712.6064,655.0881,721.5598" style="stroke:#4E5B6E;stroke-width:0.9948;"/></g><!--link process_output to mqtt_metrics--><g class="link" data-entity-1="process_output" data-entity-2="mqtt_metrics" data-source-line="76" data-uid="lnk38" id="link_process_output_mqtt_metrics"><path d="M703.8342,761.0044 C703.8342,784.7208 703.8342,821.2904 703.8342,821.2904 C703.8342,821.2904 741.886,821.2904 783.8375,821.2904" fill="none" id="process_output-to-mqtt_metrics" style="stroke:#4E5B6E;stroke-width:0.9948;"/><polygon fill="#4E5B6E" points="789.8064,821.2904,780.8531,817.3111,784.8323,821.2904,780.8531,825.2696,789.8064,821.2904" style="stroke:#4E5B6E;stroke-width:0.9948;"/><text fill="#000000" font-family="sans-serif" font-size="12.9326" lengthAdjust="spacing" textLength="52.3902" x="663.9519" y="817.2086">metricas</text></g><!--link process_output to mqtt_count--><g class="link" data-entity-1="process_output" data-entity-2="mqtt_count" data-source-line="77" data-uid="lnk39" id="link_process_output_mqtt_count"><path d="M673.4922,760.8551 C673.4922,803.125 673.4922,898.8862 673.4922,898.8862 C673.4922,898.8862 735.5988,898.8862 786.1156,898.8862" fill="none" id="process_output-to-mqtt_count" style="stroke:#4E5B6E;stroke-width:0.9948;"/><polygon fill="#4E5B6E" points="792.0846,898.8862,783.1312,894.9069,787.1105,898.8862,783.1312,902.8655,792.0846,898.8862" style="stroke:#4E5B6E;stroke-width:0.9948;"/><text fill="#000000" font-family="sans-serif" font-size="12.9326" lengthAdjust="spacing" textLength="100.3962" x="573.0155" y="885.0851">classe detectada</text></g><!--link process_output to mqtt_status--><g class="link" data-entity-1="process_output" data-entity-2="mqtt_status" data-source-line="78" data-uid="lnk40" id="link_process_output_mqtt_status"><path d="M643.1503,760.8651 C643.1503,817.4106 643.1503,976.4821 643.1503,976.4821 C643.1503,976.4821 726.1977,976.4821 786.1753,976.4821" fill="none" id="process_output-to-mqtt_status" style="stroke:#4E5B6E;stroke-width:0.9948;"/><polygon fill="#4E5B6E" points="792.1442,976.4821,783.1909,972.5028,787.1702,976.4821,783.1909,980.4613,792.1442,976.4821" style="stroke:#4E5B6E;stroke-width:0.9948;"/><text fill="#000000" font-family="sans-serif" font-size="12.9326" lengthAdjust="spacing" textLength="120.5711" x="521.7824" y="939.0839">status / emergencia</text></g><!--link camera to mqtt_in--><!--link mqtt_in to uart_in--><!--link stream_out to mqtt_metrics--><!--link mqtt_metrics to mqtt_count--><!--link mqtt_count to mqtt_status--><!--link mqtt_status to actuator_out--><!--link aggregator to GMN47--><g class="link" data-entity-1="aggregator" data-entity-2="GMN47" data-source-line="88" data-uid="lnk49" id="link_aggregator_GMN47"><path d="M554.114,576.1571 C554.114,590.3432 554.114,604.4199 554.114,604.4199 C554.114,604.4199 356.5231,604.4199 226.8485,604.4199" fill="none" id="aggregator-GMN47" style="stroke:#4E5B6E;stroke-width:0.9948;stroke-dasharray:6.9637,6.9637;"/></g><g class="legend" data-source-line="93"><rect fill="none" height="85.8247" rx="7.4611" ry="7.4611" style="stroke:#000000;stroke-width:0.9948;" width="483.9535" x="231.5569" y="1115.7567"/><text fill="#000000" font-family="sans-serif" font-size="13.9275" lengthAdjust="spacing" textLength="99.3442" x="423.8616" y="1135.6192">Fluxo principal:</text><text fill="#000000" font-family="sans-serif" font-size="13.9275" lengthAdjust="spacing" textLength="474.0053" x="236.531" y="1154.5883">camera -&gt; detection_queue -&gt; DataAggregator -&gt; output_queue -&gt; MQTT</text><text fill="#000000" font-family="sans-serif" font-size="13.9275" lengthAdjust="spacing" textLength="124.1628" x="411.4523" y="1173.5574">Fluxo de comando:</text><text fill="#000000" font-family="sans-serif" font-size="13.9275" lengthAdjust="spacing" textLength="308.9237" x="319.0718" y="1192.5265">MQTT -&gt; input_queue -&gt; UARTPublisher -&gt; MCU</text></g><!--SRC=[VLRRRXit47tdLn3EO-7AJdnf_510ahMze4wSI6vHn84nuevNX7V93ScDdHJvzmwvDrAI3UXXoJbpuV2SePnq9V95NY0_v8klg1nVEeDGSUH_A8T6Q8LF6YrZJjVSQRxMpkcAvzAWS58hPX-agi6GYzr0hX-bAlWzb1OZIoaLkcyrSctSHaU67E-XATqAdzoqb8MgV0K2VUO8jGRnK1ZTg7okIstuuqQwE7nDTYXmwRxHONnTe8eo1aoDqO-jxwkJnUdiRB5jN6saU51eBJ-EJ1_xM3DjSZHTX3UdfqVdHtjXMuM-oiwpjzby7pJJodMWu-przEJaET1IVaT-79kls-CcDVsIJT_CiZsWdOfcsJnRx09VgYU2jDMSHiPtskt9acNdbxDjL5pmvTdixFICHH2bSxHOyzTnQmseXswJMG5qlnKyyRTdH_nHvcx3M7Vt_62Xd84Sx07_Z_6H1VnW3XKQu9DRzRVCKVEbRep00mwMYs1AuLSVLYi-C_e1pQrQwLgA2uuaa8bOO-c2M_N5kJkfjlpcDtp2RwOVLxT4tn8hT4O2wGYzhBGDdWsOuFaZAlnT8qegoujmf_Ohwabv1Og0L8q0Ox00NlbTpVzz_zVxjXw_lgiAittmsZK6_p6a5lAMwXuDAa55_SHjK7dNX01ZvFobmOOSStIjkE_2Ha15UscMIt0mBGfVcDE-I4r5bY10XsPGhg_IWWv1OC2DoUYc6nSbwjPf4Xf3jgdmhZM6ZhODJGnZKDsuD6g_aOQjZHQa-RlM6e3f5alnryrw6NvM6BdsJLNQL53Axq2LLA3oxfu3GsopJjrzFs9dwUTSRT01loUoOyIHlRwKlfHsurrh_ocsiWPFiYJqMeBSfuhVLwlhRjRVgZOx1wKTzC5QXlW-lA2F_a8nFmny5z7nkuqNl0LDZ4XHOVaIt0jmOXsu9kvoME_JujGrT1foHEjG6cWfA6YN21WEHdrgHm0_FFnr4C8W9txuYLgtmVppQEKNlVowjulr1XyYKWa1XvLDG6Dd2VFdzU8tnhg94im3T_gFiDl9WZpQUS87vkMQzSPmYaGHoIhOUv9Gf8uyGQTisFUWf4kicrgZkw-k_sZnWx370aDK5dTa1ncCWlvU-ClphxvbaTt3UzsEOI7OwT23oUEsPPkknxvsfFIt6Bx0FWiDTFHTAi5Qx2wJNfXd7LecaaVtCU7q29WYZDoHQ9ysCizHVUwzw3KORZ-ozIz5H9OTrrvXoSbsKAsieYFj83e9nOU8CIaPQ4PW_ozGtwSZVKutP4WPkhsiZkaNP26ghQM2wCPp69zVilRFP632Mj8KedS30eb-PgXoxlCoLcBX5sr-yipAvadJxKjgSWrbIDKrEb5ZU1PeAtsjUCIm7k57pX0unruaFdAOHgCMUuzaD8SGyvjGSbii-ny0]--></g></svg>