<svg xmlns="http://www.w3.org/2000/svg" xmlns:xlink="http://www.w3.org/1999/xlink" contentStyleType="text/css" data-diagram-type="SEQUENCE" height="750.205px" preserveAspectRatio="none" style="width:681px;height:750px;background:#EEEBDC;" version="1.1" viewBox="0 0 681 750" width="681.7522px" zoomAndPan="magnify"><defs/><g><rect fill="#EEEBDC" height="750.205" style="stroke:none;stroke-width:0.925;" width="681.7522" x="0" y="0"/><rect fill="#FFFFCC" height="24.6436" rx="2.3126" ry="2.3126" style="stroke:#FFDD88;stroke-width:2.7751;" width="671.6135" x="4.6252" y="4.6252"/><text fill="#000000" font-family="monospace" font-size="9.2504" lengthAdjust="spacing" textLength="328.5823" x="9.2504" y="18.5007">Please&#160;use&#160;'!option&#160;handwritten&#160;true'&#160;to&#160;enable&#160;handwritten</text><g><title>Usu.rio</title><polygon fill="#A9DCDF" points="96.3324,513.7551,96.3324,513.8199,98.1825,513.6273,100.0326,513.8147,101.8827,513.8783,103.7327,513.5351,105.5828,513.7551,105.5109,513.7551,105.1883,523.1836,105.2281,532.612,105.5198,542.0405,104.9433,551.469,106.0949,560.8975,104.9998,570.326,105.3999,579.7545,105.9824,589.183,105.5035,598.6114,105.6459,608.0399,105.5828,617.4684,105.5828,617.4586,103.7327,617.5235,101.8827,617.5421,100.0326,617.649,98.1825,617.6753,96.3324,617.4684,96.9608,617.4684,96.568,608.0399,96.7613,598.6114,96.982,589.183,95.6653,579.7545,96.9601,570.326,96.0582,560.8975,96.8262,551.469,95.8745,542.0405,96.2691,532.612,97.0185,523.1836,96.3324,513.7551" style="stroke:#181818;stroke-width:0.925;"/></g><g><title>MCU</title><polygon fill="#A9DCDF" points="263.5367,247.6699,263.5367,247.7347,265.3868,247.5422,267.2368,247.7295,269.0869,247.7932,270.937,247.4499,272.7871,247.6699,272.7152,247.6699,272.3925,256.9149,272.4323,266.1598,272.724,275.4048,272.1475,284.6498,273.2992,293.8947,272.204,303.1397,272.6041,312.3847,273.1866,321.6296,272.7077,330.8746,272.8502,340.1195,272.7575,349.3645,272.9522,358.6095,273.0083,367.8544,273.3288,377.0994,273.4078,386.3444,273.4154,395.5893,273.0226,404.8343,273.2159,414.0792,273.4366,423.3242,272.1199,432.5692,273.4147,441.8141,272.5128,451.0591,273.2808,460.3041,272.3291,469.549,272.7237,478.794,273.4731,488.0389,272.742,497.2839,272.8845,506.5289,273.1003,515.7738,273.1721,525.0188,272.7834,534.2638,273.0527,543.5087,272.2575,552.7537,273.0501,561.9986,273.2942,571.2436,273.1983,580.4886,273.3541,589.7335,272.3402,598.9785,272.1838,608.2234,272.7871,617.4684,272.7871,617.2768,270.937,617.4503,269.0869,617.4078,267.2368,617.6785,265.3868,617.4146,263.5367,617.4684,263.2193,617.4684,263.7478,608.2234,262.9198,598.9785,263.0565,589.7335,264.137,580.4886,263.9397,571.2436,264.2161,561.9986,263.239,552.7537,263.8319,543.5087,264.0828,534.2638,263.0997,525.0188,263.448,515.7738,263.6532,506.5289,264.1396,497.2839,263.5328,488.0389,263.9646,478.794,263.0244,469.549,262.9102,460.3041,264.0025,451.0591,262.8735,441.8141,264.0075,432.5692,263.7278,423.3242,263.2888,414.0792,263.2094,404.8343,263.9611,395.5893,263.2598,386.3444,264.0842,377.0994,263.0254,367.8544,264.1078,358.6095,263.9847,349.3645,263.7633,340.1195,263.5804,330.8746,264.2088,321.6296,264.1043,312.3847,263.6932,303.1397,263.7848,293.8947,263.4162,284.6498,264.1994,275.4048,263.6799,266.1598,263.6963,256.9149,263.5367,247.6699" style="stroke:#181818;stroke-width:0.925;"/></g><g><title>MCU</title><polygon fill="#A9DCDF" points="268.1619,317.4288,268.1619,317.4936,270.0119,317.3011,271.862,317.4884,273.7121,317.5521,275.5622,317.2089,277.4122,317.4288,277.3403,317.4288,277.0177,326.8051,277.0575,336.1813,277.3492,345.5575,276.7727,354.9338,277.9244,364.31,276.8292,373.6863,277.2293,383.0625,277.8118,392.4387,277.3329,401.815,277.4754,411.1912,277.3827,420.5674,277.5774,429.9437,277.6334,439.3199,277.954,448.6961,278.033,458.0724,278.0406,467.4486,277.6478,476.8249,277.8411,486.2011,278.0618,495.5773,276.7451,504.9536,278.0399,514.3298,277.138,523.706,277.906,533.0823,276.9543,542.4585,277.3489,551.8348,278.0982,561.211,277.3672,570.5872,277.5096,579.9635,277.7255,589.3397,277.7973,598.7159,277.4086,608.0922,277.4122,617.4684,277.4122,617.557,275.5622,617.2919,273.7121,617.5561,271.862,617.6374,270.0119,617.6055,268.1619,617.4684,268.7289,617.4684,267.715,608.0922,267.5586,598.7159,267.587,589.3397,268.1074,579.9635,267.9801,570.5872,268.7922,561.211,268.0003,551.8348,267.8445,542.4585,268.373,533.0823,267.545,523.706,267.6817,514.3298,268.7622,504.9536,268.5649,495.5773,268.8413,486.2011,267.8642,476.8249,268.4571,467.4486,268.708,458.0724,267.7249,448.6961,268.0732,439.3199,268.2784,429.9437,268.7648,420.5674,268.158,411.1912,268.5898,401.815,267.6496,392.4387,267.5354,383.0625,268.6277,373.6863,267.4987,364.31,268.6327,354.9338,268.353,345.5575,267.914,336.1813,267.8346,326.8051,268.1619,317.4288" style="stroke:#181818;stroke-width:0.925;"/></g><g><title>MCU</title><polygon fill="#A9DCDF" points="272.7871,450.4714,272.7871,450.5362,274.6371,450.3437,276.4872,450.531,278.3373,450.5947,280.1873,450.2514,282.0374,450.4714,281.9655,450.4714,281.6429,459.749,281.6827,469.0266,281.9744,478.3042,281.3979,487.5819,282.5496,496.8595,281.4544,506.1371,281.8545,515.4147,282.437,524.6923,281.9581,533.9699,282.1005,543.2475,282.0079,552.5251,282.2026,561.8027,282.2586,571.0804,282.5792,580.358,282.6582,589.6356,282.6658,598.9132,282.273,608.1908,282.0374,617.4684,282.0374,617.6114,280.1873,617.6849,278.3373,617.246,276.4872,617.6776,274.6371,617.377,272.7871,617.4684,273.2808,617.4684,272.3291,608.1908,272.7237,598.9132,273.4731,589.6356,272.742,580.358,272.8845,571.0804,273.1003,561.8027,273.1721,552.5251,272.7834,543.2475,273.0527,533.9699,272.2575,524.6923,273.0501,515.4147,273.2942,506.1371,273.1983,496.8595,273.3541,487.5819,272.3402,478.3042,272.1838,469.0266,272.2122,459.749,272.7871,450.4714" style="stroke:#181818;stroke-width:0.925;"/></g><g><title>Esteira</title><polygon fill="#A9DCDF" points="474.4351,351.3833,474.4351,351.4481,476.2852,351.2555,478.1352,351.4429,479.9853,351.5065,481.8354,351.1633,483.6855,351.3833,483.6136,351.3833,483.2909,360.2916,483.3307,369.2,483.6224,378.1084,483.0459,387.0168,484.1976,395.9251,483.1024,404.8335,483.6855,413.7419,483.6855,413.6809,481.8354,413.8751,479.9853,413.7154,478.1352,413.7629,476.2852,413.732,474.4351,413.7419,474.6002,413.7419,474.6563,404.8335,474.9769,395.9251,475.0559,387.0168,475.0634,378.1084,474.6706,369.2,474.8639,360.2916,474.4351,351.3833" style="stroke:#181818;stroke-width:0.925;"/></g><g><title>Monitor</title><polygon fill="#A9DCDF" points="551.3532,484.4258,551.3532,484.4906,553.2032,484.2981,555.0533,484.4854,556.9034,484.5491,558.7535,484.2059,560.6035,484.4258,560.5316,484.4258,560.209,493.9289,560.2488,503.4319,560.5405,512.935,559.964,522.438,561.1157,531.941,560.0205,541.4441,560.4206,550.9471,561.0031,560.4502,560.5242,569.9532,560.6667,579.4562,560.574,588.9593,560.7687,598.4623,560.8247,607.9654,560.6035,617.4684,560.6035,617.649,558.7535,617.6753,556.9034,617.6779,555.0533,617.5469,553.2032,617.6114,551.3532,617.4684,552.0028,617.4684,550.686,607.9654,551.9808,598.4623,551.0789,588.9593,551.847,579.4562,550.8953,569.9532,551.2898,560.4502,552.0392,550.9471,551.3081,541.4441,551.4506,531.941,551.6664,522.438,551.7382,512.935,551.3496,503.4319,551.6189,493.9289,551.3532,484.4258" style="stroke:#181818;stroke-width:0.925;"/></g><g><title>Monitor</title><polygon fill="#A9DCDF" points="555.9784,576.1137,555.9784,576.1785,557.8284,575.9859,559.6785,576.1733,561.5286,576.2369,563.3786,575.8937,565.2287,576.1137,565.2048,576.1137,565.0972,584.3846,565.1105,592.6556,565.2077,600.9265,565.0155,609.1975,565.2287,617.4684,565.2287,617.6391,563.3786,617.2741,561.5286,617.4074,559.6785,617.6016,557.8284,617.442,555.9784,617.4684,555.9994,617.4684,555.9685,609.1975,556.0334,600.9265,556.0521,592.6556,556.1589,584.3846,555.9784,576.1137" style="stroke:#181818;stroke-width:0.925;"/></g><g><title>Usu.rio</title><polygon fill="#000000" fill-opacity="0.00000" points="97.2575,216.4906,97.2575,216.5554,98.7375,216.3629,100.2176,216.5502,101.6977,216.6138,103.1777,216.2706,104.6578,216.4906,104.5859,216.4906,104.2632,225.7929,104.303,235.0953,104.5947,244.3976,104.0182,253.7,105.1699,263.0023,104.0747,272.3047,104.4748,281.607,105.0573,290.9094,104.5784,300.2117,104.7209,309.514,104.6282,318.8164,104.8229,328.1187,104.879,337.4211,105.1996,346.7234,105.2785,356.0258,105.2861,365.3281,104.8933,374.6305,105.0866,383.9328,105.3074,393.2351,103.9906,402.5375,105.2854,411.8398,104.3835,421.1422,105.1516,430.4445,104.1999,439.7469,104.5944,449.0492,105.3438,458.3516,104.6127,467.6539,104.7552,476.9562,104.971,486.2586,105.0428,495.5609,104.6542,504.8633,104.9235,514.1656,104.1283,523.468,104.9208,532.7703,105.1649,542.0726,105.069,551.375,105.2248,560.6773,104.2109,569.9797,104.0545,579.282,104.083,588.5844,104.6033,597.8867,104.476,607.1891,105.2881,616.4914,104.6578,625.7937,104.6578,625.7399,103.1777,625.688,101.6977,625.8641,100.2176,625.5881,98.7375,625.6337,97.2575,625.7937,97.8578,625.7937,97.6605,616.4914,97.9369,607.1891,96.9598,597.8867,97.5527,588.5844,97.8036,579.282,96.8205,569.9797,97.1688,560.6773,97.374,551.375,97.8604,542.0726,97.2536,532.7703,97.6854,523.468,96.7452,514.1656,96.631,504.8633,97.7233,495.5609,96.5943,486.2586,97.7283,476.9562,97.4486,467.6539,97.0096,458.3516,96.9302,449.0492,97.6818,439.7469,96.9806,430.4445,97.805,421.1422,96.7462,411.8398,97.8286,402.5375,97.7055,393.2351,97.4841,383.9328,97.3012,374.6305,97.9296,365.3281,97.8251,356.0258,97.414,346.7234,97.5056,337.4211,97.137,328.1187,97.9202,318.8164,97.4007,309.514,97.4171,300.2117,96.6947,290.9094,96.8826,281.607,97.7484,272.3047,97.655,263.0023,97.2178,253.7,96.9595,244.3976,97.055,235.0953,96.6227,225.7929,97.2575,216.4906"/><path d="M100.8166,216.4906 L101.0759,216.4906 L100.3056,225.7929 L101.055,235.0953 L101.3096,244.3976 L99.9367,253.7 L100.7208,263.0023 L100.2906,272.3047 L100.3436,281.607 L100.7326,290.9094 L99.9639,300.2117 L101.4995,309.514 L100.0393,318.8164 L100.5727,328.1187 L101.3494,337.4211 L100.7108,346.7234 L100.9008,356.0258 L100.7772,365.3281 L101.0368,374.6305 L101.1116,383.9328 L101.539,393.2351 L101.6443,402.5375 L101.6544,411.8398 L101.1307,421.1422 L101.3884,430.4445 L101.6827,439.7469 L99.9271,449.0492 L101.6535,458.3516 L100.4509,467.6539 L101.475,476.9562 L100.2061,486.2586 L100.7321,495.5609 L101.7313,504.8633 L100.7565,514.1656 L100.9465,523.468 L101.2343,532.7703 L101.33,542.0726 L100.8118,551.375 L101.1709,560.6773 L100.1106,569.9797 L101.1674,579.282 L101.4928,588.5844 L101.3649,597.8867 L101.5727,607.1891 L100.2208,616.4914 L100.8166,625.7937" fill="none" style="stroke:#0000FF;stroke-width:0.4625;stroke-dasharray:4.6252,4.6252;"/></g><g><title>MCU</title><polygon fill="#000000" fill-opacity="0.00000" points="264.4617,216.4906,264.4617,216.5554,265.9418,216.3629,267.4218,216.5502,268.9019,216.6138,270.382,216.2706,271.862,216.4906,271.7901,216.4906,271.4675,225.7929,271.5073,235.0953,271.799,244.3976,271.2225,253.7,272.3742,263.0023,271.279,272.3047,271.6791,281.607,272.2616,290.9094,271.7827,300.2117,271.9251,309.514,271.8325,318.8164,272.0272,328.1187,272.0832,337.4211,272.4038,346.7234,272.4828,356.0258,272.4904,365.3281,272.0976,374.6305,272.2908,383.9328,272.5116,393.2351,271.1949,402.5375,272.4897,411.8398,271.5877,421.1422,272.3558,430.4445,271.4041,439.7469,271.7986,449.0492,272.548,458.3516,271.8169,467.6539,271.9594,476.9562,272.1753,486.2586,272.247,495.5609,271.8584,504.8633,272.1277,514.1656,271.3325,523.468,272.1251,532.7703,272.3691,542.0726,272.2732,551.375,272.4291,560.6773,271.4151,569.9797,271.2587,579.282,271.2872,588.5844,271.8075,597.8867,271.6802,607.1891,272.4923,616.4914,271.862,625.7937,271.862,625.7399,270.382,625.688,268.9019,625.8641,267.4218,625.5881,265.9418,625.6337,264.4617,625.7937,265.062,625.7937,264.8647,616.4914,265.1411,607.1891,264.164,597.8867,264.757,588.5844,265.0079,579.282,264.0247,569.9797,264.373,560.6773,264.5783,551.375,265.0646,542.0726,264.4578,532.7703,264.8896,523.468,263.9494,514.1656,263.8352,504.8633,264.9276,495.5609,263.7985,486.2586,264.9325,476.9562,264.6529,467.6539,264.2139,458.3516,264.1345,449.0492,264.8861,439.7469,264.1848,430.4445,265.0092,421.1422,263.9504,411.8398,265.0329,402.5375,264.9097,393.2351,264.6883,383.9328,264.5054,374.6305,265.1339,365.3281,265.0293,356.0258,264.6183,346.7234,264.7098,337.4211,264.3412,328.1187,265.1245,318.8164,264.605,309.514,264.6214,300.2117,263.899,290.9094,264.0869,281.607,264.9527,272.3047,264.8593,263.0023,264.422,253.7,264.1637,244.3976,264.2592,235.0953,263.827,225.7929,264.4617,216.4906"/><path d="M267.889,216.4906 L268.1483,216.4906 L267.378,225.7929 L268.1274,235.0953 L268.382,244.3976 L267.0091,253.7 L267.7932,263.0023 L267.363,272.3047 L267.416,281.607 L267.805,290.9094 L267.0363,300.2117 L268.5719,309.514 L267.1116,318.8164 L267.6451,328.1187 L268.4218,337.4211 L267.7832,346.7234 L267.9732,356.0258 L267.8496,365.3281 L268.1092,374.6305 L268.184,383.9328 L268.6114,393.2351 L268.7167,402.5375 L268.7268,411.8398 L268.2031,421.1422 L268.4608,430.4445 L268.7551,439.7469 L266.9995,449.0492 L268.7259,458.3516 L267.5233,467.6539 L268.5474,476.9562 L267.2785,486.2586 L267.8045,495.5609 L268.8037,504.8633 L267.8289,514.1656 L268.0189,523.468 L268.3067,532.7703 L268.4024,542.0726 L267.8842,551.375 L268.2433,560.6773 L267.183,569.9797 L268.2398,579.282 L268.5652,588.5844 L268.4373,597.8867 L268.6451,607.1891 L267.2932,616.4914 L267.889,625.7937" fill="none" style="stroke:#0000FF;stroke-width:0.4625;stroke-dasharray:4.6252,4.6252;"/></g><g><title>Esteira</title><polygon fill="#000000" fill-opacity="0.00000" points="475.3601,216.4906,475.3601,216.5554,476.8402,216.3629,478.3203,216.5502,479.8003,216.6138,481.2804,216.2706,482.7604,216.4906,482.6885,216.4906,482.3659,225.7929,482.4057,235.0953,482.6974,244.3976,482.1209,253.7,483.2726,263.0023,482.1774,272.3047,482.5775,281.607,483.16,290.9094,482.6811,300.2117,482.8236,309.514,482.7309,318.8164,482.9256,328.1187,482.9816,337.4211,483.3022,346.7234,483.3812,356.0258,483.3888,365.3281,482.996,374.6305,483.1893,383.9328,483.41,393.2351,482.0933,402.5375,483.3881,411.8398,482.4862,421.1422,483.2542,430.4445,482.3025,439.7469,482.6971,449.0492,483.4464,458.3516,482.7154,467.6539,482.8578,476.9562,483.0737,486.2586,483.1455,495.5609,482.7568,504.8633,483.0261,514.1656,482.2309,523.468,483.0235,532.7703,483.2675,542.0726,483.1716,551.375,483.3275,560.6773,482.3136,569.9797,482.1571,579.282,482.1856,588.5844,482.706,597.8867,482.5786,607.1891,483.3908,616.4914,482.7604,625.7937,482.7604,625.7399,481.2804,625.688,479.8003,625.8641,478.3203,625.5881,476.8402,625.6337,475.3601,625.7937,475.9604,625.7937,475.7631,616.4914,476.0396,607.1891,475.0625,597.8867,475.6554,588.5844,475.9063,579.282,474.9231,569.9797,475.2715,560.6773,475.4767,551.375,475.963,542.0726,475.3563,532.7703,475.788,523.468,474.8479,514.1656,474.7336,504.8633,475.826,495.5609,474.6969,486.2586,475.8309,476.9562,475.5513,467.6539,475.1123,458.3516,475.0329,449.0492,475.7845,439.7469,475.0832,430.4445,475.9076,421.1422,474.8488,411.8398,475.9313,402.5375,475.8081,393.2351,475.5867,383.9328,475.4038,374.6305,476.0323,365.3281,475.9277,356.0258,475.5167,346.7234,475.6082,337.4211,475.2396,328.1187,476.0229,318.8164,475.5034,309.514,475.5198,300.2117,474.7974,290.9094,474.9853,281.607,475.8511,272.3047,475.7577,263.0023,475.3204,253.7,475.0621,244.3976,475.1576,235.0953,474.7254,225.7929,475.3601,216.4906"/><path d="M478.9382,216.4906 L479.1975,216.4906 L478.4272,225.7929 L479.1766,235.0953 L479.4312,244.3976 L478.0584,253.7 L478.8424,263.0023 L478.4122,272.3047 L478.4652,281.607 L478.8542,290.9094 L478.0855,300.2117 L479.6211,309.514 L478.1609,318.8164 L478.6943,328.1187 L479.471,337.4211 L478.8325,346.7234 L479.0224,356.0258 L478.8988,365.3281 L479.1584,374.6305 L479.2332,383.9328 L479.6606,393.2351 L479.7659,402.5375 L479.776,411.8398 L479.2523,421.1422 L479.51,430.4445 L479.8044,439.7469 L478.0487,449.0492 L479.7751,458.3516 L478.5725,467.6539 L479.5966,476.9562 L478.3277,486.2586 L478.8538,495.5609 L479.8529,504.8633 L478.8781,514.1656 L479.0681,523.468 L479.3559,532.7703 L479.4516,542.0726 L478.9334,551.375 L479.2925,560.6773 L478.2322,569.9797 L479.289,579.282 L479.6144,588.5844 L479.4865,597.8867 L479.6943,607.1891 L478.3424,616.4914 L478.9382,625.7937" fill="none" style="stroke:#0000FF;stroke-width:0.4625;stroke-dasharray:4.6252,4.6252;"/></g><g><title>Monitor</title><polygon fill="#000000" fill-opacity="0.00000" points="552.2782,216.4906,552.2782,216.5554,553.7583,216.3629,555.2383,216.5502,556.7184,216.6138,558.1984,216.2706,559.6785,216.4906,559.6066,216.4906,559.284,225.7929,559.3237,235.0953,559.6155,244.3976,559.039,253.7,560.1906,263.0023,559.0955,272.3047,559.4956,281.607,560.0781,290.9094,559.5992,300.2117,559.7416,309.514,559.6489,318.8164,559.8436,328.1187,559.8997,337.4211,560.2203,346.7234,560.2993,356.0258,560.3068,365.3281,559.914,374.6305,560.1073,383.9328,560.3281,393.2351,559.0114,402.5375,560.3061,411.8398,559.4042,421.1422,560.1723,430.4445,559.2206,439.7469,559.6151,449.0492,560.3645,458.3516,559.6334,467.6539,559.7759,476.9562,559.9917,486.2586,560.0635,495.5609,559.6749,504.8633,559.9442,514.1656,559.149,523.468,559.9416,532.7703,560.1856,542.0726,560.0897,551.375,560.2456,560.6773,559.2316,569.9797,559.0752,579.282,559.1037,588.5844,559.624,597.8867,559.4967,607.1891,560.3088,616.4914,559.6785,625.7937,559.6785,625.7399,558.1984,625.688,556.7184,625.8641,555.2383,625.5881,553.7583,625.6337,552.2782,625.7937,552.8785,625.7937,552.6812,616.4914,552.9576,607.1891,551.9805,597.8867,552.5735,588.5844,552.8244,579.282,551.8412,569.9797,552.1895,560.6773,552.3947,551.375,552.8811,542.0726,552.2743,532.7703,552.7061,523.468,551.7659,514.1656,551.6517,504.8633,552.7441,495.5609,551.615,486.2586,552.749,476.9562,552.4693,467.6539,552.0304,458.3516,551.951,449.0492,552.7026,439.7469,552.0013,430.4445,552.8257,421.1422,551.7669,411.8398,552.8493,402.5375,552.7262,393.2351,552.5048,383.9328,552.3219,374.6305,552.9503,365.3281,552.8458,356.0258,552.4348,346.7234,552.5263,337.4211,552.1577,328.1187,552.9409,318.8164,552.4215,309.514,552.4378,300.2117,551.7155,290.9094,551.9034,281.607,552.7692,272.3047,552.6757,263.0023,552.2385,253.7,551.9802,244.3976,552.0757,235.0953,551.6435,225.7929,552.2782,216.4906"/><path d="M555.9604,216.4906 L556.2196,216.4906 L555.4494,225.7929 L556.1988,235.0953 L556.4533,244.3976 L555.0805,253.7 L555.8645,263.0023 L555.4344,272.3047 L555.4874,281.607 L555.8763,290.9094 L555.1077,300.2117 L556.6432,309.514 L555.183,318.8164 L555.7165,328.1187 L556.4931,337.4211 L555.8546,346.7234 L556.0446,356.0258 L555.921,365.3281 L556.1806,374.6305 L556.2553,383.9328 L556.6828,393.2351 L556.7881,402.5375 L556.7982,411.8398 L556.2744,421.1422 L556.5322,430.4445 L556.8265,439.7469 L555.0709,449.0492 L556.7973,458.3516 L555.5947,467.6539 L556.6188,476.9562 L555.3498,486.2586 L555.8759,495.5609 L556.8751,504.8633 L555.9003,514.1656 L556.0903,523.468 L556.378,532.7703 L556.4738,542.0726 L555.9556,551.375 L556.3146,560.6773 L555.2544,569.9797 L556.3111,579.282 L556.6365,588.5844 L556.5087,597.8867 L556.7165,607.1891 L555.3646,616.4914 L555.9604,625.7937" fill="none" style="stroke:#0000FF;stroke-width:0.4625;stroke-dasharray:4.6252,4.6252;"/></g><g class="participant participant-head" data-participant="Usu.rio"><text fill="#1E90FF" font-family="Aapex" font-size="15.7256" lengthAdjust="spacing" textLength="57.6343" x="69.3654" y="211.883">Usu&#225;rio</text><polygon fill="#00BFFF" points="115.84,157.5083,113.6705,160.4727,111.1044,164.8145,107.4344,167.7406,103.5778,169.3407,100.5028,169.4795,96.5507,167.4784,92.8216,166.1711,89.9911,163.5167,88.5064,160.478,87.6259,158.0585,86.7633,154.8981,85.3632,152.1785,86.4391,149.5232,87.3817,146.6145,90.9192,144.314,93.4079,141.3292,96.4884,140.338,100.1505,139.4844,104.8467,139.9916,107.4189,141.2046,110.4094,141.7545,114.0456,145.4799,115.3132,149.4128,115.8639,152.0963,115.2401,156.5183" style="stroke:#00BFFF;stroke-width:0.4625;"/><path d="M100.9576,172.4089 L100.9576,172.4089 L100.9872,172.4902 L102.9345,171.5088 L105.0549,171.0036 L107.119,170.3433 L108.9977,169.1732 L111.133,168.7088 L111.133,168.7088 L111.1198,168.6797 L113.0956,169.4742 L115.1379,170.4153 L117.2267,171.4584 L119.1557,172.1502 L121.3084,173.334 L121.5157,173.4282 L121.9976,175.2618 L123.0845,177.3705 L124.2452,179.5127 L124.9765,181.4597 L125.9336,183.5094 L125.9897,183.5094 L125.9074,184.2494 L126.0804,184.9894 L126.1303,185.7295 L126.4152,186.4695 L125.9336,187.2095 L125.9336,187.2095 L126.1287,187.4046 L124.651,188.8871 L123.0475,190.2437 L121.6282,191.7845 L120.2175,193.3339 L118.5333,194.6098 L118.5333,194.0168 L111.503,195.1677 L104.4728,194.366 L97.4425,195.0488 L90.4122,194.2028 L83.3819,194.6098 L83.3819,194.6098 L83.362,194.5899 L82.1175,193.3454 L80.4076,191.6355 L78.9724,190.2003 L77.5601,188.788 L75.9816,187.2095 L76.3239,187.2095 L75.9784,186.4695 L76.2178,185.7295 L75.511,184.9894 L76.2155,184.2494 L75.9816,183.5094 L75.9816,183.5094 L76.1868,183.6026 L77.073,181.5499 L78.0611,179.5435 L78.5759,177.322 L79.4377,175.2581 L80.6068,173.334 L80.5011,173.1014 L82.6319,172.3869 L84.6435,171.4104 L86.828,170.8139 L88.7174,169.5685 L90.7822,168.7088 L90.7822,168.7088 L90.734,168.5762 L92.8494,169.537 L94.7587,169.9312 L96.8145,170.7283 L99.0137,171.9197 L100.9576,172.4089" fill="#00BFFF"/></g><g class="participant participant-head" data-participant="MCU"><polygon fill="#1E90FF" points="246.1507,181.1968,246.1507,181.3912,254.9551,180.8135,263.7596,181.3756,272.5641,181.5665,281.3686,180.5369,290.1731,181.1968,290.1639,181.1747,290.4498,181.2108,290.7819,181.3585,291.1462,181.5838,291.3997,181.5417,291.8083,181.8741,291.966,181.9395,291.7642,182.1268,292.0229,182.5049,292.3378,182.9063,292.3258,183.1722,292.4857,183.5094,292.5067,183.5094,292.4758,189.4581,292.5407,195.4068,292.5594,201.3555,292.6663,207.3043,292.4857,213.253,292.6768,213.3322,292.5437,213.6602,292.2873,213.9371,292.2113,214.2888,292.1438,214.644,291.8083,214.8882,291.7232,214.6828,291.5613,215.217,291.1192,215.0747,290.8902,215.4467,290.4417,215.2891,290.1731,215.5656,290.1731,215.5022,281.3686,216.2516,272.5641,215.5205,263.7596,215.663,254.9551,215.8788,246.1507,215.5656,246.1998,215.6841,245.8231,215.429,245.5304,215.3765,245.102,214.9961,244.876,215.1047,244.5154,214.8882,244.6716,214.9529,244.5066,214.6136,244.4191,214.3065,243.9714,213.8501,243.7877,213.5031,243.8381,213.253,243.6465,213.253,243.8199,207.3043,243.7775,201.3555,244.0482,195.4068,243.7842,189.4581,243.8381,183.5094,243.7403,183.4689,244.0386,183.2093,243.919,182.7766,244.0966,182.467,244.5648,182.2778,244.5154,181.8741,244.5668,181.9982,244.9291,181.9479,245.1315,181.5115,245.5342,181.5587,245.8933,181.5005,246.1507,181.1968" style="stroke:#00BFFF;stroke-width:0.4625;"/><text fill="#A9DCDF" font-family="Impact" font-size="15.7256" lengthAdjust="spacing" textLength="35.6971" x="250.3133" y="204.4827">MCU</text></g><g class="participant participant-head" data-participant="Esteira"><polygon fill="#1E90FF" points="449.7996,181.1968,449.7996,181.3912,459.5532,180.8135,469.3067,181.3756,479.0603,181.5665,488.8139,180.5369,498.5674,181.1249,508.321,181.1968,508.2707,181.0753,508.6028,181.223,508.967,181.4483,509.2206,181.4062,509.6945,181.8964,509.9562,181.8741,509.7767,181.7998,510.0354,182.1779,510.3502,182.5792,510.3382,182.8452,510.5176,183.1904,510.6336,183.5094,510.6237,183.5094,510.6886,189.4581,510.7073,195.4068,510.8142,201.3555,510.8405,207.3043,510.6336,213.253,510.8271,213.3331,510.5706,213.6101,510.4947,213.9618,510.4272,214.317,509.8863,214.4761,509.9562,214.8882,510.0363,215.0815,509.5942,214.9392,509.3651,215.3112,508.9167,215.1536,508.64,215.4106,508.321,215.5656,508.321,216.2516,498.5674,215.5205,488.8139,215.663,479.0603,215.8788,469.3067,215.9506,459.5532,215.562,449.7996,215.5656,449.8335,215.6474,449.405,215.267,449.179,215.3756,448.8831,215.3153,448.5438,215.1503,448.1643,214.8882,448.339,214.9606,447.8912,214.5042,447.7076,214.1572,447.5809,213.8338,447.6057,213.5731,447.487,213.253,447.4264,213.253,447.6971,207.3043,447.4331,201.3555,447.3812,195.4068,447.5574,189.4581,447.487,183.5094,447.297,183.4307,447.4746,183.1211,447.9428,182.9319,448.0175,182.5796,448.2381,182.2879,448.1643,181.8741,448.1264,181.7825,448.529,181.8296,448.8881,181.7714,449.0897,181.3332,449.4612,181.305,449.7996,181.1968" style="stroke:#00BFFF;stroke-width:0.4625;"/><text fill="#A9DCDF" font-family="Impact" font-size="15.7256" lengthAdjust="spacing" textLength="50.1961" x="453.9622" y="204.4827">Esteira</text></g><g class="participant participant-head" data-participant="Monitor"><polygon fill="#1E90FF" points="522.1965,181.1968,522.1965,181.3912,531.8485,180.8135,541.5004,181.3756,551.1524,181.5665,560.8043,180.5369,570.4563,181.1249,580.1082,180.8023,589.7602,181.1968,589.7149,181.0875,590.0792,181.3128,590.3327,181.2708,590.8066,181.7609,590.994,181.5591,591.3954,181.8741,591.3391,181.8508,591.6539,182.2522,591.6419,182.5181,591.8213,182.8633,591.9282,183.1786,592.0728,183.5094,592.1278,183.5094,592.1465,189.4581,592.2534,195.4068,592.2797,201.3555,592.2822,207.3043,592.0728,213.253,592.1453,213.283,592.0694,213.6347,592.0019,213.9899,591.4609,214.149,591.7242,214.6412,591.3954,214.8882,591.3604,214.8038,591.1314,215.1758,590.6829,215.0181,590.4062,215.2751,590.1747,215.6414,589.7602,215.5656,589.7602,215.5205,580.1082,215.663,570.4563,215.8788,560.8043,215.9506,551.1524,215.562,541.5004,215.8313,531.8485,215.0361,522.1965,215.5656,522.2301,215.6466,521.9342,215.5863,521.5949,215.4213,521.2877,215.3338,520.8313,214.8861,520.5613,214.8882,520.3755,214.8113,520.2488,214.4879,520.2736,214.2272,520.0989,213.8839,520.2135,213.6604,519.8839,213.253,519.8301,213.253,519.7782,207.3043,519.9543,201.3555,519.6783,195.4068,519.7239,189.4581,519.8839,183.5094,520.0688,183.586,520.1435,183.2337,520.3641,182.942,520.1987,182.4903,520.5168,182.2389,520.5613,181.8741,520.631,182.0423,520.8326,181.6041,521.2041,181.5759,521.5573,181.5036,521.9464,181.5179,522.1965,181.1968" style="stroke:#00BFFF;stroke-width:0.4625;"/><text fill="#A9DCDF" font-family="Impact" font-size="15.7256" lengthAdjust="spacing" textLength="59.2383" x="526.3592" y="204.4827">Monitor</text></g><g><title>Usu.rio</title><polygon fill="#A9DCDF" points="96.3324,513.7551,96.3324,513.8199,98.1825,513.6273,100.0326,513.8147,101.8827,513.8783,103.7327,513.5351,105.5828,513.7551,105.5109,513.7551,105.1883,523.1836,105.2281,532.612,105.5198,542.0405,104.9433,551.469,106.0949,560.8975,104.9998,570.326,105.3999,579.7545,105.9824,589.183,105.5035,598.6114,105.6459,608.0399,105.5828,617.4684,105.5828,617.4586,103.7327,617.5235,101.8827,617.5421,100.0326,617.649,98.1825,617.6753,96.3324,617.4684,96.9608,617.4684,96.568,608.0399,96.7613,598.6114,96.982,589.183,95.6653,579.7545,96.9601,570.326,96.0582,560.8975,96.8262,551.469,95.8745,542.0405,96.2691,532.612,97.0185,523.1836,96.3324,513.7551" style="stroke:#181818;stroke-width:0.925;"/></g><g><title>MCU</title><polygon fill="#A9DCDF" points="263.5367,247.6699,263.5367,247.7347,265.3868,247.5422,267.2368,247.7295,269.0869,247.7932,270.937,247.4499,272.7871,247.6699,272.7152,247.6699,272.3925,256.9149,272.4323,266.1598,272.724,275.4048,272.1475,284.6498,273.2992,293.8947,272.204,303.1397,272.6041,312.3847,273.1866,321.6296,272.7077,330.8746,272.8502,340.1195,272.7575,349.3645,272.9522,358.6095,273.0083,367.8544,273.3288,377.0994,273.4078,386.3444,273.4154,395.5893,273.0226,404.8343,273.2159,414.0792,273.4366,423.3242,272.1199,432.5692,273.4147,441.8141,272.5128,451.0591,273.2808,460.3041,272.3291,469.549,272.7237,478.794,273.4731,488.0389,272.742,497.2839,272.8845,506.5289,273.1003,515.7738,273.1721,525.0188,272.7834,534.2638,273.0527,543.5087,272.2575,552.7537,273.0501,561.9986,273.2942,571.2436,273.1983,580.4886,273.3541,589.7335,272.3402,598.9785,272.1838,608.2234,272.7871,617.4684,272.7871,617.2768,270.937,617.4503,269.0869,617.4078,267.2368,617.6785,265.3868,617.4146,263.5367,617.4684,263.2193,617.4684,263.7478,608.2234,262.9198,598.9785,263.0565,589.7335,264.137,580.4886,263.9397,571.2436,264.2161,561.9986,263.239,552.7537,263.8319,543.5087,264.0828,534.2638,263.0997,525.0188,263.448,515.7738,263.6532,506.5289,264.1396,497.2839,263.5328,488.0389,263.9646,478.794,263.0244,469.549,262.9102,460.3041,264.0025,451.0591,262.8735,441.8141,264.0075,432.5692,263.7278,423.3242,263.2888,414.0792,263.2094,404.8343,263.9611,395.5893,263.2598,386.3444,264.0842,377.0994,263.0254,367.8544,264.1078,358.6095,263.9847,349.3645,263.7633,340.1195,263.5804,330.8746,264.2088,321.6296,264.1043,312.3847,263.6932,303.1397,263.7848,293.8947,263.4162,284.6498,264.1994,275.4048,263.6799,266.1598,263.6963,256.9149,263.5367,247.6699" style="stroke:#181818;stroke-width:0.925;"/></g><g><title>MCU</title><polygon fill="#A9DCDF" points="268.1619,317.4288,268.1619,317.4936,270.0119,317.3011,271.862,317.4884,273.7121,317.5521,275.5622,317.2089,277.4122,317.4288,277.3403,317.4288,277.0177,326.8051,277.0575,336.1813,277.3492,345.5575,276.7727,354.9338,277.9244,364.31,276.8292,373.6863,277.2293,383.0625,277.8118,392.4387,277.3329,401.815,277.4754,411.1912,277.3827,420.5674,277.5774,429.9437,277.6334,439.3199,277.954,448.6961,278.033,458.0724,278.0406,467.4486,277.6478,476.8249,277.8411,486.2011,278.0618,495.5773,276.7451,504.9536,278.0399,514.3298,277.138,523.706,277.906,533.0823,276.9543,542.4585,277.3489,551.8348,278.0982,561.211,277.3672,570.5872,277.5096,579.9635,277.7255,589.3397,277.7973,598.7159,277.4086,608.0922,277.4122,617.4684,277.4122,617.557,275.5622,617.2919,273.7121,617.5561,271.862,617.6374,270.0119,617.6055,268.1619,617.4684,268.7289,617.4684,267.715,608.0922,267.5586,598.7159,267.587,589.3397,268.1074,579.9635,267.9801,570.5872,268.7922,561.211,268.0003,551.8348,267.8445,542.4585,268.373,533.0823,267.545,523.706,267.6817,514.3298,268.7622,504.9536,268.5649,495.5773,268.8413,486.2011,267.8642,476.8249,268.4571,467.4486,268.708,458.0724,267.7249,448.6961,268.0732,439.3199,268.2784,429.9437,268.7648,420.5674,268.158,411.1912,268.5898,401.815,267.6496,392.4387,267.5354,383.0625,268.6277,373.6863,267.4987,364.31,268.6327,354.9338,268.353,345.5575,267.914,336.1813,267.8346,326.8051,268.1619,317.4288" style="stroke:#181818;stroke-width:0.925;"/></g><g><title>MCU</title><polygon fill="#A9DCDF" points="272.7871,450.4714,272.7871,450.5362,274.6371,450.3437,276.4872,450.531,278.3373,450.5947,280.1873,450.2514,282.0374,450.4714,281.9655,450.4714,281.6429,459.749,281.6827,469.0266,281.9744,478.3042,281.3979,487.5819,282.5496,496.8595,281.4544,506.1371,281.8545,515.4147,282.437,524.6923,281.9581,533.9699,282.1005,543.2475,282.0079,552.5251,282.2026,561.8027,282.2586,571.0804,282.5792,580.358,282.6582,589.6356,282.6658,598.9132,282.273,608.1908,282.0374,617.4684,282.0374,617.6114,280.1873,617.6849,278.3373,617.246,276.4872,617.6776,274.6371,617.377,272.7871,617.4684,273.2808,617.4684,272.3291,608.1908,272.7237,598.9132,273.4731,589.6356,272.742,580.358,272.8845,571.0804,273.1003,561.8027,273.1721,552.5251,272.7834,543.2475,273.0527,533.9699,272.2575,524.6923,273.0501,515.4147,273.2942,506.1371,273.1983,496.8595,273.3541,487.5819,272.3402,478.3042,272.1838,469.0266,272.2122,459.749,272.7871,450.4714" style="stroke:#181818;stroke-width:0.925;"/></g><g><title>Esteira</title><polygon fill="#A9DCDF" points="474.4351,351.3833,474.4351,351.4481,476.2852,351.2555,478.1352,351.4429,479.9853,351.5065,481.8354,351.1633,483.6855,351.3833,483.6136,351.3833,483.2909,360.2916,483.3307,369.2,483.6224,378.1084,483.0459,387.0168,484.1976,395.9251,483.1024,404.8335,483.6855,413.7419,483.6855,413.6809,481.8354,413.8751,479.9853,413.7154,478.1352,413.7629,476.2852,413.732,474.4351,413.7419,474.6002,413.7419,474.6563,404.8335,474.9769,395.9251,475.0559,387.0168,475.0634,378.1084,474.6706,369.2,474.8639,360.2916,474.4351,351.3833" style="stroke:#181818;stroke-width:0.925;"/></g><g><title>Monitor</title><polygon fill="#A9DCDF" points="551.3532,484.4258,551.3532,484.4906,553.2032,484.2981,555.0533,484.4854,556.9034,484.5491,558.7535,484.2059,560.6035,484.4258,560.5316,484.4258,560.209,493.9289,560.2488,503.4319,560.5405,512.935,559.964,522.438,561.1157,531.941,560.0205,541.4441,560.4206,550.9471,561.0031,560.4502,560.5242,569.9532,560.6667,579.4562,560.574,588.9593,560.7687,598.4623,560.8247,607.9654,560.6035,617.4684,560.6035,617.649,558.7535,617.6753,556.9034,617.6779,555.0533,617.5469,553.2032,617.6114,551.3532,617.4684,552.0028,617.4684,550.686,607.9654,551.9808,598.4623,551.0789,588.9593,551.847,579.4562,550.8953,569.9532,551.2898,560.4502,552.0392,550.9471,551.3081,541.4441,551.4506,531.941,551.6664,522.438,551.7382,512.935,551.3496,503.4319,551.6189,493.9289,551.3532,484.4258" style="stroke:#181818;stroke-width:0.925;"/></g><g><title>Monitor</title><polygon fill="#A9DCDF" points="555.9784,576.1137,555.9784,576.1785,557.8284,575.9859,559.6785,576.1733,561.5286,576.2369,563.3786,575.8937,565.2287,576.1137,565.2048,576.1137,565.0972,584.3846,565.1105,592.6556,565.2077,600.9265,565.0155,609.1975,565.2287,617.4684,565.2287,617.6391,563.3786,617.2741,561.5286,617.4074,559.6785,617.6016,557.8284,617.442,555.9784,617.4684,555.9994,617.4684,555.9685,609.1975,556.0334,600.9265,556.0521,592.6556,556.1589,584.3846,555.9784,576.1137" style="stroke:#181818;stroke-width:0.925;"/></g><g class="message" data-participant-1="Usu.rio" data-participant-2="MCU"><polygon fill="#00BFFF" points="252.4362,243.9698,252.4603,244.0299,254.2389,244.5912,256.1585,245.5052,258.0322,246.3043,259.7548,246.7256,261.6866,247.6699,261.6777,247.6477,259.7877,248.2878,257.9425,249.0402,256.1286,249.8705,254.2071,250.4321,252.4362,251.3701,252.5569,251.4908,253.0388,250.4926,253.8732,249.8469,254.7505,249.2442,255.3777,248.3912,256.1364,247.6699,256.1513,247.6848,255.3894,246.9229,254.6953,246.2288,253.9684,245.502,253.304,244.8375,252.4362,243.9698" style="stroke:#00BFFF;stroke-width:0.925;"/><path d="M100.9576,247.6699 L100.9576,247.9292 L110.1946,247.1589 L119.4316,247.9083 L128.6686,248.1629 L137.9056,246.79 L147.1426,247.5741 L156.3796,247.1439 L165.6166,247.1969 L174.8535,247.5859 L184.0905,246.8172 L193.3275,248.3528 L202.5645,246.8925 L211.8015,247.426 L221.0385,248.2027 L230.2755,247.5641 L239.5125,247.7541 L248.7495,247.6305 L257.9865,247.6699" fill="none" style="stroke:#00BFFF;stroke-width:0.925;"/><text fill="#000000" font-family="sans-serif" font-size="12.0255" lengthAdjust="spacing" textLength="145.0034" x="107.4329" y="242.2964">Aciona o bot&#227;o de parada</text></g><polygon fill="#FEFFDD" points="457.8809,259.6954,457.8809,259.7602,466.0212,259.5676,474.1615,259.755,482.3019,259.8186,490.4422,259.4754,498.5825,259.6954,498.5641,259.6801,500.3316,261.8313,502.1918,264.0599,504.1166,266.3422,505.819,268.4393,507.8329,270.7958,507.9682,270.8999,505.8288,273.0824,504.0844,275.5689,502.3882,278.0923,500.4116,280.4001,498.5825,282.8213,498.5825,282.8424,490.4422,282.8115,482.3019,282.8764,474.1615,282.8951,466.0212,283.0019,457.8809,282.8213,458.0449,282.9475,456.1968,280.5439,454.243,278.059,452.444,275.6932,450.6522,273.333,448.6305,270.7958,448.4597,270.6535,450.6413,268.7097,452.2604,266.2971,454.3072,264.2409,455.9136,261.8178,457.8809,259.6954" style="stroke:#181818;stroke-width:0.4625;"/><text fill="#000000" font-family="sans-serif" font-size="12.0255" lengthAdjust="spacing" textLength="37.6879" x="459.731" y="276.2508">Ligada</text><g class="message" data-participant-1="MCU" data-participant-2="MCU"><path d="M272.7871,305.4034 L272.7871,305.6626 L281.4824,304.8923 L290.1777,305.6418 L298.8731,305.8963 L307.5684,304.5235 L316.2638,305.4034" fill="none" style="stroke:#00BFFF;stroke-width:0.925;"/><path d="M316.2638,305.4034 L316.3502,305.4034 L316.0934,307.8085 L316.3433,310.2135 L316.4281,312.6186 L315.9705,315.0237 L316.2638,317.4288" fill="none" style="stroke:#00BFFF;stroke-width:0.925;"/><path d="M278.3373,317.4288 L278.3373,317.5152 L285.9226,317.2585 L293.5079,317.5083 L301.0932,317.5932 L308.6785,317.1355 L316.2638,317.4288" fill="none" style="stroke:#00BFFF;stroke-width:0.925;"/><polygon fill="#00BFFF" points="287.5876,313.7287,287.6117,313.7889,285.6901,314.3501,283.9096,315.2641,282.0832,316.0632,280.1057,316.4846,278.3373,317.4288,278.3284,317.4066,280.1385,318.0468,281.9935,318.7991,283.8797,319.6294,285.6584,320.191,287.5876,321.129,287.7084,321.2497,286.7102,320.2515,286.0645,319.6058,285.4617,319.0031,284.6088,318.1502,283.8875,317.4288,283.9024,317.4437,284.6206,316.6818,285.4065,315.9877,286.1597,315.2609,286.9753,314.5964,287.5876,313.7287" style="stroke:#00BFFF;stroke-width:0.925;"/><text fill="#000000" font-family="sans-serif" font-size="12.0255" lengthAdjust="spacing" textLength="134.2406" x="283.8875" y="300.0298">Dispositivo de manobra</text></g><g class="message" data-participant-1="MCU" data-participant-2="Esteira"><polygon fill="#00BFFF" points="463.3347,347.6831,463.3587,347.7433,465.1373,348.3045,467.0569,349.2185,468.9306,350.0176,470.6533,350.439,472.585,351.3833,472.5761,351.361,470.6861,352.0012,468.841,352.7535,467.027,353.5838,465.1056,354.1454,463.3347,355.0834,463.4554,355.2041,463.9373,354.206,464.7716,353.5602,465.6489,352.9575,466.2761,352.1046,467.0348,351.3833,467.0497,351.3981,466.2878,350.6363,465.5937,349.9421,464.8669,349.2153,464.2024,348.5508,463.3347,347.6831" style="stroke:#00BFFF;stroke-width:0.925;"/><path d="M277.4122,351.3833 L277.4122,351.6425 L286.53,350.8722 L295.6477,351.6217 L304.7655,351.8762 L313.8832,350.5034 L323.001,351.2874 L332.1187,350.8572 L341.2364,350.9103 L350.3542,351.2992 L359.4719,350.5305 L368.5897,352.0661 L377.7074,350.6059 L386.8252,351.1393 L395.9429,351.916 L405.0607,351.2775 L414.1784,351.4674 L423.2962,351.3439 L432.4139,351.6034 L441.5316,351.6782 L450.6494,352.1056 L459.7671,352.2109 L468.8849,351.3833" fill="none" style="stroke:#00BFFF;stroke-width:0.925;"/><text fill="#000000" font-family="sans-serif" font-size="12.0255" lengthAdjust="spacing" textLength="83.2765" x="283.8875" y="346.0097">Desliga esteira</text></g><polygon fill="#FEFFDD" points="448.6305,363.4087,448.6305,363.6032,458.4976,363.0255,468.3646,363.5875,478.2317,363.7785,488.0988,362.7488,497.9658,363.3369,507.8329,363.4087,507.7319,363.3245,509.5921,365.5531,511.5169,367.8355,513.2193,369.9325,515.3643,372.3984,517.0833,374.5092,516.9292,374.3907,515.1849,376.8771,513.4887,379.4006,511.5121,381.7083,509.6996,384.1424,507.8329,386.5347,507.8329,386.5051,497.9658,386.6998,488.0988,386.7559,478.2317,387.0764,468.3646,387.1554,458.4976,387.163,448.6305,386.5347,448.6928,386.5825,446.8938,384.2167,445.102,381.8565,442.904,379.1838,441.3961,377.0418,439.3802,374.5092,439.3099,374.4507,441.3567,372.3945,442.963,369.9713,444.9142,367.8354,446.9561,365.7752,448.6305,363.4087" style="stroke:#181818;stroke-width:0.4625;"/><text fill="#000000" font-family="sans-serif" font-size="12.0255" lengthAdjust="spacing" textLength="55.8103" x="450.4806" y="379.9641">Desligada</text><g class="message" data-participant-1="Esteira" data-participant-2="MCU"><polygon fill="#00BFFF" points="287.5876,410.0417,287.6117,410.1019,285.6901,410.6631,283.9096,411.5771,282.0832,412.3762,280.1057,412.7976,278.3373,413.7419,278.3284,413.7196,280.1385,414.3598,281.9935,415.1121,283.8797,415.9425,285.6584,416.5041,287.5876,417.442,287.7084,417.5627,286.7102,416.5646,286.0645,415.9188,285.4617,415.3161,284.6088,414.4632,283.8875,413.7419,283.9024,413.7568,284.6206,412.9949,285.4065,412.3007,286.1597,411.5739,286.9753,410.9095,287.5876,410.0417" style="stroke:#00BFFF;stroke-width:0.925;"/><path d="M282.0374,413.7419 L282.0374,414.0011 L291.3754,413.2309 L300.7134,413.9803 L310.0514,414.2348 L319.3894,412.862 L328.7274,413.646 L338.0654,413.2158 L347.4034,413.2689 L356.7414,413.6578 L366.0793,412.8892 L375.4173,414.4247 L384.7553,412.9645 L394.0933,413.498 L403.4313,414.2746 L412.7693,413.6361 L422.1073,413.826 L431.4453,413.7025 L440.7833,413.9621 L450.1213,414.0368 L459.4593,414.4643 L468.7973,414.5695 L478.1352,413.7419" fill="none" style="stroke:#00BFFF;stroke-width:0.925;stroke-dasharray:1.8501,1.8501;"/><text fill="#000000" font-family="sans-serif" font-size="12.0255" lengthAdjust="spacing" textLength="97.9717" x="293.1379" y="408.3683">Atualiza o display</text></g><g class="message" data-participant-1="MCU" data-participant-2="MCU"><path d="M277.4122,438.4459 L277.4122,438.7052 L286.1076,437.9349 L294.8029,438.6843 L303.4983,438.9389 L312.1936,437.566 L320.889,438.4459" fill="none" style="stroke:#00BFFF;stroke-width:0.925;"/><path d="M320.889,438.4459 L320.9754,438.4459 L320.7186,440.851 L320.9684,443.2561 L321.0533,445.6612 L320.5957,448.0663 L320.889,450.4714" fill="none" style="stroke:#00BFFF;stroke-width:0.925;"/><path d="M282.9625,450.4714 L282.9625,450.5578 L290.5478,450.3011 L298.1331,450.5509 L305.7184,450.6357 L313.3037,450.1781 L320.889,450.4714" fill="none" style="stroke:#00BFFF;stroke-width:0.925;"/><polygon fill="#00BFFF" points="292.2128,446.7713,292.2369,446.8314,290.3153,447.3927,288.5348,448.3067,286.7084,449.1058,284.7308,449.5271,282.9625,450.4714,282.9536,450.4492,284.7637,451.0893,286.6187,451.8417,288.5049,452.672,290.2836,453.2336,292.2128,454.1716,292.3335,454.2923,291.3354,453.2941,290.6896,452.6484,290.0869,452.0457,289.234,451.1927,288.5127,450.4714,288.5276,450.4863,289.2457,449.7244,290.0317,449.0303,290.7849,448.3035,291.6005,447.639,292.2128,446.7713" style="stroke:#00BFFF;stroke-width:0.925;"/><text fill="#000000" font-family="sans-serif" font-size="12.0255" lengthAdjust="spacing" textLength="170.1968" x="288.5127" y="433.0724">Emite sinal sonoro e luminoso</text></g><g class="message" data-participant-1="MCU" data-participant-2="Monitor"><polygon fill="#00BFFF" points="540.2527,480.7257,540.2768,480.7859,542.0554,481.3471,543.975,482.2611,545.8487,483.0602,547.5713,483.4816,549.5031,484.4258,549.4942,484.4036,547.6042,485.0438,545.759,485.7961,543.9451,486.6264,542.0236,487.188,540.2527,488.126,540.3734,488.2467,540.8553,487.2485,541.6897,486.6028,542.567,486.0001,543.1941,485.1472,543.9529,484.4258,543.9678,484.4407,543.2059,483.6788,542.5117,482.9847,541.7849,482.2579,541.1205,481.5934,540.2527,480.7257" style="stroke:#00BFFF;stroke-width:0.925;"/><path d="M282.0374,484.4258 L282.0374,484.6851 L291.1328,483.9148 L300.2281,484.6642 L309.3235,484.9188 L318.4189,483.5459 L327.5142,484.33 L336.6096,483.8998 L345.705,483.9528 L354.8003,484.3418 L363.8957,483.5731 L372.991,485.1087 L382.0864,483.6485 L391.1818,484.1819 L400.2771,484.9586 L409.3725,484.32 L418.4679,484.51 L427.5632,484.3864 L436.6586,484.646 L445.754,484.7208 L454.8493,485.1482 L463.9447,485.2535 L473.04,485.2636 L482.1354,484.7399 L491.2308,484.9976 L500.3261,485.292 L509.4215,483.5363 L518.5169,485.2627 L527.6122,484.0601 L536.7076,485.0842 L545.8029,484.4258" fill="none" style="stroke:#00BFFF;stroke-width:0.925;"/><text fill="#000000" font-family="sans-serif" font-size="12.0255" lengthAdjust="spacing" textLength="134.1804" x="288.5127" y="479.0523">Envia dados para o IHM</text></g><g class="message" data-participant-1="Monitor" data-participant-2="Usu.rio"><polygon fill="#00BFFF" points="115.7582,510.0549,115.7823,510.1151,113.8607,510.6763,112.0802,511.5903,110.2538,512.3894,108.2762,512.8108,106.5078,513.7551,106.4989,513.7328,108.3091,514.373,110.1641,515.1253,112.0503,515.9556,113.829,516.5173,115.7582,517.4552,115.8789,517.5759,114.8808,516.5778,114.235,515.932,113.6323,515.3293,112.7794,514.4764,112.0581,513.7551,112.0729,513.7699,112.7911,513.0081,113.5771,512.3139,114.3303,511.5871,115.1459,510.9227,115.7582,510.0549" style="stroke:#00BFFF;stroke-width:0.925;"/><path d="M110.208,513.7551 L110.208,514.0143 L119.3792,513.2441 L128.5505,513.9935 L137.7218,514.248 L146.893,512.8752 L156.0643,513.6592 L165.2355,513.229 L174.4068,513.2821 L183.578,513.671 L192.7493,512.9023 L201.9205,514.4379 L211.0918,512.9777 L220.263,513.5111 L229.4343,514.2878 L238.6055,513.6493 L247.7768,513.8392 L256.948,513.7157 L266.1193,513.9753 L275.2905,514.05 L284.4618,514.4775 L293.6331,514.5827 L302.8043,514.5929 L311.9756,514.0691 L321.1468,514.3268 L330.3181,514.6212 L339.4893,512.8656 L348.6606,514.5919 L357.8318,513.3894 L367.0031,514.4135 L376.1743,513.1445 L385.3456,513.6706 L394.5168,514.6698 L403.6881,513.695 L412.8593,513.8849 L422.0306,514.1727 L431.2018,514.2684 L440.3731,513.7503 L449.5443,514.1093 L458.7156,513.0491 L467.8869,514.1058 L477.0581,514.4312 L486.2294,514.3034 L495.4006,514.5112 L504.5719,513.1592 L513.7431,512.9507 L522.9144,512.9886 L532.0856,513.6824 L541.2569,513.5127 L550.4281,513.7551" fill="none" style="stroke:#00BFFF;stroke-width:0.925;"/><text fill="#000000" font-family="sans-serif" font-size="12.0255" lengthAdjust="spacing" textLength="126.7126" x="121.3084" y="508.3815">Exibe status da esteira</text></g><polygon fill="#FEFFDD" points="441.2302,525.7806,441.2302,525.975,450.4806,525.3973,459.731,525.9593,468.9813,526.1503,478.2317,525.1206,487.4821,525.7087,496.7324,525.386,505.9828,525.4258,515.2332,525.7806,515.217,525.7671,516.9195,527.8642,519.0645,530.33,520.6341,532.3164,522.5866,534.6219,524.4836,536.881,524.5891,536.9622,522.6125,539.27,520.8001,541.704,518.9255,544.0903,517.1269,546.5349,515.2332,548.9065,515.2332,549.1277,505.9828,549.4483,496.7324,549.5272,487.4821,549.5348,478.2317,549.142,468.9813,549.3353,459.731,549.5561,450.4806,548.2394,441.2302,548.9065,441.3961,549.034,439.3077,546.4456,437.6605,544.1966,435.559,541.5981,433.8132,539.2732,431.9799,536.881,432.1555,537.0274,433.8184,534.6513,435.705,532.4616,437.6103,530.2876,439.4788,528.0828,441.2302,525.7806" style="stroke:#181818;stroke-width:0.4625;"/><text fill="#000000" font-family="sans-serif" font-size="12.0255" lengthAdjust="spacing" textLength="70.8662" x="443.0803" y="542.336">Manuten&#231;&#227;o</text><g class="message" data-participant-1="Usu.rio" data-participant-2="Monitor"><polygon fill="#00BFFF" points="544.8779,572.4135,544.902,572.4737,546.6805,573.035,548.6002,573.9489,550.4739,574.7481,552.1965,575.1694,554.1283,576.1137,554.1194,576.0914,552.2294,576.7316,550.3842,577.484,548.5703,578.3143,546.6488,578.8759,544.8779,579.8138,544.9986,579.9346,545.4805,578.9364,546.3148,578.2907,547.1922,577.6879,547.8193,576.835,548.5781,576.1137,548.5929,576.1286,547.8311,575.3667,547.1369,574.6726,546.4101,573.9457,545.7456,573.2813,544.8779,572.4135" style="stroke:#00BFFF;stroke-width:0.925;"/><path d="M105.5828,576.1137 L105.5828,576.3729 L114.8504,575.6027 L124.118,576.3521 L133.3856,576.6067 L142.6533,575.2338 L151.9209,576.0178 L161.1885,575.5877 L170.4561,575.6407 L179.7237,576.0296 L188.9913,575.261 L198.2589,576.7965 L207.5265,575.3363 L216.7941,575.8698 L226.0617,576.6465 L235.3294,576.0079 L244.597,576.1979 L253.8646,576.0743 L263.1322,576.3339 L272.3998,576.4086 L281.6674,576.8361 L290.935,576.9414 L300.2026,576.9515 L309.4702,576.4277 L318.7379,576.6855 L328.0055,576.9798 L337.2731,575.2242 L346.5407,576.9506 L355.8083,575.748 L365.0759,576.7721 L374.3435,575.5031 L383.6111,576.0292 L392.8787,577.0284 L402.1464,576.0536 L411.414,576.2436 L420.6816,576.5314 L429.9492,576.6271 L439.2168,576.1089 L448.4844,576.4679 L457.752,575.4077 L467.0196,576.4645 L476.2872,576.7898 L485.5549,576.662 L494.8225,576.8698 L504.0901,575.5179 L513.3577,575.3093 L522.6253,575.3473 L531.8929,576.0411 L541.1605,575.8713 L550.4281,576.1137" fill="none" style="stroke:#00BFFF;stroke-width:0.925;"/><text fill="#000000" font-family="sans-serif" font-size="12.0255" lengthAdjust="spacing" textLength="98.7052" x="112.0581" y="570.7402">Rearme pelo IHM</text></g><polygon fill="#FEFFDD" points="457.8809,588.1392,457.8809,588.204,466.0212,588.0114,474.1615,588.1988,482.3019,588.2624,490.4422,587.9192,498.5825,588.1392,498.5641,588.1238,500.3316,590.2751,502.1918,592.5037,504.1166,594.786,505.819,596.8831,507.8329,599.2396,507.9682,599.3437,505.8288,601.5262,504.0844,604.0126,502.3882,606.5361,500.4116,608.8439,498.5825,611.2651,498.5825,611.2861,490.4422,611.2552,482.3019,611.3201,474.1615,611.3388,466.0212,611.4457,457.8809,611.2651,458.0449,611.3913,456.1968,608.9877,454.243,606.5028,452.444,604.137,450.6522,601.7767,448.6305,599.2396,448.4597,599.0973,450.6413,597.1535,452.2604,594.7409,454.3072,592.6847,455.9136,590.2615,457.8809,588.1392" style="stroke:#181818;stroke-width:0.4625;"/><text fill="#000000" font-family="sans-serif" font-size="12.0255" lengthAdjust="spacing" textLength="37.6879" x="459.731" y="604.6946">Ligada</text><text fill="#1E90FF" font-family="Arial" font-size="12.9505" lengthAdjust="spacing" textLength="3.3671" x="27.7511" y="659.0636">&#160;</text><text fill="#1E90FF" font-family="Arial" font-size="12.9505" lengthAdjust="spacing" textLength="3.3671" x="27.7511" y="676.7021">&#160;</text><text fill="#1E90FF" font-family="Arial" font-size="12.9505" font-weight="bold" lengthAdjust="spacing" textLength="147.3245" x="27.7511" y="694.3406">Casos de Uso cobertos:</text><text fill="#1E90FF" font-family="Arial" font-size="12.9505" font-weight="bold" lengthAdjust="spacing" textLength="58.0828" x="27.7511" y="711.9791">- MC-003:</text><text fill="#1E90FF" font-family="Arial" font-size="12.9505" lengthAdjust="spacing" textLength="173.9118" x="89.2011" y="711.9791">L&#243;gica de Seguran&#231;a (NR-12)</text><polygon fill="none" points="25.4385,57.0199,25.4385,57.2143,34.6754,56.6366,43.9123,57.1987,53.1492,57.3896,62.3862,56.3599,71.6231,56.948,80.86,56.6253,90.0969,56.6651,99.3338,56.9568,108.5707,56.3803,117.8076,57.532,127.0445,56.4368,136.2814,56.8369,145.5183,57.4194,154.7553,56.9405,163.9922,57.083,173.2291,56.9903,182.466,57.185,191.7029,57.2411,200.9398,57.5616,210.1767,57.6406,219.4136,57.6482,228.6505,57.2554,237.8874,57.4487,247.1244,57.6694,256.3613,56.3527,265.5982,57.6475,274.8351,56.7456,284.072,57.5137,293.3089,56.5619,302.5458,56.9565,311.7827,57.7059,321.0196,56.9748,330.2565,57.1173,339.4935,57.3331,348.7304,57.4049,357.9673,57.0162,367.2042,57.2855,376.4411,56.4903,385.678,57.2829,394.9149,57.527,404.1518,57.4311,413.3887,57.5869,422.6256,56.573,431.8626,56.4166,441.0995,56.445,450.3364,56.9654,459.5733,56.8381,468.8102,57.6502,478.0471,56.8583,487.284,56.7025,496.5209,57.231,505.7578,56.403,514.9947,56.5396,524.2317,57.6202,533.4686,57.4229,542.7055,57.6993,551.9424,56.7222,561.1793,57.3151,570.4162,57.566,579.6531,56.5829,588.89,56.9312,598.1269,57.1364,607.3638,57.6228,616.6008,57.016,625.8377,57.4477,635.0746,57.0199,635.0092,56.8621,635.9758,57.2333,637.0963,57.9761,637.9334,58.0348,639.0592,58.7905,639.9803,59.0519,640.0392,59.0763,640.3104,60.0014,640.6924,60.9724,641.3302,62.0495,641.5207,62.9412,642.0124,63.9576,642.5598,63.9576,641.501,73.6224,642.5835,83.2872,642.4603,92.952,642.239,102.6168,642.0124,112.2815,642.0258,112.2871,641.8129,113.3484,641.3743,114.3162,640.8414,115.245,640.4631,116.2378,639.9803,117.1873,639.965,117.1502,639.0837,117.7978,638.0363,118.0442,637.0572,118.4557,635.9839,118.6396,635.0746,119.2193,635.0746,118.8445,625.8377,119.7103,616.6008,119.6169,607.3638,119.1796,598.1269,118.9213,588.89,119.0168,579.6531,118.5846,570.4162,119.603,561.1793,119.9034,551.9424,119.7063,542.7055,119.8622,533.4686,119.0928,524.2317,119.3,514.9947,118.8608,505.7578,119.4821,496.5209,119.4476,487.284,119.7303,478.0471,119.0069,468.8102,119.095,459.5733,119.6295,450.3364,119.7441,441.0995,118.7452,431.8626,119.04,422.6256,119.3574,413.3887,118.6543,404.1518,119.5462,394.9149,119.458,385.678,119.1261,376.4411,119.3509,367.2042,119.8934,357.9673,118.9299,348.7304,119.5107,339.4935,119.4836,330.2565,119.3264,321.0196,119.3497,311.7827,119.3243,302.5458,118.642,293.3089,118.8485,284.072,118.7924,274.8351,119.2784,265.5982,119.3008,256.3613,119.3689,247.1244,118.9502,237.8874,119.1569,228.6505,119.1081,219.4136,119.7529,210.1767,119.6139,200.9398,118.7702,191.7029,119.1519,182.466,118.6854,173.2291,119.4861,163.9922,119.7822,154.7553,119.7231,145.5183,118.8164,136.2814,119.6485,127.0445,118.5322,117.8076,119.4045,108.5707,118.9424,99.3338,119.3088,90.0969,119.4416,80.86,119.656,71.6231,118.5534,62.3862,119.6592,53.1492,119.3841,43.9123,119.548,34.6754,119.9111,25.4385,119.2193,25.4392,119.2209,24.478,118.8628,23.5014,118.4673,22.5183,118.0563,21.5138,117.5935,20.5328,117.1873,20.7352,117.2712,19.9527,116.1342,19.881,115.2917,19.1358,114.1702,18.7532,113.1989,18.5007,112.2815,18.5378,112.2815,18.5269,102.6168,18.0449,92.952,18.8834,83.2872,18.6014,73.6224,18.5007,63.9576,18.7077,64.0434,19.0972,63.0552,19.1859,61.9424,19.6066,60.9672,20.0896,60.0178,20.5328,59.0519,20.5747,59.1532,21.5615,58.7603,22.5306,58.3249,23.4359,57.7353,24.5325,57.6075,25.4385,57.0199" style="stroke:#000000;stroke-width:0.925;"/><text fill="#1E90FF" font-family="Arial" font-size="18.5007" font-weight="bold" lengthAdjust="spacing" textLength="586.5101" x="37.0015" y="95.2979">Diagrama de Sequ&#234;ncia - M&#243;dulo de Controle (MC) - Emerg&#234;ncia</text><!--SRC=[VP1DIiH048NtVOfofmCZ_knS299458mBXpb0JLB6WavNx9z1lOsu4DnwX5pCocGcCY3kcgxttbVr3jXLDjK4UN6zEEvIQut150Mho6kC1EACliN3CgJ-tREOtGFcbr1cIxY0guh58GYi9FOV0XhNeSSQpPEJ8MDD7eeGYJsg_8wROJPufuYSGoU15Rgnj-XavIVDhpUdODKEDFxy3TYAbE4f9k_WAYQq_3QiM2l8uki-lMXPKm8xj134YHSWiAbb9q4cgJWUYb2vMpD2ZRM4pQ4QUtjJcfr0jLD7AdxXbMP7Z2cev__DItGfaki_jSRzeYVu0w5ljM2o8_M_YesbXbmDKJe3irdEs7XiSMXuGS-f_tAL7ZA7il-kazqqducBNYp1OPaTwQXeoJUZS3OpGzYOQSoZADWROq2ZCmnQXlgNGQ2I5VaeuK8TC4oLaCrFJixr0-xwxuQhxGvDygZN8XpUFynFpuusW34Om9WV]--></g></svg>