<svg xmlns="http://www.w3.org/2000/svg" xmlns:xlink="http://www.w3.org/1999/xlink" contentStyleType="text/css" data-diagram-type="SEQUENCE" height="750.8364px" preserveAspectRatio="none" style="width:700px;height:750px;background:#EEEBDC;" version="1.1" viewBox="0 0 700 750" width="700.3926px" zoomAndPan="magnify"><defs/><g><rect fill="#EEEBDC" height="750.8364" style="stroke:none;stroke-width:0.9701;" width="700.3926" x="0" y="0"/><g><title>Usu.rio</title><polygon fill="#A9DCDF" points="101.0224,502.2534,101.0224,502.3213,102.9626,502.1194,104.9027,502.3159,106.8429,502.3826,108.783,502.0227,110.7232,502.2534,110.6478,502.2534,110.3094,512.1409,110.3511,522.0284,110.657,531.9159,110.0525,541.8034,111.2602,551.6909,110.1117,561.5785,110.5313,571.466,111.1422,581.3535,110.64,591.241,110.7894,601.1285,110.7232,611.016,110.7232,611.0057,108.783,611.0738,106.8429,611.0934,104.9027,611.2054,102.9626,611.233,101.0224,611.016,101.6814,611.016,101.2694,601.1285,101.4721,591.241,101.7037,581.3535,100.3228,571.466,101.6806,561.5785,100.7348,551.6909,101.5403,541.8034,100.5422,531.9159,100.956,522.0284,101.7418,512.1409,101.0224,502.2534" style="stroke:#181818;stroke-width:0.9701;"/></g><g><title>MCU</title><polygon fill="#A9DCDF" points="276.3671,223.2137,276.3671,223.2817,278.3072,223.0797,280.2474,223.2762,282.1875,223.3429,284.1277,222.983,286.0678,223.2137,285.9924,223.2137,285.6541,232.9088,285.6958,242.6038,286.0017,252.2989,285.3972,261.9939,286.6049,271.689,285.4564,281.3841,285.876,291.0791,286.4869,300.7742,285.9846,310.4692,286.134,320.1643,286.0368,329.8594,286.241,339.5544,286.2998,349.2495,286.636,358.9445,286.7188,368.6396,286.7268,378.3346,286.3148,388.0297,286.5175,397.7248,286.749,407.4198,285.3682,417.1149,286.726,426.8099,285.7802,436.505,286.5857,446.2,285.5876,455.8951,286.0014,465.5902,286.7872,475.2852,286.0206,484.9803,286.17,494.6753,286.3963,504.3704,286.4716,514.0655,286.064,523.7605,286.3465,533.4556,285.5125,543.1506,286.3437,552.8457,286.5996,562.5407,286.4991,572.2358,286.6625,581.9309,285.5992,591.6259,285.4352,601.321,286.0678,611.016,286.0678,610.8151,284.1277,610.997,282.1875,610.9525,280.2474,611.2364,278.3072,610.9596,276.3671,611.016,276.0343,611.016,276.5885,601.321,275.7202,591.6259,275.8635,581.9309,276.9966,572.2358,276.7897,562.5407,277.0796,552.8457,276.0549,543.1506,276.6767,533.4556,276.9399,523.7605,275.9088,514.0655,276.2741,504.3704,276.4893,494.6753,276.9994,484.9803,276.363,475.2852,276.8158,465.5902,275.8299,455.8951,275.7101,446.2,276.8556,436.505,275.6716,426.8099,276.8608,417.1149,276.5675,407.4198,276.1072,397.7248,276.0239,388.0297,276.8121,378.3346,276.0767,368.6396,276.9413,358.9445,275.8309,349.2495,276.9661,339.5544,276.8369,329.8594,276.6047,320.1643,276.4129,310.4692,277.072,300.7742,276.9623,291.0791,276.5313,281.3841,276.6273,271.689,276.2407,261.9939,277.0621,252.2989,276.5173,242.6038,276.5345,232.9088,276.3671,223.2137" style="stroke:#181818;stroke-width:0.9701;"/></g><g><title>MCU</title><polygon fill="#A9DCDF" points="281.2175,296.3689,281.2175,296.4368,283.1576,296.2349,285.0978,296.4314,287.0379,296.4981,288.9781,296.1382,290.9182,296.3689,290.8428,296.3689,290.5045,306.2016,290.5462,316.0343,290.8521,325.867,290.2475,335.6998,291.4553,345.5325,290.3068,355.3652,290.7263,365.1979,291.3372,375.0307,290.835,384.8634,290.9844,394.6961,290.8872,404.5288,291.0914,414.3616,291.1502,424.1943,291.4864,434.027,291.5692,443.8597,291.5771,453.6925,291.1652,463.5252,291.3679,473.3579,291.5994,483.1906,290.2186,493.0234,291.5764,502.8561,290.6306,512.6888,291.436,522.5215,290.438,532.3542,290.8517,542.187,291.6376,552.0197,290.8709,561.8524,291.0203,571.6851,291.2467,581.5179,291.322,591.3506,290.9144,601.1833,290.9182,611.016,290.9182,611.1089,288.9781,610.8309,287.0379,611.108,285.0978,611.1933,283.1576,611.1598,281.2175,611.016,281.8121,611.016,280.7488,601.1833,280.5848,591.3506,280.6147,581.5179,281.1603,571.6851,281.0268,561.8524,281.8785,552.0197,281.048,542.187,280.8847,532.3542,281.4389,522.5215,280.5706,512.6888,280.7139,502.8561,281.847,493.0234,281.6401,483.1906,281.93,473.3579,280.9053,463.5252,281.5271,453.6925,281.7902,443.8597,280.7592,434.027,281.1245,424.1943,281.3397,414.3616,281.8497,404.5288,281.2134,394.6961,281.6662,384.8634,280.6803,375.0307,280.5605,365.1979,281.706,355.3652,280.522,345.5325,281.7112,335.6998,281.4179,325.867,280.9576,316.0343,280.8743,306.2016,281.2175,296.3689" style="stroke:#181818;stroke-width:0.9701;"/></g><g><title>MCU</title><polygon fill="#A9DCDF" points="286.0678,435.8887,286.0678,435.9567,288.008,435.7547,289.9481,435.9512,291.8883,436.0179,293.8284,435.658,295.7686,435.8887,295.6932,435.8887,295.3548,445.618,295.3965,455.3473,295.7024,465.0766,295.0979,474.8059,296.3056,484.5352,295.1571,494.2645,295.5767,503.9938,296.1876,513.7231,295.6854,523.4524,295.8348,533.1817,295.7376,542.911,295.9417,552.6403,296.0005,562.3696,296.3367,572.0989,296.4195,581.8282,296.4275,591.5574,296.0156,601.2867,295.7686,611.016,295.7686,611.1659,293.8284,611.2431,291.8883,610.7828,289.9481,611.2354,288.008,610.9202,286.0678,611.016,286.5857,611.016,285.5876,601.2867,286.0014,591.5574,286.7872,581.8282,286.0206,572.0989,286.17,562.3696,286.3963,552.6403,286.4716,542.911,286.064,533.1817,286.3465,523.4524,285.5125,513.7231,286.3437,503.9938,286.5996,494.2645,286.4991,484.5352,286.6625,474.8059,285.5992,465.0766,285.4352,455.3473,285.465,445.618,286.0678,435.8887" style="stroke:#181818;stroke-width:0.9701;"/></g><g><title>Esteira</title><polygon fill="#A9DCDF" points="497.5332,331.9764,497.5332,332.0444,499.4734,331.8424,501.4135,332.0389,503.3537,332.1056,505.2938,331.7457,507.234,331.9764,507.1586,331.9764,506.8202,341.3185,506.8619,350.6606,507.1678,360.0026,506.5633,369.3447,507.771,378.6868,506.6225,388.0289,507.234,397.371,507.234,397.307,505.2938,397.5106,503.3537,397.3432,501.4135,397.393,499.4734,397.3606,497.5332,397.371,497.7064,397.371,497.7652,388.0289,498.1014,378.6868,498.1842,369.3447,498.1922,360.0026,497.7802,350.6606,497.9829,341.3185,497.5332,331.9764" style="stroke:#181818;stroke-width:0.9701;"/></g><g><title>Monitor</title><polygon fill="#A9DCDF" points="578.1961,471.4962,578.1961,471.5642,580.1362,471.3622,582.0764,471.5587,584.0165,471.6255,585.9567,471.2655,587.8968,471.4962,587.8214,471.4962,587.4831,481.4619,587.5248,491.4276,587.8307,501.3933,587.2261,511.359,588.4339,521.3247,587.2854,531.2904,587.705,541.2561,588.3158,551.2218,587.8136,561.1875,587.963,571.1532,587.8658,581.1189,588.07,591.0846,588.1288,601.0503,587.8968,611.016,587.8968,611.2054,585.9567,611.233,584.0165,611.2357,582.0764,611.0984,580.1362,611.1659,578.1961,611.016,578.8773,611.016,577.4965,601.0503,578.8543,591.0846,577.9085,581.1189,578.7139,571.1532,577.7159,561.1875,578.1296,551.2218,578.9155,541.2561,578.1488,531.2904,578.2982,521.3247,578.5246,511.359,578.5999,501.3933,578.1923,491.4276,578.4747,481.4619,578.1961,471.4962" style="stroke:#181818;stroke-width:0.9701;"/></g><g><title>Monitor</title><polygon fill="#A9DCDF" points="583.0465,567.6479,583.0465,567.7159,584.9866,567.514,586.9267,567.7104,588.8669,567.7772,590.807,567.4173,592.7472,567.6479,592.7221,567.6479,592.6093,576.3216,592.6232,584.9952,592.7251,593.6688,592.5236,602.3424,592.7472,611.016,592.7472,611.1951,590.807,610.8122,588.8669,610.9521,586.9267,611.1557,584.9866,610.9883,583.0465,611.016,583.0685,611.016,583.0361,602.3424,583.1042,593.6688,583.1238,584.9952,583.2358,576.3216,583.0465,567.6479" style="stroke:#181818;stroke-width:0.9701;"/></g><g><title>Usu.rio</title><polygon fill="#000000" fill-opacity="0.00000" points="101.9925,190.5164,101.9925,190.5844,103.5446,190.3824,105.0967,190.5789,106.6489,190.6457,108.201,190.2857,109.7531,190.5164,109.6777,190.5164,109.3394,200.2717,109.3811,210.0269,109.687,219.7821,109.0824,229.5374,110.2902,239.2926,109.1417,249.0478,109.5612,258.8031,110.1721,268.5583,109.6699,278.3135,109.8193,288.0688,109.7221,297.824,109.9263,307.5792,109.9851,317.3345,110.3213,327.0897,110.4041,336.8449,110.412,346.6002,110.0001,356.3554,110.2028,366.1106,110.4343,375.8659,109.0535,385.6211,110.4113,395.3763,109.4655,405.1316,110.2709,414.8868,109.2729,424.642,109.6866,434.3973,110.4725,444.1525,109.7058,453.9077,109.8552,463.663,110.0816,473.4182,110.1569,483.1734,109.7493,492.9287,110.0317,502.6839,109.1978,512.4391,110.029,522.1944,110.2849,531.9496,110.1843,541.7048,110.3478,551.4601,109.2845,561.2153,109.1204,570.9705,109.1503,580.7258,109.696,590.481,109.5624,600.2362,110.4141,609.9915,109.7531,619.7467,109.7531,619.6902,108.201,619.6358,106.6489,619.8205,105.0967,619.5311,103.5446,619.5788,101.9925,619.7467,102.622,619.7467,102.4151,609.9915,102.705,600.2362,101.6803,590.481,102.3022,580.7258,102.5653,570.9705,101.5342,561.2153,101.8995,551.4601,102.1147,541.7048,102.6248,531.9496,101.9884,522.1944,102.4412,512.4391,101.4553,502.6839,101.3355,492.9287,102.481,483.1734,101.297,473.4182,102.4862,463.663,102.193,453.9077,101.7326,444.1525,101.6493,434.3973,102.4375,424.642,101.7021,414.8868,102.5667,405.1316,101.4563,395.3763,102.5915,385.6211,102.4623,375.8659,102.2301,366.1106,102.0383,356.3554,102.6974,346.6002,102.5877,336.8449,102.1567,327.0897,102.2527,317.3345,101.8661,307.5792,102.6875,297.824,102.1427,288.0688,102.1599,278.3135,101.4024,268.5583,101.5994,258.8031,102.5074,249.0478,102.4094,239.2926,101.9509,229.5374,101.68,219.7821,101.7801,210.0269,101.3269,200.2717,101.9925,190.5164"/><path d="M105.7249,190.5164 L105.9968,190.5164 L105.189,200.2717 L105.9749,210.0269 L106.2419,219.7821 L104.8022,229.5374 L105.6244,239.2926 L105.1733,249.0478 L105.2289,258.8031 L105.6368,268.5583 L104.8307,278.3135 L106.441,288.0688 L104.9097,297.824 L105.4691,307.5792 L106.2836,317.3345 L105.614,327.0897 L105.8132,336.8449 L105.6836,346.6002 L105.9559,356.3554 L106.0342,366.1106 L106.4825,375.8659 L106.5929,385.6211 L106.6035,395.3763 L106.0543,405.1316 L106.3246,414.8868 L106.6332,424.642 L104.7921,434.3973 L106.6025,444.1525 L105.3414,453.9077 L106.4154,463.663 L105.0847,473.4182 L105.6363,483.1734 L106.6842,492.9287 L105.6619,502.6839 L105.8611,512.4391 L106.1629,522.1944 L106.2633,531.9496 L105.7199,541.7048 L106.0964,551.4601 L104.9846,561.2153 L106.0928,570.9705 L106.434,580.7258 L106.2999,590.481 L106.5178,600.2362 L105.1001,609.9915 L105.7249,619.7467" fill="none" style="stroke:#0000FF;stroke-width:0.485;stroke-dasharray:4.8504,4.8504;"/></g><g><title>MCU</title><polygon fill="#000000" fill-opacity="0.00000" points="277.3372,190.5164,277.3372,190.5844,278.8893,190.3824,280.4414,190.5789,281.9935,190.6457,283.5456,190.2857,285.0978,190.5164,285.0224,190.5164,284.684,200.2717,284.7257,210.0269,285.0316,219.7821,284.4271,229.5374,285.6348,239.2926,284.4863,249.0478,284.9059,258.8031,285.5168,268.5583,285.0146,278.3135,285.164,288.0688,285.0668,297.824,285.2709,307.5792,285.3297,317.3345,285.6659,327.0897,285.7487,336.8449,285.7567,346.6002,285.3448,356.3554,285.5475,366.1106,285.779,375.8659,284.3982,385.6211,285.756,395.3763,284.8101,405.1316,285.6156,414.8868,284.6176,424.642,285.0313,434.3973,285.8172,444.1525,285.0505,453.9077,285.1999,463.663,285.4263,473.4182,285.5015,483.1734,285.094,492.9287,285.3764,502.6839,284.5425,512.4391,285.3736,522.1944,285.6295,531.9496,285.529,541.7048,285.6924,551.4601,284.6291,561.2153,284.4651,570.9705,284.495,580.7258,285.0406,590.481,284.9071,600.2362,285.7588,609.9915,285.0978,619.7467,285.0978,619.6902,283.5456,619.6358,281.9935,619.8205,280.4414,619.5311,278.8893,619.5788,277.3372,619.7467,277.9667,619.7467,277.7598,609.9915,278.0497,600.2362,277.025,590.481,277.6468,580.7258,277.9099,570.9705,276.8789,561.2153,277.2442,551.4601,277.4594,541.7048,277.9694,531.9496,277.3331,522.1944,277.7859,512.4391,276.8,502.6839,276.6802,492.9287,277.8257,483.1734,276.6417,473.4182,277.8309,463.663,277.5376,453.9077,277.0773,444.1525,276.994,434.3973,277.7822,424.642,277.0468,414.8868,277.9113,405.1316,276.801,395.3763,277.9361,385.6211,277.807,375.8659,277.5748,366.1106,277.383,356.3554,278.042,346.6002,277.9324,336.8449,277.5014,327.0897,277.5973,317.3345,277.2108,307.5792,278.0322,297.824,277.4874,288.0688,277.5046,278.3135,276.747,268.5583,276.9441,258.8031,277.852,249.0478,277.7541,239.2926,277.2955,229.5374,277.0246,219.7821,277.1248,210.0269,276.6715,200.2717,277.3372,190.5164"/><path d="M280.9313,190.5164 L281.2032,190.5164 L280.3954,200.2717 L281.1813,210.0269 L281.4483,219.7821 L280.0086,229.5374 L280.8308,239.2926 L280.3797,249.0478 L280.4353,258.8031 L280.8432,268.5583 L280.0371,278.3135 L281.6474,288.0688 L280.1161,297.824 L280.6755,307.5792 L281.49,317.3345 L280.8204,327.0897 L281.0196,336.8449 L280.89,346.6002 L281.1623,356.3554 L281.2406,366.1106 L281.6889,375.8659 L281.7993,385.6211 L281.8099,395.3763 L281.2607,405.1316 L281.531,414.8868 L281.8396,424.642 L279.9985,434.3973 L281.8089,444.1525 L280.5478,453.9077 L281.6218,463.663 L280.2911,473.4182 L280.8427,483.1734 L281.8906,492.9287 L280.8683,502.6839 L281.0675,512.4391 L281.3693,522.1944 L281.4697,531.9496 L280.9263,541.7048 L281.3028,551.4601 L280.191,561.2153 L281.2992,570.9705 L281.6404,580.7258 L281.5063,590.481 L281.7242,600.2362 L280.3065,609.9915 L280.9313,619.7467" fill="none" style="stroke:#0000FF;stroke-width:0.485;stroke-dasharray:4.8504,4.8504;"/></g><g><title>Esteira</title><polygon fill="#000000" fill-opacity="0.00000" points="498.5033,190.5164,498.5033,190.5844,500.0554,190.3824,501.6075,190.5789,503.1596,190.6457,504.7118,190.2857,506.2639,190.5164,506.1885,190.5164,505.8502,200.2717,505.8919,210.0269,506.1978,219.7821,505.5932,229.5374,506.801,239.2926,505.6525,249.0478,506.072,258.8031,506.6829,268.5583,506.1807,278.3135,506.3301,288.0688,506.2329,297.824,506.4371,307.5792,506.4959,317.3345,506.832,327.0897,506.9149,336.8449,506.9228,346.6002,506.5109,356.3554,506.7136,366.1106,506.9451,375.8659,505.5643,385.6211,506.9221,395.3763,505.9763,405.1316,506.7817,414.8868,505.7837,424.642,506.1974,434.3973,506.9833,444.1525,506.2166,453.9077,506.366,463.663,506.5924,473.4182,506.6677,483.1734,506.2601,492.9287,506.5425,502.6839,505.7086,512.4391,506.5398,522.1944,506.7957,531.9496,506.6951,541.7048,506.8586,551.4601,505.7953,561.2153,505.6312,570.9705,505.6611,580.7258,506.2068,590.481,506.0732,600.2362,506.9249,609.9915,506.2639,619.7467,506.2639,619.6902,504.7118,619.6358,503.1596,619.8205,501.6075,619.5311,500.0554,619.5788,498.5033,619.7467,499.1328,619.7467,498.9259,609.9915,499.2158,600.2362,498.1911,590.481,498.8129,580.7258,499.076,570.9705,498.045,561.2153,498.4103,551.4601,498.6255,541.7048,499.1356,531.9496,498.4992,522.1944,498.952,512.4391,497.9661,502.6839,497.8463,492.9287,498.9918,483.1734,497.8078,473.4182,498.997,463.663,498.7037,453.9077,498.2434,444.1525,498.1601,434.3973,498.9483,424.642,498.2129,414.8868,499.0774,405.1316,497.9671,395.3763,499.1022,385.6211,498.9731,375.8659,498.7409,366.1106,498.5491,356.3554,499.2082,346.6002,499.0985,336.8449,498.6675,327.0897,498.7635,317.3345,498.3769,307.5792,499.1983,297.824,498.6535,288.0688,498.6707,278.3135,497.9132,268.5583,498.1102,258.8031,499.0182,249.0478,498.9202,239.2926,498.4617,229.5374,498.1908,219.7821,498.2909,210.0269,497.8377,200.2717,498.5033,190.5164"/><path d="M502.2556,190.5164 L502.5275,190.5164 L501.7197,200.2717 L502.5056,210.0269 L502.7726,219.7821 L501.3329,229.5374 L502.1551,239.2926 L501.704,249.0478 L501.7596,258.8031 L502.1675,268.5583 L501.3614,278.3135 L502.9717,288.0688 L501.4404,297.824 L501.9998,307.5792 L502.8143,317.3345 L502.1447,327.0897 L502.3439,336.8449 L502.2143,346.6002 L502.4865,356.3554 L502.5649,366.1106 L503.0132,375.8659 L503.1236,385.6211 L503.1342,395.3763 L502.585,405.1316 L502.8552,414.8868 L503.1639,424.642 L501.3228,434.3973 L503.1332,444.1525 L501.8721,453.9077 L502.9461,463.663 L501.6153,473.4182 L502.167,483.1734 L503.2148,492.9287 L502.1926,502.6839 L502.3918,512.4391 L502.6936,522.1944 L502.794,531.9496 L502.2506,541.7048 L502.6271,551.4601 L501.5152,561.2153 L502.6234,570.9705 L502.9647,580.7258 L502.8306,590.481 L503.0485,600.2362 L501.6308,609.9915 L502.2556,619.7467" fill="none" style="stroke:#0000FF;stroke-width:0.485;stroke-dasharray:4.8504,4.8504;"/></g><g><title>Monitor</title><polygon fill="#000000" fill-opacity="0.00000" points="579.1662,190.5164,579.1662,190.5844,580.7183,190.3824,582.2704,190.5789,583.8225,190.6457,585.3746,190.2857,586.9267,190.5164,586.8514,190.5164,586.513,200.2717,586.5547,210.0269,586.8606,219.7821,586.2561,229.5374,587.4638,239.2926,586.3153,249.0478,586.7349,258.8031,587.3458,268.5583,586.8435,278.3135,586.9929,288.0688,586.8958,297.824,587.0999,307.5792,587.1587,317.3345,587.4949,327.0897,587.5777,336.8449,587.5857,346.6002,587.1738,356.3554,587.3765,366.1106,587.608,375.8659,586.2271,385.6211,587.585,395.3763,586.6391,405.1316,587.4446,414.8868,586.4465,424.642,586.8603,434.3973,587.6462,444.1525,586.8795,453.9077,587.0289,463.663,587.2552,473.4182,587.3305,483.1734,586.923,492.9287,587.2054,502.6839,586.3715,512.4391,587.2026,522.1944,587.4585,531.9496,587.358,541.7048,587.5214,551.4601,586.4581,561.2153,586.2941,570.9705,586.3239,580.7258,586.8696,590.481,586.7361,600.2362,587.5878,609.9915,586.9267,619.7467,586.9267,619.6902,585.3746,619.6358,583.8225,619.8205,582.2704,619.5311,580.7183,619.5788,579.1662,619.7467,579.7957,619.7467,579.5888,609.9915,579.8787,600.2362,578.854,590.481,579.4758,580.7258,579.7389,570.9705,578.7079,561.2153,579.0732,551.4601,579.2884,541.7048,579.7984,531.9496,579.1621,522.1944,579.6149,512.4391,578.629,502.6839,578.5092,492.9287,579.6547,483.1734,578.4707,473.4182,579.6599,463.663,579.3666,453.9077,578.9063,444.1525,578.823,434.3973,579.6112,424.642,578.8758,414.8868,579.7403,405.1316,578.63,395.3763,579.7651,385.6211,579.636,375.8659,579.4038,366.1106,579.212,356.3554,579.871,346.6002,579.7614,336.8449,579.3304,327.0897,579.4263,317.3345,579.0398,307.5792,579.8612,297.824,579.3164,288.0688,579.3336,278.3135,578.576,268.5583,578.7731,258.8031,579.681,249.0478,579.5831,239.2926,579.1245,229.5374,578.8536,219.7821,578.9538,210.0269,578.5005,200.2717,579.1662,190.5164"/><path d="M583.0276,190.5164 L583.2995,190.5164 L582.4917,200.2717 L583.2776,210.0269 L583.5446,219.7821 L582.1049,229.5374 L582.9271,239.2926 L582.476,249.0478 L582.5316,258.8031 L582.9395,268.5583 L582.1334,278.3135 L583.7437,288.0688 L582.2124,297.824 L582.7718,307.5792 L583.5863,317.3345 L582.9167,327.0897 L583.1159,336.8449 L582.9863,346.6002 L583.2585,356.3554 L583.3369,366.1106 L583.7852,375.8659 L583.8956,385.6211 L583.9062,395.3763 L583.357,405.1316 L583.6272,414.8868 L583.9359,424.642 L582.0948,434.3973 L583.9052,444.1525 L582.6441,453.9077 L583.7181,463.663 L582.3873,473.4182 L582.939,483.1734 L583.9868,492.9287 L582.9646,502.6839 L583.1638,512.4391 L583.4656,522.1944 L583.566,531.9496 L583.0226,541.7048 L583.3991,551.4601 L582.2872,561.2153 L583.3955,570.9705 L583.7367,580.7258 L583.6026,590.481 L583.8205,600.2362 L582.4028,609.9915 L583.0276,619.7467" fill="none" style="stroke:#0000FF;stroke-width:0.485;stroke-dasharray:4.8504,4.8504;"/></g><g class="participant participant-head" data-participant="Usu.rio"><text fill="#1E90FF" font-family="Aapex" font-size="16.4912" lengthAdjust="spacing" textLength="60.4402" x="72.7425" y="185.6845">Usu&#225;rio</text><polygon fill="#00BFFF" points="113.6763,119.9843,112.5387,121.5387,111.1932,123.8153,109.2688,125.3495,107.2467,126.1885,105.6343,126.2614,103.562,125.2121,101.6067,124.5266,100.1226,123.1348,99.3441,121.5415,98.8824,120.2728,98.4301,118.6157,97.696,117.1897,98.2601,115.7974,98.7544,114.2723,100.6092,113.066,101.9142,111.5009,103.5294,110.9812,105.4496,110.5336,107.912,110.7996,109.2607,111.4356,110.8288,111.7239,112.7354,113.6773,113.4,115.7395,113.6888,117.1466,113.3617,119.4652" style="stroke:#00BFFF;stroke-width:0.485;"/><path d="M105.8728,125.8572 L106.054,125.8572 L105.5155,131.0956 L106.0395,136.334 L106.2174,141.5724 L105.2576,146.8108 L105.8728,152.0492 M93.2619,133.6178 L93.2619,133.5508 L98.3062,133.2501 L103.3506,133.2871 L108.395,133.559 L113.4394,133.0217 L118.4837,133.6178 M105.8728,152.0492 L106.2336,152.3619 L102.9399,154.6035 L100.6996,157.7579 L98.5877,161.0238 L95.7281,163.6416 L93.2619,166.6003 M105.8728,152.0492 L105.9173,152.0877 L108.3742,154.9414 L111.0335,157.9705 L113.5952,160.9149 L116.3432,164.0208 L118.4837,166.6003" fill="none" style="stroke:#00BFFF;stroke-width:0.485;"/></g><g class="participant participant-head" data-participant="MCU"><polygon fill="#1E90FF" points="258.1346,153.5043,258.1346,153.7082,267.3678,153.1024,276.6009,153.6918,285.834,153.892,295.0672,152.8123,304.3003,153.5043,304.2907,153.4811,304.5905,153.519,304.9388,153.6739,305.3208,153.9101,305.5866,153.866,306.0152,154.2146,306.1806,154.2831,305.9689,154.4796,306.2402,154.8761,306.5704,155.297,306.5578,155.5759,306.7255,155.9295,306.7476,155.9295,306.7152,162.1678,306.7832,168.4062,306.8028,174.6445,306.9149,180.8828,306.7255,187.1212,306.926,187.2042,306.7863,187.5482,306.5174,187.8386,306.4378,188.2074,306.367,188.5799,306.0152,188.836,305.9259,188.6206,305.7562,189.1808,305.2925,189.0316,305.0523,189.4217,304.582,189.2564,304.3003,189.5463,304.3003,189.4799,295.0672,190.2658,285.834,189.4991,276.6009,189.6485,267.3678,189.8748,258.1346,189.5463,258.1861,189.6707,257.7912,189.4031,257.4842,189.348,257.0349,188.9491,256.7979,189.063,256.4198,188.836,256.5835,188.9039,256.4105,188.5481,256.3188,188.2259,255.8493,187.7473,255.6567,187.3834,255.7094,187.1212,255.5085,187.1212,255.6904,180.8828,255.6459,174.6445,255.9298,168.4062,255.653,162.1678,255.7094,155.9295,255.607,155.887,255.9197,155.6148,255.7944,155.161,255.9806,154.8363,256.4716,154.6379,256.4198,154.2146,256.4737,154.3448,256.8536,154.292,257.0659,153.8344,257.4882,153.8838,257.8647,153.8228,258.1346,153.5043" style="stroke:#00BFFF;stroke-width:0.485;"/><text fill="#A9DCDF" font-family="Impact" font-size="16.4912" lengthAdjust="spacing" textLength="37.435" x="262.5" y="177.9239">MCU</text></g><g class="participant participant-head" data-participant="Esteira"><polygon fill="#1E90FF" points="471.6983,153.5043,471.6983,153.7082,481.9267,153.1024,492.1552,153.6918,502.3836,153.892,512.612,152.8123,522.8404,153.4289,533.0689,153.5043,533.0161,153.3769,533.3644,153.5318,533.7464,153.7681,534.0122,153.724,534.5093,154.238,534.7837,154.2146,534.5954,154.1366,534.8667,154.5331,535.1969,154.954,535.1843,155.2329,535.3724,155.595,535.494,155.9295,535.4837,155.9295,535.5518,162.1678,535.5714,168.4062,535.6834,174.6445,535.711,180.8828,535.494,187.1212,535.697,187.2052,535.4281,187.4956,535.3484,187.8645,535.2776,188.237,534.7103,188.4038,534.7837,188.836,534.8677,189.0387,534.4041,188.8895,534.1638,189.2796,533.6936,189.1143,533.4034,189.3838,533.0689,189.5463,533.0689,190.2658,522.8404,189.4991,512.612,189.6485,502.3836,189.8748,492.1552,189.9501,481.9267,189.5426,471.6983,189.5463,471.7339,189.6321,471.2845,189.2333,471.0476,189.3472,470.7372,189.2839,470.3814,189.1109,469.9835,188.836,470.1666,188.9119,469.6971,188.4333,469.5045,188.0694,469.3716,187.7302,469.3976,187.4568,469.2731,187.1212,469.2096,187.1212,469.4935,180.8828,469.2167,174.6445,469.1622,168.4062,469.3469,162.1678,469.2731,155.9295,469.0739,155.847,469.2601,155.5223,469.7511,155.3238,469.8295,154.9545,470.0608,154.6485,469.9835,154.2146,469.9436,154.1185,470.3659,154.1679,470.7425,154.1069,470.9539,153.6473,471.3435,153.6177,471.6983,153.5043" style="stroke:#00BFFF;stroke-width:0.485;"/><text fill="#A9DCDF" font-family="Impact" font-size="16.4912" lengthAdjust="spacing" textLength="52.6399" x="476.0636" y="177.9239">Esteira</text></g><g class="participant participant-head" data-participant="Monitor"><polygon fill="#1E90FF" points="547.62,153.5043,547.62,153.7082,557.7418,153.1024,567.8637,153.6918,577.9855,153.892,588.1074,152.8123,598.2292,153.4289,608.3511,153.0906,618.473,153.5043,618.4255,153.3897,618.8075,153.626,619.0733,153.5819,619.5704,154.0959,619.7668,153.8843,620.1878,154.2146,620.1287,154.1902,620.4589,154.6111,620.4463,154.89,620.6344,155.252,620.7465,155.5826,620.8981,155.9295,620.9559,155.9295,620.9755,162.1678,621.0875,168.4062,621.1151,174.6445,621.1178,180.8828,620.8981,187.1212,620.9742,187.1527,620.8946,187.5215,620.8238,187.894,620.2565,188.0608,620.5326,188.577,620.1878,188.836,620.1511,188.7474,619.9109,189.1376,619.4406,188.9723,619.1504,189.2418,618.9077,189.6258,618.473,189.5463,618.473,189.4991,608.3511,189.6485,598.2292,189.8748,588.1074,189.9501,577.9855,189.5426,567.8637,189.825,557.7418,188.9911,547.62,189.5463,547.6551,189.6313,547.3448,189.568,546.989,189.395,546.6669,189.3033,546.1883,188.8338,545.9051,188.836,545.7103,188.7553,545.5774,188.4162,545.6034,188.1428,545.4202,187.7828,545.5404,187.5485,545.1948,187.1212,545.1383,187.1212,545.0838,180.8828,545.2686,174.6445,544.9791,168.4062,545.0269,162.1678,545.1948,155.9295,545.3886,156.0098,545.467,155.6404,545.6983,155.3344,545.5248,154.8608,545.8584,154.5971,545.9051,154.2146,545.9782,154.391,546.1896,153.9314,546.5792,153.9019,546.9496,153.8261,547.3576,153.8411,547.62,153.5043" style="stroke:#00BFFF;stroke-width:0.485;"/><text fill="#A9DCDF" font-family="Impact" font-size="16.4912" lengthAdjust="spacing" textLength="62.1223" x="551.9853" y="177.9239">Monitor</text></g><g><title>Usu.rio</title><polygon fill="#A9DCDF" points="101.0224,502.2534,101.0224,502.3213,102.9626,502.1194,104.9027,502.3159,106.8429,502.3826,108.783,502.0227,110.7232,502.2534,110.6478,502.2534,110.3094,512.1409,110.3511,522.0284,110.657,531.9159,110.0525,541.8034,111.2602,551.6909,110.1117,561.5785,110.5313,571.466,111.1422,581.3535,110.64,591.241,110.7894,601.1285,110.7232,611.016,110.7232,611.0057,108.783,611.0738,106.8429,611.0934,104.9027,611.2054,102.9626,611.233,101.0224,611.016,101.6814,611.016,101.2694,601.1285,101.4721,591.241,101.7037,581.3535,100.3228,571.466,101.6806,561.5785,100.7348,551.6909,101.5403,541.8034,100.5422,531.9159,100.956,522.0284,101.7418,512.1409,101.0224,502.2534" style="stroke:#181818;stroke-width:0.9701;"/></g><g><title>MCU</title><polygon fill="#A9DCDF" points="276.3671,223.2137,276.3671,223.2817,278.3072,223.0797,280.2474,223.2762,282.1875,223.3429,284.1277,222.983,286.0678,223.2137,285.9924,223.2137,285.6541,232.9088,285.6958,242.6038,286.0017,252.2989,285.3972,261.9939,286.6049,271.689,285.4564,281.3841,285.876,291.0791,286.4869,300.7742,285.9846,310.4692,286.134,320.1643,286.0368,329.8594,286.241,339.5544,286.2998,349.2495,286.636,358.9445,286.7188,368.6396,286.7268,378.3346,286.3148,388.0297,286.5175,397.7248,286.749,407.4198,285.3682,417.1149,286.726,426.8099,285.7802,436.505,286.5857,446.2,285.5876,455.8951,286.0014,465.5902,286.7872,475.2852,286.0206,484.9803,286.17,494.6753,286.3963,504.3704,286.4716,514.0655,286.064,523.7605,286.3465,533.4556,285.5125,543.1506,286.3437,552.8457,286.5996,562.5407,286.4991,572.2358,286.6625,581.9309,285.5992,591.6259,285.4352,601.321,286.0678,611.016,286.0678,610.8151,284.1277,610.997,282.1875,610.9525,280.2474,611.2364,278.3072,610.9596,276.3671,611.016,276.0343,611.016,276.5885,601.321,275.7202,591.6259,275.8635,581.9309,276.9966,572.2358,276.7897,562.5407,277.0796,552.8457,276.0549,543.1506,276.6767,533.4556,276.9399,523.7605,275.9088,514.0655,276.2741,504.3704,276.4893,494.6753,276.9994,484.9803,276.363,475.2852,276.8158,465.5902,275.8299,455.8951,275.7101,446.2,276.8556,436.505,275.6716,426.8099,276.8608,417.1149,276.5675,407.4198,276.1072,397.7248,276.0239,388.0297,276.8121,378.3346,276.0767,368.6396,276.9413,358.9445,275.8309,349.2495,276.9661,339.5544,276.8369,329.8594,276.6047,320.1643,276.4129,310.4692,277.072,300.7742,276.9623,291.0791,276.5313,281.3841,276.6273,271.689,276.2407,261.9939,277.0621,252.2989,276.5173,242.6038,276.5345,232.9088,276.3671,223.2137" style="stroke:#181818;stroke-width:0.9701;"/></g><g><title>MCU</title><polygon fill="#A9DCDF" points="281.2175,296.3689,281.2175,296.4368,283.1576,296.2349,285.0978,296.4314,287.0379,296.4981,288.9781,296.1382,290.9182,296.3689,290.8428,296.3689,290.5045,306.2016,290.5462,316.0343,290.8521,325.867,290.2475,335.6998,291.4553,345.5325,290.3068,355.3652,290.7263,365.1979,291.3372,375.0307,290.835,384.8634,290.9844,394.6961,290.8872,404.5288,291.0914,414.3616,291.1502,424.1943,291.4864,434.027,291.5692,443.8597,291.5771,453.6925,291.1652,463.5252,291.3679,473.3579,291.5994,483.1906,290.2186,493.0234,291.5764,502.8561,290.6306,512.6888,291.436,522.5215,290.438,532.3542,290.8517,542.187,291.6376,552.0197,290.8709,561.8524,291.0203,571.6851,291.2467,581.5179,291.322,591.3506,290.9144,601.1833,290.9182,611.016,290.9182,611.1089,288.9781,610.8309,287.0379,611.108,285.0978,611.1933,283.1576,611.1598,281.2175,611.016,281.8121,611.016,280.7488,601.1833,280.5848,591.3506,280.6147,581.5179,281.1603,571.6851,281.0268,561.8524,281.8785,552.0197,281.048,542.187,280.8847,532.3542,281.4389,522.5215,280.5706,512.6888,280.7139,502.8561,281.847,493.0234,281.6401,483.1906,281.93,473.3579,280.9053,463.5252,281.5271,453.6925,281.7902,443.8597,280.7592,434.027,281.1245,424.1943,281.3397,414.3616,281.8497,404.5288,281.2134,394.6961,281.6662,384.8634,280.6803,375.0307,280.5605,365.1979,281.706,355.3652,280.522,345.5325,281.7112,335.6998,281.4179,325.867,280.9576,316.0343,280.8743,306.2016,281.2175,296.3689" style="stroke:#181818;stroke-width:0.9701;"/></g><g><title>MCU</title><polygon fill="#A9DCDF" points="286.0678,435.8887,286.0678,435.9567,288.008,435.7547,289.9481,435.9512,291.8883,436.0179,293.8284,435.658,295.7686,435.8887,295.6932,435.8887,295.3548,445.618,295.3965,455.3473,295.7024,465.0766,295.0979,474.8059,296.3056,484.5352,295.1571,494.2645,295.5767,503.9938,296.1876,513.7231,295.6854,523.4524,295.8348,533.1817,295.7376,542.911,295.9417,552.6403,296.0005,562.3696,296.3367,572.0989,296.4195,581.8282,296.4275,591.5574,296.0156,601.2867,295.7686,611.016,295.7686,611.1659,293.8284,611.2431,291.8883,610.7828,289.9481,611.2354,288.008,610.9202,286.0678,611.016,286.5857,611.016,285.5876,601.2867,286.0014,591.5574,286.7872,581.8282,286.0206,572.0989,286.17,562.3696,286.3963,552.6403,286.4716,542.911,286.064,533.1817,286.3465,523.4524,285.5125,513.7231,286.3437,503.9938,286.5996,494.2645,286.4991,484.5352,286.6625,474.8059,285.5992,465.0766,285.4352,455.3473,285.465,445.618,286.0678,435.8887" style="stroke:#181818;stroke-width:0.9701;"/></g><g><title>Esteira</title><polygon fill="#A9DCDF" points="497.5332,331.9764,497.5332,332.0444,499.4734,331.8424,501.4135,332.0389,503.3537,332.1056,505.2938,331.7457,507.234,331.9764,507.1586,331.9764,506.8202,341.3185,506.8619,350.6606,507.1678,360.0026,506.5633,369.3447,507.771,378.6868,506.6225,388.0289,507.234,397.371,507.234,397.307,505.2938,397.5106,503.3537,397.3432,501.4135,397.393,499.4734,397.3606,497.5332,397.371,497.7064,397.371,497.7652,388.0289,498.1014,378.6868,498.1842,369.3447,498.1922,360.0026,497.7802,350.6606,497.9829,341.3185,497.5332,331.9764" style="stroke:#181818;stroke-width:0.9701;"/></g><g><title>Monitor</title><polygon fill="#A9DCDF" points="578.1961,471.4962,578.1961,471.5642,580.1362,471.3622,582.0764,471.5587,584.0165,471.6255,585.9567,471.2655,587.8968,471.4962,587.8214,471.4962,587.4831,481.4619,587.5248,491.4276,587.8307,501.3933,587.2261,511.359,588.4339,521.3247,587.2854,531.2904,587.705,541.2561,588.3158,551.2218,587.8136,561.1875,587.963,571.1532,587.8658,581.1189,588.07,591.0846,588.1288,601.0503,587.8968,611.016,587.8968,611.2054,585.9567,611.233,584.0165,611.2357,582.0764,611.0984,580.1362,611.1659,578.1961,611.016,578.8773,611.016,577.4965,601.0503,578.8543,591.0846,577.9085,581.1189,578.7139,571.1532,577.7159,561.1875,578.1296,551.2218,578.9155,541.2561,578.1488,531.2904,578.2982,521.3247,578.5246,511.359,578.5999,501.3933,578.1923,491.4276,578.4747,481.4619,578.1961,471.4962" style="stroke:#181818;stroke-width:0.9701;"/></g><g><title>Monitor</title><polygon fill="#A9DCDF" points="583.0465,567.6479,583.0465,567.7159,584.9866,567.514,586.9267,567.7104,588.8669,567.7772,590.807,567.4173,592.7472,567.6479,592.7221,567.6479,592.6093,576.3216,592.6232,584.9952,592.7251,593.6688,592.5236,602.3424,592.7472,611.016,592.7472,611.1951,590.807,610.8122,588.8669,610.9521,586.9267,611.1557,584.9866,610.9883,583.0465,611.016,583.0685,611.016,583.0361,602.3424,583.1042,593.6688,583.1238,584.9952,583.2358,576.3216,583.0465,567.6479" style="stroke:#181818;stroke-width:0.9701;"/></g><g class="message" data-participant-1="Usu.rio" data-participant-2="MCU"><polygon fill="#00BFFF" points="264.7262,219.3334,264.7515,219.3965,266.6166,219.9851,268.6297,220.9436,270.5947,221.7816,272.4011,222.2235,274.427,223.2137,274.4176,223.1904,272.4356,223.8617,270.5006,224.6507,268.5983,225.5214,266.5833,226.1104,264.7262,227.094,264.8528,227.2206,265.3582,226.1738,266.2331,225.4967,267.1532,224.8646,267.8109,223.9702,268.6065,223.2137,268.6221,223.2293,267.8232,222.4303,267.0952,221.7024,266.333,220.9402,265.6362,220.2434,264.7262,219.3334" style="stroke:#00BFFF;stroke-width:0.9701;"/><path d="M105.8728,223.2137 L105.8728,223.4856 L115.5595,222.6778 L125.2462,223.4637 L134.9329,223.7307 L144.6196,222.291 L154.3063,223.1132 L163.993,222.6621 L173.6797,222.7177 L183.3664,223.1256 L193.0531,222.3195 L202.7398,223.9298 L212.4265,222.3985 L222.1132,222.9579 L231.7999,223.7724 L241.4866,223.1028 L251.1733,223.302 L260.86,223.1724 L270.5467,223.2137" fill="none" style="stroke:#00BFFF;stroke-width:0.9701;"/><text fill="#000000" font-family="sans-serif" font-size="12.6109" lengthAdjust="spacing" textLength="152.0629" x="112.6633" y="217.5786">Aciona o bot&#227;o de parada</text></g><polygon fill="#FEFFDD" points="480.1731,235.8247,480.1731,235.8926,488.7097,235.6907,497.2464,235.8872,505.783,235.9539,514.3196,235.594,522.8563,235.8247,522.837,235.8086,524.6905,238.0645,526.6413,240.4016,528.6598,242.7951,530.4451,244.9942,532.557,247.4655,532.6989,247.5747,530.4553,249.8635,528.626,252.4709,526.8473,255.1173,524.7744,257.5374,522.8563,260.0765,522.8563,260.0985,514.3196,260.0661,505.783,260.1342,497.2464,260.1538,488.7097,260.2659,480.1731,260.0765,480.3451,260.2088,478.407,257.6882,476.358,255.0823,474.4715,252.6013,472.5925,250.1262,470.4723,247.4655,470.2932,247.3162,472.581,245.2778,474.279,242.7478,476.4254,240.5915,478.11,238.0504,480.1731,235.8247" style="stroke:#181818;stroke-width:0.485;"/><text fill="#000000" font-family="sans-serif" font-size="12.6109" lengthAdjust="spacing" textLength="39.5227" x="482.1132" y="253.1861">Ligada</text><g class="message" data-participant-1="MCU" data-participant-2="MCU"><path d="M286.0678,283.7579 L286.0678,284.0298 L295.1865,283.222 L304.3052,284.0079 L313.4239,284.2749 L322.5426,282.8352 L331.6613,283.7579" fill="none" style="stroke:#00BFFF;stroke-width:0.9701;"/><path d="M331.6613,283.7579 L331.7519,283.7579 L331.4826,286.2801 L331.7446,288.8023 L331.8336,291.3245 L331.3537,293.8467 L331.6613,296.3689" fill="none" style="stroke:#00BFFF;stroke-width:0.9701;"/><path d="M291.8883,296.3689 L291.8883,296.4595 L299.8429,296.1902 L307.7975,296.4522 L315.7521,296.5412 L323.7067,296.0613 L331.6613,296.3689" fill="none" style="stroke:#00BFFF;stroke-width:0.9701;"/><polygon fill="#00BFFF" points="301.589,292.4886,301.6142,292.5517,299.5991,293.1403,297.7319,294.0987,295.8166,294.9368,293.7427,295.3786,291.8883,296.3689,291.8789,296.3455,293.7772,297.0169,295.7225,297.8059,297.7005,298.6766,299.5658,299.2655,301.589,300.2492,301.7156,300.3758,300.6688,299.329,299.9917,298.6518,299.3596,298.0198,298.4652,297.1253,297.7087,296.3689,297.7243,296.3845,298.4775,295.5855,299.3016,294.8576,300.0916,294.0954,300.9469,293.3986,301.589,292.4886" style="stroke:#00BFFF;stroke-width:0.9701;"/><text fill="#000000" font-family="sans-serif" font-size="12.6109" lengthAdjust="spacing" textLength="140.7761" x="297.7087" y="278.1228">Dispositivo de manobra</text></g><g class="message" data-participant-1="MCU" data-participant-2="Esteira"><polygon fill="#00BFFF" points="485.8924,328.0961,485.9176,328.1592,487.7827,328.7478,489.7959,329.7062,491.7608,330.5443,493.5673,330.9861,495.5931,331.9764,495.5837,331.9531,493.6017,332.6244,491.6667,333.4134,489.7645,334.2841,487.7495,334.8731,485.8924,335.8567,486.0189,335.9833,486.5243,334.9365,487.3992,334.2593,488.3193,333.6273,488.977,332.7328,489.7726,331.9764,489.7882,331.992,488.9893,331.193,488.2613,330.4651,487.4991,329.7029,486.8023,329.0061,485.8924,328.0961" style="stroke:#00BFFF;stroke-width:0.9701;"/><path d="M290.9182,331.9764 L290.9182,332.2482 L300.4798,331.4405 L310.0415,332.2264 L319.6031,332.4933 L329.1648,331.0537 L338.7264,331.8759 L348.2881,331.4247 L357.8497,331.4804 L367.4114,331.8882 L376.973,331.0822 L386.5347,332.6925 L396.0963,331.1612 L405.658,331.7206 L415.2196,332.5351 L424.7813,331.8654 L434.3429,332.0647 L443.9046,331.9351 L453.4662,332.2073 L463.0278,332.2857 L472.5895,332.7339 L482.1511,332.8444 L491.7128,331.9764" fill="none" style="stroke:#00BFFF;stroke-width:0.9701;"/><text fill="#000000" font-family="sans-serif" font-size="12.6109" lengthAdjust="spacing" textLength="87.3309" x="297.7087" y="326.3412">Desliga esteira</text></g><polygon fill="#FEFFDD" points="470.4723,344.5873,470.4723,344.7912,480.8198,344.1854,491.1672,344.7748,501.5147,344.9751,511.8621,343.8953,522.2096,344.5119,532.557,344.5873,532.4511,344.499,534.4019,346.8361,536.4204,349.2296,538.2057,351.4287,540.4551,354.0146,542.2577,356.2282,542.0962,356.1039,540.2669,358.7114,538.4882,361.3577,536.4153,363.7779,534.5146,366.3304,532.557,368.8392,532.557,368.8082,522.2096,369.0123,511.8621,369.0711,501.5147,369.4073,491.1672,369.4901,480.8198,369.4981,470.4723,368.8392,470.5376,368.8894,468.651,366.4084,466.772,363.9332,464.4671,361.1304,462.8857,358.8842,460.7716,356.2282,460.698,356.1668,462.8444,354.0105,464.5289,351.4694,466.575,349.2295,468.7164,347.069,470.4723,344.5873" style="stroke:#181818;stroke-width:0.485;"/><text fill="#000000" font-family="sans-serif" font-size="12.6109" lengthAdjust="spacing" textLength="58.5274" x="472.4125" y="361.9487">Desligada</text><g class="message" data-participant-1="Esteira" data-participant-2="MCU"><polygon fill="#00BFFF" points="301.589,393.4907,301.6142,393.5538,299.5991,394.1423,297.7319,395.1008,295.8166,395.9389,293.7427,396.3807,291.8883,397.371,291.8789,397.3476,293.7772,398.019,295.7225,398.808,297.7005,399.6787,299.5658,400.2676,301.589,401.2513,301.7156,401.3779,300.6688,400.3311,299.9917,399.6539,299.3596,399.0219,298.4652,398.1274,297.7087,397.371,297.7243,397.3866,298.4775,396.5876,299.3016,395.8597,300.0916,395.0975,300.9469,394.4007,301.589,393.4907" style="stroke:#00BFFF;stroke-width:0.9701;"/><path d="M295.7686,397.371 L295.7686,397.6428 L305.5612,396.8351 L315.3538,397.621 L325.1464,397.8879 L334.939,396.4482 L344.7316,397.2705 L354.5243,396.8193 L364.3169,396.8749 L374.1095,397.2828 L383.9021,396.4767 L393.6947,398.0871 L403.4873,396.5557 L413.28,397.1152 L423.0726,397.9297 L432.8652,397.26 L442.6578,397.4592 L452.4504,397.3297 L462.243,397.6019 L472.0357,397.6803 L481.8283,398.1285 L491.6209,398.2389 L501.4135,397.371" fill="none" style="stroke:#00BFFF;stroke-width:0.9701;stroke-dasharray:1.9401,1.9401;"/><text fill="#000000" font-family="sans-serif" font-size="12.6109" lengthAdjust="spacing" textLength="102.7415" x="307.4094" y="391.7358">Atualiza o display</text></g><g class="message" data-participant-1="MCU" data-participant-2="MCU"><path d="M290.9182,423.2778 L290.9182,423.5496 L300.0369,422.7419 L309.1556,423.5278 L318.2743,423.7947 L327.3929,422.355 L336.5116,423.2778" fill="none" style="stroke:#00BFFF;stroke-width:0.9701;"/><path d="M336.5116,423.2778 L336.6022,423.2778 L336.333,425.7999 L336.595,428.3221 L336.6839,430.8443 L336.204,433.3665 L336.5116,435.8887" fill="none" style="stroke:#00BFFF;stroke-width:0.9701;"/><path d="M296.7386,435.8887 L296.7386,435.9793 L304.6932,435.7101 L312.6478,435.972 L320.6024,436.061 L328.557,435.5811 L336.5116,435.8887" fill="none" style="stroke:#00BFFF;stroke-width:0.9701;"/><polygon fill="#00BFFF" points="306.4394,432.0084,306.4646,432.0715,304.4495,432.6601,302.5823,433.6186,300.6669,434.4566,298.5931,434.8985,296.7386,435.8887,296.7293,435.8654,298.6276,436.5367,300.5729,437.3257,302.5509,438.1964,304.4162,438.7854,306.4394,439.769,306.566,439.8956,305.5192,438.8488,304.842,438.1717,304.21,437.5396,303.3155,436.6451,302.5591,435.8887,302.5747,435.9043,303.3278,435.1053,304.152,434.3774,304.9419,433.6152,305.7972,432.9184,306.4394,432.0084" style="stroke:#00BFFF;stroke-width:0.9701;"/><text fill="#000000" font-family="sans-serif" font-size="12.6109" lengthAdjust="spacing" textLength="178.4829" x="302.5591" y="417.6426">Emite sinal sonoro e luminoso</text></g><g class="message" data-participant-1="MCU" data-participant-2="Monitor"><polygon fill="#00BFFF" points="566.5552,467.6159,566.5805,467.679,568.4456,468.2676,570.4587,469.2261,572.4237,470.0641,574.2301,470.506,576.2559,471.4962,576.2466,471.4729,574.2646,472.1442,572.3296,472.9332,570.4273,473.8039,568.4123,474.3929,566.5552,475.3765,566.6818,475.5031,567.1872,474.4563,568.0621,473.7792,568.9822,473.1471,569.6398,472.2527,570.4355,471.4962,570.4511,471.5118,569.6521,470.7129,568.9242,469.9849,568.162,469.2227,567.4652,468.5259,566.5552,467.6159" style="stroke:#00BFFF;stroke-width:0.9701;"/><path d="M295.7686,471.4962 L295.7686,471.7681 L305.3067,470.9603 L314.8449,471.7462 L324.3831,472.0132 L333.9213,470.5735 L343.4594,471.3957 L352.9976,470.9446 L362.5358,471.0002 L372.074,471.4081 L381.6121,470.602 L391.1503,472.2123 L400.6885,470.681 L410.2267,471.2404 L419.7648,472.0549 L429.303,471.3853 L438.8412,471.5845 L448.3794,471.4549 L457.9175,471.7271 L467.4557,471.8055 L476.9939,472.2538 L486.5321,472.3642 L496.0702,472.3748 L505.6084,471.8256 L515.1466,472.0958 L524.6848,472.4045 L534.223,470.5634 L543.7611,472.3738 L553.2993,471.1127 L562.8375,472.1867 L572.3757,471.4962" fill="none" style="stroke:#00BFFF;stroke-width:0.9701;"/><text fill="#000000" font-family="sans-serif" font-size="12.6109" lengthAdjust="spacing" textLength="140.7131" x="302.5591" y="465.8611">Envia dados para o IHM</text></g><g class="message" data-participant-1="Monitor" data-participant-2="Usu.rio"><polygon fill="#00BFFF" points="121.394,498.3731,121.4192,498.4362,119.4041,499.0247,117.5369,499.9832,115.6215,500.8212,113.5477,501.2631,111.6932,502.2534,111.6839,502.23,113.5822,502.9014,115.5275,503.6903,117.5055,504.5611,119.3708,505.15,121.394,506.1337,121.5206,506.2602,120.4738,505.2135,119.7966,504.5363,119.1646,503.9042,118.2701,503.0098,117.5137,502.2534,117.5293,502.269,118.2824,501.47,119.1066,500.7421,119.8965,499.9799,120.7518,499.283,121.394,498.3731" style="stroke:#00BFFF;stroke-width:0.9701;"/><path d="M115.5735,502.2534 L115.5735,502.5252 L125.1913,501.7175 L134.809,502.5034 L144.4268,502.7703 L154.0446,501.3306 L163.6623,502.1528 L173.2801,501.7017 L182.8978,501.7573 L192.5156,502.1652 L202.1334,501.3591 L211.7511,502.9695 L221.3689,501.4381 L230.9867,501.9976 L240.6044,502.8121 L250.2222,502.1424 L259.8399,502.3416 L269.4577,502.212 L279.0755,502.4843 L288.6932,502.5627 L298.311,503.0109 L307.9287,503.1213 L317.5465,503.1319 L327.1643,502.5827 L336.782,502.853 L346.3998,503.1616 L356.0175,501.3206 L365.6353,503.131 L375.2531,501.8699 L384.8708,502.9438 L394.4886,501.6131 L404.1063,502.1648 L413.7241,503.2126 L423.3419,502.1903 L432.9596,502.3896 L442.5774,502.6914 L452.1951,502.7917 L461.8129,502.2483 L471.4307,502.6249 L481.0484,501.513 L490.6662,502.6212 L500.2839,502.9624 L509.9017,502.8283 L519.5195,503.0463 L529.1372,501.6285 L538.755,501.4098 L548.3727,501.4496 L557.9905,502.1772 L567.6083,501.9992 L577.226,502.2534" fill="none" style="stroke:#00BFFF;stroke-width:0.9701;"/><text fill="#000000" font-family="sans-serif" font-size="12.6109" lengthAdjust="spacing" textLength="132.8817" x="127.2144" y="496.6182">Exibe status da esteira</text></g><polygon fill="#FEFFDD" points="462.7118,514.8643,462.7118,515.0682,472.4125,514.4624,482.1132,515.0518,491.8139,515.252,501.5147,514.1723,511.2154,514.7889,520.9161,514.4506,530.6169,514.4923,540.3176,514.8643,540.3007,514.8502,542.086,517.0494,544.3354,519.6353,545.9815,521.7184,548.029,524.1361,550.0183,526.5052,550.129,526.5903,548.0562,529.0105,546.1555,531.563,544.1897,534.0655,542.3035,536.6291,540.3176,539.1161,540.3176,539.3481,530.6169,539.6843,520.9161,539.7671,511.2154,539.7751,501.5147,539.3631,491.8139,539.5658,482.1132,539.7973,472.4125,538.4165,462.7118,539.1161,462.8857,539.2499,460.6956,536.5355,458.9683,534.177,456.7644,531.452,454.9336,529.0139,453.011,526.5052,453.1953,526.6587,454.9391,524.1669,456.9175,521.8706,458.9156,519.5908,460.875,517.2786,462.7118,514.8643" style="stroke:#181818;stroke-width:0.485;"/><text fill="#000000" font-family="sans-serif" font-size="12.6109" lengthAdjust="spacing" textLength="74.3164" x="464.6519" y="532.2257">Manuten&#231;&#227;o</text><g class="message" data-participant-1="Usu.rio" data-participant-2="Monitor"><polygon fill="#00BFFF" points="571.4056,563.7677,571.4308,563.8308,573.296,564.4193,575.3091,565.3778,577.274,566.2158,579.0805,566.6577,581.1063,567.6479,581.097,567.6246,579.1149,568.296,577.18,569.0849,575.2777,569.9557,573.2627,570.5446,571.4056,571.5282,571.5322,571.6548,572.0375,570.6081,572.9125,569.9309,573.8325,569.2988,574.4902,568.4044,575.2859,567.6479,575.3015,567.6635,574.5025,566.8646,573.7746,566.1366,573.0124,565.3744,572.3156,564.6776,571.4056,563.7677" style="stroke:#00BFFF;stroke-width:0.9701;"/><path d="M110.7232,567.6479 L110.7232,567.9198 L120.442,567.1121 L130.1608,567.8979 L139.8796,568.1649 L149.5984,566.7252 L159.3172,567.5474 L169.036,567.0963 L178.7548,567.1519 L188.4736,567.5598 L198.1924,566.7537 L207.9113,568.364 L217.6301,566.8327 L227.3489,567.3921 L237.0677,568.2066 L246.7865,567.537 L256.5053,567.7362 L266.2241,567.6066 L275.9429,567.8789 L285.6617,567.9572 L295.3805,568.4055 L305.0994,568.5159 L314.8182,568.5265 L324.537,567.9773 L334.2558,568.2476 L343.9746,568.5562 L353.6934,566.7151 L363.4122,568.5256 L373.131,567.2644 L382.8498,568.3384 L392.5686,567.0077 L402.2874,567.5593 L412.0063,568.6072 L421.7251,567.5849 L431.4439,567.7841 L441.1627,568.0859 L450.8815,568.1863 L460.6003,567.6429 L470.3191,568.0194 L480.0379,566.9076 L489.7567,568.0158 L499.4755,568.357 L509.1944,568.2229 L518.9132,568.4409 L528.632,567.0231 L538.3508,566.8044 L548.0696,566.8442 L557.7884,567.5718 L567.5072,567.3938 L577.226,567.6479" fill="none" style="stroke:#00BFFF;stroke-width:0.9701;"/><text fill="#000000" font-family="sans-serif" font-size="12.6109" lengthAdjust="spacing" textLength="103.5107" x="117.5137" y="562.0128">Rearme pelo IHM</text></g><polygon fill="#FEFFDD" points="480.1731,580.2589,480.1731,580.3269,488.7097,580.1249,497.2464,580.3214,505.783,580.3881,514.3196,580.0282,522.8563,580.2589,522.837,580.2428,524.6905,582.4988,526.6413,584.8359,528.6598,587.2293,530.4451,589.4285,532.557,591.8998,532.6989,592.0089,530.4553,594.2977,528.626,596.9052,526.8473,599.5515,524.7744,601.9716,522.8563,604.5107,522.8563,604.5328,514.3196,604.5004,505.783,604.5684,497.2464,604.588,488.7097,604.7001,480.1731,604.5107,480.3451,604.643,478.407,602.1224,476.358,599.5165,474.4715,597.0355,472.5925,594.5604,470.4723,591.8998,470.2932,591.7505,472.581,589.7121,474.279,587.182,476.4254,585.0257,478.11,582.4846,480.1731,580.2589" style="stroke:#181818;stroke-width:0.485;"/><text fill="#000000" font-family="sans-serif" font-size="12.6109" lengthAdjust="spacing" textLength="39.5227" x="482.1132" y="597.6203">Ligada</text><text fill="#1E90FF" font-family="Arial" font-size="13.581" lengthAdjust="spacing" textLength="3.531" x="29.1022" y="654.6363">&#160;</text><text fill="#1E90FF" font-family="Arial" font-size="13.581" lengthAdjust="spacing" textLength="3.531" x="29.1022" y="673.1335">&#160;</text><text fill="#1E90FF" font-family="Arial" font-size="13.581" font-weight="bold" lengthAdjust="spacing" textLength="154.4971" x="29.1022" y="691.6308">Casos de Uso cobertos:</text><text fill="#1E90FF" font-family="Arial" font-size="13.581" font-weight="bold" lengthAdjust="spacing" textLength="60.9106" x="29.1022" y="710.1281">- MC-003:</text><text fill="#1E90FF" font-family="Arial" font-size="13.581" lengthAdjust="spacing" textLength="182.3788" x="93.5439" y="710.1281">L&#243;gica de Seguran&#231;a (NR-12)</text><polygon fill="none" points="26.677,24.2518,26.677,24.4557,36.3636,23.8499,46.0502,24.4393,55.7368,24.6395,65.4235,23.5598,75.1101,24.1764,84.7967,23.8381,94.4833,23.8798,104.1699,24.1857,113.8565,23.5811,123.5431,24.7889,133.2298,23.6404,142.9164,24.06,152.603,24.6708,162.2896,24.1686,171.9762,24.318,181.6628,24.2208,191.3494,24.425,201.0361,24.4838,210.7227,24.82,220.4093,24.9028,230.0959,24.9108,239.7825,24.4988,249.4691,24.7015,259.1557,24.933,268.8424,23.5522,278.529,24.91,288.2156,23.9642,297.9022,24.7697,307.5888,23.7716,317.2754,24.1854,326.962,24.9712,336.6486,24.2045,346.3353,24.354,356.0219,24.5803,365.7085,24.6556,375.3951,24.248,385.0817,24.5304,394.7683,23.6965,404.4549,24.5277,414.1416,24.7836,423.8282,24.6831,433.5148,24.8465,443.2014,23.7832,452.888,23.6192,462.5746,23.649,472.2612,24.1947,481.9479,24.0612,491.6345,24.9128,501.3211,24.0824,511.0077,23.919,520.6943,24.4733,530.3809,23.6049,540.0675,23.7482,549.7542,24.8814,559.4408,24.6745,569.1274,24.9643,578.814,23.9397,588.5006,24.5615,598.1872,24.8246,607.8738,23.7936,617.5604,24.1588,627.2471,24.374,636.9337,24.8841,646.6203,24.2478,656.3069,24.7005,665.9935,24.2518,665.925,24.0864,666.9386,24.4757,668.1137,25.2547,668.9916,25.3162,670.1722,26.1086,671.1381,26.3828,671.1998,26.4083,671.4843,27.3785,671.8848,28.3968,672.5537,29.5263,672.7534,30.4614,673.2691,31.5274,673.8432,31.5274,672.7329,41.6627,673.868,51.798,673.7389,61.9333,673.5067,72.0686,673.2691,82.204,673.2832,82.2098,673.0599,83.3228,672.6,84.3377,672.0411,85.3116,671.6444,86.3528,671.1381,87.3485,671.122,87.3096,670.1978,87.9888,669.0994,88.2472,668.0727,88.6787,666.9472,88.8716,665.9935,89.4795,665.9935,89.0864,656.3069,89.9944,646.6203,89.8964,636.9337,89.4379,627.2471,89.167,617.5604,89.2671,607.8738,88.8139,598.1872,89.8818,588.5006,90.1969,578.814,89.9901,569.1274,90.1536,559.4408,89.3469,549.7542,89.5641,540.0675,89.1035,530.3809,89.755,520.6943,89.7189,511.0077,90.0154,501.3211,89.2567,491.6345,89.3491,481.9479,89.9097,472.2612,90.0299,462.5746,88.9823,452.888,89.2914,443.2014,89.6243,433.5148,88.8869,423.8282,89.8223,414.1416,89.7298,404.4549,89.3818,394.7683,89.6175,385.0817,90.1864,375.3951,89.176,365.7085,89.7851,356.0219,89.7566,346.3353,89.5918,336.6486,89.6162,326.962,89.5896,317.2754,88.874,307.5888,89.0907,297.9022,89.0318,288.2156,89.5414,278.529,89.565,268.8424,89.6364,259.1557,89.1972,249.4691,89.414,239.7825,89.3629,230.0959,90.0391,220.4093,89.8933,210.7227,89.0085,201.0361,89.4088,191.3494,88.9195,181.6628,89.7593,171.9762,90.0698,162.2896,90.0078,152.603,89.057,142.9164,89.9296,133.2298,88.7589,123.5431,89.6737,113.8565,89.1891,104.1699,89.5733,94.4833,89.7126,84.7967,89.9375,75.1101,88.7811,65.4235,89.9407,55.7368,89.6523,46.0502,89.8242,36.3636,90.2049,26.677,89.4795,26.6777,89.4811,25.6698,89.1057,24.6456,88.6909,23.6147,88.2598,22.5612,87.7745,21.5324,87.3485,21.7447,87.4365,20.9241,86.2442,20.8489,85.3607,20.0674,84.1846,19.6662,83.166,19.4015,82.204,19.4403,82.204,19.4289,72.0686,18.9234,61.9333,19.8028,51.798,19.5071,41.6627,19.4015,31.5274,19.6185,31.6173,20.0269,30.581,20.1199,29.4141,20.5612,28.3914,21.0676,27.3957,21.5324,26.3828,21.5764,26.489,22.6112,26.077,23.6275,25.6204,24.5769,25.002,25.7268,24.8681,26.677,24.2518" style="stroke:#000000;stroke-width:0.9701;"/><text fill="#1E90FF" font-family="Arial" font-size="19.4015" font-weight="bold" lengthAdjust="spacing" textLength="615.0647" x="38.8029" y="64.3934">Diagrama de Sequ&#234;ncia - M&#243;dulo de Controle (MC) - Emerg&#234;ncia</text><!--SRC=[VP1DIiH048NtVOfofmCZ_knS299458mBXpb0JLB6WavNx9z1lOsu4DnwX5pCocGcCY3kcgxttbVr3jXLDjK4UN6zEEvIQut150Mho6kC1EACliN3CgJ-tREOtGFcbr1cIxY0guh58GYi9FOV0XhNeSSQpPEJ8MDD7eeGYJsg_8wROJPufuYSGoU15Rgnj-XavIVDhpUdODKEDFxy3TYAbE4f9k_WAYQq_3QiM2l8uki-lMXPKm8xj134YHSWiAbb9q4cgJWUYb2vMpD2ZRM4pQ4QUtjJcfr0jLD7AdxXbMP7Z2cev__DItGfaki_jSRzeYVu0w5ljM2o8_M_YesbXbmDKJe3irdEs7XiSMXuGS-f_tAL7ZA7il-kazqqducBNYp1OPaTwQXeoJUZS3OpGzYOQSoZADWROq2ZCmnQXlgNGQ2I5VaeuK8TC4oLaCrFJixr0-xwxuQhxGvDygZN8XpUFynFpuusW34Om9WV]--></g></svg>