<svg xmlns="http://www.w3.org/2000/svg" xmlns:xlink="http://www.w3.org/1999/xlink" contentStyleType="text/css" data-diagram-type="SEQUENCE" height="750.6572px" preserveAspectRatio="none" style="width:1045px;height:750px;background:#EEEBDC;" version="1.1" viewBox="0 0 1045 750" width="1045.27px" zoomAndPan="magnify"><defs/><g><rect fill="#EEEBDC" height="750.6572" style="stroke:none;stroke-width:1.0089;" width="1045.27" x="0" y="0"/><rect fill="#FFFFCC" height="26.879" rx="2.5224" ry="2.5224" style="stroke:#FFDD88;stroke-width:3.0268;" width="1034.1716" x="5.0447" y="5.0447"/><text fill="#000000" font-family="monospace" font-size="10.0895" lengthAdjust="spacing" textLength="358.3883" x="10.0895" y="20.179">Please&#160;use&#160;'!option&#160;handwritten&#160;true'&#160;to&#160;enable&#160;handwritten</text><g><title>MCU</title><polygon fill="#000000" points="321.6577,270.1363,321.6577,270.207,323.6756,269.9969,325.6935,270.2013,327.7114,270.2707,329.7293,269.8964,331.7472,270.1363,331.6688,270.1363,331.3169,280.2386,331.3603,290.341,331.6784,300.4433,331.0496,310.5457,332.3058,320.6481,331.1113,330.7504,331.5477,340.8528,332.183,350.9551,331.6606,361.0575,331.816,371.1598,331.715,381.2622,331.9273,391.3645,331.9885,401.4669,332.3381,411.5693,332.4242,421.6716,332.4325,431.774,332.0041,441.8763,332.2149,451.9787,332.4557,462.081,331.0196,472.1834,332.4318,482.2857,331.448,492.3881,332.2858,502.4904,331.2477,512.5928,331.6781,522.6952,332.4954,532.7975,331.698,542.8999,331.8534,553.0022,332.0888,563.1046,332.1671,573.2069,331.7432,583.3093,332.037,593.4116,331.1697,603.514,332.0341,613.6164,332.3003,623.7187,332.1957,633.8211,331.7472,643.9234,331.7472,644.1296,329.7293,643.761,327.7114,643.7041,325.6935,643.7144,323.6756,643.9036,321.6577,643.9234,321.4594,643.9234,322.3452,633.8211,321.4815,623.7187,321.3116,613.6164,321.888,603.514,320.9849,593.4116,321.1339,583.3093,322.3125,573.2069,322.0973,563.1046,322.3988,553.0022,321.333,542.8999,321.9798,532.7975,322.2534,522.6952,321.1811,512.5928,321.561,502.4904,321.7848,492.3881,322.3153,482.2857,321.6535,472.1834,322.1244,462.081,321.099,451.9787,320.9744,441.8763,322.1658,431.774,320.9344,421.6716,322.1712,411.5693,321.8662,401.4669,321.3874,391.3645,321.3008,381.2622,322.1206,371.1598,321.3557,361.0575,322.2549,350.9551,321.1,340.8528,322.2807,330.7504,322.1463,320.6481,321.9049,310.5457,321.7054,300.4433,322.3908,290.341,322.2768,280.2386,321.6577,270.1363" style="stroke:#181818;stroke-width:1.0089;"/></g><g><title>C.mera</title><polygon fill="#A9DCDF" points="472.545,319.9904,472.545,320.0611,474.5629,319.8511,476.5808,320.0554,478.5987,320.1249,480.6166,319.7505,482.6345,319.9904,482.556,319.9904,482.2041,330.2209,482.2475,340.4514,482.5657,350.6819,481.9369,360.9124,483.1931,371.1429,481.9985,381.3734,482.4349,391.6038,482.6345,401.8343,482.6345,401.9796,480.6166,401.8055,478.5987,401.8573,476.5808,401.8236,474.5629,401.8944,472.545,401.8343,472.7863,401.8343,473.1359,391.6038,473.222,381.3734,473.2303,371.1429,472.8019,360.9124,473.0127,350.6819,473.2535,340.4514,471.8173,330.2209,472.545,319.9904" style="stroke:#181818;stroke-width:1.0089;"/></g><g><title>Sensor .ptico</title><polygon fill="#000000" fill-opacity="0.00000" points="60.5347,236.1287,60.5347,236.1994,62.149,235.9893,63.7633,236.1937,65.3777,236.2631,66.992,235.8887,68.6063,236.1287,68.5279,236.1287,68.176,246.2964,68.2194,256.464,68.5375,266.6317,67.9087,276.7994,69.1649,286.9671,67.9704,297.1348,68.4068,307.3025,69.0421,317.4702,68.5197,327.6379,68.6751,337.8056,68.5741,347.9733,68.7864,358.1409,68.8476,368.3086,69.1972,378.4763,69.2834,388.644,69.2916,398.8117,68.8632,408.9794,69.074,419.1471,69.3148,429.3148,67.8787,439.4825,69.2909,449.6502,68.3071,459.8178,69.1449,469.9855,68.1068,480.1532,68.5372,490.3209,69.3545,500.4886,68.5571,510.6563,68.7125,520.824,68.948,530.9917,69.0262,541.1594,68.6024,551.3271,68.8961,561.4947,68.0288,571.6624,68.8932,581.8301,69.1594,591.9978,69.0548,602.1655,69.2248,612.3332,68.1189,622.5009,67.9483,632.6686,67.9793,642.8363,68.6063,653.004,68.6063,652.9842,66.992,652.9379,65.3777,653.2331,63.7633,652.9452,62.149,652.8886,60.5347,653.004,60.765,653.004,59.8619,642.8363,60.0109,632.6686,61.1895,622.5009,60.9743,612.3332,61.2758,602.1655,60.21,591.9978,60.8568,581.8301,61.1304,571.6624,60.0581,561.4947,60.438,551.3271,60.6618,541.1594,61.1923,530.9917,60.5305,520.824,61.0014,510.6563,59.976,500.4886,59.8514,490.3209,61.0428,480.1532,59.8114,469.9855,61.0482,459.8178,60.7432,449.6502,60.2644,439.4825,60.1778,429.3148,60.9976,419.1471,60.2327,408.9794,61.1319,398.8117,59.977,388.644,61.1577,378.4763,61.0233,368.3086,60.7819,358.1409,60.5824,347.9733,61.2678,337.8056,61.1538,327.6379,60.7055,317.4702,60.8053,307.3025,60.4033,297.1348,61.2576,286.9671,60.691,276.7994,60.7088,266.6317,59.9209,256.464,60.1259,246.2964,60.5347,236.1287"/><path d="M63.5637,236.1287 L63.8465,236.1287 L63.0063,246.2964 L63.8237,256.464 L64.1014,266.6317 L62.604,276.7994 L63.4592,286.9671 L62.99,297.1348 L63.0478,307.3025 L63.472,317.4702 L62.6336,327.6379 L64.3085,337.8056 L62.7158,347.9733 L63.2977,358.1409 L64.1448,368.3086 L63.4483,378.4763 L63.6555,388.644 L63.5207,398.8117 L63.8039,408.9794 L63.8854,419.1471 L64.3516,429.3148 L64.4665,439.4825 L64.4775,449.6502 L63.9063,459.8178 L64.1874,469.9855 L64.5084,480.1532 L62.5935,490.3209 L64.4765,500.4886 L63.1648,510.6563 L64.2818,520.824 L62.8978,530.9917 L63.4716,541.1594 L64.5614,551.3271 L63.4982,561.4947 L63.7054,571.6624 L64.0193,581.8301 L64.1237,591.9978 L63.5585,602.1655 L63.9501,612.3332 L62.7937,622.5009 L63.9463,632.6686 L64.3012,642.8363 L63.5637,653.004" fill="none" style="stroke:#0000FF;stroke-width:0.5045;stroke-dasharray:5.0447,5.0447;"/></g><g><title>MCU</title><polygon fill="#000000" fill-opacity="0.00000" points="322.6667,236.1287,322.6667,236.1994,324.281,235.9893,325.8953,236.1937,327.5096,236.2631,329.1239,235.8887,330.7382,236.1287,330.6598,236.1287,330.3079,246.2964,330.3513,256.464,330.6695,266.6317,330.0407,276.7994,331.2968,286.9671,330.1023,297.1348,330.5387,307.3025,331.1741,317.4702,330.6517,327.6379,330.8071,337.8056,330.706,347.9733,330.9184,358.1409,330.9795,368.3086,331.3292,378.4763,331.4153,388.644,331.4236,398.8117,330.9951,408.9794,331.206,419.1471,331.4468,429.3148,330.0106,439.4825,331.4228,449.6502,330.4391,459.8178,331.2768,469.9855,330.2388,480.1532,330.6691,490.3209,331.4865,500.4886,330.6891,510.6563,330.8445,520.824,331.0799,530.9917,331.1582,541.1594,330.7343,551.3271,331.028,561.4947,330.1607,571.6624,331.0252,581.8301,331.2913,591.9978,331.1868,602.1655,331.3568,612.3332,330.2508,622.5009,330.0802,632.6686,330.1113,642.8363,330.7382,653.004,330.7382,652.9842,329.1239,652.9379,327.5096,653.2331,325.8953,652.9452,324.281,652.8886,322.6667,653.004,322.897,653.004,321.9939,642.8363,322.1429,632.6686,323.3214,622.5009,323.1062,612.3332,323.4077,602.1655,322.342,591.9978,322.9887,581.8301,323.2624,571.6624,322.19,561.4947,322.5699,551.3271,322.7938,541.1594,323.3243,530.9917,322.6624,520.824,323.1334,510.6563,322.1079,500.4886,321.9833,490.3209,323.1748,480.1532,321.9433,469.9855,323.1802,459.8178,322.8751,449.6502,322.3963,439.4825,322.3097,429.3148,323.1295,419.1471,322.3646,408.9794,323.2638,398.8117,322.109,388.644,323.2896,378.4763,323.1553,368.3086,322.9138,358.1409,322.7143,347.9733,323.3998,337.8056,323.2857,327.6379,322.8374,317.4702,322.9372,307.3025,322.5352,297.1348,323.3895,286.9671,322.8229,276.7994,322.8408,266.6317,322.0529,256.464,322.2578,246.2964,322.6667,236.1287"/><path d="M326.4049,236.1287 L326.6876,236.1287 L325.8475,246.2964 L326.6649,256.464 L326.9425,266.6317 L325.4452,276.7994 L326.3003,286.9671 L325.8311,297.1348 L325.889,307.3025 L326.3132,317.4702 L325.4748,327.6379 L327.1497,337.8056 L325.557,347.9733 L326.1388,358.1409 L326.9859,368.3086 L326.2895,378.4763 L326.4967,388.644 L326.3619,398.8117 L326.645,408.9794 L326.7266,419.1471 L327.1928,429.3148 L327.3076,439.4825 L327.3186,449.6502 L326.7474,459.8178 L327.0285,469.9855 L327.3495,480.1532 L325.4347,490.3209 L327.3176,500.4886 L326.006,510.6563 L327.123,520.824 L325.7389,530.9917 L326.3127,541.1594 L327.4025,551.3271 L326.3393,561.4947 L326.5465,571.6624 L326.8604,581.8301 L326.9648,591.9978 L326.3996,602.1655 L326.7912,612.3332 L325.6348,622.5009 L326.7874,632.6686 L327.1423,642.8363 L326.4049,653.004" fill="none" style="stroke:#0000FF;stroke-width:0.5045;stroke-dasharray:5.0447,5.0447;"/></g><g><title>C.mera</title><polygon fill="#000000" fill-opacity="0.00000" points="473.5539,236.1287,473.5539,236.1994,475.1682,235.9893,476.7826,236.1937,478.3969,236.2631,480.0112,235.8887,481.6255,236.1287,481.5471,236.1287,481.1952,246.2964,481.2386,256.464,481.5567,266.6317,480.928,276.7994,482.1841,286.9671,480.9896,297.1348,481.426,307.3025,482.0613,317.4702,481.539,327.6379,481.6944,337.8056,481.5933,347.9733,481.8056,358.1409,481.8668,368.3086,482.2164,378.4763,482.3026,388.644,482.3108,398.8117,481.8824,408.9794,482.0932,419.1471,482.334,429.3148,480.8979,439.4825,482.3101,449.6502,481.3264,459.8178,482.1641,469.9855,481.1261,480.1532,481.5564,490.3209,482.3738,500.4886,481.5763,510.6563,481.7318,520.824,481.9672,530.9917,482.0455,541.1594,481.6216,551.3271,481.9153,561.4947,481.048,571.6624,481.9124,581.8301,482.1786,591.9978,482.074,602.1655,482.244,612.3332,481.1381,622.5009,480.9675,632.6686,480.9985,642.8363,481.6255,653.004,481.6255,652.9842,480.0112,652.9379,478.3969,653.2331,476.7826,652.9452,475.1682,652.8886,473.5539,653.004,473.7842,653.004,472.8811,642.8363,473.0302,632.6686,474.2087,622.5009,473.9935,612.3332,474.295,602.1655,473.2293,591.9978,473.876,581.8301,474.1496,571.6624,473.0773,561.4947,473.4572,551.3271,473.681,541.1594,474.2115,530.9917,473.5497,520.824,474.0206,510.6563,472.9952,500.4886,472.8706,490.3209,474.062,480.1532,472.8306,469.9855,474.0674,459.8178,473.7624,449.6502,473.2836,439.4825,473.197,429.3148,474.0168,419.1471,473.2519,408.9794,474.1511,398.8117,472.9962,388.644,474.1769,378.4763,474.0426,368.3086,473.8011,358.1409,473.6016,347.9733,474.287,337.8056,474.173,327.6379,473.7247,317.4702,473.8245,307.3025,473.4225,297.1348,474.2768,286.9671,473.7102,276.7994,473.728,266.6317,472.9401,256.464,473.1451,246.2964,473.5539,236.1287"/><path d="M477.4274,236.1287 L477.7101,236.1287 L476.87,246.2964 L477.6874,256.464 L477.965,266.6317 L476.4677,276.7994 L477.3228,286.9671 L476.8536,297.1348 L476.9115,307.3025 L477.3357,317.4702 L476.4973,327.6379 L478.1722,337.8056 L476.5795,347.9733 L477.1613,358.1409 L478.0084,368.3086 L477.312,378.4763 L477.5192,388.644 L477.3844,398.8117 L477.6675,408.9794 L477.7491,419.1471 L478.2153,429.3148 L478.3301,439.4825 L478.3411,449.6502 L477.7699,459.8178 L478.051,469.9855 L478.372,480.1532 L476.4572,490.3209 L478.3401,500.4886 L477.0285,510.6563 L478.1455,520.824 L476.7614,530.9917 L477.3352,541.1594 L478.425,551.3271 L477.3618,561.4947 L477.569,571.6624 L477.8829,581.8301 L477.9873,591.9978 L477.4221,602.1655 L477.8137,612.3332 L476.6573,622.5009 L477.8099,632.6686 L478.1648,642.8363 L477.4274,653.004" fill="none" style="stroke:#0000FF;stroke-width:0.5045;stroke-dasharray:5.0447,5.0447;"/></g><g><title>M.dulo Edge</title><polygon fill="#000000" fill-opacity="0.00000" points="660.3275,236.1287,660.3275,236.1994,661.9418,235.9893,663.5561,236.1937,665.1704,236.2631,666.7847,235.8887,668.399,236.1287,668.3206,236.1287,667.9687,246.2964,668.0121,256.464,668.3303,266.6317,667.7015,276.7994,668.9576,286.9671,667.7631,297.1348,668.1995,307.3025,668.8349,317.4702,668.3125,327.6379,668.4679,337.8056,668.3668,347.9733,668.5792,358.1409,668.6403,368.3086,668.99,378.4763,669.0761,388.644,669.0844,398.8117,668.656,408.9794,668.8668,419.1471,669.1076,429.3148,667.6714,439.4825,669.0836,449.6502,668.0999,459.8178,668.9376,469.9855,667.8996,480.1532,668.3299,490.3209,669.1473,500.4886,668.3499,510.6563,668.5053,520.824,668.7407,530.9917,668.819,541.1594,668.3951,551.3271,668.6888,561.4947,667.8215,571.6624,668.686,581.8301,668.9521,591.9978,668.8476,602.1655,669.0176,612.3332,667.9116,622.5009,667.741,632.6686,667.7721,642.8363,668.399,653.004,668.399,652.9842,666.7847,652.9379,665.1704,653.2331,663.5561,652.9452,661.9418,652.8886,660.3275,653.004,660.5578,653.004,659.6547,642.8363,659.8037,632.6686,660.9822,622.5009,660.767,612.3332,661.0685,602.1655,660.0028,591.9978,660.6495,581.8301,660.9232,571.6624,659.8508,561.4947,660.2307,551.3271,660.4546,541.1594,660.9851,530.9917,660.3232,520.824,660.7942,510.6563,659.7687,500.4886,659.6441,490.3209,660.8356,480.1532,659.6041,469.9855,660.841,459.8178,660.5359,449.6502,660.0571,439.4825,659.9705,429.3148,660.7903,419.1471,660.0255,408.9794,660.9246,398.8117,659.7698,388.644,660.9504,378.4763,660.8161,368.3086,660.5746,358.1409,660.3751,347.9733,661.0606,337.8056,660.9465,327.6379,660.4982,317.4702,660.5981,307.3025,660.196,297.1348,661.0503,286.9671,660.4837,276.7994,660.5016,266.6317,659.7137,256.464,659.9186,246.2964,660.3275,236.1287"/><path d="M663.7057,236.1287 L663.9884,236.1287 L663.1483,246.2964 L663.9657,256.464 L664.2433,266.6317 L662.746,276.7994 L663.6011,286.9671 L663.1319,297.1348 L663.1898,307.3025 L663.614,317.4702 L662.7756,327.6379 L664.4505,337.8056 L662.8578,347.9733 L663.4396,358.1409 L664.2868,368.3086 L663.5903,378.4763 L663.7975,388.644 L663.6627,398.8117 L663.9458,408.9794 L664.0274,419.1471 L664.4936,429.3148 L664.6084,439.4825 L664.6195,449.6502 L664.0482,459.8178 L664.3293,469.9855 L664.6504,480.1532 L662.7355,490.3209 L664.6184,500.4886 L663.3068,510.6563 L664.4238,520.824 L663.0397,530.9917 L663.6135,541.1594 L664.7033,551.3271 L663.6401,561.4947 L663.8473,571.6624 L664.1612,581.8301 L664.2656,591.9978 L663.7004,602.1655 L664.0921,612.3332 L662.9356,622.5009 L664.0882,632.6686 L664.4431,642.8363 L663.7057,653.004" fill="none" style="stroke:#0000FF;stroke-width:0.5045;stroke-dasharray:5.0447,5.0447;"/></g><g><title>MDC.Cloud</title><polygon fill="#000000" fill-opacity="0.00000" points="933.0937,236.1287,933.0937,236.1994,934.708,235.9893,936.3223,236.1937,937.9366,236.2631,939.551,235.8887,941.1653,236.1287,941.0869,236.1287,940.735,246.2964,940.7784,256.464,941.0965,266.6317,940.4677,276.7994,941.7239,286.9671,940.5294,297.1348,940.9657,307.3025,941.6011,317.4702,941.0787,327.6379,941.2341,337.8056,941.133,347.9733,941.3454,358.1409,941.4066,368.3086,941.7562,378.4763,941.8423,388.644,941.8506,398.8117,941.4222,408.9794,941.633,419.1471,941.8738,429.3148,940.4376,439.4825,941.8499,449.6502,940.8661,459.8178,941.7039,469.9855,940.6658,480.1532,941.0962,490.3209,941.9135,500.4886,941.1161,510.6563,941.2715,520.824,941.5069,530.9917,941.5852,541.1594,941.1613,551.3271,941.4551,561.4947,940.5877,571.6624,941.4522,581.8301,941.7184,591.9978,941.6138,602.1655,941.7838,612.3332,940.6779,622.5009,940.5073,632.6686,940.5383,642.8363,941.1653,653.004,941.1653,652.9842,939.551,652.9379,937.9366,653.2331,936.3223,652.9452,934.708,652.8886,933.0937,653.004,933.324,653.004,932.4209,642.8363,932.5699,632.6686,933.7485,622.5009,933.5333,612.3332,933.8348,602.1655,932.769,591.9978,933.4158,581.8301,933.6894,571.6624,932.6171,561.4947,932.997,551.3271,933.2208,541.1594,933.7513,530.9917,933.0895,520.824,933.5604,510.6563,932.535,500.4886,932.4104,490.3209,933.6018,480.1532,932.3703,469.9855,933.6072,459.8178,933.3022,449.6502,932.8234,439.4825,932.7368,429.3148,933.5566,419.1471,932.7917,408.9794,933.6909,398.8117,932.536,388.644,933.7166,378.4763,933.5823,368.3086,933.3409,358.1409,933.1413,347.9733,933.8268,337.8056,933.7128,327.6379,933.2645,317.4702,933.3643,307.3025,932.9623,297.1348,933.8166,286.9671,933.25,276.7994,933.2678,266.6317,932.4799,256.464,932.6849,246.2964,933.0937,236.1287"/><path d="M936.5051,236.1287 L936.7878,236.1287 L935.9477,246.2964 L936.7651,256.464 L937.0428,266.6317 L935.5454,276.7994 L936.4006,286.9671 L935.9313,297.1348 L935.9892,307.3025 L936.4134,317.4702 L935.575,327.6379 L937.2499,337.8056 L935.6572,347.9733 L936.239,358.1409 L937.0862,368.3086 L936.3897,378.4763 L936.5969,388.644 L936.4621,398.8117 L936.7453,408.9794 L936.8268,419.1471 L937.293,429.3148 L937.4078,439.4825 L937.4189,449.6502 L936.8476,459.8178 L937.1287,469.9855 L937.4498,480.1532 L935.5349,490.3209 L937.4179,500.4886 L936.1062,510.6563 L937.2232,520.824 L935.8392,530.9917 L936.4129,541.1594 L937.5027,551.3271 L936.4395,561.4947 L936.6468,571.6624 L936.9606,581.8301 L937.065,591.9978 L936.4998,602.1655 L936.8915,612.3332 L935.735,622.5009 L936.8877,632.6686 L937.2426,642.8363 L936.5051,653.004" fill="none" style="stroke:#0000FF;stroke-width:0.5045;stroke-dasharray:5.0447,5.0447;"/></g><g class="participant participant-head" data-participant="Sensor .ptico"><text fill="#1E90FF" font-family="Aapex" font-size="17.1521" lengthAdjust="spacing" textLength="112.9978" x="5.0447" y="231.1031">Sensor &#211;ptico</text><polygon fill="#00BFFF" points="80.8029,171.796,78.4365,175.0293,75.6377,179.765,71.6348,182.9565,67.4284,184.7017,64.0745,184.8532,59.7638,182.6705,55.6964,181.2446,52.6092,178.3495,50.9898,175.0351,50.0294,172.3961,49.0886,168.949,47.5615,165.9828,48.735,163.0866,49.7631,159.914,53.6215,157.4049,56.336,154.1493,59.6958,153.0682,63.6901,152.1372,68.8123,152.6903,71.6178,154.0134,74.8797,154.6132,78.8457,158.6765,80.2283,162.9662,80.829,165.8931,80.1486,170.7162" style="stroke:#00BFFF;stroke-width:0.5045;"/><path d="M64.5705,188.0483 L64.5705,188.0483 L64.6027,188.1369 L66.7267,187.0666 L69.0395,186.5155 L71.2908,185.7953 L73.3399,184.519 L75.6689,184.0125 L75.6689,184.0125 L75.6545,183.9808 L77.8095,184.8474 L80.0371,185.8739 L82.3153,187.0115 L84.4194,187.7661 L86.7674,189.0573 L86.9934,189.16 L87.519,191.16 L88.7045,193.4599 L89.9705,195.7965 L90.7681,197.9201 L91.8121,200.1557 L91.8733,200.1557 L91.7834,200.9628 L91.9722,201.77 L92.0266,202.5772 L92.3374,203.3843 L91.8121,204.1915 L91.8121,204.1915 L92.0249,204.4043 L90.4132,206.0212 L88.6642,207.5009 L87.1161,209.1814 L85.5775,210.8714 L83.7405,212.2631 L83.7405,211.6163 L76.0725,212.8716 L68.4045,211.9971 L60.7365,212.7418 L53.0685,211.8191 L45.4005,212.2631 L45.4005,212.2631 L45.3788,212.2413 L44.0213,210.8839 L42.1564,209.019 L40.5909,207.4535 L39.0506,205.9132 L37.3289,204.1915 L37.7022,204.1915 L37.3254,203.3843 L37.5865,202.5772 L36.8155,201.77 L37.584,200.9628 L37.3289,200.1557 L37.3289,200.1557 L37.5527,200.2574 L38.5193,198.0185 L39.5971,195.8301 L40.1585,193.407 L41.0985,191.1559 L42.3736,189.0573 L42.2583,188.8036 L44.5824,188.0243 L46.7766,186.9591 L49.1591,186.3086 L51.22,184.9502 L53.4721,184.0125 L53.4721,184.0125 L53.4195,183.868 L55.7267,184.9159 L57.8093,185.3458 L60.0516,186.2152 L62.4503,187.5146 L64.5705,188.0483" fill="#00BFFF"/></g><g class="participant participant-head" data-participant="MCU"><polygon fill="#1E90FF" points="302.6946,197.6333,302.6946,197.8454,312.2977,197.2153,321.9009,197.8283,331.504,198.0366,341.1072,196.9135,350.7103,197.6333,350.7003,197.6092,351.0121,197.6486,351.3744,197.8097,351.7717,198.0554,352.0482,198.0095,352.4939,198.3721,352.6659,198.4434,352.4458,198.6477,352.728,199.0601,353.0714,199.4978,353.0583,199.7879,353.2327,200.1557,353.2556,200.1557,353.2219,206.644,353.2927,213.1324,353.3131,219.6207,353.4297,226.109,353.2327,232.5973,353.4412,232.6837,353.296,233.0415,353.0163,233.3435,352.9335,233.7272,352.8599,234.1146,352.4939,234.3809,352.4011,234.1568,352.2245,234.7395,351.7423,234.5843,351.4925,234.9901,351.0033,234.8181,350.7103,235.1197,350.7103,235.0506,341.1072,235.868,331.504,235.0705,321.9009,235.226,312.2977,235.4614,302.6946,235.1197,302.7482,235.249,302.3374,234.9707,302.0181,234.9134,301.5508,234.4986,301.3043,234.6171,300.911,234.3809,301.0813,234.4515,300.9014,234.0814,300.806,233.7464,300.3176,233.2486,300.1173,232.8701,300.1722,232.5973,299.9632,232.5973,300.1524,226.109,300.1061,219.6207,300.4014,213.1324,300.1135,206.644,300.1722,200.1557,300.0656,200.1115,300.3909,199.8284,300.2605,199.3564,300.4542,199.0187,300.9649,198.8123,300.911,198.3721,300.9671,198.5075,301.3622,198.4526,301.583,197.9766,302.0222,198.028,302.4139,197.9645,302.6946,197.6333" style="stroke:#00BFFF;stroke-width:0.5045;"/><text fill="#A9DCDF" font-family="Impact" font-size="17.1521" lengthAdjust="spacing" textLength="38.9352" x="307.2348" y="223.0315">MCU</text></g><g class="participant participant-head" data-participant="C.mera"><polygon fill="#1E90FF" points="441.6097,197.6333,441.6097,197.8454,451.8897,197.2153,462.1697,197.8283,472.4497,198.0366,482.7297,196.9135,493.0097,197.5549,503.2897,197.203,513.5697,197.6333,513.5204,197.5142,513.9177,197.7599,514.1942,197.714,514.7111,198.2486,514.9155,198.0285,515.3533,198.3721,515.2919,198.3467,515.6353,198.7844,515.6222,199.0745,515.8178,199.451,515.9344,199.7949,516.0921,200.1557,516.1521,200.1557,516.1725,206.644,516.2891,213.1324,516.3178,219.6207,516.3205,226.109,516.0921,232.5973,516.1712,232.6301,516.0884,233.0137,516.0148,233.4012,515.4247,233.5747,515.7119,234.1115,515.3533,234.3809,515.3152,234.2888,515.0653,234.6946,514.5762,234.5226,514.2743,234.8029,514.0219,235.2024,513.5697,235.1197,513.5697,235.0705,503.2897,235.226,493.0097,235.4614,482.7297,235.5397,472.4497,235.1158,462.1697,235.4095,451.8897,234.5422,441.6097,235.1197,441.6463,235.2081,441.3235,235.1423,440.9535,234.9623,440.6185,234.8669,440.1207,234.3786,439.8261,234.3809,439.6235,234.297,439.4853,233.9442,439.5123,233.6599,439.3218,233.2855,439.4468,233.0418,439.0873,232.5973,439.0286,232.5973,438.972,226.109,439.1641,219.6207,438.8631,213.1324,438.9127,206.644,439.0873,200.1557,439.289,200.2392,439.3705,199.855,439.6111,199.5368,439.4306,199.0441,439.7775,198.7699,439.8261,198.3721,439.9021,198.5556,440.122,198.0776,440.5272,198.0468,440.9125,197.968,441.3369,197.9836,441.6097,197.6333" style="stroke:#00BFFF;stroke-width:0.5045;"/><text fill="#A9DCDF" font-family="Impact" font-size="17.1521" lengthAdjust="spacing" textLength="62.8795" x="446.15" y="223.0315">C&#226;mera</text></g><g class="participant participant-head" data-participant="EDGE"><polygon fill="#1E90FF" points="554.2348,174.2722,554.2348,174.4843,564.2465,173.8542,574.2582,174.4672,584.2699,174.6754,594.2815,173.5524,604.2932,174.1938,614.3049,173.8419,624.3166,173.8853,634.3282,174.2034,644.3399,173.5746,654.3516,174.8308,664.3633,173.6363,674.3749,174.0727,684.3866,174.708,694.3983,174.1856,704.41,174.341,714.4216,174.24,724.4333,174.4523,734.445,174.5135,744.4567,174.8631,754.4683,174.9493,764.48,174.9575,774.4917,174.2722,774.5245,174.3513,774.9081,174.564,775.2955,174.7859,775.469,174.4914,776.0059,175.074,776.2753,175.011,776.1831,174.9728,776.5889,175.4364,776.417,175.6607,776.6973,176.0723,777.0967,176.5333,777.0141,176.7946,776.9649,176.7946,777.1203,186.095,777.3557,195.3955,777.434,204.696,777.0101,213.9964,777.3038,223.2969,777.0141,232.5973,776.8362,232.5237,776.9547,232.9907,776.8889,233.3813,776.7089,233.7247,776.6135,234.1031,776.2753,234.3809,776.2131,234.2308,775.8346,234.326,775.4819,234.4834,775.1975,234.8059,774.8231,234.9109,774.4917,235.1197,774.4917,235.8072,764.48,234.9435,754.4683,234.7736,744.4567,235.35,734.445,234.4469,724.4333,234.5959,714.4216,235.7745,704.41,235.5593,694.3983,235.8608,684.3866,234.795,674.3749,235.4418,664.3633,235.7154,654.3516,234.6431,644.3399,235.023,634.3282,235.2468,624.3166,235.7773,614.3049,235.1155,604.2932,235.5864,594.2815,234.561,584.2699,234.4364,574.2582,235.6278,564.2465,234.3964,554.2348,235.1197,554.3003,235.2779,553.9047,235.0362,553.4869,234.741,553.1191,234.5665,552.867,234.6712,552.4512,234.3809,552.3582,234.3424,552.4874,234.1004,551.984,233.5964,552.1998,233.3902,552.0107,233.0164,551.7125,232.5973,551.9596,232.5973,551.7601,223.2969,552.4456,213.9964,552.3315,204.696,551.8832,195.3955,551.983,186.095,551.7125,176.7946,551.672,176.7778,552.0828,176.5301,552.0561,176.1011,552.2093,175.7466,552.1145,175.2894,552.4512,175.011,552.3991,174.8851,552.8763,175.0281,553.22,174.849,553.5159,174.5544,553.8366,174.3198,554.2348,174.2722" style="stroke:#00BFFF;stroke-width:0.5045;"/><text fill="#A9DCDF" font-family="Impact" font-size="17.1521" lengthAdjust="spacing" textLength="106.6516" x="611.0375" y="199.6704">M&#243;dulo Edge</text><text fill="#A9DCDF" font-family="Impact" font-size="17.1521" lengthAdjust="spacing" textLength="211.1763" x="558.7751" y="223.0315">(Processamento/Gateway)</text></g><g class="participant participant-head" data-participant="MDC"><polygon fill="#1E90FF" points="872.4369,174.2722,872.4369,174.4843,882.3896,173.8542,892.3423,174.4672,902.295,174.6754,912.2477,173.5524,922.2004,174.1938,932.1531,173.8419,942.1058,173.8853,952.0585,174.2034,962.0113,173.5746,971.964,174.8308,981.9167,173.6363,991.8694,174.0727,1001.8221,174.2722,1001.8777,174.4064,1002.1678,174.3933,1002.5443,174.5889,1002.8881,174.7055,1003.2719,174.9187,1003.6057,175.011,1003.68,175.0418,1003.9354,175.4431,1004.1097,175.8108,1004.26,176.1686,1004.2758,176.4706,1004.3444,176.7946,1004.8122,176.7946,1005.053,186.095,1003.6168,195.3955,1005.029,204.696,1004.0453,213.9964,1004.883,223.2969,1004.3444,232.5973,1004.1906,232.5336,1004.1754,232.9452,1004.2794,233.4062,1003.886,233.6612,1003.7861,234.0378,1003.6057,234.3809,1003.6492,234.4861,1003.3025,234.658,1002.8917,234.6752,1002.5725,234.9134,1002.1051,234.7941,1001.8221,235.1197,1001.8221,235.4066,991.8694,235.6728,981.9167,235.5682,971.964,235.7382,962.0113,234.6323,952.0585,234.4617,942.1058,234.4928,932.1531,235.0603,922.2004,234.9214,912.2477,235.8072,902.295,234.9435,892.3423,234.7736,882.3896,235.35,872.4369,235.1197,872.3511,234.9125,872.0134,234.8107,871.807,235.0258,871.4228,234.8118,871.1046,234.7569,870.6533,234.3809,870.5533,234.3395,870.6047,234.0653,870.5413,233.7435,870.0633,233.25,870.0325,232.9417,869.9145,232.5973,870.0416,232.5973,870.5721,223.2969,869.9103,213.9964,870.3812,204.696,869.3558,195.3955,869.2312,186.095,869.9145,176.7946,870.071,176.8594,869.8395,176.3456,870.3682,176.1466,870.422,175.751,870.4223,175.3332,870.6533,175.011,870.6078,174.9011,871.0691,175.0058,871.3282,174.6225,871.7996,174.7516,872.009,174.2482,872.4369,174.2722" style="stroke:#00BFFF;stroke-width:0.5045;"/><text fill="#A9DCDF" font-family="Impact" font-size="17.1521" lengthAdjust="spacing" textLength="92.0895" x="891.0848" y="199.6704">MDC/Cloud</text><text fill="#A9DCDF" font-family="Impact" font-size="17.1521" lengthAdjust="spacing" textLength="120.3046" x="876.9772" y="223.0315">(Servidor SFTP)</text></g><g><title>MCU</title><polygon fill="#000000" points="321.6577,270.1363,321.6577,270.207,323.6756,269.9969,325.6935,270.2013,327.7114,270.2707,329.7293,269.8964,331.7472,270.1363,331.6688,270.1363,331.3169,280.2386,331.3603,290.341,331.6784,300.4433,331.0496,310.5457,332.3058,320.6481,331.1113,330.7504,331.5477,340.8528,332.183,350.9551,331.6606,361.0575,331.816,371.1598,331.715,381.2622,331.9273,391.3645,331.9885,401.4669,332.3381,411.5693,332.4242,421.6716,332.4325,431.774,332.0041,441.8763,332.2149,451.9787,332.4557,462.081,331.0196,472.1834,332.4318,482.2857,331.448,492.3881,332.2858,502.4904,331.2477,512.5928,331.6781,522.6952,332.4954,532.7975,331.698,542.8999,331.8534,553.0022,332.0888,563.1046,332.1671,573.2069,331.7432,583.3093,332.037,593.4116,331.1697,603.514,332.0341,613.6164,332.3003,623.7187,332.1957,633.8211,331.7472,643.9234,331.7472,644.1296,329.7293,643.761,327.7114,643.7041,325.6935,643.7144,323.6756,643.9036,321.6577,643.9234,321.4594,643.9234,322.3452,633.8211,321.4815,623.7187,321.3116,613.6164,321.888,603.514,320.9849,593.4116,321.1339,583.3093,322.3125,573.2069,322.0973,563.1046,322.3988,553.0022,321.333,542.8999,321.9798,532.7975,322.2534,522.6952,321.1811,512.5928,321.561,502.4904,321.7848,492.3881,322.3153,482.2857,321.6535,472.1834,322.1244,462.081,321.099,451.9787,320.9744,441.8763,322.1658,431.774,320.9344,421.6716,322.1712,411.5693,321.8662,401.4669,321.3874,391.3645,321.3008,381.2622,322.1206,371.1598,321.3557,361.0575,322.2549,350.9551,321.1,340.8528,322.2807,330.7504,322.1463,320.6481,321.9049,310.5457,321.7054,300.4433,322.3908,290.341,322.2768,280.2386,321.6577,270.1363" style="stroke:#181818;stroke-width:1.0089;"/></g><g><title>C.mera</title><polygon fill="#A9DCDF" points="472.545,319.9904,472.545,320.0611,474.5629,319.8511,476.5808,320.0554,478.5987,320.1249,480.6166,319.7505,482.6345,319.9904,482.556,319.9904,482.2041,330.2209,482.2475,340.4514,482.5657,350.6819,481.9369,360.9124,483.1931,371.1429,481.9985,381.3734,482.4349,391.6038,482.6345,401.8343,482.6345,401.9796,480.6166,401.8055,478.5987,401.8573,476.5808,401.8236,474.5629,401.8944,472.545,401.8343,472.7863,401.8343,473.1359,391.6038,473.222,381.3734,473.2303,371.1429,472.8019,360.9124,473.0127,350.6819,473.2535,340.4514,471.8173,330.2209,472.545,319.9904" style="stroke:#181818;stroke-width:1.0089;"/></g><g class="message" data-participant-1="Sensor .ptico" data-participant-2="MCU"><polygon fill="#00BFFF" points="309.5503,266.1005,309.5766,266.1661,311.5165,266.7783,313.6103,267.7752,315.6539,268.6468,317.5328,269.1064,319.6398,270.1363,319.6301,270.112,317.5686,270.8103,315.5561,271.6308,313.5776,272.5365,311.4819,273.149,309.5503,274.1721,309.682,274.3037,310.2076,273.215,311.1176,272.5107,312.0745,271.8533,312.7586,270.923,313.5861,270.1363,313.6024,270.1525,312.7714,269.3215,312.0143,268.5644,311.2215,267.7717,310.4968,267.0469,309.5503,266.1005" style="stroke:#00BFFF;stroke-width:1.0089;"/><path d="M64.5705,270.1363 L64.5705,270.419 L74.6118,269.5789 L84.6532,270.3963 L94.6945,270.674 L104.7359,269.1766 L114.7772,270.0317 L124.8185,269.5625 L134.8599,269.6204 L144.9012,270.0446 L154.9426,269.2062 L164.9839,270.8811 L175.0253,269.2884 L185.0666,269.8702 L195.1079,270.7174 L205.1493,270.0209 L215.1906,270.2281 L225.232,270.0933 L235.2733,270.3764 L245.3146,270.458 L255.356,270.9242 L265.3973,271.039 L275.4387,271.0501 L285.48,270.4788 L295.5213,270.7599 L305.5627,271.081 L315.604,270.1363" fill="none" style="stroke:#00BFFF;stroke-width:1.0089;"/><text fill="#000000" font-family="sans-serif" font-size="13.1163" lengthAdjust="spacing" textLength="237.9172" x="71.6331" y="264.2753">Detecta produto no ponto de inspe&#231;&#227;o</text></g><g class="message" data-participant-1="MCU" data-participant-2="C.mera"><polygon fill="#00BFFF" points="460.4376,315.9547,460.4639,316.0203,462.4037,316.6324,464.4975,317.6293,466.5412,318.5009,468.4201,318.9605,470.5271,319.9904,470.5174,319.9662,468.4559,320.6644,466.4434,321.485,464.4649,322.3906,462.3691,323.0032,460.4376,324.0262,460.5693,324.1579,461.0949,323.0692,462.0049,322.3649,462.9618,321.7075,463.6458,320.7772,464.4734,319.9904,464.4896,320.0067,463.6586,319.1757,462.9015,318.4186,462.1088,317.6258,461.384,316.9011,460.4376,315.9547" style="stroke:#00BFFF;stroke-width:1.0089;"/><path d="M331.7472,319.9904 L331.7472,320.2732 L342.1121,319.4331 L352.4771,320.2505 L362.842,320.5281 L373.2069,319.0307 L383.5718,319.8859 L393.9368,319.4167 L404.3017,319.4745 L414.6666,319.8988 L425.0316,319.0604 L435.3965,320.7352 L445.7614,319.1425 L456.1264,319.7244 L466.4913,319.9904" fill="none" style="stroke:#00BFFF;stroke-width:1.0089;"/><text fill="#000000" font-family="sans-serif" font-size="13.1163" lengthAdjust="spacing" textLength="115.5287" x="338.8098" y="296.265">Produto detectado</text><text fill="#000000" font-family="sans-serif" font-size="13.1163" lengthAdjust="spacing" textLength="121.6278" x="338.8098" y="314.1295">(Ponto de inspe&#231;&#227;o)</text></g><g class="message" data-participant-1="EDGE" data-participant-2="C.mera"><polygon fill="#00BFFF" points="493.7329,365.8088,493.7591,365.8745,491.6632,366.4866,489.7212,367.4835,487.7291,368.3551,485.5722,368.8147,483.6434,369.8446,483.6337,369.8203,485.608,370.5186,487.6313,371.3392,489.6886,372.2448,491.6286,372.8574,493.7329,373.8804,493.8645,374.0121,492.7758,372.9234,492.0715,372.2191,491.4141,371.5616,490.4839,370.6314,489.6971,369.8446,489.7133,369.8608,490.4967,369.0299,491.3539,368.2727,492.1754,367.48,493.065,366.7553,493.7329,365.8088" style="stroke:#00BFFF;stroke-width:1.0089;"/><path d="M487.6792,369.8446 L487.6792,370.1274 L498.013,369.2872 L508.3469,370.1046 L518.6807,370.3823 L529.0145,368.8849 L539.3483,369.7401 L549.6822,369.2709 L560.016,369.3287 L570.3498,369.7529 L580.6837,368.9145 L591.0175,370.5894 L601.3513,368.9967 L611.6852,369.5786 L622.019,370.4257 L632.3528,369.7292 L642.6866,369.9364 L653.0205,369.8016 L663.3543,369.8446" fill="none" style="stroke:#00BFFF;stroke-width:1.0089;stroke-dasharray:2.0179,2.0179;"/><text fill="#000000" font-family="sans-serif" font-size="13.1163" lengthAdjust="spacing" textLength="94.4245" x="499.7866" y="346.1192">Solicita captura</text><text fill="#000000" font-family="sans-serif" font-size="13.1163" lengthAdjust="spacing" textLength="157.514" x="499.7866" y="363.9836">(resolu&#231;&#227;o 1920X1080 px)</text></g><g class="message" data-participant-1="C.mera" data-participant-2="EDGE"><polygon fill="#00BFFF" points="652.2559,397.7985,652.2821,397.8642,654.222,398.4763,656.3158,399.4732,658.3595,400.3448,660.2384,400.8044,662.3454,401.8343,662.3357,401.8101,660.2742,402.5083,658.2617,403.3289,656.2832,404.2345,654.1874,404.8471,652.2559,405.8701,652.3875,406.0018,652.9131,404.9131,653.8232,404.2088,654.7801,403.5514,655.4641,402.6211,656.2917,401.8343,656.3079,401.8506,655.4769,401.0196,654.7198,400.2625,653.9271,399.4697,653.2023,398.745,652.2559,397.7985" style="stroke:#00BFFF;stroke-width:1.0089;"/><path d="M477.5897,401.8343 L477.5897,402.1171 L487.6297,401.277 L497.6697,402.0944 L507.7097,402.372 L517.7497,400.8746 L527.7897,401.7298 L537.8297,401.2606 L547.8697,401.3184 L557.9097,401.7426 L567.9496,400.9043 L577.9896,402.5791 L588.0296,400.9864 L598.0696,401.5683 L608.1096,402.4154 L618.1496,401.7189 L628.1896,401.9261 L638.2296,401.7914 L648.2696,402.0745 L658.3096,401.8343" fill="none" style="stroke:#00BFFF;stroke-width:1.0089;"/><text fill="#000000" font-family="sans-serif" font-size="13.1163" lengthAdjust="spacing" textLength="119.0963" x="484.6524" y="395.9733">Envia imagem RAW</text></g><g class="message" data-participant-1="EDGE" data-participant-2="EDGE"><path d="M664.3633,433.824 L664.3633,433.9183 L672.8384,433.6383 L681.3136,433.9107 L689.7887,434.0033 L698.2639,433.5041 L706.7391,433.824" fill="none" style="stroke:#00BFFF;stroke-width:1.0089;stroke-dasharray:2.0179,2.0179;"/><path d="M706.7391,433.824 L706.8333,433.824 L706.5533,436.4473 L706.8257,439.0706 L706.9183,441.6938 L706.4192,444.3171 L706.7391,446.9404" fill="none" style="stroke:#00BFFF;stroke-width:1.0089;stroke-dasharray:2.0179,2.0179;"/><path d="M665.3722,446.9404 L665.3722,447.0346 L673.6456,446.7546 L681.9189,447.027 L690.1923,447.1196 L698.4657,446.6205 L706.7391,446.9404" fill="none" style="stroke:#00BFFF;stroke-width:1.0089;stroke-dasharray:2.0179,2.0179;"/><polygon fill="#00BFFF" points="675.4617,442.9046,675.4879,442.9702,673.392,443.5824,671.45,444.5793,669.4579,445.4509,667.301,445.9104,665.3722,446.9404,665.3625,446.9161,667.3368,447.6144,669.3601,448.4349,671.4174,449.3406,673.3574,449.9531,675.4617,450.9762,675.5933,451.1078,674.5046,450.0191,673.8003,449.3148,673.1429,448.6574,672.2126,447.7271,671.4259,446.9404,671.4421,446.9566,672.2254,446.1256,673.0827,445.3685,673.9042,444.5758,674.7938,443.851,675.4617,442.9046" style="stroke:#00BFFF;stroke-width:1.0089;"/><text fill="#000000" font-family="sans-serif" font-size="13.1163" lengthAdjust="spacing" textLength="258.641" x="671.4259" y="427.9631">Processa imagem (Compress&#227;o JPEG 85%)</text></g><polygon fill="#FEFFDD" points="582.1629,460.0567,582.1629,460.2688,592.3155,459.6387,602.468,460.2517,612.6206,460.4599,622.7731,459.3369,632.9256,459.9783,643.0782,459.6264,653.2307,459.6698,663.3832,459.9879,673.5358,459.3591,683.6883,460.6153,693.8409,459.4208,703.9934,459.8572,714.1459,460.4925,724.2985,459.9701,734.451,460.1255,744.6035,460.0567,744.5953,460.0498,746.6676,462.5166,748.7011,464.9511,750.8086,467.4472,752.8485,469.8871,754.693,472.1641,754.8741,472.3034,752.743,474.8395,750.7808,477.5057,748.8265,480.1779,746.4292,482.5092,744.6035,485.2804,744.6035,485.965,734.451,484.9812,724.2985,485.819,714.1459,484.7809,703.9934,485.2113,693.8409,486.0286,683.6883,485.2312,673.5358,485.3866,663.3832,485.622,653.2307,485.7003,643.0782,485.2764,632.9256,485.5702,622.7731,484.7029,612.6206,485.5673,602.468,485.8335,592.3155,485.7289,582.1629,485.2804,582.3264,485.4061,580.0163,482.5581,577.9533,479.9001,575.9436,477.2832,574.0757,474.7753,572.0735,472.1641,572.0227,472.1218,574.2674,469.8893,576.0641,467.2835,578.0385,464.8258,580.204,462.5273,582.1629,460.0567" style="stroke:#181818;stroke-width:0.5045;"/><text fill="#000000" font-family="sans-serif" font-size="13.1163" lengthAdjust="spacing" textLength="159.3765" x="584.1808" y="478.1138">Prepara para transmiss&#227;o</text><g class="message" data-participant-1="EDGE" data-participant-2="MDC"><polygon fill="#00BFFF" points="925.0221,510.9198,925.0484,510.9854,926.9883,511.5976,929.082,512.5945,931.1257,513.4661,933.0046,513.9257,935.1116,514.9556,935.1019,514.9313,933.0404,515.6296,931.0279,516.4502,929.0494,517.3558,926.9537,517.9683,925.0221,518.9914,925.1538,519.1231,925.6794,518.0343,926.5894,517.33,927.5463,516.6726,928.2304,515.7424,929.0579,514.9556,929.0741,514.9718,928.2432,514.1408,927.486,513.3837,926.6933,512.591,925.9686,511.8662,925.0221,510.9198" style="stroke:#00BFFF;stroke-width:1.0089;"/><path d="M664.3633,514.9556 L664.3633,515.2383 L674.6214,514.3982 L684.8796,515.2156 L695.1378,515.4933 L705.396,513.9959 L715.6541,514.8511 L725.9123,514.3819 L736.1705,514.4397 L746.4287,514.8639 L756.6868,514.0255 L766.945,515.7004 L777.2032,514.1077 L787.4614,514.6896 L797.7195,515.5367 L807.9777,514.8402 L818.2359,515.0474 L828.4941,514.9126 L838.7522,515.1958 L849.0104,515.2773 L859.2686,515.7435 L869.5268,515.8583 L879.7849,515.8694 L890.0431,515.2981 L900.3013,515.5792 L910.5595,515.9003 L920.8176,513.9854 L931.0758,514.9556" fill="none" style="stroke:#00BFFF;stroke-width:1.0089;"/><text fill="#000000" font-family="sans-serif" font-size="13.1163" lengthAdjust="spacing" textLength="240.0552" x="671.4259" y="509.0946">Transmite foto via SFTP (criptografado)</text></g><g class="message" data-participant-1="MDC" data-participant-2="EDGE"><polygon fill="#00BFFF" points="675.4617,542.9095,675.4879,542.9752,673.392,543.5873,671.45,544.5842,669.4579,545.4558,667.301,545.9154,665.3722,546.9453,665.3625,546.9211,667.3368,547.6193,669.3601,548.4399,671.4174,549.3455,673.3574,549.9581,675.4617,550.9811,675.5933,551.1128,674.5046,550.0241,673.8003,549.3198,673.1429,548.6624,672.2126,547.7321,671.4259,546.9453,671.4421,546.9615,672.2254,546.1306,673.0827,545.3735,673.9042,544.5807,674.7938,543.856,675.4617,542.9095" style="stroke:#00BFFF;stroke-width:1.0089;"/><path d="M669.408,546.9453 L669.408,547.2281 L679.6662,546.3879 L689.9243,547.2053 L700.1825,547.483 L710.4407,545.9856 L720.6989,546.8408 L730.957,546.3716 L741.2152,546.4294 L751.4734,546.8536 L761.7316,546.0152 L771.9897,547.6901 L782.2479,546.0974 L792.5061,546.6793 L802.7643,547.5264 L813.0224,546.8299 L823.2806,547.0371 L833.5388,546.9023 L843.797,547.1855 L854.0551,547.267 L864.3133,547.7332 L874.5715,547.8481 L884.8297,547.8591 L895.0878,547.2879 L905.346,547.569 L915.6042,547.89 L925.8624,545.9751 L936.1205,546.9453" fill="none" style="stroke:#00BFFF;stroke-width:1.0089;stroke-dasharray:2.0179,2.0179;"/><text fill="#000000" font-family="sans-serif" font-size="13.1163" lengthAdjust="spacing" textLength="215.6063" x="681.5154" y="541.0843">Confirma&#231;&#227;o de recebimento (ACK)</text></g><g class="message" data-participant-1="EDGE" data-participant-2="MCU"><polygon fill="#00BFFF" points="342.8456,592.7637,342.8719,592.8293,340.776,593.4415,338.834,594.4384,336.8419,595.31,334.6849,595.7696,332.7561,596.7995,332.7464,596.7752,334.7208,597.4735,336.744,598.294,338.8013,599.1997,340.7414,599.8122,342.8456,600.8353,342.9773,600.9669,341.8886,599.8782,341.1843,599.1739,340.5269,598.5165,339.5966,597.5862,338.8098,596.7995,338.8261,596.8157,339.6094,595.9847,340.4666,595.2276,341.2882,594.4349,342.1777,593.7101,342.8456,592.7637" style="stroke:#00BFFF;stroke-width:1.0089;"/><path d="M336.7919,596.7995 L336.7919,597.0822 L346.997,596.2421 L357.2021,597.0595 L367.4072,597.3372 L377.6122,595.8398 L387.8173,596.6949 L398.0224,596.2257 L408.2274,596.2836 L418.4325,596.7078 L428.6376,595.8694 L438.8427,597.5443 L449.0477,595.9516 L459.2528,596.5334 L469.4579,597.3806 L479.663,596.6841 L489.868,596.8913 L500.0731,596.7565 L510.2782,597.0396 L520.4833,597.1212 L530.6883,597.5874 L540.8934,597.7022 L551.0985,597.7133 L561.3036,597.142 L571.5086,597.4231 L581.7137,597.7442 L591.9188,595.8293 L602.1239,597.7123 L612.3289,596.4006 L622.534,597.5176 L632.7391,596.1335 L642.9442,596.7073 L653.1492,597.7971 L663.3543,596.7995" fill="none" style="stroke:#00BFFF;stroke-width:1.0089;stroke-dasharray:2.0179,2.0179;"/><text fill="#000000" font-family="sans-serif" font-size="13.1163" lengthAdjust="spacing" textLength="112.4726" x="348.8993" y="573.0741">Resposta: Captura</text><text fill="#000000" font-family="sans-serif" font-size="13.1163" lengthAdjust="spacing" textLength="113.4956" x="348.8993" y="590.9385">e envio conclu&#237;dos</text></g><path d="M576.1092,609.9158 L576.2977,609.9158 L575.7377,615.3641 L576.2826,620.8124 L576.4677,626.2608 L575.4694,631.7091 L576.1092,637.1574 L576.1092,636.9483 L586.2675,636.0099 L596.4258,636.1256 L606.5841,636.974 L616.7423,635.2973 L626.9006,638.647 L637.0589,635.4616 L647.2171,636.6253 L657.3754,638.3196 L667.5337,636.9266 L677.692,637.341 L687.8502,637.0714 L698.0085,637.6377 L708.1668,637.8008 L718.325,638.7332 L728.4833,638.9629 L738.6416,638.985 L748.7999,637.8425 L758.9581,638.4047 L769.1164,639.0468 L779.2747,635.217 L789.4329,638.983 L799.5912,636.3597 L809.7495,638.5936 L819.9077,635.8255 L830.066,636.9731 L840.2243,639.1527 L850.3826,637.0263 L860.5408,637.4407 L870.6991,638.0685 L880.8574,638.2773 L891.0156,637.1469 L901.1739,637.9302 L911.3322,635.6173 L921.4905,637.9226 L931.6487,638.6323 L941.807,638.3534 L951.9653,638.8068 L962.1235,635.8577 L972.2818,635.4027 L982.4401,635.4855 L992.5984,636.999 L1002.7566,636.6286 L1012.9149,638.9908 L1023.0732,637.1574 L1022.9165,637.1574 L1022.7655,633.727 L1023.2779,630.2966 L1022.4751,626.8661 L1022.6076,623.4357 L1023.0732,620.0053 L1023.4847,620.4168 L1021.3316,618.2637 L1019.5032,616.4353 L1016.8154,613.7475 L1015.204,612.1361 L1012.9837,609.9158 L1012.9837,611.5043 L1002.8238,608.6448 L992.6639,609.6579 L982.5041,610.2548 L972.3442,611.6694 L962.1843,609.9045 L952.0245,611.1604 L941.8646,608.4258 L931.7047,608.0936 L921.5449,611.2708 L911.385,607.9869 L901.2251,611.2852 L891.0652,610.4717 L880.9054,609.195 L870.7455,608.964 L860.5856,611.1501 L850.4258,609.1104 L840.2659,611.5082 L830.106,608.4286 L819.9461,611.577 L809.7863,611.2188 L799.6264,610.5749 L789.4665,610.0429 L779.3067,611.8708 L769.1468,611.5667 L758.9869,610.3712 L748.827,610.6374 L738.6672,609.5653 L728.5073,611.8434 L718.3474,610.3325 L708.1876,610.3801 L698.0277,608.279 L687.8678,608.8255 L677.708,611.3438 L667.5481,611.0721 L657.3882,609.8003 L647.2283,609.049 L637.0685,609.3268 L626.9086,608.0696 L616.7487,611.0317 L606.5889,611.9056 L596.429,611.3321 L586.2691,611.7855 L576.1092,609.9158" fill="#FEFFDD" style="stroke:#181818;stroke-width:0.5045;"/><path d="M1012.9837,609.9158 L1012.8611,609.9158 L1013.0619,611.9337 L1012.6361,613.9516 L1013.2384,615.9695 L1013.205,617.9874 L1012.9837,620.0053 L1012.9837,620.5007 L1015.0016,619.7993 L1017.0195,619.8847 L1019.0374,620.403 L1021.0553,620.5141 L1023.0732,620.0053 L1022.7481,619.6803 L1020.9323,617.8644 L1019.132,616.0642 L1016.6321,613.5642 L1015.2257,612.1578 L1012.9837,609.9158" fill="#FEFFDD" style="stroke:#181818;stroke-width:0.5045;"/><text fill="#000000" font-family="sans-serif" font-size="13.1163" lengthAdjust="spacing" textLength="159.9931" x="715.3661" y="628.9819">Tempo total &lt; 2 segundos</text><text fill="#1E90FF" font-family="Arial" font-size="14.1253" font-weight="bold" lengthAdjust="spacing" textLength="160.6885" x="30.2684" y="689.2917">Casos de Uso cobertos:</text><text fill="#1E90FF" font-family="Arial" font-size="14.1253" lengthAdjust="spacing" textLength="4.5483" x="30.2684" y="708.5302">-</text><text fill="#1E90FF" font-family="Arial" font-size="14.1253" font-weight="bold" lengthAdjust="spacing" textLength="51.105" x="38.4893" y="708.5302">MC-006</text><text fill="#1E90FF" font-family="Arial" font-size="14.1253" lengthAdjust="spacing" textLength="340.22" x="89.5943" y="708.5302">: Captura de Fotografia para Controle de Qualidade</text><polygon fill="none" points="218.4262,62.1922,218.4262,62.4042,228.4411,61.7742,238.456,62.3872,248.4709,62.5954,258.4859,61.4724,268.5008,62.1138,278.5157,61.7619,288.5306,61.8052,298.5455,62.1234,308.5604,61.4946,318.5753,62.7508,328.5902,61.5563,338.6052,61.9926,348.6201,62.628,358.635,62.1056,368.6499,62.261,378.6648,62.1599,388.6797,62.3723,398.6946,62.4335,408.7096,62.7831,418.7245,62.8692,428.7394,62.8775,438.7543,62.4491,448.7692,62.6599,458.7841,62.9007,468.799,61.4645,478.8139,62.8768,488.8289,61.893,498.8438,62.7308,508.8587,61.6927,518.8736,62.1231,528.8885,62.9404,538.9034,62.143,548.9183,62.2984,558.9333,62.5338,568.9482,62.6121,578.9631,62.1882,588.978,62.482,598.9929,61.6146,609.0078,62.4791,619.0227,62.7453,629.0376,62.6407,639.0526,62.8107,649.0675,61.7048,659.0824,61.5342,669.0973,61.5652,679.1122,62.1328,689.1271,61.9939,699.142,62.8797,709.157,62.0159,719.1719,61.8461,729.1868,62.4225,739.2017,61.5194,749.2166,61.6684,759.2315,62.8469,769.2464,62.6317,779.2614,62.9332,789.2763,61.8675,799.2912,62.5142,809.3061,62.1922,809.3821,62.3756,810.3154,62.4887,811.4341,63.0489,812.5328,63.5611,813.6706,64.1678,814.6568,64.4085,814.6555,64.408,815.2438,65.5382,815.3713,66.4776,815.7762,67.5318,816.5864,68.754,816.8732,69.7593,816.1498,69.7593,817.3867,80.3008,817.0817,90.8423,816.6029,101.3837,816.5163,111.9252,816.8732,122.4667,817.0157,122.5257,816.3369,123.4983,816.1706,124.6832,815.3716,125.606,815.292,126.8268,814.6568,127.8175,814.7192,127.9679,813.6182,128.3368,812.5226,128.7187,811.5399,129.373,810.4552,129.7812,809.3061,130.0338,809.3061,130.2046,799.2912,130.3044,789.2763,129.9024,779.2614,130.7567,769.2464,130.1901,759.2315,130.2079,749.2166,129.42,739.2017,129.625,729.1868,130.5693,719.1719,130.4674,709.157,129.9905,699.142,129.7088,689.1271,129.8129,679.1122,129.3415,669.0973,130.4523,659.0824,130.78,649.0675,130.5649,639.0526,130.735,629.0376,129.8959,619.0227,130.1218,609.0078,129.6427,598.9929,130.3204,588.978,130.2828,578.9631,130.5911,568.9482,129.8021,558.9333,129.8982,548.9183,130.4812,538.9034,130.6062,528.8885,129.5167,518.8736,129.8382,508.8587,130.1844,498.8438,129.4175,488.8289,130.3904,478.8139,130.2941,468.799,129.9321,458.7841,130.1773,448.7692,130.769,438.7543,129.7181,428.7394,130.3516,418.7245,130.322,408.7096,130.1506,398.6946,130.176,388.6797,130.1483,378.6648,129.4041,368.6499,129.6294,358.635,129.5681,348.6201,130.0982,338.6052,130.1227,328.5902,130.197,318.5753,129.7402,308.5604,129.9657,298.5455,129.9125,288.5306,130.6158,278.5157,130.4642,268.5008,129.5439,258.4859,129.9602,248.4709,129.4514,238.456,130.3248,228.4411,130.6477,218.4262,130.0338,218.4963,130.203,217.3,129.4552,216.3456,129.2914,215.1201,128.4732,214.1714,128.3229,213.0754,127.8175,212.9824,127.7789,212.6622,126.7598,212.2636,125.7081,211.8923,124.6678,211.0787,123.4442,210.8591,122.4667,211.3388,122.4667,211.0389,111.9252,211.2176,101.3837,211.6136,90.8423,210.8646,80.3008,210.8591,69.7593,210.9136,69.7818,211.3687,68.7166,211.8069,67.6444,212.1887,66.5487,212.853,65.5702,213.0754,64.4085,212.997,64.2191,214.2183,64.1409,215.1354,63.3281,216.2164,62.9108,217.3612,62.6479,218.4262,62.1922" style="stroke:#000000;stroke-width:1.0089;"/><text fill="#1E90FF" font-family="Arial" font-size="20.179" font-weight="bold" lengthAdjust="spacing" textLength="565.6562" x="231.038" y="103.9424">Diagrama de Sequ&#234;ncia - M&#243;dulo de Controle (MC) - Foto</text><!--SRC=[PLBDRjD04BxlKmn1IB55Q5e9L29KgNASIA1AeMu51ovRxoIiPEyik-i0py4Rm049YHEFu1TZrewR9lKXZdRc-rq_qQQi6eKmpnV52zlKbH2o3EHWLA3n_6v_sA1B6WbnV0AJ2xZARcSmnu1ba60TgIOG609BXlymhpRUOlkx_KMHLszbm0Y2fzFk4K9OwPXEMsa2Z7Wq0kdZoi4WQt_MwEJHSljFDHL1hZRuoOnNZahqNjR8sYTBLlegloSTNJvVvaVOUNQILTGe1XRejbfnic9ni-e1F1OY-kICEssOmMeNKFM15KNLnqcJVTJ1TpG0amEoWYfsmxMLqeQ6ZvZCeQUgwKZWzFNPzEFfz7mAzbiY1XnJT5mpoCrMIz2rt60DrvSVXC97idlT7MZeQC2DCwejg_ge-7QLB-7yvRD4V3R4BBH5jmSYzyTt77-2ayRNkaCD6XUnCrwywMSCNnCN4pt6Mc5SEcq3RPnSSt69YDiFZ6LarjhLii_ETJeiyKvtTmdZo-nTyY1Cl9WPNAEtv8Day7s32CYr49GKl-lsho8l3hCyZpxP9jQM852G5Ro1C_2uQKpS5XLkq2WUMG5fEjUIBTSoMYhmIzF-CIL7ci3myV4vUm-EAeJnLPRmQC71qrH4bfvCY3Mn2IU06JFfoKVOhOy-xz05yZFU1s1icbvba-dqLPhkO_5kf8pLwTqDt4lox7qZAwsamawnLm8G_m40]--></g></svg>