<svg xmlns="http://www.w3.org/2000/svg" xmlns:xlink="http://www.w3.org/1999/xlink" contentStyleType="text/css" data-diagram-type="SEQUENCE" height="750.3104px" preserveAspectRatio="none" style="width:1085px;height:750px;background:#EEEBDC;" version="1.1" viewBox="0 0 1085 750" width="1085.0806px" zoomAndPan="magnify"><defs/><g><rect fill="#EEEBDC" height="750.3104" style="stroke:none;stroke-width:1.0628;" width="1085.0806" x="0" y="0"/><g><title>MCU</title><polygon fill="#000000" points="338.8141,244.5416,338.8141,244.6161,340.9396,244.3948,343.0651,244.6101,345.1907,244.6832,347.3162,244.2889,349.4417,244.5416,349.3591,244.5416,348.9885,255.1828,349.0342,265.824,349.3693,276.4652,348.707,287.1064,350.0301,297.7475,348.7719,308.3887,349.2315,319.0299,349.9008,329.6711,349.3506,340.3123,349.5142,350.9535,349.4078,361.5947,349.6315,372.2359,349.6959,382.877,350.0642,393.5182,350.1549,404.1594,350.1636,414.8006,349.7123,425.4418,349.9344,436.083,350.188,446.7242,348.6753,457.3654,350.1628,468.0066,349.1266,478.6477,350.009,489.2889,348.9156,499.9301,349.3689,510.5713,350.2299,521.2125,349.3899,531.8537,349.5536,542.4949,349.8016,553.1361,349.8841,563.7773,349.4376,574.4184,349.747,585.0596,348.8334,595.7008,349.744,606.342,350.0243,616.9832,349.9142,627.6244,349.4417,638.2656,349.4417,638.4827,347.3162,638.0944,345.1907,638.0345,343.0651,638.0454,340.9396,638.2447,338.8141,638.2656,338.6052,638.2656,339.5383,627.6244,338.6285,616.9832,338.4495,606.342,339.0567,595.7008,338.1054,585.0596,338.2624,574.4184,339.5038,563.7773,339.2771,553.1361,339.5947,542.4949,338.4721,531.8537,339.1533,521.2125,339.4416,510.5713,338.312,499.9301,338.7122,489.2889,338.948,478.6477,339.5068,468.0066,338.8096,457.3654,339.3057,446.7242,338.2256,436.083,338.0943,425.4418,339.3493,414.8006,338.0522,404.1594,339.355,393.5182,339.0337,382.877,338.5294,372.2359,338.4381,361.5947,339.3016,350.9535,338.496,340.3123,339.4431,329.6711,338.2267,319.0299,339.4703,308.3887,339.3288,297.7475,339.0744,287.1064,338.8643,276.4652,339.5863,265.824,339.4662,255.1828,338.8141,244.5416" style="stroke:#181818;stroke-width:1.0628;"/></g><g><title>C.mera</title><polygon fill="#A9DCDF" points="497.7493,297.0549,497.7493,297.1293,499.8748,296.9081,502.0003,297.1233,504.1259,297.1964,506.2514,296.8021,508.3769,297.0549,508.2943,297.0549,507.9237,307.831,507.9694,318.6072,508.3045,329.3833,507.6422,340.1595,508.9653,350.9356,507.7071,361.7118,508.1667,372.4879,508.3769,383.2641,508.3769,383.4171,506.2514,383.2337,504.1259,383.2883,502.0003,383.2528,499.8748,383.3273,497.7493,383.2641,498.0034,383.2641,498.3717,372.4879,498.4625,361.7118,498.4712,350.9356,498.0199,340.1595,498.242,329.3833,498.4956,318.6072,496.9828,307.831,497.7493,297.0549" style="stroke:#181818;stroke-width:1.0628;"/></g><g><title>Sensor .ptico</title><polygon fill="#000000" fill-opacity="0.00000" points="63.7635,208.7201,63.7635,208.7946,65.4639,208.5733,67.1643,208.7886,68.8647,208.8617,70.5652,208.4674,72.2656,208.7201,72.183,208.7201,71.8123,219.4301,71.858,230.1401,72.1931,240.8501,71.5308,251.5601,72.854,262.2701,71.5957,272.9802,72.0554,283.6902,72.7246,294.4002,72.1744,305.1102,72.3381,315.8202,72.2316,326.5302,72.4553,337.2402,72.5197,347.9502,72.888,358.6602,72.9787,369.3702,72.9875,380.0802,72.5362,390.7902,72.7583,401.5002,73.0119,412.2103,71.4991,422.9203,72.9867,433.6303,71.9505,444.3403,72.8329,455.0503,71.7395,465.7603,72.1928,476.4703,73.0537,487.1803,72.2138,497.8903,72.3775,508.6003,72.6255,519.3103,72.7079,530.0203,72.2614,540.7304,72.5708,551.4404,71.6572,562.1504,72.5678,572.8604,72.8482,583.5704,72.738,594.2804,72.9171,604.9904,71.7522,615.7004,71.5725,626.4104,71.6052,637.1204,72.2656,647.8304,72.2656,647.8096,70.5652,647.7608,68.8647,648.0718,67.1643,647.7686,65.4639,647.7089,63.7635,647.8304,64.0061,647.8304,63.0548,637.1204,63.2118,626.4104,64.4532,615.7004,64.2265,604.9904,64.5441,594.2804,63.4215,583.5704,64.1027,572.8604,64.391,562.1504,63.2614,551.4404,63.6616,540.7304,63.8974,530.0203,64.4561,519.3103,63.759,508.6003,64.2551,497.8903,63.1749,487.1803,63.0437,476.4703,64.2987,465.7603,63.0015,455.0503,64.3044,444.3403,63.9831,433.6303,63.4787,422.9203,63.3875,412.2103,64.251,401.5002,63.4454,390.7902,64.3925,380.0802,63.176,369.3702,64.4197,358.6602,64.2782,347.9502,64.0238,337.2402,63.8137,326.5302,64.5357,315.8202,64.4156,305.1102,63.9434,294.4002,64.0485,283.6902,63.625,272.9802,64.5249,262.2701,63.9281,251.5601,63.9469,240.8501,63.1169,230.1401,63.3328,219.4301,63.7635,208.7201"/><path d="M66.954,208.7201 L67.2519,208.7201 L66.3669,219.4301 L67.2279,230.1401 L67.5204,240.8501 L65.9431,251.5601 L66.8439,262.2701 L66.3497,272.9802 L66.4106,283.6902 L66.8575,294.4002 L65.9744,305.1102 L67.7386,315.8202 L66.0609,326.5302 L66.6738,337.2402 L67.5661,347.9502 L66.8325,358.6602 L67.0507,369.3702 L66.9088,380.0802 L67.207,390.7902 L67.2929,401.5002 L67.784,412.2103 L67.9049,422.9203 L67.9166,433.6303 L67.3149,444.3403 L67.6109,455.0503 L67.9491,465.7603 L65.9321,476.4703 L67.9155,487.1803 L66.5339,497.8903 L67.7105,508.6003 L66.2526,519.3103 L66.857,530.0203 L68.0049,540.7304 L66.885,551.4404 L67.1033,562.1504 L67.4339,572.8604 L67.5438,583.5704 L66.9485,594.2804 L67.361,604.9904 L66.1429,615.7004 L67.357,626.4104 L67.7308,637.1204 L66.954,647.8304" fill="none" style="stroke:#0000FF;stroke-width:0.5314;stroke-dasharray:5.3138,5.3138;"/></g><g><title>MCU</title><polygon fill="#000000" fill-opacity="0.00000" points="339.8769,208.7201,339.8769,208.7946,341.5773,208.5733,343.2777,208.7886,344.9781,208.8617,346.6785,208.4674,348.379,208.7201,348.2964,208.7201,347.9257,219.4301,347.9714,230.1401,348.3065,240.8501,347.6442,251.5601,348.9673,262.2701,347.7091,272.9802,348.1688,283.6902,348.838,294.4002,348.2878,305.1102,348.4515,315.8202,348.345,326.5302,348.5687,337.2402,348.6331,347.9502,349.0014,358.6602,349.0921,369.3702,349.1008,380.0802,348.6496,390.7902,348.8716,401.5002,349.1253,412.2103,347.6125,422.9203,349.1001,433.6303,348.0638,444.3403,348.9463,455.0503,347.8529,465.7603,348.3062,476.4703,349.1671,487.1803,348.3272,497.8903,348.4909,508.6003,348.7388,519.3103,348.8213,530.0203,348.3748,540.7304,348.6842,551.4404,347.7706,562.1504,348.6812,572.8604,348.9616,583.5704,348.8514,594.2804,349.0305,604.9904,347.8656,615.7004,347.6858,626.4104,347.7186,637.1204,348.379,647.8304,348.379,647.8096,346.6785,647.7608,344.9781,648.0718,343.2777,647.7686,341.5773,647.7089,339.8769,647.8304,340.1195,647.8304,339.1682,637.1204,339.3252,626.4104,340.5665,615.7004,340.3399,604.9904,340.6574,594.2804,339.5349,583.5704,340.2161,572.8604,340.5043,562.1504,339.3748,551.4404,339.775,540.7304,340.0107,530.0203,340.5695,519.3103,339.8724,508.6003,340.3685,497.8903,339.2883,487.1803,339.1571,476.4703,340.4121,465.7603,339.1149,455.0503,340.4178,444.3403,340.0965,433.6303,339.5921,422.9203,339.5009,412.2103,340.3644,401.5002,339.5587,390.7902,340.5059,380.0802,339.2894,369.3702,340.533,358.6602,340.3916,347.9502,340.1372,337.2402,339.927,326.5302,340.6491,315.8202,340.5289,305.1102,340.0567,294.4002,340.1619,283.6902,339.7384,272.9802,340.6383,262.2701,340.0414,251.5601,340.0603,240.8501,339.2303,230.1401,339.4462,219.4301,339.8769,208.7201"/><path d="M343.8144,208.7201 L344.1123,208.7201 L343.2273,219.4301 L344.0883,230.1401 L344.3808,240.8501 L342.8036,251.5601 L343.7043,262.2701 L343.2101,272.9802 L343.271,283.6902 L343.7179,294.4002 L342.8348,305.1102 L344.599,315.8202 L342.9213,326.5302 L343.5342,337.2402 L344.4265,347.9502 L343.6929,358.6602 L343.9111,369.3702 L343.7692,380.0802 L344.0674,390.7902 L344.1533,401.5002 L344.6444,412.2103 L344.7653,422.9203 L344.777,433.6303 L344.1753,444.3403 L344.4714,455.0503 L344.8095,465.7603 L342.7925,476.4703 L344.7759,487.1803 L343.3943,497.8903 L344.5709,508.6003 L343.113,519.3103 L343.7174,530.0203 L344.8653,540.7304 L343.7454,551.4404 L343.9637,562.1504 L344.2943,572.8604 L344.4043,583.5704 L343.8089,594.2804 L344.2214,604.9904 L343.0033,615.7004 L344.2174,626.4104 L344.5912,637.1204 L343.8144,647.8304" fill="none" style="stroke:#0000FF;stroke-width:0.5314;stroke-dasharray:5.3138,5.3138;"/></g><g><title>C.mera</title><polygon fill="#000000" fill-opacity="0.00000" points="498.8121,208.7201,498.8121,208.7946,500.5125,208.5733,502.2129,208.7886,503.9133,208.8617,505.6137,208.4674,507.3142,208.7201,507.2316,208.7201,506.8609,219.4301,506.9066,230.1401,507.2417,240.8501,506.5794,251.5601,507.9026,262.2701,506.6443,272.9802,507.104,283.6902,507.7732,294.4002,507.223,305.1102,507.3867,315.8202,507.2802,326.5302,507.5039,337.2402,507.5683,347.9502,507.9366,358.6602,508.0273,369.3702,508.036,380.0802,507.5848,390.7902,507.8068,401.5002,508.0605,412.2103,506.5477,422.9203,508.0353,433.6303,506.999,444.3403,507.8815,455.0503,506.7881,465.7603,507.2414,476.4703,508.1023,487.1803,507.2624,497.8903,507.4261,508.6003,507.674,519.3103,507.7565,530.0203,507.31,540.7304,507.6194,551.4404,506.7058,562.1504,507.6164,572.8604,507.8968,583.5704,507.7866,594.2804,507.9657,604.9904,506.8008,615.7004,506.621,626.4104,506.6538,637.1204,507.3142,647.8304,507.3142,647.8096,505.6137,647.7608,503.9133,648.0718,502.2129,647.7686,500.5125,647.7089,498.8121,647.8304,499.0547,647.8304,498.1034,637.1204,498.2604,626.4104,499.5017,615.7004,499.2751,604.9904,499.5926,594.2804,498.4701,583.5704,499.1513,572.8604,499.4395,562.1504,498.31,551.4404,498.7102,540.7304,498.946,530.0203,499.5047,519.3103,498.8076,508.6003,499.3037,497.8903,498.2235,487.1803,498.0923,476.4703,499.3473,465.7603,498.0501,455.0503,499.353,444.3403,499.0317,433.6303,498.5273,422.9203,498.4361,412.2103,499.2996,401.5002,498.4939,390.7902,499.4411,380.0802,498.2246,369.3702,499.4682,358.6602,499.3268,347.9502,499.0724,337.2402,498.8622,326.5302,499.5843,315.8202,499.4641,305.1102,498.9919,294.4002,499.0971,283.6902,498.6736,272.9802,499.5735,262.2701,498.9766,251.5601,498.9955,240.8501,498.1655,230.1401,498.3814,219.4301,498.8121,208.7201"/><path d="M502.8921,208.7201 L503.1899,208.7201 L502.305,219.4301 L503.166,230.1401 L503.4584,240.8501 L501.8812,251.5601 L502.782,262.2701 L502.2877,272.9802 L502.3487,283.6902 L502.7955,294.4002 L501.9124,305.1102 L503.6766,315.8202 L501.999,326.5302 L502.6119,337.2402 L503.5042,347.9502 L502.7705,358.6602 L502.9888,369.3702 L502.8468,380.0802 L503.1451,390.7902 L503.2309,401.5002 L503.722,412.2103 L503.843,422.9203 L503.8546,433.6303 L503.2529,444.3403 L503.549,455.0503 L503.8872,465.7603 L501.8702,476.4703 L503.8536,487.1803 L502.4719,497.8903 L503.6485,508.6003 L502.1906,519.3103 L502.795,530.0203 L503.943,540.7304 L502.823,551.4404 L503.0413,562.1504 L503.3719,572.8604 L503.4819,583.5704 L502.8866,594.2804 L503.2991,604.9904 L502.081,615.7004 L503.2951,626.4104 L503.6689,637.1204 L502.8921,647.8304" fill="none" style="stroke:#0000FF;stroke-width:0.5314;stroke-dasharray:5.3138,5.3138;"/></g><g><title>M.dulo Edge</title><polygon fill="#000000" fill-opacity="0.00000" points="695.5476,208.7201,695.5476,208.7946,697.248,208.5733,698.9484,208.7886,700.6489,208.8617,702.3493,208.4674,704.0497,208.7201,703.9671,208.7201,703.5964,219.4301,703.6421,230.1401,703.9773,240.8501,703.3149,251.5601,704.6381,262.2701,703.3799,272.9802,703.8395,283.6902,704.5088,294.4002,703.9585,305.1102,704.1222,315.8202,704.0158,326.5302,704.2394,337.2402,704.3039,347.9502,704.6722,358.6602,704.7629,369.3702,704.7716,380.0802,704.3203,390.7902,704.5424,401.5002,704.796,412.2103,703.2833,422.9203,704.7708,433.6303,703.7346,444.3403,704.617,455.0503,703.5236,465.7603,703.9769,476.4703,704.8379,487.1803,703.9979,497.8903,704.1616,508.6003,704.4096,519.3103,704.4921,530.0203,704.0456,540.7304,704.3549,551.4404,703.4414,562.1504,704.3519,572.8604,704.6323,583.5704,704.5221,594.2804,704.7012,604.9904,703.5363,615.7004,703.3566,626.4104,703.3893,637.1204,704.0497,647.8304,704.0497,647.8096,702.3493,647.7608,700.6489,648.0718,698.9484,647.7686,697.248,647.7089,695.5476,647.8304,695.7902,647.8304,694.8389,637.1204,694.9959,626.4104,696.2373,615.7004,696.0106,604.9904,696.3282,594.2804,695.2056,583.5704,695.8868,572.8604,696.1751,562.1504,695.0456,551.4404,695.4457,540.7304,695.6815,530.0203,696.2403,519.3103,695.5432,508.6003,696.0392,497.8903,694.9591,487.1803,694.8278,476.4703,696.0828,465.7603,694.7857,455.0503,696.0885,444.3403,695.7672,433.6303,695.2629,422.9203,695.1716,412.2103,696.0352,401.5002,695.2295,390.7902,696.1766,380.0802,694.9602,369.3702,696.2038,358.6602,696.0623,347.9502,695.808,337.2402,695.5978,326.5302,696.3198,315.8202,696.1997,305.1102,695.7275,294.4002,695.8326,283.6902,695.4092,272.9802,696.309,262.2701,695.7122,251.5601,695.731,240.8501,694.9011,230.1401,695.117,219.4301,695.5476,208.7201"/><path d="M699.106,208.7201 L699.4038,208.7201 L698.5189,219.4301 L699.3799,230.1401 L699.6724,240.8501 L698.0951,251.5601 L698.9959,262.2701 L698.5017,272.9802 L698.5626,283.6902 L699.0094,294.4002 L698.1263,305.1102 L699.8905,315.8202 L698.2129,326.5302 L698.8258,337.2402 L699.7181,347.9502 L698.9845,358.6602 L699.2027,369.3702 L699.0607,380.0802 L699.359,390.7902 L699.4449,401.5002 L699.9359,412.2103 L700.0569,422.9203 L700.0685,433.6303 L699.4668,444.3403 L699.7629,455.0503 L700.1011,465.7603 L698.0841,476.4703 L700.0675,487.1803 L698.6859,497.8903 L699.8624,508.6003 L698.4045,519.3103 L699.0089,530.0203 L700.1569,540.7304 L699.0369,551.4404 L699.2552,562.1504 L699.5858,572.8604 L699.6958,583.5704 L699.1005,594.2804 L699.513,604.9904 L698.2949,615.7004 L699.509,626.4104 L699.8828,637.1204 L699.106,647.8304" fill="none" style="stroke:#0000FF;stroke-width:0.5314;stroke-dasharray:5.3138,5.3138;"/></g><g><title>MDC.Cloud</title><polygon fill="#000000" fill-opacity="0.00000" points="982.8625,208.7201,982.8625,208.7946,984.5629,208.5733,986.2633,208.7886,987.9637,208.8617,989.6642,208.4674,991.3646,208.7201,991.282,208.7201,990.9113,219.4301,990.957,230.1401,991.2922,240.8501,990.6298,251.5601,991.953,262.2701,990.6947,272.9802,991.1544,283.6902,991.8236,294.4002,991.2734,305.1102,991.4371,315.8202,991.3306,326.5302,991.5543,337.2402,991.6187,347.9502,991.987,358.6602,992.0778,369.3702,992.0865,380.0802,991.6352,390.7902,991.8573,401.5002,992.1109,412.2103,990.5981,422.9203,992.0857,433.6303,991.0495,444.3403,991.9319,455.0503,990.8385,465.7603,991.2918,476.4703,992.1527,487.1803,991.3128,497.8903,991.4765,508.6003,991.7245,519.3103,991.8069,530.0203,991.3604,540.7304,991.6698,551.4404,990.7562,562.1504,991.6668,572.8604,991.9472,583.5704,991.837,594.2804,992.0161,604.9904,990.8512,615.7004,990.6715,626.4104,990.7042,637.1204,991.3646,647.8304,991.3646,647.8096,989.6642,647.7608,987.9637,648.0718,986.2633,647.7686,984.5629,647.7089,982.8625,647.8304,983.1051,647.8304,982.1538,637.1204,982.3108,626.4104,983.5522,615.7004,983.3255,604.9904,983.6431,594.2804,982.5205,583.5704,983.2017,572.8604,983.49,562.1504,982.3604,551.4404,982.7606,540.7304,982.9964,530.0203,983.5552,519.3103,982.858,508.6003,983.3541,497.8903,982.2739,487.1803,982.1427,476.4703,983.3977,465.7603,982.1005,455.0503,983.4034,444.3403,983.0821,433.6303,982.5778,422.9203,982.4865,412.2103,983.35,401.5002,982.5444,390.7902,983.4915,380.0802,982.2751,369.3702,983.5187,358.6602,983.3772,347.9502,983.1228,337.2402,982.9127,326.5302,983.6347,315.8202,983.5146,305.1102,983.0424,294.4002,983.1475,283.6902,982.724,272.9802,983.6239,262.2701,983.0271,251.5601,983.0459,240.8501,982.216,230.1401,982.4318,219.4301,982.8625,208.7201"/><path d="M986.4558,208.7201 L986.7537,208.7201 L985.8687,219.4301 L986.7297,230.1401 L987.0222,240.8501 L985.4449,251.5601 L986.3457,262.2701 L985.8515,272.9802 L985.9124,283.6902 L986.3593,294.4002 L985.4762,305.1102 L987.2404,315.8202 L985.5627,326.5302 L986.1756,337.2402 L987.0679,347.9502 L986.3343,358.6602 L986.5525,369.3702 L986.4106,380.0802 L986.7088,390.7902 L986.7947,401.5002 L987.2858,412.2103 L987.4067,422.9203 L987.4184,433.6303 L986.8166,444.3403 L987.1127,455.0503 L987.4509,465.7603 L985.4339,476.4703 L987.4173,487.1803 L986.0357,497.8903 L987.2123,508.6003 L985.7544,519.3103 L986.3588,530.0203 L987.5067,540.7304 L986.3868,551.4404 L986.6051,562.1504 L986.9357,572.8604 L987.0456,583.5704 L986.4503,594.2804 L986.8628,604.9904 L985.6447,615.7004 L986.8588,626.4104 L987.2326,637.1204 L986.4558,647.8304" fill="none" style="stroke:#0000FF;stroke-width:0.5314;stroke-dasharray:5.3138,5.3138;"/></g><g class="participant participant-head" data-participant="Sensor .ptico"><text fill="#1E90FF" font-family="Aapex" font-size="18.067" lengthAdjust="spacing" textLength="119.0248" x="5.3138" y="203.4265">Sensor &#211;ptico</text><polygon fill="#00BFFF" points="76.5636,131.4487,75.3173,133.1516,73.8433,135.6457,71.7351,137.3266,69.5197,138.2458,67.7533,138.3255,65.483,137.176,63.3408,136.425,61.7149,134.9002,60.862,133.1547,60.3562,131.7648,59.8607,129.9493,59.0564,128.3871,59.6744,126.8617,60.2159,125.1909,62.248,123.8694,63.6777,122.1547,65.4472,121.5854,67.5509,121.095,70.2486,121.3864,71.7261,122.0832,73.444,122.3991,75.5328,124.5391,76.261,126.7983,76.5774,128.3398,76.219,130.8801" style="stroke:#00BFFF;stroke-width:0.5314;"/><path d="M68.0145,137.8828 L68.2131,137.8828 L67.6231,143.6217 L68.1971,149.3606 L68.3921,155.0995 L67.3406,160.8385 L68.0145,166.5774 M54.1986,146.3849 L54.1986,146.3115 L59.725,145.982 L65.2513,146.0226 L70.7777,146.3205 L76.3041,145.7318 L81.8304,146.3849 M68.0145,166.5774 L68.4098,166.9199 L64.8014,169.3757 L62.347,172.8316 L60.0333,176.4095 L56.9006,179.2775 L54.1986,182.5188 M68.0145,166.5774 L68.0632,166.6196 L70.7549,169.7459 L73.6683,173.0644 L76.4748,176.2902 L79.4854,179.6929 L81.8304,182.5188" fill="none" style="stroke:#00BFFF;stroke-width:0.5314;"/></g><g class="participant participant-head" data-participant="MCU"><polygon fill="#1E90FF" points="318.8395,168.1715,318.8395,168.3949,328.9549,167.7312,339.0702,168.3769,349.1856,168.5963,359.3009,167.4133,369.4163,168.1715,369.4058,168.1461,369.7342,168.1876,370.1158,168.3573,370.5343,168.6161,370.8255,168.5678,371.295,168.9497,371.4762,169.0248,371.2444,169.24,371.5416,169.6744,371.9033,170.1355,371.8895,170.4411,372.0732,170.8284,372.0974,170.8284,372.0619,177.6628,372.1364,184.4972,372.1579,191.3316,372.2807,198.166,372.0732,205.0004,372.2928,205.0914,372.1399,205.4683,371.8453,205.7864,371.758,206.1905,371.6805,206.5986,371.295,206.8792,371.1972,206.6431,371.0112,207.2569,370.5033,207.0934,370.2401,207.5208,369.7249,207.3397,369.4163,207.6573,369.4163,207.5845,359.3009,208.4455,349.1856,207.6055,339.0702,207.7693,328.9549,208.0172,318.8395,207.6573,318.896,207.7936,318.4633,207.5004,318.127,207.4401,317.6347,207.0031,317.3751,207.1279,316.9608,206.8792,317.1402,206.9535,316.9507,206.5637,316.8502,206.2108,316.3358,205.6864,316.1248,205.2878,316.1826,205.0004,315.9625,205.0004,316.1618,198.166,316.113,191.3316,316.424,184.4972,316.1207,177.6628,316.1826,170.8284,316.0703,170.7819,316.413,170.4836,316.2756,169.9865,316.4796,169.6308,317.0176,169.4134,316.9608,168.9497,317.0199,169.0923,317.4361,169.0345,317.6687,168.5331,318.1313,168.5873,318.5438,168.5204,318.8395,168.1715" style="stroke:#00BFFF;stroke-width:0.5314;"/><text fill="#A9DCDF" font-family="Impact" font-size="18.067" lengthAdjust="spacing" textLength="41.0119" x="323.622" y="194.9244">MCU</text></g><g class="participant participant-head" data-participant="C.mera"><polygon fill="#1E90FF" points="465.164,168.1715,465.164,168.3949,475.9923,167.7312,486.8206,168.3769,497.649,168.5963,508.4773,167.4133,519.3056,168.0889,530.1339,167.7183,540.9622,168.1715,540.9102,168.046,541.3287,168.3049,541.62,168.2565,542.1645,168.8196,542.3797,168.5878,542.8409,168.9497,542.7762,168.9229,543.1379,169.384,543.1241,169.6896,543.3302,170.0862,543.453,170.4484,543.6191,170.8284,543.6823,170.8284,543.7038,177.6628,543.8266,184.4972,543.8568,191.3316,543.8597,198.166,543.6191,205.0004,543.7024,205.035,543.6152,205.439,543.5377,205.8471,542.9162,206.0299,543.2186,206.5954,542.8409,206.8792,542.8007,206.7821,542.5375,207.2095,542.0223,207.0284,541.7044,207.3236,541.4385,207.7444,540.9622,207.6573,540.9622,207.6055,530.1339,207.7693,519.3056,208.0172,508.4773,208.0997,497.649,207.6532,486.8206,207.9626,475.9923,207.049,465.164,207.6573,465.2026,207.7504,464.8626,207.6811,464.4728,207.4916,464.1199,207.3911,463.5956,206.8767,463.2853,206.8792,463.0719,206.7907,462.9263,206.4192,462.9548,206.1197,462.7541,205.7253,462.8858,205.4686,462.5071,205.0004,462.4452,205.0004,462.3856,198.166,462.588,191.3316,462.2709,184.4972,462.3232,177.6628,462.5071,170.8284,462.7195,170.9164,462.8053,170.5117,463.0588,170.1765,462.8687,169.6576,463.2341,169.3687,463.2853,168.9497,463.3653,169.1429,463.597,168.6395,464.0238,168.6071,464.4296,168.524,464.8766,168.5405,465.164,168.1715" style="stroke:#00BFFF;stroke-width:0.5314;"/><text fill="#A9DCDF" font-family="Impact" font-size="18.067" lengthAdjust="spacing" textLength="66.2333" x="469.9465" y="194.9244">C&#226;mera</text></g><g class="participant participant-head" data-participant="EDGE"><polygon fill="#1E90FF" points="583.7963,143.5644,583.7963,143.7877,594.3419,143.124,604.8876,143.7698,615.4333,143.9891,625.979,142.8062,636.5246,143.4818,647.0703,143.1111,657.616,143.1568,668.1616,143.4919,678.7073,142.8296,689.253,144.1528,699.7987,142.8945,710.3443,143.3542,720.89,144.0234,731.4357,143.4732,741.9813,143.6369,752.527,143.5304,763.0727,143.7541,773.6184,143.8185,784.164,144.1868,794.7097,144.2775,805.2554,144.2863,815.801,143.5644,815.8356,143.6477,816.2396,143.8717,816.6477,144.1055,816.8305,143.7953,817.396,144.409,817.6798,144.3426,817.5827,144.3024,818.0101,144.7907,817.829,145.0269,818.1243,145.4605,818.545,145.9461,818.458,146.2213,818.4062,146.2213,818.5699,156.0178,818.8178,165.8143,818.9003,175.6109,818.4538,185.4074,818.7632,195.2039,818.458,205.0004,818.2706,204.9228,818.3954,205.4147,818.3261,205.8262,818.1365,206.1879,818.036,206.5865,817.6798,206.8792,817.6143,206.721,817.2156,206.8213,816.844,206.9871,816.5446,207.3268,816.1502,207.4374,815.801,207.6573,815.801,208.3815,805.2554,207.4717,794.7097,207.2928,784.164,207.8999,773.6184,206.9486,763.0727,207.1056,752.527,208.347,741.9813,208.1204,731.4357,208.4379,720.89,207.3153,710.3443,207.9966,699.7987,208.2848,689.253,207.1553,678.7073,207.5555,668.1616,207.7912,657.616,208.35,647.0703,207.6529,636.5246,208.1489,625.979,207.0688,615.4333,206.9376,604.8876,208.1926,594.3419,206.8954,583.7963,207.6573,583.8653,207.8239,583.4485,207.5693,583.0085,207.2584,582.6211,207.0746,582.3555,207.1849,581.9176,206.8792,581.8196,206.8386,581.9556,206.5836,581.4254,206.0527,581.6527,205.8356,581.4535,205.4418,581.1394,205.0004,581.3997,205.0004,581.1895,195.2039,581.9116,185.4074,581.7914,175.6109,581.3192,165.8143,581.4244,156.0178,581.1394,146.2213,581.0967,146.2036,581.5295,145.9427,581.5013,145.4908,581.6628,145.1174,581.5628,144.6358,581.9176,144.3426,581.8626,144.2099,582.3652,144.3606,582.7273,144.1719,583.039,143.8616,583.3768,143.6146,583.7963,143.5644" style="stroke:#00BFFF;stroke-width:0.5314;"/><text fill="#A9DCDF" font-family="Impact" font-size="18.067" lengthAdjust="spacing" textLength="112.3401" x="643.6286" y="170.3172">M&#243;dulo Edge</text><text fill="#A9DCDF" font-family="Impact" font-size="18.067" lengthAdjust="spacing" textLength="222.4399" x="588.5787" y="194.9244">(Processamento/Gateway)</text></g><g class="participant participant-head" data-participant="MDC"><polygon fill="#1E90FF" points="918.9704,143.5644,918.9704,143.7877,929.454,143.124,939.9375,143.7698,950.4211,143.9891,960.9046,142.8062,971.3882,143.4818,981.8718,143.1111,992.3553,143.1568,1002.8389,143.4919,1013.3224,142.8296,1023.806,144.1528,1034.2895,142.8945,1044.7731,143.3542,1055.2567,143.5644,1055.3152,143.7057,1055.6208,143.6919,1056.0174,143.898,1056.3796,144.0208,1056.7838,144.2454,1057.1354,144.3426,1057.2136,144.375,1057.4827,144.7977,1057.6663,145.185,1057.8246,145.5619,1057.8413,145.8801,1057.9136,146.2213,1058.4062,146.2213,1058.6599,156.0178,1057.1471,165.8143,1058.6347,175.6109,1057.5985,185.4074,1058.4809,195.2039,1057.9136,205.0004,1057.7515,204.9333,1057.7355,205.3669,1057.845,205.8525,1057.4307,206.1211,1057.3255,206.5177,1057.1354,206.8792,1057.1813,206.99,1056.8161,207.171,1056.3834,207.1891,1056.0471,207.4401,1055.5548,207.3144,1055.2567,207.6573,1055.2567,207.9596,1044.7731,208.2399,1034.2895,208.1298,1023.806,208.3088,1013.3224,207.1439,1002.8389,206.9642,992.3553,206.9969,981.8718,207.5948,971.3882,207.4485,960.9046,208.3815,950.4211,207.4717,939.9375,207.2928,929.454,207.8999,918.9704,207.6573,918.88,207.4391,918.5243,207.3318,918.3069,207.5585,917.9022,207.333,917.567,207.2752,917.0917,206.8792,916.9864,206.8355,917.0405,206.5467,916.9737,206.2077,916.4702,205.6879,916.4378,205.3632,916.3135,205.0004,916.4474,205.0004,917.0062,195.2039,916.3091,185.4074,916.8051,175.6109,915.725,165.8143,915.5937,156.0178,916.3135,146.2213,916.4783,146.2896,916.2345,145.7483,916.7914,145.5388,916.848,145.1221,916.8484,144.682,917.0917,144.3426,917.0437,144.2268,917.5296,144.3371,917.8026,143.9333,918.2992,144.0694,918.5197,143.5391,918.9704,143.5644" style="stroke:#00BFFF;stroke-width:0.5314;"/><text fill="#A9DCDF" font-family="Impact" font-size="18.067" lengthAdjust="spacing" textLength="97.0013" x="938.6129" y="170.3172">MDC/Cloud</text><text fill="#A9DCDF" font-family="Impact" font-size="18.067" lengthAdjust="spacing" textLength="126.7214" x="923.7528" y="194.9244">(Servidor SFTP)</text></g><g><title>MCU</title><polygon fill="#000000" points="338.8141,244.5416,338.8141,244.6161,340.9396,244.3948,343.0651,244.6101,345.1907,244.6832,347.3162,244.2889,349.4417,244.5416,349.3591,244.5416,348.9885,255.1828,349.0342,265.824,349.3693,276.4652,348.707,287.1064,350.0301,297.7475,348.7719,308.3887,349.2315,319.0299,349.9008,329.6711,349.3506,340.3123,349.5142,350.9535,349.4078,361.5947,349.6315,372.2359,349.6959,382.877,350.0642,393.5182,350.1549,404.1594,350.1636,414.8006,349.7123,425.4418,349.9344,436.083,350.188,446.7242,348.6753,457.3654,350.1628,468.0066,349.1266,478.6477,350.009,489.2889,348.9156,499.9301,349.3689,510.5713,350.2299,521.2125,349.3899,531.8537,349.5536,542.4949,349.8016,553.1361,349.8841,563.7773,349.4376,574.4184,349.747,585.0596,348.8334,595.7008,349.744,606.342,350.0243,616.9832,349.9142,627.6244,349.4417,638.2656,349.4417,638.4827,347.3162,638.0944,345.1907,638.0345,343.0651,638.0454,340.9396,638.2447,338.8141,638.2656,338.6052,638.2656,339.5383,627.6244,338.6285,616.9832,338.4495,606.342,339.0567,595.7008,338.1054,585.0596,338.2624,574.4184,339.5038,563.7773,339.2771,553.1361,339.5947,542.4949,338.4721,531.8537,339.1533,521.2125,339.4416,510.5713,338.312,499.9301,338.7122,489.2889,338.948,478.6477,339.5068,468.0066,338.8096,457.3654,339.3057,446.7242,338.2256,436.083,338.0943,425.4418,339.3493,414.8006,338.0522,404.1594,339.355,393.5182,339.0337,382.877,338.5294,372.2359,338.4381,361.5947,339.3016,350.9535,338.496,340.3123,339.4431,329.6711,338.2267,319.0299,339.4703,308.3887,339.3288,297.7475,339.0744,287.1064,338.8643,276.4652,339.5863,265.824,339.4662,255.1828,338.8141,244.5416" style="stroke:#181818;stroke-width:1.0628;"/></g><g><title>C.mera</title><polygon fill="#A9DCDF" points="497.7493,297.0549,497.7493,297.1293,499.8748,296.9081,502.0003,297.1233,504.1259,297.1964,506.2514,296.8021,508.3769,297.0549,508.2943,297.0549,507.9237,307.831,507.9694,318.6072,508.3045,329.3833,507.6422,340.1595,508.9653,350.9356,507.7071,361.7118,508.1667,372.4879,508.3769,383.2641,508.3769,383.4171,506.2514,383.2337,504.1259,383.2883,502.0003,383.2528,499.8748,383.3273,497.7493,383.2641,498.0034,383.2641,498.3717,372.4879,498.4625,361.7118,498.4712,350.9356,498.0199,340.1595,498.242,329.3833,498.4956,318.6072,496.9828,307.831,497.7493,297.0549" style="stroke:#181818;stroke-width:1.0628;"/></g><g class="message" data-participant-1="Sensor .ptico" data-participant-2="MCU"><polygon fill="#00BFFF" points="326.0609,240.2905,326.0886,240.3597,328.132,241.0045,330.3374,242.0545,332.4901,242.9726,334.4692,243.4567,336.6886,244.5416,336.6783,244.516,334.5069,245.2515,332.3871,246.1159,330.303,247.0698,328.0955,247.715,326.0609,248.7926,326.1996,248.9313,326.7533,247.7846,327.7118,247.0427,328.7198,246.3502,329.4403,245.3703,330.312,244.5416,330.3291,244.5587,329.4538,243.6834,328.6563,242.8859,327.8213,242.0509,327.0579,241.2875,326.0609,240.2905" style="stroke:#00BFFF;stroke-width:1.0628;"/><path d="M68.0145,244.5416 L68.0145,244.8394 L78.5914,243.9545 L89.1684,244.8155 L99.7453,245.1079 L110.3222,243.5307 L120.8991,244.4315 L131.476,243.9372 L142.053,243.9982 L152.6299,244.445 L163.2068,243.5619 L173.7837,245.3261 L184.3606,243.6485 L194.9376,244.2614 L205.5145,245.1537 L216.0914,244.42 L226.6683,244.6383 L237.2452,244.4963 L247.8222,244.7946 L258.3991,244.8805 L268.976,245.3715 L279.5529,245.4925 L290.1298,245.5041 L300.7068,244.9024 L311.2837,245.1985 L321.8606,245.5367 L332.4375,244.5416" fill="none" style="stroke:#00BFFF;stroke-width:1.0628;"/><text fill="#000000" font-family="sans-serif" font-size="13.8159" lengthAdjust="spacing" textLength="250.6071" x="75.4539" y="238.368">Detecta produto no ponto de inspe&#231;&#227;o</text></g><g class="message" data-participant-1="MCU" data-participant-2="C.mera"><polygon fill="#00BFFF" points="484.9961,292.8038,485.0238,292.8729,487.0672,293.5177,489.2726,294.5678,491.4253,295.4859,493.4044,295.97,495.6238,297.0549,495.6135,297.0293,493.4421,297.7648,491.3223,298.6291,489.2382,299.5831,487.0307,300.2283,484.9961,301.3059,485.1348,301.4446,485.6885,300.2978,486.647,299.5559,487.655,298.8635,488.3755,297.8836,489.2472,297.0549,489.2643,297.0719,488.389,296.1966,487.5915,295.3992,486.7565,294.5641,485.9931,293.8007,484.9961,292.8038" style="stroke:#00BFFF;stroke-width:1.0628;"/><path d="M349.4417,297.0549 L349.4417,297.3527 L360.3595,296.4678 L371.2773,297.3287 L382.195,297.6212 L393.1128,296.044 L404.0306,296.9447 L414.9483,296.4505 L425.8661,296.5114 L436.7839,296.9583 L447.7016,296.0752 L458.6194,297.8394 L469.5372,296.1617 L480.455,296.7746 L491.3727,297.0549" fill="none" style="stroke:#00BFFF;stroke-width:1.0628;"/><text fill="#000000" font-family="sans-serif" font-size="13.8159" lengthAdjust="spacing" textLength="121.6907" x="356.8811" y="272.064">Produto detectado</text><text fill="#000000" font-family="sans-serif" font-size="13.8159" lengthAdjust="spacing" textLength="128.1151" x="356.8811" y="290.8813">(Ponto de inspe&#231;&#227;o)</text></g><g class="message" data-participant-1="EDGE" data-participant-2="C.mera"><polygon fill="#00BFFF" points="520.0673,345.3171,520.095,345.3862,517.8873,346.031,515.8417,347.0811,513.7433,347.9992,511.4714,348.4833,509.4397,349.5681,509.4295,349.5426,511.5091,350.278,513.6403,351.1424,515.8073,352.0963,517.8508,352.7415,520.0673,353.8192,520.206,353.9578,519.0592,352.8111,518.3174,352.0692,517.6249,351.3767,516.645,350.3968,515.8163,349.5681,515.8334,349.5852,516.6585,348.7099,517.5614,347.9124,518.4268,347.0774,519.3638,346.314,520.0673,345.3171" style="stroke:#00BFFF;stroke-width:1.0628;"/><path d="M513.6907,349.5681 L513.6907,349.8659 L524.5757,348.981 L535.4608,349.842 L546.3458,350.1345 L557.2308,348.5572 L568.1158,349.458 L579.0008,348.9638 L589.8858,349.0247 L600.7708,349.4715 L611.6558,348.5884 L622.5408,350.3526 L633.4258,348.675 L644.3108,349.2879 L655.1959,350.1802 L666.0809,349.4466 L676.9659,349.6648 L687.8509,349.5228 L698.7359,349.5681" fill="none" style="stroke:#00BFFF;stroke-width:1.0628;stroke-dasharray:2.1255,2.1255;"/><text fill="#000000" font-family="sans-serif" font-size="13.8159" lengthAdjust="spacing" textLength="99.4608" x="526.4439" y="324.5772">Solicita captura</text><text fill="#000000" font-family="sans-serif" font-size="13.8159" lengthAdjust="spacing" textLength="165.9154" x="526.4439" y="343.3945">(resolu&#231;&#227;o 1920X1080 px)</text></g><g class="message" data-participant-1="C.mera" data-participant-2="EDGE"><polygon fill="#00BFFF" points="687.0455,379.013,687.0732,379.0822,689.1165,379.727,691.322,380.777,693.4747,381.6951,695.4537,382.1792,697.6731,383.2641,697.6629,383.2385,695.4915,383.974,693.3716,384.8384,691.2876,385.7923,689.0801,386.4375,687.0455,387.5151,687.1842,387.6538,687.7378,386.507,688.6964,385.7652,689.7043,385.0727,690.4249,384.0928,691.2966,383.2641,691.3137,383.2812,690.4383,382.4059,689.6409,381.6084,688.8058,380.7734,688.0424,380.01,687.0455,379.013" style="stroke:#00BFFF;stroke-width:1.0628;"/><path d="M503.0631,383.2641 L503.0631,383.5619 L513.6386,382.677 L524.2141,383.538 L534.7896,383.8304 L545.3651,382.2532 L555.9406,383.154 L566.5161,382.6597 L577.0916,382.7207 L587.6671,383.1675 L598.2426,382.2844 L608.8181,384.0486 L619.3936,382.371 L629.9691,382.9838 L640.5446,383.8762 L651.1201,383.1425 L661.6956,383.3608 L672.2711,383.2188 L682.8466,383.5171 L693.4221,383.2641" fill="none" style="stroke:#00BFFF;stroke-width:1.0628;"/><text fill="#000000" font-family="sans-serif" font-size="13.8159" lengthAdjust="spacing" textLength="125.4486" x="510.5024" y="377.0905">Envia imagem RAW</text></g><g class="message" data-participant-1="EDGE" data-participant-2="EDGE"><path d="M699.7987,416.96 L699.7987,417.0593 L708.7259,416.7643 L717.6531,417.0513 L726.5803,417.1488 L735.5075,416.6231 L744.4347,416.96" fill="none" style="stroke:#00BFFF;stroke-width:1.0628;stroke-dasharray:2.1255,2.1255;"/><path d="M744.4347,416.96 L744.534,416.96 L744.239,419.7232 L744.526,422.4864 L744.6235,425.2496 L744.0977,428.0128 L744.4347,430.776" fill="none" style="stroke:#00BFFF;stroke-width:1.0628;stroke-dasharray:2.1255,2.1255;"/><path d="M700.8614,430.776 L700.8614,430.8752 L709.5761,430.5803 L718.2907,430.8673 L727.0054,430.9647 L735.72,430.439 L744.4347,430.776" fill="none" style="stroke:#00BFFF;stroke-width:1.0628;stroke-dasharray:2.1255,2.1255;"/><polygon fill="#00BFFF" points="711.489,426.5249,711.5167,426.594,709.309,427.2388,707.2634,428.2889,705.1651,429.207,702.8931,429.6911,700.8614,430.776,700.8512,430.7504,702.9308,431.4859,705.062,432.3502,707.229,433.3042,709.2726,433.9494,711.489,435.027,711.6277,435.1657,710.481,434.0189,709.7391,433.277,709.0466,432.5846,708.0667,431.6047,707.238,430.776,707.2551,430.7931,708.0802,429.9177,708.9831,429.1203,709.8485,428.2852,710.7855,427.5218,711.489,426.5249" style="stroke:#00BFFF;stroke-width:1.0628;"/><text fill="#000000" font-family="sans-serif" font-size="13.8159" lengthAdjust="spacing" textLength="272.4362" x="707.238" y="410.7865">Processa imagem (Compress&#227;o JPEG 85%)</text></g><polygon fill="#FEFFDD" points="613.214,444.5919,613.214,444.8152,623.908,444.1515,634.6021,444.7973,645.2961,445.0166,655.9902,443.8337,666.6842,444.5093,677.3783,444.1386,688.0723,444.1843,698.7664,444.5194,709.4604,443.8571,720.1545,445.1803,730.8485,443.922,741.5426,444.3817,752.2366,445.0509,762.9307,444.5007,773.6247,444.6644,784.3188,444.5919,784.3101,444.5846,786.4929,447.183,788.6349,449.7474,790.8547,452.3766,793.0035,454.9466,794.9464,457.345,795.1371,457.4917,792.8924,460.1632,790.8255,462.9715,788.767,465.7862,786.2418,468.242,784.3188,471.1609,784.3188,471.882,773.6247,470.8458,762.9307,471.7283,752.2366,470.6348,741.5426,471.0881,730.8485,471.9491,720.1545,471.1091,709.4604,471.2728,698.7664,471.5208,688.0723,471.6033,677.3783,471.1568,666.6842,471.4662,655.9902,470.5526,645.2961,471.4632,634.6021,471.7435,623.908,471.6334,613.214,471.1609,613.3861,471.2933,610.9528,468.2934,608.7798,465.4937,606.6629,462.7372,604.6954,460.0955,602.5864,457.345,602.5329,457.3005,604.8973,454.9489,606.7899,452.2041,608.8696,449.6153,611.1506,447.1943,613.214,444.5919" style="stroke:#181818;stroke-width:0.5314;"/><text fill="#000000" font-family="sans-serif" font-size="13.8159" lengthAdjust="spacing" textLength="167.8773" x="615.3395" y="463.6121">Prepara para transmiss&#227;o</text><g class="message" data-participant-1="EDGE" data-participant-2="MDC"><polygon fill="#00BFFF" points="974.3604,498.1679,974.388,498.237,976.4314,498.8818,978.6369,499.9319,980.7895,500.85,982.7686,501.3341,984.988,502.4189,984.9778,502.3934,982.8064,503.1289,980.6865,503.9932,978.6025,504.9472,976.3949,505.5924,974.3604,506.67,974.4991,506.8087,975.0527,505.6619,976.0113,504.92,977.0192,504.2276,977.7397,503.2477,978.6114,502.4189,978.6285,502.436,977.7532,501.5607,976.9557,500.7632,976.1207,499.9282,975.3573,499.1648,974.3604,498.1679" style="stroke:#00BFFF;stroke-width:1.0628;"/><path d="M699.7987,502.4189 L699.7987,502.7168 L710.604,501.8318 L721.4093,502.6928 L732.2146,502.9853 L743.0199,501.4081 L753.8253,502.3088 L764.6306,501.8146 L775.4359,501.8755 L786.2412,502.3224 L797.0465,501.4393 L807.8519,503.2035 L818.6572,501.5258 L829.4625,502.1387 L840.2678,503.031 L851.0731,502.2974 L861.8784,502.5156 L872.6838,502.3737 L883.4891,502.6719 L894.2944,502.7578 L905.0997,503.2489 L915.905,503.3698 L926.7104,503.3815 L937.5157,502.7798 L948.321,503.0759 L959.1263,503.414 L969.9316,501.397 L980.737,502.4189" fill="none" style="stroke:#00BFFF;stroke-width:1.0628;"/><text fill="#000000" font-family="sans-serif" font-size="13.8159" lengthAdjust="spacing" textLength="252.8591" x="707.238" y="496.2454">Transmite foto via SFTP (criptografado)</text></g><g class="message" data-participant-1="MDC" data-participant-2="EDGE"><polygon fill="#00BFFF" points="711.489,531.8639,711.5167,531.933,709.309,532.5778,707.2634,533.6279,705.1651,534.546,702.8931,535.0301,700.8614,536.1149,700.8512,536.0893,702.9308,536.8248,705.062,537.6892,707.229,538.6431,709.2726,539.2883,711.489,540.366,711.6277,540.5046,710.481,539.3579,709.7391,538.616,709.0466,537.9235,708.0667,536.9436,707.238,536.1149,707.2551,536.132,708.0802,535.2567,708.9831,534.4592,709.8485,533.6242,710.7855,532.8608,711.489,531.8639" style="stroke:#00BFFF;stroke-width:1.0628;"/><path d="M705.1125,536.1149 L705.1125,536.4127 L715.9178,535.5278 L726.7231,536.3888 L737.5284,536.6813 L748.3337,535.104 L759.1391,536.0048 L769.9444,535.5106 L780.7497,535.5715 L791.555,536.0183 L802.3603,535.1352 L813.1657,536.8994 L823.971,535.2218 L834.7763,535.8347 L845.5816,536.727 L856.3869,535.9934 L867.1923,536.2116 L877.9976,536.0696 L888.8029,536.3679 L899.6082,536.4538 L910.4135,536.9448 L921.2189,537.0658 L932.0242,537.0774 L942.8295,536.4757 L953.6348,536.7718 L964.4401,537.11 L975.2455,535.093 L986.0508,536.1149" fill="none" style="stroke:#00BFFF;stroke-width:1.0628;stroke-dasharray:2.1255,2.1255;"/><text fill="#000000" font-family="sans-serif" font-size="13.8159" lengthAdjust="spacing" textLength="227.1062" x="717.8656" y="529.9413">Confirma&#231;&#227;o de recebimento (ACK)</text></g><g class="message" data-participant-1="EDGE" data-participant-2="MCU"><polygon fill="#00BFFF" points="361.1321,584.3771,361.1598,584.4463,358.9521,585.0911,356.9065,586.1411,354.8081,587.0592,352.5361,587.5433,350.5045,588.6282,350.4943,588.6026,352.5739,589.3381,354.7051,590.2024,356.8721,591.1564,358.9156,591.8016,361.1321,592.8792,361.2708,593.0179,360.124,591.8711,359.3821,591.1293,358.6897,590.4368,357.7098,589.4569,356.8811,588.6282,356.8982,588.6453,357.7233,587.77,358.6262,586.9725,359.4916,586.1374,360.4286,585.374,361.1321,584.3771" style="stroke:#00BFFF;stroke-width:1.0628;"/><path d="M354.7555,588.6282 L354.7555,588.926 L365.5049,588.0411 L376.2543,588.9021 L387.0037,589.1945 L397.7531,587.6173 L408.5025,588.518 L419.2519,588.0238 L430.0012,588.0847 L440.7506,588.5316 L451.5,587.6485 L462.2494,589.4127 L472.9988,587.735 L483.7482,588.3479 L494.4976,589.2402 L505.2469,588.5066 L515.9963,588.7249 L526.7457,588.5829 L537.4951,588.8811 L548.2445,588.967 L558.9939,589.4581 L569.7433,589.5791 L580.4926,589.5907 L591.242,588.989 L601.9914,589.2851 L612.7408,589.6232 L623.4902,587.6062 L634.2396,589.5896 L644.989,588.208 L655.7384,589.3846 L666.4877,587.9267 L677.2371,588.5311 L687.9865,589.679 L698.7359,588.6282" fill="none" style="stroke:#00BFFF;stroke-width:1.0628;stroke-dasharray:2.1255,2.1255;"/><text fill="#000000" font-family="sans-serif" font-size="13.8159" lengthAdjust="spacing" textLength="118.4716" x="367.5087" y="563.6373">Resposta: Captura</text><text fill="#000000" font-family="sans-serif" font-size="13.8159" lengthAdjust="spacing" textLength="119.5492" x="367.5087" y="582.4546">e envio conclu&#237;dos</text></g><path d="M606.8374,602.4441 L607.036,602.4441 L606.446,608.183 L607.02,613.9219 L607.215,619.6608 L606.1635,625.3998 L606.8374,631.1387 L606.8374,630.9184 L617.5375,629.93 L628.2376,630.0518 L638.9377,630.9455 L649.6378,629.1793 L660.3378,632.7077 L671.0379,629.3524 L681.738,630.5782 L692.4381,632.3628 L703.1382,630.8956 L713.8383,631.3321 L724.5384,631.0481 L735.2385,631.6446 L745.9385,631.8164 L756.6386,632.7985 L767.3387,633.0405 L778.0388,633.0637 L788.7389,631.8603 L799.439,632.4525 L810.1391,633.1288 L820.8391,629.0948 L831.5392,633.0616 L842.2393,630.2984 L852.9394,632.6515 L863.6395,629.7358 L874.3396,630.9445 L885.0397,633.2404 L895.7398,631.0006 L906.4398,631.4371 L917.1399,632.0984 L927.84,632.3183 L938.5401,631.1276 L949.2402,631.9526 L959.9403,629.5164 L970.6404,631.9446 L981.3404,632.6923 L992.0405,632.3985 L1002.7406,632.876 L1013.4407,629.7696 L1024.1408,629.2904 L1034.8409,629.3776 L1045.541,630.9718 L1056.2411,630.5817 L1066.9411,633.0698 L1077.6412,631.1387 L1077.4762,631.1387 L1077.3171,627.5253 L1077.8569,623.9119 L1077.0113,620.2985 L1077.1508,616.6851 L1077.6412,613.0717 L1078.0747,613.5052 L1075.8067,611.2372 L1073.8808,609.3113 L1071.0497,606.4802 L1069.3523,604.7828 L1067.0136,602.4441 L1067.0136,604.1173 L1056.3118,601.1053 L1045.6101,602.1724 L1034.9083,602.8011 L1024.2065,604.2912 L1013.5047,602.4322 L1002.803,603.755 L992.1012,600.8746 L981.3994,600.5247 L970.6977,603.8713 L959.9959,600.4122 L949.2941,603.8865 L938.5923,603.0297 L927.8906,601.6848 L917.1888,601.4415 L906.487,603.7442 L895.7853,601.5958 L885.0835,604.1214 L874.3817,600.8776 L863.6799,604.1939 L852.9782,603.8166 L842.2764,603.1383 L831.5746,602.5779 L820.8728,604.5033 L810.1711,604.183 L799.4693,602.9238 L788.7675,603.2041 L778.0658,602.0749 L767.364,604.4745 L756.6622,602.883 L745.9604,602.9332 L735.2587,600.72 L724.5569,601.2957 L713.8551,603.9482 L703.1534,603.662 L692.4516,602.3224 L681.7498,601.531 L671.048,601.8236 L660.3463,600.4994 L649.6445,603.6195 L638.9427,604.54 L628.241,603.9359 L617.5392,604.4135 L606.8374,602.4441" fill="#FEFFDD" style="stroke:#181818;stroke-width:0.5314;"/><path d="M1067.0136,602.4441 L1066.8844,602.4441 L1067.096,604.5696 L1066.6474,606.6951 L1067.2819,608.8207 L1067.2467,610.9462 L1067.0136,613.0717 L1067.0136,613.5935 L1069.1391,612.8548 L1071.2646,612.9447 L1073.3902,613.4906 L1075.5157,613.6077 L1077.6412,613.0717 L1077.2989,612.7293 L1075.3862,610.8167 L1073.4899,608.9204 L1070.8566,606.2871 L1069.3752,604.8057 L1067.0136,602.4441" fill="#FEFFDD" style="stroke:#181818;stroke-width:0.5314;"/><text fill="#000000" font-family="sans-serif" font-size="13.8159" lengthAdjust="spacing" textLength="168.5267" x="753.5218" y="622.5271">Tempo total &lt; 2 segundos</text><text fill="#1E90FF" font-family="Arial" font-size="14.8787" font-weight="bold" lengthAdjust="spacing" textLength="169.2592" x="31.8829" y="686.0537">Casos de Uso cobertos:</text><text fill="#1E90FF" font-family="Arial" font-size="14.8787" lengthAdjust="spacing" textLength="4.7909" x="31.8829" y="706.3184">-</text><text fill="#1E90FF" font-family="Arial" font-size="14.8787" font-weight="bold" lengthAdjust="spacing" textLength="53.8308" x="40.5422" y="706.3184">MC-006</text><text fill="#1E90FF" font-family="Arial" font-size="14.8787" lengthAdjust="spacing" textLength="358.3664" x="94.3731" y="706.3184">: Captura de Fotografia para Controle de Qualidade</text><polygon fill="none" points="230.0765,26.5691,230.0765,26.7924,240.6256,26.1287,251.1747,26.7745,261.7237,26.9938,272.2728,25.8109,282.8219,26.4865,293.371,26.1158,303.9201,26.1615,314.4691,26.4966,325.0182,25.8343,335.5673,27.1575,346.1164,25.8992,356.6655,26.3589,367.2146,27.0281,377.7636,26.4779,388.3127,26.6416,398.8618,26.5351,409.4109,26.7588,419.96,26.8232,430.5091,27.1915,441.0581,27.2822,451.6072,27.291,462.1563,26.8397,472.7054,27.0617,483.2545,27.3154,493.8036,25.8026,504.3526,27.2902,514.9017,26.254,525.4508,27.1364,535.9999,26.043,546.549,26.4963,557.0981,27.3572,567.6471,26.5173,578.1962,26.681,588.7453,26.9289,599.2944,27.0114,609.8435,26.5649,620.3925,26.8743,630.9416,25.9607,641.4907,26.8713,652.0398,27.1517,662.5889,27.0415,673.138,27.2206,683.687,26.0557,694.2361,25.8759,704.7852,25.9087,715.3343,26.5065,725.8834,26.3602,736.4325,27.2932,746.9815,26.3834,757.5306,26.2045,768.0797,26.8117,778.6288,25.8604,789.1779,26.0174,799.727,27.2587,810.276,27.0321,820.8251,27.3497,831.3742,26.2271,841.9233,26.9083,852.4724,26.5691,852.5524,26.7623,853.5356,26.8814,854.7138,27.4715,855.8711,28.011,857.0696,28.65,858.1085,28.9036,858.1071,28.9031,858.7268,30.0936,858.8611,31.083,859.2876,32.1935,860.141,33.4808,860.4431,34.5398,859.6812,34.5398,860.984,45.6435,860.6627,56.7473,860.1584,67.851,860.0671,78.9547,860.4431,90.0585,860.5932,90.1207,859.8782,91.1451,859.703,92.3932,858.8614,93.3652,858.7775,94.6511,858.1085,95.6946,858.1742,95.8531,857.0145,96.2417,855.8605,96.6439,854.8253,97.3332,853.6828,97.7631,852.4724,98.0292,852.4724,98.2091,841.9233,98.3142,831.3742,97.8907,820.8251,98.7906,810.276,98.1938,799.727,98.2126,789.1779,97.3827,778.6288,97.5985,768.0797,98.5932,757.5306,98.4859,746.9815,97.9836,736.4325,97.6868,725.8834,97.7965,715.3343,97.2999,704.7852,98.47,694.2361,98.8152,683.687,98.5886,673.138,98.7677,662.5889,97.8839,652.0398,98.1219,641.4907,97.6173,630.9416,98.3311,620.3925,98.2914,609.8435,98.6162,599.2944,97.7851,588.7453,97.8863,578.1962,98.5005,567.6471,98.6321,557.0981,97.4845,546.549,97.8231,535.9999,98.1878,525.4508,97.38,514.9017,98.4048,504.3526,98.3034,493.8036,97.9221,483.2545,98.1804,472.7054,98.8036,462.1563,97.6967,451.6072,98.3639,441.0581,98.3328,430.5091,98.1522,419.96,98.179,409.4109,98.1498,398.8618,97.3659,388.3127,97.6032,377.7636,97.5387,367.2146,98.097,356.6655,98.1228,346.1164,98.2011,335.5673,97.72,325.0182,97.9574,314.4691,97.9014,303.9201,98.6422,293.371,98.4825,282.8219,97.5132,272.2728,97.9517,261.7237,97.4157,251.1747,98.3357,240.6256,98.6759,230.0765,98.0292,230.1503,98.2074,228.8902,97.4197,227.8849,97.2472,226.5941,96.3853,225.5947,96.227,224.4403,95.6946,224.3424,95.654,224.0051,94.5805,223.5852,93.4727,223.1941,92.3769,222.3371,91.0881,222.1058,90.0585,222.6111,90.0585,222.2951,78.9547,222.4834,67.851,222.9005,56.7473,222.1116,45.6435,222.1058,34.5398,222.1631,34.5635,222.6425,33.4415,223.1041,32.3121,223.5062,31.158,224.206,30.1272,224.4403,28.9036,224.3577,28.7041,225.6442,28.6217,226.6102,27.7656,227.7488,27.3261,228.9547,27.0491,230.0765,26.5691" style="stroke:#000000;stroke-width:1.0628;"/><text fill="#1E90FF" font-family="Arial" font-size="21.2553" font-weight="bold" lengthAdjust="spacing" textLength="595.8268" x="243.361" y="70.5462">Diagrama de Sequ&#234;ncia - M&#243;dulo de Controle (MC) - Foto</text><!--SRC=[PLBDRjD04BxlKmn1IB55Q5e9L29KgNASIA1AeMu51ovRxoIiPEyik-i0py4Rm049YHEFu1TZrewR9lKXZdRc-rq_qQQi6eKmpnV52zlKbH2o3EHWLA3n_6v_sA1B6WbnV0AJ2xZARcSmnu1ba60TgIOG609BXlymhpRUOlkx_KMHLszbm0Y2fzFk4K9OwPXEMsa2Z7Wq0kdZoi4WQt_MwEJHSljFDHL1hZRuoOnNZahqNjR8sYTBLlegloSTNJvVvaVOUNQILTGe1XRejbfnic9ni-e1F1OY-kICEssOmMeNKFM15KNLnqcJVTJ1TpG0amEoWYfsmxMLqeQ6ZvZCeQUgwKZWzFNPzEFfz7mAzbiY1XnJT5mpoCrMIz2rt60DrvSVXC97idlT7MZeQC2DCwejg_ge-7QLB-7yvRD4V3R4BBH5jmSYzyTt77-2ayRNkaCD6XUnCrwywMSCNnCN4pt6Mc5SEcq3RPnSSt69YDiFZ6LarjhLii_ETJeiyKvtTmdZo-nTyY1Cl9WPNAEtv8Day7s32CYr49GKl-lsho8l3hCyZpxP9jQM852G5Ro1C_2uQKpS5XLkq2WUMG5fEjUIBTSoMYhmIzF-CIL7ci3myV4vUm-EAeJnLPRmQC71qrH4bfvCY3Mn2IU06JFfoKVOhOy-xz05yZFU1s1icbvba-dqLPhkO_5kf8pLwTqDt4lox7qZAwsamawnLm8G_m40]--></g></svg>