<svg xmlns="http://www.w3.org/2000/svg" xmlns:xlink="http://www.w3.org/1999/xlink" contentStyleType="text/css" data-diagram-type="SEQUENCE" height="750.3099px" preserveAspectRatio="none" style="width:1083px;height:750px;background:#EEEBDC;" version="1.1" viewBox="0 0 1083 750" width="1083.5452px" zoomAndPan="magnify"><defs/><g><rect fill="#EEEBDC" height="750.3099" style="stroke:none;stroke-width:1.0613;" width="1083.5452" x="0" y="0"/><g><title>MCU</title><polygon fill="#000000" points="338.3347,245.2568,338.3347,245.3312,340.4572,245.1103,342.5797,245.3252,344.7022,245.3982,346.8247,245.0045,348.9473,245.2568,348.8648,245.2568,348.4946,255.883,348.5403,266.5091,348.8749,277.1352,348.2135,287.7614,349.5348,298.3875,348.2784,309.0136,348.7374,319.6397,349.4057,330.2659,348.8562,340.892,349.0197,351.5181,348.9134,362.1443,349.1367,372.7704,349.201,383.3965,349.5688,394.0227,349.6594,404.6488,349.6681,415.2749,349.2175,425.9011,349.4392,436.5272,349.6925,447.1533,348.1819,457.7794,349.6673,468.4056,348.6326,479.0317,349.5138,489.6578,348.4219,500.284,348.8746,510.9101,349.7343,521.5362,348.8955,532.1624,349.059,542.7885,349.3066,553.4146,349.389,564.0408,348.9431,574.6669,349.2521,585.293,348.3398,595.9192,349.2491,606.5453,349.529,617.1714,349.419,627.7975,348.9473,638.4237,348.9473,638.6405,346.8247,638.2528,344.7022,638.193,342.5797,638.2039,340.4572,638.4028,338.3347,638.4237,338.1261,638.4237,339.0578,627.7975,338.1493,617.1714,337.9706,606.5453,338.5769,595.9192,337.627,585.293,337.7837,574.6669,339.0234,564.0408,338.797,553.4146,339.1142,542.7885,337.9932,532.1624,338.6734,521.5362,338.9613,510.9101,337.8333,500.284,338.2329,489.6578,338.4684,479.0317,339.0264,468.4056,338.3302,457.7794,338.8256,447.1533,337.747,436.5272,337.6159,425.9011,338.8691,415.2749,337.5738,404.6488,338.8748,394.0227,338.554,383.3965,338.0503,372.7704,337.9592,362.1443,338.8215,351.5181,338.017,340.892,338.9628,330.2659,337.7481,319.6397,338.9899,309.0136,338.8486,298.3875,338.5946,287.7614,338.3848,277.1352,339.1058,266.5091,338.9858,255.883,338.3347,245.2568" style="stroke:#181818;stroke-width:1.0613;"/></g><g><title>C.mera</title><polygon fill="#A9DCDF" points="497.045,297.6958,497.045,297.7701,499.1675,297.5492,501.29,297.7642,503.4125,297.8372,505.535,297.4434,507.6576,297.6958,507.5751,297.6958,507.2049,308.4567,507.2506,319.2176,507.5852,329.9785,506.9238,340.7394,508.2451,351.5003,506.9887,362.2612,507.4477,373.0221,507.6576,383.783,507.6576,383.9358,505.535,383.7527,503.4125,383.8072,501.29,383.7717,499.1675,383.8462,497.045,383.783,497.2988,383.783,497.6665,373.0221,497.7571,362.2612,497.7658,351.5003,497.3152,340.7394,497.537,329.9785,497.7902,319.2176,496.2796,308.4567,497.045,297.6958" style="stroke:#181818;stroke-width:1.0613;"/></g><g><title>Sensor .ptico</title><polygon fill="#000000" fill-opacity="0.00000" points="63.6732,209.486,63.6732,209.5604,65.3713,209.3395,67.0693,209.5544,68.7673,209.6274,70.4653,209.2337,72.1633,209.486,72.0808,209.486,71.7107,220.1809,71.7563,230.8757,72.091,241.5706,71.4296,252.2654,72.7509,262.9603,71.4944,273.6551,71.9534,284.35,72.6217,295.0448,72.0723,305.7397,72.2357,316.4346,72.1294,327.1294,72.3528,337.8243,72.4171,348.5191,72.7849,359.214,72.8755,369.9088,72.8842,380.6037,72.4335,391.2985,72.6553,401.9934,72.9086,412.6882,71.398,423.3831,72.8834,434.0779,71.8487,444.7728,72.7298,455.4676,71.638,466.1625,72.0906,476.8574,72.9504,487.5522,72.1116,498.2471,72.2751,508.9419,72.5227,519.6368,72.605,530.3316,72.1592,541.0265,72.4681,551.7213,71.5558,562.4162,72.4651,573.111,72.7451,583.8059,72.6351,594.5007,72.8139,605.1956,71.6506,615.8904,71.4712,626.5853,71.5039,637.2802,72.1633,647.975,72.1633,647.9542,70.4653,647.9055,68.7673,648.2161,67.0693,647.9132,65.3713,647.8537,63.6732,647.975,63.9155,647.975,62.9656,637.2802,63.1223,626.5853,64.362,615.8904,64.1356,605.1956,64.4527,594.5007,63.3317,583.8059,64.012,573.111,64.2998,562.4162,63.1719,551.7213,63.5715,541.0265,63.8069,530.3316,64.3649,519.6368,63.6688,508.9419,64.1642,498.2471,63.0855,487.5522,62.9545,476.8574,64.2077,466.1625,62.9124,455.4676,64.2134,444.7728,63.8925,434.0779,63.3889,423.3831,63.2978,412.6882,64.1601,401.9934,63.3556,391.2985,64.3014,380.6037,63.0866,369.9088,64.3285,359.214,64.1872,348.5191,63.9332,337.8243,63.7234,327.1294,64.4444,316.4346,64.3244,305.7397,63.8529,295.0448,63.9579,284.35,63.535,273.6551,64.4336,262.9603,63.8376,252.2654,63.8564,241.5706,63.0276,230.8757,63.2432,220.1809,63.6732,209.486"/><path d="M66.8593,209.486 L67.1567,209.486 L66.273,220.1809 L67.1328,230.8757 L67.4249,241.5706 L65.8498,252.2654 L66.7493,262.9603 L66.2558,273.6551 L66.3166,284.35 L66.7629,295.0448 L65.881,305.7397 L67.6427,316.4346 L65.9674,327.1294 L66.5795,337.8243 L67.4705,348.5191 L66.7379,359.214 L66.9559,369.9088 L66.8141,380.6037 L67.1119,391.2985 L67.1977,401.9934 L67.6881,412.6882 L67.8088,423.3831 L67.8205,434.0779 L67.2196,444.7728 L67.5153,455.4676 L67.853,466.1625 L65.8388,476.8574 L67.8194,487.5522 L66.4397,498.2471 L67.6146,508.9419 L66.1588,519.6368 L66.7624,530.3316 L67.9087,541.0265 L66.7903,551.7213 L67.0083,562.4162 L67.3385,573.111 L67.4483,583.8059 L66.8538,594.5007 L67.2657,605.1956 L66.0493,615.8904 L67.2617,626.5853 L67.635,637.2802 L66.8593,647.975" fill="none" style="stroke:#0000FF;stroke-width:0.5306;stroke-dasharray:5.3063,5.3063;"/></g><g><title>MCU</title><polygon fill="#000000" fill-opacity="0.00000" points="339.3959,209.486,339.3959,209.5604,341.0939,209.3395,342.792,209.5544,344.49,209.6274,346.188,209.2337,347.886,209.486,347.8035,209.486,347.4334,220.1809,347.479,230.8757,347.8137,241.5706,347.1523,252.2654,348.4736,262.9603,347.2171,273.6551,347.6761,284.35,348.3444,295.0448,347.795,305.7397,347.9584,316.4346,347.8521,327.1294,348.0755,337.8243,348.1398,348.5191,348.5076,359.214,348.5982,369.9088,348.6069,380.6037,348.1562,391.2985,348.378,401.9934,348.6312,412.6882,347.1206,423.3831,348.6061,434.0779,347.5713,444.7728,348.4525,455.4676,347.3607,466.1625,347.8133,476.8574,348.673,487.5522,347.8343,498.2471,347.9978,508.9419,348.2454,519.6368,348.3277,530.3316,347.8819,541.0265,348.1908,551.7213,347.2785,562.4162,348.1878,573.111,348.4678,583.8059,348.3578,594.5007,348.5366,605.1956,347.3733,615.8904,347.1939,626.5853,347.2265,637.2802,347.886,647.975,347.886,647.9542,346.188,647.9055,344.49,648.2161,342.792,647.9132,341.0939,647.8537,339.3959,647.975,339.6382,647.975,338.6882,637.2802,338.845,626.5853,340.0846,615.8904,339.8583,605.1956,340.1754,594.5007,339.0544,583.8059,339.7347,573.111,340.0225,562.4162,338.8946,551.7213,339.2942,541.0265,339.5296,530.3316,340.0876,519.6368,339.3915,508.9419,339.8868,498.2471,338.8082,487.5522,338.6772,476.8574,339.9304,466.1625,338.6351,455.4676,339.9361,444.7728,339.6152,434.0779,339.1116,423.3831,339.0205,412.6882,339.8828,401.9934,339.0783,391.2985,340.024,380.6037,338.8093,369.9088,340.0512,359.214,339.9099,348.5191,339.6559,337.8243,339.446,327.1294,340.167,316.4346,340.0471,305.7397,339.5756,295.0448,339.6805,284.35,339.2577,273.6551,340.1563,262.9603,339.5603,252.2654,339.5791,241.5706,338.7503,230.8757,338.9659,220.1809,339.3959,209.486"/><path d="M343.3279,209.486 L343.6254,209.486 L342.7417,220.1809 L343.6014,230.8757 L343.8935,241.5706 L342.3185,252.2654 L343.218,262.9603 L342.7244,273.6551 L342.7853,284.35 L343.2315,295.0448 L342.3496,305.7397 L344.1114,316.4346 L342.4361,327.1294 L343.0481,337.8243 L343.9392,348.5191 L343.2066,359.214 L343.4245,369.9088 L343.2827,380.6037 L343.5806,391.2985 L343.6663,401.9934 L344.1567,412.6882 L344.2775,423.3831 L344.2891,434.0779 L343.6882,444.7728 L343.9839,455.4676 L344.3216,466.1625 L342.3075,476.8574 L344.288,487.5522 L342.9084,498.2471 L344.0833,508.9419 L342.6275,519.6368 L343.231,530.3316 L344.3773,541.0265 L343.259,551.7213 L343.4769,562.4162 L343.8071,573.111 L343.9169,583.8059 L343.3224,594.5007 L343.7344,605.1956 L342.518,615.8904 L343.7304,626.5853 L344.1036,637.2802 L343.3279,647.975" fill="none" style="stroke:#0000FF;stroke-width:0.5306;stroke-dasharray:5.3063,5.3063;"/></g><g><title>C.mera</title><polygon fill="#000000" fill-opacity="0.00000" points="498.1062,209.486,498.1062,209.5604,499.8042,209.3395,501.5023,209.5544,503.2003,209.6274,504.8983,209.2337,506.5963,209.486,506.5138,209.486,506.1437,220.1809,506.1893,230.8757,506.524,241.5706,505.8626,252.2654,507.1839,262.9603,505.9274,273.6551,506.3864,284.35,507.0547,295.0448,506.5053,305.7397,506.6687,316.4346,506.5624,327.1294,506.7858,337.8243,506.8501,348.5191,507.2179,359.214,507.3085,369.9088,507.3172,380.6037,506.8665,391.2985,507.0883,401.9934,507.3416,412.6882,505.8309,423.3831,507.3164,434.0779,506.2816,444.7728,507.1628,455.4676,506.071,466.1625,506.5236,476.8574,507.3833,487.5522,506.5446,498.2471,506.7081,508.9419,506.9557,519.6368,507.038,530.3316,506.5922,541.0265,506.9011,551.7213,505.9888,562.4162,506.8981,573.111,507.1781,583.8059,507.0681,594.5007,507.2469,605.1956,506.0836,615.8904,505.9042,626.5853,505.9368,637.2802,506.5963,647.975,506.5963,647.9542,504.8983,647.9055,503.2003,648.2161,501.5023,647.9132,499.8042,647.8537,498.1062,647.975,498.3485,647.975,497.3985,637.2802,497.5553,626.5853,498.7949,615.8904,498.5686,605.1956,498.8857,594.5007,497.7647,583.8059,498.445,573.111,498.7328,562.4162,497.6049,551.7213,498.0045,541.0265,498.2399,530.3316,498.7979,519.6368,498.1018,508.9419,498.5971,498.2471,497.5185,487.5522,497.3875,476.8574,498.6407,466.1625,497.3454,455.4676,498.6464,444.7728,498.3255,434.0779,497.8219,423.3831,497.7308,412.6882,498.5931,401.9934,497.7886,391.2985,498.7344,380.6037,497.5196,369.9088,498.7615,359.214,498.6202,348.5191,498.3662,337.8243,498.1563,327.1294,498.8774,316.4346,498.7574,305.7397,498.2859,295.0448,498.3909,284.35,497.968,273.6551,498.8666,262.9603,498.2706,252.2654,498.2894,241.5706,497.4606,230.8757,497.6762,220.1809,498.1062,209.486"/><path d="M502.1805,209.486 L502.4779,209.486 L501.5942,220.1809 L502.454,230.8757 L502.746,241.5706 L501.171,252.2654 L502.0705,262.9603 L501.577,273.6551 L501.6378,284.35 L502.0841,295.0448 L501.2022,305.7397 L502.9639,316.4346 L501.2886,327.1294 L501.9007,337.8243 L502.7917,348.5191 L502.0591,359.214 L502.2771,369.9088 L502.1353,380.6037 L502.4331,391.2985 L502.5189,401.9934 L503.0093,412.6882 L503.13,423.3831 L503.1417,434.0779 L502.5408,444.7728 L502.8365,455.4676 L503.1742,466.1625 L501.16,476.8574 L503.1406,487.5522 L501.7609,498.2471 L502.9358,508.9419 L501.48,519.6368 L502.0836,530.3316 L503.2299,541.0265 L502.1115,551.7213 L502.3295,562.4162 L502.6597,573.111 L502.7695,583.8059 L502.175,594.5007 L502.5869,605.1956 L501.3705,615.8904 L502.5829,626.5853 L502.9562,637.2802 L502.1805,647.975" fill="none" style="stroke:#0000FF;stroke-width:0.5306;stroke-dasharray:5.3063,5.3063;"/></g><g><title>M.dulo Edge</title><polygon fill="#000000" fill-opacity="0.00000" points="694.5634,209.486,694.5634,209.5604,696.2614,209.3395,697.9594,209.5544,699.6574,209.6274,701.3555,209.2337,703.0535,209.486,702.971,209.486,702.6009,220.1809,702.6465,230.8757,702.9811,241.5706,702.3197,252.2654,703.641,262.9603,702.3846,273.6551,702.8436,284.35,703.5119,295.0448,702.9624,305.7397,703.1259,316.4346,703.0196,327.1294,703.2429,337.8243,703.3073,348.5191,703.675,359.214,703.7656,369.9088,703.7743,380.6037,703.3237,391.2985,703.5455,401.9934,703.7987,412.6882,702.2881,423.3831,703.7735,434.0779,702.7388,444.7728,703.62,455.4676,702.5281,466.1625,702.9808,476.8574,703.8405,487.5522,703.0018,498.2471,703.1652,508.9419,703.4128,519.6368,703.4952,530.3316,703.0493,541.0265,703.3583,551.7213,702.446,562.4162,703.3553,573.111,703.6352,583.8059,703.5252,594.5007,703.704,605.1956,702.5408,615.8904,702.3613,626.5853,702.394,637.2802,703.0535,647.975,703.0535,647.9542,701.3555,647.9055,699.6574,648.2161,697.9594,647.9132,696.2614,647.8537,694.5634,647.975,694.8057,647.975,693.8557,637.2802,694.0125,626.5853,695.2521,615.8904,695.0258,605.1956,695.3429,594.5007,694.2219,583.8059,694.9022,573.111,695.19,562.4162,694.0621,551.7213,694.4617,541.0265,694.6971,530.3316,695.2551,519.6368,694.559,508.9419,695.0543,498.2471,693.9757,487.5522,693.8447,476.8574,695.0979,466.1625,693.8025,455.4676,695.1035,444.7728,694.7827,434.0779,694.2791,423.3831,694.188,412.6882,695.0503,401.9934,694.2457,391.2985,695.1915,380.6037,693.9768,369.9088,695.2186,359.214,695.0774,348.5191,694.8234,337.8243,694.6135,327.1294,695.3345,316.4346,695.2146,305.7397,694.743,295.0448,694.848,284.35,694.4252,273.6551,695.3237,262.9603,694.7278,252.2654,694.7465,241.5706,693.9178,230.8757,694.1334,220.1809,694.5634,209.486"/><path d="M698.1168,209.486 L698.4142,209.486 L697.5305,220.1809 L698.3903,230.8757 L698.6823,241.5706 L697.1073,252.2654 L698.0068,262.9603 L697.5133,273.6551 L697.5741,284.35 L698.0203,295.0448 L697.1385,305.7397 L698.9002,316.4346 L697.2249,327.1294 L697.8369,337.8243 L698.728,348.5191 L697.9954,359.214 L698.2133,369.9088 L698.0716,380.6037 L698.3694,391.2985 L698.4551,401.9934 L698.9455,412.6882 L699.0663,423.3831 L699.0779,434.0779 L698.4771,444.7728 L698.7727,455.4676 L699.1104,466.1625 L697.0963,476.8574 L699.0769,487.5522 L697.6972,498.2471 L698.8721,508.9419 L697.4163,519.6368 L698.0198,530.3316 L699.1661,541.0265 L698.0478,551.7213 L698.2658,562.4162 L698.5959,573.111 L698.7057,583.8059 L698.1112,594.5007 L698.5232,605.1956 L697.3068,615.8904 L698.5192,626.5853 L698.8925,637.2802 L698.1168,647.975" fill="none" style="stroke:#0000FF;stroke-width:0.5306;stroke-dasharray:5.3063,5.3063;"/></g><g><title>MDC.Cloud</title><polygon fill="#000000" fill-opacity="0.00000" points="981.4717,209.486,981.4717,209.5604,983.1697,209.3395,984.8678,209.5544,986.5658,209.6274,988.2638,209.2337,989.9618,209.486,989.8793,209.486,989.5092,220.1809,989.5548,230.8757,989.8895,241.5706,989.2281,252.2654,990.5494,262.9603,989.2929,273.6551,989.7519,284.35,990.4202,295.0448,989.8708,305.7397,990.0342,316.4346,989.9279,327.1294,990.1513,337.8243,990.2156,348.5191,990.5834,359.214,990.674,369.9088,990.6827,380.6037,990.232,391.2985,990.4538,401.9934,990.707,412.6882,989.1964,423.3831,990.6819,434.0779,989.6471,444.7728,990.5283,455.4676,989.4364,466.1625,989.8891,476.8574,990.7488,487.5522,989.9101,498.2471,990.0735,508.9419,990.3212,519.6368,990.4035,530.3316,989.9576,541.0265,990.2666,551.7213,989.3543,562.4162,990.2636,573.111,990.5436,583.8059,990.4336,594.5007,990.6124,605.1956,989.4491,615.8904,989.2697,626.5853,989.3023,637.2802,989.9618,647.975,989.9618,647.9542,988.2638,647.9055,986.5658,648.2161,984.8678,647.9132,983.1697,647.8537,981.4717,647.975,981.714,647.975,980.764,637.2802,980.9208,626.5853,982.1604,615.8904,981.9341,605.1956,982.2512,594.5007,981.1302,583.8059,981.8105,573.111,982.0983,562.4162,980.9704,551.7213,981.37,541.0265,981.6054,530.3316,982.1634,519.6368,981.4673,508.9419,981.9626,498.2471,980.884,487.5522,980.753,476.8574,982.0062,466.1625,980.7109,455.4676,982.0119,444.7728,981.691,434.0779,981.1874,423.3831,981.0963,412.6882,981.9586,401.9934,981.1541,391.2985,982.0998,380.6037,980.8851,369.9088,982.127,359.214,981.9857,348.5191,981.7317,337.8243,981.5218,327.1294,982.2428,316.4346,982.1229,305.7397,981.6513,295.0448,981.7563,284.35,981.3335,273.6551,982.2321,262.9603,981.6361,252.2654,981.6549,241.5706,980.8261,230.8757,981.0417,220.1809,981.4717,209.486"/><path d="M985.06,209.486 L985.3574,209.486 L984.4737,220.1809 L985.3335,230.8757 L985.6255,241.5706 L984.0505,252.2654 L984.95,262.9603 L984.4565,273.6551 L984.5173,284.35 L984.9635,295.0448 L984.0817,305.7397 L985.8434,316.4346 L984.1681,327.1294 L984.7801,337.8243 L985.6712,348.5191 L984.9386,359.214 L985.1565,369.9088 L985.0148,380.6037 L985.3126,391.2985 L985.3984,401.9934 L985.8887,412.6882 L986.0095,423.3831 L986.0211,434.0779 L985.4203,444.7728 L985.716,455.4676 L986.0537,466.1625 L984.0395,476.8574 L986.0201,487.5522 L984.6404,498.2471 L985.8153,508.9419 L984.3595,519.6368 L984.9631,530.3316 L986.1094,541.0265 L984.991,551.7213 L985.209,562.4162 L985.5392,573.111 L985.649,583.8059 L985.0545,594.5007 L985.4664,605.1956 L984.25,615.8904 L985.4624,626.5853 L985.8357,637.2802 L985.06,647.975" fill="none" style="stroke:#0000FF;stroke-width:0.5306;stroke-dasharray:5.3063,5.3063;"/></g><g class="participant participant-head" data-participant="Sensor .ptico"><text fill="#1E90FF" font-family="Aapex" font-size="18.0414" lengthAdjust="spacing" textLength="118.8564" x="5.3063" y="204.1999">Sensor &#211;ptico</text><polygon fill="#00BFFF" points="84.9922,141.8179,82.5032,145.2188,79.5593,150.2,75.3488,153.557,70.9244,155.3927,67.3965,155.5521,62.8624,153.2562,58.5841,151.7564,55.3368,148.7112,53.6335,145.225,52.6233,142.4491,51.6337,138.8233,50.0274,135.7033,51.2617,132.6569,52.3432,129.3199,56.4016,126.6807,59.2568,123.2563,62.7909,122.1191,66.9923,121.1398,72.3801,121.7217,75.331,123.1134,78.762,123.7442,82.9336,128.0182,84.3879,132.5303,85.0197,135.6089,84.304,140.6822" style="stroke:#00BFFF;stroke-width:0.5306;"/><path d="M67.9183,158.9129 L67.9183,158.9129 L67.9522,159.006 L70.1863,157.8802 L72.619,157.3005 L74.987,156.543 L77.1424,155.2006 L79.5921,154.6678 L79.5921,154.6678 L79.577,154.6345 L81.8437,155.5459 L84.1868,156.6257 L86.5831,157.8223 L88.7963,158.616 L91.266,159.9741 L91.5037,160.0822 L92.0566,162.1859 L93.3036,164.6051 L94.6352,167.0627 L95.4742,169.2964 L96.5723,171.648 L96.6366,171.648 L96.5421,172.497 L96.7407,173.346 L96.7979,174.195 L97.1248,175.044 L96.5723,175.893 L96.5723,175.893 L96.7961,176.1168 L95.1008,177.8176 L93.2612,179.3739 L91.6328,181.1417 L90.0144,182.9193 L88.0822,184.3831 L88.0822,183.7027 L80.0166,185.0231 L71.9511,184.1034 L63.8855,184.8866 L55.8199,183.9161 L47.7544,184.3831 L47.7544,184.3831 L47.7315,184.3602 L46.3037,182.9324 L44.3421,180.9708 L42.6954,179.3241 L41.0753,177.7039 L39.2643,175.893 L39.6569,175.893 L39.2606,175.044 L39.5352,174.195 L38.7243,173.346 L39.5326,172.497 L39.2643,171.648 L39.2643,171.648 L39.4997,171.755 L40.5164,169.4 L41.65,167.0981 L42.2406,164.5494 L43.2293,162.1816 L44.5706,159.9741 L44.4493,159.7073 L46.8939,158.8876 L49.2018,157.7672 L51.7079,157.0829 L53.8756,155.6541 L56.2444,154.6678 L56.2444,154.6678 L56.1891,154.5158 L58.616,155.618 L60.8065,156.0702 L63.1651,156.9847 L65.6881,158.3515 L67.9183,158.9129" fill="#00BFFF"/></g><g class="participant participant-head" data-participant="MCU"><polygon fill="#1E90FF" points="318.3884,168.9948,318.3884,169.2179,328.4894,168.5551,338.5904,169.1999,348.6915,169.419,358.7925,168.2377,368.8936,168.9948,368.883,168.9694,369.211,169.0108,369.5921,169.1803,370.01,169.4388,370.3008,169.3905,370.7696,169.7719,370.9506,169.8469,370.719,170.0618,371.0158,170.4956,371.377,170.956,371.3633,171.2611,371.5467,171.648,371.5709,171.648,371.5354,178.4727,371.6099,185.2974,371.6313,192.1222,371.7539,198.9469,371.5467,205.7716,371.766,205.8625,371.6133,206.2388,371.3191,206.5565,371.232,206.96,371.1545,207.3675,370.7696,207.6477,370.672,207.412,370.4863,208.0248,369.9791,207.8616,369.7163,208.2884,369.2018,208.1076,368.8936,208.4248,368.8936,208.3521,358.7925,209.2118,348.6915,208.373,338.5904,208.5365,328.4894,208.7841,318.3884,208.4248,318.4447,208.5608,318.0126,208.2681,317.6768,208.2078,317.1852,207.7714,316.926,207.896,316.5123,207.6477,316.6915,207.7219,316.5022,207.3326,316.4018,206.9802,315.8882,206.4566,315.6775,206.0585,315.7352,205.7716,315.5154,205.7716,315.7144,198.9469,315.6657,192.1222,315.9763,185.2974,315.6734,178.4727,315.7352,171.648,315.6231,171.6015,315.9652,171.3037,315.8281,170.8073,316.0318,170.452,316.569,170.235,316.5123,169.7719,316.5713,169.9143,316.9869,169.8565,317.2192,169.3559,317.6812,169.41,318.0931,169.3432,318.3884,168.9948" style="stroke:#00BFFF;stroke-width:0.5306;"/><text fill="#A9DCDF" font-family="Impact" font-size="18.0414" lengthAdjust="spacing" textLength="40.9539" x="323.164" y="195.7098">MCU</text></g><g class="participant participant-head" data-participant="C.mera"><polygon fill="#1E90FF" points="464.5058,168.9948,464.5058,169.2179,475.3188,168.5551,486.1318,169.1999,496.9448,169.419,507.7578,168.2377,518.5708,168.9123,529.3837,168.5422,540.1967,168.9948,540.1448,168.8695,540.5627,169.128,540.8536,169.0797,541.3973,169.642,541.6123,169.4105,542.0728,169.7719,542.0082,169.7451,542.3694,170.2056,542.3556,170.5107,542.5613,170.9068,542.684,171.2684,542.8499,171.648,542.913,171.648,542.9345,178.4727,543.0571,185.2974,543.0873,192.1222,543.0902,198.9469,542.8499,205.7716,542.9331,205.8061,542.846,206.2096,542.7685,206.6171,542.1479,206.7996,542.45,207.3643,542.0728,207.6477,542.0327,207.5508,541.7698,207.9776,541.2554,207.7967,540.9379,208.0915,540.6723,208.5117,540.1967,208.4248,540.1967,208.373,529.3837,208.5365,518.5708,208.7841,507.7578,208.8665,496.9448,208.4206,486.1318,208.7296,475.3188,207.8173,464.5058,208.4248,464.5443,208.5177,464.2048,208.4485,463.8156,208.2592,463.4632,208.1589,462.9396,207.6452,462.6298,207.6477,462.4166,207.5594,462.2712,207.1883,462.2997,206.8893,462.0993,206.4954,462.2308,206.2391,461.8527,205.7716,461.7909,205.7716,461.7313,198.9469,461.9334,192.1222,461.6168,185.2974,461.669,178.4727,461.8527,171.648,462.0648,171.7358,462.1505,171.3317,462.4035,170.997,462.2137,170.4788,462.5787,170.1903,462.6298,169.7719,462.7097,169.9649,462.941,169.4621,463.3672,169.4297,463.7724,169.3468,464.2188,169.3632,464.5058,168.9948" style="stroke:#00BFFF;stroke-width:0.5306;"/><text fill="#A9DCDF" font-family="Impact" font-size="18.0414" lengthAdjust="spacing" textLength="66.1396" x="469.2815" y="195.7098">C&#226;mera</text></g><g class="participant participant-head" data-participant="EDGE"><polygon fill="#1E90FF" points="582.9702,144.4225,582.9702,144.6455,593.5009,143.9828,604.0317,144.6276,614.5624,144.8466,625.0932,143.6654,635.6239,144.34,646.1547,143.9699,656.6854,144.0155,667.2162,144.3502,677.7469,143.6888,688.2777,145.01,698.8084,143.7536,709.3392,144.2126,719.8699,144.8809,730.4007,144.3315,740.9314,144.4949,751.4622,144.3886,761.9929,144.6119,772.5237,144.6763,783.0544,145.0441,793.5852,145.1346,804.1159,145.1434,814.6467,144.4225,814.6812,144.5057,815.0847,144.7294,815.4922,144.9628,815.6747,144.653,816.2394,145.2659,816.5227,145.1996,816.4258,145.1594,816.8526,145.6471,816.6718,145.883,816.9666,146.3159,817.3868,146.8008,817.2998,147.0756,817.2481,147.0756,817.4116,156.8583,817.6592,166.641,817.7416,176.4236,817.2957,186.2063,817.6046,195.989,817.2998,205.7716,817.1127,205.6941,817.2374,206.1853,817.1682,206.5963,816.9789,206.9574,816.8785,207.3555,816.5227,207.6477,816.4573,207.4898,816.0592,207.5899,815.6882,207.7554,815.3891,208.0947,814.9953,208.2051,814.6467,208.4248,814.6467,209.1479,804.1159,208.2394,793.5852,208.0607,783.0544,208.667,772.5237,207.7171,761.9929,207.8738,751.4622,209.1135,740.9314,208.8871,730.4007,209.2042,719.8699,208.0833,709.3392,208.7635,698.8084,209.0514,688.2777,207.9234,677.7469,208.323,667.2162,208.5585,656.6854,209.1164,646.1547,208.4203,635.6239,208.9157,625.0932,207.8371,614.5624,207.706,604.0317,208.9592,593.5009,207.6639,582.9702,208.4248,583.0391,208.5911,582.623,208.3369,582.1835,208.0264,581.7967,207.8429,581.5314,207.953,581.0941,207.6477,580.9963,207.6072,581.1321,207.3526,580.6026,206.8224,580.8297,206.6056,580.6307,206.2124,580.317,205.7716,580.577,205.7716,580.3672,195.989,581.0882,186.2063,580.9682,176.4236,580.4967,166.641,580.6017,156.8583,580.317,147.0756,580.2745,147.058,580.7066,146.7974,580.6785,146.3462,580.8397,145.9734,580.7399,145.4924,581.0941,145.1996,581.0393,145.0671,581.5412,145.2176,581.9027,145.0292,582.214,144.7193,582.5514,144.4726,582.9702,144.4225" style="stroke:#00BFFF;stroke-width:0.5306;"/><text fill="#A9DCDF" font-family="Impact" font-size="18.0414" lengthAdjust="spacing" textLength="112.1811" x="642.7179" y="171.1375">M&#243;dulo Edge</text><text fill="#A9DCDF" font-family="Impact" font-size="18.0414" lengthAdjust="spacing" textLength="222.1252" x="587.7459" y="195.7098">(Processamento/Gateway)</text></g><g class="participant participant-head" data-participant="MDC"><polygon fill="#1E90FF" points="917.6701,144.4225,917.6701,144.6455,928.1388,143.9828,938.6075,144.6276,949.0762,144.8466,959.545,143.6654,970.0137,144.34,980.4824,143.9699,990.9511,144.0155,1001.4198,144.3502,1011.8886,143.6888,1022.3573,145.01,1032.826,143.7536,1043.2947,144.2126,1053.7635,144.4225,1053.8219,144.5637,1054.1271,144.5499,1054.5231,144.7556,1054.8848,144.8783,1055.2885,145.1025,1055.6395,145.1996,1055.7177,145.2319,1055.9864,145.6541,1056.1697,146.0408,1056.3278,146.4172,1056.3444,146.7349,1056.4166,147.0756,1056.9086,147.0756,1057.1619,156.8583,1055.6512,166.641,1057.1367,176.4236,1056.1019,186.2063,1056.9831,195.989,1056.4166,205.7716,1056.2548,205.7046,1056.2388,206.1376,1056.3481,206.6224,1055.9344,206.8907,1055.8293,207.2867,1055.6395,207.6477,1055.6854,207.7583,1055.3207,207.9391,1054.8886,207.9572,1054.5528,208.2078,1054.0612,208.0823,1053.7635,208.4248,1053.7635,208.7266,1043.2947,209.0065,1032.826,208.8965,1022.3573,209.0753,1011.8886,207.9121,1001.4198,207.7326,990.9511,207.7653,980.4824,208.3623,970.0137,208.2162,959.545,209.1479,949.0762,208.2394,938.6075,208.0607,928.1388,208.667,917.6701,208.4248,917.5798,208.2068,917.2246,208.0997,917.0075,208.326,916.6034,208.1009,916.2686,208.0431,915.794,207.6477,915.6888,207.6041,915.7429,207.3157,915.6761,206.9772,915.1734,206.4581,915.141,206.1339,915.0169,205.7716,915.1506,205.7716,915.7086,195.989,915.0125,186.2063,915.5078,176.4236,914.4292,166.641,914.2982,156.8583,915.0169,147.0756,915.1815,147.1438,914.938,146.6034,915.4941,146.3941,915.5507,145.978,915.551,145.5385,915.794,145.1996,915.7461,145.084,916.2313,145.1941,916.5039,144.7909,916.9998,144.9268,917.22,144.3973,917.6701,144.4225" style="stroke:#00BFFF;stroke-width:0.5306;"/><text fill="#A9DCDF" font-family="Impact" font-size="18.0414" lengthAdjust="spacing" textLength="96.864" x="937.2847" y="171.1375">MDC/Cloud</text><text fill="#A9DCDF" font-family="Impact" font-size="18.0414" lengthAdjust="spacing" textLength="126.5421" x="922.4457" y="195.7098">(Servidor SFTP)</text></g><g><title>MCU</title><polygon fill="#000000" points="338.3347,245.2568,338.3347,245.3312,340.4572,245.1103,342.5797,245.3252,344.7022,245.3982,346.8247,245.0045,348.9473,245.2568,348.8648,245.2568,348.4946,255.883,348.5403,266.5091,348.8749,277.1352,348.2135,287.7614,349.5348,298.3875,348.2784,309.0136,348.7374,319.6397,349.4057,330.2659,348.8562,340.892,349.0197,351.5181,348.9134,362.1443,349.1367,372.7704,349.201,383.3965,349.5688,394.0227,349.6594,404.6488,349.6681,415.2749,349.2175,425.9011,349.4392,436.5272,349.6925,447.1533,348.1819,457.7794,349.6673,468.4056,348.6326,479.0317,349.5138,489.6578,348.4219,500.284,348.8746,510.9101,349.7343,521.5362,348.8955,532.1624,349.059,542.7885,349.3066,553.4146,349.389,564.0408,348.9431,574.6669,349.2521,585.293,348.3398,595.9192,349.2491,606.5453,349.529,617.1714,349.419,627.7975,348.9473,638.4237,348.9473,638.6405,346.8247,638.2528,344.7022,638.193,342.5797,638.2039,340.4572,638.4028,338.3347,638.4237,338.1261,638.4237,339.0578,627.7975,338.1493,617.1714,337.9706,606.5453,338.5769,595.9192,337.627,585.293,337.7837,574.6669,339.0234,564.0408,338.797,553.4146,339.1142,542.7885,337.9932,532.1624,338.6734,521.5362,338.9613,510.9101,337.8333,500.284,338.2329,489.6578,338.4684,479.0317,339.0264,468.4056,338.3302,457.7794,338.8256,447.1533,337.747,436.5272,337.6159,425.9011,338.8691,415.2749,337.5738,404.6488,338.8748,394.0227,338.554,383.3965,338.0503,372.7704,337.9592,362.1443,338.8215,351.5181,338.017,340.892,338.9628,330.2659,337.7481,319.6397,338.9899,309.0136,338.8486,298.3875,338.5946,287.7614,338.3848,277.1352,339.1058,266.5091,338.9858,255.883,338.3347,245.2568" style="stroke:#181818;stroke-width:1.0613;"/></g><g><title>C.mera</title><polygon fill="#A9DCDF" points="497.045,297.6958,497.045,297.7701,499.1675,297.5492,501.29,297.7642,503.4125,297.8372,505.535,297.4434,507.6576,297.6958,507.5751,297.6958,507.2049,308.4567,507.2506,319.2176,507.5852,329.9785,506.9238,340.7394,508.2451,351.5003,506.9887,362.2612,507.4477,373.0221,507.6576,383.783,507.6576,383.9358,505.535,383.7527,503.4125,383.8072,501.29,383.7717,499.1675,383.8462,497.045,383.783,497.2988,383.783,497.6665,373.0221,497.7571,362.2612,497.7658,351.5003,497.3152,340.7394,497.537,329.9785,497.7902,319.2176,496.2796,308.4567,497.045,297.6958" style="stroke:#181818;stroke-width:1.0613;"/></g><g class="message" data-participant-1="Sensor .ptico" data-participant-2="MCU"><polygon fill="#00BFFF" points="325.5996,241.0118,325.6272,241.0808,327.6676,241.7247,329.87,242.7733,332.0196,243.6901,333.9959,244.1735,336.2122,245.2568,336.2019,245.2313,334.0336,245.9657,331.9167,246.8289,329.8356,247.7815,327.6312,248.4258,325.5996,249.5019,325.7381,249.6403,326.2909,248.4952,327.2481,247.7544,328.2546,247.0629,328.9741,246.0844,329.8446,245.2568,329.8617,245.2739,328.9876,244.3998,328.1912,243.6035,327.3574,242.7696,326.5951,242.0073,325.5996,241.0118" style="stroke:#00BFFF;stroke-width:1.0613;"/><path d="M67.9183,245.2568 L67.9183,245.5542 L78.4802,244.6706 L89.0422,245.5303 L99.6041,245.8224 L110.1661,244.2474 L120.7281,245.1469 L131.29,244.6533 L141.852,244.7142 L152.4139,245.1604 L162.9759,244.2785 L173.5378,246.0402 L184.0998,244.365 L194.6617,244.977 L205.2237,245.868 L215.7856,245.1355 L226.3476,245.3534 L236.9095,245.2116 L247.4715,245.5094 L258.0334,245.5952 L268.5954,246.0856 L279.1574,246.2064 L289.7193,246.218 L300.2813,245.6171 L310.8432,245.9128 L321.4052,246.2505 L331.9671,245.2568" fill="none" style="stroke:#00BFFF;stroke-width:1.0613;"/><text fill="#000000" font-family="sans-serif" font-size="13.7964" lengthAdjust="spacing" textLength="250.2525" x="75.3471" y="239.092">Detecta produto no ponto de inspe&#231;&#227;o</text></g><g class="message" data-participant-1="MCU" data-participant-2="C.mera"><polygon fill="#00BFFF" points="484.3099,293.4507,484.3375,293.5198,486.378,294.1637,488.5803,295.2122,490.7299,296.129,492.7062,296.6125,494.9225,297.6958,494.9122,297.6703,492.7439,298.4047,490.627,299.2678,488.546,300.2204,486.3416,300.8647,484.3099,301.9408,484.4484,302.0793,485.0012,300.9341,485.9584,300.1933,486.9649,299.5018,487.6844,298.5233,488.5549,297.6958,488.572,297.7128,487.6979,296.8388,486.9015,296.0424,486.0677,295.2086,485.3054,294.4463,484.3099,293.4507" style="stroke:#00BFFF;stroke-width:1.0613;"/><path d="M348.9473,297.6958 L348.9473,297.9932 L359.8496,297.1095 L370.7519,297.9693 L381.6542,298.2613 L392.5565,296.6863 L403.4589,297.5858 L414.3612,297.0923 L425.2635,297.1531 L436.1658,297.5993 L447.0681,296.7175 L457.9705,298.4792 L468.8728,296.8039 L479.7751,297.4159 L490.6774,297.6958" fill="none" style="stroke:#00BFFF;stroke-width:1.0613;"/><text fill="#000000" font-family="sans-serif" font-size="13.7964" lengthAdjust="spacing" textLength="121.5185" x="356.3761" y="272.7403">Produto detectado</text><text fill="#000000" font-family="sans-serif" font-size="13.7964" lengthAdjust="spacing" textLength="127.9338" x="356.3761" y="291.5309">(Ponto de inspe&#231;&#227;o)</text></g><g class="message" data-participant-1="EDGE" data-participant-2="C.mera"><polygon fill="#00BFFF" points="519.3314,345.8897,519.359,345.9587,517.1545,346.6026,515.1118,347.6512,513.0164,348.568,510.7476,349.0514,508.7188,350.1347,508.7086,350.1092,510.7853,350.8437,512.9135,351.7068,515.0774,352.6594,517.1181,353.3037,519.3314,354.3798,519.4699,354.5183,518.3247,353.3731,517.5839,352.6323,516.8924,351.9408,515.9139,350.9623,515.0864,350.1347,515.1034,350.1518,515.9274,349.2777,516.829,348.4814,517.6932,347.6475,518.6289,346.8852,519.3314,345.8897" style="stroke:#00BFFF;stroke-width:1.0613;"/><path d="M512.9639,350.1347 L512.9639,350.4321 L523.8335,349.5485 L534.7031,350.4082 L545.5727,350.7003 L556.4423,349.1253 L567.3119,350.0248 L578.1815,349.5312 L589.0511,349.5921 L599.9207,350.0383 L610.7903,349.1564 L621.6599,350.9181 L632.5295,349.2429 L643.3991,349.8549 L654.2687,350.7459 L665.1384,350.0134 L676.008,350.2313 L686.8776,350.0895 L697.7472,350.1347" fill="none" style="stroke:#00BFFF;stroke-width:1.0613;stroke-dasharray:2.1225,2.1225;"/><text fill="#000000" font-family="sans-serif" font-size="13.7964" lengthAdjust="spacing" textLength="99.3201" x="525.699" y="325.1792">Solicita captura</text><text fill="#000000" font-family="sans-serif" font-size="13.7964" lengthAdjust="spacing" textLength="165.6807" x="525.699" y="343.9699">(resolu&#231;&#227;o 1920X1080 px)</text></g><g class="message" data-participant-1="C.mera" data-participant-2="EDGE"><polygon fill="#00BFFF" points="686.0733,379.538,686.1009,379.607,688.1414,380.2509,690.3438,381.2995,692.4934,382.2163,694.4697,382.6997,696.6859,383.783,696.6757,383.7575,694.5074,384.4919,692.3905,385.3551,690.3094,386.3076,688.105,386.952,686.0733,388.028,686.2118,388.1665,686.7647,387.0214,687.7219,386.2806,688.7284,385.5891,689.4479,384.6106,690.3184,383.783,690.3354,383.8001,689.4614,382.926,688.665,382.1297,687.8312,381.2958,687.0688,380.5335,686.0733,379.538" style="stroke:#00BFFF;stroke-width:1.0613;"/><path d="M502.3513,383.783 L502.3513,384.0804 L512.9118,383.1967 L523.4723,384.0565 L534.0329,384.3486 L544.5934,382.7736 L555.1539,383.673 L565.7145,383.1795 L576.275,383.2404 L586.8355,383.6866 L597.3961,382.8047 L607.9566,384.5664 L618.5171,382.8912 L629.0777,383.5032 L639.6382,384.3942 L650.1987,383.6616 L660.7593,383.8796 L671.3198,383.7378 L681.8803,384.0356 L692.4409,383.783" fill="none" style="stroke:#00BFFF;stroke-width:1.0613;"/><text fill="#000000" font-family="sans-serif" font-size="13.7964" lengthAdjust="spacing" textLength="125.2711" x="509.7801" y="377.6182">Envia imagem RAW</text></g><g class="message" data-participant-1="EDGE" data-participant-2="EDGE"><path d="M698.8084,417.4313 L698.8084,417.5304 L707.723,417.2359 L716.6376,417.5225 L725.5522,417.6198 L734.4667,417.0948 L743.3813,417.4313" fill="none" style="stroke:#00BFFF;stroke-width:1.0613;stroke-dasharray:2.1225,2.1225;"/><path d="M743.3813,417.4313 L743.4804,417.4313 L743.1859,420.1906 L743.4725,422.9498 L743.5698,425.7091 L743.0448,428.4684 L743.3813,431.2277" fill="none" style="stroke:#00BFFF;stroke-width:1.0613;stroke-dasharray:2.1225,2.1225;"/><path d="M699.8697,431.2277 L699.8697,431.3268 L708.572,431.0322 L717.2743,431.3188 L725.9767,431.4162 L734.679,430.8912 L743.3813,431.2277" fill="none" style="stroke:#00BFFF;stroke-width:1.0613;stroke-dasharray:2.1225,2.1225;"/><polygon fill="#00BFFF" points="710.4823,426.9826,710.5099,427.0517,708.3053,427.6956,706.2626,428.7441,704.1672,429.6609,701.8985,430.1443,699.8697,431.2277,699.8595,431.2021,701.9362,431.9366,704.0643,432.7997,706.2283,433.7523,708.2689,434.3966,710.4823,435.4727,710.6208,435.6112,709.4756,434.466,708.7348,433.7252,708.0433,433.0337,707.0648,432.0552,706.2372,431.2277,706.2543,431.2447,707.0783,430.3707,707.9799,429.5743,708.8441,428.7405,709.7798,427.9781,710.4823,426.9826" style="stroke:#00BFFF;stroke-width:1.0613;"/><text fill="#000000" font-family="sans-serif" font-size="13.7964" lengthAdjust="spacing" textLength="272.0507" x="706.2372" y="411.2664">Processa imagem (Compress&#227;o JPEG 85%)</text></g><polygon fill="#FEFFDD" points="612.3463,445.024,612.3463,445.2471,623.0252,444.5843,633.7041,445.2292,644.383,445.4482,655.0619,444.2669,665.7409,444.9416,676.4198,444.5714,687.0987,444.617,697.7776,444.9517,708.4565,444.2903,719.1354,445.6116,729.8144,444.3551,740.4933,444.8141,751.1722,445.4824,761.8511,444.933,772.53,445.0964,783.2089,445.024,783.2003,445.0168,785.38,447.6115,787.519,450.1722,789.7357,452.7977,791.8814,455.3641,793.8215,457.7591,794.012,457.9056,791.7704,460.5733,789.7065,463.3777,787.6509,466.1884,785.1292,468.6407,783.2089,471.5555,783.2089,472.2756,772.53,471.2408,761.8511,472.122,751.1722,471.0301,740.4933,471.4828,729.8144,472.3425,719.1354,471.5038,708.4565,471.6672,697.7776,471.9149,687.0987,471.9972,676.4198,471.5514,665.7409,471.8603,655.0619,470.948,644.383,471.8573,633.7041,472.1373,623.0252,472.0273,612.3463,471.5555,612.5182,471.6877,610.0883,468.692,607.9184,465.8963,605.8045,463.1437,603.8397,460.5057,601.7337,457.7591,601.6803,457.7146,604.0414,455.3664,605.9313,452.6255,608.008,450.0404,610.2858,447.6227,612.3463,445.024" style="stroke:#181818;stroke-width:0.5306;"/><text fill="#000000" font-family="sans-serif" font-size="13.7964" lengthAdjust="spacing" textLength="167.6397" x="614.4688" y="464.0174">Prepara para transmiss&#227;o</text><g class="message" data-participant-1="EDGE" data-participant-2="MDC"><polygon fill="#00BFFF" points="972.9817,498.5242,973.0093,498.5933,975.0497,499.2372,977.2521,500.2857,979.4017,501.2025,981.378,501.686,983.5942,502.7693,983.584,502.7437,981.4157,503.4782,979.2988,504.3413,977.2177,505.2939,975.0133,505.9382,972.9817,507.0143,973.1201,507.1528,973.673,506.0076,974.6302,505.2668,975.6367,504.5753,976.3562,503.5968,977.2267,502.7693,977.2438,502.7863,976.3697,501.9123,975.5733,501.1159,974.7395,500.2821,973.9772,499.5198,972.9817,498.5242" style="stroke:#00BFFF;stroke-width:1.0613;"/><path d="M698.8084,502.7693 L698.8084,503.0667 L709.5985,502.183 L720.3885,503.0428 L731.1785,503.3348 L741.9686,501.7598 L752.7586,502.6593 L763.5486,502.1658 L774.3386,502.2266 L785.1287,502.6728 L795.9187,501.791 L806.7087,503.5527 L817.4988,501.8774 L828.2888,502.4894 L839.0788,503.3805 L849.8689,502.6479 L860.6589,502.8658 L871.4489,502.7241 L882.2389,503.0219 L893.029,503.1077 L903.819,503.598 L914.609,503.7188 L925.3991,503.7304 L936.1891,503.1296 L946.9791,503.4253 L957.7691,503.7629 L968.5592,501.7488 L979.3492,502.7693" fill="none" style="stroke:#00BFFF;stroke-width:1.0613;"/><text fill="#000000" font-family="sans-serif" font-size="13.7964" lengthAdjust="spacing" textLength="252.5013" x="706.2372" y="496.6044">Transmite foto via SFTP (criptografado)</text></g><g class="message" data-participant-1="MDC" data-participant-2="EDGE"><polygon fill="#00BFFF" points="710.4823,532.1725,710.5099,532.2416,708.3053,532.8854,706.2626,533.934,704.1672,534.8508,701.8985,535.3342,699.8697,536.4176,699.8595,536.392,701.9362,537.1265,704.0643,537.9896,706.2283,538.9422,708.2689,539.5865,710.4823,540.6626,710.6208,540.8011,709.4756,539.6559,708.7348,538.9151,708.0433,538.2236,707.0648,537.2451,706.2372,536.4176,706.2543,536.4346,707.0783,535.5606,707.9799,534.7642,708.8441,533.9304,709.7798,533.168,710.4823,532.1725" style="stroke:#00BFFF;stroke-width:1.0613;"/><path d="M704.1147,536.4176 L704.1147,536.715 L714.9048,535.8313 L725.6948,536.6911 L736.4848,536.9831 L747.2748,535.4081 L758.0649,536.3076 L768.8549,535.8141 L779.6449,535.8749 L790.435,536.3211 L801.225,535.4393 L812.015,537.201 L822.8051,535.5257 L833.5951,536.1377 L844.3851,537.0288 L855.1751,536.2962 L865.9652,536.5141 L876.7552,536.3724 L887.5452,536.6702 L898.3353,536.7559 L909.1253,537.2463 L919.9153,537.3671 L930.7054,537.3787 L941.4954,536.7779 L952.2854,537.0735 L963.0754,537.4112 L973.8655,535.3971 L984.6555,536.4176" fill="none" style="stroke:#00BFFF;stroke-width:1.0613;stroke-dasharray:2.1225,2.1225;"/><text fill="#000000" font-family="sans-serif" font-size="13.7964" lengthAdjust="spacing" textLength="226.7848" x="716.8498" y="530.2527">Confirma&#231;&#227;o de recebimento (ACK)</text></g><g class="message" data-participant-1="EDGE" data-participant-2="MCU"><polygon fill="#00BFFF" points="360.6211,584.6115,360.6487,584.6805,358.4442,585.3244,356.4015,586.373,354.3061,587.2898,352.0373,587.7732,350.0085,588.8565,349.9983,588.831,352.075,589.5654,354.2032,590.4286,356.3671,591.3811,358.4078,592.0255,360.6211,593.1015,360.7596,593.24,359.6144,592.0949,358.8736,591.3541,358.1821,590.6626,357.2036,589.6841,356.3761,588.8565,356.3931,588.8736,357.2171,587.9995,358.1187,587.2032,358.9829,586.3693,359.9186,585.607,360.6211,584.6115" style="stroke:#00BFFF;stroke-width:1.0613;"/><path d="M354.2536,588.8565 L354.2536,589.1539 L364.9877,588.2702 L375.7219,589.13 L386.4561,589.4221 L397.1903,587.847 L407.9244,588.7465 L418.6586,588.253 L429.3928,588.3139 L440.127,588.7601 L450.8611,587.8782 L461.5953,589.6399 L472.3295,587.9647 L483.0637,588.5767 L493.7978,589.4677 L504.532,588.7351 L515.2662,588.9531 L526.0004,588.8113 L536.7345,589.1091 L547.4687,589.1949 L558.2029,589.6853 L568.9371,589.8061 L579.6712,589.8177 L590.4054,589.2168 L601.1396,589.5125 L611.8738,589.8502 L622.6079,587.836 L633.3421,589.8166 L644.0763,588.437 L654.8105,589.6119 L665.5446,588.156 L676.2788,588.7596 L687.013,589.9059 L697.7472,588.8565" fill="none" style="stroke:#00BFFF;stroke-width:1.0613;stroke-dasharray:2.1225,2.1225;"/><text fill="#000000" font-family="sans-serif" font-size="13.7964" lengthAdjust="spacing" textLength="118.3039" x="366.9887" y="563.901">Resposta: Captura</text><text fill="#000000" font-family="sans-serif" font-size="13.7964" lengthAdjust="spacing" textLength="119.38" x="366.9887" y="582.6917">e envio conclu&#237;dos</text></g><path d="M605.9787,602.6529 L606.177,602.6529 L605.5879,608.3837 L606.1611,614.1145 L606.3558,619.8453 L605.3058,625.5761 L605.9787,631.3069 L605.9787,631.0869 L616.6637,630.0999 L627.3486,630.2215 L638.0336,631.114 L648.7185,629.3503 L659.4035,632.8737 L670.0884,629.5232 L680.7734,630.7472 L691.4583,632.5293 L702.1432,631.0641 L712.8282,631.5 L723.5131,631.2164 L734.1981,631.8121 L744.883,631.9836 L755.568,632.9644 L766.2529,633.206 L776.9379,633.2292 L787.6228,632.0275 L798.3078,632.6188 L808.9927,633.2942 L819.6776,629.2659 L830.3626,633.2271 L841.0475,630.4677 L851.7325,632.8176 L862.4174,629.9059 L873.1024,631.113 L883.7873,633.4056 L894.4723,631.1689 L905.1572,631.6049 L915.8422,632.2652 L926.5271,632.4848 L937.2121,631.2958 L947.897,632.1197 L958.5819,629.6869 L969.2669,632.1117 L979.9518,632.8583 L990.6368,632.5649 L1001.3217,633.0417 L1012.0067,629.9397 L1022.6916,629.4612 L1033.3766,629.5483 L1044.0615,631.1402 L1054.7465,630.7507 L1065.4314,633.2353 L1076.1163,631.3069 L1075.9516,631.3069 L1075.7927,627.6986 L1076.3317,624.0903 L1075.4873,620.482 L1075.6266,616.8737 L1076.1163,613.2655 L1076.5492,613.6983 L1074.2844,611.4336 L1072.3613,609.5104 L1069.5341,606.6833 L1067.8392,604.9883 L1065.5038,602.6529 L1065.5038,604.3238 L1054.8171,601.316 L1044.1305,602.3816 L1033.4439,603.0094 L1022.7572,604.4974 L1012.0706,602.641 L1001.384,603.962 L990.6974,601.0856 L980.0107,600.7362 L969.3241,604.0781 L958.6375,600.6239 L947.9508,604.0933 L937.2642,603.2376 L926.5776,601.8947 L915.891,601.6517 L905.2043,603.9512 L894.5177,601.8058 L883.8311,604.3279 L873.1444,601.0886 L862.4578,604.4002 L851.7712,604.0235 L841.0846,603.3461 L830.3979,602.7865 L819.7113,604.7092 L809.0247,604.3893 L798.338,603.1319 L787.6514,603.4119 L776.9648,602.2842 L766.2782,604.6804 L755.5915,603.0912 L744.9049,603.1413 L734.2183,600.9312 L723.5316,601.5061 L712.845,604.1549 L702.1584,603.8691 L691.4718,602.5314 L680.7851,601.7411 L670.0985,602.0333 L659.4119,600.711 L648.7252,603.8266 L638.0386,604.7459 L627.352,604.1426 L616.6654,604.6195 L605.9787,602.6529" fill="#FEFFDD" style="stroke:#181818;stroke-width:0.5306;"/><path d="M1065.5038,602.6529 L1065.3748,602.6529 L1065.586,604.7754 L1065.1381,606.8979 L1065.7717,609.0204 L1065.7365,611.1429 L1065.5038,613.2655 L1065.5038,613.7866 L1067.6263,613.0488 L1069.7488,613.1387 L1071.8713,613.6838 L1073.9938,613.8007 L1076.1163,613.2655 L1075.7745,612.9236 L1073.8645,611.0136 L1071.9709,609.12 L1069.3413,606.4904 L1067.862,605.0111 L1065.5038,602.6529" fill="#FEFFDD" style="stroke:#181818;stroke-width:0.5306;"/><text fill="#000000" font-family="sans-serif" font-size="13.7964" lengthAdjust="spacing" textLength="168.2882" x="752.4556" y="622.7075">Tempo total &lt; 2 segundos</text><text fill="#1E90FF" font-family="Arial" font-size="14.8576" font-weight="bold" lengthAdjust="spacing" textLength="169.0197" x="31.8378" y="686.1442">Casos de Uso cobertos:</text><text fill="#1E90FF" font-family="Arial" font-size="14.8576" lengthAdjust="spacing" textLength="4.7841" x="31.8378" y="706.3802">-</text><text fill="#1E90FF" font-family="Arial" font-size="14.8576" font-weight="bold" lengthAdjust="spacing" textLength="53.7547" x="40.4849" y="706.3802">MC-006</text><text fill="#1E90FF" font-family="Arial" font-size="14.8576" lengthAdjust="spacing" textLength="357.8593" x="94.2395" y="706.3802">: Captura de Fotografia para Controle de Qualidade</text><polygon fill="none" points="229.7509,26.5315,229.7509,26.7545,240.2851,26.0918,250.8192,26.7366,261.3534,26.9556,271.8875,25.7744,282.4217,26.449,292.9559,26.0788,303.49,26.1245,314.0242,26.4591,324.5583,25.7977,335.0925,27.119,345.6266,25.8626,356.1608,26.3216,366.6949,26.9899,377.2291,26.4404,387.7633,26.6039,398.2974,26.4976,408.8316,26.7209,419.3657,26.7853,429.8999,27.153,440.434,27.2436,450.9682,27.2523,461.5023,26.8017,472.0365,27.0235,482.5707,27.2767,493.1048,25.7661,503.639,27.2515,514.1731,26.2168,524.7073,27.098,535.2414,26.0061,545.7756,26.4588,556.3098,27.3185,566.8439,26.4797,577.3781,26.6432,587.9122,26.8908,598.4464,26.9732,608.9805,26.5273,619.5147,26.8363,630.0488,25.924,640.583,26.8333,651.1172,27.1132,661.6513,27.0032,672.1855,27.182,682.7196,26.0188,693.2538,25.8393,703.7879,25.872,714.3221,26.469,724.8562,26.3229,735.3904,27.2546,745.9246,26.3461,756.4587,26.1674,766.9929,26.7737,777.527,25.8238,788.0612,25.9805,798.5953,27.2202,809.1295,26.9938,819.6636,27.311,830.1978,26.19,840.732,26.8702,851.2661,26.5315,851.346,26.7244,852.3278,26.8433,853.5044,27.4326,854.6601,27.9714,855.8569,28.6095,856.8943,28.8627,856.8929,28.8622,857.5117,30.051,857.6458,31.039,858.0717,32.148,858.9239,33.4335,859.2256,34.4909,858.4647,34.4909,859.7657,45.5789,859.4448,56.667,858.9412,67.755,858.8501,78.843,859.2256,89.931,859.3755,89.9931,858.6615,91.0162,858.4865,92.2624,857.6461,93.2331,857.5623,94.5172,856.8943,95.5592,856.9598,95.7175,855.8018,96.1055,854.6494,96.5072,853.6157,97.1954,852.4748,97.6248,851.2661,97.8905,851.2661,98.0701,840.732,98.1751,830.1978,97.7522,819.6636,98.6508,809.1295,98.0548,798.5953,98.0736,788.0612,97.2449,777.527,97.4604,766.9929,98.4537,756.4587,98.3466,745.9246,97.8449,735.3904,97.5486,724.8562,97.6581,714.3221,97.1623,703.7879,98.3306,693.2538,98.6753,682.7196,98.4491,672.1855,98.628,661.6513,97.7454,651.1172,97.983,640.583,97.4791,630.0488,98.1919,619.5147,98.1524,608.9805,98.4767,598.4464,97.6468,587.9122,97.7478,577.3781,98.3611,566.8439,98.4926,556.3098,97.3465,545.7756,97.6847,535.2414,98.0489,524.7073,97.2422,514.1731,98.2655,503.639,98.1643,493.1048,97.7835,482.5707,98.0414,472.0365,98.6638,461.5023,97.5584,450.9682,98.2248,440.434,98.1936,429.8999,98.0133,419.3657,98.04,408.8316,98.0109,398.2974,97.2281,387.7633,97.4651,377.2291,97.4007,366.6949,97.9582,356.1608,97.984,345.6266,98.0621,335.0925,97.5817,324.5583,97.8188,314.0242,97.7629,303.49,98.5027,292.9559,98.3432,282.4217,97.3752,271.8875,97.8131,261.3534,97.2779,250.8192,98.1965,240.2851,98.5362,229.7509,97.8905,229.8246,98.0685,228.5663,97.2819,227.5625,97.1096,226.2735,96.249,225.2755,96.0909,224.1227,95.5592,224.0249,95.5187,223.6881,94.4467,223.2688,93.3405,222.8783,92.2462,222.0224,90.9592,221.7915,89.931,222.2961,89.931,221.9806,78.843,222.1686,67.755,222.5851,56.667,221.7973,45.5789,221.7915,34.4909,221.8488,34.5146,222.3275,33.3942,222.7885,32.2663,223.19,31.1139,223.8888,30.0846,224.1227,28.8627,224.0402,28.6635,225.3249,28.5812,226.2895,27.7263,227.4265,27.2874,228.6307,27.0108,229.7509,26.5315" style="stroke:#000000;stroke-width:1.0613;"/><text fill="#1E90FF" font-family="Arial" font-size="21.2252" font-weight="bold" lengthAdjust="spacing" textLength="594.9837" x="243.0167" y="70.4463">Diagrama de Sequ&#234;ncia - M&#243;dulo de Controle (MC) - Foto</text><!--SRC=[PLBDRjD04BxlKmn1IB55Q5e9L29KgNASIA1AeMu51ovRxoIiPEyik-i0py4Rm049YHEFu1TZrewR9lKXZdRc-rq_qQQi6eKmpnV52zlKbH2o3EHWLA3n_6v_sA1B6WbnV0AJ2xZARcSmnu1ba60TgIOG609BXlymhpRUOlkx_KMHLszbm0Y2fzFk4K9OwPXEMsa2Z7Wq0kdZoi4WQt_MwEJHSljFDHL1hZRuoOnNZahqNjR8sYTBLlegloSTNJvVvaVOUNQILTGe1XRejbfnic9ni-e1F1OY-kICEssOmMeNKFM15KNLnqcJVTJ1TpG0amEoWYfsmxMLqeQ6ZvZCeQUgwKZWzFNPzEFfz7mAzbiY1XnJT5mpoCrMIz2rt60DrvSVXC97idlT7MZeQC2DCwejg_ge-7QLB-7yvRD4V3R4BBH5jmSYzyTt77-2ayRNkaCD6XUnCrwywMSCNnCN4pt6Mc5SEcq3RPnSSt69YDiFZ6LarjhLii_ETJeiyKvtTmdZo-nTyY1Cl9WPNAEtv8Day7s32CYr49GKl-lsho8l3hCyZpxP9jQM852G5Ro1C_2uQKpS5XLkq2WUMG5fEjUIBTSoMYhmIzF-CIL7ci3myV4vUm-EAeJnLPRmQC71qrH4bfvCY3Mn2IU06JFfoKVOhOy-xz05yZFU1s1icbvba-dqLPhkO_5kf8pLwTqDt4lox7qZAwsamawnLm8G_m40]--></g></svg>