<svg xmlns="http://www.w3.org/2000/svg" xmlns:xlink="http://www.w3.org/1999/xlink" contentStyleType="text/css" data-diagram-type="SEQUENCE" height="751.0588px" preserveAspectRatio="none" style="width:1052px;height:751px;background:#EEEBDC;" version="1.1" viewBox="0 0 1052 751" width="1052.3955px" zoomAndPan="magnify"><defs/><g><rect fill="#EEEBDC" height="751.0588" style="stroke:none;stroke-width:1.1414;" width="1052.3955" x="0" y="0"/><rect fill="#FFFFCC" height="30.4083" rx="2.8536" ry="2.8536" style="stroke:#FFDD88;stroke-width:3.4243;" width="1040.4096" x="5.7071" y="5.7071"/><text fill="#000000" font-family="monospace" font-size="11.4143" lengthAdjust="spacing" textLength="405.4461" x="11.4143" y="22.8285">Please&#160;use&#160;'!option&#160;handwritten&#160;true'&#160;to&#160;enable&#160;handwritten</text><g><title>IHM</title><polygon fill="#A9DCDF" points="466.5532,305.6062,466.5532,305.6862,468.8361,305.4486,471.1189,305.6798,473.4018,305.7583,475.6846,305.3348,477.9675,305.6062,477.8788,305.6062,477.4807,316.8406,477.5297,328.075,477.8897,339.3094,477.1783,350.5438,478.5994,361.7782,477.248,373.0126,477.7417,384.2469,478.4605,395.4813,477.8696,406.7157,478.0454,417.9501,477.931,429.1845,478.1712,440.4189,478.2404,451.6533,478.636,462.8876,478.7334,474.122,478.7428,485.3564,478.2581,496.5908,478.4966,507.8252,478.769,519.0596,477.1443,530.294,478.7419,541.5283,477.629,552.7627,478.5768,563.9971,477.4024,575.2315,477.9675,586.4659,477.9675,586.4398,475.6846,586.7481,473.4018,586.4473,471.1189,586.506,468.8361,586.5947,466.5532,586.4659,467.0283,586.4659,466.5487,575.2315,466.881,563.9971,465.8998,552.7627,466.8778,541.5283,467.1789,530.294,467.0606,519.0596,467.2529,507.8252,466.0018,496.5908,465.8088,485.3564,465.8439,474.122,466.486,462.8876,466.3289,451.6533,467.331,440.4189,466.3538,429.1845,466.1616,417.9501,466.8137,406.7157,465.792,395.4813,465.9607,384.2469,467.2939,373.0126,467.0505,361.7782,467.3916,350.5438,466.1859,339.3094,466.9175,328.075,467.2271,316.8406,466.5532,305.6062" style="stroke:#181818;stroke-width:1.1414;"/></g><g><title>IHM</title><polygon fill="#A9DCDF" points="472.2603,362.0065,472.2603,362.0864,474.5432,361.8488,476.826,362.08,479.1089,362.1585,481.3917,361.735,483.6746,362.0065,483.5859,362.0065,483.1878,373.2769,483.2369,384.5474,483.5968,395.8178,482.8855,407.0883,484.3065,418.3587,482.9552,429.6292,483.4489,440.8996,484.1676,452.1701,483.5767,463.4406,483.7525,474.711,483.6381,485.9815,483.8784,497.2519,483.9476,508.5224,483.6746,519.7928,483.6746,520.0157,481.3917,520.0482,479.1089,520.0513,476.826,519.8897,474.5432,519.9692,472.2603,519.7928,473.0619,519.7928,471.4372,508.5224,473.0348,497.2519,471.9219,485.9815,472.8696,474.711,471.6953,463.4406,472.1821,452.1701,473.1068,440.8996,472.2047,429.6292,472.3805,418.3587,472.6469,407.0883,472.7354,395.8178,472.2559,384.5474,472.5882,373.2769,472.2603,362.0065" style="stroke:#181818;stroke-width:1.1414;"/></g><g><title>Sistema</title><polygon fill="#A9DCDF" points="729.9079,278.5476,729.9079,278.6275,732.1908,278.3899,734.4736,278.6211,736.7565,278.6996,739.0393,278.2761,741.3222,278.5476,741.2335,278.5476,740.8354,289.9519,740.8844,301.3563,741.2444,312.7607,740.533,324.1651,741.9541,335.5695,740.6028,346.9739,741.0964,358.3782,741.8152,369.7826,741.2243,381.187,741.4001,392.5914,741.2857,403.9958,741.526,415.4001,741.5951,426.8045,741.9907,438.2089,742.0881,449.6133,742.0975,461.0177,741.6128,472.4221,741.8513,483.8264,742.1237,495.2308,740.499,506.6352,742.0967,518.0396,740.9837,529.444,741.9315,540.8484,740.7571,552.2527,741.244,563.6571,742.1687,575.0615,741.3222,586.4659,741.3222,586.4473,739.0393,586.506,736.7565,586.5947,734.4736,586.6243,732.1908,586.4644,729.9079,586.4659,730.2357,586.4659,729.2545,575.0615,730.2325,563.6571,730.5336,552.2527,730.4153,540.8484,730.6076,529.444,729.3565,518.0396,729.1635,506.6352,729.1986,495.2308,729.8407,483.8264,729.6836,472.4221,730.6857,461.0177,729.7085,449.6133,729.5163,438.2089,730.1685,426.8045,729.1468,415.4001,729.3154,403.9958,730.6486,392.5914,730.4052,381.187,730.7463,369.7826,729.5406,358.3782,730.2723,346.9739,730.5818,335.5695,729.3687,324.1651,729.7985,312.7607,730.0517,301.3563,730.6518,289.9519,729.9079,278.5476" style="stroke:#181818;stroke-width:1.1414;"/></g><g><title>Operador</title><polygon fill="#000000" fill-opacity="0.00000" points="181.6255,267.1333,181.6255,267.2133,183.4517,266.9756,185.278,267.2068,187.1043,267.2854,188.9306,266.8619,190.7569,267.1333,190.6682,267.1333,190.2701,278.499,190.3191,289.8647,190.6791,301.2304,189.9677,312.5961,191.3888,323.9618,190.0374,335.3275,190.5311,346.6932,191.2499,358.0589,190.659,369.4246,190.8348,380.7903,190.7204,392.156,190.9606,403.5217,191.0298,414.8875,191.4254,426.2532,191.5228,437.6189,191.5322,448.9846,191.0475,460.3503,191.286,471.716,191.5584,483.0817,189.9337,494.4474,191.5313,505.8131,190.4184,517.1788,191.3662,528.5445,190.1918,539.9102,190.6787,551.2759,191.6034,562.6416,190.7012,574.0073,190.8771,585.373,190.7569,596.7387,190.7569,596.8676,188.9306,596.8971,187.1043,596.7372,185.278,596.848,183.4517,596.5209,181.6255,596.7387,181.9501,596.7387,182.2512,585.373,182.1329,574.0073,182.3252,562.6416,181.0741,551.2759,180.881,539.9102,180.9162,528.5445,181.5582,517.1788,181.4011,505.8131,182.4032,494.4474,181.4261,483.0817,181.2339,471.716,181.886,460.3503,180.8643,448.9846,181.0329,437.6189,182.3662,426.2532,182.1227,414.8875,182.4638,403.5217,181.2581,392.156,181.9898,380.7903,182.2994,369.4246,181.0862,358.0589,181.516,346.6932,181.7693,335.3275,182.3694,323.9618,181.6207,312.5961,182.1534,301.2304,180.9933,289.8647,180.8524,278.499,181.6255,267.1333"/><path d="M185.2559,267.1333 L185.5758,267.1333 L184.6253,278.499 L185.55,289.8647 L185.8642,301.2304 L184.1702,312.5961 L185.1376,323.9618 L184.6068,335.3275 L184.6722,346.6932 L185.1522,358.0589 L184.2037,369.4246 L186.0985,380.7903 L184.2967,392.156 L184.9549,403.5217 L185.9133,414.8875 L185.1253,426.2532 L185.3597,437.6189 L185.2073,448.9846 L185.5276,460.3503 L185.6198,471.716 L186.1472,483.0817 L186.2772,494.4474 L186.2896,505.8131 L185.6434,517.1788 L185.9614,528.5445 L186.3246,539.9102 L184.1583,551.2759 L186.2885,562.6416 L184.8046,574.0073 L186.0683,585.373 L185.2559,596.7387" fill="none" style="stroke:#0000FF;stroke-width:0.5707;stroke-dasharray:5.7071,5.7071;"/></g><g><title>IHM</title><polygon fill="#000000" fill-opacity="0.00000" points="467.6946,267.1333,467.6946,267.2133,469.5209,266.9756,471.3472,267.2068,473.1735,267.2854,474.9998,266.8619,476.826,267.1333,476.7373,267.1333,476.3392,278.499,476.3883,289.8647,476.7482,301.2304,476.0369,312.5961,477.458,323.9618,476.1066,335.3275,476.6003,346.6932,477.3191,358.0589,476.7281,369.4246,476.9039,380.7903,476.7896,392.156,477.0298,403.5217,477.099,414.8875,477.4946,426.2532,477.592,437.6189,477.6014,448.9846,477.1167,460.3503,477.3552,471.716,477.6276,483.0817,476.0029,494.4474,477.6005,505.8131,476.4876,517.1788,477.4353,528.5445,476.261,539.9102,476.7479,551.2759,477.6725,562.6416,476.7704,574.0073,476.9462,585.373,476.826,596.7387,476.826,596.8676,474.9998,596.8971,473.1735,596.7372,471.3472,596.848,469.5209,596.5209,467.6946,596.7387,468.0192,596.7387,468.3203,585.373,468.202,574.0073,468.3943,562.6416,467.1432,551.2759,466.9502,539.9102,466.9853,528.5445,467.6274,517.1788,467.4703,505.8131,468.4724,494.4474,467.4952,483.0817,467.3031,471.716,467.9552,460.3503,466.9335,448.9846,467.1021,437.6189,468.4354,426.2532,468.1919,414.8875,468.533,403.5217,467.3273,392.156,468.059,380.7903,468.3685,369.4246,467.1554,358.0589,467.5852,346.6932,467.8384,335.3275,468.4386,323.9618,467.6898,312.5961,468.2226,301.2304,467.0625,289.8647,466.9216,278.499,467.6946,267.1333"/><path d="M471.6896,267.1333 L472.0095,267.1333 L471.0591,278.499 L471.9838,289.8647 L472.2979,301.2304 L470.6039,312.5961 L471.5713,323.9618 L471.0405,335.3275 L471.106,346.6932 L471.5859,358.0589 L470.6374,369.4246 L472.5322,380.7903 L470.7304,392.156 L471.3886,403.5217 L472.347,414.8875 L471.5591,426.2532 L471.7935,437.6189 L471.641,448.9846 L471.9613,460.3503 L472.0536,471.716 L472.581,483.0817 L472.7109,494.4474 L472.7234,505.8131 L472.0771,517.1788 L472.3951,528.5445 L472.7583,539.9102 L470.592,551.2759 L472.7222,562.6416 L471.2384,574.0073 L472.502,585.373 L471.6896,596.7387" fill="none" style="stroke:#0000FF;stroke-width:0.5707;stroke-dasharray:5.7071,5.7071;"/></g><g><title>Sistema</title><polygon fill="#000000" fill-opacity="0.00000" points="731.0493,267.1333,731.0493,267.2133,732.8756,266.9756,734.7019,267.2068,736.5282,267.2854,738.3545,266.8619,740.1808,267.1333,740.092,267.1333,739.6939,278.499,739.743,289.8647,740.103,301.2304,739.3916,312.5961,740.8127,323.9618,739.4613,335.3275,739.955,346.6932,740.6738,358.0589,740.0828,369.4246,740.2586,380.7903,740.1443,392.156,740.3845,403.5217,740.4537,414.8875,740.8493,426.2532,740.9467,437.6189,740.9561,448.9846,740.4714,460.3503,740.7099,471.716,740.9823,483.0817,739.3576,494.4474,740.9552,505.8131,739.8423,517.1788,740.7901,528.5445,739.6157,539.9102,740.1026,551.2759,741.0272,562.6416,740.1251,574.0073,740.3009,585.373,740.1808,596.7387,740.1808,596.8676,738.3545,596.8971,736.5282,596.7372,734.7019,596.848,732.8756,596.5209,731.0493,596.7387,731.3739,596.7387,731.6751,585.373,731.5567,574.0073,731.7491,562.6416,730.4979,551.2759,730.3049,539.9102,730.3401,528.5445,730.9821,517.1788,730.825,505.8131,731.8271,494.4474,730.85,483.0817,730.6578,471.716,731.3099,460.3503,730.2882,448.9846,730.4568,437.6189,731.7901,426.2532,731.5466,414.8875,731.8877,403.5217,730.682,392.156,731.4137,380.7903,731.7233,369.4246,730.5101,358.0589,730.9399,346.6932,731.1931,335.3275,731.7933,323.9618,731.0446,312.5961,731.5773,301.2304,730.4172,289.8647,730.2763,278.499,731.0493,267.1333"/><path d="M734.5319,267.1333 L734.8518,267.1333 L733.9014,278.499 L734.8261,289.8647 L735.1402,301.2304 L733.4462,312.5961 L734.4137,323.9618 L733.8829,335.3275 L733.9483,346.6932 L734.4282,358.0589 L733.4797,369.4246 L735.3745,380.7903 L733.5727,392.156 L734.231,403.5217 L735.1893,414.8875 L734.4014,426.2532 L734.6358,437.6189 L734.4833,448.9846 L734.8036,460.3503 L734.8959,471.716 L735.4233,483.0817 L735.5532,494.4474 L735.5657,505.8131 L734.9195,517.1788 L735.2375,528.5445 L735.6007,539.9102 L733.4344,551.2759 L735.5646,562.6416 L734.0807,574.0073 L735.3443,585.373 L734.5319,596.7387" fill="none" style="stroke:#0000FF;stroke-width:0.5707;stroke-dasharray:5.7071,5.7071;"/></g><g class="participant participant-head" data-participant="OP"><text fill="#1E90FF" font-family="Aapex" font-size="19.4043" lengthAdjust="spacing" textLength="88.619" x="138.4574" y="261.4479">Operador</text><polygon fill="#00BFFF" points="204.5549,194.3535,201.8779,198.0113,198.7115,203.3688,194.183,206.9794,189.4243,208.9538,185.63,209.1251,180.7533,206.6559,176.1519,205.0427,172.6593,201.7675,170.8272,198.0179,169.7408,195.0324,168.6764,191.1327,166.9488,187.777,168.2764,184.5005,169.4395,180.9114,173.8045,178.0728,176.8754,174.3897,180.6764,173.1666,185.1952,172.1134,190.99,172.7392,194.1638,174.236,197.854,174.9145,202.3408,179.5114,203.9049,184.3643,204.5844,187.6755,203.8147,193.132" style="stroke:#00BFFF;stroke-width:0.5707;"/><path d="M186.1912,212.7398 L186.1912,212.7398 L186.2276,212.84 L188.6305,211.6291 L191.2469,211.0057 L193.7939,210.1909 L196.112,208.7471 L198.7469,208.1741 L198.7469,208.1741 L198.7305,208.1382 L201.1685,209.1186 L203.6886,210.2798 L206.266,211.5669 L208.6463,212.4205 L211.3025,213.8812 L211.5582,213.9974 L212.1529,216.2601 L213.4941,218.862 L214.9263,221.5053 L215.8286,223.9078 L217.0097,226.4369 L217.0789,226.4369 L216.9773,227.3501 L217.1908,228.2632 L217.2523,229.1763 L217.6039,230.0895 L217.0097,231.0026 L217.0097,231.0026 L217.2504,231.2433 L215.4271,233.0726 L213.4485,234.7465 L211.6971,236.6478 L209.9565,238.5597 L207.8783,240.134 L207.8783,239.4023 L199.2034,240.8225 L190.5286,239.8332 L181.8537,240.6756 L173.1789,239.6318 L164.5041,240.134 L164.5041,240.134 L164.4795,240.1095 L162.9438,238.5738 L160.834,236.464 L159.063,234.693 L157.3204,232.9504 L155.3726,231.0026 L155.7949,231.0026 L155.3687,230.0895 L155.664,229.1763 L154.7919,228.2632 L155.6612,227.3501 L155.3726,226.4369 L155.3726,226.4369 L155.6258,226.552 L156.7194,224.0191 L157.9386,221.5433 L158.5738,218.8021 L159.6371,216.2555 L161.0798,213.8812 L160.9493,213.5942 L163.5786,212.7126 L166.0608,211.5076 L168.7562,210.7716 L171.0877,209.2348 L173.6355,208.1741 L173.6355,208.1741 L173.576,208.0105 L176.1862,209.1961 L178.5421,209.6825 L181.0789,210.666 L183.7925,212.1361 L186.1912,212.7398" fill="#00BFFF"/></g><g class="participant participant-head" data-participant="IHM"><text fill="#000000" font-family="sans-serif" font-size="15.98" lengthAdjust="spacing" textLength="31.7521" x="452.96" y="262.4512">IHM</text><path d="M448.8611,213.4087 L449.0743,213.4087 L448.4407,218.8876 L449.0572,224.3664 L449.2666,229.8453 L448.1373,235.3241 L448.8611,240.803 M448.8611,227.1058 L448.8611,227.027 L452.7419,226.6731 L456.6228,226.7167 L460.5036,227.0367 L464.3845,226.4044 L468.2653,227.1058" fill="none" style="stroke:#181818;stroke-width:0.5707;"/><polygon fill="#E2E2F0" points="495.7353,230.4375,493.7275,233.1809,491.3527,237.199,487.9563,239.9069,484.3873,241.3877,481.5416,241.5162,477.8841,239.6643,474.433,238.4544,471.8136,235.998,470.4395,233.1858,469.6247,230.9467,468.8264,228.0219,467.5307,225.5051,468.5264,223.0477,469.3987,220.3559,472.6724,218.227,474.9756,215.4646,477.8264,214.5474,481.2155,213.7574,485.5616,214.2268,487.942,215.3494,490.7096,215.8582,494.0747,219.3059,495.2477,222.9456,495.7574,225.429,495.1801,229.5213" style="stroke:#181818;stroke-width:0.5707;"/></g><g class="participant participant-head" data-participant="ST"><text fill="#000000" font-family="sans-serif" font-size="15.98" lengthAdjust="spacing" textLength="59.2376" x="702.572" y="262.4512">Sistema</text><polygon fill="#E2E2F0" points="749.3878,230.4375,747.3801,233.1809,745.0053,237.199,741.6089,239.9069,738.0399,241.3877,735.1942,241.5162,731.5367,239.6643,728.0856,238.4544,725.4661,235.998,724.0921,233.1858,723.2773,230.9467,722.479,228.0219,721.1832,225.5051,722.1789,223.0477,723.0513,220.3559,726.325,218.227,728.6282,215.4646,731.479,214.5474,734.8681,213.7574,739.2142,214.2268,741.5946,215.3494,744.3622,215.8582,747.7273,219.3059,748.9003,222.9456,749.41,225.429,748.8327,229.5213" style="stroke:#181818;stroke-width:0.5707;"/><polygon fill="#181818" points="731.0493,213.4087,731.1005,213.4701,732.3181,212.1462,733.8358,211.1824,735.2558,210.1013,736.3544,208.6345,737.8979,207.7016,737.8704,207.6906,737.2907,208.7827,736.8493,209.9302,736.5041,211.1162,735.8274,212.1696,735.615,213.4087,735.8106,213.4869,735.849,214.4611,736.4583,215.6636,737.1373,216.894,737.411,217.9623,737.8979,219.1158,737.9145,219.1358,736.5204,217.9651,735.202,216.8852,733.847,215.7615,732.5617,214.7213,731.0493,213.4087" style="stroke:#181818;stroke-width:1.1414;"/></g><g><title>IHM</title><polygon fill="#A9DCDF" points="466.5532,305.6062,466.5532,305.6862,468.8361,305.4486,471.1189,305.6798,473.4018,305.7583,475.6846,305.3348,477.9675,305.6062,477.8788,305.6062,477.4807,316.8406,477.5297,328.075,477.8897,339.3094,477.1783,350.5438,478.5994,361.7782,477.248,373.0126,477.7417,384.2469,478.4605,395.4813,477.8696,406.7157,478.0454,417.9501,477.931,429.1845,478.1712,440.4189,478.2404,451.6533,478.636,462.8876,478.7334,474.122,478.7428,485.3564,478.2581,496.5908,478.4966,507.8252,478.769,519.0596,477.1443,530.294,478.7419,541.5283,477.629,552.7627,478.5768,563.9971,477.4024,575.2315,477.9675,586.4659,477.9675,586.4398,475.6846,586.7481,473.4018,586.4473,471.1189,586.506,468.8361,586.5947,466.5532,586.4659,467.0283,586.4659,466.5487,575.2315,466.881,563.9971,465.8998,552.7627,466.8778,541.5283,467.1789,530.294,467.0606,519.0596,467.2529,507.8252,466.0018,496.5908,465.8088,485.3564,465.8439,474.122,466.486,462.8876,466.3289,451.6533,467.331,440.4189,466.3538,429.1845,466.1616,417.9501,466.8137,406.7157,465.792,395.4813,465.9607,384.2469,467.2939,373.0126,467.0505,361.7782,467.3916,350.5438,466.1859,339.3094,466.9175,328.075,467.2271,316.8406,466.5532,305.6062" style="stroke:#181818;stroke-width:1.1414;"/></g><g><title>IHM</title><polygon fill="#A9DCDF" points="472.2603,362.0065,472.2603,362.0864,474.5432,361.8488,476.826,362.08,479.1089,362.1585,481.3917,361.735,483.6746,362.0065,483.5859,362.0065,483.1878,373.2769,483.2369,384.5474,483.5968,395.8178,482.8855,407.0883,484.3065,418.3587,482.9552,429.6292,483.4489,440.8996,484.1676,452.1701,483.5767,463.4406,483.7525,474.711,483.6381,485.9815,483.8784,497.2519,483.9476,508.5224,483.6746,519.7928,483.6746,520.0157,481.3917,520.0482,479.1089,520.0513,476.826,519.8897,474.5432,519.9692,472.2603,519.7928,473.0619,519.7928,471.4372,508.5224,473.0348,497.2519,471.9219,485.9815,472.8696,474.711,471.6953,463.4406,472.1821,452.1701,473.1068,440.8996,472.2047,429.6292,472.3805,418.3587,472.6469,407.0883,472.7354,395.8178,472.2559,384.5474,472.5882,373.2769,472.2603,362.0065" style="stroke:#181818;stroke-width:1.1414;"/></g><g><title>Sistema</title><polygon fill="#A9DCDF" points="729.9079,278.5476,729.9079,278.6275,732.1908,278.3899,734.4736,278.6211,736.7565,278.6996,739.0393,278.2761,741.3222,278.5476,741.2335,278.5476,740.8354,289.9519,740.8844,301.3563,741.2444,312.7607,740.533,324.1651,741.9541,335.5695,740.6028,346.9739,741.0964,358.3782,741.8152,369.7826,741.2243,381.187,741.4001,392.5914,741.2857,403.9958,741.526,415.4001,741.5951,426.8045,741.9907,438.2089,742.0881,449.6133,742.0975,461.0177,741.6128,472.4221,741.8513,483.8264,742.1237,495.2308,740.499,506.6352,742.0967,518.0396,740.9837,529.444,741.9315,540.8484,740.7571,552.2527,741.244,563.6571,742.1687,575.0615,741.3222,586.4659,741.3222,586.4473,739.0393,586.506,736.7565,586.5947,734.4736,586.6243,732.1908,586.4644,729.9079,586.4659,730.2357,586.4659,729.2545,575.0615,730.2325,563.6571,730.5336,552.2527,730.4153,540.8484,730.6076,529.444,729.3565,518.0396,729.1635,506.6352,729.1986,495.2308,729.8407,483.8264,729.6836,472.4221,730.6857,461.0177,729.7085,449.6133,729.5163,438.2089,730.1685,426.8045,729.1468,415.4001,729.3154,403.9958,730.6486,392.5914,730.4052,381.187,730.7463,369.7826,729.5406,358.3782,730.2723,346.9739,730.5818,335.5695,729.3687,324.1651,729.7985,312.7607,730.0517,301.3563,730.6518,289.9519,729.9079,278.5476" style="stroke:#181818;stroke-width:1.1414;"/></g><g class="message" data-participant-1="IHM" data-participant-2="ST"><polygon fill="#00BFFF" points="716.2108,301.0405,716.2405,301.1148,718.4351,301.8073,720.8038,302.9351,723.1158,303.9211,725.2414,304.4411,727.6251,305.6062,727.6141,305.5788,725.2819,306.3687,723.0052,307.297,720.7669,308.3216,718.396,309.0146,716.2108,310.1719,716.3597,310.3209,716.9544,309.0892,717.9839,308.2925,719.0664,307.5487,719.8403,306.4963,720.7765,305.6062,720.7949,305.6246,719.8548,304.6845,718.9982,303.828,718.1014,302.9311,717.2815,302.1112,716.2108,301.0405" style="stroke:#00BFFF;stroke-width:1.1414;"/><path d="M477.9675,305.6062 L477.9675,305.9261 L489.6385,304.9757 L501.3095,305.9004 L512.9806,306.2145 L524.6516,304.5205 L536.3227,305.488 L547.9937,304.9572 L559.6648,305.0226 L571.3358,305.5025 L583.0068,304.554 L594.6779,306.4488 L606.3489,304.647 L618.02,305.3053 L629.691,306.2636 L641.3621,305.4757 L653.0331,305.7101 L664.7041,305.5576 L676.3752,305.8779 L688.0462,305.9702 L699.7173,306.4976 L711.3883,306.6275 L723.0594,305.6062" fill="none" style="stroke:#00BFFF;stroke-width:1.1414;"/><text fill="#000000" font-family="sans-serif" font-size="14.8385" lengthAdjust="spacing" textLength="99.908" x="485.9575" y="298.9757">Solicita dados.</text></g><g class="message" data-participant-1="OP" data-participant-2="IHM"><polygon fill="#00BFFF" points="458.5632,357.4407,458.5929,357.515,460.7875,358.2075,463.1562,359.3353,465.4682,360.3214,467.5938,360.8413,469.9775,362.0065,469.9665,361.979,467.6344,362.7689,465.3576,363.6973,463.1193,364.7218,460.7484,365.4148,458.5632,366.5722,458.7122,366.7211,459.3068,365.4894,460.3363,364.6927,461.4188,363.9489,462.1927,362.8965,463.1289,362.0065,463.1473,362.0248,462.2072,361.0847,461.3507,360.2282,460.4538,359.3314,459.6339,358.5115,458.5632,357.4407" style="stroke:#00BFFF;stroke-width:1.1414;"/><path d="M186.1912,362.0065 L186.1912,362.3263 L197.8254,361.3759 L209.4595,362.3006 L221.0937,362.6147 L232.7279,360.9207 L244.3621,361.8882 L255.9963,361.3574 L267.6305,361.4228 L279.2647,361.9027 L290.8989,360.9543 L302.5331,362.849 L314.1673,361.0472 L325.8015,361.7055 L337.4357,362.6638 L349.0698,361.8759 L360.704,362.1103 L372.3382,361.9578 L383.9724,362.2782 L395.6066,362.3704 L407.2408,362.8978 L418.875,363.0277 L430.5092,363.0402 L442.1434,362.394 L453.7776,362.712 L465.4118,362.0065" fill="none" style="stroke:#00BFFF;stroke-width:1.1414;"/><text fill="#000000" font-family="sans-serif" font-size="14.8385" lengthAdjust="spacing" textLength="154.8403" x="194.1811" y="335.1658">Navega&#231;&#227;o pelas telas</text><text fill="#000000" font-family="sans-serif" font-size="14.8385" lengthAdjust="spacing" textLength="169.9757" x="198.0392" y="355.3759">de Hist&#243;rico de Alarmes.</text></g><polygon fill="#FEFFDD" points="592.7452,376.845,592.7452,377.0849,604.1138,376.3721,615.4824,377.0656,626.8511,377.3012,638.2197,376.0307,649.5883,376.7563,660.9569,376.3582,672.3255,376.4073,683.6941,376.7672,695.0627,376.0559,706.4313,377.4769,717.7999,376.1256,729.1685,376.6193,740.5372,377.338,751.9058,376.7471,763.2744,376.9229,774.643,376.8085,786.0116,377.0488,797.3802,377.118,808.7488,377.5135,820.1174,377.611,831.486,377.6203,842.8547,377.1356,854.2233,377.3741,865.5919,377.6465,876.9605,376.845,876.6947,376.7768,879.4934,385.8122,881.4169,394.6232,884.0058,403.6048,885.9095,412.4107,888.3747,421.3606,888.3495,421.3542,886.3652,430.3339,883.7911,439.1623,881.565,448.08,879.3681,457.0052,876.9605,465.8763,876.9605,466.3514,865.5919,465.8718,854.2233,466.2041,842.8547,465.2229,831.486,466.2009,820.1174,466.502,808.7488,466.3837,797.3802,466.576,786.0116,465.3249,774.643,465.1319,763.2744,465.167,751.9058,465.8091,740.5372,465.652,729.1685,466.6541,717.7999,465.6769,706.4313,465.4847,695.0627,466.1368,683.6941,465.1151,672.3255,465.2837,660.9569,466.617,649.5883,466.3736,638.2197,466.7147,626.8511,465.509,615.4824,466.2406,604.1138,466.5502,592.7452,465.8763,592.5711,465.8316,590.427,456.9641,588.2259,448.0819,586.1369,439.2285,583.6123,430.2634,581.331,421.3606,581.5014,421.4044,583.4097,412.4052,585.6471,403.4904,588.3651,394.6988,590.1981,385.6804,592.7452,376.845" style="stroke:#181818;stroke-width:0.5707;"/><text fill="#000000" font-family="sans-serif" font-size="14.8385" lengthAdjust="spacing" textLength="163.8177" x="595.0281" y="397.2731">Recupera&#231;&#227;o de Dados:</text><text fill="#000000" font-family="sans-serif" font-size="14.8385" lengthAdjust="spacing" textLength="187.5001" x="598.8861" y="417.4832">1. Consulta log de eventos;</text><text fill="#000000" font-family="sans-serif" font-size="14.8385" lengthAdjust="spacing" textLength="226.7184" x="598.8861" y="437.6934">2. Filtra os &#250;ltimos 100 registros;</text><text fill="#000000" font-family="sans-serif" font-size="14.8385" lengthAdjust="spacing" textLength="276.8133" x="598.8861" y="457.9035">3. Ordena por Data/Hora (Decrescente).</text><g class="message" data-participant-1="ST" data-participant-2="IHM"><polygon fill="#00BFFF" points="490.5232,515.2271,490.5529,515.3014,488.1818,515.9939,485.9848,517.1217,483.7311,518.1077,481.2909,518.6277,479.1089,519.7928,479.0979,519.7654,481.3315,520.5553,483.6204,521.4836,485.9478,522.5082,488.1426,523.2012,490.5232,524.3585,490.6721,524.5075,489.4404,523.2758,488.6437,522.479,487.8999,521.7353,486.8475,520.6829,485.9575,519.7928,485.9758,519.8112,486.862,518.8711,487.8318,518.0146,488.7612,517.1177,489.7676,516.2978,490.5232,515.2271" style="stroke:#00BFFF;stroke-width:1.1414;"/><path d="M483.6746,519.7928 L483.6746,520.1127 L495.3456,519.1623 L507.0167,520.087 L518.6877,520.4011 L530.3588,518.7071 L542.0298,519.6746 L553.7009,519.1438 L565.3719,519.2092 L577.0429,519.6891 L588.714,518.7406 L600.385,520.6354 L612.0561,518.8336 L623.7271,519.4919 L635.3981,520.4502 L647.0692,519.6623 L658.7402,519.8967 L670.4113,519.7442 L682.0823,520.0645 L693.7534,520.1568 L705.4244,520.6842 L717.0954,520.8141 L728.7665,519.7928" fill="none" style="stroke:#00BFFF;stroke-width:1.1414;stroke-dasharray:2.2829,2.2829;"/><text fill="#000000" font-family="sans-serif" font-size="14.8385" lengthAdjust="spacing" textLength="190.4381" x="497.3717" y="492.9522">Retorna a lista estruturada:</text><text fill="#000000" font-family="sans-serif" font-size="14.8385" lengthAdjust="spacing" textLength="214.981" x="501.2297" y="513.1623">{Data/Hora, Descri&#231;&#227;o, Status}.</text></g><g class="message" data-participant-1="IHM" data-participant-2="OP"><polygon fill="#00BFFF" points="198.7469,571.6273,198.7766,571.7016,196.4055,572.3941,194.2085,573.5219,191.9548,574.508,189.5146,575.0279,187.3326,576.193,187.3216,576.1656,189.5552,576.9555,191.8441,577.8839,194.1715,578.9084,196.3663,579.6014,198.7469,580.7588,198.8958,580.9077,197.6641,579.676,196.8674,578.8793,196.1236,578.1355,195.0712,577.0831,194.1811,576.193,194.1995,576.2114,195.0857,575.2713,196.0555,574.4148,196.9849,573.518,197.9913,572.6981,198.7469,571.6273" style="stroke:#00BFFF;stroke-width:1.1414;"/><path d="M191.8983,576.193 L191.8983,576.5129 L203.2947,575.5625 L214.6911,576.4872 L226.0875,576.8013 L237.4839,575.1073 L248.8803,576.0748 L260.2767,575.544 L271.6731,575.6094 L283.0695,576.0893 L294.4658,575.1409 L305.8622,577.0356 L317.2586,575.2338 L328.655,575.8921 L340.0514,576.8504 L351.4478,576.0625 L362.8442,576.2969 L374.2406,576.1444 L385.637,576.4647 L397.0334,576.557 L408.4298,577.0844 L419.8262,577.2143 L431.2226,577.2268 L442.619,576.5806 L454.0154,576.8986 L465.4118,576.193" fill="none" style="stroke:#00BFFF;stroke-width:1.1414;"/><text fill="#000000" font-family="sans-serif" font-size="14.8385" lengthAdjust="spacing" textLength="211.4495" x="205.5954" y="549.3524">Exibe a tabela com as colunas:</text><text fill="#000000" font-family="sans-serif" font-size="14.8385" lengthAdjust="spacing" textLength="249.1098" x="209.4534" y="569.5625">[Data/Hora] | [Descri&#231;&#227;o] | [Status].</text></g><text fill="#1E90FF" font-family="Arial" font-size="15.98" lengthAdjust="spacing" textLength="4.1548" x="34.2428" y="637.7912">&#160;</text><text fill="#1E90FF" font-family="Arial" font-size="15.98" lengthAdjust="spacing" textLength="4.1548" x="34.2428" y="659.5558">&#160;</text><text fill="#1E90FF" font-family="Arial" font-size="15.98" font-weight="bold" lengthAdjust="spacing" textLength="177.2332" x="34.2428" y="681.3205">Casos de Uso cobertos</text><text fill="#1E90FF" font-family="Arial" font-size="15.98" lengthAdjust="spacing" textLength="4.2826" x="211.476" y="681.3205">:</text><text fill="#1E90FF" font-family="Arial" font-size="15.98" lengthAdjust="spacing" textLength="5.1455" x="34.2428" y="703.0851">-</text><text fill="#1E90FF" font-family="Arial" font-size="15.98" font-weight="bold" lengthAdjust="spacing" textLength="66.5723" x="43.5431" y="703.0851">MIO-005</text><text fill="#1E90FF" font-family="Arial" font-size="15.98" lengthAdjust="spacing" textLength="203.0088" x="114.2702" y="703.0851">Hist&#243;rico de Alarmes Local.</text><polygon fill="none" points="31.3892,70.3583,31.3892,70.5982,42.8646,69.8853,54.34,70.5789,65.8155,70.8145,77.2909,69.544,88.7663,70.2696,100.2417,69.8714,111.7171,69.9205,123.1925,70.2805,134.6679,69.5691,146.1433,70.9902,157.6187,69.6388,169.0941,70.1325,180.5695,70.8513,192.0449,70.2603,203.5203,70.4361,214.9957,70.3218,226.4711,70.562,237.9465,70.6312,249.4219,71.0268,260.8973,71.1242,272.3727,71.1336,283.8482,70.6489,295.3236,70.8874,306.799,71.1598,318.2744,69.5351,329.7498,71.1327,341.2252,70.0198,352.7006,70.9676,364.176,69.7932,375.6514,70.2801,387.1268,71.2047,398.6022,70.3026,410.0776,70.4785,421.553,70.7448,433.0284,70.8334,444.5038,70.3538,455.9792,70.6861,467.4546,69.7049,478.93,70.6829,490.4054,70.984,501.8809,70.8657,513.3563,71.058,524.8317,69.8069,536.3071,69.6138,547.7825,69.649,559.2579,70.291,570.7333,70.1339,582.2087,71.136,593.6841,70.1589,605.1595,69.9667,616.6349,70.6188,628.1103,69.5971,639.5857,69.7657,651.0611,71.099,662.5365,70.8555,674.0119,71.1966,685.4873,69.991,696.9627,70.7226,708.4381,71.0322,719.9136,69.819,731.389,70.2488,742.8644,70.5021,754.3398,71.1022,765.8152,70.3535,777.2906,70.8862,788.766,69.7262,800.2414,69.5852,811.7168,70.9331,823.1922,69.5399,834.6676,70.9392,846.143,70.5941,857.6184,70.0524,869.0938,69.9545,880.5692,70.8819,892.0446,70.0166,903.52,71.0338,914.9954,69.7273,926.4708,71.063,937.9463,70.9111,949.4217,70.6379,960.8971,70.4122,972.3725,71.1876,983.8479,71.0586,995.3233,70.3583,995.3479,70.4178,996.573,70.954,997.7256,71.3154,999.0596,72.1145,1000.1885,72.4186,1001.3766,72.8656,1001.4373,72.8908,1001.6642,73.9877,1002.2371,75.228,1003.0676,76.5749,1003.5336,77.7709,1003.884,78.919,1003.835,78.919,1003.5162,90.8446,1003.6341,102.7702,1003.1008,114.6958,1004.3574,126.6214,1003.884,138.5471,1004.1439,138.6547,1003.5675,139.8344,1003.1253,141.0696,1002.3315,142.1592,1001.9087,143.4024,1001.3766,144.6004,1001.3202,144.4641,1000.2073,145.2017,998.9912,145.6901,997.825,146.299,996.5005,146.5256,995.3233,147.1078,995.3233,146.9543,983.8479,147.6139,972.3725,147.7553,960.8971,146.5227,949.4217,146.8865,937.9463,147.2781,926.4708,146.4105,914.9954,147.5111,903.52,147.4022,892.0446,146.9928,880.5692,147.2701,869.0938,147.9395,857.6184,146.7506,846.143,147.4673,834.6676,147.4338,823.1922,147.2399,811.7168,147.2686,800.2414,147.2373,788.766,146.3953,777.2906,146.6503,765.8152,146.581,754.3398,147.1806,742.8644,147.2084,731.389,147.2924,719.9136,146.7756,708.4381,147.0307,696.9627,146.9705,685.4873,147.7662,674.0119,147.5947,662.5365,146.5536,651.0611,147.0245,639.5857,146.4489,628.1103,147.4369,616.6349,147.8023,605.1595,147.7293,593.6841,146.6106,582.2087,147.6373,570.7333,146.2599,559.2579,147.3362,547.7825,146.7661,536.3071,147.2182,524.8317,147.3821,513.3563,147.6466,501.8809,146.286,490.4054,147.6505,478.93,147.3111,467.4546,147.5133,455.9792,147.9613,444.5038,147.114,433.0284,147.3078,421.553,147.3514,410.0776,147.3329,398.6022,147.1068,387.1268,147.919,375.6514,146.4118,364.176,147.753,352.7006,146.3955,341.2252,146.491,329.7498,147.1534,318.2744,147.14,306.799,146.5452,295.3236,147.58,283.8482,147.232,272.3727,147.9372,260.8973,147.8692,249.4219,146.5961,237.9465,146.6536,226.4711,146.9603,214.9957,147.5136,203.5203,147.5677,192.0449,147.4515,180.5695,146.7174,169.0941,147.8341,157.6187,147.8312,146.1433,147.0538,134.6679,146.8349,123.1925,146.6496,111.7171,146.8628,100.2417,147.2646,88.7663,147.0297,77.2909,146.6309,65.8155,147.6641,54.34,146.5839,42.8646,147.6812,31.3892,147.1078,31.4514,147.2579,30.2327,146.737,29.0687,146.3482,27.7214,145.5169,26.5028,144.9962,25.3359,144.6004,25.5183,144.6759,24.6246,143.3028,24.2507,142.145,23.8721,140.9852,23.3542,139.7677,22.8285,138.5471,22.4194,138.5471,22.7795,126.6214,23.6784,114.6958,23.5687,102.7702,22.1479,90.8446,22.8285,78.919,22.8561,78.9304,23.1494,77.6335,23.8222,76.4938,24.4359,75.3296,24.982,74.1374,25.3359,72.8656,25.2391,72.632,26.6049,72.5049,27.7585,71.8656,28.887,71.166,30.11,70.6942,31.3892,70.3583" style="stroke:#000000;stroke-width:1.1414;"/><text fill="#1E90FF" font-family="Arial" font-size="22.8285" font-weight="bold" lengthAdjust="spacing" textLength="935.3984" x="45.6571" y="117.5905">Diagrama de sequ&#234;ncia - M&#243;dulo de Interface e Opera&#231;&#227;o (MIO) - IHM Operacional</text><!--SRC=[dLDDRnCn4BtxLmovf5qbsnJ49GYagadLIBGRDOKBz33PTHDBNZkrlH4K-3680n8IfueBr_rZF6-M1ggUufC_nk_Dl7dpH9bSLuMaqVXabgwgKWl1UR2EEjbAEYwiwn1xogPYRYjJiFj8dSdfMKVarWHdDSsK3xBa63Ix5EAWApBoxTre_7PCx4g-bOOTIP8Vr5mvgafQ8gI-SogtL5XFzMyTL8dDuM10SYrDi5uWBTRuBiamWJGb8MRIrLy9v5uLJNx4GPf2ONDJiOdd64gySj83XYCRKv2Q2NXRsgO0_BGzCfRA-gS1_v1oTggSsnXRSE23fNNuQDkSUhZtkLFrz_fRJ9n4cw0aBoloWKFbQUyeg3LYBoGubZ9NaUJSGWUjRf7oVYgw1q9qN-wqH9SUNHEZScLtHvrALohlwr_I3wC7r1hADZt5YfBsN-4qf9dL80fG1QNuT1kA695DOnXsGphdjLpmHgaLvFTD4pozDr7Sqt_wB-ceKV4XsD9OxEnQkeOOSbRHawtuy6nCO1W13rCwXYKgZRIqNSJ7raGlulFJb4wK3kZaGwivkK0YherxbbBc2dYLLfY0KUp_QUp_taZci5CEH8dcYTabzV-MUI4nBVW1OY0nIS1LeO8rkKdjqprCZqPRy_HerfZb2-0A-L_PhTRPT4XZp0k6W0BFeu5pMyOvowsk36ygVtSFVqMVSTeoDESDoLMwgzj4zzm6KEtwNMYvm91Hi2kH92F52yTbCubUtbJr3vChfZwTrNT5fPkcJg2nk-OypbIsRVVUsIJRHsGKfxc6rmth914HViCYnBM5OnpycYJ7xD5Z0Bxn5ehDfOCRacGe098aGEiF1i-Jv74ZqckRiquRx7lCFm00]--></g></svg>