<svg xmlns="http://www.w3.org/2000/svg" xmlns:xlink="http://www.w3.org/1999/xlink" contentStyleType="text/css" data-diagram-type="SEQUENCE" height="750.1661px" preserveAspectRatio="none" style="width:808px;height:750px;background:#EEEBDC;" version="1.1" viewBox="0 0 808 750" width="808.006px" zoomAndPan="magnify"><defs/><g><rect fill="#EEEBDC" height="750.1661" style="stroke:none;stroke-width:0.8764;" width="808.006" x="0" y="0"/><rect fill="#FFFFCC" height="23.3468" rx="2.1909" ry="2.1909" style="stroke:#FFDD88;stroke-width:2.6291;" width="798.8036" x="4.3818" y="4.3818"/><text fill="#000000" font-family="monospace" font-size="8.7636" lengthAdjust="spacing" textLength="311.2926" x="8.7636" y="17.5272">Please&#160;use&#160;'!option&#160;handwritten&#160;true'&#160;to&#160;enable&#160;handwritten</text><g><title>IHM</title><polygon fill="#A9DCDF" points="312.3677,213.8627,312.3677,213.9241,314.1204,213.7416,315.8732,213.9191,317.6259,213.9794,319.3786,213.6543,321.1313,213.8627,321.0632,213.8627,320.7576,222.5112,320.7952,231.1597,321.0716,239.8083,320.5254,248.4568,321.6165,257.1053,320.579,265.7539,320.958,274.4024,321.5099,283.0509,321.0562,291.6995,321.1911,300.348,321.1033,308.9965,321.2878,317.6451,321.3409,326.2936,321.6446,334.9421,321.7194,343.5907,321.7266,352.2392,321.3545,360.8877,321.5376,369.5363,321.7467,378.1848,320.4993,386.8333,321.726,395.4819,320.8715,404.1304,321.5991,412.7789,320.6975,421.4275,321.0713,430.076,321.7812,438.7245,321.0886,447.373,321.2236,456.0216,321.4281,464.6701,321.1313,473.3186,321.1313,473.4402,319.3786,473.3175,317.6259,473.4025,315.8732,473.1514,314.1204,473.4017,312.3677,473.3186,312.8481,473.3186,312.7573,464.6701,312.9049,456.0216,311.9444,447.373,311.7962,438.7245,311.8231,430.076,312.3161,421.4275,312.1955,412.7789,312.9649,404.1304,312.2146,395.4819,312.0671,386.8333,312.5678,378.1848,311.7833,369.5363,311.9128,360.8877,312.9364,352.2392,312.7495,343.5907,313.0114,334.9421,312.0857,326.2936,312.6474,317.6451,312.8851,308.9965,311.9537,300.348,312.2837,291.6995,312.4781,283.0509,312.9389,274.4024,312.364,265.7539,312.7731,257.1053,311.8824,248.4568,311.7742,239.8083,312.8091,231.1597,311.7394,222.5112,312.3677,213.8627" style="stroke:#A9DCDF;stroke-width:0.8764;"/><path d="M312.3677,213.8627 L312.6133,213.8627 L311.8836,222.5112 L312.5936,231.1597 L312.8347,239.8083 L311.5341,248.4568 L312.2769,257.1053 L311.8694,265.7539 L311.9196,274.4024 L312.2881,283.0509 L311.5599,291.6995 L313.0146,300.348 L311.6312,308.9965 L312.1366,317.6451 L312.8724,326.2936 L312.2675,334.9421 L312.4474,343.5907 L312.3304,352.2392 L312.5763,360.8877 L312.6471,369.5363 L313.0521,378.1848 L313.1518,386.8333 L313.1614,395.4819 L312.6652,404.1304 L312.9094,412.7789 L313.1883,421.4275 L311.525,430.076 L313.1605,438.7245 L312.0212,447.373 L312.9915,456.0216 L311.7893,464.6701 L312.3677,473.3186" fill="none" style="stroke:#181818;stroke-width:0.8764;"/><path d="M321.1313,213.8627 L321.3769,213.8627 L320.6472,222.5112 L321.3572,231.1597 L321.5983,239.8083 L320.2977,248.4568 L321.0405,257.1053 L320.633,265.7539 L320.6832,274.4024 L321.0517,283.0509 L320.3235,291.6995 L321.7782,300.348 L320.3949,308.9965 L320.9002,317.6451 L321.6361,326.2936 L321.0311,334.9421 L321.2111,343.5907 L321.094,352.2392 L321.3399,360.8877 L321.4108,369.5363 L321.8157,378.1848 L321.9154,386.8333 L321.925,395.4819 L321.4289,404.1304 L321.673,412.7789 L321.9519,421.4275 L320.2886,430.076 L321.9242,438.7245 L320.7849,447.373 L321.7551,456.0216 L320.5529,464.6701 L321.1313,473.3186" fill="none" style="stroke:#181818;stroke-width:0.8764;"/><path d="M312.3677,213.8627 L312.3677,213.9445 L314.1204,213.7013 L315.8732,213.938 L317.6259,214.0183 L319.3786,213.5848 L321.1313,213.8627" fill="none" style="stroke:#181818;stroke-width:0.8764;"/></g><g><title>IHM</title><polygon fill="#A9DCDF" points="312.3677,510.9864,312.3677,511.0477,314.1204,510.8653,315.8732,511.0428,317.6259,511.1031,319.3786,510.778,321.1313,510.9864,321.0632,510.9864,320.7576,519.6641,320.7952,528.3418,321.0716,537.0196,320.5254,545.6973,321.6165,554.3751,320.579,563.0528,320.958,571.7306,321.5099,580.4083,321.0562,589.086,321.1911,597.7638,321.1033,606.4415,321.2878,615.1193,321.3409,623.797,321.6446,632.4748,321.1313,641.1525,321.1313,641.3485,319.3786,641.3509,317.6259,641.2269,315.8732,641.2879,314.1204,641.3577,312.3677,641.1525,311.7357,641.1525,312.9623,632.4748,312.1079,623.797,312.8355,615.1193,311.9339,606.4415,312.3077,597.7638,313.0176,589.086,312.325,580.4083,312.46,571.7306,312.6645,563.0528,312.7325,554.3751,312.3643,545.6973,312.6194,537.0196,311.8661,528.3418,312.6169,519.6641,312.3677,510.9864" style="stroke:#A9DCDF;stroke-width:0.8764;"/><path d="M312.3677,510.9864 L312.6133,510.9864 L311.8836,519.6641 L312.5936,528.3418 L312.8347,537.0196 L311.5341,545.6973 L312.2769,554.3751 L311.8694,563.0528 L311.9196,571.7306 L312.2881,580.4083 L311.5599,589.086 L313.0146,597.7638 L311.6312,606.4415 L312.1366,615.1193 L312.8724,623.797 L312.2675,632.4748 L312.3677,641.1525" fill="none" style="stroke:#181818;stroke-width:0.8764;"/><path d="M321.1313,510.9864 L321.3769,510.9864 L320.6472,519.6641 L321.3572,528.3418 L321.5983,537.0196 L320.2977,545.6973 L321.0405,554.3751 L320.633,563.0528 L320.6832,571.7306 L321.0517,580.4083 L320.3235,589.086 L321.7782,597.7638 L320.3949,606.4415 L320.9002,615.1193 L321.6361,623.797 L321.0311,632.4748 L321.1313,641.1525" fill="none" style="stroke:#181818;stroke-width:0.8764;"/><path d="M312.3677,641.1525 L312.3677,641.2344 L314.1204,640.9911 L315.8732,641.2278 L317.6259,641.3082 L319.3786,640.8747 L321.1313,641.1525" fill="none" style="stroke:#181818;stroke-width:0.8764;"/></g><g><title>IHM</title><polygon fill="#A9DCDF" points="316.7495,438.5218,316.7495,438.5832,318.5022,438.4008,320.255,438.5783,322.0077,438.6385,323.7604,438.3134,325.5131,438.5218,325.4904,438.5218,325.3886,444.079,325.4011,449.6362,325.4932,455.1934,325.3112,460.7506,325.5131,466.3077,325.5131,466.4695,323.7604,466.1236,322.0077,466.25,320.255,466.4339,318.5022,466.2827,316.7495,466.3077,316.7695,466.3077,316.7402,460.7506,316.8017,455.1934,316.8194,449.6362,316.9206,444.079,316.7495,438.5218" style="stroke:#181818;stroke-width:0.8764;"/></g><g><title>Sistema</title><polygon fill="#A9DCDF" points="530.0642,213.8627,530.0642,213.9241,531.8169,213.7416,533.5696,213.9191,535.3223,213.9794,537.0751,213.6543,538.8278,213.8627,538.7597,213.8627,538.454,222.5112,538.4917,231.1597,538.7681,239.8083,538.2219,248.4568,539.313,257.1053,538.2754,265.7539,538.6545,274.4024,539.2063,283.0509,538.7526,291.6995,538.8876,300.348,538.7998,308.9965,538.9842,317.6451,539.0374,326.2936,539.3411,334.9421,539.4159,343.5907,539.4231,352.2392,539.0509,360.8877,539.2341,369.5363,539.4432,378.1848,538.1958,386.8333,539.4224,395.4819,538.568,404.1304,539.2956,412.7789,538.394,421.4275,538.7678,430.076,539.4777,438.7245,538.7851,447.373,538.9201,456.0216,539.1246,464.6701,538.8278,473.3186,538.8278,473.4402,537.0751,473.3175,535.3223,473.4025,533.5696,473.1514,531.8169,473.4017,530.0642,473.3186,530.5446,473.3186,530.4537,464.6701,530.6014,456.0216,529.6408,447.373,529.4926,438.7245,529.5196,430.076,530.0126,421.4275,529.8919,412.7789,530.6613,404.1304,529.9111,395.4819,529.7635,386.8333,530.2642,378.1848,529.4798,369.5363,529.6092,360.8877,530.6329,352.2392,530.446,343.5907,530.7079,334.9421,529.7822,326.2936,530.3439,317.6451,530.5816,308.9965,529.6502,300.348,529.9802,291.6995,530.1746,283.0509,530.6354,274.4024,530.0605,265.7539,530.4696,257.1053,529.5789,248.4568,529.4707,239.8083,530.5055,231.1597,529.4359,222.5112,530.0642,213.8627" style="stroke:#A9DCDF;stroke-width:0.8764;"/><path d="M530.0642,213.8627 L530.3098,213.8627 L529.58,222.5112 L530.29,231.1597 L530.5312,239.8083 L529.2306,248.4568 L529.9734,257.1053 L529.5658,265.7539 L529.6161,274.4024 L529.9845,283.0509 L529.2563,291.6995 L530.7111,300.348 L529.3277,308.9965 L529.8331,317.6451 L530.5689,326.2936 L529.9639,334.9421 L530.1439,343.5907 L530.0268,352.2392 L530.2728,360.8877 L530.3436,369.5363 L530.7485,378.1848 L530.8483,386.8333 L530.8579,395.4819 L530.3617,404.1304 L530.6059,412.7789 L530.8847,421.4275 L529.2215,430.076 L530.857,438.7245 L529.7177,447.373 L530.6879,456.0216 L529.4857,464.6701 L530.0642,473.3186" fill="none" style="stroke:#181818;stroke-width:0.8764;"/><path d="M538.8278,213.8627 L539.0734,213.8627 L538.3437,222.5112 L539.0536,231.1597 L539.2948,239.8083 L537.9942,248.4568 L538.737,257.1053 L538.3294,265.7539 L538.3797,274.4024 L538.7482,283.0509 L538.0199,291.6995 L539.4747,300.348 L538.0913,308.9965 L538.5967,317.6451 L539.3325,326.2936 L538.7276,334.9421 L538.9075,343.5907 L538.7905,352.2392 L539.0364,360.8877 L539.1072,369.5363 L539.5122,378.1848 L539.6119,386.8333 L539.6215,395.4819 L539.1253,404.1304 L539.3695,412.7789 L539.6483,421.4275 L537.9851,430.076 L539.6206,438.7245 L538.4813,447.373 L539.4515,456.0216 L538.2494,464.6701 L538.8278,473.3186" fill="none" style="stroke:#181818;stroke-width:0.8764;"/><path d="M530.0642,213.8627 L530.0642,213.9445 L531.8169,213.7013 L533.5696,213.938 L535.3223,214.0183 L537.0751,213.5848 L538.8278,213.8627" fill="none" style="stroke:#181818;stroke-width:0.8764;"/></g><g><title>Sistema</title><polygon fill="#A9DCDF" points="530.0642,510.9864,530.0642,511.0477,531.8169,510.8653,533.5696,511.0428,535.3223,511.1031,537.0751,510.778,538.8278,510.9864,538.7597,510.9864,538.454,519.6641,538.4917,528.3418,538.7681,537.0196,538.2219,545.6973,539.313,554.3751,538.2754,563.0528,538.6545,571.7306,539.2063,580.4083,538.7526,589.086,538.8876,597.7638,538.7998,606.4415,538.9842,615.1193,539.0374,623.797,539.3411,632.4748,538.8278,641.1525,538.8278,641.3485,537.0751,641.3509,535.3223,641.2269,533.5696,641.2879,531.8169,641.3577,530.0642,641.1525,529.4322,641.1525,530.6588,632.4748,529.8043,623.797,530.532,615.1193,529.6304,606.4415,530.0041,597.7638,530.7141,589.086,530.0215,580.4083,530.1565,571.7306,530.3609,563.0528,530.4289,554.3751,530.0607,545.6973,530.3159,537.0196,529.5625,528.3418,530.3134,519.6641,530.0642,510.9864" style="stroke:#A9DCDF;stroke-width:0.8764;"/><path d="M530.0642,510.9864 L530.3098,510.9864 L529.58,519.6641 L530.29,528.3418 L530.5312,537.0196 L529.2306,545.6973 L529.9734,554.3751 L529.5658,563.0528 L529.6161,571.7306 L529.9845,580.4083 L529.2563,589.086 L530.7111,597.7638 L529.3277,606.4415 L529.8331,615.1193 L530.5689,623.797 L529.9639,632.4748 L530.0642,641.1525" fill="none" style="stroke:#181818;stroke-width:0.8764;"/><path d="M538.8278,510.9864 L539.0734,510.9864 L538.3437,519.6641 L539.0536,528.3418 L539.2948,537.0196 L537.9942,545.6973 L538.737,554.3751 L538.3294,563.0528 L538.3797,571.7306 L538.7482,580.4083 L538.0199,589.086 L539.4747,597.7638 L538.0913,606.4415 L538.5967,615.1193 L539.3325,623.797 L538.7276,632.4748 L538.8278,641.1525" fill="none" style="stroke:#181818;stroke-width:0.8764;"/><path d="M530.0642,641.1525 L530.0642,641.2344 L531.8169,640.9911 L533.5696,641.2278 L535.3223,641.3082 L537.0751,640.8747 L538.8278,641.1525" fill="none" style="stroke:#181818;stroke-width:0.8764;"/></g><g><title>Operador</title><polygon fill="#000000" fill-opacity="0.00000" points="112.7007,205.0991,112.7007,205.1605,114.1029,204.978,115.5051,205.1555,116.9072,205.2158,118.3094,204.8907,119.7116,205.0991,119.6435,205.0991,119.3378,213.7513,119.3755,222.4035,119.6519,231.0558,119.1057,239.708,120.1968,248.3603,119.1592,257.0125,119.5383,265.6648,120.0901,274.317,119.6364,282.9693,119.7714,291.6215,119.6836,300.2737,119.868,308.926,119.9212,317.5782,120.2249,326.2305,120.2997,334.8827,120.3069,343.535,119.9347,352.1872,120.1179,360.8395,120.327,369.4917,119.0796,378.144,120.3062,386.7962,119.4517,395.4484,120.1794,404.1007,119.2778,412.7529,119.6516,421.4052,120.3615,430.0574,119.6689,438.7097,119.8039,447.3619,120.0084,456.0142,120.0764,464.6664,119.7116,473.3186,119.7116,473.3175,118.3094,473.4025,116.9072,473.1514,115.5051,473.4017,114.1029,473.4788,112.7007,473.3186,113.0903,473.3186,113.2379,464.6664,112.2773,456.0142,112.1291,447.3619,112.1561,438.7097,112.6491,430.0574,112.5285,421.4052,113.2979,412.7529,112.5476,404.1007,112.4001,395.4484,112.9007,386.7962,112.1163,378.144,112.2458,369.4917,113.2694,360.8395,113.0825,352.1872,113.3444,343.535,112.4187,334.8827,112.9804,326.2305,113.2181,317.5782,112.2867,308.926,112.6167,300.2737,112.8111,291.6215,113.2719,282.9693,112.697,274.317,113.1061,265.6648,112.2154,257.0125,112.1072,248.3603,113.142,239.708,112.0724,231.0558,113.1467,222.4035,112.8818,213.7513,112.7007,205.0991"/><path d="M115.4881,205.0991 L115.7336,205.0991 L115.0039,213.7513 L115.7139,222.4035 L115.9551,231.0558 L114.6545,239.708 L115.3972,248.3603 L114.9897,257.0125 L115.0399,265.6648 L115.4084,274.317 L114.6802,282.9693 L116.135,291.6215 L114.7516,300.2737 L115.257,308.926 L115.9928,317.5782 L115.3878,326.2305 L115.5678,334.8827 L115.4507,343.535 L115.6967,352.1872 L115.7675,360.8395 L116.1724,369.4917 L116.2722,378.144 L116.2818,386.7962 L115.7856,395.4484 L116.0297,404.1007 L116.3086,412.7529 L114.6454,421.4052 L116.2809,430.0574 L115.1416,438.7097 L116.1118,447.3619 L114.9096,456.0142 L115.408,464.6664 L115.4881,473.3186" fill="none" style="stroke:#0000FF;stroke-width:0.4382;stroke-dasharray:4.3818,4.3818;"/></g><path d="M115.4881,473.3186 L115.5699,473.3186 L115.3267,480.8522 L115.5633,488.3857 L115.6437,495.9193 L115.2102,503.4528 L115.4881,510.9864" fill="none" style="stroke:#0000FF;stroke-width:0.4382;stroke-dasharray:0.8764,3.5054;"/><g><title>Operador</title><polygon fill="#000000" fill-opacity="0.00000" points="112.7007,510.9864,112.7007,511.0477,114.1029,510.8653,115.5051,511.0428,116.9072,511.1031,118.3094,510.778,119.7116,510.9864,119.6435,510.9864,119.3378,519.6147,119.3755,528.243,119.6519,536.8714,119.1057,545.4997,120.1968,554.128,119.1592,562.7564,119.5383,571.3847,120.0901,580.0131,119.6364,588.6414,119.7714,597.2697,119.6836,605.8981,119.868,614.5264,119.9212,623.1548,120.2249,631.7831,120.2997,640.4114,119.7116,649.0398,119.7116,649.2382,118.3094,649.1142,116.9072,649.1752,115.5051,649.2449,114.1029,648.8291,112.7007,649.0398,113.2953,649.0398,112.4408,640.4114,113.1685,631.7831,112.2669,623.1548,112.6407,614.5264,113.3506,605.8981,112.658,597.2697,112.793,588.6414,112.9975,580.0131,113.0655,571.3847,112.6973,562.7564,112.9524,554.128,112.199,545.4997,112.9499,536.8714,113.1811,528.243,113.0903,519.6147,112.7007,510.9864"/><path d="M115.4881,510.9864 L115.7336,510.9864 L115.0039,519.6147 L115.7139,528.243 L115.9551,536.8714 L114.6545,545.4997 L115.3972,554.128 L114.9897,562.7564 L115.0399,571.3847 L115.4084,580.0131 L114.6802,588.6414 L116.135,597.2697 L114.7516,605.8981 L115.257,614.5264 L115.9928,623.1548 L115.3878,631.7831 L115.5678,640.4114 L115.4881,649.0398" fill="none" style="stroke:#0000FF;stroke-width:0.4382;stroke-dasharray:4.3818,4.3818;"/></g><g><title>IHM</title><polygon fill="#000000" fill-opacity="0.00000" points="313.2441,205.0991,313.2441,205.1605,314.6462,204.978,316.0484,205.1555,317.4506,205.2158,318.8528,204.8907,320.255,205.0991,320.1869,205.0991,319.8812,213.7513,319.9189,222.4035,320.1952,231.0558,319.6491,239.708,320.7402,248.3603,319.7026,257.0125,320.0817,265.6648,320.6335,274.317,320.1798,282.9693,320.3148,291.6215,320.227,300.2737,320.4114,308.926,320.4645,317.5782,320.7682,326.2305,320.8431,334.8827,320.8502,343.535,320.4781,352.1872,320.6612,360.8395,320.8704,369.4917,319.6229,378.144,320.8496,386.7962,319.9951,395.4484,320.7228,404.1007,319.8211,412.7529,320.1949,421.4052,320.9049,430.0574,320.2123,438.7097,320.3472,447.3619,320.5517,456.0142,320.6197,464.6664,320.255,473.3186,320.255,473.3175,318.8528,473.4025,317.4506,473.1514,316.0484,473.4017,314.6462,473.4788,313.2441,473.3186,313.6336,473.3186,313.7813,464.6664,312.8207,456.0142,312.6725,447.3619,312.6995,438.7097,313.1925,430.0574,313.0718,421.4052,313.8412,412.7529,313.091,404.1007,312.9434,395.4484,313.4441,386.7962,312.6597,378.144,312.7891,369.4917,313.8128,360.8395,313.6259,352.1872,313.8877,343.535,312.9621,334.8827,313.5238,326.2305,313.7615,317.5782,312.8301,308.926,313.1601,300.2737,313.3545,291.6215,313.8152,282.9693,313.2404,274.317,313.6494,265.6648,312.7588,257.0125,312.6505,248.3603,313.6854,239.708,312.6158,231.0558,313.6901,222.4035,313.4251,213.7513,313.2441,205.0991"/><path d="M316.3113,205.0991 L316.5569,205.0991 L315.8272,213.7513 L316.5372,222.4035 L316.7784,231.0558 L315.4777,239.708 L316.2205,248.3603 L315.813,257.0125 L315.8632,265.6648 L316.2317,274.317 L315.5035,282.9693 L316.9583,291.6215 L315.5749,300.2737 L316.0802,308.926 L316.8161,317.5782 L316.2111,326.2305 L316.3911,334.8827 L316.274,343.535 L316.5199,352.1872 L316.5908,360.8395 L316.9957,369.4917 L317.0955,378.144 L317.105,386.7962 L316.6089,395.4484 L316.853,404.1007 L317.1319,412.7529 L315.4686,421.4052 L317.1042,430.0574 L315.9649,438.7097 L316.9351,447.3619 L315.7329,456.0142 L316.2313,464.6664 L316.3113,473.3186" fill="none" style="stroke:#0000FF;stroke-width:0.4382;stroke-dasharray:4.3818,4.3818;"/></g><path d="M316.3113,473.3186 L316.3932,473.3186 L316.15,480.8522 L316.3866,488.3857 L316.467,495.9193 L316.0335,503.4528 L316.3113,510.9864" fill="none" style="stroke:#0000FF;stroke-width:0.4382;stroke-dasharray:0.8764,3.5054;"/><g><title>IHM</title><polygon fill="#000000" fill-opacity="0.00000" points="313.2441,510.9864,313.2441,511.0477,314.6462,510.8653,316.0484,511.0428,317.4506,511.1031,318.8528,510.778,320.255,510.9864,320.1869,510.9864,319.8812,519.6147,319.9189,528.243,320.1952,536.8714,319.6491,545.4997,320.7402,554.128,319.7026,562.7564,320.0817,571.3847,320.6335,580.0131,320.1798,588.6414,320.3148,597.2697,320.227,605.8981,320.4114,614.5264,320.4645,623.1548,320.7682,631.7831,320.8431,640.4114,320.255,649.0398,320.255,649.2382,318.8528,649.1142,317.4506,649.1752,316.0484,649.2449,314.6462,648.8291,313.2441,649.0398,313.8387,649.0398,312.9842,640.4114,313.7119,631.7831,312.8102,623.1548,313.184,614.5264,313.894,605.8981,313.2014,597.2697,313.3364,588.6414,313.5408,580.0131,313.6088,571.3847,313.2406,562.7564,313.4958,554.128,312.7424,545.4997,313.4933,536.8714,313.7245,528.243,313.6336,519.6147,313.2441,510.9864"/><path d="M316.3113,510.9864 L316.5569,510.9864 L315.8272,519.6147 L316.5372,528.243 L316.7784,536.8714 L315.4777,545.4997 L316.2205,554.128 L315.813,562.7564 L315.8632,571.3847 L316.2317,580.0131 L315.5035,588.6414 L316.9583,597.2697 L315.5749,605.8981 L316.0802,614.5264 L316.8161,623.1548 L316.2111,631.7831 L316.3911,640.4114 L316.3113,649.0398" fill="none" style="stroke:#0000FF;stroke-width:0.4382;stroke-dasharray:4.3818,4.3818;"/></g><g><title>Sistema</title><polygon fill="#000000" fill-opacity="0.00000" points="530.9405,205.0991,530.9405,205.1605,532.3427,204.978,533.7449,205.1555,535.1471,205.2158,536.5493,204.8907,537.9514,205.0991,537.8833,205.0991,537.5777,213.7513,537.6153,222.4035,537.8917,231.0558,537.3455,239.708,538.4366,248.3603,537.3991,257.0125,537.7781,265.6648,538.33,274.317,537.8763,282.9693,538.0112,291.6215,537.9234,300.2737,538.1079,308.926,538.161,317.5782,538.4647,326.2305,538.5395,334.8827,538.5467,343.535,538.1746,352.1872,538.3577,360.8395,538.5668,369.4917,537.3194,378.144,538.5461,386.7962,537.6916,395.4484,538.4192,404.1007,537.5176,412.7529,537.8914,421.4052,538.6013,430.0574,537.9087,438.7097,538.0437,447.3619,538.2482,456.0142,538.3162,464.6664,537.9514,473.3186,537.9514,473.3175,536.5493,473.4025,535.1471,473.1514,533.7449,473.4017,532.3427,473.4788,530.9405,473.3186,531.3301,473.3186,531.4778,464.6664,530.5172,456.0142,530.369,447.3619,530.396,438.7097,530.8889,430.0574,530.7683,421.4052,531.5377,412.7529,530.7875,404.1007,530.6399,395.4484,531.1406,386.7962,530.3561,378.144,530.4856,369.4917,531.5093,360.8395,531.3223,352.1872,531.5842,343.535,530.6585,334.8827,531.2203,326.2305,531.458,317.5782,530.5265,308.926,530.8565,300.2737,531.0509,291.6215,531.5117,282.9693,530.9369,274.317,531.3459,265.6648,530.4552,257.0125,530.347,248.3603,531.3819,239.708,530.3122,231.0558,531.3866,222.4035,531.1216,213.7513,530.9405,205.0991"/><path d="M533.6144,205.0991 L533.86,205.0991 L533.1303,213.7513 L533.8403,222.4035 L534.0814,231.0558 L532.7808,239.708 L533.5236,248.3603 L533.116,257.0125 L533.1663,265.6648 L533.5348,274.317 L532.8065,282.9693 L534.2613,291.6215 L532.8779,300.2737 L533.3833,308.926 L534.1191,317.5782 L533.5142,326.2305 L533.6941,334.8827 L533.5771,343.535 L533.823,352.1872 L533.8938,360.8395 L534.2988,369.4917 L534.3985,378.144 L534.4081,386.7962 L533.9119,395.4484 L534.1561,404.1007 L534.4349,412.7529 L532.7717,421.4052 L534.4072,430.0574 L533.2679,438.7097 L534.2381,447.3619 L533.036,456.0142 L533.5344,464.6664 L533.6144,473.3186" fill="none" style="stroke:#0000FF;stroke-width:0.4382;stroke-dasharray:4.3818,4.3818;"/></g><path d="M533.6144,473.3186 L533.6963,473.3186 L533.453,480.8522 L533.6897,488.3857 L533.7701,495.9193 L533.3365,503.4528 L533.6144,510.9864" fill="none" style="stroke:#0000FF;stroke-width:0.4382;stroke-dasharray:0.8764,3.5054;"/><g><title>Sistema</title><polygon fill="#000000" fill-opacity="0.00000" points="530.9405,510.9864,530.9405,511.0477,532.3427,510.8653,533.7449,511.0428,535.1471,511.1031,536.5493,510.778,537.9514,510.9864,537.8833,510.9864,537.5777,519.6147,537.6153,528.243,537.8917,536.8714,537.3455,545.4997,538.4366,554.128,537.3991,562.7564,537.7781,571.3847,538.33,580.0131,537.8763,588.6414,538.0112,597.2697,537.9234,605.8981,538.1079,614.5264,538.161,623.1548,538.4647,631.7831,538.5395,640.4114,537.9514,649.0398,537.9514,649.2382,536.5493,649.1142,535.1471,649.1752,533.7449,649.2449,532.3427,648.8291,530.9405,649.0398,531.5352,649.0398,530.6807,640.4114,531.4083,631.7831,530.5067,623.1548,530.8805,614.5264,531.5905,605.8981,530.8978,597.2697,531.0328,588.6414,531.2373,580.0131,531.3053,571.3847,530.9371,562.7564,531.1922,554.128,530.4389,545.4997,531.1898,536.8714,531.421,528.243,531.3301,519.6147,530.9405,510.9864"/><path d="M533.6144,510.9864 L533.86,510.9864 L533.1303,519.6147 L533.8403,528.243 L534.0814,536.8714 L532.7808,545.4997 L533.5236,554.128 L533.116,562.7564 L533.1663,571.3847 L533.5348,580.0131 L532.8065,588.6414 L534.2613,597.2697 L532.8779,605.8981 L533.3833,614.5264 L534.1191,623.1548 L533.5142,631.7831 L533.6941,640.4114 L533.6144,649.0398" fill="none" style="stroke:#0000FF;stroke-width:0.4382;stroke-dasharray:4.3818,4.3818;"/></g><g class="participant participant-head" data-participant="OP"><text fill="#1E90FF" font-family="Aapex" font-size="14.8982" lengthAdjust="spacing" textLength="68.0397" x="79.5572" y="200.7339">Operador</text><polygon fill="#00BFFF" points="130.3054,149.2203,128.25,152.0287,125.819,156.1421,122.3421,158.9142,118.6885,160.4301,115.7753,160.5617,112.0311,158.6658,108.4982,157.4273,105.8167,154.9126,104.4101,152.0338,103.5759,149.7416,102.7587,146.7475,101.4323,144.171,102.4515,141.6554,103.3446,138.8998,106.6959,136.7203,109.0537,133.8926,111.9721,132.9535,115.4415,132.1449,119.8906,132.6253,122.3274,133.7746,125.1606,134.2955,128.6055,137.8249,129.8063,141.5508,130.3281,144.0931,129.7371,148.2825" style="stroke:#00BFFF;stroke-width:0.4382;"/><path d="M116.2061,163.3369 L116.2061,163.3369 L116.2341,163.4139 L118.079,162.4842 L120.0879,162.0055 L122.0433,161.38 L123.8232,160.2714 L125.8461,159.8315 L125.8461,159.8315 L125.8336,159.8039 L127.7054,160.5566 L129.6403,161.4482 L131.6191,162.4364 L133.4467,163.0918 L135.4861,164.2133 L135.6824,164.3025 L136.139,166.0397 L137.1687,168.0374 L138.2684,170.0669 L138.9611,171.9115 L139.8679,173.8533 L139.9211,173.8533 L139.843,174.5544 L140.007,175.2555 L140.0542,175.9565 L140.3242,176.6576 L139.8679,177.3587 L139.8679,177.3587 L140.0527,177.5435 L138.6528,178.948 L137.1337,180.2332 L135.7891,181.6929 L134.4526,183.1609 L132.857,184.3696 L132.857,183.8078 L126.1967,184.8982 L119.5363,184.1387 L112.876,184.7855 L106.2156,183.984 L99.5553,184.3696 L99.5553,184.3696 L99.5364,184.3508 L98.3573,183.1717 L96.7375,181.5518 L95.3777,180.1921 L94.0398,178.8542 L92.5444,177.3587 L92.8686,177.3587 L92.5413,176.6576 L92.7681,175.9565 L92.0985,175.2555 L92.7659,174.5544 L92.5444,173.8533 L92.5444,173.8533 L92.7387,173.9416 L93.5783,171.9969 L94.5145,170.0961 L95.0022,167.9914 L95.8186,166.0362 L96.9262,164.2133 L96.826,163.993 L98.8447,163.3161 L100.7505,162.3909 L102.82,161.8258 L104.61,160.6459 L106.5662,159.8315 L106.5662,159.8315 L106.5205,159.7059 L108.5245,160.6161 L110.3334,160.9896 L112.281,161.7447 L114.3645,162.8734 L116.2061,163.3369" fill="#00BFFF"/></g><g class="participant participant-head" data-participant="IHM"><text fill="#000000" font-family="sans-serif" font-size="12.2691" lengthAdjust="spacing" textLength="24.3786" x="301.9312" y="201.5042">IHM</text><path d="M298.7841,163.8505 L298.9478,163.8505 L298.4613,168.057 L298.9347,172.2636 L299.0954,176.4701 L298.2284,180.6767 L298.7841,184.8832 M298.7841,174.3669 L298.7841,174.3063 L301.7637,174.0346 L304.7434,174.0681 L307.723,174.3138 L310.7026,173.8283 L313.6822,174.3669" fill="none" style="stroke:#181818;stroke-width:0.4382;"/><polygon fill="#E2E2F0" points="334.773,176.9248,333.2315,179.0311,331.4082,182.1162,328.8006,184.1952,326.0604,185.3322,323.8755,185.4308,321.0673,184.009,318.4176,183.08,316.4065,181.194,315.3515,179.0349,314.7259,177.3158,314.113,175.0702,313.1182,173.1378,313.8827,171.2511,314.5524,169.1844,317.0659,167.5498,318.8343,165.429,321.023,164.7247,323.6251,164.1182,326.9619,164.4786,328.7895,165.3405,330.9144,165.7312,333.4981,168.3783,334.3987,171.1727,334.7901,173.0794,334.3468,176.2214" style="stroke:#181818;stroke-width:0.4382;"/></g><g class="participant participant-head" data-participant="ST"><text fill="#000000" font-family="sans-serif" font-size="12.2691" lengthAdjust="spacing" textLength="45.4813" x="509.0763" y="201.5042">Sistema</text><polygon fill="#E2E2F0" points="545.0204,176.9248,543.4789,179.0311,541.6556,182.1162,539.048,184.1952,536.3077,185.3322,534.1229,185.4308,531.3147,184.009,528.665,183.08,526.6539,181.194,525.5989,179.0349,524.9733,177.3158,524.3604,175.0702,523.3656,173.1378,524.13,171.2511,524.7998,169.1844,527.3133,167.5498,529.0817,165.429,531.2704,164.7247,533.8725,164.1182,537.2093,164.4786,539.0369,165.3405,541.1618,165.7312,543.7455,168.3783,544.6461,171.1727,545.0375,173.0794,544.5942,176.2214" style="stroke:#181818;stroke-width:0.4382;"/><polygon fill="#181818" points="530.9405,163.8505,530.9798,163.8977,531.9147,162.8812,533.08,162.1412,534.1702,161.3111,535.0137,160.185,536.1987,159.4687,536.1776,159.4603,535.7325,160.2988,535.3936,161.1798,535.1286,162.0904,534.609,162.8991,534.446,163.8505,534.5961,163.9106,534.6256,164.6585,535.0934,165.5818,535.6148,166.5265,535.8249,167.3466,536.1987,168.2323,536.2115,168.2476,535.1411,167.3488,534.1288,166.5197,533.0885,165.6569,532.1017,164.8583,530.9405,163.8505" style="stroke:#181818;stroke-width:0.8764;"/></g><g><title>IHM</title><polygon fill="#A9DCDF" points="312.3677,213.8627,312.3677,213.9241,314.1204,213.7416,315.8732,213.9191,317.6259,213.9794,319.3786,213.6543,321.1313,213.8627,321.0632,213.8627,320.7576,222.5112,320.7952,231.1597,321.0716,239.8083,320.5254,248.4568,321.6165,257.1053,320.579,265.7539,320.958,274.4024,321.5099,283.0509,321.0562,291.6995,321.1911,300.348,321.1033,308.9965,321.2878,317.6451,321.3409,326.2936,321.6446,334.9421,321.7194,343.5907,321.7266,352.2392,321.3545,360.8877,321.5376,369.5363,321.7467,378.1848,320.4993,386.8333,321.726,395.4819,320.8715,404.1304,321.5991,412.7789,320.6975,421.4275,321.0713,430.076,321.7812,438.7245,321.0886,447.373,321.2236,456.0216,321.4281,464.6701,321.1313,473.3186,321.1313,473.4402,319.3786,473.3175,317.6259,473.4025,315.8732,473.1514,314.1204,473.4017,312.3677,473.3186,312.8481,473.3186,312.7573,464.6701,312.9049,456.0216,311.9444,447.373,311.7962,438.7245,311.8231,430.076,312.3161,421.4275,312.1955,412.7789,312.9649,404.1304,312.2146,395.4819,312.0671,386.8333,312.5678,378.1848,311.7833,369.5363,311.9128,360.8877,312.9364,352.2392,312.7495,343.5907,313.0114,334.9421,312.0857,326.2936,312.6474,317.6451,312.8851,308.9965,311.9537,300.348,312.2837,291.6995,312.4781,283.0509,312.9389,274.4024,312.364,265.7539,312.7731,257.1053,311.8824,248.4568,311.7742,239.8083,312.8091,231.1597,311.7394,222.5112,312.3677,213.8627" style="stroke:#A9DCDF;stroke-width:0.8764;"/><path d="M312.3677,213.8627 L312.6133,213.8627 L311.8836,222.5112 L312.5936,231.1597 L312.8347,239.8083 L311.5341,248.4568 L312.2769,257.1053 L311.8694,265.7539 L311.9196,274.4024 L312.2881,283.0509 L311.5599,291.6995 L313.0146,300.348 L311.6312,308.9965 L312.1366,317.6451 L312.8724,326.2936 L312.2675,334.9421 L312.4474,343.5907 L312.3304,352.2392 L312.5763,360.8877 L312.6471,369.5363 L313.0521,378.1848 L313.1518,386.8333 L313.1614,395.4819 L312.6652,404.1304 L312.9094,412.7789 L313.1883,421.4275 L311.525,430.076 L313.1605,438.7245 L312.0212,447.373 L312.9915,456.0216 L311.7893,464.6701 L312.3677,473.3186" fill="none" style="stroke:#181818;stroke-width:0.8764;"/><path d="M321.1313,213.8627 L321.3769,213.8627 L320.6472,222.5112 L321.3572,231.1597 L321.5983,239.8083 L320.2977,248.4568 L321.0405,257.1053 L320.633,265.7539 L320.6832,274.4024 L321.0517,283.0509 L320.3235,291.6995 L321.7782,300.348 L320.3949,308.9965 L320.9002,317.6451 L321.6361,326.2936 L321.0311,334.9421 L321.2111,343.5907 L321.094,352.2392 L321.3399,360.8877 L321.4108,369.5363 L321.8157,378.1848 L321.9154,386.8333 L321.925,395.4819 L321.4289,404.1304 L321.673,412.7789 L321.9519,421.4275 L320.2886,430.076 L321.9242,438.7245 L320.7849,447.373 L321.7551,456.0216 L320.5529,464.6701 L321.1313,473.3186" fill="none" style="stroke:#181818;stroke-width:0.8764;"/><path d="M312.3677,213.8627 L312.3677,213.9445 L314.1204,213.7013 L315.8732,213.938 L317.6259,214.0183 L319.3786,213.5848 L321.1313,213.8627" fill="none" style="stroke:#181818;stroke-width:0.8764;"/></g><g><title>IHM</title><polygon fill="#A9DCDF" points="312.3677,510.9864,312.3677,511.0477,314.1204,510.8653,315.8732,511.0428,317.6259,511.1031,319.3786,510.778,321.1313,510.9864,321.0632,510.9864,320.7576,519.6641,320.7952,528.3418,321.0716,537.0196,320.5254,545.6973,321.6165,554.3751,320.579,563.0528,320.958,571.7306,321.5099,580.4083,321.0562,589.086,321.1911,597.7638,321.1033,606.4415,321.2878,615.1193,321.3409,623.797,321.6446,632.4748,321.1313,641.1525,321.1313,641.3485,319.3786,641.3509,317.6259,641.2269,315.8732,641.2879,314.1204,641.3577,312.3677,641.1525,311.7357,641.1525,312.9623,632.4748,312.1079,623.797,312.8355,615.1193,311.9339,606.4415,312.3077,597.7638,313.0176,589.086,312.325,580.4083,312.46,571.7306,312.6645,563.0528,312.7325,554.3751,312.3643,545.6973,312.6194,537.0196,311.8661,528.3418,312.6169,519.6641,312.3677,510.9864" style="stroke:#A9DCDF;stroke-width:0.8764;"/><path d="M312.3677,510.9864 L312.6133,510.9864 L311.8836,519.6641 L312.5936,528.3418 L312.8347,537.0196 L311.5341,545.6973 L312.2769,554.3751 L311.8694,563.0528 L311.9196,571.7306 L312.2881,580.4083 L311.5599,589.086 L313.0146,597.7638 L311.6312,606.4415 L312.1366,615.1193 L312.8724,623.797 L312.2675,632.4748 L312.3677,641.1525" fill="none" style="stroke:#181818;stroke-width:0.8764;"/><path d="M321.1313,510.9864 L321.3769,510.9864 L320.6472,519.6641 L321.3572,528.3418 L321.5983,537.0196 L320.2977,545.6973 L321.0405,554.3751 L320.633,563.0528 L320.6832,571.7306 L321.0517,580.4083 L320.3235,589.086 L321.7782,597.7638 L320.3949,606.4415 L320.9002,615.1193 L321.6361,623.797 L321.0311,632.4748 L321.1313,641.1525" fill="none" style="stroke:#181818;stroke-width:0.8764;"/><path d="M312.3677,641.1525 L312.3677,641.2344 L314.1204,640.9911 L315.8732,641.2278 L317.6259,641.3082 L319.3786,640.8747 L321.1313,641.1525" fill="none" style="stroke:#181818;stroke-width:0.8764;"/></g><g><title>IHM</title><polygon fill="#A9DCDF" points="316.7495,438.5218,316.7495,438.5832,318.5022,438.4008,320.255,438.5783,322.0077,438.6385,323.7604,438.3134,325.5131,438.5218,325.4904,438.5218,325.3886,444.079,325.4011,449.6362,325.4932,455.1934,325.3112,460.7506,325.5131,466.3077,325.5131,466.4695,323.7604,466.1236,322.0077,466.25,320.255,466.4339,318.5022,466.2827,316.7495,466.3077,316.7695,466.3077,316.7402,460.7506,316.8017,455.1934,316.8194,449.6362,316.9206,444.079,316.7495,438.5218" style="stroke:#181818;stroke-width:0.8764;"/></g><g><title>Sistema</title><polygon fill="#A9DCDF" points="530.0642,213.8627,530.0642,213.9241,531.8169,213.7416,533.5696,213.9191,535.3223,213.9794,537.0751,213.6543,538.8278,213.8627,538.7597,213.8627,538.454,222.5112,538.4917,231.1597,538.7681,239.8083,538.2219,248.4568,539.313,257.1053,538.2754,265.7539,538.6545,274.4024,539.2063,283.0509,538.7526,291.6995,538.8876,300.348,538.7998,308.9965,538.9842,317.6451,539.0374,326.2936,539.3411,334.9421,539.4159,343.5907,539.4231,352.2392,539.0509,360.8877,539.2341,369.5363,539.4432,378.1848,538.1958,386.8333,539.4224,395.4819,538.568,404.1304,539.2956,412.7789,538.394,421.4275,538.7678,430.076,539.4777,438.7245,538.7851,447.373,538.9201,456.0216,539.1246,464.6701,538.8278,473.3186,538.8278,473.4402,537.0751,473.3175,535.3223,473.4025,533.5696,473.1514,531.8169,473.4017,530.0642,473.3186,530.5446,473.3186,530.4537,464.6701,530.6014,456.0216,529.6408,447.373,529.4926,438.7245,529.5196,430.076,530.0126,421.4275,529.8919,412.7789,530.6613,404.1304,529.9111,395.4819,529.7635,386.8333,530.2642,378.1848,529.4798,369.5363,529.6092,360.8877,530.6329,352.2392,530.446,343.5907,530.7079,334.9421,529.7822,326.2936,530.3439,317.6451,530.5816,308.9965,529.6502,300.348,529.9802,291.6995,530.1746,283.0509,530.6354,274.4024,530.0605,265.7539,530.4696,257.1053,529.5789,248.4568,529.4707,239.8083,530.5055,231.1597,529.4359,222.5112,530.0642,213.8627" style="stroke:#A9DCDF;stroke-width:0.8764;"/><path d="M530.0642,213.8627 L530.3098,213.8627 L529.58,222.5112 L530.29,231.1597 L530.5312,239.8083 L529.2306,248.4568 L529.9734,257.1053 L529.5658,265.7539 L529.6161,274.4024 L529.9845,283.0509 L529.2563,291.6995 L530.7111,300.348 L529.3277,308.9965 L529.8331,317.6451 L530.5689,326.2936 L529.9639,334.9421 L530.1439,343.5907 L530.0268,352.2392 L530.2728,360.8877 L530.3436,369.5363 L530.7485,378.1848 L530.8483,386.8333 L530.8579,395.4819 L530.3617,404.1304 L530.6059,412.7789 L530.8847,421.4275 L529.2215,430.076 L530.857,438.7245 L529.7177,447.373 L530.6879,456.0216 L529.4857,464.6701 L530.0642,473.3186" fill="none" style="stroke:#181818;stroke-width:0.8764;"/><path d="M538.8278,213.8627 L539.0734,213.8627 L538.3437,222.5112 L539.0536,231.1597 L539.2948,239.8083 L537.9942,248.4568 L538.737,257.1053 L538.3294,265.7539 L538.3797,274.4024 L538.7482,283.0509 L538.0199,291.6995 L539.4747,300.348 L538.0913,308.9965 L538.5967,317.6451 L539.3325,326.2936 L538.7276,334.9421 L538.9075,343.5907 L538.7905,352.2392 L539.0364,360.8877 L539.1072,369.5363 L539.5122,378.1848 L539.6119,386.8333 L539.6215,395.4819 L539.1253,404.1304 L539.3695,412.7789 L539.6483,421.4275 L537.9851,430.076 L539.6206,438.7245 L538.4813,447.373 L539.4515,456.0216 L538.2494,464.6701 L538.8278,473.3186" fill="none" style="stroke:#181818;stroke-width:0.8764;"/><path d="M530.0642,213.8627 L530.0642,213.9445 L531.8169,213.7013 L533.5696,213.938 L535.3223,214.0183 L537.0751,213.5848 L538.8278,213.8627" fill="none" style="stroke:#181818;stroke-width:0.8764;"/></g><g><title>Sistema</title><polygon fill="#A9DCDF" points="530.0642,510.9864,530.0642,511.0477,531.8169,510.8653,533.5696,511.0428,535.3223,511.1031,537.0751,510.778,538.8278,510.9864,538.7597,510.9864,538.454,519.6641,538.4917,528.3418,538.7681,537.0196,538.2219,545.6973,539.313,554.3751,538.2754,563.0528,538.6545,571.7306,539.2063,580.4083,538.7526,589.086,538.8876,597.7638,538.7998,606.4415,538.9842,615.1193,539.0374,623.797,539.3411,632.4748,538.8278,641.1525,538.8278,641.3485,537.0751,641.3509,535.3223,641.2269,533.5696,641.2879,531.8169,641.3577,530.0642,641.1525,529.4322,641.1525,530.6588,632.4748,529.8043,623.797,530.532,615.1193,529.6304,606.4415,530.0041,597.7638,530.7141,589.086,530.0215,580.4083,530.1565,571.7306,530.3609,563.0528,530.4289,554.3751,530.0607,545.6973,530.3159,537.0196,529.5625,528.3418,530.3134,519.6641,530.0642,510.9864" style="stroke:#A9DCDF;stroke-width:0.8764;"/><path d="M530.0642,510.9864 L530.3098,510.9864 L529.58,519.6641 L530.29,528.3418 L530.5312,537.0196 L529.2306,545.6973 L529.9734,554.3751 L529.5658,563.0528 L529.6161,571.7306 L529.9845,580.4083 L529.2563,589.086 L530.7111,597.7638 L529.3277,606.4415 L529.8331,615.1193 L530.5689,623.797 L529.9639,632.4748 L530.0642,641.1525" fill="none" style="stroke:#181818;stroke-width:0.8764;"/><path d="M538.8278,510.9864 L539.0734,510.9864 L538.3437,519.6641 L539.0536,528.3418 L539.2948,537.0196 L537.9942,545.6973 L538.737,554.3751 L538.3294,563.0528 L538.3797,571.7306 L538.7482,580.4083 L538.0199,589.086 L539.4747,597.7638 L538.0913,606.4415 L538.5967,615.1193 L539.3325,623.797 L538.7276,632.4748 L538.8278,641.1525" fill="none" style="stroke:#181818;stroke-width:0.8764;"/><path d="M530.0642,641.1525 L530.0642,641.2344 L531.8169,640.9911 L533.5696,641.2278 L535.3223,641.3082 L537.0751,640.8747 L538.8278,641.1525" fill="none" style="stroke:#181818;stroke-width:0.8764;"/></g><polygon fill="#FEFFDD" points="468.6621,218.2445,468.6621,218.4287,477.3673,217.8814,486.0725,218.4139,494.7777,218.5948,503.4829,217.6193,512.1881,218.1764,520.8933,217.8707,529.5985,217.9084,538.3037,218.1848,547.0088,217.6386,555.714,218.7297,564.4192,217.6921,573.1244,218.0712,581.8296,218.623,590.5348,218.1693,599.24,218.2445,599.258,218.2531,600.9843,221.9212,602.7926,225.6284,604.5613,229.3167,606.4054,233.0409,608.0037,236.6481,608.1821,236.7292,606.4316,240.5862,604.5659,244.3909,602.8688,248.2721,601.1795,252.157,599.24,255.9281,599.24,255.296,590.5348,256.5227,581.8296,255.6682,573.1244,256.3959,564.4192,255.4942,555.714,255.868,547.0088,256.578,538.3037,255.8854,529.5985,256.0203,520.8933,256.2248,512.1881,256.2928,503.4829,255.9246,494.7777,256.1798,486.0725,255.4264,477.3673,256.1773,468.6621,255.9281,468.8078,255.9943,467.0276,252.1258,465.3196,248.2902,463.2754,244.3017,461.4777,240.4253,459.8984,236.6481,459.7345,236.5701,461.6356,232.96,463.3521,229.262,465.3363,225.6915,466.8633,221.9033,468.6621,218.2445" style="stroke:#181818;stroke-width:0.4382;"/><text fill="#000000" font-family="sans-serif" font-size="11.3927" lengthAdjust="spacing" textLength="87.2796" x="470.4148" y="233.9288">Estado de Falha:</text><text fill="#000000" font-family="sans-serif" font-size="11.3927" lengthAdjust="spacing" textLength="124.5338" x="473.3769" y="249.4456">Sonoro ON / Visual ON.</text><g class="message" data-participant-1="OP" data-participant-2="IHM"><polygon fill="#00BFFF" points="301.8514,277.9406,301.8742,277.9976,303.5591,278.5293,305.3778,279.3952,307.1529,280.1523,308.7849,280.5514,310.615,281.446,310.6066,281.4249,308.816,282.0314,307.0679,282.7442,305.3494,283.5308,303.5291,284.0629,301.8514,284.9515,301.9657,285.0658,302.4223,284.1202,303.2127,283.5084,304.0439,282.9374,304.638,282.1294,305.3568,281.446,305.3709,281.4601,304.6491,280.7383,303.9915,280.0807,303.3029,279.3922,302.6734,278.7626,301.8514,277.9406" style="stroke:#00BFFF;stroke-width:0.8764;"/><path d="M116.2061,281.446 L116.2061,281.6916 L124.8836,280.9619 L133.561,281.6719 L142.2384,281.913 L150.9158,280.6124 L159.5933,281.3552 L168.2707,280.9477 L176.9481,280.9979 L185.6256,281.3664 L194.303,280.6382 L202.9804,282.0929 L211.6578,280.7096 L220.3353,281.2149 L229.0127,281.9508 L237.6901,281.3458 L246.3675,281.5258 L255.045,281.4087 L263.7224,281.6546 L272.3998,281.7255 L281.0773,282.1304 L289.7547,282.2301 L298.4321,282.2397 L307.1095,281.446" fill="none" style="stroke:#00BFFF;stroke-width:0.8764;"/><text fill="#000000" font-family="sans-serif" font-size="11.3927" lengthAdjust="spacing" textLength="175.1289" x="122.3407" y="276.3552">Selecionar "Reconhecer Alarme".</text></g><g class="message" data-participant-1="IHM" data-participant-2="ST"><polygon fill="#00BFFF" points="519.5478,290.2097,519.5706,290.2667,521.2556,290.7984,523.0742,291.6643,524.8494,292.4213,526.4813,292.8205,528.3114,293.7151,528.303,293.694,526.5125,294.3005,524.7644,295.0133,523.0459,295.7999,521.2255,296.3319,519.5478,297.2205,519.6622,297.3349,520.1187,296.3893,520.9092,295.7775,521.7403,295.2065,522.3345,294.3985,523.0533,293.7151,523.0674,293.7292,522.3456,293.0074,521.688,292.3498,520.9994,291.6612,520.3699,291.0317,519.5478,290.2097" style="stroke:#00BFFF;stroke-width:0.8764;"/><path d="M321.1313,293.7151 L321.1313,293.9607 L329.9867,293.231 L338.8422,293.941 L347.6976,294.1821 L356.553,292.8815 L365.4084,293.6243 L374.2639,293.2167 L383.1193,293.267 L391.9747,293.6355 L400.8301,292.9072 L409.6855,294.362 L418.541,292.9786 L427.3964,293.484 L436.2518,294.2198 L445.1072,293.6149 L453.9626,293.7948 L462.8181,293.6778 L471.6735,293.9237 L480.5289,293.9945 L489.3843,294.3995 L498.2397,294.4992 L507.0952,294.5088 L515.9506,294.0126 L524.806,293.7151" fill="none" style="stroke:#00BFFF;stroke-width:0.8764;"/></g><g class="message" data-participant-1="ST" data-participant-2="ST"><path d="M538.8278,321.5011 L538.8278,321.5829 L546.1892,321.3397 L553.5507,321.5763 L560.9121,321.6567 L568.2736,321.2232 L575.635,321.5011" fill="none" style="stroke:#00BFFF;stroke-width:0.8764;"/><path d="M575.635,321.5011 L575.7169,321.5011 L575.4736,323.7796 L575.7103,326.0581 L575.7907,328.3367 L575.3571,330.6152 L575.635,332.8938" fill="none" style="stroke:#00BFFF;stroke-width:0.8764;"/><path d="M539.7042,332.8938 L539.7042,332.9756 L546.8903,332.7324 L554.0765,332.9691 L561.2627,333.0494 L568.4488,332.6159 L575.635,332.8938" fill="none" style="stroke:#00BFFF;stroke-width:0.8764;"/><polygon fill="#00BFFF" points="548.4678,329.3883,548.4906,329.4453,546.6701,329.977,544.9833,330.8429,543.253,331.6,541.3795,331.9992,539.7042,332.8938,539.6957,332.8727,541.4106,333.4792,543.168,334.1919,544.9549,334.9786,546.64,335.5106,548.4678,336.3992,548.5821,336.5136,547.6365,335.5679,547.0248,334.9562,546.4537,334.3852,545.6457,333.5771,544.9623,332.8938,544.9764,332.9079,545.6568,332.1861,546.4014,331.5285,547.115,330.8399,547.8877,330.2104,548.4678,329.3883" style="stroke:#00BFFF;stroke-width:0.8764;"/><text fill="#000000" font-family="sans-serif" font-size="11.3927" lengthAdjust="spacing" textLength="149.7459" x="544.9623" y="316.4103">Grava Auditoria (Registro c).</text></g><polygon fill="#FEFFDD" points="436.2367,344.2865,436.2367,344.4707,445.1198,343.9234,454.0029,344.4559,462.886,344.6367,471.7692,343.6613,480.6523,344.2184,489.5354,343.9127,498.4185,343.9504,507.3017,344.2267,516.1848,343.6806,525.0679,344.7717,533.9511,343.7341,542.8342,344.1132,551.7173,344.665,560.6004,344.2113,569.4836,344.3463,578.3667,344.2585,587.2498,344.4429,596.1329,344.496,605.0161,344.7998,613.8992,344.8746,622.7823,344.8818,631.6654,344.2865,631.736,344.31,633.5466,349.5875,635.3655,354.8677,636.7238,359.9944,638.8644,365.3819,640.4291,370.5773,640.3466,370.5508,638.8248,376.0587,636.786,381.3998,635.1519,386.8715,633.6243,392.3776,631.6654,397.7446,631.6654,397.7019,622.7823,397.8369,613.8992,398.0413,605.0161,398.1093,596.1329,397.7412,587.2498,397.9963,578.3667,397.2429,569.4836,397.9938,560.6004,398.225,551.7173,398.1341,542.8342,398.2818,533.9511,397.3212,525.0679,397.173,516.1848,397.2,507.3017,397.693,498.4185,397.5723,489.5354,398.3417,480.6523,397.5915,471.7692,397.4439,462.886,397.9446,454.0029,397.1602,445.1198,397.2896,436.2367,397.7446,436.4171,397.8028,434.6051,392.3502,432.9354,386.9436,430.889,381.4154,429.3145,376.0394,427.473,370.5773,427.6367,370.6319,429.0948,365.2755,430.9519,360.0521,432.7661,354.8145,434.6646,349.6049,436.2367,344.2865" style="stroke:#181818;stroke-width:0.4382;"/><text fill="#000000" font-family="sans-serif" font-size="11.3927" lengthAdjust="spacing" textLength="146.9889" x="437.9894" y="359.9707">L&#243;gica de Reconhecimento:</text><text fill="#000000" font-family="sans-serif" font-size="11.3927" lengthAdjust="spacing" textLength="145.599" x="440.9515" y="375.4876">1. Desliga Som (Registro a);</text><text fill="#000000" font-family="sans-serif" font-size="11.3927" lengthAdjust="spacing" textLength="189.4724" x="440.9515" y="391.0045">2. Mant&#233;m Visual Ativo (Registro b).</text><g class="message" data-participant-1="ST" data-participant-2="IHM"><polygon fill="#00BFFF" points="335.1531,435.0163,335.1759,435.0733,333.3555,435.6051,331.6686,436.4709,329.9383,437.228,328.0648,437.6272,326.3895,438.5218,326.3811,438.5007,328.096,439.1072,329.8533,439.82,331.6403,440.6066,333.3254,441.1386,335.1531,442.0272,335.2675,442.1416,334.3218,441.196,333.7101,440.5842,333.1391,440.0132,332.331,439.2052,331.6477,438.5218,331.6618,438.5359,332.3422,437.8141,333.0867,437.1565,333.8003,436.4679,334.573,435.8384,335.1531,435.0163" style="stroke:#00BFFF;stroke-width:0.8764;"/><path d="M329.895,438.5218 L329.895,438.7674 L338.5599,438.0377 L347.2248,438.7476 L355.8897,438.9888 L364.5546,437.6882 L373.2195,438.431 L381.8844,438.0234 L390.5493,438.0737 L399.2142,438.4421 L407.8791,437.7139 L416.544,439.1687 L425.2089,437.7853 L433.8738,438.2907 L442.5387,439.0265 L451.2036,438.4216 L459.8686,438.6015 L468.5335,438.4845 L477.1984,438.7304 L485.8633,438.8012 L494.5282,439.2062 L503.1931,439.3059 L511.858,439.3155 L520.5229,438.8193 L529.1878,438.5218" fill="none" style="stroke:#00BFFF;stroke-width:0.8764;stroke-dasharray:1.7527,1.7527;"/><text fill="#000000" font-family="sans-serif" font-size="11.3927" lengthAdjust="spacing" textLength="71.102" x="340.4113" y="417.9141">Atualiza IHM:</text><text fill="#000000" font-family="sans-serif" font-size="11.3927" lengthAdjust="spacing" textLength="184.938" x="343.3734" y="433.431">Som mudo / Alerta visual mantido.</text></g><g class="message" data-participant-1="IHM" data-participant-2="OP"><polygon fill="#00BFFF" points="125.8461,462.8023,125.8689,462.8593,124.0485,463.391,122.3616,464.2569,120.6313,465.014,118.7578,465.4132,117.0825,466.3077,117.0741,466.2867,118.789,466.8932,120.5463,467.6059,122.3333,468.3925,124.0184,468.9246,125.8461,469.8132,125.9605,469.9276,125.0148,468.9819,124.4031,468.3702,123.8321,467.7991,123.024,466.9911,122.3407,466.3077,122.3548,466.3218,123.0352,465.6001,123.7797,464.9424,124.4933,464.2539,125.266,463.6244,125.8461,462.8023" style="stroke:#00BFFF;stroke-width:0.8764;"/><path d="M120.588,466.3077 L120.588,466.5533 L129.2654,465.8236 L137.9428,466.5336 L146.6202,466.7748 L155.2977,465.4742 L163.9751,466.2169 L172.6525,465.8094 L181.3299,465.8596 L190.0074,466.2281 L198.6848,465.4999 L207.3622,466.9547 L216.0396,465.5713 L224.7171,466.0767 L233.3945,466.8125 L242.0719,466.2075 L250.7494,466.3875 L259.4268,466.2704 L268.1042,466.5164 L276.7816,466.5872 L285.4591,466.9921 L294.1365,467.0919 L302.8139,467.1014 L311.4913,466.3077" fill="none" style="stroke:#00BFFF;stroke-width:0.8764;stroke-dasharray:1.7527,1.7527;"/><text fill="#000000" font-family="sans-serif" font-size="11.3927" lengthAdjust="spacing" textLength="148.561" x="131.1043" y="461.217">Visualiza&#231;&#227;o do alarme final</text></g><text fill="#000000" font-family="sans-serif" font-size="9.64" lengthAdjust="spacing" textLength="201.4646" x="224.5937" y="495.8928">A falha persiste at&#233; ser resolvida fisicamente</text><polygon fill="#FEFFDD" points="457.2694,515.3682,457.2694,515.5524,466.2392,515.0051,475.209,515.5376,484.1788,515.7184,493.1487,514.743,502.1185,515.3001,511.0883,514.9944,520.0581,515.0321,529.028,515.3084,537.9978,514.7623,546.9676,515.8534,555.9374,514.8158,564.9073,515.1948,573.8771,515.7467,582.8469,515.293,591.8167,515.428,600.7866,515.3402,609.7564,515.3682,609.8035,515.3906,611.5722,519.0789,613.4163,522.8032,615.1916,526.4946,616.9464,530.1764,618.52,533.7718,618.5877,533.8025,616.8906,537.6838,615.2013,541.5686,613.07,545.2526,611.6896,549.2778,609.7564,553.0517,609.7564,552.7919,600.7866,553.5196,591.8167,552.6179,582.8469,552.9917,573.8771,553.7017,564.9073,553.009,555.9374,553.144,546.9676,553.3485,537.9978,553.4165,529.028,553.0483,520.0581,553.3034,511.0883,552.5501,502.1185,553.301,493.1487,553.5322,484.1788,553.4413,475.209,553.589,466.2392,552.6284,457.2694,553.0517,457.0959,552.9729,455.3514,549.1206,453.7482,545.3326,451.9589,541.46,450.4397,537.7101,448.5057,533.7718,448.4597,533.7498,450.168,530.048,452.0714,526.439,453.588,522.6459,455.3797,518.9837,457.2694,515.3682" style="stroke:#181818;stroke-width:0.4382;"/><text fill="#000000" font-family="sans-serif" font-size="11.3927" lengthAdjust="spacing" textLength="146.5445" x="459.0221" y="531.0524">Sensor indica normaliza&#231;&#227;o</text><text fill="#000000" font-family="sans-serif" font-size="11.3927" lengthAdjust="spacing" textLength="92.4519" x="461.9842" y="546.5693">(Falha Resolvida).</text><g class="message" data-participant-1="ST" data-participant-2="ST"><path d="M538.8278,578.5697 L538.8278,578.6516 L546.1892,578.4083 L553.5507,578.645 L560.9121,578.7254 L568.2736,578.2918 L575.635,578.5697" fill="none" style="stroke:#00BFFF;stroke-width:0.8764;"/><path d="M575.635,578.5697 L575.7169,578.5697 L575.4736,580.8482 L575.7103,583.1268 L575.7907,585.4053 L575.3571,587.6839 L575.635,589.9624" fill="none" style="stroke:#00BFFF;stroke-width:0.8764;"/><path d="M539.7042,589.9624 L539.7042,590.0443 L546.8903,589.801 L554.0765,590.0377 L561.2627,590.1181 L568.4488,589.6845 L575.635,589.9624" fill="none" style="stroke:#00BFFF;stroke-width:0.8764;"/><polygon fill="#00BFFF" points="548.4678,586.457,548.4906,586.514,546.6701,587.0457,544.9833,587.9116,543.253,588.6686,541.3795,589.0678,539.7042,589.9624,539.6957,589.9413,541.4106,590.5478,543.168,591.2606,544.9549,592.0472,546.64,592.5793,548.4678,593.4679,548.5821,593.5822,547.6365,592.6366,547.0248,592.0248,546.4537,591.4538,545.6457,590.6458,544.9623,589.9624,544.9764,589.9765,545.6568,589.2547,546.4014,588.5971,547.115,587.9085,547.8877,587.279,548.4678,586.457" style="stroke:#00BFFF;stroke-width:0.8764;"/><text fill="#000000" font-family="sans-serif" font-size="11.3927" lengthAdjust="spacing" textLength="149.7459" x="544.9623" y="573.4789">Grava Auditoria (Registro c).</text></g><g class="message" data-participant-1="ST" data-participant-2="IHM"><polygon fill="#00BFFF" points="330.7713,629.7598,330.7941,629.8168,328.9736,630.3485,327.2868,631.2144,325.5565,631.9715,323.683,632.3707,322.0077,633.2653,321.9993,633.2442,323.7141,633.8507,325.4715,634.5634,327.2585,635.35,328.9436,635.8821,330.7713,636.7707,330.8857,636.8851,329.94,635.9394,329.3283,635.3277,328.7573,634.7567,327.9492,633.9486,327.2659,633.2653,327.28,633.2793,327.9604,632.5576,328.7049,631.9,329.4185,631.2114,330.1912,630.5819,330.7713,629.7598" style="stroke:#00BFFF;stroke-width:0.8764;"/><path d="M325.5131,633.2653 L325.5131,633.5108 L334.3686,632.7811 L343.224,633.4911 L352.0794,633.7323 L360.9348,632.4317 L369.7902,633.1744 L378.6457,632.7669 L387.5011,632.8171 L396.3565,633.1856 L405.2119,632.4574 L414.0673,633.9122 L422.9228,632.5288 L431.7782,633.0342 L440.6336,633.77 L449.489,633.165 L458.3444,633.345 L467.1999,633.2279 L476.0553,633.4739 L484.9107,633.5447 L493.7661,633.9496 L502.6215,634.0494 L511.477,634.059 L520.3324,633.5628 L529.1878,633.2653" fill="none" style="stroke:#00BFFF;stroke-width:0.8764;stroke-dasharray:1.7527,1.7527;"/><text fill="#000000" font-family="sans-serif" font-size="11.3927" lengthAdjust="spacing" textLength="112.6512" x="336.0295" y="612.6576">Remove Alerta Visual</text><text fill="#000000" font-family="sans-serif" font-size="11.3927" lengthAdjust="spacing" textLength="119.0653" x="338.9916" y="628.1745">(Completa Registro b).</text></g><text fill="#1E90FF" font-family="Arial" font-size="12.2691" lengthAdjust="spacing" textLength="3.1899" x="26.2909" y="680.559">&#160;</text><text fill="#1E90FF" font-family="Arial" font-size="12.2691" font-weight="bold" lengthAdjust="spacing" textLength="136.0758" x="26.2909" y="697.2694">Casos de Uso cobertos</text><text fill="#1E90FF" font-family="Arial" font-size="12.2691" lengthAdjust="spacing" textLength="3.2881" x="162.3666" y="697.2694">:</text><text fill="#1E90FF" font-family="Arial" font-size="12.2691" lengthAdjust="spacing" textLength="3.9506" x="26.2909" y="713.9798">-</text><text fill="#1E90FF" font-family="Arial" font-size="12.2691" font-weight="bold" lengthAdjust="spacing" textLength="51.1127" x="33.4314" y="713.9798">MIO-004</text><text fill="#1E90FF" font-family="Arial" font-size="12.2691" lengthAdjust="spacing" textLength="199.0158" x="87.7341" y="713.9798">Reconhecimento de Alarmes (Ack);</text><polygon fill="none" points="24.1,54.0195,24.1,54.2037,32.9105,53.6564,41.7211,54.1889,50.5317,54.3698,59.3422,53.3943,68.1528,53.9514,76.9633,53.6458,85.7739,53.6834,94.5845,53.9598,103.395,53.4136,112.2056,54.5047,121.0162,53.4672,129.8267,53.8462,138.6373,54.3981,147.4479,53.9443,156.2584,54.0793,165.069,53.9915,173.8795,54.176,182.6901,54.2291,191.5007,54.5328,200.3112,54.6076,209.1218,54.6148,217.9324,54.2427,226.7429,54.4258,235.5535,54.6349,244.364,53.3875,253.1746,54.6141,261.9852,53.7597,270.7957,54.4873,279.6063,53.5857,288.4169,53.9595,297.2274,54.6694,306.038,53.9768,314.8486,54.1118,323.6591,54.3163,332.4697,54.3843,341.2802,54.0161,350.0908,54.2712,358.9014,53.5179,367.7119,54.2687,376.5225,54.4999,385.3331,54.4091,394.1436,54.5568,402.9542,53.5962,411.7648,53.448,420.5753,53.4749,429.3859,53.9679,438.1964,53.8473,447.007,54.6167,455.8176,53.8664,464.6281,53.7189,473.4387,54.2196,482.2493,53.4351,491.0598,53.5646,499.8704,54.5882,508.6809,54.4013,517.4915,54.6632,526.3021,53.7375,535.1126,54.2993,543.9232,54.5369,552.7338,53.6055,561.5443,53.9355,570.3549,54.1299,579.1655,54.5907,587.976,54.0158,596.7866,54.4249,605.5971,53.5342,614.4077,53.426,623.2183,54.4609,632.0288,53.3912,640.8394,54.4656,649.65,54.2006,658.4605,53.7847,667.2711,53.7095,676.0817,54.4216,684.8922,53.7572,693.7028,54.5382,702.5133,53.5351,711.3239,54.5606,720.1345,54.4439,728.945,54.2342,737.7556,54.0609,746.5662,54.6563,755.3767,54.5572,764.1873,54.0195,764.2062,54.0652,765.1468,54.4769,766.0318,54.7544,767.0559,55.3679,767.9227,55.6014,768.8349,55.9446,768.8815,55.9639,769.0557,56.8061,769.4956,57.7584,770.1332,58.7925,770.491,59.7108,770.76,60.5922,770.7224,60.5922,770.4777,69.7485,770.5681,78.9047,770.1587,88.0609,771.1235,97.2172,770.76,106.3734,770.9596,106.4561,770.517,107.3618,770.1775,108.3101,769.568,109.1467,769.2435,110.1012,768.8349,111.021,768.7916,110.9164,767.9371,111.4827,767.0034,111.8576,766.1081,112.3251,765.0911,112.4991,764.1873,112.9461,764.1873,112.8283,755.3767,113.3347,746.5662,113.4433,737.7556,112.4969,728.945,112.7762,720.1345,113.0769,711.3239,112.4108,702.5133,113.2558,693.7028,113.1722,684.8922,112.8578,676.0817,113.0708,667.2711,113.5847,658.4605,112.6719,649.65,113.2221,640.8394,113.1964,632.0288,113.0476,623.2183,113.0696,614.4077,113.0455,605.5971,112.3991,596.7866,112.5948,587.976,112.5416,579.1655,113.002,570.3549,113.0233,561.5443,113.0878,552.7338,112.6911,543.9232,112.8869,535.1126,112.8407,526.3021,113.4516,517.4915,113.3199,508.6809,112.5206,499.8704,112.8822,491.0598,112.4402,482.2493,113.1988,473.4387,113.4794,464.6281,113.4233,455.8176,112.5644,447.007,113.3527,438.1964,112.2951,429.3859,113.1215,420.5753,112.6838,411.7648,113.0309,402.9542,113.1567,394.1436,113.3598,385.3331,112.3152,376.5225,113.3628,367.7119,113.1022,358.9014,113.2575,350.0908,113.6014,341.2802,112.9509,332.4697,113.0997,323.6591,113.1331,314.8486,113.1189,306.038,112.9454,297.2274,113.5689,288.4169,112.4117,279.6063,113.4415,270.7957,112.3992,261.9852,112.4726,253.1746,112.9812,244.364,112.9709,235.5535,112.5142,226.7429,113.3087,217.9324,113.0415,209.1218,113.5829,200.3112,113.5307,191.5007,112.5533,182.6901,112.5974,173.8795,112.8329,165.069,113.2577,156.2584,113.2993,147.4479,113.21,138.6373,112.6464,129.8267,113.5038,121.0162,113.5015,112.2056,112.9047,103.395,112.7366,94.5845,112.5943,85.7739,112.758,76.9633,113.0665,68.1528,112.8862,59.3422,112.58,50.5317,113.3732,41.7211,112.5439,32.9105,113.3864,24.1,112.9461,24.1477,113.0614,23.212,112.6614,22.3183,112.363,21.2839,111.7247,20.3483,111.3249,19.4524,111.021,19.5924,111.079,18.9062,110.0247,18.6192,109.1358,18.3285,108.2453,17.9308,107.3106,17.5272,106.3734,17.2131,106.3734,17.4896,97.2172,18.1798,88.0609,18.0956,78.9047,17.0047,69.7485,17.5272,60.5922,17.5484,60.601,17.7736,59.6053,18.2902,58.7302,18.7614,57.8364,19.1806,56.9211,19.4524,55.9446,19.378,55.7652,20.4266,55.6677,21.3123,55.1769,22.1788,54.6397,23.1178,54.2774,24.1,54.0195" style="stroke:#000000;stroke-width:0.8764;"/><text fill="#1E90FF" font-family="Arial" font-size="17.5272" font-weight="bold" lengthAdjust="spacing" textLength="718.1783" x="35.0545" y="90.2834">Diagrama de sequ&#234;ncia - M&#243;dulo de Interface e Opera&#231;&#227;o (MIO) - IHM Operacional</text><!--SRC=[dLJ1RjD04BtlLmo-9B5Kfo1Eha2AcXGYqJggsvwuJEn9kk3TJNVjIF0tY0E2QyKN-CUONSSbBJsW-EGuC-_DlFTsNqXTL4r9C9sTvSccKPKGMDJ6GfHjo69fR0Je85k8fMbqYVOBHFFtvv4eZAwjgI2NhYQ5lYY_4c8y41cutRVfx6O63ADaBItSDGID0hF3vQgAT2493625LX4ueuqre16O8W6Hass_0JCvMOOcm9fqAVdbha5TcXJ444TmhM1fwlQxWUYIkFoM2h8m2Q1HpuEMYPnH9zop747MaswbQx0AOw8EZLZBhQTgVu8bPwgc_S7Olg_mVRGbNHjOyGgMrhngc6o3baLeIidYIKp4O2p4uCr1ZnZ0iyzSoqAQmr4NtWddsj_aKk-otBASthM7TvQTfvwvscyaFHrMAKnWXTKjmYSsmnJ6Mch4hJPSRxOiLtwLmgw5WtJcIrFug27ltCmkO0mtdSZPHI94je2ZjvugXPmgufKqU_ECSudW8b_B8-PNtKiAxonk4IQzqZ2yx4mmK8mO_Uba7zhxjIpGZzOpIEKD33E-J61Ahf9hv77L7XQEJlp_hn8uHyr9KFqAan2EluNBGEh7wvUQr5mdlsBtAmYXG3KipvWt8rjZdpaENCrXJXuR49Pci2XRHEcEbk522A5yE2mhgR4I9JtgJPBamIvET3Y8NP8TsIxDMraYDpiMnUj0m3t_g9QJTfnloOUDjMCVrTuClD8msCoAxW1PXFzsQ5-hIrBCsSkoazZZdngrgQZs5Fj23mwC_eMfaKD_OBkeQCtt3jHc8-9uAd5jKOL8ERfhsb_-Te4ZE6_lowOAfs3EmjeL5WG4uIBjb1kUpxCHLtgBm-SG_YgEXOVlM8HO6VR22gOwHMUSnxjsB9vPiah6nN4g62EE6Upe-FXr73z9jc_eZf23uQJuF3e9y3lOFm00]--></g></svg>