<svg xmlns="http://www.w3.org/2000/svg" xmlns:xlink="http://www.w3.org/1999/xlink" contentStyleType="text/css" data-diagram-type="SEQUENCE" height="750.6869px" preserveAspectRatio="none" style="width:1096px;height:750px;background:#EEEBDC;" version="1.1" viewBox="0 0 1096 750" width="1096.4139px" zoomAndPan="magnify"><defs/><g><rect fill="#EEEBDC" height="750.6869" style="stroke:none;stroke-width:1.2088;" width="1096.4139" x="0" y="0"/><g><title>IHM</title><polygon fill="#A9DCDF" points="494.1063,279.3618,494.1063,279.4465,496.5239,279.1949,498.9416,279.4397,501.3593,279.5229,503.777,279.0744,506.1946,279.3618,506.1007,279.3618,505.6791,291.2597,505.731,303.1575,506.1122,315.0554,505.3589,326.9532,506.8639,338.8511,505.4327,350.7489,505.9556,362.6468,506.7168,374.5446,506.0909,386.4425,506.2771,398.3403,506.156,410.2382,506.4104,422.136,506.4837,434.0339,506.9026,445.9317,507.0058,457.8296,507.0157,469.7274,506.5024,481.6253,506.755,493.5232,507.0435,505.421,505.3228,517.3189,507.0148,529.2167,505.8362,541.1146,506.8399,553.0124,505.5962,564.9103,506.1946,576.8081,506.1946,576.7805,503.777,577.1069,501.3593,576.7885,498.9416,576.8505,496.5239,576.9446,494.1063,576.8081,494.6094,576.8081,494.1015,564.9103,494.4535,553.0124,493.4143,541.1146,494.45,529.2167,494.7689,517.3189,494.6436,505.421,494.8473,493.5232,493.5223,481.6253,493.3179,469.7274,493.3551,457.8296,494.0351,445.9317,493.8687,434.0339,494.93,422.136,493.8951,410.2382,493.6916,398.3403,494.3822,386.4425,493.3002,374.5446,493.4787,362.6468,494.8907,350.7489,494.6329,338.8511,494.9941,326.9532,493.7173,315.0554,494.4921,303.1575,494.82,291.2597,494.1063,279.3618" style="stroke:#181818;stroke-width:1.2088;"/></g><g><title>IHM</title><polygon fill="#A9DCDF" points="500.1504,339.0929,500.1504,339.1775,502.5681,338.9259,504.9858,339.1707,507.4035,339.2539,509.8211,338.8054,512.2388,339.0929,512.1449,339.0929,511.7232,351.0289,511.7752,362.965,512.1564,374.901,511.4031,386.8371,512.9081,398.7731,511.4769,410.7092,511.9997,422.6452,512.761,434.5813,512.1351,446.5173,512.3213,458.4534,512.2002,470.3894,512.4546,482.3255,512.5279,494.2615,512.2388,506.1976,512.2388,506.4336,509.8211,506.468,507.4035,506.4713,504.9858,506.3002,502.5681,506.3844,500.1504,506.1976,500.9993,506.1976,499.2787,494.2615,500.9707,482.3255,499.792,470.3894,500.7957,458.4534,499.552,446.5173,500.0676,434.5813,501.0469,422.6452,500.0915,410.7092,500.2777,398.7731,500.5598,386.8371,500.6536,374.901,500.1457,362.965,500.4976,351.0289,500.1504,339.0929" style="stroke:#181818;stroke-width:1.2088;"/></g><g><title>Sistema</title><polygon fill="#A9DCDF" points="773.0138,250.7052,773.0138,250.7898,775.4315,250.5382,777.8492,250.783,780.2668,250.8662,782.6845,250.4177,785.1022,250.7052,785.0082,250.7052,784.5866,262.783,784.6386,274.8609,785.0198,286.9388,784.2664,299.0167,785.7715,311.0946,784.3403,323.1725,784.8631,335.2504,785.6243,347.3283,784.9985,359.4061,785.1847,371.484,785.0636,383.5619,785.318,395.6398,785.3913,407.7177,785.8102,419.7956,785.9134,431.8735,785.9233,443.9513,785.41,456.0292,785.6626,468.1071,785.9511,480.185,784.2304,492.2629,785.9224,504.3408,784.7438,516.4187,785.7475,528.4966,784.5038,540.5744,785.0194,552.6523,785.9987,564.7302,785.1022,576.8081,785.1022,576.7885,782.6845,576.8505,780.2668,576.9446,777.8492,576.9758,775.4315,576.8065,773.0138,576.8081,773.361,576.8081,772.3219,564.7302,773.3576,552.6523,773.6765,540.5744,773.5512,528.4966,773.7549,516.4187,772.4299,504.3408,772.2255,492.2629,772.2627,480.185,772.9427,468.1071,772.7763,456.0292,773.8375,443.9513,772.8027,431.8735,772.5991,419.7956,773.2898,407.7177,772.2077,395.6398,772.3863,383.5619,773.7983,371.484,773.5405,359.4061,773.9017,347.3283,772.6248,335.2504,773.3997,323.1725,773.7276,311.0946,772.4428,299.0167,772.898,286.9388,773.1661,274.8609,773.8017,262.783,773.0138,250.7052" style="stroke:#181818;stroke-width:1.2088;"/></g><g><title>Operador</title><polygon fill="#000000" fill-opacity="0.00000" points="192.3516,238.6168,192.3516,238.7015,194.2858,238.4498,196.2199,238.6947,198.1541,238.7778,200.0882,238.3293,202.0223,238.6168,201.9284,238.6168,201.5068,250.6537,201.5587,262.6906,201.9399,274.7276,201.1866,286.7645,202.6916,298.8014,201.2604,310.8383,201.7833,322.8753,202.5445,334.9122,201.9186,346.9491,202.1048,358.986,201.9837,371.023,202.2381,383.0599,202.3114,395.0968,202.7303,407.1338,202.8335,419.1707,202.8434,431.2076,202.3301,443.2445,202.5827,455.2815,202.8712,467.3184,201.1505,479.3553,202.8425,491.3922,201.6639,503.4292,202.6676,515.4661,201.4239,527.503,201.9395,539.5399,202.9188,551.5769,201.9634,563.6138,202.1496,575.6507,202.0223,587.6876,202.0223,587.8241,200.0882,587.8553,198.1541,587.6861,196.2199,587.8034,194.2858,587.457,192.3516,587.6876,192.6954,587.6876,193.0143,575.6507,192.889,563.6138,193.0927,551.5769,191.7677,539.5399,191.5633,527.503,191.6005,515.4661,192.2805,503.4292,192.1141,491.3922,193.1754,479.3553,192.1405,467.3184,191.937,455.2815,192.6276,443.2445,191.5455,431.2076,191.7241,419.1707,193.1361,407.1338,192.8783,395.0968,193.2395,383.0599,191.9626,371.023,192.7375,358.986,193.0654,346.9491,191.7806,334.9122,192.2358,322.8753,192.5039,310.8383,193.1395,298.8014,192.3466,286.7645,192.9108,274.7276,191.6822,262.6906,191.533,250.6537,192.3516,238.6168"/><path d="M196.1965,238.6168 L196.5352,238.6168 L195.5287,250.6537 L196.508,262.6906 L196.8407,274.7276 L195.0466,286.7645 L196.0712,298.8014 L195.5091,310.8383 L195.5784,322.8753 L196.0866,334.9122 L195.0821,346.9491 L197.0888,358.986 L195.1806,371.023 L195.8777,383.0599 L196.8927,395.0968 L196.0582,407.1338 L196.3065,419.1707 L196.145,431.2076 L196.4842,443.2445 L196.5819,455.2815 L197.1405,467.3184 L197.2781,479.3553 L197.2913,491.3922 L196.6069,503.4292 L196.9437,515.4661 L197.3283,527.503 L195.0341,539.5399 L197.2901,551.5769 L195.7186,563.6138 L197.0569,575.6507 L196.1965,587.6876" fill="none" style="stroke:#0000FF;stroke-width:0.6044;stroke-dasharray:6.0442,6.0442;"/></g><g><title>IHM</title><polygon fill="#000000" fill-opacity="0.00000" points="495.3151,238.6168,495.3151,238.7015,497.2492,238.4498,499.1834,238.6947,501.1175,238.7778,503.0517,238.3293,504.9858,238.6168,504.8918,238.6168,504.4702,250.6537,504.5222,262.6906,504.9034,274.7276,504.15,286.7645,505.6551,298.8014,504.2239,310.8383,504.7467,322.8753,505.5079,334.9122,504.8821,346.9491,505.0683,358.986,504.9472,371.023,505.2016,383.0599,505.2749,395.0968,505.6938,407.1338,505.797,419.1707,505.8069,431.2076,505.2936,443.2445,505.5462,455.2815,505.8347,467.3184,504.114,479.3553,505.806,491.3922,504.6274,503.4292,505.6311,515.4661,504.3874,527.503,504.903,539.5399,505.8823,551.5769,504.9269,563.6138,505.1131,575.6507,504.9858,587.6876,504.9858,587.8241,503.0517,587.8553,501.1175,587.6861,499.1834,587.8034,497.2492,587.457,495.3151,587.6876,495.6589,587.6876,495.9778,575.6507,495.8525,563.6138,496.0562,551.5769,494.7311,539.5399,494.5267,527.503,494.5639,515.4661,495.2439,503.4292,495.0775,491.3922,496.1388,479.3553,495.1039,467.3184,494.9004,455.2815,495.591,443.2445,494.509,431.2076,494.6876,419.1707,496.0996,407.1338,495.8418,395.0968,496.203,383.0599,494.9261,371.023,495.701,358.986,496.0288,346.9491,494.744,334.9122,495.1992,322.8753,495.4674,310.8383,496.103,298.8014,495.31,286.7645,495.8743,274.7276,494.6457,262.6906,494.4964,250.6537,495.3151,238.6168"/><path d="M499.546,238.6168 L499.8848,238.6168 L498.8782,250.6537 L499.8576,262.6906 L500.1902,274.7276 L498.3962,286.7645 L499.4208,298.8014 L498.8586,310.8383 L498.9279,322.8753 L499.4362,334.9122 L498.4317,346.9491 L500.4384,358.986 L498.5302,371.023 L499.2273,383.0599 L500.2422,395.0968 L499.4078,407.1338 L499.656,419.1707 L499.4945,431.2076 L499.8338,443.2445 L499.9315,455.2815 L500.49,467.3184 L500.6276,479.3553 L500.6408,491.3922 L499.9564,503.4292 L500.2932,515.4661 L500.6779,527.503 L498.3836,539.5399 L500.6396,551.5769 L499.0681,563.6138 L500.4064,575.6507 L499.546,587.6876" fill="none" style="stroke:#0000FF;stroke-width:0.6044;stroke-dasharray:6.0442,6.0442;"/></g><g><title>Sistema</title><polygon fill="#000000" fill-opacity="0.00000" points="774.2227,238.6168,774.2227,238.7015,776.1568,238.4498,778.0909,238.6947,780.0251,238.7778,781.9592,238.3293,783.8934,238.6168,783.7994,238.6168,783.3778,250.6537,783.4298,262.6906,783.811,274.7276,783.0576,286.7645,784.5626,298.8014,783.1314,310.8383,783.6543,322.8753,784.4155,334.9122,783.7897,346.9491,783.9758,358.986,783.8547,371.023,784.1092,383.0599,784.1824,395.0968,784.6014,407.1338,784.7045,419.1707,784.7145,431.2076,784.2012,443.2445,784.4538,455.2815,784.7422,467.3184,783.0216,479.3553,784.7136,491.3922,783.5349,503.4292,784.5386,515.4661,783.295,527.503,783.8105,539.5399,784.7898,551.5769,783.8344,563.6138,784.0206,575.6507,783.8934,587.6876,783.8934,587.8241,781.9592,587.8553,780.0251,587.6861,778.0909,587.8034,776.1568,587.457,774.2227,587.6876,774.5664,587.6876,774.8853,575.6507,774.76,563.6138,774.9637,551.5769,773.6387,539.5399,773.4343,527.503,773.4715,515.4661,774.1515,503.4292,773.9851,491.3922,775.0464,479.3553,774.0115,467.3184,773.808,455.2815,774.4986,443.2445,773.4166,431.2076,773.5951,419.1707,775.0071,407.1338,774.7493,395.0968,775.1105,383.0599,773.8337,371.023,774.6085,358.986,774.9364,346.9491,773.6516,334.9122,774.1068,322.8753,774.375,310.8383,775.0105,298.8014,774.2176,286.7645,774.7818,274.7276,773.5532,262.6906,773.404,250.6537,774.2227,238.6168"/><path d="M777.9109,238.6168 L778.2497,238.6168 L777.2431,250.6537 L778.2225,262.6906 L778.5551,274.7276 L776.7611,286.7645 L777.7857,298.8014 L777.2235,310.8383 L777.2928,322.8753 L777.8011,334.9122 L776.7966,346.9491 L778.8033,358.986 L776.8951,371.023 L777.5922,383.0599 L778.6071,395.0968 L777.7727,407.1338 L778.0209,419.1707 L777.8594,431.2076 L778.1987,443.2445 L778.2964,455.2815 L778.8549,467.3184 L778.9925,479.3553 L779.0058,491.3922 L778.3213,503.4292 L778.6581,515.4661 L779.0428,527.503 L776.7485,539.5399 L779.0046,551.5769 L777.433,563.6138 L778.7713,575.6507 L777.9109,587.6876" fill="none" style="stroke:#0000FF;stroke-width:0.6044;stroke-dasharray:6.0442,6.0442;"/></g><g class="participant participant-head" data-participant="OP"><text fill="#1E90FF" font-family="Aapex" font-size="20.5502" lengthAdjust="spacing" textLength="93.8525" x="146.6342" y="232.5956">Operador</text><polygon fill="#00BFFF" points="216.6352,161.5389,213.8001,165.4127,210.4467,171.0866,205.6508,174.9104,200.6111,177.0014,196.5927,177.1829,191.428,174.5678,186.5548,172.8594,182.856,169.3907,180.9157,165.4197,179.7651,162.2579,178.6379,158.1279,176.8082,154.5739,178.2142,151.104,179.446,147.3029,184.0688,144.2967,187.3211,140.3961,191.3466,139.1008,196.1322,137.9853,202.2692,138.6481,205.6305,140.2333,209.5386,140.9518,214.2904,145.8202,215.9468,150.9597,216.6665,154.4665,215.8513,160.2452" style="stroke:#00BFFF;stroke-width:0.6044;"/><path d="M197.187,181.011 L197.187,181.011 L197.2256,181.1171 L199.7704,179.8347 L202.5414,179.1745 L205.2387,178.3116 L207.6938,176.7825 L210.4842,176.1757 L210.4842,176.1757 L210.4669,176.1377 L213.0488,177.1759 L215.7178,178.4058 L218.4473,179.7688 L220.9682,180.6729 L223.7814,182.2198 L224.0522,182.3429 L224.6819,184.7392 L226.1023,187.4948 L227.6191,190.2942 L228.5748,192.8385 L229.8255,195.517 L229.8989,195.517 L229.7912,196.4841 L230.0174,197.4512 L230.0825,198.4182 L230.4549,199.3853 L229.8255,200.3524 L229.8255,200.3524 L230.0805,200.6073 L228.1495,202.5446 L226.054,204.3174 L224.1993,206.3309 L222.3558,208.3557 L220.1549,210.0231 L220.1549,209.2481 L210.9677,210.7521 L201.7806,209.7045 L192.5934,210.5967 L183.4063,209.4912 L174.2191,210.0231 L174.2191,210.0231 L174.1931,209.997 L172.5667,208.3707 L170.3323,206.1363 L168.4567,204.2607 L166.6112,202.4152 L164.5484,200.3524 L164.9957,200.3524 L164.5442,199.3853 L164.857,198.4182 L163.9334,197.4512 L164.854,196.4841 L164.5484,195.517 L164.5484,195.517 L164.8166,195.6389 L165.9747,192.9564 L167.2659,190.3344 L167.9387,187.4313 L169.0648,184.7343 L170.5926,182.2198 L170.4545,181.9159 L173.239,180.9822 L175.8678,179.7061 L178.7224,178.9266 L181.1915,177.2991 L183.8898,176.1757 L183.8898,176.1757 L183.8268,176.0025 L186.5911,177.258 L189.0862,177.7731 L191.7728,178.8148 L194.6467,180.3716 L197.187,181.011" fill="#00BFFF"/></g><g class="participant participant-head" data-participant="IHM"><text fill="#000000" font-family="sans-serif" font-size="16.9237" lengthAdjust="spacing" textLength="33.6273" x="479.7103" y="233.6582">IHM</text><path d="M475.3693,181.7194 L475.5952,181.7194 L474.9241,187.5218 L475.577,193.3242 L475.7988,199.1267 L474.6028,204.9291 L475.3693,210.7315 M475.3693,196.2254 L475.3693,196.1419 L479.4794,195.7672 L483.5894,195.8134 L487.6994,196.1522 L491.8095,195.4826 L495.9195,196.2254" fill="none" style="stroke:#181818;stroke-width:0.6044;"/><polygon fill="#E2E2F0" points="525.0117,199.7539,522.8854,202.6593,520.3704,206.9147,516.7734,209.7825,512.9936,211.3508,509.9798,211.4869,506.1063,209.5256,502.4514,208.2442,499.6773,205.6427,498.2221,202.6645,497.3591,200.2931,496.5137,197.1956,495.1415,194.5302,496.196,191.9277,497.1198,189.0769,500.5869,186.8222,503.0261,183.8968,506.0452,182.9253,509.6345,182.0887,514.2372,182.5858,516.7582,183.7747,519.6892,184.3136,523.2531,187.9649,524.4954,191.8195,525.0352,194.4496,524.4238,198.7836" style="stroke:#181818;stroke-width:0.6044;"/></g><g class="participant participant-head" data-participant="ST"><text fill="#000000" font-family="sans-serif" font-size="16.9237" lengthAdjust="spacing" textLength="62.7359" x="744.0635" y="233.6582">Sistema</text><polygon fill="#E2E2F0" points="793.6442,199.7539,791.5178,202.6593,789.0028,206.9147,785.4059,209.7825,781.6261,211.3508,778.6123,211.4869,774.7388,209.5256,771.0839,208.2442,768.3098,205.6427,766.8546,202.6645,765.9916,200.2931,765.1462,197.1956,763.7739,194.5302,764.8284,191.9277,765.7523,189.0769,769.2194,186.8222,771.6586,183.8968,774.6777,182.9253,778.2669,182.0887,782.8697,182.5858,785.3907,183.7747,788.3217,184.3136,791.8855,187.9649,793.1279,191.8195,793.6677,194.4496,793.0563,198.7836" style="stroke:#181818;stroke-width:0.6044;"/><polygon fill="#181818" points="774.2227,181.7194,774.2769,181.7845,775.5664,180.3823,777.1737,179.3616,778.6776,178.2166,779.8411,176.6632,781.4757,175.6752,781.4466,175.6636,780.8326,176.8203,780.3651,178.0355,779.9996,179.2916,779.2829,180.4071,779.058,181.7194,779.2651,181.8023,779.3057,182.8339,779.9511,184.1075,780.6702,185.4106,780.9601,186.5419,781.4757,187.7636,781.4933,187.7847,780.0168,186.5449,778.6205,185.4012,777.1856,184.2111,775.8244,183.1096,774.2227,181.7194" style="stroke:#181818;stroke-width:1.2088;"/></g><g><title>IHM</title><polygon fill="#A9DCDF" points="494.1063,279.3618,494.1063,279.4465,496.5239,279.1949,498.9416,279.4397,501.3593,279.5229,503.777,279.0744,506.1946,279.3618,506.1007,279.3618,505.6791,291.2597,505.731,303.1575,506.1122,315.0554,505.3589,326.9532,506.8639,338.8511,505.4327,350.7489,505.9556,362.6468,506.7168,374.5446,506.0909,386.4425,506.2771,398.3403,506.156,410.2382,506.4104,422.136,506.4837,434.0339,506.9026,445.9317,507.0058,457.8296,507.0157,469.7274,506.5024,481.6253,506.755,493.5232,507.0435,505.421,505.3228,517.3189,507.0148,529.2167,505.8362,541.1146,506.8399,553.0124,505.5962,564.9103,506.1946,576.8081,506.1946,576.7805,503.777,577.1069,501.3593,576.7885,498.9416,576.8505,496.5239,576.9446,494.1063,576.8081,494.6094,576.8081,494.1015,564.9103,494.4535,553.0124,493.4143,541.1146,494.45,529.2167,494.7689,517.3189,494.6436,505.421,494.8473,493.5232,493.5223,481.6253,493.3179,469.7274,493.3551,457.8296,494.0351,445.9317,493.8687,434.0339,494.93,422.136,493.8951,410.2382,493.6916,398.3403,494.3822,386.4425,493.3002,374.5446,493.4787,362.6468,494.8907,350.7489,494.6329,338.8511,494.9941,326.9532,493.7173,315.0554,494.4921,303.1575,494.82,291.2597,494.1063,279.3618" style="stroke:#181818;stroke-width:1.2088;"/></g><g><title>IHM</title><polygon fill="#A9DCDF" points="500.1504,339.0929,500.1504,339.1775,502.5681,338.9259,504.9858,339.1707,507.4035,339.2539,509.8211,338.8054,512.2388,339.0929,512.1449,339.0929,511.7232,351.0289,511.7752,362.965,512.1564,374.901,511.4031,386.8371,512.9081,398.7731,511.4769,410.7092,511.9997,422.6452,512.761,434.5813,512.1351,446.5173,512.3213,458.4534,512.2002,470.3894,512.4546,482.3255,512.5279,494.2615,512.2388,506.1976,512.2388,506.4336,509.8211,506.468,507.4035,506.4713,504.9858,506.3002,502.5681,506.3844,500.1504,506.1976,500.9993,506.1976,499.2787,494.2615,500.9707,482.3255,499.792,470.3894,500.7957,458.4534,499.552,446.5173,500.0676,434.5813,501.0469,422.6452,500.0915,410.7092,500.2777,398.7731,500.5598,386.8371,500.6536,374.901,500.1457,362.965,500.4976,351.0289,500.1504,339.0929" style="stroke:#181818;stroke-width:1.2088;"/></g><g><title>Sistema</title><polygon fill="#A9DCDF" points="773.0138,250.7052,773.0138,250.7898,775.4315,250.5382,777.8492,250.783,780.2668,250.8662,782.6845,250.4177,785.1022,250.7052,785.0082,250.7052,784.5866,262.783,784.6386,274.8609,785.0198,286.9388,784.2664,299.0167,785.7715,311.0946,784.3403,323.1725,784.8631,335.2504,785.6243,347.3283,784.9985,359.4061,785.1847,371.484,785.0636,383.5619,785.318,395.6398,785.3913,407.7177,785.8102,419.7956,785.9134,431.8735,785.9233,443.9513,785.41,456.0292,785.6626,468.1071,785.9511,480.185,784.2304,492.2629,785.9224,504.3408,784.7438,516.4187,785.7475,528.4966,784.5038,540.5744,785.0194,552.6523,785.9987,564.7302,785.1022,576.8081,785.1022,576.7885,782.6845,576.8505,780.2668,576.9446,777.8492,576.9758,775.4315,576.8065,773.0138,576.8081,773.361,576.8081,772.3219,564.7302,773.3576,552.6523,773.6765,540.5744,773.5512,528.4966,773.7549,516.4187,772.4299,504.3408,772.2255,492.2629,772.2627,480.185,772.9427,468.1071,772.7763,456.0292,773.8375,443.9513,772.8027,431.8735,772.5991,419.7956,773.2898,407.7177,772.2077,395.6398,772.3863,383.5619,773.7983,371.484,773.5405,359.4061,773.9017,347.3283,772.6248,335.2504,773.3997,323.1725,773.7276,311.0946,772.4428,299.0167,772.898,286.9388,773.1661,274.8609,773.8017,262.783,773.0138,250.7052" style="stroke:#181818;stroke-width:1.2088;"/></g><g class="message" data-participant-1="IHM" data-participant-2="ST"><polygon fill="#00BFFF" points="758.5078,274.5265,758.5393,274.6051,760.8635,275.3385,763.3721,276.5329,765.8206,277.5772,768.0717,278.1279,770.5962,279.3618,770.5845,279.3328,768.1147,280.1693,765.7034,281.1525,763.3329,282.2375,760.822,282.9714,758.5078,284.1972,758.6656,284.3549,759.2953,283.0505,760.3856,282.2067,761.5321,281.419,762.3516,280.3045,763.3431,279.3618,763.3626,279.3813,762.367,278.3857,761.4599,277.4786,760.5101,276.5288,759.6418,275.6604,758.5078,274.5265" style="stroke:#00BFFF;stroke-width:1.2088;"/><path d="M506.1946,279.3618 L506.1946,279.7006 L518.5549,278.694 L530.9152,279.6734 L543.2755,280.006 L555.6358,278.212 L567.9961,279.2366 L580.3564,278.6744 L592.7167,278.7437 L605.077,279.252 L617.4373,278.2475 L629.7976,280.2542 L642.1579,278.346 L654.5182,279.0431 L666.8785,280.058 L679.2388,279.2236 L691.599,279.4718 L703.9593,279.3103 L716.3196,279.6496 L728.6799,279.7473 L741.0402,280.3058 L753.4005,280.4434 L765.7608,279.3618" fill="none" style="stroke:#00BFFF;stroke-width:1.2088;"/><text fill="#000000" font-family="sans-serif" font-size="15.7149" lengthAdjust="spacing" textLength="105.8083" x="514.6565" y="272.3397">Solicita dados.</text></g><g class="message" data-participant-1="OP" data-participant-2="IHM"><polygon fill="#00BFFF" points="485.6444,334.2575,485.6759,334.3361,488.0001,335.0696,490.5087,336.264,492.9572,337.3082,495.2083,337.8589,497.7328,339.0929,497.7211,339.0638,495.2513,339.9004,492.84,340.8835,490.4696,341.9686,487.9586,342.7025,485.6444,343.9282,485.8022,344.0859,486.4319,342.7815,487.5222,341.9377,488.6687,341.1501,489.4883,340.0355,490.4798,339.0929,490.4992,339.1123,489.5036,338.1167,488.5965,337.2096,487.6467,336.2598,486.7784,335.3915,485.6444,334.2575" style="stroke:#00BFFF;stroke-width:1.2088;"/><path d="M197.187,339.0929 L197.187,339.4316 L209.5083,338.4251 L221.8295,339.4044 L234.1508,339.737 L246.4721,337.943 L258.7933,338.9676 L271.1146,338.4054 L283.4359,338.4747 L295.7571,338.983 L308.0784,337.9785 L320.3997,339.9852 L332.7209,338.077 L345.0422,338.7741 L357.3635,339.7891 L369.6847,338.9546 L382.006,339.2028 L394.3273,339.0414 L406.6486,339.3806 L418.9698,339.4783 L431.2911,340.0369 L443.6124,340.1744 L455.9336,340.1877 L468.2549,339.5033 L480.5762,339.84 L492.8974,339.0929" fill="none" style="stroke:#00BFFF;stroke-width:1.2088;"/><text fill="#000000" font-family="sans-serif" font-size="15.7149" lengthAdjust="spacing" textLength="163.9847" x="205.6488" y="310.6671">Navega&#231;&#227;o pelas telas</text><text fill="#000000" font-family="sans-serif" font-size="15.7149" lengthAdjust="spacing" textLength="180.0139" x="209.7347" y="332.0707">de Hist&#243;rico de Alarmes.</text></g><polygon fill="#FEFFDD" points="627.7508,354.8077,627.7508,355.0618,639.7908,354.3069,651.8308,355.0414,663.8708,355.2909,675.9108,353.9453,687.9508,354.7138,699.9908,354.2922,712.0308,354.3441,724.0708,354.7253,736.1108,353.972,748.1508,355.477,760.1908,354.0458,772.2308,354.5686,784.2708,355.3299,796.3108,354.704,808.3508,354.8902,820.3908,354.7691,832.4308,355.0235,844.4708,355.0968,856.5108,355.5157,868.5508,355.6189,880.5908,355.6288,892.6308,355.1155,904.6708,355.3681,916.7108,355.6566,928.7508,354.8077,928.4693,354.7355,931.4333,364.3045,933.4704,373.6359,936.2122,383.1479,938.2283,392.4738,940.8392,401.9523,940.8125,401.9454,938.711,411.4554,935.9848,420.8053,933.6273,430.2496,931.3007,439.7019,928.7508,449.0969,928.7508,449.6,916.7108,449.0922,904.6708,449.4441,892.6308,448.4049,880.5908,449.4407,868.5508,449.7596,856.5108,449.6343,844.4708,449.8379,832.4308,448.5129,820.3908,448.3085,808.3508,448.3457,796.3108,449.0257,784.2708,448.8593,772.2308,449.9206,760.1908,448.8857,748.1508,448.6822,736.1108,449.3728,724.0708,448.2908,712.0308,448.4694,699.9908,449.8814,687.9508,449.6235,675.9108,449.9848,663.8708,448.7079,651.8308,449.4827,639.7908,449.8106,627.7508,449.0969,627.5664,449.0496,625.2957,439.6584,622.9646,430.2517,620.7522,420.8754,618.0785,411.3808,615.6624,401.9523,615.843,401.9986,617.8639,392.468,620.2334,383.0267,623.112,373.716,625.0533,364.1649,627.7508,354.8077" style="stroke:#181818;stroke-width:0.6044;"/><text fill="#000000" font-family="sans-serif" font-size="15.7149" lengthAdjust="spacing" textLength="173.4922" x="630.1684" y="376.4423">Recupera&#231;&#227;o de Dados:</text><text fill="#000000" font-family="sans-serif" font-size="15.7149" lengthAdjust="spacing" textLength="198.5732" x="634.2543" y="397.8459">1. Consulta log de eventos;</text><text fill="#000000" font-family="sans-serif" font-size="15.7149" lengthAdjust="spacing" textLength="240.1076" x="634.2543" y="419.2496">2. Filtra os &#250;ltimos 100 registros;</text><text fill="#000000" font-family="sans-serif" font-size="15.7149" lengthAdjust="spacing" textLength="293.161" x="634.2543" y="440.6532">3. Ordena por Data/Hora (Decrescente).</text><g class="message" data-participant-1="ST" data-participant-2="IHM"><polygon fill="#00BFFF" points="519.4918,501.3622,519.5233,501.4409,517.0121,502.1743,514.6854,503.3687,512.2986,504.413,509.7144,504.9636,507.4035,506.1976,507.3918,506.1685,509.7573,507.0051,512.1814,507.9882,514.6463,509.0733,516.9707,509.8072,519.4918,511.0329,519.6496,511.1907,518.3452,509.8863,517.5013,509.0424,516.7137,508.2548,515.5991,507.1402,514.6565,506.1976,514.6759,506.217,515.6144,505.2214,516.6415,504.3143,517.6258,503.3645,518.6916,502.4962,519.4918,501.3622" style="stroke:#00BFFF;stroke-width:1.2088;"/><path d="M512.2388,506.1976 L512.2388,506.5363 L524.5991,505.5298 L536.9594,506.5091 L549.3197,506.8418 L561.68,505.0477 L574.0403,506.0723 L586.4006,505.5102 L598.7609,505.5795 L611.1212,506.0877 L623.4815,505.0832 L635.8418,507.0899 L648.202,505.1817 L660.5623,505.8788 L672.9226,506.8938 L685.2829,506.0593 L697.6432,506.3076 L710.0035,506.1461 L722.3638,506.4853 L734.7241,506.583 L747.0844,507.1416 L759.4447,507.2792 L771.805,506.1976" fill="none" style="stroke:#00BFFF;stroke-width:1.2088;stroke-dasharray:2.4177,2.4177;"/><text fill="#000000" font-family="sans-serif" font-size="15.7149" lengthAdjust="spacing" textLength="201.6847" x="526.7448" y="477.7718">Retorna a lista estruturada:</text><text fill="#000000" font-family="sans-serif" font-size="15.7149" lengthAdjust="spacing" textLength="227.6771" x="530.8307" y="499.1754">{Data/Hora, Descri&#231;&#227;o, Status}.</text></g><g class="message" data-participant-1="IHM" data-participant-2="OP"><polygon fill="#00BFFF" points="210.4842,561.0932,210.5156,561.1719,208.0045,561.9053,205.6778,563.0997,203.291,564.144,200.7067,564.6946,198.3958,565.9286,198.3842,565.8995,200.7497,566.7361,203.1738,567.7193,205.6386,568.8043,207.963,569.5382,210.4842,570.7639,210.6419,570.9217,209.3375,569.6173,208.4937,568.7734,207.706,567.9858,206.5915,566.8712,205.6488,565.9286,205.6683,565.948,206.6068,564.9524,207.6338,564.0453,208.6182,563.0955,209.684,562.2272,210.4842,561.0932" style="stroke:#00BFFF;stroke-width:1.2088;"/><path d="M203.2312,565.9286 L203.2312,566.2674 L215.3006,565.2608 L227.37,566.2401 L239.4394,566.5728 L251.5089,564.7788 L263.5783,565.8033 L275.6477,565.2412 L287.7172,565.3105 L299.7866,565.8187 L311.856,564.8143 L323.9254,566.8209 L335.9949,564.9127 L348.0643,565.6098 L360.1337,566.6248 L372.2032,565.7903 L384.2726,566.0386 L396.342,565.8771 L408.4114,566.2163 L420.4809,566.314 L432.5503,566.8726 L444.6197,567.0102 L456.6891,567.0234 L468.7586,566.339 L480.828,566.6758 L492.8974,565.9286" fill="none" style="stroke:#00BFFF;stroke-width:1.2088;"/><text fill="#000000" font-family="sans-serif" font-size="15.7149" lengthAdjust="spacing" textLength="223.937" x="217.7372" y="537.5028">Exibe a tabela com as colunas:</text><text fill="#000000" font-family="sans-serif" font-size="15.7149" lengthAdjust="spacing" textLength="263.8214" x="221.8231" y="558.9065">[Data/Hora] | [Descri&#231;&#227;o] | [Status].</text></g><text fill="#1E90FF" font-family="Arial" font-size="16.9237" lengthAdjust="spacing" textLength="4.4001" x="36.2651" y="631.1645">&#160;</text><text fill="#1E90FF" font-family="Arial" font-size="16.9237" lengthAdjust="spacing" textLength="4.4001" x="36.2651" y="654.2145">&#160;</text><text fill="#1E90FF" font-family="Arial" font-size="16.9237" font-weight="bold" lengthAdjust="spacing" textLength="187.7" x="36.2651" y="677.2645">Casos de Uso cobertos</text><text fill="#1E90FF" font-family="Arial" font-size="16.9237" lengthAdjust="spacing" textLength="4.5355" x="223.9651" y="677.2645">:</text><text fill="#1E90FF" font-family="Arial" font-size="16.9237" lengthAdjust="spacing" textLength="5.4494" x="36.2651" y="700.3145">-</text><text fill="#1E90FF" font-family="Arial" font-size="16.9237" font-weight="bold" lengthAdjust="spacing" textLength="70.5038" x="46.1146" y="700.3145">MIO-005</text><text fill="#1E90FF" font-family="Arial" font-size="16.9237" lengthAdjust="spacing" textLength="214.9979" x="121.0186" y="700.3145">Hist&#243;rico de Alarmes Local.</text><polygon fill="none" points="33.243,30.2209,33.243,30.475,45.3961,29.72,57.5492,30.4545,69.7023,30.704,81.8554,29.3585,94.0085,30.1269,106.1616,29.7053,118.3147,29.7573,130.4678,30.1385,142.6209,29.3851,154.774,30.8902,166.9271,29.459,179.0802,29.9818,191.2333,30.743,203.3864,30.1172,215.5395,30.3034,227.6926,30.1823,239.8458,30.4367,251.9989,30.51,264.152,30.9289,276.3051,31.0321,288.4582,31.042,300.6113,30.5287,312.7644,30.7813,324.9175,31.0698,337.0706,29.3491,349.2237,31.0411,361.3768,29.8625,373.5299,30.8662,385.683,29.6225,397.8361,30.1381,409.9892,31.1174,422.1423,30.162,434.2954,30.3482,446.4485,30.6302,458.6016,30.724,470.7547,30.2162,482.9078,30.5681,495.0609,29.5289,507.214,30.5647,519.3672,30.8836,531.5203,30.7583,543.6734,30.9619,555.8265,29.6369,567.9796,29.4325,580.1327,29.4697,592.2858,30.1497,604.4389,29.9833,616.592,31.0446,628.7451,30.0097,640.8982,29.8062,653.0513,30.4968,665.2044,29.4148,677.3575,29.5934,689.5106,31.0054,701.6637,30.7475,713.8168,31.1088,725.9699,29.8319,738.123,30.6067,750.2761,30.9346,762.4292,29.6498,774.5823,30.105,786.7354,30.3732,798.8886,31.0088,811.0417,30.2158,823.1948,30.7801,835.3479,29.5515,847.501,29.4022,859.6541,30.8297,871.8072,29.3542,883.9603,30.8361,896.1134,30.4707,908.2665,29.897,920.4196,29.7932,932.5727,30.7755,944.7258,29.859,956.8789,30.9364,969.032,29.5527,981.1851,30.9673,993.3382,30.8063,1005.4913,30.517,1017.6444,30.278,1029.7975,31.0992,1041.9506,30.9626,1054.1037,30.2209,1054.1298,30.2839,1055.4273,30.8518,1056.648,31.2346,1058.0607,32.0809,1059.2563,32.4029,1060.5146,32.8763,1060.5788,32.9029,1060.8192,34.0647,1061.4259,35.3782,1062.3054,36.8047,1062.7989,38.0713,1063.17,39.2872,1063.1181,39.2872,1062.7806,51.9171,1062.9054,64.547,1062.3405,77.1769,1063.6714,89.8068,1063.17,102.4367,1063.4453,102.5507,1062.8349,103.8,1062.3665,105.1082,1061.5258,106.2621,1061.0781,107.5788,1060.5146,108.8475,1060.4548,108.7032,1059.2762,109.4843,1057.9883,110.0016,1056.7532,110.6464,1055.3505,110.8864,1054.1037,111.503,1054.1037,111.3405,1041.9506,112.039,1029.7975,112.1888,1017.6444,110.8834,1005.4913,111.2686,993.3382,111.6834,981.1851,110.7646,969.032,111.9302,956.8789,111.8148,944.7258,111.3812,932.5727,111.6749,920.4196,112.3838,908.2665,111.1248,896.1134,111.8837,883.9603,111.8483,871.8072,111.6429,859.6541,111.6733,847.501,111.6401,835.3479,110.7485,823.1948,111.0184,811.0417,110.945,798.8886,111.5801,786.7354,111.6095,774.5823,111.6985,762.4292,111.1512,750.2761,111.4213,738.123,111.3576,725.9699,112.2003,713.8168,112.0186,701.6637,110.916,689.5106,111.4148,677.3575,110.8052,665.2044,111.8516,653.0513,112.2385,640.8982,112.1613,628.7451,110.9764,616.592,112.0638,604.4389,110.605,592.2858,111.7449,580.1327,111.1411,567.9796,111.6199,555.8265,111.7935,543.6734,112.0737,531.5203,110.6327,519.3672,112.0777,507.214,111.7183,495.0609,111.9325,482.9078,112.4069,470.7547,111.5096,458.6016,111.7148,446.4485,111.761,434.2954,111.7414,422.1423,111.502,409.9892,112.3621,397.8361,110.7659,385.683,112.1863,373.5299,110.7486,361.3768,110.8498,349.2237,111.5513,337.0706,111.5371,324.9175,110.9072,312.7644,112.0031,300.6113,111.6346,288.4582,112.3814,276.3051,112.3094,264.152,110.9611,251.9989,111.0219,239.8458,111.3468,227.6926,111.9327,215.5395,111.9901,203.3864,111.867,191.2333,111.0896,179.0802,112.2722,166.9271,112.2691,154.774,111.4458,142.6209,111.214,130.4678,111.0178,118.3147,111.2436,106.1616,111.6691,94.0085,111.4203,81.8554,110.9979,69.7023,112.0921,57.5492,110.9482,45.3961,112.1103,33.243,111.503,33.3089,111.662,32.0182,111.1103,30.7854,110.6986,29.3586,109.8182,28.068,109.2667,26.8322,108.8475,27.0253,108.9275,26.0789,107.4733,25.6829,106.2471,25.2819,105.0188,24.7334,103.7295,24.1767,102.4367,23.7434,102.4367,24.1248,89.8068,25.0768,77.1769,24.9606,64.547,23.4559,51.9171,24.1767,39.2872,24.2059,39.2993,24.5165,37.9257,25.2291,36.7188,25.8791,35.4858,26.4574,34.2232,26.8322,32.8763,26.7297,32.6289,28.1761,32.4944,29.3978,31.8173,30.593,31.0763,31.8882,30.5766,33.243,30.2209" style="stroke:#000000;stroke-width:1.2088;"/><text fill="#1E90FF" font-family="Arial" font-size="24.1767" font-weight="bold" lengthAdjust="spacing" textLength="990.6399" x="48.3534" y="80.2425">Diagrama de sequ&#234;ncia - M&#243;dulo de Interface e Opera&#231;&#227;o (MIO) - IHM Operacional</text><!--SRC=[dLDDRnCn4BtxLmovf5qbsnJ49GYagadLIBGRDOKBz33PTHDBNZkrlH4K-3680n8IfueBr_rZF6-M1ggUufC_nk_Dl7dpH9bSLuMaqVXabgwgKWl1UR2EEjbAEYwiwn1xogPYRYjJiFj8dSdfMKVarWHdDSsK3xBa63Ix5EAWApBoxTre_7PCx4g-bOOTIP8Vr5mvgafQ8gI-SogtL5XFzMyTL8dDuM10SYrDi5uWBTRuBiamWJGb8MRIrLy9v5uLJNx4GPf2ONDJiOdd64gySj83XYCRKv2Q2NXRsgO0_BGzCfRA-gS1_v1oTggSsnXRSE23fNNuQDkSUhZtkLFrz_fRJ9n4cw0aBoloWKFbQUyeg3LYBoGubZ9NaUJSGWUjRf7oVYgw1q9qN-wqH9SUNHEZScLtHvrALohlwr_I3wC7r1hADZt5YfBsN-4qf9dL80fG1QNuT1kA695DOnXsGphdjLpmHgaLvFTD4pozDr7Sqt_wB-ceKV4XsD9OxEnQkeOOSbRHawtuy6nCO1W13rCwXYKgZRIqNSJ7raGlulFJb4wK3kZaGwivkK0YherxbbBc2dYLLfY0KUp_QUp_taZci5CEH8dcYTabzV-MUI4nBVW1OY0nIS1LeO8rkKdjqprCZqPRy_HerfZb2-0A-L_PhTRPT4XZp0k6W0BFeu5pMyOvowsk36ygVtSFVqMVSTeoDESDoLMwgzj4zzm6KEtwNMYvm91Hi2kH92F52yTbCubUtbJr3vChfZwTrNT5fPkcJg2nk-OypbIsRVVUsIJRHsGKfxc6rmth914HViCYnBM5OnpycYJ7xD5Z0Bxn5ehDfOCRacGe098aGEiF1i-Jv74ZqckRiquRx7lCFm00]--></g></svg>