<svg xmlns="http://www.w3.org/2000/svg" xmlns:xlink="http://www.w3.org/1999/xlink" contentStyleType="text/css" data-diagram-type="SEQUENCE" height="750.3494px" preserveAspectRatio="none" style="width:828px;height:750px;background:#EEEBDC;" version="1.1" viewBox="0 0 828 750" width="828.9487px" zoomAndPan="magnify"><defs/><g><rect fill="#EEEBDC" height="750.3494" style="stroke:none;stroke-width:0.9139;" width="828.9487" x="0" y="0"/><g><title>IHM</title><polygon fill="#A9DCDF" points="285.1392,189.5468,285.1392,189.6108,286.9671,189.4205,288.795,189.6057,290.6229,189.6685,292.4508,189.3294,294.2787,189.5468,294.2077,189.5468,293.8889,197.9874,293.9282,206.428,294.2164,214.8686,293.6468,223.3092,294.7847,231.7498,294.2787,240.1904,294.2787,239.9983,292.4508,240.1301,290.6229,240.3219,288.795,240.1642,286.9671,240.2111,285.1392,240.1904,285.11,240.1904,285.3024,231.7498,285.3578,223.3092,285.6745,214.8686,285.7525,206.428,285.76,197.9874,285.1392,189.5468" style="stroke:#181818;stroke-width:0.9139;"/></g><g><title>IHM</title><polygon fill="#A9DCDF" points="285.1392,317.9836,285.1392,318.0477,286.9671,317.8574,288.795,318.0425,290.6229,318.1054,292.4508,317.7663,294.2787,317.9836,294.2077,317.9836,293.8889,327.2797,293.9282,336.5758,294.2164,345.8719,293.6468,355.168,294.7847,364.4641,293.7026,373.7602,294.0979,383.0563,294.6735,392.3525,294.2003,401.6486,294.341,410.9447,294.2495,420.2408,294.4418,429.5369,294.4972,438.833,294.814,448.1291,294.892,457.4252,294.8995,466.7213,294.5114,476.0174,294.7024,485.3135,294.9205,494.6096,293.6196,503.9057,294.8988,513.2018,294.0077,522.4979,294.2787,531.794,294.2787,531.9566,292.4508,531.6432,290.6229,531.7731,288.795,532.0199,286.9671,531.7792,285.1392,531.794,285.2355,531.794,285.4487,522.4979,285.5196,513.2018,285.1357,503.9057,285.4017,494.6096,284.6161,485.3135,285.3991,476.0174,285.6402,466.7213,285.5455,457.4252,285.6995,448.1291,284.6977,438.833,284.5432,429.5369,284.5713,420.2408,285.0854,410.9447,284.9596,401.6486,285.762,392.3525,284.9796,383.0563,284.8257,373.7602,285.3479,364.4641,284.5298,355.168,284.6648,345.8719,285.7323,336.5758,285.5374,327.2797,285.1392,317.9836" style="stroke:#181818;stroke-width:0.9139;"/></g><g><title>FIltragem de permiss.es</title><polygon fill="#A9DCDF" points="431.8897,189.5468,431.8897,189.6108,433.7176,189.4205,435.5455,189.6057,437.3734,189.6685,439.2013,189.3294,441.0292,189.5468,440.9582,189.5468,440.6394,198.7042,440.6787,207.8616,440.9669,217.019,440.3973,226.1764,441.5352,235.3338,440.4531,244.4913,440.8484,253.6487,441.424,262.8061,440.9508,271.9635,441.0915,281.1209,441,290.2783,441.1923,299.4357,441.2477,308.5932,441.5645,317.7506,441.6425,326.908,441.65,336.0654,441.2619,345.2228,441.4529,354.3802,441.671,363.5377,440.3701,372.6951,441.6493,381.8525,440.7582,391.0099,441.5171,400.1673,440.5768,409.3247,440.9666,418.4821,441.707,427.6396,440.9846,436.797,441.1254,445.9544,441.3387,455.1118,441.4096,464.2692,441.0256,473.4266,441.2917,482.584,440.506,491.7415,441.2891,500.8989,441.5302,510.0563,441.4355,519.2137,441.5895,528.3711,440.5877,537.5285,440.4331,546.686,440.4613,555.8434,440.9754,565.0008,440.8496,574.1582,441.652,583.3156,440.8695,592.473,441.0292,601.6304,441.0292,601.5259,439.2013,601.7,437.3734,601.4273,435.5455,601.4723,433.7176,601.8281,431.8897,601.6304,432.2879,601.6304,432.561,592.473,431.5956,583.3156,432.1815,574.1582,432.4293,565.0008,431.458,555.8434,431.8021,546.686,432.0049,537.5285,432.4854,528.3711,431.8859,519.2137,432.3125,510.0563,431.3836,500.8989,431.2708,491.7415,432.35,482.584,431.2345,473.4266,432.3549,464.2692,432.0786,455.1118,431.6449,445.9544,431.5664,436.797,432.309,427.6396,431.6162,418.4821,432.4307,409.3247,431.3845,400.1673,432.454,391.0099,432.3324,381.8525,432.1136,372.6951,431.9329,363.5377,432.5538,354.3802,432.4505,345.2228,432.0444,336.0654,432.1348,326.908,431.7707,317.7506,432.5445,308.5932,432.0313,299.4357,432.0474,290.2783,431.3337,281.1209,431.5194,271.9635,432.3748,262.8061,432.2825,253.6487,431.8505,244.4913,431.5953,235.3338,431.6896,226.1764,431.2626,217.019,432.2688,207.8616,432.5656,198.7042,431.8897,189.5468" style="stroke:#181818;stroke-width:0.9139;"/></g><g><title>Sistema</title><polygon fill="#A9DCDF" points="638.4032,189.5468,638.4032,189.6108,640.2311,189.4205,642.059,189.6057,643.8869,189.6685,645.7148,189.3294,647.5427,189.5468,647.4716,189.5468,647.1529,198.7042,647.1922,207.8616,647.4804,217.019,646.9108,226.1764,648.0487,235.3338,646.9666,244.4913,647.3619,253.6487,647.9374,262.8061,647.4643,271.9635,647.605,281.1209,647.5135,290.2783,647.7058,299.4357,647.7612,308.5932,648.0779,317.7506,648.156,326.908,648.1635,336.0654,647.7754,345.2228,647.9663,354.3802,648.1845,363.5377,646.8835,372.6951,648.1628,381.8525,647.2717,391.0099,648.0305,400.1673,647.0902,409.3247,647.4801,418.4821,648.2204,427.6396,647.4981,436.797,647.6389,445.9544,647.8521,455.1118,647.9231,464.2692,647.5391,473.4266,647.8052,482.584,647.0195,491.7415,647.8026,500.8989,648.0437,510.0563,647.9489,519.2137,648.1029,528.3711,647.1011,537.5285,646.9466,546.686,646.9747,555.8434,647.4888,565.0008,647.363,574.1582,648.1654,583.3156,647.383,592.473,647.5427,601.6304,647.5427,601.5259,645.7148,601.7,643.8869,601.4273,642.059,601.4723,640.2311,601.8281,638.4032,601.6304,638.8014,601.6304,639.0745,592.473,638.1091,583.3156,638.6949,574.1582,638.9428,565.0008,637.9714,555.8434,638.3156,546.686,638.5183,537.5285,638.9989,528.3711,638.3994,519.2137,638.826,510.0563,637.8971,500.8989,637.7842,491.7415,638.8635,482.584,637.748,473.4266,638.8684,464.2692,638.592,455.1118,638.1583,445.9544,638.0799,436.797,638.8225,427.6396,638.1296,418.4821,638.9441,409.3247,637.898,400.1673,638.9675,391.0099,638.8458,381.8525,638.6271,372.6951,638.4464,363.5377,639.0673,354.3802,638.964,345.2228,638.5579,336.0654,638.6483,326.908,638.2841,317.7506,639.058,308.5932,638.5447,299.4357,638.5609,290.2783,637.8472,281.1209,638.0329,271.9635,638.8883,262.8061,638.796,253.6487,638.364,244.4913,638.1088,235.3338,638.2031,226.1764,637.7761,217.019,638.7822,207.8616,639.0791,198.7042,638.4032,189.5468" style="stroke:#181818;stroke-width:0.9139;"/></g><g><title>Operador</title><polygon fill="#000000" fill-opacity="0.00000" points="111.3533,180.4073,111.3533,180.4713,112.8156,180.2811,114.2779,180.4662,115.7402,180.5291,117.2025,180.19,118.6648,180.4073,118.5938,180.4073,118.275,189.5445,118.3143,198.6817,118.6025,207.8189,118.033,216.9561,119.1708,226.0933,118.0888,235.2305,118.4841,244.3677,119.0596,253.505,118.5864,262.6422,118.7272,271.7794,118.6356,280.9166,118.828,290.0538,118.8834,299.191,119.2001,308.3282,119.2781,317.4654,119.2856,326.6026,118.8975,335.7398,119.0885,344.877,119.3066,354.0142,118.0057,363.1514,119.285,372.2886,118.3938,381.4258,119.1527,390.563,118.2124,399.7002,118.6022,408.8374,119.3426,417.9746,118.6203,427.1119,118.7611,436.2491,118.9743,445.3863,119.0452,454.5235,118.6613,463.6607,118.9273,472.7979,118.1417,481.9351,118.9247,491.0723,119.1658,500.2095,119.0711,509.3467,119.2251,518.4839,118.2233,527.6211,118.0688,536.7583,118.0969,545.8955,118.611,555.0327,118.4852,564.1699,119.2876,573.3071,118.5052,582.4443,118.3513,591.5815,118.8735,600.7188,118.6648,609.856,118.6648,609.6528,117.2025,609.6978,115.7402,610.0537,114.2779,609.9887,112.8156,610.0797,111.3533,609.856,111.0592,609.856,111.645,600.7188,111.8929,591.5815,110.9215,582.4443,111.2657,573.3071,111.4684,564.1699,111.9489,555.0327,111.3494,545.8955,111.776,536.7583,110.8471,527.6211,110.7343,518.4839,111.8135,509.3467,110.698,500.2095,111.8184,491.0723,111.5421,481.9351,111.1084,472.7979,111.0299,463.6607,111.7725,454.5235,111.0797,445.3863,111.8942,436.2491,110.8481,427.1119,111.9176,417.9746,111.7959,408.8374,111.5772,399.7002,111.3964,390.563,112.0173,381.4258,111.914,372.2886,111.508,363.1514,111.5984,354.0142,111.2342,344.877,112.0081,335.7398,111.4948,326.6026,111.511,317.4654,110.7973,308.3282,110.9829,299.191,111.8383,290.0538,111.746,280.9166,111.314,271.7794,111.0588,262.6422,111.1532,253.505,110.7261,244.3677,111.7323,235.2305,112.0292,226.0933,111.8344,216.9561,111.9884,207.8189,111.2283,198.6817,111.433,189.5445,111.3533,180.4073"/><path d="M114.2602,180.4073 L114.5163,180.4073 L113.7553,189.5445 L114.4957,198.6817 L114.7472,207.8189 L113.3908,216.9561 L114.1655,226.0933 L113.7404,235.2305 L113.7928,244.3677 L114.1771,253.505 L113.4177,262.6422 L114.9348,271.7794 L113.4921,280.9166 L114.0192,290.0538 L114.7865,299.191 L114.1556,308.3282 L114.3433,317.4654 L114.2212,326.6026 L114.4777,335.7398 L114.5516,344.877 L114.9739,354.0142 L115.0779,363.1514 L115.0879,372.2886 L114.5704,381.4258 L114.8251,390.563 L115.1159,399.7002 L113.3813,408.8374 L115.087,417.9746 L113.8988,427.1119 L114.9107,436.2491 L113.6569,445.3863 L114.1767,454.5235 L115.1639,463.6607 L114.2008,472.7979 L114.3885,481.9351 L114.6728,491.0723 L114.7674,500.2095 L114.2554,509.3467 L114.6102,518.4839 L113.5626,527.6211 L114.6067,536.7583 L114.9282,545.8955 L114.8019,555.0327 L115.0072,564.1699 L113.6715,573.3071 L113.4654,582.4443 L113.5029,591.5815 L114.1884,600.7188 L114.2602,609.856" fill="none" style="stroke:#0000FF;stroke-width:0.457;stroke-dasharray:4.5697,4.5697;"/></g><g><title>IHM</title><polygon fill="#000000" fill-opacity="0.00000" points="286.0532,180.4073,286.0532,180.4713,287.5155,180.2811,288.9778,180.4662,290.4401,180.5291,291.9024,180.19,293.3647,180.4073,293.2937,180.4073,292.9749,189.5445,293.0142,198.6817,293.3024,207.8189,292.7329,216.9561,293.8707,226.0933,292.7887,235.2305,293.184,244.3677,293.7595,253.505,293.2863,262.6422,293.4271,271.7794,293.3355,280.9166,293.5279,290.0538,293.5833,299.191,293.9,308.3282,293.978,317.4654,293.9855,326.6026,293.5975,335.7398,293.7884,344.877,294.0065,354.0142,292.7056,363.1514,293.9849,372.2886,293.0937,381.4258,293.8526,390.563,292.9123,399.7002,293.3021,408.8374,294.0425,417.9746,293.3202,427.1119,293.461,436.2491,293.6742,445.3863,293.7452,454.5235,293.3612,463.6607,293.6272,472.7979,292.8416,481.9351,293.6247,491.0723,293.8658,500.2095,293.771,509.3467,293.925,518.4839,292.9232,527.6211,292.7687,536.7583,292.7968,545.8955,293.3109,555.0327,293.1851,564.1699,293.9875,573.3071,293.2051,582.4443,293.0512,591.5815,293.5734,600.7188,293.3647,609.856,293.3647,609.6528,291.9024,609.6978,290.4401,610.0537,288.9778,609.9887,287.5155,610.0797,286.0532,609.856,285.7591,609.856,286.3449,600.7188,286.5928,591.5815,285.6214,582.4443,285.9656,573.3071,286.1683,564.1699,286.6488,555.0327,286.0493,545.8955,286.4759,536.7583,285.547,527.6211,285.4342,518.4839,286.5134,509.3467,285.3979,500.2095,286.5183,491.0723,286.242,481.9351,285.8083,472.7979,285.7298,463.6607,286.4725,454.5235,285.7796,445.3863,286.5941,436.2491,285.548,427.1119,286.6175,417.9746,286.4958,408.8374,286.2771,399.7002,286.0963,390.563,286.7173,381.4258,286.6139,372.2886,286.2079,363.1514,286.2983,354.0142,285.9341,344.877,286.708,335.7398,286.1947,326.6026,286.2109,317.4654,285.4972,308.3282,285.6828,299.191,286.5382,290.0538,286.446,280.9166,286.0139,271.7794,285.7587,262.6422,285.8531,253.505,285.426,244.3677,286.4322,235.2305,286.7291,226.0933,286.5343,216.9561,286.6883,207.8189,285.9282,198.6817,286.1329,189.5445,286.0532,180.4073"/><path d="M289.252,180.4073 L289.5081,180.4073 L288.7471,189.5445 L289.4875,198.6817 L289.739,207.8189 L288.3826,216.9561 L289.1573,226.0933 L288.7323,235.2305 L288.7847,244.3677 L289.1689,253.505 L288.4095,262.6422 L289.9266,271.7794 L288.4839,280.9166 L289.011,290.0538 L289.7784,299.191 L289.1475,308.3282 L289.3351,317.4654 L289.2131,326.6026 L289.4695,335.7398 L289.5434,344.877 L289.9657,354.0142 L290.0697,363.1514 L290.0797,372.2886 L289.5623,381.4258 L289.8169,390.563 L290.1077,399.7002 L288.3731,408.8374 L290.0788,417.9746 L288.8907,427.1119 L289.9025,436.2491 L288.6487,445.3863 L289.1685,454.5235 L290.1557,463.6607 L289.1926,472.7979 L289.3803,481.9351 L289.6646,491.0723 L289.7592,500.2095 L289.2472,509.3467 L289.602,518.4839 L288.5544,527.6211 L289.5985,536.7583 L289.92,545.8955 L289.7937,555.0327 L289.999,564.1699 L288.6633,573.3071 L288.4572,582.4443 L288.4947,591.5815 L289.1802,600.7188 L289.252,609.856" fill="none" style="stroke:#0000FF;stroke-width:0.457;stroke-dasharray:4.5697,4.5697;"/></g><g><title>FIltragem de permiss.es</title><polygon fill="#000000" fill-opacity="0.00000" points="432.8037,180.4073,432.8037,180.4713,434.266,180.2811,435.7283,180.4662,437.1906,180.5291,438.6529,180.19,440.1152,180.4073,440.0442,180.4073,439.7254,189.5445,439.7647,198.6817,440.0529,207.8189,439.4834,216.9561,440.6212,226.0933,439.5392,235.2305,439.9345,244.3677,440.51,253.505,440.0368,262.6422,440.1776,271.7794,440.086,280.9166,440.2784,290.0538,440.3338,299.191,440.6505,308.3282,440.7285,317.4654,440.736,326.6026,440.348,335.7398,440.5389,344.877,440.757,354.0142,439.4561,363.1514,440.7354,372.2886,439.8442,381.4258,440.6031,390.563,439.6628,399.7002,440.0526,408.8374,440.793,417.9746,440.0707,427.1119,440.2115,436.2491,440.4247,445.3863,440.4957,454.5235,440.1117,463.6607,440.3777,472.7979,439.5921,481.9351,440.3752,491.0723,440.6163,500.2095,440.5215,509.3467,440.6755,518.4839,439.6737,527.6211,439.5192,536.7583,439.5473,545.8955,440.0614,555.0327,439.9356,564.1699,440.738,573.3071,439.9556,582.4443,439.8017,591.5815,440.3239,600.7188,440.1152,609.856,440.1152,609.6528,438.6529,609.6978,437.1906,610.0537,435.7283,609.9887,434.266,610.0797,432.8037,609.856,432.5096,609.856,433.0954,600.7188,433.3433,591.5815,432.3719,582.4443,432.7161,573.3071,432.9188,564.1699,433.3993,555.0327,432.7998,545.8955,433.2264,536.7583,432.2975,527.6211,432.1847,518.4839,433.2639,509.3467,432.1484,500.2095,433.2688,491.0723,432.9925,481.9351,432.5588,472.7979,432.4803,463.6607,433.223,454.5235,432.5301,445.3863,433.3446,436.2491,432.2985,427.1119,433.368,417.9746,433.2463,408.8374,433.0276,399.7002,432.8468,390.563,433.4678,381.4258,433.3644,372.2886,432.9584,363.1514,433.0488,354.0142,432.6846,344.877,433.4585,335.7398,432.9452,326.6026,432.9614,317.4654,432.2477,308.3282,432.4333,299.191,433.2887,290.0538,433.1965,280.9166,432.7644,271.7794,432.5092,262.6422,432.6036,253.505,432.1765,244.3677,433.1827,235.2305,433.4796,226.0933,433.2848,216.9561,433.4388,207.8189,432.6787,198.6817,432.8834,189.5445,432.8037,180.4073"/><path d="M436.398,180.4073 L436.6541,180.4073 L435.8931,189.5445 L436.6335,198.6817 L436.8851,207.8189 L435.5287,216.9561 L436.3033,226.0933 L435.8783,235.2305 L435.9307,244.3677 L436.3149,253.505 L435.5555,262.6422 L437.0727,271.7794 L435.6299,280.9166 L436.157,290.0538 L436.9244,299.191 L436.2935,308.3282 L436.4812,317.4654 L436.3591,326.6026 L436.6156,335.7398 L436.6894,344.877 L437.1117,354.0142 L437.2157,363.1514 L437.2257,372.2886 L436.7083,381.4258 L436.9629,390.563 L437.2537,399.7002 L435.5192,408.8374 L437.2248,417.9746 L436.0367,427.1119 L437.0485,436.2491 L435.7948,445.3863 L436.3145,454.5235 L437.3017,463.6607 L436.3386,472.7979 L436.5263,481.9351 L436.8107,491.0723 L436.9052,500.2095 L436.3932,509.3467 L436.748,518.4839 L435.7005,527.6211 L436.7446,536.7583 L437.066,545.8955 L436.9397,555.0327 L437.145,564.1699 L435.8093,573.3071 L435.6033,582.4443 L435.6408,591.5815 L436.3263,600.7188 L436.398,609.856" fill="none" style="stroke:#0000FF;stroke-width:0.457;stroke-dasharray:4.5697,4.5697;"/></g><g><title>Sistema</title><polygon fill="#000000" fill-opacity="0.00000" points="639.3171,180.4073,639.3171,180.4713,640.7795,180.2811,642.2418,180.4662,643.7041,180.5291,645.1664,180.19,646.6287,180.4073,646.5577,180.4073,646.2389,189.5445,646.2782,198.6817,646.5664,207.8189,645.9968,216.9561,647.1347,226.0933,646.0527,235.2305,646.448,244.3677,647.0235,253.505,646.5503,262.6422,646.6911,271.7794,646.5995,280.9166,646.7919,290.0538,646.8473,299.191,647.164,308.3282,647.242,317.4654,647.2495,326.6026,646.8614,335.7398,647.0524,344.877,647.2705,354.0142,645.9696,363.1514,647.2488,372.2886,646.3577,381.4258,647.1166,390.563,646.1763,399.7002,646.5661,408.8374,647.3065,417.9746,646.5842,427.1119,646.725,436.2491,646.9382,445.3863,647.0091,454.5235,646.6251,463.6607,646.8912,472.7979,646.1056,481.9351,646.8886,491.0723,647.1297,500.2095,647.035,509.3467,647.189,518.4839,646.1872,527.6211,646.0327,536.7583,646.0608,545.8955,646.5749,555.0327,646.4491,564.1699,647.2515,573.3071,646.4691,582.4443,646.3152,591.5815,646.8373,600.7188,646.6287,609.856,646.6287,609.6528,645.1664,609.6978,643.7041,610.0537,642.2418,609.9887,640.7795,610.0797,639.3171,609.856,639.023,609.856,639.6089,600.7188,639.8568,591.5815,638.8854,582.4443,639.2295,573.3071,639.4323,564.1699,639.9128,555.0327,639.3133,545.8955,639.7399,536.7583,638.811,527.6211,638.6982,518.4839,639.7774,509.3467,638.6619,500.2095,639.7823,491.0723,639.506,481.9351,639.0723,472.7979,638.9938,463.6607,639.7364,454.5235,639.0436,445.3863,639.8581,436.2491,638.812,427.1119,639.8814,417.9746,639.7598,408.8374,639.541,399.7002,639.3603,390.563,639.9812,381.4258,639.8779,372.2886,639.4718,363.1514,639.5623,354.0142,639.1981,344.877,639.9719,335.7398,639.4587,326.6026,639.4749,317.4654,638.7611,308.3282,638.9468,299.191,639.8022,290.0538,639.7099,280.9166,639.2779,271.7794,639.0227,262.6422,639.1171,253.505,638.69,244.3677,639.6962,235.2305,639.9931,226.0933,639.7982,216.9561,639.9523,207.8189,639.1922,198.6817,639.3969,189.5445,639.3171,180.4073"/><path d="M642.1057,180.4073 L642.3618,180.4073 L641.6008,189.5445 L642.3412,198.6817 L642.5927,207.8189 L641.2363,216.9561 L642.011,226.0933 L641.586,235.2305 L641.6384,244.3677 L642.0226,253.505 L641.2632,262.6422 L642.7803,271.7794 L641.3376,280.9166 L641.8647,290.0538 L642.632,299.191 L642.0012,308.3282 L642.1888,317.4654 L642.0668,326.6026 L642.3232,335.7398 L642.3971,344.877 L642.8194,354.0142 L642.9234,363.1514 L642.9334,372.2886 L642.416,381.4258 L642.6706,390.563 L642.9614,399.7002 L641.2268,408.8374 L642.9325,417.9746 L641.7444,427.1119 L642.7562,436.2491 L641.5024,445.3863 L642.0222,454.5235 L643.0094,463.6607 L642.0463,472.7979 L642.234,481.9351 L642.5183,491.0723 L642.6129,500.2095 L642.1009,509.3467 L642.4557,518.4839 L641.4081,527.6211 L642.4522,536.7583 L642.7737,545.8955 L642.6474,555.0327 L642.8527,564.1699 L641.517,573.3071 L641.3109,582.4443 L641.3484,591.5815 L642.0339,600.7188 L642.1057,609.856" fill="none" style="stroke:#0000FF;stroke-width:0.457;stroke-dasharray:4.5697,4.5697;"/></g><g class="participant participant-head" data-participant="OP"><text fill="#1E90FF" font-family="Aapex" font-size="15.5371" lengthAdjust="spacing" textLength="70.9576" x="76.7884" y="175.855">Operador</text><polygon fill="#00BFFF" points="129.713,122.1322,127.5695,125.061,125.0341,129.3508,121.4082,132.2418,117.5979,133.8227,114.5597,133.9599,110.6549,131.9828,106.9705,130.6911,104.174,128.0686,102.7071,125.0663,101.8372,122.6758,100.9849,119.5533,99.6016,116.8663,100.6646,114.2429,101.5959,111.369,105.091,109.0961,107.5499,106.1471,110.5934,105.1678,114.2116,104.3244,118.8515,104.8255,121.3928,106.024,124.3475,106.5673,127.9401,110.2481,129.1925,114.1338,129.7366,116.7851,129.1203,121.1541" style="stroke:#00BFFF;stroke-width:0.457;"/><path d="M115.009,136.8542 L115.009,136.8542 L115.0382,136.9344 L116.9622,135.9649 L119.0572,135.4657 L121.0966,134.8133 L122.9527,133.6572 L125.0624,133.1984 L125.0624,133.1984 L125.0494,133.1697 L127.0014,133.9546 L129.0193,134.8845 L131.083,135.915 L132.989,136.5985 L135.1159,137.7681 L135.3206,137.8612 L135.7967,139.6729 L136.8706,141.7563 L138.0174,143.8728 L138.7399,145.7964 L139.6856,147.8215 L139.741,147.8215 L139.6596,148.5527 L139.8306,149.2839 L139.8799,150.015 L140.1614,150.7462 L139.6856,151.4773 L139.6856,151.4773 L139.8783,151.6701 L138.4184,153.1347 L136.8341,154.4751 L135.4318,155.9974 L134.038,157.5283 L132.374,158.7889 L132.374,158.203 L125.428,159.3401 L118.482,158.548 L111.5361,159.2226 L104.5901,158.3867 L97.6441,158.7889 L97.6441,158.7889 L97.6244,158.7692 L96.3948,157.5396 L94.7055,155.8503 L93.2874,154.4322 L91.8921,153.0369 L90.3325,151.4773 L90.6707,151.4773 L90.3293,150.7462 L90.5658,150.015 L89.8675,149.2839 L90.5635,148.5527 L90.3325,147.8215 L90.3325,147.8215 L90.5352,147.9137 L91.4108,145.8856 L92.3871,143.9032 L92.8957,141.7083 L93.7471,139.6692 L94.9022,137.7681 L94.7978,137.5384 L96.903,136.8324 L98.8906,135.8676 L101.0488,135.2783 L102.9156,134.0478 L104.9556,133.1984 L104.9556,133.1984 L104.908,133.0675 L106.998,134.0167 L108.8844,134.4062 L110.9156,135.1937 L113.0885,136.3708 L115.009,136.8542" fill="#00BFFF"/></g><g class="participant participant-head" data-participant="IHM"><text fill="#000000" font-family="sans-serif" font-size="12.7952" lengthAdjust="spacing" textLength="25.424" x="274.2551" y="176.6583">IHM</text><path d="M270.9731,137.3898 L271.1438,137.3898 L270.6365,141.7767 L271.1301,146.1637 L271.2978,150.5506 L270.3935,154.9376 L270.9731,159.3245 M270.9731,148.3571 L270.9731,148.294 L274.0805,148.0107 L277.1879,148.0456 L280.2953,148.3018 L283.4027,147.7955 L286.5101,148.3571" fill="none" style="stroke:#181818;stroke-width:0.457;"/><polygon fill="#E2E2F0" points="308.5054,151.0248,306.8978,153.2215,304.9963,156.4388,302.2768,158.607,299.4191,159.7927,297.1405,159.8956,294.2119,158.4127,291.4486,157.444,289.3512,155.4771,288.251,153.2254,287.5986,151.4325,286.9594,149.0907,285.9219,147.0754,286.7191,145.1078,287.4176,142.9525,290.0389,141.2478,291.8831,139.036,294.1657,138.3015,296.8794,137.669,300.3593,138.0448,302.2653,138.9437,304.4813,139.3511,307.1758,142.1117,308.1151,145.026,308.5232,147.0145,308.0609,150.2913" style="stroke:#181818;stroke-width:0.457;"/></g><g class="participant participant-head" data-participant="Z"><polygon fill="#1E90FF" points="341.8046,145.5367,341.8046,145.7288,350.8194,145.158,359.8341,145.7133,368.8489,145.902,377.8636,144.8847,386.8784,145.4657,395.8931,145.1469,404.9078,145.1862,413.9226,145.4744,422.9373,144.9048,431.9521,146.0427,440.9668,144.9606,449.9816,145.3559,458.9963,145.9315,468.0111,145.4583,477.0258,145.599,486.0406,145.5075,495.0553,145.6998,504.07,145.7552,513.0848,146.072,522.0995,146.15,531.1143,145.5367,531.1935,145.7279,531.4671,145.7422,531.8146,145.9348,532.1655,146.1359,532.3227,145.8691,532.7299,146.2059,532.9209,146.285,532.7803,146.4945,533.1479,146.9144,532.9921,147.1176,533.246,147.4904,533.3991,147.8215,533.6251,147.8215,533.3843,153.6989,533.4312,159.5763,533.5023,165.4537,533.5259,171.3311,533.3991,177.2085,533.398,177.208,533.3461,177.5651,532.9703,177.788,533.0777,178.211,533.0181,178.5649,532.7299,178.8241,532.7817,178.9493,532.4783,179.1305,532.0273,178.9559,531.6845,179.0421,531.365,179.1846,531.1143,179.4934,531.1143,179.4396,522.0995,179.3138,513.0848,180.1161,504.07,179.3337,495.0553,179.1798,486.0406,179.702,477.0258,178.8839,468.0111,179.0189,458.9963,180.0865,449.9816,179.8915,440.9668,180.1647,431.9521,179.1993,422.9373,179.7851,413.9226,180.033,404.9078,179.0616,395.8931,179.4058,386.8784,179.6085,377.8636,180.089,368.8489,179.4895,359.8341,179.9161,350.8194,178.9872,341.8046,179.4934,341.7257,179.3027,341.5402,179.5013,341.0748,179.0239,340.8946,179.2351,340.5362,179.0161,340.189,178.8241,340.1136,178.7929,339.9556,178.4598,340.0504,178.2314,339.7032,177.8199,339.8202,177.6006,339.5198,177.2085,339.3514,177.2085,339.7079,171.3311,339.6673,165.4537,339.5944,159.5763,339.5342,153.6989,339.5198,147.8215,339.7243,147.9063,339.8263,147.5699,339.8351,147.195,339.9968,146.8834,340.0185,146.5138,340.189,146.2059,340.2725,146.4076,340.5302,146.1156,340.8554,145.9868,341.0874,145.6331,341.4343,145.5565,341.8046,145.5367" style="stroke:#00BFFF;stroke-width:0.457;"/><text fill="#A9DCDF" font-family="Impact" font-size="15.5371" lengthAdjust="spacing" textLength="181.0841" x="345.9174" y="168.5434">FIltragem de permiss&#245;es</text></g><g class="participant participant-head" data-participant="ST"><text fill="#000000" font-family="sans-serif" font-size="12.7952" lengthAdjust="spacing" textLength="47.4318" x="616.5152" y="176.6583">Sistema</text><polygon fill="#E2E2F0" points="654.0009,151.0248,652.3932,153.2215,650.4918,156.4388,647.7723,158.607,644.9145,159.7927,642.6359,159.8956,639.7073,158.4127,636.944,157.444,634.8467,155.4771,633.7465,153.2254,633.094,151.4325,632.4548,149.0907,631.4173,147.0754,632.2146,145.1078,632.9131,142.9525,635.5344,141.2478,637.3785,139.036,639.6612,138.3015,642.3748,137.669,645.8548,138.0448,647.7608,138.9437,649.9768,139.3511,652.6712,142.1117,653.6105,145.026,654.0186,147.0145,653.5564,150.2913" style="stroke:#181818;stroke-width:0.457;"/><polygon fill="#181818" points="639.3171,137.3898,639.3581,137.439,640.3331,136.3789,641.5483,135.6071,642.6853,134.7415,643.565,133.5671,644.8008,132.8201,644.7788,132.8113,644.3146,133.6858,643.9612,134.6046,643.6848,135.5542,643.1429,136.3976,642.9729,137.3898,643.1295,137.4524,643.1602,138.2324,643.6481,139.1953,644.1918,140.1805,644.411,141.0359,644.8008,141.9595,644.8141,141.9755,643.6979,141.0381,642.6422,140.1734,641.5573,139.2737,640.5281,138.4408,639.3171,137.3898" style="stroke:#181818;stroke-width:0.9139;"/></g><g><title>IHM</title><polygon fill="#A9DCDF" points="285.1392,189.5468,285.1392,189.6108,286.9671,189.4205,288.795,189.6057,290.6229,189.6685,292.4508,189.3294,294.2787,189.5468,294.2077,189.5468,293.8889,197.9874,293.9282,206.428,294.2164,214.8686,293.6468,223.3092,294.7847,231.7498,294.2787,240.1904,294.2787,239.9983,292.4508,240.1301,290.6229,240.3219,288.795,240.1642,286.9671,240.2111,285.1392,240.1904,285.11,240.1904,285.3024,231.7498,285.3578,223.3092,285.6745,214.8686,285.7525,206.428,285.76,197.9874,285.1392,189.5468" style="stroke:#181818;stroke-width:0.9139;"/></g><g><title>IHM</title><polygon fill="#A9DCDF" points="285.1392,317.9836,285.1392,318.0477,286.9671,317.8574,288.795,318.0425,290.6229,318.1054,292.4508,317.7663,294.2787,317.9836,294.2077,317.9836,293.8889,327.2797,293.9282,336.5758,294.2164,345.8719,293.6468,355.168,294.7847,364.4641,293.7026,373.7602,294.0979,383.0563,294.6735,392.3525,294.2003,401.6486,294.341,410.9447,294.2495,420.2408,294.4418,429.5369,294.4972,438.833,294.814,448.1291,294.892,457.4252,294.8995,466.7213,294.5114,476.0174,294.7024,485.3135,294.9205,494.6096,293.6196,503.9057,294.8988,513.2018,294.0077,522.4979,294.2787,531.794,294.2787,531.9566,292.4508,531.6432,290.6229,531.7731,288.795,532.0199,286.9671,531.7792,285.1392,531.794,285.2355,531.794,285.4487,522.4979,285.5196,513.2018,285.1357,503.9057,285.4017,494.6096,284.6161,485.3135,285.3991,476.0174,285.6402,466.7213,285.5455,457.4252,285.6995,448.1291,284.6977,438.833,284.5432,429.5369,284.5713,420.2408,285.0854,410.9447,284.9596,401.6486,285.762,392.3525,284.9796,383.0563,284.8257,373.7602,285.3479,364.4641,284.5298,355.168,284.6648,345.8719,285.7323,336.5758,285.5374,327.2797,285.1392,317.9836" style="stroke:#181818;stroke-width:0.9139;"/></g><g><title>FIltragem de permiss.es</title><polygon fill="#A9DCDF" points="431.8897,189.5468,431.8897,189.6108,433.7176,189.4205,435.5455,189.6057,437.3734,189.6685,439.2013,189.3294,441.0292,189.5468,440.9582,189.5468,440.6394,198.7042,440.6787,207.8616,440.9669,217.019,440.3973,226.1764,441.5352,235.3338,440.4531,244.4913,440.8484,253.6487,441.424,262.8061,440.9508,271.9635,441.0915,281.1209,441,290.2783,441.1923,299.4357,441.2477,308.5932,441.5645,317.7506,441.6425,326.908,441.65,336.0654,441.2619,345.2228,441.4529,354.3802,441.671,363.5377,440.3701,372.6951,441.6493,381.8525,440.7582,391.0099,441.5171,400.1673,440.5768,409.3247,440.9666,418.4821,441.707,427.6396,440.9846,436.797,441.1254,445.9544,441.3387,455.1118,441.4096,464.2692,441.0256,473.4266,441.2917,482.584,440.506,491.7415,441.2891,500.8989,441.5302,510.0563,441.4355,519.2137,441.5895,528.3711,440.5877,537.5285,440.4331,546.686,440.4613,555.8434,440.9754,565.0008,440.8496,574.1582,441.652,583.3156,440.8695,592.473,441.0292,601.6304,441.0292,601.5259,439.2013,601.7,437.3734,601.4273,435.5455,601.4723,433.7176,601.8281,431.8897,601.6304,432.2879,601.6304,432.561,592.473,431.5956,583.3156,432.1815,574.1582,432.4293,565.0008,431.458,555.8434,431.8021,546.686,432.0049,537.5285,432.4854,528.3711,431.8859,519.2137,432.3125,510.0563,431.3836,500.8989,431.2708,491.7415,432.35,482.584,431.2345,473.4266,432.3549,464.2692,432.0786,455.1118,431.6449,445.9544,431.5664,436.797,432.309,427.6396,431.6162,418.4821,432.4307,409.3247,431.3845,400.1673,432.454,391.0099,432.3324,381.8525,432.1136,372.6951,431.9329,363.5377,432.5538,354.3802,432.4505,345.2228,432.0444,336.0654,432.1348,326.908,431.7707,317.7506,432.5445,308.5932,432.0313,299.4357,432.0474,290.2783,431.3337,281.1209,431.5194,271.9635,432.3748,262.8061,432.2825,253.6487,431.8505,244.4913,431.5953,235.3338,431.6896,226.1764,431.2626,217.019,432.2688,207.8616,432.5656,198.7042,431.8897,189.5468" style="stroke:#181818;stroke-width:0.9139;"/></g><g><title>Sistema</title><polygon fill="#A9DCDF" points="638.4032,189.5468,638.4032,189.6108,640.2311,189.4205,642.059,189.6057,643.8869,189.6685,645.7148,189.3294,647.5427,189.5468,647.4716,189.5468,647.1529,198.7042,647.1922,207.8616,647.4804,217.019,646.9108,226.1764,648.0487,235.3338,646.9666,244.4913,647.3619,253.6487,647.9374,262.8061,647.4643,271.9635,647.605,281.1209,647.5135,290.2783,647.7058,299.4357,647.7612,308.5932,648.0779,317.7506,648.156,326.908,648.1635,336.0654,647.7754,345.2228,647.9663,354.3802,648.1845,363.5377,646.8835,372.6951,648.1628,381.8525,647.2717,391.0099,648.0305,400.1673,647.0902,409.3247,647.4801,418.4821,648.2204,427.6396,647.4981,436.797,647.6389,445.9544,647.8521,455.1118,647.9231,464.2692,647.5391,473.4266,647.8052,482.584,647.0195,491.7415,647.8026,500.8989,648.0437,510.0563,647.9489,519.2137,648.1029,528.3711,647.1011,537.5285,646.9466,546.686,646.9747,555.8434,647.4888,565.0008,647.363,574.1582,648.1654,583.3156,647.383,592.473,647.5427,601.6304,647.5427,601.5259,645.7148,601.7,643.8869,601.4273,642.059,601.4723,640.2311,601.8281,638.4032,601.6304,638.8014,601.6304,639.0745,592.473,638.1091,583.3156,638.6949,574.1582,638.9428,565.0008,637.9714,555.8434,638.3156,546.686,638.5183,537.5285,638.9989,528.3711,638.3994,519.2137,638.826,510.0563,637.8971,500.8989,637.7842,491.7415,638.8635,482.584,637.748,473.4266,638.8684,464.2692,638.592,455.1118,638.1583,445.9544,638.0799,436.797,638.8225,427.6396,638.1296,418.4821,638.9441,409.3247,637.898,400.1673,638.9675,391.0099,638.8458,381.8525,638.6271,372.6951,638.4464,363.5377,639.0673,354.3802,638.964,345.2228,638.5579,336.0654,638.6483,326.908,638.2841,317.7506,639.058,308.5932,638.5447,299.4357,638.5609,290.2783,637.8472,281.1209,638.0329,271.9635,638.8883,262.8061,638.796,253.6487,638.364,244.4913,638.1088,235.3338,638.2031,226.1764,637.7761,217.019,638.7822,207.8616,639.0791,198.7042,638.4032,189.5468" style="stroke:#181818;stroke-width:0.9139;"/></g><g class="message" data-participant-1="OP" data-participant-2="IHM"><polygon fill="#00BFFF" points="274.1719,207.557,274.1957,207.6164,275.9529,208.171,277.8495,209.074,279.7008,209.8635,281.4027,210.2798,283.3113,211.2128,283.3025,211.1908,281.4352,211.8233,279.6122,212.5666,277.82,213.387,275.9215,213.9418,274.1719,214.8686,274.2911,214.9878,274.7673,214.0016,275.5916,213.3636,276.4584,212.7681,277.078,211.9255,277.8277,211.2128,277.8424,211.2275,277.0896,210.4747,276.4038,209.7889,275.6857,209.0708,275.0292,208.4143,274.1719,207.557" style="stroke:#00BFFF;stroke-width:0.9139;"/><path d="M115.009,211.2128 L115.009,211.4689 L124.1561,210.7079 L133.3031,211.4483 L142.4501,211.6998 L151.5972,210.3434 L160.7442,211.1181 L169.8912,210.6931 L179.0382,210.7454 L188.1853,211.1297 L197.3323,210.3703 L206.4793,211.8874 L215.6264,210.4447 L224.7734,210.9718 L233.9204,211.7391 L243.0674,211.1083 L252.2145,211.2959 L261.3615,211.1738 L270.5085,211.4303 L279.6556,211.2128" fill="none" style="stroke:#00BFFF;stroke-width:0.9139;"/><text fill="#000000" font-family="sans-serif" font-size="11.8813" lengthAdjust="spacing" textLength="148.1955" x="121.4067" y="205.9037">Iniciar/Parar ciclo de linha.</text></g><g class="message" data-participant-1="IHM" data-participant-2="Z"><polygon fill="#00BFFF" points="420.9224,236.5346,420.9462,236.594,422.7034,237.1485,424.6,238.0516,426.4513,238.8411,428.1532,239.2574,430.0618,240.1904,430.053,240.1684,428.1857,240.8009,426.3627,241.5442,424.5705,242.3645,422.672,242.9194,420.9224,243.8461,421.0416,243.9654,421.5178,242.9792,422.3421,242.3412,423.2089,241.7457,423.8285,240.903,424.5782,240.1904,424.5929,240.2051,423.8401,239.4523,423.1543,238.7665,422.4362,238.0484,421.7797,237.3919,420.9224,236.5346" style="stroke:#00BFFF;stroke-width:0.9139;"/><path d="M289.709,240.1904 L289.709,240.4465 L298.8221,239.6855 L307.9352,240.4259 L317.0484,240.6774 L326.1615,239.321 L335.2747,240.0957 L344.3878,239.6706 L353.5009,239.723 L362.6141,240.1073 L371.7272,239.3479 L380.8404,240.865 L389.9535,239.4223 L399.0666,239.9494 L408.1798,240.7167 L417.2929,240.0858 L426.4061,240.1904" fill="none" style="stroke:#00BFFF;stroke-width:0.9139;"/><text fill="#000000" font-family="sans-serif" font-size="11.8813" lengthAdjust="spacing" textLength="115.6763" x="296.1066" y="234.8812">Avalia as permiss&#245;es</text></g><polygon fill="#FEFFDD" points="367.4231,252.0716,367.4231,252.2637,376.6235,251.693,385.8239,252.2483,395.0243,252.4369,404.2246,251.4196,413.425,252.0006,422.6254,251.6819,431.8258,251.7212,441.0262,252.0094,450.2266,251.4398,459.427,252.5776,468.6274,251.4956,477.8277,251.8909,487.0281,252.4664,496.2285,251.9933,505.4289,252.0716,505.4477,252.0806,507.248,255.906,509.1338,259.7722,510.9783,263.6187,512.9016,267.5026,514.5684,271.2645,514.7545,271.3491,512.9288,275.3715,510.9832,279.3393,509.2132,283.387,507.4515,287.4385,505.4289,291.3713,505.4289,290.7122,496.2285,291.9914,487.0281,291.1003,477.8277,291.8592,468.6274,290.9189,459.427,291.3087,450.2266,292.0491,441.0262,291.3268,431.8258,291.4676,422.6254,291.6808,413.425,291.7517,404.2246,291.3677,395.0243,291.6338,385.8239,290.8482,376.6235,291.6312,367.4231,291.3713,367.5751,291.4404,365.7185,287.406,363.9373,283.4059,361.8055,279.2463,359.9307,275.2037,358.2836,271.2645,358.1127,271.1831,360.0953,267.4182,361.8854,263.5616,363.9547,259.838,365.5472,255.8873,367.4231,252.0716" style="stroke:#181818;stroke-width:0.457;"/><text fill="#000000" font-family="sans-serif" font-size="11.8813" lengthAdjust="spacing" textLength="109.3793" x="369.251" y="268.4285">Verifica os n&#237;veis de</text><text fill="#000000" font-family="sans-serif" font-size="11.8813" lengthAdjust="spacing" textLength="131.324" x="372.3401" y="284.6109">autoriza&#231;&#227;o do usu&#225;rio.</text><g class="message" data-participant-1="Z" data-participant-2="ST"><polygon fill="#00BFFF" points="627.4359,314.3278,627.4596,314.3873,629.2169,314.9418,631.1135,315.8448,632.9647,316.6344,634.6667,317.0507,636.5753,317.9836,636.5665,317.9616,634.6992,318.5941,632.8761,319.3375,631.0839,320.1578,629.1855,320.7127,627.4359,321.6394,627.5551,321.7587,628.0312,320.7725,628.8556,320.1345,629.7224,319.539,630.342,318.6963,631.0916,317.9836,631.1063,317.9983,630.3536,317.2456,629.6678,316.5598,628.9497,315.8417,628.2932,315.1852,627.4359,314.3278" style="stroke:#00BFFF;stroke-width:0.9139;"/><path d="M441.0292,317.9836 L441.0292,318.2398 L450.1668,317.4787 L459.3045,318.2192 L468.4421,318.4707 L477.5797,317.1143 L486.7174,317.8889 L495.855,317.4639 L504.9926,317.5163 L514.1303,317.9006 L523.2679,317.1411 L532.4055,318.6583 L541.5432,317.2156 L550.6808,317.7426 L559.8184,318.51 L568.9561,317.8791 L578.0937,318.0668 L587.2314,317.9447 L596.369,318.2012 L605.5066,318.275 L614.6443,318.6973 L623.7819,318.8014 L632.9195,317.9836" fill="none" style="stroke:#00BFFF;stroke-width:0.9139;"/><text fill="#000000" font-family="sans-serif" font-size="11.8813" lengthAdjust="spacing" textLength="175.4393" x="447.4268" y="312.6745">Se autorizado o processo inicia.</text></g><polygon fill="#FEFFDD" points="201.085,329.8649,201.085,330.057,210.3207,329.4863,219.5563,330.0416,228.792,330.2302,238.0276,329.2129,247.2633,329.7939,256.499,329.4751,265.7346,329.5144,274.9703,329.8026,284.2059,329.233,293.4416,330.3709,302.6773,329.2889,311.9129,329.6842,321.1486,330.2597,330.3843,329.7865,339.6199,329.9273,348.8556,329.8357,358.0912,330.0281,367.3269,330.0835,376.5626,329.8649,376.6996,329.9791,378.5475,332.1893,380.3773,334.3843,382.1058,336.495,383.9826,338.7292,385.702,340.8323,385.8716,340.9627,383.7,343.0746,382.2101,345.7108,380.1467,347.906,378.5194,350.4365,376.5626,352.7136,376.5626,352.2611,367.3269,352.651,358.0912,353.3913,348.8556,352.669,339.6199,352.8098,330.3843,353.023,321.1486,353.094,311.9129,352.71,302.6773,352.9761,293.4416,352.1904,284.2059,352.9735,274.9703,353.2146,265.7346,353.1198,256.499,353.2738,247.2633,352.2721,238.0276,352.1175,228.792,352.1456,219.5563,352.6597,210.3207,352.5339,201.085,352.7136,201.2495,352.8401,199.2149,350.3049,197.3464,347.8973,195.6564,345.6272,193.6124,343.0847,191.9455,340.8323,191.824,340.731,193.9253,338.7654,195.7033,336.5303,197.6011,334.3951,199.1818,331.9956,201.085,329.8649" style="stroke:#181818;stroke-width:0.457;"/><text fill="#000000" font-family="sans-serif" font-size="11.8813" lengthAdjust="spacing" textLength="172.5878" x="202.9129" y="346.2218">Fluxo de dados em tempo real.</text><polygon fill="#FEFFDD" points="548.3843,362.4983,548.3843,362.6904,557.3497,362.1196,566.3151,362.6749,575.2805,362.8636,584.2458,361.8463,593.2112,362.4273,602.1766,362.1085,611.1419,362.1478,620.1073,362.436,629.0727,361.8664,638.0381,363.0043,647.0034,361.9222,655.9688,362.3175,664.9342,362.8931,673.8995,362.4199,682.8649,362.5606,691.8303,362.4691,700.7957,362.6614,709.761,362.7168,718.7264,363.0336,727.6918,363.1116,736.6571,362.4983,736.8161,362.6308,738.5446,364.7414,740.4214,366.9756,742.3052,369.2156,743.7999,371.1315,745.7966,373.4656,745.9604,373.5917,743.8971,375.7868,742.2697,378.3173,740.1934,380.5025,738.4685,382.9579,736.6571,385.3469,736.6571,386.0247,727.6918,385.3024,718.7264,385.4432,709.761,385.6564,700.7957,385.7273,691.8303,385.3433,682.8649,385.6094,673.8995,384.8238,664.9342,385.6068,655.9688,385.8479,647.0034,385.7532,638.0381,385.9072,629.0727,384.9054,620.1073,384.7509,611.1419,384.779,602.1766,385.2931,593.2112,385.1673,584.2458,385.9697,575.2805,385.1873,566.3151,385.0334,557.3497,385.5555,548.3843,385.3469,548.2233,385.2231,546.4311,382.8742,544.8853,380.7149,543.0059,378.2991,541.2501,375.9783,539.2449,373.4656,539.1696,373.4029,541.1475,371.3344,543.0388,369.1938,544.618,366.7931,546.534,364.6731,548.3843,362.4983" style="stroke:#181818;stroke-width:0.457;"/><text fill="#000000" font-family="sans-serif" font-size="11.8813" lengthAdjust="spacing" textLength="185.0394" x="550.2122" y="378.8552">Processamento das informa&#231;&#245;es.</text><g class="message" data-participant-1="ST" data-participant-2="IHM"><polygon fill="#00BFFF" points="304.3321,392.3898,304.3559,392.4492,302.4573,393.0038,300.6982,393.9068,298.8936,394.6963,296.9398,395.1126,295.1926,396.0456,295.1838,396.0236,296.9723,396.6561,298.805,397.3994,300.6686,398.2198,302.426,398.7746,304.3321,399.7014,304.4514,399.8206,303.4652,398.8344,302.8272,398.1964,302.2317,397.6009,301.389,396.7583,300.6763,396.0456,300.691,396.0603,301.4006,395.3075,302.1771,394.6217,302.9213,393.9036,303.7271,393.2471,304.3321,392.3898" style="stroke:#00BFFF;stroke-width:0.9139;"/><path d="M298.8484,396.0456 L298.8484,396.3017 L308.0009,395.5407 L317.1533,396.2811 L326.3058,396.5326 L335.4582,395.1762 L344.6107,395.9509 L353.7631,395.5259 L362.9156,395.5783 L372.0681,395.9625 L381.2205,395.2031 L390.373,396.7202 L399.5254,395.2775 L408.6779,395.8046 L417.8303,396.5719 L426.9828,395.9411 L436.1352,396.1287 L445.2877,396.0066 L454.4402,396.2631 L463.5926,396.337 L472.7451,396.7593 L481.8975,396.8633 L491.05,396.8733 L500.2024,396.3559 L509.3549,396.6105 L518.5073,396.9013 L527.6598,395.1667 L536.8122,396.8724 L545.9647,395.6843 L555.1172,396.6961 L564.2696,395.4423 L573.4221,395.9621 L582.5745,396.9493 L591.727,395.9862 L600.8794,396.1739 L610.0319,396.4582 L619.1843,396.5528 L628.3368,396.0408 L637.4893,396.0456" fill="none" style="stroke:#00BFFF;stroke-width:0.9139;stroke-dasharray:1.8279,1.8279;"/></g><g class="message" data-participant-1="IHM" data-participant-2="ST"><polygon fill="#00BFFF" points="627.4359,405.185,627.4596,405.2445,629.2169,405.799,631.1135,406.702,632.9647,407.4916,634.6667,407.9079,636.5753,408.8408,636.5665,408.8188,634.6992,409.4513,632.8761,410.1947,631.0839,411.015,629.1855,411.5699,627.4359,412.4966,627.5551,412.6159,628.0312,411.6297,628.8556,410.9917,629.7224,410.3962,630.342,409.5535,631.0916,408.8408,631.1063,408.8555,630.3536,408.1028,629.6678,407.417,628.9497,406.6989,628.2932,406.0424,627.4359,405.185" style="stroke:#00BFFF;stroke-width:0.9139;"/><path d="M294.2787,408.8408 L294.2787,409.0969 L303.4311,408.3359 L312.5836,409.0764 L321.736,409.3279 L330.8885,407.9715 L340.041,408.7461 L349.1934,408.3211 L358.3459,408.3735 L367.4983,408.7578 L376.6508,407.9983 L385.8032,409.5155 L394.9557,408.0728 L404.1081,408.5998 L413.2606,409.3672 L422.4131,408.7363 L431.5655,408.924 L440.718,408.8019 L449.8704,409.0584 L459.0229,409.1322 L468.1753,409.5545 L477.3278,409.6586 L486.4802,409.6686 L495.6327,409.1511 L504.7852,409.4057 L513.9376,409.6966 L523.0901,407.962 L532.2425,409.6676 L541.395,408.4795 L550.5474,409.4913 L559.6999,408.2376 L568.8523,408.7573 L578.0048,409.7445 L587.1573,408.7814 L596.3097,408.9691 L605.4622,409.2535 L614.6146,409.348 L623.7671,408.8361 L632.9195,408.8408" fill="none" style="stroke:#00BFFF;stroke-width:0.9139;"/></g><g class="message" data-participant-1="IHM" data-participant-2="OP"><polygon fill="#00BFFF" points="125.0624,434.1626,125.0862,434.2221,123.1877,434.7766,121.4285,435.6796,119.624,436.4691,117.6702,436.8854,115.923,437.8184,115.9142,437.7964,117.7026,438.4289,119.5354,439.1722,121.399,439.9926,123.1563,440.5475,125.0624,441.4742,125.1817,441.5934,124.1955,440.6072,123.5575,439.9693,122.962,439.3738,122.1193,438.5311,121.4067,437.8184,121.4214,437.8331,122.1309,437.0804,122.9074,436.3945,123.6516,435.6764,124.4575,435.0199,125.0624,434.1626" style="stroke:#00BFFF;stroke-width:0.9139;"/><path d="M119.5788,437.8184 L119.5788,438.0745 L128.7258,437.3135 L137.8728,438.0539 L147.0199,438.3054 L156.1669,436.9491 L165.3139,437.7237 L174.4609,437.2987 L183.608,437.3511 L192.755,437.7353 L201.902,436.9759 L211.0491,438.4931 L220.1961,437.0503 L229.3431,437.5774 L238.4901,438.3448 L247.6372,437.7139 L256.7842,437.9015 L265.9312,437.7795 L275.0783,438.0359 L284.2253,437.8184" fill="none" style="stroke:#00BFFF;stroke-width:0.9139;"/><text fill="#000000" font-family="sans-serif" font-size="11.8813" lengthAdjust="spacing" textLength="147.4707" x="130.5461" y="432.5093">Visualiza&#231;&#227;o da contagem.</text></g><polygon fill="#FEFFDD" points="214.7942,449.6997,214.7942,449.8918,224.105,449.321,233.4158,449.8763,242.7266,450.065,252.0375,449.0477,261.3483,449.6287,270.6591,449.3099,279.9699,449.3492,289.2808,449.6374,298.5916,449.0678,307.9024,450.2057,317.2132,449.1236,326.524,449.5189,335.8349,450.0945,345.1457,449.6213,354.4565,449.7621,363.7673,449.6997,363.7581,449.6966,365.6468,455.2006,367.4922,460.6901,369.4203,466.2071,371.2728,471.699,372.9068,477.1181,373.1037,477.1816,371.1527,482.8083,369.3854,488.4943,367.6267,494.1831,365.3861,499.7165,363.7673,505.4504,363.7673,506.0705,354.4565,505.1794,345.1457,505.9382,335.8349,504.9979,326.524,505.3878,317.2132,506.1282,307.9024,505.4058,298.5916,505.5466,289.2808,505.7599,279.9699,505.8308,270.6591,505.4468,261.3483,505.7129,252.0375,504.9272,242.7266,505.7103,233.4158,505.9514,224.105,505.8567,214.7942,505.4504,214.9719,505.5077,212.8262,499.7387,210.9493,494.0564,209.1303,488.3929,207.4655,482.779,205.6547,477.1181,205.5979,477.0991,207.6796,471.7,209.26,466.1339,211.0393,460.634,213.0323,455.2054,214.7942,449.6997" style="stroke:#181818;stroke-width:0.457;"/><text fill="#000000" font-family="sans-serif" font-size="11.8813" lengthAdjust="spacing" textLength="101.2644" x="216.6221" y="466.0566">Em menos de 2s a</text><text fill="#000000" font-family="sans-serif" font-size="11.8813" lengthAdjust="spacing" textLength="139.3201" x="219.7112" y="482.2389">notifica&#231;&#227;o sonora/visual</text><text fill="#000000" font-family="sans-serif" font-size="11.8813" lengthAdjust="spacing" textLength="127.5814" x="219.7112" y="498.4213">ocorre atrav&#233;s da IHM.</text><g class="message" data-participant-1="IHM" data-participant-2="OP"><polygon fill="#00BFFF" points="125.0624,528.1382,125.0862,528.1977,123.1877,528.7522,121.4285,529.6552,119.624,530.4447,117.6702,530.8611,115.923,531.794,115.9142,531.772,117.7026,532.4045,119.5354,533.1478,121.399,533.9682,123.1563,534.5231,125.0624,535.4498,125.1817,535.569,124.1955,534.5829,123.5575,533.9449,122.962,533.3494,122.1193,532.5067,121.4067,531.794,121.4214,531.8087,122.1309,531.056,122.9074,530.3701,123.6516,529.652,124.4575,528.9955,125.0624,528.1382" style="stroke:#00BFFF;stroke-width:0.9139;"/><path d="M119.5788,531.794 L119.5788,532.0501 L128.4849,531.2891 L137.391,532.0295 L146.2971,532.281 L155.2032,530.9247 L164.1094,531.6993 L173.0155,531.2743 L181.9216,531.3267 L190.8277,531.7109 L199.7338,530.9515 L208.64,532.4687 L217.5461,531.0259 L226.4522,531.553 L235.3583,532.3204 L244.2644,531.6895 L253.1705,531.8772 L262.0767,531.7551 L270.9828,532.0116 L279.8889,532.0854 L288.795,531.794" fill="none" style="stroke:#00BFFF;stroke-width:0.9139;"/><text fill="#000000" font-family="sans-serif" font-size="11.8813" lengthAdjust="spacing" textLength="125.6567" x="130.5461" y="526.4849">Visualiza&#231;&#227;o do status.</text></g><polygon fill="#FEFFDD" points="352.8,543.6753,352.8,543.8674,361.9902,543.2966,371.1804,543.8519,380.3707,544.0406,389.5609,543.0233,398.7511,543.6043,407.9414,543.2855,417.1316,543.3248,426.3218,543.613,435.5121,543.0434,444.7023,544.1813,453.8925,543.0993,463.0827,543.4945,472.273,544.0701,481.4632,543.5969,490.6534,543.7377,499.8437,543.6461,509.0339,543.8385,518.2241,543.6753,518.2899,543.7066,520.2131,547.5906,522.0645,551.4403,523.8946,555.28,525.6057,559.0629,527.3636,562.8682,527.4922,562.9266,525.7305,566.978,523.5078,570.82,522.0681,575.0178,519.9698,578.9162,518.2241,582.975,518.2241,583.4628,509.0339,582.5225,499.8437,582.9124,490.6534,583.6527,481.4632,582.9304,472.273,583.0712,463.0827,583.2844,453.8925,583.3554,444.7023,582.9714,435.5121,583.2375,426.3218,582.4518,417.1316,583.2349,407.9414,583.476,398.7511,583.3812,389.5609,583.5352,380.3707,582.5334,371.1804,582.3789,361.9902,582.407,352.8,582.975,352.7836,582.9675,350.9176,578.9288,349.3332,575.0181,347.2679,570.8889,345.3933,566.8463,343.6605,562.8682,343.7233,562.8981,345.305,558.9422,347.1735,555.123,349.3227,551.4374,351.0919,547.5709,352.8,543.6753" style="stroke:#181818;stroke-width:0.457;"/><text fill="#000000" font-family="sans-serif" font-size="11.8813" lengthAdjust="spacing" textLength="133.5577" x="354.6279" y="560.0322">Se o usu&#225;rio n&#227;o estiver</text><text fill="#000000" font-family="sans-serif" font-size="11.8813" lengthAdjust="spacing" textLength="159.4708" x="357.717" y="576.2145">autorizado a opera&#231;&#227;o falha.</text><g class="message" data-participant-1="Z" data-participant-2="OP"><polygon fill="#00BFFF" points="125.0624,589.7492,125.0862,589.8086,123.1877,590.3631,121.4285,591.2661,119.624,592.0557,117.6702,592.472,115.923,593.4049,115.9142,593.383,117.7026,594.0155,119.5354,594.7588,121.399,595.5791,123.1563,596.134,125.0624,597.0607,125.1817,597.18,124.1955,596.1938,123.5575,595.5558,122.962,594.9603,122.1193,594.1176,121.4067,593.4049,121.4214,593.4196,122.1309,592.6669,122.9074,591.9811,123.6516,591.263,124.4575,590.6065,125.0624,589.7492" style="stroke:#00BFFF;stroke-width:0.9139;"/><path d="M119.5788,593.4049 L119.5788,593.6611 L128.7375,592.9 L137.8962,593.6405 L147.055,593.892 L156.2137,592.5356 L165.3725,593.3102 L174.5312,592.8852 L183.6899,592.9376 L192.8487,593.3219 L202.0074,592.5624 L211.1661,594.0796 L220.3249,592.6369 L229.4836,593.1639 L238.6423,593.9313 L247.8011,593.3004 L256.9598,593.4881 L266.1185,593.366 L275.2773,593.6225 L284.436,593.6963 L293.5947,594.1187 L302.7535,594.2227 L311.9122,594.2327 L321.071,593.7152 L330.2297,593.9699 L339.3884,594.2607 L348.5472,592.5261 L357.7059,594.2318 L366.8646,593.0436 L376.0234,594.0554 L385.1821,592.8017 L394.3408,593.3215 L403.4996,594.3087 L412.6583,593.3455 L421.817,593.5333 L430.9758,593.4049" fill="none" style="stroke:#00BFFF;stroke-width:0.9139;stroke-dasharray:1.8279,1.8279;"/></g><text fill="#1E90FF" font-family="Arial" font-size="12.7952" lengthAdjust="spacing" textLength="3.3267" x="27.4184" y="642.7269">&#160;</text><text fill="#1E90FF" font-family="Arial" font-size="12.7952" lengthAdjust="spacing" textLength="3.3267" x="27.4184" y="660.1539">&#160;</text><text fill="#1E90FF" font-family="Arial" font-size="12.7952" font-weight="bold" lengthAdjust="spacing" textLength="141.9115" x="27.4184" y="677.5809">Casos de Uso cobertos</text><text fill="#1E90FF" font-family="Arial" font-size="12.7952" lengthAdjust="spacing" textLength="3.4291" x="169.3298" y="677.5809">:</text><text fill="#1E90FF" font-family="Arial" font-size="12.7952" lengthAdjust="spacing" textLength="4.12" x="27.4184" y="695.008">-</text><text fill="#1E90FF" font-family="Arial" font-size="12.7952" font-weight="bold" lengthAdjust="spacing" textLength="53.3047" x="34.8652" y="695.008">MIO-001</text><text fill="#1E90FF" font-family="Arial" font-size="12.7952" lengthAdjust="spacing" textLength="174.5008" x="91.4967" y="695.008">Interface de Opera&#231;&#227;o (IHM);</text><text fill="#1E90FF" font-family="Arial" font-size="12.7952" lengthAdjust="spacing" textLength="4.12" x="27.4184" y="712.435">-</text><text fill="#1E90FF" font-family="Arial" font-size="12.7952" font-weight="bold" lengthAdjust="spacing" textLength="53.3047" x="34.8652" y="712.435">MIO-003</text><text fill="#1E90FF" font-family="Arial" font-size="12.7952" lengthAdjust="spacing" textLength="156.3188" x="91.4967" y="712.435">Autentica&#231;&#227;o de Usu&#225;rios;</text><polygon fill="none" points="25.1335,22.8486,25.1335,23.0407,34.3219,22.47,43.5103,23.0253,52.6987,23.2139,61.8871,22.1966,71.0756,22.7776,80.264,22.4588,89.4524,22.4981,98.6408,22.7863,107.8292,22.2168,117.0176,23.3546,126.206,22.2726,135.3944,22.6679,144.5828,23.2434,153.7712,22.7702,162.9597,22.911,172.1481,22.8194,181.3365,23.0118,190.5249,23.0672,199.7133,23.3839,208.9017,23.4619,218.0901,23.4694,227.2785,23.0814,236.4669,23.2723,245.6553,23.4904,254.8437,22.1895,264.0322,23.4688,273.2206,22.5777,282.409,23.3365,291.5974,22.3962,300.7858,22.786,309.9742,23.5264,319.1626,22.8041,328.351,22.9449,337.5394,23.1581,346.7278,23.2291,355.9163,22.8451,365.1047,23.1111,374.2931,22.3255,383.4815,23.1086,392.6699,23.3497,401.8583,23.2549,411.0467,23.4089,420.2351,22.4071,429.4235,22.2526,438.6119,22.2807,447.8004,22.7948,456.9888,22.669,466.1772,23.4714,475.3656,22.689,484.554,22.5351,493.7424,23.0573,502.9308,22.2392,512.1192,22.3742,521.3076,23.4417,530.496,23.2468,539.6845,23.5199,548.8729,22.5545,558.0613,23.1404,567.2497,23.3883,576.4381,22.4169,585.6265,22.761,594.8149,22.9638,604.0033,23.4443,613.1917,22.8448,622.3801,23.2714,631.5685,22.3425,640.757,22.2297,649.9454,23.3089,659.1338,22.1934,668.3222,23.3138,677.5106,23.0375,686.699,22.6038,695.8874,22.5253,705.0758,23.2679,714.2642,22.5751,723.4526,23.3896,732.6411,22.3435,741.8295,23.4129,751.0179,23.2913,760.2063,23.0725,769.3947,22.8918,778.5831,23.5127,787.7715,23.4094,796.9599,22.8486,796.9797,22.8963,797.9606,23.3257,798.8835,23.615,799.9516,24.2549,800.8555,24.4984,801.8069,24.8563,801.8554,24.8764,802.0372,25.7548,802.4959,26.7478,803.1608,27.8263,803.5339,28.784,803.8145,29.7032,803.7753,29.7032,803.5201,39.2521,803.6144,48.801,803.1874,58.3499,804.1936,67.8988,803.8145,77.4477,804.0227,77.534,803.5611,78.4785,803.207,79.4675,802.5714,80.3399,802.2329,81.3354,801.8069,82.2947,801.7617,82.1856,800.8706,82.7761,799.8969,83.1672,798.9631,83.6547,797.9025,83.8362,796.9599,84.3023,796.9599,84.1795,787.7715,84.7076,778.5831,84.8208,769.3947,83.8339,760.2063,84.1251,751.0179,84.4387,741.8295,83.744,732.6411,84.6253,723.4526,84.5381,714.2642,84.2102,705.0758,84.4323,695.8874,84.9683,686.699,84.0164,677.5106,84.5902,668.3222,84.5634,659.1338,84.4081,649.9454,84.4311,640.757,84.406,631.5685,83.7319,622.3801,83.936,613.1917,83.8805,604.0033,84.3607,594.8149,84.3829,585.6265,84.4502,576.4381,84.0364,567.2497,84.2406,558.0613,84.1925,548.8729,84.8295,539.6845,84.6922,530.496,83.8586,521.3076,84.2357,512.1192,83.7748,502.9308,84.5659,493.7424,84.8584,484.554,84.8,475.3656,83.9042,466.1772,84.7264,456.9888,83.6234,447.8004,84.4853,438.6119,84.0288,429.4235,84.3907,420.2351,84.522,411.0467,84.7338,401.8583,83.6444,392.6699,84.7369,383.4815,84.4652,374.2931,84.6271,365.1047,84.9858,355.9163,84.3073,346.7278,84.4625,337.5394,84.4974,328.351,84.4826,319.1626,84.3016,309.9742,84.9519,300.7858,83.7451,291.5974,84.819,282.409,83.732,273.2206,83.8085,264.0322,84.3389,254.8437,84.3282,245.6553,83.8519,236.4669,84.6804,227.2785,84.4018,218.0901,84.9665,208.9017,84.912,199.7133,83.8926,190.5249,83.9386,181.3365,84.1843,172.1481,84.6273,162.9597,84.6706,153.7712,84.5776,144.5828,83.9898,135.3944,84.8839,126.206,84.8816,117.0176,84.2591,107.8292,84.0838,98.6408,83.9355,89.4524,84.1062,80.264,84.4279,71.0756,84.2398,61.8871,83.9205,52.6987,84.7478,43.5103,83.8829,34.3219,84.7615,25.1335,84.3023,25.1833,84.4226,24.2075,84.0055,23.2755,83.6942,22.1967,83.0285,21.2209,82.6116,20.2866,82.2947,20.4326,82.3552,19.717,81.2557,19.4177,80.3286,19.1145,79.4,18.6998,78.4251,18.2789,77.4477,17.9513,77.4477,18.2396,67.8988,18.9594,58.3499,18.8716,48.801,17.7339,39.2521,18.2789,29.7032,18.301,29.7124,18.5358,28.6739,19.0746,27.7614,19.566,26.8292,20.0032,25.8746,20.2866,24.8563,20.2091,24.6692,21.3027,24.5675,22.2263,24.0556,23.13,23.4954,24.1092,23.1176,25.1335,22.8486" style="stroke:#000000;stroke-width:0.9139;"/><text fill="#1E90FF" font-family="Arial" font-size="18.2789" font-weight="bold" lengthAdjust="spacing" textLength="748.9778" x="36.5578" y="60.6677">Diagrama de sequ&#234;ncia - M&#243;dulo de Interface e Opera&#231;&#227;o (MIO) - IHM Operacional</text><!--SRC=[dLJ1RXCn4BtxAuPSagoQJO5RAf0gceWSIYAbz51ncUuwhQMDPsllHi3VL1mGI9mGNx0_nhCtQH8LeQg-nF7El7dpvjalZCsAEjTqDfuiqh9U5KfnLecZpgpKZdDn7M9FixcwbjhcxBvGP_h-lADATfN9JCcseivaMbIER_IA08MybV6- -QDzpBrIcTZAIK4Buokzud2uk51gs5Kpyfkpi_7bc4hnlZQEQXoW2XMISK4enII1JlEz-IOfBRHhxWcetkIHfE9AszpaGdSrM_oqwP591Jm6Oek0XeXhH8Cy_eoKwd6VfXQji2CTQpaIoanM2ELCXR6tV4AgTzsdI-DhBinN3eYXgRPbeQfsLWXxj58AESr5ICaEKeHynLNjGyAswrvK6OoFQCw1tH5DkBZbVggwGwMwRvwrL9V-kMARydpK-Mwoes0JiuRkcE_35bDzs6C0QZQdmTkm6sqb7iwZm1jvTIjlgiAq47arejCrv8eMsVEHkhK2I5bh5s8kjJDBp8_4asr-hRNn0UkJ3QCL1xMZKOBGjQ-RUsSaLRa-e7OLwYqkHZ3JGnRYXKedcVPUo4J66CJW2KjrGvVxF6FNawB-7FlC0UuF7P8UQhMN6cZDMngyWbM34JtuBCMjGcjG95MB2ngqucxLW_gRNMSsxunstjkeiVDi-eZeU4Me9577LnxsXfW8YJAtwLwiE1wk8sZuB9au1_5myzVD3n_m0PN-dyFs4ZoQnzDKFlG1HhURC9o00je34r_tl12VWztpGSjmmT9W0B34m_RC-w2w7wHYN8Hdfgj2t-3HeafAbIHdXcySuqM0_bxVrSrF2_FHWCwRttdTtfMfhRHRSgRnJirs_VJEfxC-8eFkyHXtt7AH92h0jrMKMWgKSqgXrZlsxQ0_mkMPN6jNYK-IaG98aW1jS7pyCadswkM71L6fVx8V_HhHfzjNTJFf0DzEnfz49Xi6Vm40]--></g></svg>