<svg xmlns="http://www.w3.org/2000/svg" xmlns:xlink="http://www.w3.org/1999/xlink" contentStyleType="text/css" data-diagram-type="SEQUENCE" height="751.1641px" preserveAspectRatio="none" style="width:1312px;height:751px;background:#EEEBDC;" version="1.1" viewBox="0 0 1312 751" width="1312.7281px" zoomAndPan="magnify"><defs/><g><rect fill="#EEEBDC" height="751.1641" style="stroke:none;stroke-width:1.4473;" width="1312.7281" x="0" y="0"/><g><title>MCU</title><polygon fill="#A9DCDF" points="906.1816,300.1674,906.1816,300.2688,909.0762,299.9675,911.9709,300.2606,914.8655,300.3602,917.7602,299.8232,920.6549,300.1674,920.5424,300.1674,920.0376,314.1772,920.0998,328.1871,920.5562,342.1969,919.6542,356.2067,921.4562,370.2166,919.7426,384.2264,920.3686,398.2363,921.28,412.2461,920.6549,426.2559,920.6549,426.2145,917.7602,426.2889,914.8655,426.2405,911.9709,426.3421,909.0762,426.3713,906.1816,426.2559,907.0292,426.2559,907.1528,412.2461,907.1647,398.2363,906.5501,384.2264,906.8525,370.2166,907.1979,356.2067,905.1378,342.1969,907.1636,328.1871,905.7524,314.1772,906.1816,300.1674" style="stroke:#181818;stroke-width:1.4473;"/></g><g><title>Operador</title><polygon fill="#000000" fill-opacity="0.00000" points="393.0657,285.6941,393.0657,285.7955,395.3815,285.4942,397.6972,285.7873,400.0129,285.8869,402.3287,285.3499,404.6444,285.6941,404.5319,285.6941,404.0271,299.9031,404.0893,314.112,404.5457,328.321,403.6437,342.53,405.4457,356.739,403.7322,370.9479,404.3581,385.1569,405.2696,399.3659,404.5202,413.5749,404.7431,427.7838,404.5981,441.9928,404.9028,456.2018,404.9905,470.4108,405.4921,484.6197,405.6156,498.8287,405.6275,513.0377,405.0129,527.2467,405.3153,541.4556,404.6444,555.6646,404.6444,556.0034,402.3287,555.3167,400.0129,555.992,397.6972,555.5216,395.3815,555.9222,393.0657,555.6646,392.3493,555.6646,392.9666,541.4556,394.1391,527.2467,392.9952,513.0377,393.2182,498.8287,393.5559,484.6197,393.6682,470.4108,393.0601,456.2018,393.4814,441.9928,392.2373,427.7838,393.4773,413.5749,393.8592,399.3659,393.7091,385.1569,393.953,370.9479,392.3666,356.739,392.1218,342.53,392.1664,328.321,392.9805,314.112,392.7813,299.9031,393.0657,285.6941"/><path d="M397.6691,285.6941 L398.0747,285.6941 L396.8696,299.9031 L398.0421,314.112 L398.4404,328.321 L396.2924,342.53 L397.5192,356.739 L396.8461,370.9479 L396.9291,385.1569 L397.5376,399.3659 L396.3349,413.5749 L398.7375,427.7838 L396.4528,441.9928 L397.2875,456.2018 L398.5027,470.4108 L397.5036,484.6197 L397.8008,498.8287 L397.6075,513.0377 L398.0136,527.2467 L398.1306,541.4556 L397.6691,555.6646" fill="none" style="stroke:#0000FF;stroke-width:0.7237;stroke-dasharray:7.2366,7.2366;"/></g><g><title>IHM</title><polygon fill="#000000" fill-opacity="0.00000" points="535.2182,285.6941,535.2182,285.7955,537.5339,285.4942,539.8496,285.7873,542.1654,285.8869,544.4811,285.3499,546.7968,285.6941,546.6843,285.6941,546.1795,299.9031,546.2418,314.112,546.6982,328.321,545.7962,342.53,547.5981,356.739,545.8846,370.9479,546.5106,385.1569,547.422,399.3659,546.6727,413.5749,546.8956,427.7838,546.7506,441.9928,547.0552,456.2018,547.1429,470.4108,547.6445,484.6197,547.7681,498.8287,547.7799,513.0377,547.1654,527.2467,547.4678,541.4556,546.7968,555.6646,546.7968,556.0034,544.4811,555.3167,542.1654,555.992,539.8496,555.5216,537.5339,555.9222,535.2182,555.6646,534.5017,555.6646,535.119,541.4556,536.2915,527.2467,535.1477,513.0377,535.3706,498.8287,535.7083,484.6197,535.8206,470.4108,535.2125,456.2018,535.6339,441.9928,534.3897,427.7838,535.6298,413.5749,536.0116,399.3659,535.8616,385.1569,536.1054,370.9479,534.519,356.739,534.2743,342.53,534.3188,328.321,535.133,314.112,534.9337,299.9031,535.2182,285.6941"/><path d="M540.2838,285.6941 L540.6894,285.6941 L539.4843,299.9031 L540.6568,314.112 L541.0551,328.321 L538.9072,342.53 L540.1339,356.739 L539.4608,370.9479 L539.5438,385.1569 L540.1523,399.3659 L538.9497,413.5749 L541.3522,427.7838 L539.0675,441.9928 L539.9022,456.2018 L541.1174,470.4108 L540.1183,484.6197 L540.4155,498.8287 L540.2222,513.0377 L540.6284,527.2467 L540.7453,541.4556 L540.2838,555.6646" fill="none" style="stroke:#0000FF;stroke-width:0.7237;stroke-dasharray:7.2366,7.2366;"/></g><g><title>Medi..o de grandezas</title><polygon fill="#000000" fill-opacity="0.00000" points="696.7325,285.6941,696.7325,285.7955,699.0483,285.4942,701.364,285.7873,703.6797,285.8869,705.9955,285.3499,708.3112,285.6941,708.1987,285.6941,707.6939,299.9031,707.7561,314.112,708.2125,328.321,707.3105,342.53,709.1125,356.739,707.399,370.9479,708.0249,385.1569,708.9363,399.3659,708.187,413.5749,708.4099,427.7838,708.2649,441.9928,708.5696,456.2018,708.6573,470.4108,709.1589,484.6197,709.2824,498.8287,709.2943,513.0377,708.6797,527.2467,708.9821,541.4556,708.3112,555.6646,708.3112,556.0034,705.9955,555.3167,703.6797,555.992,701.364,555.5216,699.0483,555.9222,696.7325,555.6646,696.0161,555.6646,696.6334,541.4556,697.8059,527.2467,696.662,513.0377,696.8849,498.8287,697.2226,484.6197,697.335,470.4108,696.7269,456.2018,697.1482,441.9928,695.9041,427.7838,697.1441,413.5749,697.526,399.3659,697.3759,385.1569,697.6198,370.9479,696.0334,356.739,695.7886,342.53,695.8332,328.321,696.6473,314.112,696.4481,299.9031,696.7325,285.6941"/><path d="M702.3848,285.6941 L702.7904,285.6941 L701.5852,299.9031 L702.7578,314.112 L703.1561,328.321 L701.0081,342.53 L702.2348,356.739 L701.5617,370.9479 L701.6447,385.1569 L702.2532,399.3659 L701.0506,413.5749 L703.4532,427.7838 L701.1685,441.9928 L702.0031,456.2018 L703.2183,470.4108 L702.2192,484.6197 L702.5165,498.8287 L702.3231,513.0377 L702.7293,527.2467 L702.8462,541.4556 L702.3848,555.6646" fill="none" style="stroke:#0000FF;stroke-width:0.7237;stroke-dasharray:7.2366,7.2366;"/></g><g><title>MCU</title><polygon fill="#000000" fill-opacity="0.00000" points="907.6289,285.6941,907.6289,285.7955,909.9446,285.4942,912.2603,285.7873,914.5761,285.8869,916.8918,285.3499,919.2075,285.6941,919.095,285.6941,918.5902,299.9031,918.6525,314.112,919.1089,328.321,918.2069,342.53,920.0088,356.739,918.2953,370.9479,918.9213,385.1569,919.8327,399.3659,919.0834,413.5749,919.3063,427.7838,919.1613,441.9928,919.4659,456.2018,919.5536,470.4108,920.0552,484.6197,920.1788,498.8287,920.1906,513.0377,919.5761,527.2467,919.8785,541.4556,919.2075,555.6646,919.2075,556.0034,916.8918,555.3167,914.5761,555.992,912.2603,555.5216,909.9446,555.9222,907.6289,555.6646,906.9124,555.6646,907.5297,541.4556,908.7022,527.2467,907.5583,513.0377,907.7813,498.8287,908.119,484.6197,908.2313,470.4108,907.6232,456.2018,908.0446,441.9928,906.8004,427.7838,908.0405,413.5749,908.4223,399.3659,908.2723,385.1569,908.5161,370.9479,906.9297,356.739,906.685,342.53,906.7295,328.321,907.5437,314.112,907.3444,299.9031,907.6289,285.6941"/><path d="M912.9913,285.6941 L913.3969,285.6941 L912.1918,299.9031 L913.3643,314.112 L913.7626,328.321 L911.6146,342.53 L912.8413,356.739 L912.1683,370.9479 L912.2512,385.1569 L912.8598,399.3659 L911.6571,413.5749 L914.0597,427.7838 L911.775,441.9928 L912.6097,456.2018 L913.8249,470.4108 L912.8258,484.6197 L913.123,498.8287 L912.9297,513.0377 L913.3358,527.2467 L913.4528,541.4556 L912.9913,555.6646" fill="none" style="stroke:#0000FF;stroke-width:0.7237;stroke-dasharray:7.2366,7.2366;"/></g><g class="participant participant-head" data-participant="Operador"><text fill="#1E90FF" font-family="Aapex" font-size="24.6046" lengthAdjust="spacing" textLength="112.3689" x="338.3286" y="278.485">Operador</text><polygon fill="#00BFFF" points="422.1403,193.4093,418.7458,198.0474,414.7309,204.8407,408.9887,209.4189,402.9547,211.9224,398.1435,212.1397,391.9599,209.0087,386.1252,206.9632,381.6967,202.8102,379.3736,198.0558,377.996,194.2701,376.6463,189.3253,374.4557,185.0702,376.1391,180.9157,377.6139,176.3647,383.1487,172.7653,387.0427,168.0951,391.8624,166.5443,397.5922,165.2088,404.94,166.0023,408.9644,167.9003,413.6435,168.7606,419.3328,174.5895,421.3161,180.7429,422.1778,184.9416,421.2017,191.8604" style="stroke:#00BFFF;stroke-width:0.7237;"/><path d="M398.8551,216.7231 L398.8551,216.7231 L398.9013,216.8502 L401.9481,215.3148 L405.2658,214.5242 L408.4953,213.4911 L411.4347,211.6604 L414.7757,210.9338 L414.7757,210.9338 L414.755,210.8883 L417.8463,212.1314 L421.0419,213.6039 L424.3099,215.2359 L427.3282,216.3183 L430.6963,218.1704 L431.0205,218.3178 L431.7746,221.1868 L433.4752,224.4861 L435.2913,227.8378 L436.4354,230.8841 L437.933,234.0911 L438.0208,234.0911 L437.8919,235.2489 L438.1626,236.4068 L438.2406,237.5647 L438.6865,238.7225 L437.933,239.8804 L437.933,239.8804 L438.2382,240.1856 L435.9262,242.5051 L433.4173,244.6277 L431.1966,247.0384 L428.9895,249.4627 L426.3543,251.459 L426.3543,250.5312 L415.3546,252.3319 L404.3549,251.0776 L393.3552,252.1458 L382.3555,250.8222 L371.3558,251.459 L371.3558,251.459 L371.3246,251.4279 L369.3774,249.4806 L366.7022,246.8054 L364.4565,244.5597 L362.2469,242.3501 L359.7772,239.8804 L360.3126,239.8804 L359.7721,238.7225 L360.1467,237.5647 L359.0407,236.4068 L360.143,235.2489 L359.7772,234.0911 L359.7772,234.0911 L360.0982,234.237 L361.4848,231.0253 L363.0308,227.886 L363.8363,224.4101 L365.1846,221.181 L367.0138,218.1704 L366.8484,217.8066 L370.1823,216.6886 L373.3297,215.1607 L376.7476,214.2275 L379.7038,212.2788 L382.9344,210.9338 L382.9344,210.9338 L382.859,210.7264 L386.1687,212.2297 L389.1561,212.8464 L392.3727,214.0936 L395.8136,215.9576 L398.8551,216.7231" fill="#00BFFF"/></g><g class="participant participant-head" data-participant="IHM"><text fill="#000000" font-family="sans-serif" font-size="20.2626" lengthAdjust="spacing" textLength="40.2617" x="516.5347" y="279.7572">IHM</text><path d="M511.3372,217.5713 L511.6076,217.5713 L510.8042,224.5185 L511.5859,231.4657 L511.8514,238.4128 L510.4195,245.36 L511.3372,252.3072 M511.3372,234.9393 L511.3372,234.8393 L516.2582,234.3906 L521.1791,234.4459 L526.1,234.8516 L531.0209,234.0498 L535.9419,234.9393" fill="none" style="stroke:#181818;stroke-width:0.7237;"/><polygon fill="#E2E2F0" points="570.7737,239.1638,568.2279,242.6424,565.2167,247.7374,560.9101,251.171,556.3845,253.0487,552.7761,253.2116,548.1384,250.8634,543.7624,249.3293,540.441,246.2145,538.6987,242.6487,537.6655,239.8094,536.6533,236.1009,535.0103,232.9095,536.2728,229.7936,537.379,226.3804,541.5301,223.6808,544.4505,220.1782,548.0653,219.0151,552.3627,218.0135,557.8735,218.6086,560.8918,220.0321,564.4012,220.6773,568.6681,225.049,570.1556,229.6641,570.8018,232.813,570.0698,238.0021" style="stroke:#181818;stroke-width:0.7237;"/></g><g class="participant participant-head" data-participant="MG"><text fill="#000000" font-family="sans-serif" font-size="20.2626" lengthAdjust="spacing" textLength="214.479" x="590.9404" y="279.7572">Medi&#231;&#227;o de grandezas</text><polygon fill="#E2E2F0" points="719.9858,239.1638,717.4399,242.6424,714.4287,247.7374,710.1221,251.171,705.5966,253.0487,701.9882,253.2116,697.3505,250.8634,692.9745,249.3293,689.6531,246.2145,687.9108,242.6487,686.8775,239.8094,685.8653,236.1009,684.2223,232.9095,685.4849,229.7936,686.591,226.3804,690.7421,223.6808,693.6626,220.1782,697.2774,219.0151,701.5747,218.0135,707.0855,218.6086,710.1039,220.0321,713.6132,220.6773,717.8802,225.049,719.3676,229.6641,720.0139,232.813,719.2819,238.0021" style="stroke:#181818;stroke-width:0.7237;"/><path d="M685.1539,255.2019 L685.1539,255.3371 L692.1011,254.9354 L699.0483,255.3262 L705.9955,255.459 L712.9426,254.743 L719.8898,255.2019" fill="#E2E2F0" style="stroke:#181818;stroke-width:0.7237;"/></g><g class="participant participant-head" data-participant="MCU"><polygon fill="#1E90FF" points="878.9791,230.4727,878.9791,230.777,892.7547,229.8731,906.5304,230.7525,920.306,231.0512,934.0817,229.4402,947.8573,230.4727,947.843,230.4381,948.2903,230.4946,948.81,230.7257,949.3799,231.0782,949.7765,231.0124,950.4159,231.5325,950.6627,231.6347,950.3469,231.9279,950.7517,232.5194,951.2443,233.1474,951.2255,233.5635,951.4757,234.0911,951.5086,234.0911,951.4603,243.3985,951.5618,252.706,951.591,262.0135,951.7582,271.321,951.4757,280.6284,951.7748,280.7523,951.5665,281.2656,951.1652,281.6989,951.0464,282.2491,950.9408,282.8049,950.4159,283.187,950.2827,282.8655,950.0294,283.7014,949.3377,283.4787,948.9793,284.0608,948.2777,283.8142,947.8573,284.2468,947.8573,284.1476,934.0817,285.3201,920.306,284.1762,906.5304,284.3992,892.7547,284.7369,878.9791,284.2468,879.0559,284.4323,878.4666,284.0331,878.0087,283.9509,877.3383,283.3558,876.9847,283.5257,876.4205,283.187,876.6649,283.2882,876.4067,282.7573,876.2698,282.2767,875.5693,281.5627,875.282,281.0197,875.3607,280.6284,875.0609,280.6284,875.3323,271.321,875.2659,262.0135,875.6895,252.706,875.2765,243.3985,875.3607,234.0911,875.2078,234.0277,875.6744,233.6215,875.4874,232.9445,875.7652,232.4601,876.4978,232.1641,876.4205,231.5325,876.501,231.7267,877.0678,231.648,877.3845,230.9652,878.0146,231.0389,878.5764,230.9479,878.9791,230.4727" style="stroke:#00BFFF;stroke-width:0.7237;"/><text fill="#A9DCDF" font-family="Impact" font-size="24.6046" lengthAdjust="spacing" textLength="55.8523" x="885.492" y="266.9063">MCU</text></g><g><title>MCU</title><polygon fill="#A9DCDF" points="906.1816,300.1674,906.1816,300.2688,909.0762,299.9675,911.9709,300.2606,914.8655,300.3602,917.7602,299.8232,920.6549,300.1674,920.5424,300.1674,920.0376,314.1772,920.0998,328.1871,920.5562,342.1969,919.6542,356.2067,921.4562,370.2166,919.7426,384.2264,920.3686,398.2363,921.28,412.2461,920.6549,426.2559,920.6549,426.2145,917.7602,426.2889,914.8655,426.2405,911.9709,426.3421,909.0762,426.3713,906.1816,426.2559,907.0292,426.2559,907.1528,412.2461,907.1647,398.2363,906.5501,384.2264,906.8525,370.2166,907.1979,356.2067,905.1378,342.1969,907.1636,328.1871,905.7524,314.1772,906.1816,300.1674" style="stroke:#181818;stroke-width:1.4473;"/></g><g class="message" data-participant-1="MG" data-participant-2="MCU"><polygon fill="#00BFFF" points="888.8136,328.6885,888.8513,328.7826,891.634,329.6608,894.6375,331.0908,897.5692,332.3411,900.2644,333.0004,903.2869,334.4778,903.273,334.443,900.3158,335.4446,897.4289,336.6218,894.5907,337.9209,891.5844,338.7996,888.8136,340.2671,889.0025,340.456,889.7564,338.8943,891.0619,337.8839,892.4345,336.9409,893.4158,335.6064,894.6029,334.4778,894.6262,334.5011,893.4342,333.309,892.3481,332.223,891.2109,331.0858,890.1713,330.0462,888.8136,328.6885" style="stroke:#00BFFF;stroke-width:1.4473;"/><path d="M702.5219,334.4778 L702.5219,334.8834 L717.52,333.6783 L732.5181,334.8508 L747.5163,335.2491 L762.5144,333.1011 L777.5125,334.3278 L792.5107,333.6548 L807.5088,333.7377 L822.5069,334.3463 L837.505,333.1436 L852.5032,335.5462 L867.5013,333.2615 L882.4994,334.0962 L897.4976,334.4778" fill="none" style="stroke:#00BFFF;stroke-width:1.4473;"/><text fill="#000000" font-family="sans-serif" font-size="18.8153" lengthAdjust="spacing" textLength="168.9238" x="712.6532" y="326.0703">Repasse dos dados</text></g><g class="message" data-participant-1="MCU" data-participant-2="IHM"><polygon fill="#00BFFF" points="556.9281,374.5776,556.9658,374.6717,553.9592,375.5498,551.1734,376.9799,548.3158,378.2302,545.2217,378.8895,542.4548,380.3669,542.4409,380.3321,545.2731,381.3337,548.1754,382.5108,551.1266,383.8099,553.9096,384.6886,556.9281,386.1562,557.117,386.3451,555.5553,384.7833,554.5449,383.773,553.6019,382.83,552.2674,381.4955,551.1388,380.3669,551.1621,380.3901,552.2858,379.1981,553.5154,378.112,554.694,376.9749,555.9701,375.9352,556.9281,374.5776" style="stroke:#00BFFF;stroke-width:1.4473;"/><path d="M548.2442,380.3669 L548.2442,380.7725 L562.5038,379.5673 L576.7634,380.7399 L591.023,381.1382 L605.2826,378.9902 L619.5422,380.2169 L633.8018,379.5438 L648.0614,379.6268 L662.321,380.2353 L676.5806,379.0327 L690.8402,381.4353 L705.0998,379.1506 L719.3594,379.9852 L733.619,381.2004 L747.8786,380.2013 L762.1382,380.4986 L776.3978,380.3052 L790.6574,380.7114 L804.917,380.8283 L819.1766,381.4971 L833.4362,381.6619 L847.6958,381.6777 L861.9554,380.8582 L876.215,381.2615 L890.4746,381.722 L904.7342,380.3669" fill="none" style="stroke:#00BFFF;stroke-width:1.4473;"/><text fill="#000000" font-family="sans-serif" font-size="18.8153" lengthAdjust="spacing" textLength="72.6647" x="565.6121" y="371.9593">Exibi&#231;&#227;o</text></g><g class="message" data-participant-1="IHM" data-participant-2="Operador"><polygon fill="#00BFFF" points="414.7757,420.4666,414.8133,420.5608,411.8068,421.4389,409.021,422.8689,406.1633,424.1192,403.0692,424.7785,400.3024,426.2559,400.2885,426.2211,403.1206,427.2228,406.023,428.3999,408.9742,429.699,411.7572,430.5777,414.7757,432.0452,414.9646,432.2341,413.4028,430.6724,412.3925,429.6621,411.4495,428.719,410.115,427.3845,408.9864,426.2559,409.0096,426.2792,410.1333,425.0872,411.363,424.0011,412.5415,422.8639,413.8176,421.8243,414.7757,420.4666" style="stroke:#00BFFF;stroke-width:1.4473;"/><path d="M406.0917,426.2559 L406.0917,426.6615 L420.9215,425.4564 L435.7514,426.6289 L450.5812,427.0272 L465.411,424.8792 L480.2409,426.106 L495.0707,425.4329 L509.9005,425.5159 L524.7303,426.1244 L539.5602,426.2559" fill="none" style="stroke:#00BFFF;stroke-width:1.4473;"/><text fill="#000000" font-family="sans-serif" font-size="18.8153" lengthAdjust="spacing" textLength="107.4165" x="423.4597" y="417.8484">Visualiza&#231;&#227;o</text></g><polygon fill="#FEFFDD" points="765.2909,445.0712,765.2909,445.3754,779.9089,444.4716,794.5269,445.351,809.145,445.6497,823.763,444.0387,838.381,444.9587,852.9991,444.4539,867.6171,444.5162,882.2351,444.9726,896.8531,444.0706,911.4712,445.8725,926.0892,444.159,940.7072,444.785,955.3253,445.6964,969.9433,444.9471,984.5613,445.17,999.1794,445.025,1013.7974,445.3296,1028.4154,445.4173,1043.0335,445.9189,1057.6515,445.0712,1057.9002,445.2785,1060.7979,448.7546,1063.5352,452.097,1066.5073,455.6352,1069.4904,459.1825,1072.1248,462.4392,1071.849,462.227,1069.4896,466.4018,1066.2221,469.8781,1063.6449,473.8854,1060.3568,477.3458,1057.6515,481.2545,1057.6515,481.1553,1043.0335,482.3278,1028.4154,481.1839,1013.7974,481.4069,999.1794,481.7446,984.5613,481.8569,969.9433,481.2488,955.3253,481.6702,940.7072,480.426,926.0892,481.6661,911.4712,482.0479,896.8531,481.8978,882.2351,482.1417,867.6171,480.5553,852.9991,480.3105,838.381,480.3551,823.763,481.1692,809.145,480.97,794.5269,482.2407,779.9089,481.0016,765.2909,481.2545,765.1597,481.1536,762.4835,477.5585,759.2466,473.5322,756.4084,469.8126,753.9604,466.3931,750.8176,462.4392,750.979,462.5737,753.9845,459.1924,756.4876,455.3926,759.6199,452.117,762.615,448.7272,765.2909,445.0712" style="stroke:#181818;stroke-width:0.7237;"/><text fill="#000000" font-family="sans-serif" font-size="18.8153" lengthAdjust="spacing" textLength="287.987" x="768.1855" y="470.9741">Processamento das informa&#231;&#245;es</text><polygon fill="#FEFFDD" points="244.2522,496.7496,244.2522,497.0538,258.7255,496.1499,273.1988,497.0293,287.6721,497.3281,302.1454,495.7171,316.6187,496.6371,331.092,496.1323,345.5653,496.1945,360.0386,496.651,374.5118,495.749,388.9851,497.5509,403.4584,495.8374,417.9317,496.4634,432.405,497.3748,446.8783,496.6254,461.3516,496.8484,475.8249,496.7034,490.2982,497.008,504.7715,497.0957,519.2448,497.5973,533.7181,497.7208,548.1914,497.7327,562.6647,497.1181,577.138,497.4206,591.6113,497.766,606.0846,495.7058,620.5579,497.7316,635.0312,496.3205,649.5045,497.5222,663.9778,496.0331,678.4511,496.6505,692.9244,497.8229,707.3977,496.6791,721.871,496.902,736.3443,497.2397,750.8176,497.352,765.2909,496.7439,779.7642,497.1653,794.2375,495.9211,808.7108,497.1612,823.1841,497.543,837.6574,496.7496,837.8221,496.8869,840.7792,500.4125,843.2676,503.5476,846.0996,506.9689,849.0057,510.452,852.1307,514.1176,852.1081,514.1002,849.1608,517.8228,846.6019,521.8441,843.3799,525.3553,840.4208,529.0689,837.6574,532.9328,837.6574,533.2632,823.1841,531.9677,808.7108,532.1815,794.2375,533.8721,779.7642,533.5634,765.2909,533.9959,750.8176,532.4671,736.3443,533.3948,721.871,533.7874,707.3977,532.2491,692.9244,532.7941,678.4511,533.1152,663.9778,533.8762,649.5045,532.9268,635.0312,533.6023,620.5579,532.1313,606.0846,531.9526,591.6113,533.6617,577.138,531.8952,562.6647,533.6695,548.1914,533.2319,533.7181,532.5451,519.2448,532.4208,504.7715,533.5968,490.2982,532.4996,475.8249,533.7895,461.3516,532.1328,446.8783,533.8265,432.405,533.6338,417.9317,533.2874,403.4584,533.0012,388.9851,533.9845,374.5118,533.8209,360.0386,533.1778,345.5653,533.321,331.092,532.7443,316.6187,533.9698,302.1454,533.157,287.6721,533.1826,273.1988,532.0524,258.7255,532.3463,244.2522,532.9328,244.4551,533.089,241.5219,529.2962,238.4464,525.3941,235.445,521.5489,232.5898,517.8162,229.7789,514.1176,229.5246,513.9056,232.8272,510.7721,235.8423,507.3988,238.6579,503.8594,241.6151,500.4378,244.2522,496.7496" style="stroke:#181818;stroke-width:0.7237;"/><text fill="#000000" font-family="sans-serif" font-size="18.8153" lengthAdjust="spacing" textLength="587.7712" x="247.1468" y="522.6525">Em menos de 2s a notifica&#231;&#227;o sonora/visual ocorre atrav&#233;s da IHM</text><text fill="#1E90FF" font-family="Arial" font-size="20.2626" lengthAdjust="spacing" textLength="5.2683" x="43.4199" y="607.7192">&#160;</text><text fill="#1E90FF" font-family="Arial" font-size="20.2626" lengthAdjust="spacing" textLength="5.2683" x="43.4199" y="635.3168">&#160;</text><text fill="#1E90FF" font-family="Arial" font-size="20.2626" font-weight="bold" lengthAdjust="spacing" textLength="224.7318" x="43.4199" y="662.9143">Casos de Uso cobertos</text><text fill="#1E90FF" font-family="Arial" font-size="20.2626" lengthAdjust="spacing" textLength="5.4304" x="268.1517" y="662.9143">:</text><text fill="#1E90FF" font-family="Arial" font-size="20.2626" lengthAdjust="spacing" textLength="6.5245" x="43.4199" y="690.5119">-</text><text fill="#1E90FF" font-family="Arial" font-size="20.2626" font-weight="bold" lengthAdjust="spacing" textLength="84.4137" x="55.2127" y="690.5119">MIO-002</text><text fill="#1E90FF" font-family="Arial" font-size="20.2626" lengthAdjust="spacing" textLength="190.6705" x="144.8947" y="690.5119">Exibi&#231;&#227;o de Alarmes</text><polygon fill="none" points="39.8016,36.1832,39.8016,36.4874,54.3524,35.5836,68.9032,36.463,83.454,36.7617,98.0048,35.1507,112.5557,36.0708,127.1065,35.566,141.6573,35.6282,156.2081,36.0846,170.7589,35.1826,185.3098,36.9845,199.8606,35.271,214.4114,35.897,228.9622,36.8084,243.5131,36.0591,258.0639,36.282,272.6147,36.137,287.1655,36.4416,301.7163,36.5293,316.2672,37.0309,330.818,37.1545,345.3688,37.1664,359.9196,36.5518,374.4704,36.8542,389.0213,37.1996,403.5721,35.1394,418.1229,37.1653,432.6737,35.7541,447.2245,36.9558,461.7754,35.4668,476.3262,36.0841,490.877,37.2566,505.4278,36.1127,519.9786,36.3357,534.5295,36.6733,549.0803,36.7857,563.6311,36.1776,578.1819,36.5989,592.7327,35.3548,607.2836,36.5948,621.8344,36.9767,636.3852,36.8266,650.936,37.0705,665.4868,35.4841,680.0377,35.2393,694.5885,35.2839,709.1393,36.098,723.6901,35.8988,738.2409,37.1695,752.7918,35.9304,767.3426,35.6867,781.8934,36.5136,796.4442,35.2181,810.995,35.4319,825.5459,37.1225,840.0967,36.8138,854.6475,37.2463,869.1983,35.7175,883.7491,36.6452,898.3,37.0378,912.8508,35.4995,927.4016,36.0445,941.9524,36.3656,956.5032,37.1266,971.0541,36.1772,985.6049,36.8527,1000.1557,35.3817,1014.7065,35.203,1029.2573,36.9121,1043.8082,35.1456,1058.359,36.9199,1072.9098,36.4823,1087.4606,35.7955,1102.0114,35.6712,1116.5623,36.8472,1131.1131,35.75,1145.6639,37.0399,1160.2147,35.3832,1174.7655,37.0769,1189.3164,36.8842,1203.8672,36.5378,1218.418,36.2516,1232.9688,37.2349,1247.5196,37.0713,1262.0705,36.1832,1262.1017,36.2587,1263.6551,36.9386,1265.1167,37.3969,1266.8081,38.4102,1268.2396,38.7957,1269.7461,39.3626,1269.823,39.3945,1270.1108,40.7854,1270.8372,42.358,1271.8903,44.066,1272.4811,45.5824,1272.9254,47.0382,1272.8633,47.0382,1272.4592,62.1599,1272.6086,77.2816,1271.9323,92.4033,1273.5257,107.525,1272.9254,122.6467,1273.2551,122.7832,1272.5242,124.279,1271.9634,125.8452,1270.9569,127.2268,1270.4208,128.8033,1269.7461,130.3223,1269.6745,130.1496,1268.2634,131.0848,1266.7214,131.704,1265.2427,132.4761,1263.5632,132.7634,1262.0705,133.5017,1262.0705,133.3071,1247.5196,134.1435,1232.9688,134.3228,1218.418,132.7599,1203.8672,133.221,1189.3164,133.7177,1174.7655,132.6176,1160.2147,134.0131,1145.6639,133.8751,1131.1131,133.3558,1116.5623,133.7075,1102.0114,134.5563,1087.4606,133.0488,1072.9098,133.9575,1058.359,133.9151,1043.8082,133.6692,1029.2573,133.7056,1014.7065,133.6659,1000.1557,132.5983,985.6049,132.9215,971.0541,132.8337,956.5032,133.594,941.9524,133.6292,927.4016,133.7358,912.8508,133.0805,898.3,133.4039,883.7491,133.3277,869.1983,134.3366,854.6475,134.119,840.0967,132.7989,825.5459,133.3961,810.995,132.6662,796.4442,133.919,781.8934,134.3823,767.3426,134.2898,752.7918,132.8713,738.2409,134.1732,723.6901,132.4266,709.1393,133.7913,694.5885,133.0685,680.0377,133.6416,665.4868,133.8495,650.936,134.1849,636.3852,132.4597,621.8344,134.1898,607.2836,133.7595,592.7327,134.0159,578.1819,134.584,563.6311,133.5096,549.0803,133.7553,534.5295,133.8106,519.9786,133.7871,505.4278,133.5005,490.877,134.5303,476.3262,132.6192,461.7754,134.3198,447.2245,132.5985,432.6737,132.7196,418.1229,133.5596,403.5721,133.5426,389.0213,132.7884,374.4704,134.1004,359.9196,133.6592,345.3688,134.5534,330.818,134.4672,316.2672,132.8529,301.7163,132.9257,287.1655,133.3147,272.6147,134.0162,258.0639,134.0849,243.5131,133.9375,228.9622,133.0067,214.4114,134.4227,199.8606,134.419,185.3098,133.4332,170.7589,133.1557,156.2081,132.9207,141.6573,133.1911,127.1065,133.7005,112.5557,133.4027,98.0048,132.897,83.454,134.2071,68.9032,132.8374,54.3524,134.2288,39.8016,133.5017,39.8804,133.6921,38.3351,133.0315,36.8592,132.5386,35.1508,131.4845,33.6056,130.8242,32.1259,130.3223,32.3572,130.4181,31.224,128.677,30.7499,127.2089,30.2698,125.7383,29.6131,124.1945,28.9466,122.6467,28.4278,122.6467,28.8844,107.525,30.0243,92.4033,29.8852,77.2816,28.0836,62.1599,28.9466,47.0382,28.9816,47.0527,29.3534,45.4082,30.2066,43.9631,30.9848,42.4869,31.6772,40.9752,32.1259,39.3626,32.0032,39.0663,33.735,38.9052,35.1977,38.0946,36.6288,37.2075,38.1795,36.6092,39.8016,36.1832" style="stroke:#000000;stroke-width:1.4473;"/><text fill="#1E90FF" font-family="Arial" font-size="28.9466" font-weight="bold" lengthAdjust="spacing" textLength="1186.0857" x="57.8932" y="96.0737">Diagrama de sequ&#234;ncia - M&#243;dulo de Interface e Opera&#231;&#227;o (MIO) - IHM Operacional</text><!--SRC=[dLF1Rjim3BtpApXVqWfDKlHeO0E6DEjoy3AiIE-ipIG2RD6Lv23htmmx3Dkrs1VunqhPmzO2EqK7mvB8zyZ7fpVMbNLNCLulFzpEsgwf0QYCuZ5Rj-of4f_1lNIk8lyLizN78WDsqKRT55pP_aV_NL3pTvvSnOyKCgI0nGsqvACjRKikQkXYam7C9x36O4FaXfJmRebyjFVM8zNa6mu9PqlrdcPuoxx_XgMuOAkX3AJ8hhALm4EdJ8ATOWp1w0IB1PxnCST6KkdHqq5Jpd6dgNw8RDW5sd63aO-nenfAfTHKGctf0gcKHYlTKqMfYAxvKn86SU856GysQDe5AeHYoL3h5GJUgJIwexP_qYzAATxtlrnfQGQJES3axKaB9lZVjNAggPoCggEr1rLI1Tj0SOFJT-alno_SKWYCgPLAfGkWn-bMrSbncQOqJ1fqdux_cIF7kq4P-qXZHCMlI63lH7_bm7wa-kobv118LOpg73MBTLlnJKh_pU5LmiZ-Kl6aiTxRhIr7ld52D1_dC-hFQXQrGFypDPD0uDGvmEIJH0hvgUbGyqvjYr5QCERQaZwJPh1Ou8Tkz0bEiUYVgguUtj7AHVPRAbazDuWyTdbMhDRd6fdq7uxL1OvgOo31Zom0Mr7fl7Php8B2ADacYBwZU_PHWZ4vA8WnYZQzlBmoviLiK_3xyI4Ee7_1dW40]--></g></svg>