<svg xmlns="http://www.w3.org/2000/svg" xmlns:xlink="http://www.w3.org/1999/xlink" contentStyleType="text/css" data-diagram-type="SEQUENCE" height="750.1361px" preserveAspectRatio="none" style="width:1255px;height:750px;background:#EEEBDC;" version="1.1" viewBox="0 0 1255 750" width="1255.3015px" zoomAndPan="magnify"><defs/><g><rect fill="#EEEBDC" height="750.1361" style="stroke:none;stroke-width:1.384;" width="1255.3015" x="0" y="0"/><g><title>Linha de produ..o</title><polygon fill="#A9DCDF" points="420.1128,319.8458,420.1128,319.9427,422.8808,319.6546,425.6488,319.9349,428.4169,320.0301,431.1849,319.5166,433.9529,319.8458,433.8454,319.8458,433.3627,333.5588,433.4222,347.2718,433.8586,360.9848,432.9961,374.6978,434.7192,388.4108,433.0806,402.1238,433.6792,415.8367,434.5507,429.5497,433.8342,443.2627,434.0474,456.9757,433.9087,470.6887,434.2,484.4017,434.2839,498.1147,434.7635,511.8277,434.8817,525.5407,433.9529,539.2537,433.9529,539.5671,431.1849,539.3712,428.4169,539.4676,425.6488,539.5777,422.8808,538.921,420.1128,539.2537,421.0518,539.2537,419.7024,525.5407,420.8516,511.8277,419.4277,498.1147,420.018,484.4017,421.1392,470.6887,420.0453,456.9757,420.2585,443.2627,420.5814,429.5497,420.6889,415.8367,420.1074,402.1238,420.5103,388.4108,419.3205,374.6978,420.5064,360.9848,420.8715,347.2718,420.728,333.5588,420.1128,319.8458" style="stroke:#181818;stroke-width:1.384;"/></g><g><title>Contagem em tempo real</title><polygon fill="#A9DCDF" points="698.4458,363.7274,698.4458,363.8243,701.2139,363.5362,703.9819,363.8165,706.7499,363.9117,709.518,363.3982,712.286,363.7274,712.1784,363.7274,711.6957,376.8918,711.7552,390.0563,712.1917,403.2208,711.3291,416.3853,713.0522,429.5497,711.4137,442.7142,712.0123,455.8787,712.8838,469.0432,712.1673,482.2077,712.286,495.3721,712.286,495.4036,709.518,495.3574,706.7499,495.4545,703.9819,495.4825,701.2139,495.6423,698.4458,495.3721,699.3746,495.3721,699.3859,482.2077,698.7983,469.0432,699.0875,455.8787,699.4177,442.7142,697.4477,429.5497,699.3849,416.3853,698.0355,403.2208,699.1847,390.0563,697.7607,376.8918,698.4458,363.7274" style="stroke:#181818;stroke-width:1.384;"/></g><g><title>Status do sistema</title><polygon fill="#A9DCDF" points="971.0851,407.6089,971.0851,407.7059,973.8531,407.4178,976.6211,407.6981,979.3891,407.7933,982.1572,407.2798,984.9252,407.6089,984.8894,407.6089,984.7284,416.3853,984.7483,425.1616,984.8938,433.9379,984.6063,442.7142,984.9252,451.4905,984.9252,451.746,982.1572,451.1998,979.3891,451.3993,976.6211,451.6898,973.8531,451.451,971.0851,451.4905,971.1165,451.4905,971.0703,442.7142,971.1674,433.9379,971.1954,425.1616,971.3553,416.3853,971.0851,407.6089" style="stroke:#181818;stroke-width:1.384;"/></g><g><title>Operador</title><polygon fill="#000000" fill-opacity="0.00000" points="213.2412,273.1961,213.2412,273.2931,215.4556,273.005,217.67,273.2853,219.8845,273.3805,222.0989,272.867,224.3133,273.1961,224.2058,273.1961,223.723,287.0518,223.7826,300.9075,224.219,314.7633,223.3565,328.619,225.0796,342.4747,223.441,356.3304,224.0396,370.1861,224.9111,384.0418,224.1946,397.8975,224.4078,411.7532,224.2691,425.6089,224.5604,439.4646,224.6443,453.3203,225.1239,467.1761,225.2421,481.0318,225.2534,494.8875,224.6657,508.7432,224.9549,522.5989,225.2852,536.4546,223.3152,550.3103,224.3133,564.166,224.3133,564.479,222.0989,564.0292,219.8845,564.4123,217.67,563.9376,215.4556,564.1344,213.2412,564.166,214.2676,564.166,213.1738,550.3103,213.3869,536.4546,213.7099,522.5989,213.8173,508.7432,213.2358,494.8875,213.6387,481.0318,212.449,467.1761,213.6348,453.3203,213.9999,439.4646,213.8564,425.6089,214.0896,411.7532,212.5726,397.8975,212.3386,384.0418,212.3812,370.1861,213.1597,356.3304,212.9692,342.4747,214.1843,328.619,212.9994,314.7633,212.7664,300.9075,213.5571,287.0518,213.2412,273.1961"/><path d="M217.6432,273.1961 L218.0311,273.1961 L216.8786,287.0518 L217.9999,300.9075 L218.3808,314.7633 L216.3267,328.619 L217.4998,342.4747 L216.8562,356.3304 L216.9355,370.1861 L217.5174,384.0418 L216.3674,397.8975 L218.6649,411.7532 L216.4801,425.6089 L217.2783,439.4646 L218.4403,453.3203 L217.4849,467.1761 L217.7691,481.0318 L217.5842,494.8875 L217.9726,508.7432 L218.0845,522.5989 L218.724,536.4546 L218.8815,550.3103 L217.6432,564.166" fill="none" style="stroke:#0000FF;stroke-width:0.692;stroke-dasharray:6.9201,6.9201;"/></g><g><title>Linha de produ..o</title><polygon fill="#000000" fill-opacity="0.00000" points="421.4968,273.1961,421.4968,273.2931,423.7112,273.005,425.9256,273.2853,428.1401,273.3805,430.3545,272.867,432.5689,273.1961,432.4614,273.1961,431.9786,287.0518,432.0381,300.9075,432.4746,314.7633,431.612,328.619,433.3352,342.4747,431.6966,356.3304,432.2952,370.1861,433.1667,384.0418,432.4502,397.8975,432.6634,411.7532,432.5247,425.6089,432.816,439.4646,432.8999,453.3203,433.3795,467.1761,433.4977,481.0318,433.509,494.8875,432.9213,508.7432,433.2105,522.5989,433.5408,536.4546,431.5708,550.3103,432.5689,564.166,432.5689,564.479,430.3545,564.0292,428.1401,564.4123,425.9256,563.9376,423.7112,564.1344,421.4968,564.166,422.5232,564.166,421.4293,550.3103,421.6425,536.4546,421.9655,522.5989,422.0729,508.7432,421.4914,494.8875,421.8943,481.0318,420.7046,467.1761,421.8904,453.3203,422.2555,439.4646,422.112,425.6089,422.3452,411.7532,420.8282,397.8975,420.5942,384.0418,420.6368,370.1861,421.4153,356.3304,421.2248,342.4747,422.4399,328.619,421.255,314.7633,421.022,300.9075,421.8127,287.0518,421.4968,273.1961"/><path d="M426.0435,273.1961 L426.4314,273.1961 L425.279,287.0518 L426.4002,300.9075 L426.7811,314.7633 L424.7271,328.619 L425.9001,342.4747 L425.2565,356.3304 L425.3359,370.1861 L425.9178,384.0418 L424.7677,397.8975 L427.0652,411.7532 L424.8805,425.6089 L425.6786,439.4646 L426.8406,453.3203 L425.8853,467.1761 L426.1695,481.0318 L425.9846,494.8875 L426.373,508.7432 L426.4848,522.5989 L427.1243,536.4546 L427.2819,550.3103 L426.0435,564.166" fill="none" style="stroke:#0000FF;stroke-width:0.692;stroke-dasharray:6.9201,6.9201;"/></g><g><title>Contagem em tempo real</title><polygon fill="#000000" fill-opacity="0.00000" points="699.8299,273.1961,699.8299,273.2931,702.0443,273.005,704.2587,273.2853,706.4731,273.3805,708.6876,272.867,710.902,273.1961,710.7944,273.1961,710.3117,287.0518,710.3712,300.9075,710.8077,314.7633,709.9451,328.619,711.6682,342.4747,710.0297,356.3304,710.6283,370.1861,711.4998,384.0418,710.7833,397.8975,710.9964,411.7532,710.8578,425.6089,711.1491,439.4646,711.2329,453.3203,711.7126,467.1761,711.8307,481.0318,711.8421,494.8875,711.2544,508.7432,711.5436,522.5989,711.8739,536.4546,709.9038,550.3103,710.902,564.166,710.902,564.479,708.6876,564.0292,706.4731,564.4123,704.2587,563.9376,702.0443,564.1344,699.8299,564.166,700.8563,564.166,699.7624,550.3103,699.9756,536.4546,700.2985,522.5989,700.4059,508.7432,699.8245,494.8875,700.2274,481.0318,699.0376,467.1761,700.2235,453.3203,700.5886,439.4646,700.4451,425.6089,700.6783,411.7532,699.1613,397.8975,698.9272,384.0418,698.9698,370.1861,699.7484,356.3304,699.5579,342.4747,700.7729,328.619,699.5881,314.7633,699.3551,300.9075,700.1458,287.0518,699.8299,273.1961"/><path d="M704.8251,273.1961 L705.213,273.1961 L704.0606,287.0518 L705.1818,300.9075 L705.5627,314.7633 L703.5087,328.619 L704.6817,342.4747 L704.0381,356.3304 L704.1175,370.1861 L704.6994,384.0418 L703.5493,397.8975 L705.8468,411.7532 L703.6621,425.6089 L704.4602,439.4646 L705.6222,453.3203 L704.6669,467.1761 L704.9511,481.0318 L704.7662,494.8875 L705.1546,508.7432 L705.2664,522.5989 L705.9059,536.4546 L706.0635,550.3103 L704.8251,564.166" fill="none" style="stroke:#0000FF;stroke-width:0.692;stroke-dasharray:6.9201,6.9201;"/></g><g><title>Status do sistema</title><polygon fill="#000000" fill-opacity="0.00000" points="972.4691,273.1961,972.4691,273.2931,974.6835,273.005,976.8979,273.2853,979.1123,273.3805,981.3268,272.867,983.5412,273.1961,983.4336,273.1961,982.9509,287.0518,983.0104,300.9075,983.4469,314.7633,982.5843,328.619,984.3074,342.4747,982.6689,356.3304,983.2675,370.1861,984.139,384.0418,983.4225,397.8975,983.6356,411.7532,983.497,425.6089,983.7883,439.4646,983.8722,453.3203,984.3518,467.1761,984.4699,481.0318,984.4813,494.8875,983.8936,508.7432,984.1828,522.5989,984.5131,536.4546,982.5431,550.3103,983.5412,564.166,983.5412,564.479,981.3268,564.0292,979.1123,564.4123,976.8979,563.9376,974.6835,564.1344,972.4691,564.166,973.4955,564.166,972.4016,550.3103,972.6148,536.4546,972.9377,522.5989,973.0451,508.7432,972.4637,494.8875,972.8666,481.0318,971.6768,467.1761,972.8627,453.3203,973.2278,439.4646,973.0843,425.6089,973.3175,411.7532,971.8005,397.8975,971.5664,384.0418,971.609,370.1861,972.3876,356.3304,972.1971,342.4747,973.4122,328.619,972.2273,314.7633,971.9943,300.9075,972.785,287.0518,972.4691,273.1961"/><path d="M977.1736,273.1961 L977.5615,273.1961 L976.409,287.0518 L977.5303,300.9075 L977.9112,314.7633 L975.8572,328.619 L977.0302,342.4747 L976.3866,356.3304 L976.4659,370.1861 L977.0478,384.0418 L975.8978,397.8975 L978.1953,411.7532 L976.0105,425.6089 L976.8087,439.4646 L977.9707,453.3203 L977.0153,467.1761 L977.2995,481.0318 L977.1147,494.8875 L977.5031,508.7432 L977.6149,522.5989 L978.2544,536.4546 L978.4119,550.3103 L977.1736,564.166" fill="none" style="stroke:#0000FF;stroke-width:0.692;stroke-dasharray:6.9201,6.9201;"/></g><g class="participant participant-head" data-participant="Operador"><text fill="#1E90FF" font-family="Aapex" font-size="23.5283" lengthAdjust="spacing" textLength="107.4532" x="160.8986" y="266.3024">Operador</text><polygon fill="#00BFFF" points="241.0438,184.9484,237.7979,189.3836,233.9586,195.8798,228.4676,200.2577,222.6976,202.6517,218.0968,202.8595,212.1837,199.8654,206.6043,197.9094,202.3695,193.9381,200.148,189.3916,198.8307,185.7716,197.5401,181.0431,195.4453,176.9741,197.055,173.0013,198.4654,168.6494,203.758,165.2075,207.4816,160.7417,212.0905,159.2587,217.5696,157.9816,224.596,158.7404,228.4444,160.5553,232.9188,161.378,238.3592,166.9519,240.2557,172.8361,241.0797,176.8511,240.1464,183.4672" style="stroke:#00BFFF;stroke-width:0.692;"/><path d="M218.7773,207.2424 L218.7773,207.2424 L218.8214,207.3639 L221.735,205.8956 L224.9076,205.1397 L227.9958,204.1518 L230.8066,202.4011 L234.0014,201.7063 L234.0014,201.7063 L233.9816,201.6628 L236.9377,202.8515 L239.9935,204.2596 L243.1186,205.8202 L246.0048,206.8552 L249.2256,208.6264 L249.5356,208.7673 L250.2567,211.5108 L251.8829,214.6657 L253.6195,217.8708 L254.7136,220.7839 L256.1457,223.8505 L256.2296,223.8505 L256.1064,224.9577 L256.3653,226.065 L256.4399,227.1722 L256.8662,228.2794 L256.1457,229.3866 L256.1457,229.3866 L256.4375,229.6785 L254.2267,231.8965 L251.8276,233.9262 L249.704,236.2315 L247.5934,238.5497 L245.0735,240.4587 L245.0735,239.5715 L234.555,241.2934 L224.0365,240.0939 L213.518,241.1154 L202.9995,239.8497 L192.481,240.4587 L192.481,240.4587 L192.4512,240.4289 L190.5891,238.5669 L188.0309,236.0087 L185.8835,233.8612 L183.7706,231.7483 L181.4089,229.3866 L181.9209,229.3866 L181.4041,228.2794 L181.7622,227.1722 L180.7047,226.065 L181.7587,224.9577 L181.4089,223.8505 L181.4089,223.8505 L181.7158,223.9901 L183.0418,220.9188 L184.5202,217.9169 L185.2904,214.5931 L186.5797,211.5052 L188.3289,208.6264 L188.1708,208.2784 L191.3588,207.2094 L194.3686,205.7483 L197.6369,204.8559 L200.4638,202.9925 L203.5531,201.7063 L203.5531,201.7063 L203.481,201.508 L206.6459,202.9455 L209.5026,203.5352 L212.5785,204.7278 L215.8688,206.5103 L218.7773,207.2424" fill="#00BFFF"/></g><g class="participant participant-head" data-participant="A"><polygon fill="#1E90FF" points="317.3984,220.3905,317.3984,220.6814,331.1027,219.8171,344.807,220.658,358.5113,220.9437,372.2156,219.4031,385.9199,220.2829,399.6242,219.8002,413.3285,219.8597,427.0329,220.2962,440.7372,219.4336,454.4415,221.1567,468.1458,219.5182,481.8501,220.1168,495.5544,220.9883,509.2587,220.2718,522.963,220.4849,536.6673,220.3905,536.6617,220.3769,537.1882,220.6693,537.6882,220.8978,538.2387,221.2482,538.7431,221.4872,539.114,221.4039,539.4035,221.5238,539.4252,221.9382,539.7169,222.4644,540.0213,222.9959,539.6173,223.2339,540.1274,223.8505,540.4404,223.8505,539.9906,232.7508,540.3736,241.6511,539.899,250.5515,540.0958,259.4518,540.1274,268.3521,540.4435,268.483,539.9039,268.8328,539.7669,269.3493,539.6636,269.8798,539.494,270.3828,539.114,270.7987,539.1133,270.797,538.6753,271.1238,538.0342,270.9601,537.6962,271.528,537.2534,271.8431,536.6673,271.8121,536.6673,272.4273,522.963,272.6605,509.2587,271.1435,495.5544,270.9095,481.8501,270.9521,468.1458,271.7306,454.4415,271.5401,440.7372,272.7552,427.0329,271.5704,413.3285,271.3373,399.6242,272.128,385.9199,270.8892,372.2156,271.0936,358.5113,272.7103,344.807,272.4151,331.1027,272.8287,317.3984,271.8121,317.3416,271.675,316.9654,271.7455,316.524,271.6584,315.847,271.0027,315.4242,270.9605,314.9518,270.7987,315.0055,270.8209,315.0269,270.4244,314.5446,269.8193,314.5409,269.4124,313.905,268.7436,313.9383,268.3521,313.6259,268.3521,314.1707,259.4518,313.6076,250.5515,314.1731,241.6511,314.0337,232.7508,313.9383,223.8505,313.8241,223.8032,313.9902,223.2988,314.5392,222.9529,314.4188,222.3297,315.0013,221.9977,314.9518,221.4039,314.8542,221.1683,315.5501,221.4644,316.0159,221.205,316.463,220.9003,316.9174,220.6133,317.3984,220.3905" style="stroke:#00BFFF;stroke-width:0.692;"/><text fill="#A9DCDF" font-family="Impact" font-size="23.5283" lengthAdjust="spacing" textLength="206.8128" x="323.6264" y="255.2302">Linha de produ&#231;&#227;o</text></g><g class="participant participant-head" data-participant="B"><polygon fill="#1E90FF" points="557.4276,220.3905,557.4276,220.6814,571.5169,219.8171,585.6063,220.658,599.6957,220.9437,613.785,219.4031,627.8744,220.2829,641.9638,219.8002,656.0531,219.8597,670.1425,220.2962,684.2319,219.4336,698.3212,221.1567,712.4106,219.5182,726.5,220.1168,740.5893,220.9883,754.6787,220.2718,768.7681,220.4849,782.8574,220.3463,796.9468,220.6376,811.0362,220.7215,825.1255,221.2011,839.2149,221.3192,853.3043,220.3905,853.4242,220.68,853.8386,220.7017,854.3648,220.9935,854.8962,221.2979,855.1343,220.8938,855.7509,221.4039,856.0401,221.5237,855.8272,221.8409,856.3838,222.4768,856.148,222.7845,856.5324,223.3491,856.7643,223.8505,857.1065,223.8505,856.7418,232.7508,856.8129,241.6511,856.9205,250.5515,856.9563,259.4518,856.7643,268.3521,856.7627,268.3514,856.6841,268.8921,856.115,269.2297,856.2775,269.8702,856.1872,270.4061,855.7509,270.7987,855.8294,270.9882,855.3698,271.2627,854.687,270.9982,854.1678,271.1288,853.6839,271.3446,853.3043,271.8121,853.3043,271.7306,839.2149,271.5401,825.1255,272.7552,811.0362,271.5704,796.9468,271.3373,782.8574,272.128,768.7681,270.8892,754.6787,271.0936,740.5893,272.7103,726.5,272.4151,712.4106,272.8287,698.3212,271.3667,684.2319,272.2539,670.1425,272.6293,656.0531,271.1583,641.9638,271.6794,627.8744,271.9865,613.785,272.7142,599.6957,271.8063,585.6063,272.4523,571.5169,271.0457,557.4276,271.8121,557.308,271.5234,557.0271,271.8241,556.3223,271.1012,556.0494,271.421,555.5067,271.0894,554.9809,270.7987,554.8668,270.7514,554.6275,270.2469,554.7711,269.901,554.2453,269.2779,554.4225,268.9459,553.9675,268.3521,553.7125,268.3521,554.2524,259.4518,554.1909,250.5515,554.0805,241.6511,553.9893,232.7508,553.9675,223.8505,554.2772,223.9788,554.4317,223.4695,554.445,222.9018,554.6899,222.4299,554.7227,221.8702,554.9809,221.4039,555.1074,221.7093,555.4976,221.2672,555.9901,221.0721,556.3415,220.5366,556.8667,220.4205,557.4276,220.3905" style="stroke:#00BFFF;stroke-width:0.692;"/><text fill="#A9DCDF" font-family="Impact" font-size="23.5283" lengthAdjust="spacing" textLength="283.4206" x="563.6556" y="255.2302">Contagem em tempo real</text></g><g class="participant participant-head" data-participant="C"><polygon fill="#1E90FF" points="874.0645,220.3905,874.0645,220.6814,887.9233,219.8171,901.782,220.658,915.6408,220.9437,929.4995,219.4031,943.3583,220.2829,957.217,219.8002,971.0758,219.8597,984.9345,220.2962,998.7933,219.4336,1012.652,221.1567,1026.5108,219.5182,1040.3695,220.1168,1054.2283,220.9883,1068.087,220.2718,1081.9458,220.3905,1081.9578,220.4196,1082.4294,220.5796,1082.9559,220.872,1083.4559,221.1005,1084.0065,221.4509,1084.3924,221.4039,1084.6784,221.5224,1084.8846,222.0132,1084.9063,222.4275,1085.198,222.9537,1085.5024,223.4852,1085.4058,223.8505,1085.0731,223.8505,1085.7188,232.7508,1085.269,241.6511,1085.6521,250.5515,1085.1774,259.4518,1085.4058,268.3521,1085.3766,268.34,1085.5192,268.9723,1084.9797,269.3221,1084.8426,269.8386,1084.7394,270.3691,1084.3924,270.7987,1084.4659,270.9761,1083.9024,270.9997,1083.4644,271.3265,1082.8233,271.1628,1082.4853,271.7306,1081.9458,271.8121,1081.9458,272.5708,1068.087,272.4273,1054.2283,272.6605,1040.3695,271.1435,1026.5108,270.9095,1012.652,270.9521,998.7933,271.7306,984.9345,271.5401,971.0758,272.7552,957.217,271.5704,943.3583,271.3373,929.4995,272.128,915.6408,270.8892,901.782,271.0936,887.9233,272.7103,874.0645,271.8121,874.1414,271.9978,873.7049,271.9225,873.0291,271.2696,872.6529,271.3401,872.2115,271.253,871.6179,270.7987,871.4165,270.7153,871.3744,270.2924,871.2662,269.8423,871.2876,269.4458,870.8054,268.8407,870.6045,268.3521,870.8179,268.3521,870.349,259.4518,870.292,250.5515,870.8368,241.6511,870.2737,232.7508,870.6045,223.8505,870.8214,223.9404,870.8952,223.3977,870.8956,222.8246,871.0617,222.3201,871.6107,221.9742,871.6179,221.4039,871.565,221.2763,872.2117,221.4535,872.499,220.763,873.1949,221.059,873.6607,220.7996,874.0645,220.3905" style="stroke:#00BFFF;stroke-width:0.692;"/><text fill="#A9DCDF" font-family="Impact" font-size="23.5283" lengthAdjust="spacing" textLength="195.4251" x="880.2926" y="255.2302">Status do sistema</text></g><g><title>Linha de produ..o</title><polygon fill="#A9DCDF" points="420.1128,319.8458,420.1128,319.9427,422.8808,319.6546,425.6488,319.9349,428.4169,320.0301,431.1849,319.5166,433.9529,319.8458,433.8454,319.8458,433.3627,333.5588,433.4222,347.2718,433.8586,360.9848,432.9961,374.6978,434.7192,388.4108,433.0806,402.1238,433.6792,415.8367,434.5507,429.5497,433.8342,443.2627,434.0474,456.9757,433.9087,470.6887,434.2,484.4017,434.2839,498.1147,434.7635,511.8277,434.8817,525.5407,433.9529,539.2537,433.9529,539.5671,431.1849,539.3712,428.4169,539.4676,425.6488,539.5777,422.8808,538.921,420.1128,539.2537,421.0518,539.2537,419.7024,525.5407,420.8516,511.8277,419.4277,498.1147,420.018,484.4017,421.1392,470.6887,420.0453,456.9757,420.2585,443.2627,420.5814,429.5497,420.6889,415.8367,420.1074,402.1238,420.5103,388.4108,419.3205,374.6978,420.5064,360.9848,420.8715,347.2718,420.728,333.5588,420.1128,319.8458" style="stroke:#181818;stroke-width:1.384;"/></g><g><title>Contagem em tempo real</title><polygon fill="#A9DCDF" points="698.4458,363.7274,698.4458,363.8243,701.2139,363.5362,703.9819,363.8165,706.7499,363.9117,709.518,363.3982,712.286,363.7274,712.1784,363.7274,711.6957,376.8918,711.7552,390.0563,712.1917,403.2208,711.3291,416.3853,713.0522,429.5497,711.4137,442.7142,712.0123,455.8787,712.8838,469.0432,712.1673,482.2077,712.286,495.3721,712.286,495.4036,709.518,495.3574,706.7499,495.4545,703.9819,495.4825,701.2139,495.6423,698.4458,495.3721,699.3746,495.3721,699.3859,482.2077,698.7983,469.0432,699.0875,455.8787,699.4177,442.7142,697.4477,429.5497,699.3849,416.3853,698.0355,403.2208,699.1847,390.0563,697.7607,376.8918,698.4458,363.7274" style="stroke:#181818;stroke-width:1.384;"/></g><g><title>Status do sistema</title><polygon fill="#A9DCDF" points="971.0851,407.6089,971.0851,407.7059,973.8531,407.4178,976.6211,407.6981,979.3891,407.7933,982.1572,407.2798,984.9252,407.6089,984.8894,407.6089,984.7284,416.3853,984.7483,425.1616,984.8938,433.9379,984.6063,442.7142,984.9252,451.4905,984.9252,451.746,982.1572,451.1998,979.3891,451.3993,976.6211,451.6898,973.8531,451.451,971.0851,451.4905,971.1165,451.4905,971.0703,442.7142,971.1674,433.9379,971.1954,425.1616,971.3553,416.3853,971.0851,407.6089" style="stroke:#181818;stroke-width:1.384;"/></g><g class="message" data-participant-1="Operador" data-participant-2="A"><polygon fill="#00BFFF" points="403.5046,314.3097,403.5406,314.3997,406.2016,315.2394,409.0738,316.6069,411.8772,317.8025,414.4545,318.433,417.3448,319.8458,417.3314,319.8125,414.5036,320.7703,411.743,321.8959,409.029,323.1382,406.1542,323.9785,403.5046,325.3818,403.6852,325.5624,404.4062,324.069,405.6545,323.1029,406.9671,322.2011,407.9055,320.925,409.0407,319.8458,409.0629,319.868,407.923,318.7281,406.8845,317.6896,405.797,316.6021,404.8029,315.608,403.5046,314.3097" style="stroke:#00BFFF;stroke-width:1.384;"/><path d="M218.7773,319.8458 L218.7773,320.2336 L232.5652,319.0812 L246.3532,320.2024 L260.1411,320.5833 L273.9291,318.5293 L287.7171,319.7023 L301.505,319.0587 L315.293,319.1381 L329.0809,319.72 L342.8689,318.5699 L356.6569,320.8674 L370.4448,318.6827 L384.2328,319.4808 L398.0207,320.6428 L411.8087,319.8458" fill="none" style="stroke:#00BFFF;stroke-width:1.384;"/><text fill="#000000" font-family="sans-serif" font-size="17.9922" lengthAdjust="spacing" textLength="105.2904" x="228.4654" y="311.806">Iniciar/Parar</text></g><g class="message" data-participant-1="Operador" data-participant-2="B"><polygon fill="#00BFFF" points="681.8377,358.1913,681.8737,358.2813,684.5347,359.121,687.4068,360.4885,690.2102,361.6841,692.7876,362.3146,695.6778,363.7274,695.6645,363.6941,692.8367,364.6519,690.0761,365.7775,687.3621,367.0198,684.4872,367.8601,681.8377,369.2634,682.0183,369.444,682.7393,367.9506,683.9876,366.9845,685.3002,366.0827,686.2385,364.8066,687.3737,363.7274,687.396,363.7496,686.2561,362.6097,685.2175,361.5712,684.1301,360.4837,683.1359,359.4896,681.8377,358.1913" style="stroke:#00BFFF;stroke-width:1.384;"/><path d="M218.7773,363.7274 L218.7773,364.1152 L232.6409,362.9628 L246.5046,364.084 L260.3682,364.4649 L274.2319,362.4109 L288.0956,363.5839 L301.9592,362.9403 L315.8229,363.0197 L329.6866,363.6016 L343.5502,362.4515 L357.4139,364.749 L371.2775,362.5643 L385.1412,363.3624 L399.0049,364.5244 L412.8685,363.5691 L426.7322,363.8533 L440.5958,363.6684 L454.4595,364.0568 L468.3232,364.1686 L482.1868,364.8082 L496.0505,364.9657 L509.9142,364.9808 L523.7778,364.1972 L537.6415,364.5828 L551.5051,365.0232 L565.3688,362.3965 L579.2325,364.9794 L593.0961,363.1802 L606.9598,364.7124 L620.8234,362.8139 L634.6871,363.6009 L648.5508,365.0959 L662.4144,363.6374 L676.2781,363.9217 L690.1418,363.7274" fill="none" style="stroke:#00BFFF;stroke-width:1.384;"/><text fill="#000000" font-family="sans-serif" font-size="17.9922" lengthAdjust="spacing" textLength="67.3448" x="228.4654" y="355.6876">Solicitar</text></g><g class="message" data-participant-1="Operador" data-participant-2="C"><polygon fill="#00BFFF" points="954.4769,402.0729,954.5129,402.1629,957.1739,403.0026,960.0461,404.3701,962.8494,405.5657,965.4268,406.1962,968.317,407.6089,968.3037,407.5757,965.4759,408.5335,962.7153,409.6591,960.0013,410.9014,957.1265,411.7417,954.4769,413.145,954.6575,413.3256,955.3785,411.8322,956.6268,410.8661,957.9394,409.9643,958.8777,408.6882,960.0129,407.6089,960.0352,407.6312,958.8953,406.4913,957.8568,405.4528,956.7693,404.3653,955.7752,403.3712,954.4769,402.0729" style="stroke:#00BFFF;stroke-width:1.384;"/><path d="M218.7773,407.6089 L218.7773,407.9968 L232.5551,406.8444 L246.333,407.9656 L260.1108,408.3465 L273.8886,406.2925 L287.6665,407.4655 L301.4443,406.8219 L315.2222,406.9013 L329,407.4832 L342.7779,406.3331 L356.5557,408.6306 L370.3336,406.4459 L384.1114,407.244 L397.8893,408.406 L411.6671,407.4507 L425.445,407.7349 L439.2228,407.55 L453.0007,407.9384 L466.7785,408.0502 L480.5563,408.6898 L494.3342,408.8473 L508.112,408.8624 L521.8899,408.0788 L535.6677,408.4644 L549.4456,408.9048 L563.2234,406.2781 L577.0013,408.861 L590.7791,407.0618 L604.557,408.594 L618.3348,406.6955 L632.1127,407.4825 L645.8905,408.9775 L659.6683,407.519 L673.4462,407.8033 L687.224,408.2338 L701.0019,408.377 L714.7797,407.6017 L728.5576,408.139 L742.3354,406.5526 L756.1133,408.1337 L769.8911,408.6206 L783.669,408.4293 L797.4468,408.7402 L811.2247,406.7175 L825.0025,406.4054 L838.7804,406.4622 L852.5582,407.5003 L866.336,407.2463 L880.1139,408.8664 L893.8917,407.2866 L907.6696,406.9759 L921.4474,408.0302 L935.2253,406.3784 L949.0031,406.651 L962.781,407.6089" fill="none" style="stroke:#00BFFF;stroke-width:1.384;"/><text fill="#000000" font-family="sans-serif" font-size="17.9922" lengthAdjust="spacing" textLength="67.3448" x="228.4654" y="399.5692">Solicitar</text></g><g class="message" data-participant-1="C" data-participant-2="Operador"><polygon fill="#00BFFF" points="234.0014,445.9545,234.0374,446.0445,231.1624,446.8842,228.4985,448.2517,225.7658,449.4473,222.8071,450.0778,220.1613,451.4905,220.148,451.4573,222.8562,452.4151,225.6316,453.5407,228.4537,454.783,231.1149,455.6233,234.0014,457.0266,234.182,457.2072,232.6886,455.7138,231.7225,454.7477,230.8207,453.8459,229.5446,452.5698,228.4654,451.4905,228.4876,451.5128,229.5622,450.3729,230.738,449.3344,231.865,448.2469,233.0853,447.2528,234.0014,445.9545" style="stroke:#00BFFF;stroke-width:1.384;"/><path d="M225.6973,451.4905 L225.6973,451.8784 L239.6033,450.726 L253.5093,451.8472 L267.4153,452.2281 L281.3213,450.1741 L295.2273,451.3471 L309.1333,450.7035 L323.0393,450.7829 L336.9453,451.3648 L350.8513,450.2147 L364.7573,452.5122 L378.6633,450.3275 L392.5693,451.1256 L406.4753,452.2876 L420.3813,451.3323 L434.2873,451.6165 L448.1933,451.4316 L462.0993,451.82 L476.0053,451.9318 L489.9113,452.5714 L503.8173,452.7289 L517.7233,452.744 L531.6292,451.9604 L545.5352,452.346 L559.4412,452.7864 L573.3472,450.1597 L587.2532,452.7426 L601.1592,450.9434 L615.0652,452.4756 L628.9712,450.5771 L642.8772,451.3641 L656.7832,452.8591 L670.6892,451.4006 L684.5952,451.6849 L698.5012,452.1154 L712.4072,452.2586 L726.3132,451.4833 L740.2192,452.0206 L754.1252,450.4342 L768.0312,452.0153 L781.9372,452.5022 L795.8432,452.3109 L809.7492,452.6218 L823.6552,450.5991 L837.5612,450.287 L851.4672,450.3438 L865.3731,451.3819 L879.2791,451.1279 L893.1851,452.748 L907.0911,451.1682 L920.9971,450.8575 L934.9031,451.9118 L948.8091,450.26 L962.7151,450.5326 L976.6211,451.4905" fill="none" style="stroke:#00BFFF;stroke-width:1.384;stroke-dasharray:2.768,2.768;"/><text fill="#000000" font-family="sans-serif" font-size="17.9922" lengthAdjust="spacing" textLength="124.65" x="242.3055" y="443.4508">Mostrar Status</text></g><g class="message" data-participant-1="B" data-participant-2="Operador"><polygon fill="#00BFFF" points="234.0014,489.8361,234.0374,489.9261,231.1624,490.7658,228.4985,492.1333,225.7658,493.3289,222.8071,493.9594,220.1613,495.3721,220.148,495.3389,222.8562,496.2967,225.6316,497.4223,228.4537,498.6646,231.1149,499.5049,234.0014,500.9082,234.182,501.0888,232.6886,499.5954,231.7225,498.6293,230.8207,497.7275,229.5446,496.4514,228.4654,495.3721,228.4876,495.3944,229.5622,494.2545,230.738,493.216,231.865,492.1285,233.0853,491.1344,234.0014,489.8361" style="stroke:#00BFFF;stroke-width:1.384;"/><path d="M225.6973,495.3721 L225.6973,495.76 L239.3626,494.6076 L253.0279,495.7288 L266.6932,496.1097 L280.3584,494.0557 L294.0237,495.2287 L307.689,494.5851 L321.3542,494.6645 L335.0195,495.2464 L348.6848,494.0963 L362.3501,496.3938 L376.0153,494.2091 L389.6806,495.0072 L403.3459,496.1692 L417.0112,495.2139 L430.6764,495.4981 L444.3417,495.3132 L458.007,495.7016 L471.6723,495.8134 L485.3375,496.453 L499.0028,496.6105 L512.6681,496.6256 L526.3334,495.842 L539.9986,496.2276 L553.6639,496.668 L567.3292,494.0413 L580.9944,496.6242 L594.6597,494.825 L608.325,496.3572 L621.9903,494.4587 L635.6555,495.2457 L649.3208,496.7407 L662.9861,495.2822 L676.6514,495.5665 L690.3166,495.997 L703.9819,495.3721" fill="none" style="stroke:#00BFFF;stroke-width:1.384;stroke-dasharray:2.768,2.768;"/><text fill="#000000" font-family="sans-serif" font-size="17.9922" lengthAdjust="spacing" textLength="171.9875" x="242.3055" y="487.3324">Mostrar a contagem</text></g><g class="message" data-participant-1="A" data-participant-2="Operador"><polygon fill="#00BFFF" points="234.0014,533.7177,234.0374,533.8077,231.1624,534.6474,228.4985,536.0149,225.7658,537.2105,222.8071,537.841,220.1613,539.2537,220.148,539.2205,222.8562,540.1783,225.6316,541.3039,228.4537,542.5462,231.1149,543.3865,234.0014,544.7898,234.182,544.9704,232.6886,543.477,231.7225,542.5109,230.8207,541.6091,229.5446,540.333,228.4654,539.2537,228.4876,539.276,229.5622,538.1361,230.738,537.0976,231.865,536.0101,233.0853,535.016,234.0014,533.7177" style="stroke:#00BFFF;stroke-width:1.384;"/><path d="M225.6973,539.2537 L225.6973,539.6416 L239.9796,538.4892 L254.2618,539.6104 L268.5441,539.9913 L282.8263,537.9373 L297.1086,539.1103 L311.3908,538.4667 L325.6731,538.5461 L339.9553,539.128 L354.2376,537.9779 L368.5198,540.2754 L382.8021,538.0907 L397.0843,538.8888 L411.3666,540.0508 L425.6488,539.2537" fill="none" style="stroke:#00BFFF;stroke-width:1.384;stroke-dasharray:2.768,2.768;"/><text fill="#000000" font-family="sans-serif" font-size="17.9922" lengthAdjust="spacing" textLength="168.1192" x="242.3055" y="531.214">Opera&#231;&#227;o finalizada</text></g><text fill="#1E90FF" font-family="Arial" font-size="19.3762" lengthAdjust="spacing" textLength="5.0378" x="41.5204" y="613.9434">&#160;</text><text fill="#1E90FF" font-family="Arial" font-size="19.3762" lengthAdjust="spacing" textLength="5.0378" x="41.5204" y="640.3337">&#160;</text><text fill="#1E90FF" font-family="Arial" font-size="19.3762" font-weight="bold" lengthAdjust="spacing" textLength="214.9007" x="41.5204" y="666.724">Casos de Uso cobertos</text><text fill="#1E90FF" font-family="Arial" font-size="19.3762" lengthAdjust="spacing" textLength="5.1928" x="256.4212" y="666.724">:</text><text fill="#1E90FF" font-family="Arial" font-size="19.3762" lengthAdjust="spacing" textLength="6.2391" x="41.5204" y="693.1142">-</text><text fill="#1E90FF" font-family="Arial" font-size="19.3762" font-weight="bold" lengthAdjust="spacing" textLength="80.721" x="52.7974" y="693.1142">MIO-001</text><text fill="#1E90FF" font-family="Arial" font-size="19.3762" lengthAdjust="spacing" textLength="255.6487" x="138.5561" y="693.1142">Interface de opera&#231;&#227;o (IHM)</text><polygon fill="none" points="38.0604,34.6004,38.0604,34.8913,51.9747,34.0269,65.889,34.8679,79.8033,35.1535,93.7175,33.613,107.6318,34.4928,121.5461,34.0101,135.4604,34.0696,149.3747,34.506,163.2889,33.6435,177.2032,35.3666,191.1175,33.7281,205.0318,34.3267,218.9461,35.1982,232.8603,34.4817,246.7746,34.6948,260.6889,34.5562,274.6032,34.8475,288.5175,34.9313,302.4317,35.411,316.346,35.5291,330.2603,35.5405,344.1746,34.9528,358.0889,35.242,372.0031,35.5723,385.9174,33.6022,399.8317,35.5394,413.746,34.19,427.6603,35.3392,441.5745,33.9153,455.4888,34.5056,469.4031,35.6268,483.3174,34.5329,497.2317,34.7461,511.1459,35.069,525.0602,35.1764,538.9745,34.595,552.8888,34.9979,566.8031,33.8081,580.7173,34.994,594.6316,35.3591,608.5459,35.2156,622.4602,35.4488,636.3745,33.9318,650.2887,33.6977,664.203,33.7403,678.1173,34.5189,692.0316,34.3284,705.9459,35.5435,719.8601,34.3586,733.7744,34.1256,747.6887,34.9163,761.603,33.6775,775.5173,33.8819,789.4316,35.4985,803.3458,35.2033,817.2601,35.6169,831.1744,34.155,845.0887,35.0421,859.003,35.4175,872.9172,33.9466,886.8315,34.4677,900.7458,34.7747,914.6601,35.5024,928.5744,34.5946,942.4886,35.2406,956.4029,33.8339,970.3172,33.663,984.2315,35.2974,998.1458,33.6081,1012.06,35.3048,1025.9743,34.8863,1039.8886,34.2296,1053.8029,34.1107,1067.7172,35.2353,1081.6314,34.1861,1095.5457,35.4195,1109.46,33.8354,1123.3743,35.4549,1137.2886,35.2707,1151.2028,34.9394,1165.1171,34.6657,1179.0314,35.606,1192.9457,35.4496,1206.86,34.6004,1206.8898,34.6725,1208.3753,35.3227,1209.7729,35.761,1211.3904,36.7299,1212.7592,37.0986,1214.1998,37.6406,1214.2734,37.6711,1214.5486,39.0012,1215.2432,40.505,1216.2502,42.1382,1216.8152,43.5884,1217.2401,44.9805,1217.1807,44.9805,1216.7942,59.4407,1216.9371,73.9008,1216.2904,88.361,1217.8141,102.8212,1217.2401,117.2814,1217.5553,117.412,1216.8564,118.8423,1216.3202,120.34,1215.3576,121.6612,1214.845,123.1687,1214.1998,124.6212,1214.1314,124.456,1212.782,125.3504,1211.3074,125.9425,1209.8934,126.6808,1208.2874,126.9556,1206.86,127.6615,1206.86,127.4755,1192.9457,128.2753,1179.0314,128.4467,1165.1171,126.9521,1151.2028,127.3932,1137.2886,127.8681,1123.3743,126.8161,1109.46,128.1506,1095.5457,128.0186,1081.6314,127.522,1067.7172,127.8584,1053.8029,128.67,1039.8886,127.2285,1025.9743,128.0974,1012.06,128.0568,998.1458,127.8217,984.2315,127.8565,970.3172,127.8186,956.4029,126.7977,942.4886,127.1068,928.5744,127.0227,914.6601,127.7498,900.7458,127.7835,886.8315,127.8854,872.9172,127.2588,859.003,127.5681,845.0887,127.4951,831.1744,128.4599,817.2601,128.2519,803.3458,126.9895,789.4316,127.5606,775.5173,126.8626,761.603,128.0606,747.6887,128.5037,733.7744,128.4152,719.8601,127.0587,705.9459,128.3036,692.0316,126.6334,678.1173,127.9385,664.203,127.2472,650.2887,127.7954,636.3745,127.9941,622.4602,128.3149,608.5459,126.6651,594.6316,128.3196,580.7173,127.9081,566.8031,128.1533,552.8888,128.6965,538.9745,127.6691,525.0602,127.9041,511.1459,127.9569,497.2317,127.9345,483.3174,127.6604,469.4031,128.6451,455.4888,126.8176,441.5745,128.4439,427.6603,126.7979,413.746,126.9137,399.8317,127.7169,385.9174,127.7006,372.0031,126.9794,358.0889,128.2341,344.1746,127.8122,330.2603,128.6672,316.346,128.5848,302.4317,127.0411,288.5175,127.1108,274.6032,127.4827,260.6889,128.1535,246.7746,128.2192,232.8603,128.0783,218.9461,127.1882,205.0318,128.5422,191.1175,128.5387,177.2032,127.5961,163.2889,127.3306,149.3747,127.106,135.4604,127.3645,121.5461,127.8517,107.6318,127.5668,93.7175,127.0833,79.8033,128.336,65.889,127.0263,51.9747,128.3568,38.0604,127.6615,38.1358,127.8436,36.6581,127.2119,35.2467,126.7405,33.6131,125.7325,32.1355,125.1011,30.7206,124.6212,30.9417,124.7128,29.8581,123.0479,29.4047,121.644,28.9456,120.2377,28.3176,118.7615,27.6803,117.2814,27.1842,117.2814,27.6208,102.8212,28.7108,88.361,28.5778,73.9008,26.855,59.4407,27.6803,44.9805,27.7138,44.9943,28.0693,43.4218,28.8852,42.0399,29.6293,40.6283,30.2915,39.1827,30.7206,37.6406,30.6032,37.3573,32.2592,37.2033,33.658,36.4281,35.0264,35.5798,36.5093,35.0077,38.0604,34.6004" style="stroke:#000000;stroke-width:1.384;"/><text fill="#1E90FF" font-family="Arial" font-size="27.6803" font-weight="bold" lengthAdjust="spacing" textLength="1134.1992" x="55.3606" y="91.8709">Diagrama de sequ&#234;ncia - M&#243;dulo de Interface e Opera&#231;&#227;o (MIO) - IHM Operacional</text><!--SRC=[hPHDJiCm48NtFiNGJS1Ie6mZWTIc82eHYbHnW25nYwN44so71TTXWSIM8-HYJD8VKbGsQQqielZvVPbdZq-qIVCgKp2vkPsVbrMH2u6f9mkpKbdCo8eIhTUfBj5u6DnhyuB0-j9ILjMVzGSD01sCTcKn6OzBLG0_NXKbWLMOjyhnhdBkqLSECWAd7Kkn5SL215UzXWXWxvWQHb9lLn74LA3Xt-JQTUE5ze8BGHk9JL8GNiCeMf5uzh6PRSBKR-WL9nI4lGQpvvIpfqSBcs1teEC8jefVuFWeG8Br3cs938pt0kF-m1X2jjqG8aZ8UKvlpHQPEWPa_0y48TsasW4T4D_e3wXzQti55jfWhjynmoxhWBFHyqIBu84ykgZlSf6hfJ8PU2g5b1EDIuj5Up4uzLhLNuPR0498wk-iojkccHglx09J1QeRo6aodPsnSdgNh3vpbt94Keh6VaKHOa74gxbQAMDqv1h39qUySS_AUd9IHe9Df6ItS3YybBB3OorrW4mwQystfZy0]--></g></svg>