<svg xmlns="http://www.w3.org/2000/svg" xmlns:xlink="http://www.w3.org/1999/xlink" contentStyleType="text/css" data-diagram-type="SEQUENCE" height="750.3494px" preserveAspectRatio="none" style="width:828px;height:750px;background:#EEEBDC;" version="1.1" viewBox="0 0 828 750" width="828.9487px" zoomAndPan="magnify"><defs/><g><rect fill="#EEEBDC" height="750.3494" style="stroke:none;stroke-width:0.9139;" width="828.9487" x="0" y="0"/><g><title>IHM</title><polygon fill="#A9DCDF" points="331.2935,189.5468,331.2935,189.6108,333.1214,189.4205,334.9493,189.6057,336.7772,189.6685,338.605,189.3294,340.4329,189.5468,340.3619,189.5468,340.0431,198.7042,340.0824,207.8616,340.3706,217.019,339.8011,226.1764,340.9389,235.3338,339.8569,244.4913,340.2522,253.6487,340.8277,262.8061,340.3545,271.9635,340.4953,281.1209,340.4037,290.2783,340.5961,299.4357,340.6515,308.5932,340.9682,317.7506,341.0462,326.908,341.0537,336.0654,340.6657,345.2228,340.8566,354.3802,341.0747,363.5377,339.7738,372.6951,341.0531,381.8525,340.1619,391.0099,340.9208,400.1673,339.9805,409.3247,340.3703,418.4821,341.1107,427.6396,340.3884,436.797,340.5292,445.9544,340.7424,455.1118,340.8134,464.2692,340.4294,473.4266,340.6954,482.584,339.9098,491.7415,340.6929,500.8989,340.934,510.0563,340.8392,519.2137,340.9932,528.3711,339.9914,537.5285,339.8369,546.686,339.865,555.8434,340.3791,565.0008,340.2533,574.1582,341.0557,583.3156,340.2733,592.473,340.4329,601.6304,340.4329,601.5259,338.605,601.7,336.7772,601.4273,334.9493,601.4723,333.1214,601.8281,331.2935,601.6304,331.6917,601.6304,331.9648,592.473,330.9994,583.3156,331.5852,574.1582,331.8331,565.0008,330.8617,555.8434,331.2059,546.686,331.4086,537.5285,331.8892,528.3711,331.2897,519.2137,331.7162,510.0563,330.7874,500.8989,330.6745,491.7415,331.7538,482.584,330.6382,473.4266,331.7586,464.2692,331.4823,455.1118,331.0486,445.9544,330.9702,436.797,331.7128,427.6396,331.0199,418.4821,331.8344,409.3247,330.7883,400.1673,331.8578,391.0099,331.7361,381.8525,331.5174,372.6951,331.3366,363.5377,331.9576,354.3802,331.8543,345.2228,331.4482,336.0654,331.5386,326.908,331.1744,317.7506,331.9483,308.5932,331.435,299.4357,331.4512,290.2783,330.7375,281.1209,330.9231,271.9635,331.7786,262.8061,331.6863,253.6487,331.2542,244.4913,330.999,235.3338,331.0934,226.1764,330.6664,217.019,331.6725,207.8616,331.9694,198.7042,331.2935,189.5468" style="stroke:#181818;stroke-width:0.9139;"/></g><g><title>FIltragem de permiss.es</title><polygon fill="#A9DCDF" points="459.7643,189.5468,459.7643,189.6108,461.5922,189.4205,463.4201,189.6057,465.248,189.6685,467.0759,189.3294,468.9038,189.5468,468.8327,189.5468,468.514,198.7042,468.5533,207.8616,468.8415,217.019,468.2719,226.1764,469.4097,235.3338,468.3277,244.4913,468.723,253.6487,469.2985,262.8061,468.8254,271.9635,468.9661,281.1209,468.8746,290.2783,469.0669,299.4357,469.1223,308.5932,469.439,317.7506,469.5171,326.908,469.5246,336.0654,469.1365,345.2228,469.3274,354.3802,469.5456,363.5377,468.2446,372.6951,469.5239,381.8525,468.6328,391.0099,469.3916,400.1673,468.4513,409.3247,468.8411,418.4821,469.5815,427.6396,468.8592,436.797,469,445.9544,469.2132,455.1118,469.2842,464.2692,468.9002,473.4266,469.1662,482.584,468.3806,491.7415,469.1637,500.8989,469.4048,510.0563,469.31,519.2137,469.464,528.3711,468.4622,537.5285,468.3077,546.686,468.3358,555.8434,468.8499,565.0008,468.7241,574.1582,469.5265,583.3156,468.7441,592.473,468.9038,601.6304,468.9038,601.5259,467.0759,601.7,465.248,601.4273,463.4201,601.4723,461.5922,601.8281,459.7643,601.6304,460.1625,601.6304,460.4356,592.473,459.4702,583.3156,460.056,574.1582,460.3039,565.0008,459.3325,555.8434,459.6767,546.686,459.8794,537.5285,460.36,528.3711,459.7605,519.2137,460.1871,510.0563,459.2582,500.8989,459.1453,491.7415,460.2246,482.584,459.1091,473.4266,460.2295,464.2692,459.9531,455.1118,459.5194,445.9544,459.441,436.797,460.1836,427.6396,459.4907,418.4821,460.3052,409.3247,459.2591,400.1673,460.3286,391.0099,460.2069,381.8525,459.9882,372.6951,459.8075,363.5377,460.4284,354.3802,460.3251,345.2228,459.919,336.0654,460.0094,326.908,459.6452,317.7506,460.4191,308.5932,459.9058,299.4357,459.922,290.2783,459.2083,281.1209,459.3939,271.9635,460.2494,262.8061,460.1571,253.6487,459.7251,244.4913,459.4698,235.3338,459.5642,226.1764,459.1372,217.019,460.1433,207.8616,460.4402,198.7042,459.7643,189.5468" style="stroke:#181818;stroke-width:0.9139;"/></g><g><title>Sistema</title><polygon fill="#A9DCDF" points="592.3012,189.5468,592.3012,189.6108,594.1291,189.4205,595.9569,189.6057,597.7848,189.6685,599.6127,189.3294,601.4406,189.5468,601.3696,189.5468,601.0508,198.7042,601.0901,207.8616,601.3783,217.019,600.8087,226.1764,601.9466,235.3338,600.8646,244.4913,601.2599,253.6487,601.8354,262.8061,601.3622,271.9635,601.503,281.1209,601.4114,290.2783,601.6038,299.4357,601.6592,308.5932,601.9759,317.7506,602.0539,326.908,602.0614,336.0654,601.6733,345.2228,601.8643,354.3802,602.0824,363.5377,600.7815,372.6951,602.0607,381.8525,601.1696,391.0099,601.9285,400.1673,600.9882,409.3247,601.378,418.4821,602.1184,427.6396,601.3961,436.797,601.5369,445.9544,601.7501,455.1118,601.821,464.2692,601.4371,473.4266,601.7031,482.584,600.9175,491.7415,601.7005,500.8989,601.9416,510.0563,601.8469,519.2137,602.0009,528.3711,600.9991,537.5285,600.8446,546.686,600.8727,555.8434,601.3868,565.0008,601.261,574.1582,602.0634,583.3156,601.281,592.473,601.4406,601.6304,601.4406,601.5259,599.6127,601.7,597.7848,601.4273,595.9569,601.4723,594.1291,601.8281,592.3012,601.6304,592.6993,601.6304,592.9725,592.473,592.0071,583.3156,592.5929,574.1582,592.8408,565.0008,591.8694,555.8434,592.2136,546.686,592.4163,537.5285,592.8968,528.3711,592.2973,519.2137,592.7239,510.0563,591.795,500.8989,591.6822,491.7415,592.7614,482.584,591.6459,473.4266,592.7663,464.2692,592.49,455.1118,592.0563,445.9544,591.9778,436.797,592.7204,427.6396,592.0276,418.4821,592.8421,409.3247,591.796,400.1673,592.8655,391.0099,592.7438,381.8525,592.5251,372.6951,592.3443,363.5377,592.9652,354.3802,592.8619,345.2228,592.4559,336.0654,592.5463,326.908,592.1821,317.7506,592.956,308.5932,592.4427,299.4357,592.4589,290.2783,591.7452,281.1209,591.9308,271.9635,592.7862,262.8061,592.6939,253.6487,592.2619,244.4913,592.0067,235.3338,592.1011,226.1764,591.674,217.019,592.6802,207.8616,592.9771,198.7042,592.3012,189.5468" style="stroke:#181818;stroke-width:0.9139;"/></g><g><title>Operador</title><polygon fill="#000000" fill-opacity="0.00000" points="157.5075,180.4073,157.5075,180.4713,158.9698,180.2811,160.4321,180.4662,161.8945,180.5291,163.3568,180.19,164.8191,180.4073,164.7481,180.4073,164.4293,189.5445,164.4686,198.6817,164.7568,207.8189,164.1872,216.9561,165.3251,226.0933,164.243,235.2305,164.6383,244.3677,165.2139,253.505,164.7407,262.6422,164.8815,271.7794,164.7899,280.9166,164.9822,290.0538,165.0376,299.191,165.3544,308.3282,165.4324,317.4654,165.4399,326.6026,165.0518,335.7398,165.2428,344.877,165.4609,354.0142,164.16,363.1514,165.4392,372.2886,164.5481,381.4258,165.307,390.563,164.3667,399.7002,164.7565,408.8374,165.4969,417.9746,164.7745,427.1119,164.9153,436.2491,165.1286,445.3863,165.1995,454.5235,164.8155,463.6607,165.0816,472.7979,164.2959,481.9351,165.079,491.0723,165.3201,500.2095,165.2254,509.3467,165.3794,518.4839,164.3776,527.6211,164.223,536.7583,164.2512,545.8955,164.7653,555.0327,164.6395,564.1699,165.4419,573.3071,164.6594,582.4443,164.5056,591.5815,165.0277,600.7188,164.8191,609.856,164.8191,609.6528,163.3568,609.6978,161.8945,610.0537,160.4321,609.9887,158.9698,610.0797,157.5075,609.856,157.2134,609.856,157.7992,600.7188,158.0471,591.5815,157.0758,582.4443,157.4199,573.3071,157.6227,564.1699,158.1032,555.0327,157.5037,545.8955,157.9303,536.7583,157.0014,527.6211,156.8885,518.4839,157.9678,509.3467,156.8523,500.2095,157.9727,491.0723,157.6964,481.9351,157.2627,472.7979,157.1842,463.6607,157.9268,454.5235,157.2339,445.3863,158.0484,436.2491,157.0023,427.1119,158.0718,417.9746,157.9501,408.8374,157.7314,399.7002,157.5507,390.563,158.1716,381.4258,158.0683,372.2886,157.6622,363.1514,157.7526,354.0142,157.3885,344.877,158.1623,335.7398,157.6491,326.6026,157.6652,317.4654,156.9515,308.3282,157.1372,299.191,157.9926,290.0538,157.9003,280.9166,157.4683,271.7794,157.2131,262.6422,157.3074,253.505,156.8804,244.3677,157.8866,235.2305,158.1834,226.0933,157.9886,216.9561,158.1426,207.8189,157.3826,198.6817,157.5872,189.5445,157.5075,180.4073"/><path d="M160.4144,180.4073 L160.6705,180.4073 L159.9095,189.5445 L160.65,198.6817 L160.9015,207.8189 L159.5451,216.9561 L160.3197,226.0933 L159.8947,235.2305 L159.9471,244.3677 L160.3314,253.505 L159.5719,262.6422 L161.0891,271.7794 L159.6464,280.9166 L160.1734,290.0538 L160.9408,299.191 L160.3099,308.3282 L160.4976,317.4654 L160.3755,326.6026 L160.632,335.7398 L160.7058,344.877 L161.1281,354.0142 L161.2322,363.1514 L161.2422,372.2886 L160.7247,381.4258 L160.9793,390.563 L161.2702,399.7002 L159.5356,408.8374 L161.2412,417.9746 L160.0531,427.1119 L161.0649,436.2491 L159.8112,445.3863 L160.3309,454.5235 L161.3181,463.6607 L160.355,472.7979 L160.5427,481.9351 L160.8271,491.0723 L160.9216,500.2095 L160.4097,509.3467 L160.7644,518.4839 L159.7169,527.6211 L160.761,536.7583 L161.0824,545.8955 L160.9561,555.0327 L161.1614,564.1699 L159.8257,573.3071 L159.6197,582.4443 L159.6572,591.5815 L160.3427,600.7188 L160.4144,609.856" fill="none" style="stroke:#0000FF;stroke-width:0.457;stroke-dasharray:4.5697,4.5697;"/></g><g><title>IHM</title><polygon fill="#000000" fill-opacity="0.00000" points="332.2074,180.4073,332.2074,180.4713,333.6697,180.2811,335.1321,180.4662,336.5944,180.5291,338.0567,180.19,339.519,180.4073,339.448,180.4073,339.1292,189.5445,339.1685,198.6817,339.4567,207.8189,338.8871,216.9561,340.025,226.0933,338.9429,235.2305,339.3382,244.3677,339.9138,253.505,339.4406,262.6422,339.5814,271.7794,339.4898,280.9166,339.6822,290.0538,339.7375,299.191,340.0543,308.3282,340.1323,317.4654,340.1398,326.6026,339.7517,335.7398,339.9427,344.877,340.1608,354.0142,338.8599,363.1514,340.1391,372.2886,339.248,381.4258,340.0069,390.563,339.0666,399.7002,339.4564,408.8374,340.1968,417.9746,339.4745,427.1119,339.6152,436.2491,339.8285,445.3863,339.8994,454.5235,339.5154,463.6607,339.7815,472.7979,338.9958,481.9351,339.7789,491.0723,340.02,500.2095,339.9253,509.3467,340.0793,518.4839,339.0775,527.6211,338.9229,536.7583,338.9511,545.8955,339.4652,555.0327,339.3394,564.1699,340.1418,573.3071,339.3593,582.4443,339.2055,591.5815,339.7276,600.7188,339.519,609.856,339.519,609.6528,338.0567,609.6978,336.5944,610.0537,335.1321,609.9887,333.6697,610.0797,332.2074,609.856,331.9133,609.856,332.4992,600.7188,332.747,591.5815,331.7757,582.4443,332.1198,573.3071,332.3226,564.1699,332.8031,555.0327,332.2036,545.8955,332.6302,536.7583,331.7013,527.6211,331.5885,518.4839,332.6677,509.3467,331.5522,500.2095,332.6726,491.0723,332.3963,481.9351,331.9626,472.7979,331.8841,463.6607,332.6267,454.5235,331.9339,445.3863,332.7484,436.2491,331.7022,427.1119,332.7717,417.9746,332.6501,408.8374,332.4313,399.7002,332.2506,390.563,332.8715,381.4258,332.7682,372.2886,332.3621,363.1514,332.4525,354.0142,332.0884,344.877,332.8622,335.7398,332.349,326.6026,332.3651,317.4654,331.6514,308.3282,331.8371,299.191,332.6925,290.0538,332.6002,280.9166,332.1682,271.7794,331.913,262.6422,332.0073,253.505,331.5803,244.3677,332.5865,235.2305,332.8833,226.0933,332.6885,216.9561,332.8426,207.8189,332.0825,198.6817,332.2871,189.5445,332.2074,180.4073"/><path d="M335.4062,180.4073 L335.6624,180.4073 L334.9013,189.5445 L335.6418,198.6817 L335.8933,207.8189 L334.5369,216.9561 L335.3115,226.0933 L334.8865,235.2305 L334.9389,244.3677 L335.3232,253.505 L334.5637,262.6422 L336.0809,271.7794 L334.6382,280.9166 L335.1652,290.0538 L335.9326,299.191 L335.3017,308.3282 L335.4894,317.4654 L335.3673,326.6026 L335.6238,335.7398 L335.6976,344.877 L336.12,354.0142 L336.224,363.1514 L336.234,372.2886 L335.7165,381.4258 L335.9712,390.563 L336.262,399.7002 L334.5274,408.8374 L336.2331,417.9746 L335.0449,427.1119 L336.0567,436.2491 L334.803,445.3863 L335.3228,454.5235 L336.31,463.6607 L335.3468,472.7979 L335.5346,481.9351 L335.8189,491.0723 L335.9135,500.2095 L335.4015,509.3467 L335.7562,518.4839 L334.7087,527.6211 L335.7528,536.7583 L336.0743,545.8955 L335.9479,555.0327 L336.1533,564.1699 L334.8176,573.3071 L334.6115,582.4443 L334.649,591.5815 L335.3345,600.7188 L335.4062,609.856" fill="none" style="stroke:#0000FF;stroke-width:0.457;stroke-dasharray:4.5697,4.5697;"/></g><g><title>FIltragem de permiss.es</title><polygon fill="#000000" fill-opacity="0.00000" points="460.6782,180.4073,460.6782,180.4713,462.1406,180.2811,463.6029,180.4662,465.0652,180.5291,466.5275,180.19,467.9898,180.4073,467.9188,180.4073,467.6,189.5445,467.6393,198.6817,467.9275,207.8189,467.3579,216.9561,468.4958,226.0933,467.4138,235.2305,467.8091,244.3677,468.3846,253.505,467.9114,262.6422,468.0522,271.7794,467.9606,280.9166,468.153,290.0538,468.2084,299.191,468.5251,308.3282,468.6031,317.4654,468.6106,326.6026,468.2225,335.7398,468.4135,344.877,468.6316,354.0142,467.3307,363.1514,468.6099,372.2886,467.7188,381.4258,468.4777,390.563,467.5374,399.7002,467.9272,408.8374,468.6676,417.9746,467.9453,427.1119,468.086,436.2491,468.2993,445.3863,468.3702,454.5235,467.9862,463.6607,468.2523,472.7979,467.4666,481.9351,468.2497,491.0723,468.4908,500.2095,468.3961,509.3467,468.5501,518.4839,467.5483,527.6211,467.3937,536.7583,467.4219,545.8955,467.936,555.0327,467.8102,564.1699,468.6126,573.3071,467.8302,582.4443,467.6763,591.5815,468.1984,600.7188,467.9898,609.856,467.9898,609.6528,466.5275,609.6978,465.0652,610.0537,463.6029,609.9887,462.1406,610.0797,460.6782,609.856,460.3841,609.856,460.97,600.7188,461.2179,591.5815,460.2465,582.4443,460.5906,573.3071,460.7934,564.1699,461.2739,555.0327,460.6744,545.8955,461.101,536.7583,460.1721,527.6211,460.0593,518.4839,461.1385,509.3467,460.023,500.2095,461.1434,491.0723,460.8671,481.9351,460.4334,472.7979,460.3549,463.6607,461.0975,454.5235,460.4047,445.3863,461.2192,436.2491,460.1731,427.1119,461.2425,417.9746,461.1209,408.8374,460.9021,399.7002,460.7214,390.563,461.3423,381.4258,461.239,372.2886,460.8329,363.1514,460.9234,354.0142,460.5592,344.877,461.333,335.7398,460.8198,326.6026,460.836,317.4654,460.1222,308.3282,460.3079,299.191,461.1633,290.0538,461.071,280.9166,460.639,271.7794,460.3838,262.6422,460.4782,253.505,460.0511,244.3677,461.0573,235.2305,461.3542,226.0933,461.1593,216.9561,461.3134,207.8189,460.5533,198.6817,460.758,189.5445,460.6782,180.4073"/><path d="M464.2726,180.4073 L464.5287,180.4073 L463.7677,189.5445 L464.5081,198.6817 L464.7596,207.8189 L463.4032,216.9561 L464.1779,226.0933 L463.7528,235.2305 L463.8052,244.3677 L464.1895,253.505 L463.4301,262.6422 L464.9472,271.7794 L463.5045,280.9166 L464.0316,290.0538 L464.7989,299.191 L464.168,308.3282 L464.3557,317.4654 L464.2336,326.6026 L464.4901,335.7398 L464.564,344.877 L464.9863,354.0142 L465.0903,363.1514 L465.1003,372.2886 L464.5829,381.4258 L464.8375,390.563 L465.1283,399.7002 L463.3937,408.8374 L465.0994,417.9746 L463.9113,427.1119 L464.9231,436.2491 L463.6693,445.3863 L464.1891,454.5235 L465.1763,463.6607 L464.2132,472.7979 L464.4009,481.9351 L464.6852,491.0723 L464.7798,500.2095 L464.2678,509.3467 L464.6226,518.4839 L463.575,527.6211 L464.6191,536.7583 L464.9406,545.8955 L464.8143,555.0327 L465.0196,564.1699 L463.6839,573.3071 L463.4778,582.4443 L463.5153,591.5815 L464.2008,600.7188 L464.2726,609.856" fill="none" style="stroke:#0000FF;stroke-width:0.457;stroke-dasharray:4.5697,4.5697;"/></g><g><title>Sistema</title><polygon fill="#000000" fill-opacity="0.00000" points="593.2151,180.4073,593.2151,180.4713,594.6774,180.2811,596.1397,180.4662,597.6021,180.5291,599.0644,180.19,600.5267,180.4073,600.4557,180.4073,600.1369,189.5445,600.1762,198.6817,600.4644,207.8189,599.8948,216.9561,601.0327,226.0933,599.9506,235.2305,600.3459,244.3677,600.9215,253.505,600.4483,262.6422,600.589,271.7794,600.4975,280.9166,600.6898,290.0538,600.7452,299.191,601.062,308.3282,601.14,317.4654,601.1475,326.6026,600.7594,335.7398,600.9504,344.877,601.1685,354.0142,599.8676,363.1514,601.1468,372.2886,600.2557,381.4258,601.0146,390.563,600.0743,399.7002,600.4641,408.8374,601.2045,417.9746,600.4821,427.1119,600.6229,436.2491,600.8362,445.3863,600.9071,454.5235,600.5231,463.6607,600.7892,472.7979,600.0035,481.9351,600.7866,491.0723,601.0277,500.2095,600.933,509.3467,601.0869,518.4839,600.0852,527.6211,599.9306,536.7583,599.9588,545.8955,600.4729,555.0327,600.3471,564.1699,601.1495,573.3071,600.367,582.4443,600.2131,591.5815,600.7353,600.7188,600.5267,609.856,600.5267,609.6528,599.0644,609.6978,597.6021,610.0537,596.1397,609.9887,594.6774,610.0797,593.2151,609.856,592.921,609.856,593.5068,600.7188,593.7547,591.5815,592.7834,582.4443,593.1275,573.3071,593.3303,564.1699,593.8108,555.0327,593.2113,545.8955,593.6379,536.7583,592.709,527.6211,592.5961,518.4839,593.6754,509.3467,592.5599,500.2095,593.6803,491.0723,593.404,481.9351,592.9703,472.7979,592.8918,463.6607,593.6344,454.5235,592.9415,445.3863,593.756,436.2491,592.7099,427.1119,593.7794,417.9746,593.6577,408.8374,593.439,399.7002,593.2583,390.563,593.8792,381.4258,593.7759,372.2886,593.3698,363.1514,593.4602,354.0142,593.0961,344.877,593.8699,335.7398,593.3567,326.6026,593.3728,317.4654,592.6591,308.3282,592.8448,299.191,593.7002,290.0538,593.6079,280.9166,593.1759,271.7794,592.9207,262.6422,593.015,253.505,592.588,244.3677,593.5942,235.2305,593.891,226.0933,593.6962,216.9561,593.8502,207.8189,593.0902,198.6817,593.2948,189.5445,593.2151,180.4073"/><path d="M596.0036,180.4073 L596.2598,180.4073 L595.4988,189.5445 L596.2392,198.6817 L596.4907,207.8189 L595.1343,216.9561 L595.9089,226.0933 L595.4839,235.2305 L595.5363,244.3677 L595.9206,253.505 L595.1611,262.6422 L596.6783,271.7794 L595.2356,280.9166 L595.7626,290.0538 L596.53,299.191 L595.8991,308.3282 L596.0868,317.4654 L595.9647,326.6026 L596.2212,335.7398 L596.2951,344.877 L596.7174,354.0142 L596.8214,363.1514 L596.8314,372.2886 L596.3139,381.4258 L596.5686,390.563 L596.8594,399.7002 L595.1248,408.8374 L596.8305,417.9746 L595.6423,427.1119 L596.6541,436.2491 L595.4004,445.3863 L595.9202,454.5235 L596.9074,463.6607 L595.9443,472.7979 L596.132,481.9351 L596.4163,491.0723 L596.5109,500.2095 L595.9989,509.3467 L596.3536,518.4839 L595.3061,527.6211 L596.3502,536.7583 L596.6717,545.8955 L596.5454,555.0327 L596.7507,564.1699 L595.415,573.3071 L595.2089,582.4443 L595.2464,591.5815 L595.9319,600.7188 L596.0036,609.856" fill="none" style="stroke:#0000FF;stroke-width:0.457;stroke-dasharray:4.5697,4.5697;"/></g><g class="participant participant-head" data-participant="OP"><text fill="#1E90FF" font-family="Aapex" font-size="15.5371" lengthAdjust="spacing" textLength="70.9576" x="122.9426" y="175.855">Operador</text><polygon fill="#00BFFF" points="175.8672,122.1322,173.7237,125.061,171.1884,129.3508,167.5624,132.2418,163.7521,133.8227,160.714,133.9599,156.8092,131.9828,153.1248,130.6911,150.3283,128.0686,148.8613,125.0663,147.9914,122.6758,147.1392,119.5533,145.7558,116.8663,146.8188,114.2429,147.7502,111.369,151.2452,109.0961,153.7041,106.1471,156.7476,105.1678,160.3658,104.3244,165.0057,104.8255,167.5471,106.024,170.5018,106.5673,174.0944,110.2481,175.3468,114.1338,175.8909,116.7851,175.2746,121.1541" style="stroke:#00BFFF;stroke-width:0.457;"/><path d="M161.1633,136.8542 L161.1633,136.8542 L161.1925,136.9344 L163.1165,135.9649 L165.2115,135.4657 L167.2508,134.8133 L169.107,133.6572 L171.2167,133.1984 L171.2167,133.1984 L171.2036,133.1697 L173.1557,133.9546 L175.1736,134.8845 L177.2373,135.915 L179.1432,136.5985 L181.2701,137.7681 L181.4748,137.8612 L181.951,139.6729 L183.0249,141.7563 L184.1717,143.8728 L184.8942,145.7964 L185.8398,147.8215 L185.8953,147.8215 L185.8139,148.5527 L185.9849,149.2839 L186.0341,150.015 L186.3156,150.7462 L185.8398,151.4773 L185.8398,151.4773 L186.0326,151.6701 L184.5726,153.1347 L182.9883,154.4751 L181.586,155.9974 L180.1923,157.5283 L178.5283,158.7889 L178.5283,158.203 L171.5823,159.3401 L164.6363,158.548 L157.6903,159.2226 L150.7443,158.3867 L143.7983,158.7889 L143.7983,158.7889 L143.7787,158.7692 L142.549,157.5396 L140.8597,155.8503 L139.4416,154.4322 L138.0463,153.0369 L136.4868,151.4773 L136.8249,151.4773 L136.4836,150.7462 L136.7201,150.015 L136.0217,149.2839 L136.7178,148.5527 L136.4868,147.8215 L136.4868,147.8215 L136.6895,147.9137 L137.5651,145.8856 L138.5414,143.9032 L139.05,141.7083 L139.9014,139.6692 L141.0565,137.7681 L140.952,137.5384 L143.0573,136.8324 L145.0448,135.8676 L147.2031,135.2783 L149.0699,134.0478 L151.1099,133.1984 L151.1099,133.1984 L151.0623,133.0675 L153.1523,134.0167 L155.0387,134.4062 L157.0699,135.1937 L159.2427,136.3708 L161.1633,136.8542" fill="#00BFFF"/></g><g class="participant participant-head" data-participant="IHM"><text fill="#000000" font-family="sans-serif" font-size="12.7952" lengthAdjust="spacing" textLength="25.424" x="320.4093" y="176.6583">IHM</text><path d="M317.1273,137.3898 L317.2981,137.3898 L316.7907,141.7767 L317.2843,146.1637 L317.452,150.5506 L316.5478,154.9376 L317.1273,159.3245 M317.1273,148.3571 L317.1273,148.294 L320.2347,148.0107 L323.3422,148.0456 L326.4496,148.3018 L329.557,147.7955 L332.6644,148.3571" fill="none" style="stroke:#181818;stroke-width:0.457;"/><polygon fill="#E2E2F0" points="354.6597,151.0248,353.0521,153.2215,351.1506,156.4388,348.4311,158.607,345.5734,159.7927,343.2948,159.8956,340.3662,158.4127,337.6029,157.444,335.5055,155.4771,334.4053,153.2254,333.7528,151.4325,333.1136,149.0907,332.0761,147.0754,332.8734,145.1078,333.5719,142.9525,336.1932,141.2478,338.0374,139.036,340.32,138.3015,343.0336,137.669,346.5136,138.0448,348.4196,138.9437,350.6356,139.3511,353.3301,142.1117,354.2693,145.026,354.6774,147.0145,354.2152,150.2913" style="stroke:#181818;stroke-width:0.457;"/></g><g class="participant participant-head" data-participant="Z"><polygon fill="#1E90FF" points="369.6792,145.5367,369.6792,145.7288,378.6939,145.158,387.7087,145.7133,396.7234,145.902,405.7382,144.8847,414.7529,145.4657,423.7677,145.1469,432.7824,145.1862,441.7972,145.4744,450.8119,144.9048,459.8267,146.0427,468.8414,144.9606,477.8561,145.3559,486.8709,145.9315,495.8856,145.4583,504.9004,145.599,513.9151,145.5075,522.9299,145.6998,531.9446,145.7552,540.9594,146.072,549.9741,146.15,558.9888,145.5367,559.068,145.7279,559.3417,145.7422,559.6892,145.9348,560.0401,146.1359,560.1973,145.8691,560.6045,146.2059,560.7955,146.285,560.6549,146.4945,561.0224,146.9144,560.8667,147.1176,561.1206,147.4904,561.2737,147.8215,561.4996,147.8215,561.2589,153.6989,561.3058,159.5763,561.3769,165.4537,561.4005,171.3311,561.2737,177.2085,561.2726,177.208,561.2207,177.5651,560.8449,177.788,560.9522,178.211,560.8926,178.5649,560.6045,178.8241,560.6563,178.9493,560.3528,179.1305,559.9019,178.9559,559.5591,179.0421,559.2395,179.1846,558.9888,179.4934,558.9888,179.4396,549.9741,179.3138,540.9594,180.1161,531.9446,179.3337,522.9299,179.1798,513.9151,179.702,504.9004,178.8839,495.8856,179.0189,486.8709,180.0865,477.8561,179.8915,468.8414,180.1647,459.8267,179.1993,450.8119,179.7851,441.7972,180.033,432.7824,179.0616,423.7677,179.4058,414.7529,179.6085,405.7382,180.089,396.7234,179.4895,387.7087,179.9161,378.6939,178.9872,369.6792,179.4934,369.6002,179.3027,369.4148,179.5013,368.9494,179.0239,368.7691,179.2351,368.4108,179.0161,368.0636,178.8241,367.9881,178.7929,367.8301,178.4598,367.925,178.2314,367.5778,177.8199,367.6948,177.6006,367.3943,177.2085,367.2259,177.2085,367.5824,171.3311,367.5419,165.4537,367.469,159.5763,367.4087,153.6989,367.3943,147.8215,367.5988,147.9063,367.7009,147.5699,367.7097,147.195,367.8714,146.8834,367.893,146.5138,368.0636,146.2059,368.1471,146.4076,368.4047,146.1156,368.7299,145.9868,368.962,145.6331,369.3088,145.5565,369.6792,145.5367" style="stroke:#00BFFF;stroke-width:0.457;"/><text fill="#A9DCDF" font-family="Impact" font-size="15.5371" lengthAdjust="spacing" textLength="181.0841" x="373.792" y="168.5434">FIltragem de permiss&#245;es</text></g><g class="participant participant-head" data-participant="ST"><text fill="#000000" font-family="sans-serif" font-size="12.7952" lengthAdjust="spacing" textLength="47.4318" x="570.4132" y="176.6583">Sistema</text><polygon fill="#E2E2F0" points="607.8988,151.0248,606.2912,153.2215,604.3897,156.4388,601.6702,158.607,598.8125,159.7927,596.5339,159.8956,593.6053,158.4127,590.842,157.444,588.7446,155.4771,587.6444,153.2254,586.992,151.4325,586.3528,149.0907,585.3153,147.0754,586.1125,145.1078,586.811,142.9525,589.4323,141.2478,591.2765,139.036,593.5591,138.3015,596.2728,137.669,599.7527,138.0448,601.6587,138.9437,603.8748,139.3511,606.5692,142.1117,607.5085,145.026,607.9166,147.0145,607.4543,150.2913" style="stroke:#181818;stroke-width:0.457;"/><polygon fill="#181818" points="593.2151,137.3898,593.2561,137.439,594.231,136.3789,595.4463,135.6071,596.5833,134.7415,597.4629,133.5671,598.6988,132.8201,598.6768,132.8113,598.2126,133.6858,597.8592,134.6046,597.5828,135.5542,597.0409,136.3976,596.8709,137.3898,597.0275,137.4524,597.0582,138.2324,597.5461,139.1953,598.0898,140.1805,598.3089,141.0359,598.6988,141.9595,598.7121,141.9755,597.5958,141.0381,596.5401,140.1734,595.4552,139.2737,594.4261,138.4408,593.2151,137.3898" style="stroke:#181818;stroke-width:0.9139;"/></g><g><title>IHM</title><polygon fill="#A9DCDF" points="331.2935,189.5468,331.2935,189.6108,333.1214,189.4205,334.9493,189.6057,336.7772,189.6685,338.605,189.3294,340.4329,189.5468,340.3619,189.5468,340.0431,198.7042,340.0824,207.8616,340.3706,217.019,339.8011,226.1764,340.9389,235.3338,339.8569,244.4913,340.2522,253.6487,340.8277,262.8061,340.3545,271.9635,340.4953,281.1209,340.4037,290.2783,340.5961,299.4357,340.6515,308.5932,340.9682,317.7506,341.0462,326.908,341.0537,336.0654,340.6657,345.2228,340.8566,354.3802,341.0747,363.5377,339.7738,372.6951,341.0531,381.8525,340.1619,391.0099,340.9208,400.1673,339.9805,409.3247,340.3703,418.4821,341.1107,427.6396,340.3884,436.797,340.5292,445.9544,340.7424,455.1118,340.8134,464.2692,340.4294,473.4266,340.6954,482.584,339.9098,491.7415,340.6929,500.8989,340.934,510.0563,340.8392,519.2137,340.9932,528.3711,339.9914,537.5285,339.8369,546.686,339.865,555.8434,340.3791,565.0008,340.2533,574.1582,341.0557,583.3156,340.2733,592.473,340.4329,601.6304,340.4329,601.5259,338.605,601.7,336.7772,601.4273,334.9493,601.4723,333.1214,601.8281,331.2935,601.6304,331.6917,601.6304,331.9648,592.473,330.9994,583.3156,331.5852,574.1582,331.8331,565.0008,330.8617,555.8434,331.2059,546.686,331.4086,537.5285,331.8892,528.3711,331.2897,519.2137,331.7162,510.0563,330.7874,500.8989,330.6745,491.7415,331.7538,482.584,330.6382,473.4266,331.7586,464.2692,331.4823,455.1118,331.0486,445.9544,330.9702,436.797,331.7128,427.6396,331.0199,418.4821,331.8344,409.3247,330.7883,400.1673,331.8578,391.0099,331.7361,381.8525,331.5174,372.6951,331.3366,363.5377,331.9576,354.3802,331.8543,345.2228,331.4482,336.0654,331.5386,326.908,331.1744,317.7506,331.9483,308.5932,331.435,299.4357,331.4512,290.2783,330.7375,281.1209,330.9231,271.9635,331.7786,262.8061,331.6863,253.6487,331.2542,244.4913,330.999,235.3338,331.0934,226.1764,330.6664,217.019,331.6725,207.8616,331.9694,198.7042,331.2935,189.5468" style="stroke:#181818;stroke-width:0.9139;"/></g><g><title>FIltragem de permiss.es</title><polygon fill="#A9DCDF" points="459.7643,189.5468,459.7643,189.6108,461.5922,189.4205,463.4201,189.6057,465.248,189.6685,467.0759,189.3294,468.9038,189.5468,468.8327,189.5468,468.514,198.7042,468.5533,207.8616,468.8415,217.019,468.2719,226.1764,469.4097,235.3338,468.3277,244.4913,468.723,253.6487,469.2985,262.8061,468.8254,271.9635,468.9661,281.1209,468.8746,290.2783,469.0669,299.4357,469.1223,308.5932,469.439,317.7506,469.5171,326.908,469.5246,336.0654,469.1365,345.2228,469.3274,354.3802,469.5456,363.5377,468.2446,372.6951,469.5239,381.8525,468.6328,391.0099,469.3916,400.1673,468.4513,409.3247,468.8411,418.4821,469.5815,427.6396,468.8592,436.797,469,445.9544,469.2132,455.1118,469.2842,464.2692,468.9002,473.4266,469.1662,482.584,468.3806,491.7415,469.1637,500.8989,469.4048,510.0563,469.31,519.2137,469.464,528.3711,468.4622,537.5285,468.3077,546.686,468.3358,555.8434,468.8499,565.0008,468.7241,574.1582,469.5265,583.3156,468.7441,592.473,468.9038,601.6304,468.9038,601.5259,467.0759,601.7,465.248,601.4273,463.4201,601.4723,461.5922,601.8281,459.7643,601.6304,460.1625,601.6304,460.4356,592.473,459.4702,583.3156,460.056,574.1582,460.3039,565.0008,459.3325,555.8434,459.6767,546.686,459.8794,537.5285,460.36,528.3711,459.7605,519.2137,460.1871,510.0563,459.2582,500.8989,459.1453,491.7415,460.2246,482.584,459.1091,473.4266,460.2295,464.2692,459.9531,455.1118,459.5194,445.9544,459.441,436.797,460.1836,427.6396,459.4907,418.4821,460.3052,409.3247,459.2591,400.1673,460.3286,391.0099,460.2069,381.8525,459.9882,372.6951,459.8075,363.5377,460.4284,354.3802,460.3251,345.2228,459.919,336.0654,460.0094,326.908,459.6452,317.7506,460.4191,308.5932,459.9058,299.4357,459.922,290.2783,459.2083,281.1209,459.3939,271.9635,460.2494,262.8061,460.1571,253.6487,459.7251,244.4913,459.4698,235.3338,459.5642,226.1764,459.1372,217.019,460.1433,207.8616,460.4402,198.7042,459.7643,189.5468" style="stroke:#181818;stroke-width:0.9139;"/></g><g><title>Sistema</title><polygon fill="#A9DCDF" points="592.3012,189.5468,592.3012,189.6108,594.1291,189.4205,595.9569,189.6057,597.7848,189.6685,599.6127,189.3294,601.4406,189.5468,601.3696,189.5468,601.0508,198.7042,601.0901,207.8616,601.3783,217.019,600.8087,226.1764,601.9466,235.3338,600.8646,244.4913,601.2599,253.6487,601.8354,262.8061,601.3622,271.9635,601.503,281.1209,601.4114,290.2783,601.6038,299.4357,601.6592,308.5932,601.9759,317.7506,602.0539,326.908,602.0614,336.0654,601.6733,345.2228,601.8643,354.3802,602.0824,363.5377,600.7815,372.6951,602.0607,381.8525,601.1696,391.0099,601.9285,400.1673,600.9882,409.3247,601.378,418.4821,602.1184,427.6396,601.3961,436.797,601.5369,445.9544,601.7501,455.1118,601.821,464.2692,601.4371,473.4266,601.7031,482.584,600.9175,491.7415,601.7005,500.8989,601.9416,510.0563,601.8469,519.2137,602.0009,528.3711,600.9991,537.5285,600.8446,546.686,600.8727,555.8434,601.3868,565.0008,601.261,574.1582,602.0634,583.3156,601.281,592.473,601.4406,601.6304,601.4406,601.5259,599.6127,601.7,597.7848,601.4273,595.9569,601.4723,594.1291,601.8281,592.3012,601.6304,592.6993,601.6304,592.9725,592.473,592.0071,583.3156,592.5929,574.1582,592.8408,565.0008,591.8694,555.8434,592.2136,546.686,592.4163,537.5285,592.8968,528.3711,592.2973,519.2137,592.7239,510.0563,591.795,500.8989,591.6822,491.7415,592.7614,482.584,591.6459,473.4266,592.7663,464.2692,592.49,455.1118,592.0563,445.9544,591.9778,436.797,592.7204,427.6396,592.0276,418.4821,592.8421,409.3247,591.796,400.1673,592.8655,391.0099,592.7438,381.8525,592.5251,372.6951,592.3443,363.5377,592.9652,354.3802,592.8619,345.2228,592.4559,336.0654,592.5463,326.908,592.1821,317.7506,592.956,308.5932,592.4427,299.4357,592.4589,290.2783,591.7452,281.1209,591.9308,271.9635,592.7862,262.8061,592.6939,253.6487,592.2619,244.4913,592.0067,235.3338,592.1011,226.1764,591.674,217.019,592.6802,207.8616,592.9771,198.7042,592.3012,189.5468" style="stroke:#181818;stroke-width:0.9139;"/></g><polygon fill="#FEFFDD" points="395.2984,194.1165,395.2984,194.3086,404.4988,193.7378,413.6992,194.2932,422.8996,194.4818,432.1,193.4645,441.3004,194.0455,450.5008,193.7267,459.7011,193.766,468.9015,194.0542,478.1019,193.4846,487.3023,194.6225,496.5027,193.5405,505.7031,193.9357,514.9035,194.5113,524.1039,194.0381,533.3042,194.1165,533.323,194.1254,535.1233,197.9509,537.0091,201.817,538.8537,205.6635,540.7769,209.5475,542.4437,213.3094,542.6298,213.394,540.8042,217.4163,538.8585,221.3842,537.0886,225.4319,535.3269,229.4833,533.3042,233.4162,533.3042,232.757,524.1039,234.0363,514.9035,233.1452,505.7031,233.904,496.5027,232.9637,487.3023,233.3536,478.1019,234.0939,468.9015,233.3716,459.7011,233.5124,450.5008,233.7256,441.3004,233.7966,432.1,233.4126,422.8996,233.6787,413.6992,232.893,404.4988,233.6761,395.2984,233.4162,395.4505,233.4853,393.5938,229.4508,391.8127,225.4507,389.6808,221.2912,387.806,217.2485,386.159,213.3094,385.9881,213.228,387.9707,209.4631,389.7607,205.6065,391.8301,201.8829,393.4225,197.9322,395.2984,194.1165" style="stroke:#181818;stroke-width:0.457;"/><text fill="#000000" font-family="sans-serif" font-size="11.8813" lengthAdjust="spacing" textLength="109.3793" x="397.1263" y="210.4734">Verifica os n&#237;veis de</text><text fill="#000000" font-family="sans-serif" font-size="11.8813" lengthAdjust="spacing" textLength="131.324" x="400.2155" y="226.6557">autoriza&#231;&#227;o do usu&#225;rio.</text><g class="message" data-participant-1="OP" data-participant-2="IHM"><polygon fill="#00BFFF" points="320.3261,256.3727,320.3499,256.4321,322.1071,256.9867,324.0038,257.8897,325.855,258.6792,327.557,259.0955,329.4656,260.0285,329.4568,260.0065,327.5894,260.639,325.7664,261.3823,323.9742,262.2027,322.0758,262.7575,320.3261,263.6843,320.4454,263.8035,320.9215,262.8173,321.7458,262.1793,322.6127,261.5838,323.2323,260.7412,323.9819,260.0285,323.9966,260.0432,323.2439,259.2904,322.5581,258.6046,321.84,257.8865,321.1835,257.23,320.3261,256.3727" style="stroke:#00BFFF;stroke-width:0.9139;"/><path d="M161.1633,260.0285 L161.1633,260.2846 L170.3103,259.5236 L179.4574,260.264 L188.6044,260.5155 L197.7514,259.1591 L206.8984,259.9338 L216.0455,259.5088 L225.1925,259.5611 L234.3395,259.9454 L243.4866,259.186 L252.6336,260.7031 L261.7806,259.2604 L270.9276,259.7875 L280.0747,260.5548 L289.2217,259.9239 L298.3687,260.1116 L307.5158,259.9895 L316.6628,260.246 L325.8098,260.0285" fill="none" style="stroke:#00BFFF;stroke-width:0.9139;"/><text fill="#000000" font-family="sans-serif" font-size="11.8813" lengthAdjust="spacing" textLength="148.1955" x="167.5609" y="254.7194">Iniciar/Parar ciclo de linha.</text></g><g class="message" data-participant-1="IHM" data-participant-2="ST"><polygon fill="#00BFFF" points="581.3338,285.3503,581.3576,285.4097,583.1148,285.9642,585.0115,286.8673,586.8627,287.6568,588.5647,288.0731,590.4733,289.006,590.4645,288.9841,588.5971,289.6166,586.7741,290.3599,584.9819,291.1802,583.0835,291.7351,581.3338,292.6618,581.4531,292.7811,581.9292,291.7949,582.7535,291.1569,583.6203,290.5614,584.24,289.7187,584.9896,289.006,585.0043,289.0207,584.2516,288.268,583.5657,287.5822,582.8476,286.8641,582.1911,286.2076,581.3338,285.3503" style="stroke:#00BFFF;stroke-width:0.9139;"/><path d="M340.4329,289.006 L340.4329,289.2622 L349.5583,288.5012 L358.6836,289.2416 L367.809,289.4931 L376.9344,288.1367 L386.0597,288.9113 L395.1851,288.4863 L404.3104,288.5387 L413.4358,288.923 L422.5611,288.1636 L431.6865,289.6807 L440.8118,288.238 L449.9372,288.7651 L459.0625,289.5324 L468.1879,288.9015 L477.3132,289.0892 L486.4386,288.9671 L495.564,289.2236 L504.6893,289.2975 L513.8147,289.7198 L522.94,289.8238 L532.0654,289.8338 L541.1907,289.3163 L550.3161,289.571 L559.4414,289.8618 L568.5668,288.1272 L577.6921,289.8329 L586.8175,289.006" fill="none" style="stroke:#00BFFF;stroke-width:0.9139;"/><text fill="#000000" font-family="sans-serif" font-size="11.8813" lengthAdjust="spacing" textLength="175.4393" x="346.8306" y="283.6969">Se autorizado o processo inicia.</text></g><g class="message" data-participant-1="ST" data-participant-2="IHM"><polygon fill="#00BFFF" points="350.4863,314.3278,350.5101,314.3873,348.6116,314.9418,346.8524,315.8448,345.0479,316.6344,343.0941,317.0507,341.3469,317.9836,341.3381,317.9616,343.1265,318.5941,344.9593,319.3375,346.8228,320.1578,348.5802,320.7127,350.4863,321.6394,350.6056,321.7587,349.6194,320.7725,348.9814,320.1345,348.3859,319.539,347.5432,318.6963,346.8306,317.9836,346.8453,317.9983,347.5548,317.2456,348.3313,316.5598,349.0755,315.8417,349.8814,315.1852,350.4863,314.3278" style="stroke:#00BFFF;stroke-width:0.9139;"/><path d="M345.0027,317.9836 L345.0027,318.2398 L354.128,317.4787 L363.2534,318.2192 L372.3787,318.4707 L381.5041,317.1143 L390.6294,317.8889 L399.7548,317.4639 L408.8801,317.5163 L418.0055,317.9006 L427.1309,317.1411 L436.2562,318.6583 L445.3816,317.2156 L454.5069,317.7426 L463.6323,318.51 L472.7576,317.8791 L481.883,318.0668 L491.0083,317.9447 L500.1337,318.2012 L509.259,318.275 L518.3844,318.6973 L527.5097,318.8014 L536.6351,318.8114 L545.7605,318.2939 L554.8858,318.5485 L564.0112,318.8394 L573.1365,317.1048 L582.2619,318.8105 L591.3872,317.9836" fill="none" style="stroke:#00BFFF;stroke-width:0.9139;stroke-dasharray:1.8279,1.8279;"/><text fill="#000000" font-family="sans-serif" font-size="11.8813" lengthAdjust="spacing" textLength="200.0693" x="355.97" y="312.6745">Contagem de turnos em tempo real</text></g><g class="message" data-participant-1="ST" data-participant-2="IHM"><polygon fill="#00BFFF" points="350.4863,343.3054,350.5101,343.3649,348.6116,343.9194,346.8524,344.8224,345.0479,345.6119,343.0941,346.0283,341.3469,346.9612,341.3381,346.9392,343.1265,347.5717,344.9593,348.315,346.8228,349.1354,348.5802,349.6903,350.4863,350.617,350.6056,350.7362,349.6194,349.7501,348.9814,349.1121,348.3859,348.5166,347.5432,347.6739,346.8306,346.9612,346.8453,346.9759,347.5548,346.2232,348.3313,345.5373,349.0755,344.8192,349.8814,344.1627,350.4863,343.3054" style="stroke:#00BFFF;stroke-width:0.9139;"/><path d="M345.0027,346.9612 L345.0027,347.2173 L354.128,346.4563 L363.2534,347.1967 L372.3787,347.4482 L381.5041,346.0919 L390.6294,346.8665 L399.7548,346.4415 L408.8801,346.4939 L418.0055,346.8781 L427.1309,346.1187 L436.2562,347.6359 L445.3816,346.1931 L454.5069,346.7202 L463.6323,347.4876 L472.7576,346.8567 L481.883,347.0444 L491.0083,346.9223 L500.1337,347.1788 L509.259,347.2526 L518.3844,347.6749 L527.5097,347.7789 L536.6351,347.7889 L545.7605,347.2715 L554.8858,347.5261 L564.0112,347.8169 L573.1365,346.0824 L582.2619,347.788 L591.3872,346.9612" fill="none" style="stroke:#00BFFF;stroke-width:0.9139;stroke-dasharray:1.8279,1.8279;"/><text fill="#000000" font-family="sans-serif" font-size="11.8813" lengthAdjust="spacing" textLength="98.6861" x="355.97" y="341.6521">Status do sistema</text></g><polygon fill="#FEFFDD" points="286.5389,358.8425,286.5389,359.0346,295.346,358.4638,304.1531,359.0191,312.9603,359.2078,321.7674,358.1905,330.5745,358.7715,339.3816,358.4527,348.1887,358.492,356.9958,358.7802,365.8029,358.2106,374.61,359.3485,383.4172,358.8425,383.2696,358.7196,385.1988,360.9974,387.174,363.3137,388.8808,365.4062,390.7447,367.6297,392.5566,369.8098,392.5489,369.8039,390.7718,372.2193,388.9586,374.6068,387.2144,377.0474,385.4071,379.4395,383.4172,381.6911,383.4172,382.3119,374.61,381.9238,365.8029,382.1148,356.9958,382.3329,348.1887,381.032,339.3816,382.3113,330.5745,381.4201,321.7674,382.179,312.9603,381.2387,304.1531,381.6285,295.346,382.3689,286.5389,381.6911,286.5271,381.6821,284.7365,379.3344,282.9649,377.0015,281.1557,374.6397,279.2264,372.1854,277.3995,369.8098,277.4667,369.8659,279.0934,367.5047,281.1218,365.4784,283.0114,363.3363,284.8151,361.1227,286.5389,358.8425" style="stroke:#181818;stroke-width:0.457;"/><text fill="#000000" font-family="sans-serif" font-size="11.8813" lengthAdjust="spacing" textLength="93.7554" x="288.3668" y="375.1994">Fluxo dos dados.</text><g class="message" data-participant-1="ST" data-participant-2="IHM"><polygon fill="#00BFFF" points="350.4863,388.734,350.5101,388.7935,348.6116,389.348,346.8524,390.251,345.0479,391.0405,343.0941,391.4569,341.3469,392.3898,341.3381,392.3678,343.1265,393.0003,344.9593,393.7436,346.8228,394.564,348.5802,395.1189,350.4863,396.0456,350.6056,396.1648,349.6194,395.1786,348.9814,394.5407,348.3859,393.9452,347.5432,393.1025,346.8306,392.3898,346.8453,392.4045,347.5548,391.6518,348.3313,390.9659,349.0755,390.2478,349.8814,389.5913,350.4863,388.734" style="stroke:#00BFFF;stroke-width:0.9139;"/><path d="M345.0027,392.3898 L345.0027,392.6459 L354.128,391.8849 L363.2534,392.6253 L372.3787,392.8768 L381.5041,391.5205 L390.6294,392.2951 L399.7548,391.8701 L408.8801,391.9225 L418.0055,392.3067 L427.1309,391.5473 L436.2562,393.0645 L445.3816,391.6217 L454.5069,392.1488 L463.6323,392.9162 L472.7576,392.2853 L481.883,392.473 L491.0083,392.3509 L500.1337,392.6073 L509.259,392.6812 L518.3844,393.1035 L527.5097,393.2075 L536.6351,393.2175 L545.7605,392.7001 L554.8858,392.9547 L564.0112,393.2455 L573.1365,391.511 L582.2619,393.2166 L591.3872,392.3898" fill="none" style="stroke:#00BFFF;stroke-width:0.9139;stroke-dasharray:1.8279,1.8279;"/></g><g class="message" data-participant-1="IHM" data-participant-2="ST"><polygon fill="#00BFFF" points="581.3338,401.5293,581.3576,401.5887,583.1148,402.1432,585.0115,403.0462,586.8627,403.8358,588.5647,404.2521,590.4733,405.185,590.4645,405.1631,588.5971,405.7956,586.7741,406.5389,584.9819,407.3592,583.0835,407.9141,581.3338,408.8408,581.4531,408.9601,581.9292,407.9739,582.7535,407.3359,583.6203,406.7404,584.24,405.8977,584.9896,405.185,585.0043,405.1997,584.2516,404.447,583.5657,403.7612,582.8476,403.0431,582.1911,402.3866,581.3338,401.5293" style="stroke:#00BFFF;stroke-width:0.9139;"/><path d="M340.4329,405.185 L340.4329,405.4412 L349.5583,404.6801 L358.6836,405.4206 L367.809,405.6721 L376.9344,404.3157 L386.0597,405.0903 L395.1851,404.6653 L404.3104,404.7177 L413.4358,405.102 L422.5611,404.3425 L431.6865,405.8597 L440.8118,404.417 L449.9372,404.944 L459.0625,405.7114 L468.1879,405.0805 L477.3132,405.2682 L486.4386,405.1461 L495.564,405.4026 L504.6893,405.4764 L513.8147,405.8988 L522.94,406.0028 L532.0654,406.0128 L541.1907,405.4953 L550.3161,405.75 L559.4414,406.0408 L568.5668,404.3062 L577.6921,406.0119 L586.8175,405.185" fill="none" style="stroke:#00BFFF;stroke-width:0.9139;"/></g><polygon fill="#FEFFDD" points="502.2301,417.0663,502.2301,417.2584,511.1955,416.6877,520.1608,417.243,529.1262,417.4316,538.0916,416.4143,547.0569,416.9953,556.0223,416.6765,564.9877,416.7158,573.9531,417.004,582.9184,416.4345,591.8838,417.5723,600.8492,416.4903,609.8145,416.8856,618.7799,417.4611,627.7453,416.9879,636.7107,417.1287,645.676,417.0371,654.6414,417.2295,663.6068,417.2849,672.5721,417.6016,681.5375,417.6796,690.5029,417.0663,690.6619,417.1988,692.3904,419.3095,694.2672,421.5437,696.1509,423.7837,697.6457,425.6996,699.6423,428.0337,699.8062,428.1597,697.7429,430.3549,696.1155,432.8853,694.0391,435.0705,692.3142,437.526,690.5029,439.915,690.5029,440.5928,681.5375,439.8704,672.5721,440.0112,663.6068,440.2245,654.6414,440.2954,645.676,439.9114,636.7107,440.1775,627.7453,439.3918,618.7799,440.1749,609.8145,440.416,600.8492,440.3212,591.8838,440.4752,582.9184,439.4735,573.9531,439.3189,564.9877,439.347,556.0223,439.8612,547.0569,439.7354,538.0916,440.5377,529.1262,439.7553,520.1608,439.6014,511.1955,440.1236,502.2301,439.915,502.0691,439.7911,500.2768,437.4423,498.731,435.283,496.8516,432.8671,495.0959,430.5464,493.0906,428.0337,493.0153,427.9709,494.9932,425.9025,496.8846,423.7619,498.4637,421.3611,500.3798,419.2411,502.2301,417.0663" style="stroke:#181818;stroke-width:0.457;"/><text fill="#000000" font-family="sans-serif" font-size="11.8813" lengthAdjust="spacing" textLength="185.0394" x="504.058" y="433.4232">Processamento das informa&#231;&#245;es.</text><polygon fill="#FEFFDD" points="521.4229,449.6997,521.4229,449.8918,530.7338,449.321,540.0446,449.8763,549.3554,450.065,558.6662,449.0477,567.977,449.6287,577.2879,449.3099,586.5987,449.3492,595.9095,449.6374,605.2203,449.0678,614.5312,450.2057,623.842,449.1236,633.1528,449.5189,642.4636,450.0945,651.7744,449.6213,661.0853,449.7621,670.3961,449.6997,670.3868,449.6966,672.2756,455.2006,674.121,460.6901,676.049,466.2071,677.9016,471.699,679.5355,477.1181,679.7325,477.1816,677.7815,482.8083,676.0142,488.4943,674.2555,494.1831,672.0149,499.7165,670.3961,505.4504,670.3961,506.0705,661.0853,505.1794,651.7744,505.9382,642.4636,504.9979,633.1528,505.3878,623.842,506.1282,614.5312,505.4058,605.2203,505.5466,595.9095,505.7599,586.5987,505.8308,577.2879,505.4468,567.977,505.7129,558.6662,504.9272,549.3554,505.7103,540.0446,505.9514,530.7338,505.8567,521.4229,505.4504,521.6007,505.5077,519.455,499.7387,517.5781,494.0564,515.7591,488.3929,514.0943,482.779,512.2835,477.1181,512.2267,477.0991,514.3083,471.7,515.8888,466.1339,517.668,460.634,519.661,455.2054,521.4229,449.6997" style="stroke:#181818;stroke-width:0.457;"/><text fill="#000000" font-family="sans-serif" font-size="11.8813" lengthAdjust="spacing" textLength="101.2644" x="523.2508" y="466.0566">Em menos de 2s a</text><text fill="#000000" font-family="sans-serif" font-size="11.8813" lengthAdjust="spacing" textLength="139.3201" x="526.34" y="482.2389">notifica&#231;&#227;o sonora/visual</text><text fill="#000000" font-family="sans-serif" font-size="11.8813" lengthAdjust="spacing" textLength="127.5814" x="526.34" y="498.4213">ocorre atrav&#233;s da IHM.</text><g class="message" data-participant-1="IHM" data-participant-2="OP"><polygon fill="#00BFFF" points="171.2167,528.1382,171.2405,528.1977,169.3419,528.7522,167.5828,529.6552,165.7783,530.4447,163.8244,530.8611,162.0772,531.794,162.0685,531.772,163.8569,532.4045,165.6896,533.1478,167.5532,533.9682,169.3106,534.5231,171.2167,535.4498,171.336,535.569,170.3498,534.5829,169.7118,533.9449,169.1163,533.3494,168.2736,532.5067,167.5609,531.794,167.5756,531.8087,168.2852,531.056,169.0617,530.3701,169.8059,529.652,170.6117,528.9955,171.2167,528.1382" style="stroke:#00BFFF;stroke-width:0.9139;"/><path d="M165.733,531.794 L165.733,532.0501 L174.8801,531.2891 L184.0271,532.0295 L193.1741,532.281 L202.3211,530.9247 L211.4682,531.6993 L220.6152,531.2743 L229.7622,531.3267 L238.9093,531.7109 L248.0563,530.9515 L257.2033,532.4687 L266.3503,531.0259 L275.4974,531.553 L284.6444,532.3204 L293.7914,531.6895 L302.9385,531.8772 L312.0855,531.7551 L321.2325,532.0116 L330.3795,531.794" fill="none" style="stroke:#00BFFF;stroke-width:0.9139;"/><text fill="#000000" font-family="sans-serif" font-size="11.8813" lengthAdjust="spacing" textLength="71.0145" x="176.7004" y="526.4849">Visualiza&#231;&#227;o.</text></g><polygon fill="#FEFFDD" points="380.6753,543.6753,380.6753,543.8674,389.8655,543.2966,399.0558,543.8519,408.246,544.0406,417.4362,543.0233,426.6265,543.6043,435.8167,543.2855,445.0069,543.3248,454.1972,543.613,463.3874,543.0434,472.5776,544.1813,481.7679,543.0993,490.9581,543.4945,500.1483,544.0701,509.3386,543.5969,518.5288,543.7377,527.719,543.6461,536.9092,543.8385,546.0995,543.6753,546.1653,543.7066,548.0885,547.5906,549.9398,551.4403,551.77,555.28,553.4811,559.0629,555.2389,562.8682,555.3675,562.9266,553.6058,566.978,551.3831,570.82,549.9434,575.0178,547.8451,578.9162,546.0995,582.975,546.0995,583.4628,536.9092,582.5225,527.719,582.9124,518.5288,583.6527,509.3386,582.9304,500.1483,583.0712,490.9581,583.2844,481.7679,583.3554,472.5776,582.9714,463.3874,583.2375,454.1972,582.4518,445.0069,583.2349,435.8167,583.476,426.6265,583.3812,417.4362,583.5352,408.246,582.5334,399.0558,582.3789,389.8655,582.407,380.6753,582.975,380.659,582.9675,378.7929,578.9288,377.2085,575.0181,375.1432,570.8889,373.2686,566.8463,371.5359,562.8682,371.5986,562.8981,373.1803,558.9422,375.0489,555.123,377.198,551.4374,378.9673,547.5709,380.6753,543.6753" style="stroke:#181818;stroke-width:0.457;"/><text fill="#000000" font-family="sans-serif" font-size="11.8813" lengthAdjust="spacing" textLength="133.5577" x="382.5032" y="560.0322">Se o usu&#225;rio n&#227;o estiver</text><text fill="#000000" font-family="sans-serif" font-size="11.8813" lengthAdjust="spacing" textLength="159.4708" x="385.5923" y="576.2145">autorizado a opera&#231;&#227;o falha.</text><g class="message" data-participant-1="Z" data-participant-2="OP"><polygon fill="#00BFFF" points="171.2167,589.7492,171.2405,589.8086,169.3419,590.3631,167.5828,591.2661,165.7783,592.0557,163.8244,592.472,162.0772,593.4049,162.0685,593.383,163.8569,594.0155,165.6896,594.7588,167.5532,595.5791,169.3106,596.134,171.2167,597.0607,171.336,597.18,170.3498,596.1938,169.7118,595.5558,169.1163,594.9603,168.2736,594.1176,167.5609,593.4049,167.5756,593.4196,168.2852,592.6669,169.0617,591.9811,169.8059,591.263,170.6117,590.6065,171.2167,589.7492" style="stroke:#00BFFF;stroke-width:0.9139;"/><path d="M165.733,593.4049 L165.733,593.6611 L174.8929,592.9 L184.0529,593.6405 L193.2128,593.892 L202.3727,592.5356 L211.5326,593.3102 L220.6925,592.8852 L229.8524,592.9376 L239.0124,593.3219 L248.1723,592.5624 L257.3322,594.0796 L266.4921,592.6369 L275.652,593.1639 L284.8119,593.9313 L293.9719,593.3004 L303.1318,593.4881 L312.2917,593.366 L321.4516,593.6225 L330.6115,593.6963 L339.7714,594.1187 L348.9314,594.2227 L358.0913,594.2327 L367.2512,593.7152 L376.4111,593.9699 L385.571,594.2607 L394.7309,592.5261 L403.8909,594.2318 L413.0508,593.0436 L422.2107,594.0554 L431.3706,592.8017 L440.5305,593.3215 L449.6904,594.3087 L458.8503,593.4049" fill="none" style="stroke:#00BFFF;stroke-width:0.9139;stroke-dasharray:1.8279,1.8279;"/></g><text fill="#1E90FF" font-family="Arial" font-size="12.7952" lengthAdjust="spacing" textLength="3.3267" x="27.4184" y="642.7269">&#160;</text><text fill="#1E90FF" font-family="Arial" font-size="12.7952" lengthAdjust="spacing" textLength="3.3267" x="27.4184" y="660.1539">&#160;</text><text fill="#1E90FF" font-family="Arial" font-size="12.7952" font-weight="bold" lengthAdjust="spacing" textLength="141.9115" x="27.4184" y="677.5809">Casos de Uso cobertos</text><text fill="#1E90FF" font-family="Arial" font-size="12.7952" lengthAdjust="spacing" textLength="3.4291" x="169.3298" y="677.5809">:</text><text fill="#1E90FF" font-family="Arial" font-size="12.7952" lengthAdjust="spacing" textLength="4.12" x="27.4184" y="695.008">-</text><text fill="#1E90FF" font-family="Arial" font-size="12.7952" font-weight="bold" lengthAdjust="spacing" textLength="53.3047" x="34.8652" y="695.008">MIO-001</text><text fill="#1E90FF" font-family="Arial" font-size="12.7952" lengthAdjust="spacing" textLength="174.5008" x="91.4967" y="695.008">Interface de Opera&#231;&#227;o (IHM);</text><text fill="#1E90FF" font-family="Arial" font-size="12.7952" lengthAdjust="spacing" textLength="4.12" x="27.4184" y="712.435">-</text><text fill="#1E90FF" font-family="Arial" font-size="12.7952" font-weight="bold" lengthAdjust="spacing" textLength="53.3047" x="34.8652" y="712.435">MIO-003</text><text fill="#1E90FF" font-family="Arial" font-size="12.7952" lengthAdjust="spacing" textLength="156.3188" x="91.4967" y="712.435">Autentica&#231;&#227;o de Usu&#225;rios;</text><polygon fill="none" points="25.1335,22.8486,25.1335,23.0407,34.3219,22.47,43.5103,23.0253,52.6987,23.2139,61.8871,22.1966,71.0756,22.7776,80.264,22.4588,89.4524,22.4981,98.6408,22.7863,107.8292,22.2168,117.0176,23.3546,126.206,22.2726,135.3944,22.6679,144.5828,23.2434,153.7712,22.7702,162.9597,22.911,172.1481,22.8194,181.3365,23.0118,190.5249,23.0672,199.7133,23.3839,208.9017,23.4619,218.0901,23.4694,227.2785,23.0814,236.4669,23.2723,245.6553,23.4904,254.8437,22.1895,264.0322,23.4688,273.2206,22.5777,282.409,23.3365,291.5974,22.3962,300.7858,22.786,309.9742,23.5264,319.1626,22.8041,328.351,22.9449,337.5394,23.1581,346.7278,23.2291,355.9163,22.8451,365.1047,23.1111,374.2931,22.3255,383.4815,23.1086,392.6699,23.3497,401.8583,23.2549,411.0467,23.4089,420.2351,22.4071,429.4235,22.2526,438.6119,22.2807,447.8004,22.7948,456.9888,22.669,466.1772,23.4714,475.3656,22.689,484.554,22.5351,493.7424,23.0573,502.9308,22.2392,512.1192,22.3742,521.3076,23.4417,530.496,23.2468,539.6845,23.5199,548.8729,22.5545,558.0613,23.1404,567.2497,23.3883,576.4381,22.4169,585.6265,22.761,594.8149,22.9638,604.0033,23.4443,613.1917,22.8448,622.3801,23.2714,631.5685,22.3425,640.757,22.2297,649.9454,23.3089,659.1338,22.1934,668.3222,23.3138,677.5106,23.0375,686.699,22.6038,695.8874,22.5253,705.0758,23.2679,714.2642,22.5751,723.4526,23.3896,732.6411,22.3435,741.8295,23.4129,751.0179,23.2913,760.2063,23.0725,769.3947,22.8918,778.5831,23.5127,787.7715,23.4094,796.9599,22.8486,796.9797,22.8963,797.9606,23.3257,798.8835,23.615,799.9516,24.2549,800.8555,24.4984,801.8069,24.8563,801.8554,24.8764,802.0372,25.7548,802.4959,26.7478,803.1608,27.8263,803.5339,28.784,803.8145,29.7032,803.7753,29.7032,803.5201,39.2521,803.6144,48.801,803.1874,58.3499,804.1936,67.8988,803.8145,77.4477,804.0227,77.534,803.5611,78.4785,803.207,79.4675,802.5714,80.3399,802.2329,81.3354,801.8069,82.2947,801.7617,82.1856,800.8706,82.7761,799.8969,83.1672,798.9631,83.6547,797.9025,83.8362,796.9599,84.3023,796.9599,84.1795,787.7715,84.7076,778.5831,84.8208,769.3947,83.8339,760.2063,84.1251,751.0179,84.4387,741.8295,83.744,732.6411,84.6253,723.4526,84.5381,714.2642,84.2102,705.0758,84.4323,695.8874,84.9683,686.699,84.0164,677.5106,84.5902,668.3222,84.5634,659.1338,84.4081,649.9454,84.4311,640.757,84.406,631.5685,83.7319,622.3801,83.936,613.1917,83.8805,604.0033,84.3607,594.8149,84.3829,585.6265,84.4502,576.4381,84.0364,567.2497,84.2406,558.0613,84.1925,548.8729,84.8295,539.6845,84.6922,530.496,83.8586,521.3076,84.2357,512.1192,83.7748,502.9308,84.5659,493.7424,84.8584,484.554,84.8,475.3656,83.9042,466.1772,84.7264,456.9888,83.6234,447.8004,84.4853,438.6119,84.0288,429.4235,84.3907,420.2351,84.522,411.0467,84.7338,401.8583,83.6444,392.6699,84.7369,383.4815,84.4652,374.2931,84.6271,365.1047,84.9858,355.9163,84.3073,346.7278,84.4625,337.5394,84.4974,328.351,84.4826,319.1626,84.3016,309.9742,84.9519,300.7858,83.7451,291.5974,84.819,282.409,83.732,273.2206,83.8085,264.0322,84.3389,254.8437,84.3282,245.6553,83.8519,236.4669,84.6804,227.2785,84.4018,218.0901,84.9665,208.9017,84.912,199.7133,83.8926,190.5249,83.9386,181.3365,84.1843,172.1481,84.6273,162.9597,84.6706,153.7712,84.5776,144.5828,83.9898,135.3944,84.8839,126.206,84.8816,117.0176,84.2591,107.8292,84.0838,98.6408,83.9355,89.4524,84.1062,80.264,84.4279,71.0756,84.2398,61.8871,83.9205,52.6987,84.7478,43.5103,83.8829,34.3219,84.7615,25.1335,84.3023,25.1833,84.4226,24.2075,84.0055,23.2755,83.6942,22.1967,83.0285,21.2209,82.6116,20.2866,82.2947,20.4326,82.3552,19.717,81.2557,19.4177,80.3286,19.1145,79.4,18.6998,78.4251,18.2789,77.4477,17.9513,77.4477,18.2396,67.8988,18.9594,58.3499,18.8716,48.801,17.7339,39.2521,18.2789,29.7032,18.301,29.7124,18.5358,28.6739,19.0746,27.7614,19.566,26.8292,20.0032,25.8746,20.2866,24.8563,20.2091,24.6692,21.3027,24.5675,22.2263,24.0556,23.13,23.4954,24.1092,23.1176,25.1335,22.8486" style="stroke:#000000;stroke-width:0.9139;"/><text fill="#1E90FF" font-family="Arial" font-size="18.2789" font-weight="bold" lengthAdjust="spacing" textLength="748.9778" x="36.5578" y="60.6677">Diagrama de sequ&#234;ncia - M&#243;dulo de Interface e Opera&#231;&#227;o (MIO) - IHM Operacional</text><!--SRC=[dLHDRzD04BtFhnXoIM8rJe5RAf1GcuWSIYAbz51ncTgRTYLdnzsF2FWtY0C2YHFY5_YFCRlELoiELNo9ivvvCs_UctsXJL65Kk75UBB8wx2g0AZmRB4pgvMbacq7oU5i3hSSJ4ds2tQcxoyxK9Frkj0r6O-ToRJobkxK2WLAybRQkUQlSYdt1WestdA52-syMb4yN5m13BimGxSvknXVZx5cvuAs6EH0gc351LKefGWvjjFyQBvpZWjbcsyeg4wNgKaWhqofIyQ7G4P-slJKYHSy4iGMGGWX1OcMvkNF2A17VPmQeK8MLQfbaR7GHSLO4bRQtDCPGk-sZzVQ1QhqLug8aLHBcT47QnZbNQZKZ5PH5LEAHocCpfCFBYPiMVVIbANZ4vnJxEu49rJTKp-7xX2W- -Qe1xhutoVHvEDHvtjbHz4cUYrp5trthwBgxbq4W7l3yiPhPV5cXDVAwgMC7TcXQNwlbNRHBvzCL8Ij32df6-SJN6Y-MSqvpEOuU1l1HbkLXlEaqKOXrIgKGnHS8XTN8_773b6m66lBXNAEKIU471PNEDYYdkzqLAsExh6GZu8NJnM4xk0P3tHZzk4u4jga2fyZNG6KHjrXNtiwpwnm21vdC6yvqqgi7etiXFoIxIhEMFJBdyQFLoYXd1HvvSJV8ej49C5QMHmRjZHS9qV7promjJ9gMVrrypEIY9tlbEZCvftHVW7QtNrY2L5gBxQOGiee9mQIhmUsI0kzlm1m6LSaXviqBBcQZdGqT3-m9x7oaUbGgJkvTj1p3LbseUdEakoq3D2fXz3yCk8r7E1bywSChLMdnYkxf4B9JJFRy-bTJcTzYOo3IyUofOQgB8C8trO1MB9CpW98hNDohL8VnTG5tohhsMNP20GaomHjS7hwCiiEwfMF2qgb_jbXz6k9VhUz5pTh6E5RPTnPwcJJmJy0]--></g></svg>