<svg xmlns="http://www.w3.org/2000/svg" xmlns:xlink="http://www.w3.org/1999/xlink" contentStyleType="text/css" data-diagram-type="SEQUENCE" height="750.6488px" preserveAspectRatio="none" style="width:806px;height:750px;background:#EEEBDC;" version="1.1" viewBox="0 0 806 750" width="806.6413px" zoomAndPan="magnify"><defs/><g><rect fill="#EEEBDC" height="750.6488" style="stroke:none;stroke-width:0.8749;" width="806.6413" x="0" y="0"/><rect fill="#FFFFCC" height="23.3074" rx="2.1872" ry="2.1872" style="stroke:#FFDD88;stroke-width:2.6246;" width="797.4544" x="4.3744" y="4.3744"/><text fill="#000000" font-family="monospace" font-size="8.7488" lengthAdjust="spacing" textLength="310.7668" x="8.7488" y="17.4976">Please&#160;use&#160;'!option&#160;handwritten&#160;true'&#160;to&#160;enable&#160;handwritten</text><g><title>IHM</title><polygon fill="#A9DCDF" points="272.9519,213.5015,272.9519,213.5628,274.7017,213.3806,276.4514,213.5578,278.2012,213.618,279.951,213.2934,281.7007,213.5015,281.6327,213.5015,281.3276,221.5813,281.3652,229.6611,281.6411,237.741,281.0959,245.8208,282.1851,253.9006,281.7007,261.9805,281.7007,261.7966,279.951,261.9228,278.2012,262.1064,276.4514,261.9554,274.7017,262.0004,272.9519,261.9805,272.924,261.9805,273.1081,253.9006,273.1611,245.8208,273.4643,237.741,273.539,229.6611,273.5462,221.5813,272.9519,213.5015" style="stroke:#181818;stroke-width:0.8749;"/></g><g><title>IHM</title><polygon fill="#A9DCDF" points="272.9519,336.4487,272.9519,336.51,274.7017,336.3279,276.4514,336.5051,278.2012,336.5653,279.951,336.2407,281.7007,336.4487,281.6327,336.4487,281.3276,345.3475,281.3652,354.2463,281.6411,363.145,281.0959,372.0438,282.1851,380.9426,281.1493,389.8413,281.5277,398.7401,282.0786,407.6389,281.6257,416.5377,281.7604,425.4364,281.6728,434.3352,281.8569,443.234,281.9099,452.1328,282.2131,461.0315,282.2878,469.9303,282.295,478.8291,281.9235,487.7278,282.1063,496.6266,282.3151,505.5254,281.0698,514.4242,282.2943,523.3229,281.4413,532.2217,281.7007,541.1205,281.7007,541.2762,279.951,540.9761,278.2012,541.1005,276.4514,541.3368,274.7017,541.1063,272.9519,541.1205,273.044,541.1205,273.2482,532.2217,273.3161,523.3229,272.9485,514.4242,273.2032,505.5254,272.4511,496.6266,273.2007,487.7278,273.4315,478.8291,273.3408,469.9303,273.4882,461.0315,272.5293,452.1328,272.3813,443.234,272.4083,434.3352,272.9004,425.4364,272.78,416.5377,273.5481,407.6389,272.7991,398.7401,272.6518,389.8413,273.1516,380.9426,272.3685,372.0438,272.4977,363.145,273.5197,354.2463,273.3331,345.3475,272.9519,336.4487" style="stroke:#181818;stroke-width:0.8749;"/></g><g><title>FIltragem de permiss.es</title><polygon fill="#A9DCDF" points="413.4301,213.5015,413.4301,213.5628,415.1798,213.3806,416.9296,213.5578,418.6793,213.618,420.4291,213.2934,422.1789,213.5015,422.1109,213.5015,421.8057,222.2675,421.8434,231.0335,422.1192,239.7995,421.574,248.5655,422.6632,257.3315,421.6275,266.0975,422.0059,274.8635,422.5568,283.6296,422.1038,292.3956,422.2386,301.1616,422.1509,309.9276,422.3351,318.6936,422.3881,327.4596,422.6913,336.2256,422.766,344.9916,422.7731,353.7577,422.4016,362.5237,422.5845,371.2897,422.7932,380.0557,421.5479,388.8217,422.7725,397.5877,421.9195,406.3537,422.6459,415.1197,421.7458,423.8857,422.1189,432.6518,422.8277,441.4178,422.1362,450.1838,422.271,458.9498,422.4751,467.7158,422.543,476.4818,422.1755,485.2478,422.4302,494.0138,421.6781,502.7799,422.4277,511.5459,422.6585,520.3119,422.5678,529.0779,422.7152,537.8439,421.7562,546.6099,421.6083,555.3759,421.6352,564.1419,422.1274,572.908,422.0069,581.674,422.775,590.44,422.0261,599.206,422.1789,607.972,422.1789,607.872,420.4291,608.0386,418.6793,607.7775,416.9296,607.8206,415.1798,608.1613,413.4301,607.972,413.8112,607.972,414.0726,599.206,413.1485,590.44,413.7093,581.674,413.9466,572.908,413.0168,564.1419,413.3462,555.3759,413.5403,546.6099,414.0003,537.8439,413.4264,529.0779,413.8347,520.3119,412.9456,511.5459,412.8375,502.7799,413.8707,494.0138,412.8028,485.2478,413.8753,476.4818,413.6108,467.7158,413.1957,458.9498,413.1205,450.1838,413.8314,441.4178,413.1682,432.6518,413.9479,423.8857,412.9465,415.1197,413.9702,406.3537,413.8538,397.5877,413.6444,388.8217,413.4714,380.0557,414.0658,371.2897,413.9669,362.5237,413.5781,353.7577,413.6647,344.9916,413.3161,336.2256,414.0569,327.4596,413.5655,318.6936,413.581,309.9276,412.8978,301.1616,413.0755,292.3956,413.8944,283.6296,413.806,274.8635,413.3925,266.0975,413.1482,257.3315,413.2385,248.5655,412.8297,239.7995,413.7929,231.0335,414.0771,222.2675,413.4301,213.5015" style="stroke:#181818;stroke-width:0.8749;"/></g><g><title>Sistema</title><polygon fill="#A9DCDF" points="611.1168,213.5015,611.1168,213.5628,612.8666,213.3806,614.6163,213.5578,616.3661,213.618,618.1159,213.2934,619.8656,213.5015,619.7976,213.5015,619.4925,222.2675,619.5301,231.0335,619.806,239.7995,619.2608,248.5655,620.35,257.3315,619.3142,266.0975,619.6926,274.8635,620.2435,283.6296,619.7906,292.3956,619.9253,301.1616,619.8377,309.9276,620.0218,318.6936,620.0748,327.4596,620.378,336.2256,620.4527,344.9916,620.4599,353.7577,620.0884,362.5237,620.2712,371.2897,620.48,380.0557,619.2347,388.8217,620.4592,397.5877,619.6062,406.3537,620.3326,415.1197,619.4325,423.8857,619.8057,432.6518,620.5144,441.4178,619.823,450.1838,619.9578,458.9498,620.1619,467.7158,620.2298,476.4818,619.8622,485.2478,620.1169,494.0138,619.3648,502.7799,620.1144,511.5459,620.3452,520.3119,620.2545,529.0779,620.4019,537.8439,619.443,546.6099,619.295,555.3759,619.322,564.1419,619.8141,572.908,619.6937,581.674,620.4618,590.44,619.7128,599.206,619.8656,607.972,619.8656,607.872,618.1159,608.0386,616.3661,607.7775,614.6163,607.8206,612.8666,608.1613,611.1168,607.972,611.498,607.972,611.7594,599.206,610.8353,590.44,611.3961,581.674,611.6334,572.908,610.7035,564.1419,611.0329,555.3759,611.227,546.6099,611.687,537.8439,611.1131,529.0779,611.5215,520.3119,610.6323,511.5459,610.5243,502.7799,611.5574,494.0138,610.4896,485.2478,611.5621,476.4818,611.2976,467.7158,610.8824,458.9498,610.8073,450.1838,611.5182,441.4178,610.8549,432.6518,611.6346,423.8857,610.6332,415.1197,611.657,406.3537,611.5405,397.5877,611.3311,388.8217,611.1581,380.0557,611.7525,371.2897,611.6536,362.5237,611.2649,353.7577,611.3514,344.9916,611.0028,336.2256,611.7436,327.4596,611.2523,318.6936,611.2678,309.9276,610.5846,301.1616,610.7623,292.3956,611.5811,283.6296,611.4928,274.8635,611.0792,266.0975,610.8349,257.3315,610.9253,248.5655,610.5165,239.7995,611.4797,231.0335,611.7638,222.2675,611.1168,213.5015" style="stroke:#181818;stroke-width:0.8749;"/></g><g><title>Operador</title><polygon fill="#000000" fill-opacity="0.00000" points="106.5938,204.7526,106.5938,204.8139,107.9937,204.6318,109.3935,204.809,110.7933,204.8692,112.1931,204.5446,113.5929,204.7526,113.5249,204.7526,113.2198,213.4993,113.2574,222.246,113.5333,230.9926,112.988,239.7393,114.0773,248.486,113.0415,257.2326,113.4199,265.9793,113.9708,274.726,113.5179,283.4726,113.6526,292.2193,113.565,300.966,113.7491,309.7126,113.8021,318.4593,114.1053,327.206,114.18,335.9526,114.1872,344.6993,113.8157,353.446,113.9985,362.1926,114.2073,370.9393,112.9619,379.686,114.1865,388.4326,113.3335,397.1793,114.0599,405.926,113.1598,414.6726,113.533,423.4193,114.2417,432.166,113.5503,440.9126,113.685,449.6593,113.8892,458.406,113.9571,467.1526,113.5895,475.8993,113.8442,484.646,113.0921,493.3926,113.8417,502.1393,114.0725,510.8859,113.9818,519.6326,114.1292,528.3793,113.1703,537.1259,113.0223,545.8726,113.0492,554.6193,113.5414,563.3659,113.421,572.1126,114.1891,580.8593,113.4401,589.6059,113.2928,598.3526,113.7926,607.0993,113.5929,615.8459,113.5929,615.6515,112.1931,615.6946,110.7933,616.0352,109.3935,615.973,107.9937,616.0601,106.5938,615.8459,106.3123,615.8459,106.8731,607.0993,107.1104,598.3526,106.1805,589.6059,106.51,580.8593,106.7041,572.1126,107.1641,563.3659,106.5902,554.6193,106.9985,545.8726,106.1093,537.1259,106.0013,528.3793,107.0344,519.6326,105.9666,510.8859,107.0391,502.1393,106.7746,493.3926,106.3594,484.646,106.2843,475.8993,106.9952,467.1526,106.332,458.406,107.1117,449.6593,106.1103,440.9126,107.134,432.166,107.0176,423.4193,106.8082,414.6726,106.6352,405.926,107.2295,397.1793,107.1307,388.4326,106.7419,379.686,106.8285,370.9393,106.4799,362.1926,107.2207,353.446,106.7293,344.6993,106.7448,335.9526,106.0616,327.206,106.2393,318.4593,107.0582,309.7126,106.9698,300.966,106.5563,292.2193,106.312,283.4726,106.4023,274.726,105.9935,265.9793,106.9567,257.2326,107.2409,248.486,107.0544,239.7393,107.2018,230.9926,106.4742,222.246,106.6702,213.4993,106.5938,204.7526"/><path d="M109.3765,204.7526 L109.6217,204.7526 L108.8932,213.4993 L109.602,222.246 L109.8427,230.9926 L108.5443,239.7393 L109.2858,248.486 L108.879,257.2326 L108.9291,265.9793 L109.297,274.726 L108.57,283.4726 L110.0223,292.2193 L108.6413,300.966 L109.1458,309.7126 L109.8804,318.4593 L109.2764,327.206 L109.4561,335.9526 L109.3392,344.6993 L109.5847,353.446 L109.6554,362.1926 L110.0597,370.9393 L110.1593,379.686 L110.1689,388.4326 L109.6735,397.1793 L109.9173,405.926 L110.1957,414.6726 L108.5352,423.4193 L110.168,432.166 L109.0306,440.9126 L109.9992,449.6593 L108.799,458.406 L109.2966,467.1526 L110.2416,475.8993 L109.3196,484.646 L109.4993,493.3926 L109.7715,502.1393 L109.862,510.8859 L109.3719,519.6326 L109.7115,528.3793 L108.7088,537.1259 L109.7082,545.8726 L110.016,554.6193 L109.895,563.3659 L110.0916,572.1126 L108.813,580.8593 L108.6157,589.6059 L108.6516,598.3526 L109.3078,607.0993 L109.3765,615.8459" fill="none" style="stroke:#0000FF;stroke-width:0.4374;stroke-dasharray:4.3744,4.3744;"/></g><g><title>IHM</title><polygon fill="#000000" fill-opacity="0.00000" points="273.8268,204.7526,273.8268,204.8139,275.2266,204.6318,276.6264,204.809,278.0262,204.8692,279.426,204.5446,280.8258,204.7526,280.7579,204.7526,280.4527,213.4993,280.4903,222.246,280.7662,230.9926,280.221,239.7393,281.3102,248.486,280.2744,257.2326,280.6528,265.9793,281.2038,274.726,280.7508,283.4726,280.8855,292.2193,280.7979,300.966,280.982,309.7126,281.0351,318.4593,281.3383,327.206,281.4129,335.9526,281.4201,344.6993,281.0486,353.446,281.2314,362.1926,281.4402,370.9393,280.1949,379.686,281.4195,388.4326,280.5664,397.1793,281.2929,405.926,280.3928,414.6726,280.7659,423.4193,281.4747,432.166,280.7832,440.9126,280.918,449.6593,281.1221,458.406,281.19,467.1526,280.8224,475.8993,281.0771,484.646,280.3251,493.3926,281.0747,502.1393,281.3055,510.8859,281.2148,519.6326,281.3622,528.3793,280.4032,537.1259,280.2553,545.8726,280.2822,554.6193,280.7743,563.3659,280.6539,572.1126,281.422,580.8593,280.673,589.6059,280.5257,598.3526,281.0256,607.0993,280.8258,615.8459,280.8258,615.6515,279.426,615.6946,278.0262,616.0352,276.6264,615.973,275.2266,616.0601,273.8268,615.8459,273.5453,615.8459,274.1061,607.0993,274.3433,598.3526,273.4135,589.6059,273.7429,580.8593,273.937,572.1126,274.397,563.3659,273.8231,554.6193,274.2315,545.8726,273.3423,537.1259,273.2343,528.3793,274.2674,519.6326,273.1996,510.8859,274.2721,502.1393,274.0076,493.3926,273.5924,484.646,273.5173,475.8993,274.2282,467.1526,273.5649,458.406,274.3446,449.6593,273.3432,440.9126,274.367,432.166,274.2505,423.4193,274.0411,414.6726,273.8681,405.926,274.4625,397.1793,274.3636,388.4326,273.9749,379.686,274.0614,370.9393,273.7128,362.1926,274.4536,353.446,273.9623,344.6993,273.9778,335.9526,273.2946,327.206,273.4723,318.4593,274.2911,309.7126,274.2028,300.966,273.7892,292.2193,273.5449,283.4726,273.6353,274.726,273.2265,265.9793,274.1896,257.2326,274.4738,248.486,274.2873,239.7393,274.4348,230.9926,273.7072,222.246,273.9031,213.4993,273.8268,204.7526"/><path d="M276.8889,204.7526 L277.1341,204.7526 L276.4056,213.4993 L277.1143,222.246 L277.3551,230.9926 L276.0567,239.7393 L276.7982,248.486 L276.3914,257.2326 L276.4415,265.9793 L276.8094,274.726 L276.0824,283.4726 L277.5347,292.2193 L276.1537,300.966 L276.6582,309.7126 L277.3927,318.4593 L276.7888,327.206 L276.9685,335.9526 L276.8516,344.6993 L277.0971,353.446 L277.1678,362.1926 L277.5721,370.9393 L277.6717,379.686 L277.6812,388.4326 L277.1859,397.1793 L277.4297,405.926 L277.708,414.6726 L276.0476,423.4193 L277.6804,432.166 L276.543,440.9126 L277.5116,449.6593 L276.3114,458.406 L276.809,467.1526 L277.754,475.8993 L276.832,484.646 L277.0117,493.3926 L277.2839,502.1393 L277.3744,510.8859 L276.8843,519.6326 L277.2239,528.3793 L276.2211,537.1259 L277.2206,545.8726 L277.5284,554.6193 L277.4074,563.3659 L277.604,572.1126 L276.3254,580.8593 L276.1281,589.6059 L276.164,598.3526 L276.8202,607.0993 L276.8889,615.8459" fill="none" style="stroke:#0000FF;stroke-width:0.4374;stroke-dasharray:4.3744,4.3744;"/></g><g><title>FIltragem de permiss.es</title><polygon fill="#000000" fill-opacity="0.00000" points="414.3049,204.7526,414.3049,204.8139,415.7047,204.6318,417.1046,204.809,418.5044,204.8692,419.9042,204.5446,421.304,204.7526,421.236,204.7526,420.9309,213.4993,420.9685,222.246,421.2444,230.9926,420.6991,239.7393,421.7884,248.486,420.7526,257.2326,421.131,265.9793,421.6819,274.726,421.2289,283.4726,421.3637,292.2193,421.276,300.966,421.4602,309.7126,421.5132,318.4593,421.8164,327.206,421.8911,335.9526,421.8983,344.6993,421.5268,353.446,421.7096,362.1926,421.9184,370.9393,420.673,379.686,421.8976,388.4326,421.0446,397.1793,421.771,405.926,420.8709,414.6726,421.2441,423.4193,421.9528,432.166,421.2614,440.9126,421.3961,449.6593,421.6003,458.406,421.6681,467.1526,421.3006,475.8993,421.5553,484.646,420.8032,493.3926,421.5528,502.1393,421.7836,510.8859,421.6929,519.6326,421.8403,528.3793,420.8814,537.1259,420.7334,545.8726,420.7603,554.6193,421.2525,563.3659,421.1321,572.1126,421.9001,580.8593,421.1512,589.6059,421.0039,598.3526,421.5037,607.0993,421.304,615.8459,421.304,615.6515,419.9042,615.6946,418.5044,616.0352,417.1046,615.973,415.7047,616.0601,414.3049,615.8459,414.0234,615.8459,414.5842,607.0993,414.8215,598.3526,413.8916,589.6059,414.2211,580.8593,414.4152,572.1126,414.8751,563.3659,414.3013,554.6193,414.7096,545.8726,413.8204,537.1259,413.7124,528.3793,414.7455,519.6326,413.6777,510.8859,414.7502,502.1393,414.4857,493.3926,414.0705,484.646,413.9954,475.8993,414.7063,467.1526,414.0431,458.406,414.8227,449.6593,413.8213,440.9126,414.8451,432.166,414.7286,423.4193,414.5193,414.6726,414.3462,405.926,414.9406,397.1793,414.8417,388.4326,414.453,379.686,414.5396,370.9393,414.191,362.1926,414.9317,353.446,414.4404,344.6993,414.4559,335.9526,413.7727,327.206,413.9504,318.4593,414.7693,309.7126,414.6809,300.966,414.2674,292.2193,414.0231,283.4726,414.1134,274.726,413.7046,265.9793,414.6678,257.2326,414.952,248.486,414.7655,239.7393,414.9129,230.9926,414.1853,222.246,414.3812,213.4993,414.3049,204.7526"/><path d="M417.7456,204.7526 L417.9908,204.7526 L417.2623,213.4993 L417.9711,222.246 L418.2119,230.9926 L416.9135,239.7393 L417.655,248.486 L417.2481,257.2326 L417.2983,265.9793 L417.6661,274.726 L416.9392,283.4726 L418.3915,292.2193 L417.0104,300.966 L417.5149,309.7126 L418.2495,318.4593 L417.6456,327.206 L417.8252,335.9526 L417.7084,344.6993 L417.9539,353.446 L418.0246,362.1926 L418.4289,370.9393 L418.5284,379.686 L418.538,388.4326 L418.0427,397.1793 L418.2864,405.926 L418.5648,414.6726 L416.9044,423.4193 L418.5371,432.166 L417.3998,440.9126 L418.3683,449.6593 L417.1682,458.406 L417.6657,467.1526 L418.6107,475.8993 L417.6888,484.646 L417.8685,493.3926 L418.1407,502.1393 L418.2312,510.8859 L417.7411,519.6326 L418.0807,528.3793 L417.0779,537.1259 L418.0774,545.8726 L418.3851,554.6193 L418.2642,563.3659 L418.4607,572.1126 L417.1821,580.8593 L416.9849,589.6059 L417.0208,598.3526 L417.677,607.0993 L417.7456,615.8459" fill="none" style="stroke:#0000FF;stroke-width:0.4374;stroke-dasharray:4.3744,4.3744;"/></g><g><title>Sistema</title><polygon fill="#000000" fill-opacity="0.00000" points="611.9917,204.7526,611.9917,204.8139,613.3915,204.6318,614.7913,204.809,616.1911,204.8692,617.5909,204.5446,618.9907,204.7526,618.9228,204.7526,618.6176,213.4993,618.6552,222.246,618.9311,230.9926,618.3859,239.7393,619.4751,248.486,618.4393,257.2326,618.8177,265.9793,619.3686,274.726,618.9157,283.4726,619.0504,292.2193,618.9628,300.966,619.1469,309.7126,619.2,318.4593,619.5032,327.206,619.5778,335.9526,619.585,344.6993,619.2135,353.446,619.3963,362.1926,619.6051,370.9393,618.3598,379.686,619.5844,388.4326,618.7313,397.1793,619.4578,405.926,618.5577,414.6726,618.9308,423.4193,619.6396,432.166,618.9481,440.9126,619.0829,449.6593,619.287,458.406,619.3549,467.1526,618.9873,475.8993,619.242,484.646,618.4899,493.3926,619.2395,502.1393,619.4703,510.8859,619.3797,519.6326,619.5271,528.3793,618.5681,537.1259,618.4202,545.8726,618.4471,554.6193,618.9392,563.3659,618.8188,572.1126,619.5869,580.8593,618.8379,589.6059,618.6906,598.3526,619.1905,607.0993,618.9907,615.8459,618.9907,615.6515,617.5909,615.6946,616.1911,616.0352,614.7913,615.973,613.3915,616.0601,611.9917,615.8459,611.7102,615.8459,612.2709,607.0993,612.5082,598.3526,611.5784,589.6059,611.9078,580.8593,612.1019,572.1126,612.5619,563.3659,611.988,554.6193,612.3964,545.8726,611.5072,537.1259,611.3992,528.3793,612.4323,519.6326,611.3644,510.8859,612.437,502.1393,612.1725,493.3926,611.7573,484.646,611.6822,475.8993,612.393,467.1526,611.7298,458.406,612.5095,449.6593,611.5081,440.9126,612.5319,432.166,612.4154,423.4193,612.206,414.6726,612.033,405.926,612.6274,397.1793,612.5285,388.4326,612.1398,379.686,612.2263,370.9393,611.8777,362.1926,612.6185,353.446,612.1272,344.6993,612.1427,335.9526,611.4595,327.206,611.6372,318.4593,612.456,309.7126,612.3677,300.966,611.9541,292.2193,611.7098,283.4726,611.8002,274.726,611.3914,265.9793,612.3545,257.2326,612.6387,248.486,612.4522,239.7393,612.5997,230.9926,611.8721,222.246,612.068,213.4993,611.9917,204.7526"/><path d="M614.661,204.7526 L614.9062,204.7526 L614.1777,213.4993 L614.8865,222.246 L615.1273,230.9926 L613.8289,239.7393 L614.5704,248.486 L614.1635,257.2326 L614.2137,265.9793 L614.5815,274.726 L613.8545,283.4726 L615.3069,292.2193 L613.9258,300.966 L614.4303,309.7126 L615.1649,318.4593 L614.561,327.206 L614.7406,335.9526 L614.6238,344.6993 L614.8693,353.446 L614.94,362.1926 L615.3442,370.9393 L615.4438,379.686 L615.4534,388.4326 L614.9581,397.1793 L615.2018,405.926 L615.4802,414.6726 L613.8198,423.4193 L615.4525,432.166 L614.3152,440.9126 L615.2837,449.6593 L614.0836,458.406 L614.5811,467.1526 L615.5261,475.8993 L614.6042,484.646 L614.7839,493.3926 L615.056,502.1393 L615.1466,510.8859 L614.6565,519.6326 L614.9961,528.3793 L613.9933,537.1259 L614.9928,545.8726 L615.3005,554.6193 L615.1796,563.3659 L615.3761,572.1126 L614.0975,580.8593 L613.9003,589.6059 L613.9362,598.3526 L614.5923,607.0993 L614.661,615.8459" fill="none" style="stroke:#0000FF;stroke-width:0.4374;stroke-dasharray:4.3744,4.3744;"/></g><g class="participant participant-head" data-participant="OP"><text fill="#1E90FF" font-family="Aapex" font-size="14.873" lengthAdjust="spacing" textLength="67.9248" x="73.5063" y="200.3949">Operador</text><polygon fill="#00BFFF" points="124.1688,148.9683,122.1169,151.7719,119.69,155.8784,116.219,158.6458,112.5715,160.1591,109.6633,160.2905,105.9254,158.3978,102.3984,157.1614,99.7215,154.651,98.3172,151.777,97.4845,149.4887,96.6686,146.4996,95.3444,143.9275,96.362,141.4162,97.2535,138.6652,100.5992,136.4894,102.953,133.6664,105.8664,132.729,109.33,131.9217,113.7716,132.4013,116.2043,133.5486,119.0327,134.0687,122.4718,137.5921,123.6706,141.3117,124.1915,143.8497,123.6015,148.032" style="stroke:#00BFFF;stroke-width:0.4374;"/><path d="M110.0934,163.0611 L110.0934,163.0611 L110.1213,163.1379 L111.9631,162.2097 L113.9685,161.7319 L115.9207,161.1074 L117.6975,160.0007 L119.7171,159.5615 L119.7171,159.5615 L119.7046,159.534 L121.5732,160.2854 L123.5049,161.1755 L125.4803,162.162 L127.3048,162.8163 L129.3408,163.9359 L129.5368,164.025 L129.9926,165.7593 L131.0205,167.7536 L132.1183,169.7797 L132.8099,171.6211 L133.7152,173.5596 L133.7683,173.5596 L133.6903,174.2595 L133.854,174.9594 L133.9012,175.6594 L134.1707,176.3593 L133.7152,177.0592 L133.7152,177.0592 L133.8997,177.2437 L132.5021,178.6457 L130.9856,179.9288 L129.6432,181.3861 L128.309,182.8515 L126.7161,184.0582 L126.7161,183.4974 L120.067,184.5859 L113.4179,183.8276 L106.7688,184.4734 L100.1197,183.6733 L93.4706,184.0582 L93.4706,184.0582 L93.4518,184.0394 L92.2747,182.8623 L90.6576,181.2452 L89.3001,179.8877 L87.9645,178.5521 L86.4716,177.0592 L86.7952,177.0592 L86.4685,176.3593 L86.6949,175.6594 L86.0264,174.9594 L86.6927,174.2595 L86.4716,173.5596 L86.4716,173.5596 L86.6656,173.6478 L87.5038,171.7064 L88.4383,169.8088 L88.9252,167.7077 L89.7402,165.7557 L90.846,163.9359 L90.746,163.716 L92.7612,163.0402 L94.6638,162.1166 L96.7298,161.5525 L98.5168,160.3746 L100.4697,159.5615 L100.4697,159.5615 L100.4241,159.4362 L102.4247,160.3448 L104.2305,160.7177 L106.1749,161.4715 L108.2549,162.5983 L110.0934,163.0611" fill="#00BFFF"/></g><g class="participant participant-head" data-participant="IHM"><text fill="#000000" font-family="sans-serif" font-size="12.2483" lengthAdjust="spacing" textLength="24.3374" x="262.533" y="201.1639">IHM</text><path d="M259.3912,163.5738 L259.5547,163.5738 L259.069,167.7732 L259.5416,171.9726 L259.7021,176.1721 L258.8364,180.3715 L259.3912,184.5709 M259.3912,174.0723 L259.3912,174.0119 L262.3658,173.7407 L265.3404,173.7741 L268.315,174.0193 L271.2896,173.5347 L274.2642,174.0723" fill="none" style="stroke:#181818;stroke-width:0.4374;"/><polygon fill="#E2E2F0" points="295.3194,176.626,293.7805,178.7287,291.9603,181.8086,289.357,183.8841,286.6214,185.0191,284.4402,185.1176,281.6368,183.6982,278.9916,182.7708,276.9839,180.888,275.9307,178.7325,275.3061,177.0163,274.6943,174.7745,273.7011,172.8454,274.4643,170.9619,275.1329,168.8987,277.6422,167.2669,279.4075,165.1496,281.5926,164.4465,284.1903,163.841,287.5215,164.2008,289.346,165.0612,291.4673,165.4513,294.0466,168.0939,294.9457,170.8836,295.3364,172.7871,294.8939,175.9238" style="stroke:#181818;stroke-width:0.4374;"/></g><g class="participant participant-head" data-participant="Z"><polygon fill="#1E90FF" points="327.1953,171.3724,327.1953,171.5563,335.8248,171.01,344.4542,171.5415,353.0837,171.7221,361.7131,170.7483,370.3425,171.3044,378.972,170.9993,387.6014,171.0369,396.2309,171.3128,404.8603,170.7676,413.4897,171.8568,422.1192,170.821,430.7486,171.1994,439.3781,171.7503,448.0075,171.2974,456.6369,171.4321,465.2664,171.3445,473.8958,171.5286,482.5253,171.5816,491.1547,171.8848,499.7841,171.9595,508.4136,171.3724,508.4894,171.5554,508.7513,171.5692,509.084,171.7536,509.4199,171.946,509.5704,171.6906,509.9602,172.013,510.143,172.0888,510.0084,172.2893,510.3602,172.6913,510.2112,172.8858,510.4542,173.2427,510.6008,173.5596,510.8171,173.5596,510.5866,179.1858,510.6315,184.812,510.6995,190.4382,510.7222,196.0644,510.6008,201.6905,510.5997,201.6901,510.5501,202.0319,510.1903,202.2453,510.293,202.6502,510.236,202.989,509.9602,203.2371,510.0098,203.3569,509.7193,203.5304,509.2876,203.3632,508.9594,203.4458,508.6536,203.5822,508.4136,203.8778,508.4136,203.8262,499.7841,203.7058,491.1547,204.4739,482.5253,203.7249,473.8958,203.5776,465.2664,204.0775,456.6369,203.2943,448.0075,203.4236,439.3781,204.4455,430.7486,204.2589,422.1192,204.5203,413.4897,203.5962,404.8603,204.157,396.2309,204.3943,387.6014,203.4645,378.972,203.7939,370.3425,203.988,361.7131,204.448,353.0837,203.8741,344.4542,204.2824,335.8248,203.3933,327.1953,203.8778,327.1198,203.6953,326.9422,203.8853,326.4967,203.4283,326.3242,203.6305,325.9811,203.4209,325.6488,203.2371,325.5766,203.2072,325.4253,202.8883,325.5161,202.6697,325.1837,202.2758,325.2957,202.0659,325.0081,201.6905,324.8469,201.6905,325.1882,196.0644,325.1494,190.4382,325.0796,184.812,325.0219,179.1858,325.0081,173.5596,325.2039,173.6407,325.3016,173.3188,325.31,172.9599,325.4648,172.6616,325.4855,172.3078,325.6488,172.013,325.7287,172.2061,325.9754,171.9267,326.2866,171.8033,326.5088,171.4648,326.8408,171.3914,327.1953,171.3724" style="stroke:#00BFFF;stroke-width:0.4374;"/><text fill="#A9DCDF" font-family="Impact" font-size="14.873" lengthAdjust="spacing" textLength="173.3443" x="331.1323" y="193.3958">FIltragem de permiss&#245;es</text></g><g class="participant participant-head" data-participant="ST"><text fill="#000000" font-family="sans-serif" font-size="12.2483" lengthAdjust="spacing" textLength="45.4045" x="590.1643" y="201.1639">Sistema</text><polygon fill="#E2E2F0" points="626.0478,176.626,624.5089,178.7287,622.6887,181.8086,620.0854,183.8841,617.3498,185.0191,615.1686,185.1176,612.3652,183.6982,609.72,182.7708,607.7123,180.888,606.6591,178.7325,606.0345,177.0163,605.4227,174.7745,604.4295,172.8454,605.1927,170.9619,605.8613,168.8987,608.3706,167.2669,610.1359,165.1496,612.321,164.4465,614.9187,163.841,618.2499,164.2008,620.0744,165.0612,622.1957,165.4513,624.775,168.0939,625.6741,170.8836,626.0648,172.7871,625.6223,175.9238" style="stroke:#181818;stroke-width:0.4374;"/><polygon fill="#181818" points="611.9917,163.5738,612.0309,163.6208,612.9642,162.6061,614.1275,161.8673,615.2159,161.0387,616.0579,159.9144,617.241,159.1993,617.2199,159.1909,616.7755,160.028,616.4372,160.9076,616.1727,161.8166,615.654,162.624,615.4912,163.5738,615.6411,163.6337,615.6705,164.3804,616.1376,165.3021,616.658,166.2452,616.8678,167.064,617.241,167.9482,617.2537,167.9635,616.1852,167.0661,615.1746,166.2384,614.136,165.3771,613.1509,164.5799,611.9917,163.5738" style="stroke:#181818;stroke-width:0.8749;"/></g><g><title>IHM</title><polygon fill="#A9DCDF" points="272.9519,213.5015,272.9519,213.5628,274.7017,213.3806,276.4514,213.5578,278.2012,213.618,279.951,213.2934,281.7007,213.5015,281.6327,213.5015,281.3276,221.5813,281.3652,229.6611,281.6411,237.741,281.0959,245.8208,282.1851,253.9006,281.7007,261.9805,281.7007,261.7966,279.951,261.9228,278.2012,262.1064,276.4514,261.9554,274.7017,262.0004,272.9519,261.9805,272.924,261.9805,273.1081,253.9006,273.1611,245.8208,273.4643,237.741,273.539,229.6611,273.5462,221.5813,272.9519,213.5015" style="stroke:#181818;stroke-width:0.8749;"/></g><g><title>IHM</title><polygon fill="#A9DCDF" points="272.9519,336.4487,272.9519,336.51,274.7017,336.3279,276.4514,336.5051,278.2012,336.5653,279.951,336.2407,281.7007,336.4487,281.6327,336.4487,281.3276,345.3475,281.3652,354.2463,281.6411,363.145,281.0959,372.0438,282.1851,380.9426,281.1493,389.8413,281.5277,398.7401,282.0786,407.6389,281.6257,416.5377,281.7604,425.4364,281.6728,434.3352,281.8569,443.234,281.9099,452.1328,282.2131,461.0315,282.2878,469.9303,282.295,478.8291,281.9235,487.7278,282.1063,496.6266,282.3151,505.5254,281.0698,514.4242,282.2943,523.3229,281.4413,532.2217,281.7007,541.1205,281.7007,541.2762,279.951,540.9761,278.2012,541.1005,276.4514,541.3368,274.7017,541.1063,272.9519,541.1205,273.044,541.1205,273.2482,532.2217,273.3161,523.3229,272.9485,514.4242,273.2032,505.5254,272.4511,496.6266,273.2007,487.7278,273.4315,478.8291,273.3408,469.9303,273.4882,461.0315,272.5293,452.1328,272.3813,443.234,272.4083,434.3352,272.9004,425.4364,272.78,416.5377,273.5481,407.6389,272.7991,398.7401,272.6518,389.8413,273.1516,380.9426,272.3685,372.0438,272.4977,363.145,273.5197,354.2463,273.3331,345.3475,272.9519,336.4487" style="stroke:#181818;stroke-width:0.8749;"/></g><g><title>FIltragem de permiss.es</title><polygon fill="#A9DCDF" points="413.4301,213.5015,413.4301,213.5628,415.1798,213.3806,416.9296,213.5578,418.6793,213.618,420.4291,213.2934,422.1789,213.5015,422.1109,213.5015,421.8057,222.2675,421.8434,231.0335,422.1192,239.7995,421.574,248.5655,422.6632,257.3315,421.6275,266.0975,422.0059,274.8635,422.5568,283.6296,422.1038,292.3956,422.2386,301.1616,422.1509,309.9276,422.3351,318.6936,422.3881,327.4596,422.6913,336.2256,422.766,344.9916,422.7731,353.7577,422.4016,362.5237,422.5845,371.2897,422.7932,380.0557,421.5479,388.8217,422.7725,397.5877,421.9195,406.3537,422.6459,415.1197,421.7458,423.8857,422.1189,432.6518,422.8277,441.4178,422.1362,450.1838,422.271,458.9498,422.4751,467.7158,422.543,476.4818,422.1755,485.2478,422.4302,494.0138,421.6781,502.7799,422.4277,511.5459,422.6585,520.3119,422.5678,529.0779,422.7152,537.8439,421.7562,546.6099,421.6083,555.3759,421.6352,564.1419,422.1274,572.908,422.0069,581.674,422.775,590.44,422.0261,599.206,422.1789,607.972,422.1789,607.872,420.4291,608.0386,418.6793,607.7775,416.9296,607.8206,415.1798,608.1613,413.4301,607.972,413.8112,607.972,414.0726,599.206,413.1485,590.44,413.7093,581.674,413.9466,572.908,413.0168,564.1419,413.3462,555.3759,413.5403,546.6099,414.0003,537.8439,413.4264,529.0779,413.8347,520.3119,412.9456,511.5459,412.8375,502.7799,413.8707,494.0138,412.8028,485.2478,413.8753,476.4818,413.6108,467.7158,413.1957,458.9498,413.1205,450.1838,413.8314,441.4178,413.1682,432.6518,413.9479,423.8857,412.9465,415.1197,413.9702,406.3537,413.8538,397.5877,413.6444,388.8217,413.4714,380.0557,414.0658,371.2897,413.9669,362.5237,413.5781,353.7577,413.6647,344.9916,413.3161,336.2256,414.0569,327.4596,413.5655,318.6936,413.581,309.9276,412.8978,301.1616,413.0755,292.3956,413.8944,283.6296,413.806,274.8635,413.3925,266.0975,413.1482,257.3315,413.2385,248.5655,412.8297,239.7995,413.7929,231.0335,414.0771,222.2675,413.4301,213.5015" style="stroke:#181818;stroke-width:0.8749;"/></g><g><title>Sistema</title><polygon fill="#A9DCDF" points="611.1168,213.5015,611.1168,213.5628,612.8666,213.3806,614.6163,213.5578,616.3661,213.618,618.1159,213.2934,619.8656,213.5015,619.7976,213.5015,619.4925,222.2675,619.5301,231.0335,619.806,239.7995,619.2608,248.5655,620.35,257.3315,619.3142,266.0975,619.6926,274.8635,620.2435,283.6296,619.7906,292.3956,619.9253,301.1616,619.8377,309.9276,620.0218,318.6936,620.0748,327.4596,620.378,336.2256,620.4527,344.9916,620.4599,353.7577,620.0884,362.5237,620.2712,371.2897,620.48,380.0557,619.2347,388.8217,620.4592,397.5877,619.6062,406.3537,620.3326,415.1197,619.4325,423.8857,619.8057,432.6518,620.5144,441.4178,619.823,450.1838,619.9578,458.9498,620.1619,467.7158,620.2298,476.4818,619.8622,485.2478,620.1169,494.0138,619.3648,502.7799,620.1144,511.5459,620.3452,520.3119,620.2545,529.0779,620.4019,537.8439,619.443,546.6099,619.295,555.3759,619.322,564.1419,619.8141,572.908,619.6937,581.674,620.4618,590.44,619.7128,599.206,619.8656,607.972,619.8656,607.872,618.1159,608.0386,616.3661,607.7775,614.6163,607.8206,612.8666,608.1613,611.1168,607.972,611.498,607.972,611.7594,599.206,610.8353,590.44,611.3961,581.674,611.6334,572.908,610.7035,564.1419,611.0329,555.3759,611.227,546.6099,611.687,537.8439,611.1131,529.0779,611.5215,520.3119,610.6323,511.5459,610.5243,502.7799,611.5574,494.0138,610.4896,485.2478,611.5621,476.4818,611.2976,467.7158,610.8824,458.9498,610.8073,450.1838,611.5182,441.4178,610.8549,432.6518,611.6346,423.8857,610.6332,415.1197,611.657,406.3537,611.5405,397.5877,611.3311,388.8217,611.1581,380.0557,611.7525,371.2897,611.6536,362.5237,611.2649,353.7577,611.3514,344.9916,611.0028,336.2256,611.7436,327.4596,611.2523,318.6936,611.2678,309.9276,610.5846,301.1616,610.7623,292.3956,611.5811,283.6296,611.4928,274.8635,611.0792,266.0975,610.8349,257.3315,610.9253,248.5655,610.5165,239.7995,611.4797,231.0335,611.7638,222.2675,611.1168,213.5015" style="stroke:#181818;stroke-width:0.8749;"/></g><g class="message" data-participant-1="OP" data-participant-2="IHM"><polygon fill="#00BFFF" points="262.4533,230.7419,262.4761,230.7988,264.1582,231.3296,265.9738,232.194,267.7459,232.9498,269.3751,233.3484,271.2021,234.2414,271.1937,234.2204,269.4062,234.8259,267.6611,235.5374,265.9455,236.3227,264.1282,236.8538,262.4533,237.741,262.5675,237.8551,263.0233,236.9111,263.8124,236.3004,264.6421,235.7303,265.2353,234.9236,265.9529,234.2414,265.9669,234.2555,265.2464,233.5349,264.5899,232.8784,263.9024,232.191,263.274,231.5626,262.4533,230.7419" style="stroke:#00BFFF;stroke-width:0.8749;"/><path d="M110.0934,234.2414 L110.0934,234.4866 L118.8494,233.7581 L127.6055,234.4669 L136.3616,234.7077 L145.1176,233.4092 L153.8737,234.1508 L162.6298,233.7439 L171.3859,233.7941 L180.1419,234.1619 L188.898,233.4349 L197.6541,234.8873 L206.4101,233.5062 L215.1662,234.0107 L223.9223,234.7453 L232.6783,234.1414 L241.4344,234.321 L250.1905,234.2042 L258.9465,234.4497 L267.7026,234.2414" fill="none" style="stroke:#00BFFF;stroke-width:0.8749;"/><text fill="#000000" font-family="sans-serif" font-size="11.3735" lengthAdjust="spacing" textLength="141.8614" x="116.2175" y="229.1592">Iniciar/Parar ciclo de linha.</text></g><g class="message" data-participant-1="IHM" data-participant-2="Z"><polygon fill="#00BFFF" points="402.9315,258.4809,402.9542,258.5378,404.6364,259.0686,406.4519,259.9331,408.224,260.6889,409.8533,261.0874,411.6803,261.9805,411.6719,261.9594,409.8843,262.5649,408.1392,263.2764,406.4236,264.0617,404.6064,264.5929,402.9315,265.48,403.0456,265.5941,403.5014,264.6501,404.2905,264.0394,405.1203,263.4693,405.7134,262.6627,406.431,261.9805,406.4451,261.9945,405.7245,261.274,405.068,260.6175,404.3806,259.93,403.7522,259.3016,402.9315,258.4809" style="stroke:#00BFFF;stroke-width:0.8749;"/><path d="M277.3263,261.9805 L277.3263,262.2256 L286.0499,261.4971 L294.7736,262.2059 L303.4972,262.4467 L312.2208,261.1483 L320.9445,261.8898 L329.6681,261.4829 L338.3917,261.5331 L347.1154,261.9009 L355.839,261.174 L364.5626,262.6263 L373.2862,261.2452 L382.0099,261.7498 L390.7335,262.4843 L399.4571,261.8804 L408.1808,261.9805" fill="none" style="stroke:#00BFFF;stroke-width:0.8749;"/><text fill="#000000" font-family="sans-serif" font-size="11.3735" lengthAdjust="spacing" textLength="110.7322" x="283.4505" y="256.8983">Avalia as permiss&#245;es</text></g><polygon fill="#FEFFDD" points="351.7188,273.3539,351.7188,273.5378,360.526,272.9914,369.3331,273.523,378.1403,273.7036,386.9474,272.7298,395.7546,273.2859,404.5617,272.9808,413.3689,273.0184,422.176,273.2943,430.9832,272.7491,439.7903,273.8383,448.5975,272.8025,457.4046,273.1809,466.2117,273.7318,475.0189,273.2789,483.826,273.3539,483.844,273.3625,485.5674,277.0244,487.3726,280.7253,489.1383,284.4074,490.9793,288.1254,492.5749,291.7264,492.753,291.8074,491.0054,295.6579,489.1429,299.4561,487.4486,303.3308,485.7622,307.2091,483.826,310.9739,483.826,310.3429,475.0189,311.5675,466.2117,310.7144,457.4046,311.4409,448.5975,310.5408,439.7903,310.9139,430.9832,311.6227,422.176,310.9312,413.3689,311.066,404.5617,311.2701,395.7546,311.338,386.9474,310.9704,378.1403,311.2251,369.3331,310.4731,360.526,311.2227,351.7188,310.9739,351.8644,311.04,350.0871,307.178,348.3821,303.3489,346.3413,299.3671,344.5466,295.4972,342.97,291.7264,342.8064,291.6485,344.7043,288.0446,346.4178,284.3528,348.3987,280.7884,349.9231,277.0065,351.7188,273.3539" style="stroke:#181818;stroke-width:0.4374;"/><text fill="#000000" font-family="sans-serif" font-size="11.3735" lengthAdjust="spacing" textLength="104.7042" x="353.4686" y="289.0117">Verifica os n&#237;veis de</text><text fill="#000000" font-family="sans-serif" font-size="11.3735" lengthAdjust="spacing" textLength="125.711" x="356.4257" y="304.5024">autoriza&#231;&#227;o do usu&#225;rio.</text><g class="message" data-participant-1="Z" data-participant-2="ST"><polygon fill="#00BFFF" points="600.6182,332.9492,600.641,333.0061,602.3231,333.5369,604.1387,334.4013,605.9108,335.1571,607.54,335.5556,609.367,336.4487,609.3586,336.4277,607.5711,337.0331,605.826,337.7447,604.1104,338.53,602.2931,339.0611,600.6182,339.9482,600.7324,340.0624,601.1882,339.1184,601.9772,338.5076,602.807,337.9376,603.4002,337.1309,604.1177,336.4487,604.1318,336.4628,603.4113,335.7422,602.7548,335.0857,602.0673,334.3983,601.4389,333.7699,600.6182,332.9492" style="stroke:#00BFFF;stroke-width:0.8749;"/><path d="M422.1789,336.4487 L422.1789,336.6939 L430.926,335.9654 L439.673,336.6742 L448.4201,336.9149 L457.1672,335.6165 L465.9143,336.3581 L474.6613,335.9512 L483.4084,336.0014 L492.1555,336.3692 L500.9026,335.6422 L509.6497,337.0945 L518.3967,335.7135 L527.1438,336.218 L535.8909,336.9526 L544.638,336.3487 L553.385,336.5283 L562.1321,336.4114 L570.8792,336.657 L579.6263,336.7277 L588.3734,337.1319 L597.1204,337.2315 L605.8675,336.4487" fill="none" style="stroke:#00BFFF;stroke-width:0.8749;"/><text fill="#000000" font-family="sans-serif" font-size="11.3735" lengthAdjust="spacing" textLength="167.9408" x="428.303" y="331.3665">Se autorizado o processo inicia.</text></g><polygon fill="#FEFFDD" points="192.4903,347.8222,192.4903,348.0061,201.3312,347.4597,210.1721,347.9913,219.013,348.1719,227.854,347.198,236.6949,347.7542,245.5358,347.449,254.3767,347.4867,263.2176,347.7626,272.0585,347.2173,280.8994,348.3066,289.7403,347.2708,298.5813,347.6492,307.4222,348.2001,316.2631,347.7471,325.104,347.8819,333.9449,347.7942,342.7858,347.9784,351.6267,348.0314,360.4677,347.8222,360.5989,347.9315,362.3678,350.0472,364.1194,352.1484,365.774,354.1689,367.5706,356.3076,369.2165,358.3208,369.3788,358.4456,367.3,360.4672,365.8738,362.9908,363.8987,365.0921,362.3408,367.5145,360.4677,369.6942,360.4677,369.2611,351.6267,369.6343,342.7858,370.343,333.9449,369.6516,325.104,369.7864,316.2631,369.9905,307.4222,370.0584,298.5813,369.6908,289.7403,369.9455,280.8994,369.1934,272.0585,369.943,263.2176,370.1738,254.3767,370.0831,245.5358,370.2306,236.6949,369.2716,227.854,369.1236,219.013,369.1506,210.1721,369.6427,201.3312,369.5223,192.4903,369.6942,192.6478,369.8154,190.7002,367.3885,188.9115,365.0838,187.2938,362.9107,185.3371,360.4769,183.7415,358.3208,183.6252,358.2238,185.6366,356.3422,187.3386,354.2027,189.1553,352.1587,190.6684,349.8618,192.4903,347.8222" style="stroke:#181818;stroke-width:0.4374;"/><text fill="#000000" font-family="sans-serif" font-size="11.3735" lengthAdjust="spacing" textLength="165.2111" x="194.2401" y="363.48">Fluxo de dados em tempo real.</text><polygon fill="#FEFFDD" points="524.9455,379.0607,524.9455,379.2446,533.5277,378.6983,542.1098,379.2298,550.692,379.4104,559.2742,378.4366,567.8564,378.9927,576.4386,378.6876,585.0207,378.7252,593.6029,379.0011,602.1851,378.4559,610.7673,379.5451,619.3494,378.5093,627.9316,378.8877,636.5138,379.4386,645.096,378.9857,653.6781,379.1204,662.2603,379.0328,670.8425,379.2169,679.4247,379.2699,688.0069,379.5731,696.589,379.6478,705.1712,379.0607,705.3234,379.1875,706.978,381.208,708.7746,383.3467,710.5778,385.491,712.0087,387.325,713.92,389.5593,714.0769,389.68,712.1017,391.7813,710.5439,394.2036,708.5563,396.2954,706.9051,398.6459,705.1712,400.9328,705.1712,401.5816,696.589,400.8901,688.0069,401.0249,679.4247,401.229,670.8425,401.2969,662.2603,400.9294,653.6781,401.1841,645.096,400.432,636.5138,401.1816,627.9316,401.4124,619.3494,401.3217,610.7673,401.4691,602.1851,400.5101,593.6029,400.3622,585.0207,400.3891,576.4386,400.8813,567.8564,400.7608,559.2742,401.5289,550.692,400.78,542.1098,400.6327,533.5277,401.1325,524.9455,400.9328,524.7914,400.8142,523.0757,398.5658,521.596,396.4988,519.7969,394.1862,518.1162,391.9646,516.1967,389.5593,516.1246,389.4992,518.018,387.5192,519.8285,385.4701,521.3401,383.172,523.1743,381.1426,524.9455,379.0607" style="stroke:#181818;stroke-width:0.4374;"/><text fill="#000000" font-family="sans-serif" font-size="11.3735" lengthAdjust="spacing" textLength="177.1305" x="526.6953" y="394.7185">Processamento das informa&#231;&#245;es.</text><g class="message" data-participant-1="ST" data-participant-2="IHM"><polygon fill="#00BFFF" points="291.3244,407.6746,291.3472,407.7316,289.5298,408.2624,287.8458,409.1268,286.1184,409.8826,284.2481,410.2811,282.5756,411.1742,282.5672,411.1531,284.2792,411.7586,286.0336,412.4701,287.8175,413.2554,289.4998,413.7866,291.3244,414.6737,291.4386,414.7879,290.4946,413.8438,289.8838,413.2331,289.3138,412.6631,288.5071,411.8564,287.8249,411.1742,287.839,411.1882,288.5182,410.4677,289.2615,409.8112,289.9739,409.1238,290.7453,408.4953,291.3244,407.6746" style="stroke:#00BFFF;stroke-width:0.8749;"/><path d="M286.0751,411.1742 L286.0751,411.4194 L294.8364,410.6909 L303.5977,411.3996 L312.3589,411.6404 L321.1202,410.342 L329.8815,411.0835 L338.6427,410.6767 L347.404,410.7268 L356.1653,411.0947 L364.9265,410.3677 L373.6878,411.82 L382.449,410.4389 L391.2103,410.9435 L399.9716,411.678 L408.7328,411.0741 L417.4941,411.2538 L426.2554,411.1369 L435.0166,411.3824 L443.7779,411.4531 L452.5392,411.8574 L461.3004,411.957 L470.0617,411.9665 L478.823,411.4712 L487.5842,411.7149 L496.3455,411.9933 L505.1068,410.3329 L513.868,411.9657 L522.6293,410.8283 L531.3905,411.7969 L540.1518,410.5967 L548.9131,411.0943 L557.6743,412.0393 L566.4356,411.1173 L575.1969,411.297 L583.9581,411.5692 L592.7194,411.6597 L601.4807,411.1696 L610.2419,411.1742" fill="none" style="stroke:#00BFFF;stroke-width:0.8749;stroke-dasharray:1.7498,1.7498;"/></g><g class="message" data-participant-1="IHM" data-participant-2="ST"><polygon fill="#00BFFF" points="600.6182,419.923,600.641,419.9799,602.3231,420.5107,604.1387,421.3751,605.9108,422.1309,607.54,422.5294,609.367,423.4225,609.3586,423.4015,607.5711,424.0069,605.826,424.7185,604.1104,425.5038,602.2931,426.0349,600.6182,426.922,600.7324,427.0362,601.1882,426.0922,601.9772,425.4815,602.807,424.9114,603.4002,424.1047,604.1177,423.4225,604.1318,423.4366,603.4113,422.716,602.7548,422.0595,602.0673,421.3721,601.4389,420.7437,600.6182,419.923" style="stroke:#00BFFF;stroke-width:0.8749;"/><path d="M281.7007,423.4225 L281.7007,423.6677 L290.462,422.9392 L299.2233,423.648 L307.9845,423.8888 L316.7458,422.5903 L325.5071,423.3319 L334.2683,422.925 L343.0296,422.9752 L351.7908,423.343 L360.5521,422.616 L369.3134,424.0683 L378.0746,422.6873 L386.8359,423.1918 L395.5972,423.9264 L404.3584,423.3225 L413.1197,423.5021 L421.881,423.3853 L430.6422,423.6308 L439.4035,423.7015 L448.1648,424.1057 L456.926,424.2053 L465.6873,424.2149 L474.4485,423.7195 L483.2098,423.9633 L491.9711,424.2417 L500.7323,422.5813 L509.4936,424.214 L518.2549,423.0766 L527.0161,424.0452 L535.7774,422.8451 L544.5387,423.3426 L553.2999,424.2876 L562.0612,423.3657 L570.8225,423.5454 L579.5837,423.8175 L588.345,423.9081 L597.1062,423.418 L605.8675,423.4225" fill="none" style="stroke:#00BFFF;stroke-width:0.8749;"/></g><g class="message" data-participant-1="IHM" data-participant-2="OP"><polygon fill="#00BFFF" points="119.7171,447.662,119.7398,447.7189,117.9224,448.2497,116.2385,449.1142,114.5111,449.87,112.6408,450.2685,110.9683,451.1615,110.9598,451.1405,112.6718,451.746,114.4262,452.4575,116.2102,453.2428,117.8924,453.774,119.7171,454.6611,119.8312,454.7752,118.8872,453.8312,118.2765,453.2205,117.7064,452.6504,116.8998,451.8438,116.2175,451.1615,116.2316,451.1756,116.9109,450.4551,117.6542,449.7985,118.3666,449.1111,119.1379,448.4827,119.7171,447.662" style="stroke:#00BFFF;stroke-width:0.8749;"/><path d="M114.4678,451.1615 L114.4678,451.4067 L123.2239,450.6782 L131.9799,451.387 L140.736,451.6278 L149.4921,450.3294 L158.2481,451.0709 L167.0042,450.664 L175.7603,450.7142 L184.5163,451.082 L193.2724,450.3551 L202.0285,451.8074 L210.7845,450.4263 L219.5406,450.9309 L228.2967,451.6654 L237.0528,451.0615 L245.8088,451.2411 L254.5649,451.1243 L263.321,451.3698 L272.077,451.1615" fill="none" style="stroke:#00BFFF;stroke-width:0.8749;"/><text fill="#000000" font-family="sans-serif" font-size="11.3735" lengthAdjust="spacing" textLength="141.1676" x="124.9664" y="446.0794">Visualiza&#231;&#227;o da contagem.</text></g><polygon fill="#FEFFDD" points="205.6135,462.535,205.6135,462.7189,214.5264,462.1725,223.4393,462.7041,232.3521,462.8847,241.265,461.9109,250.1778,462.467,259.0907,462.1619,268.0036,462.1995,276.9164,462.4754,285.8293,461.9301,294.7421,463.0194,303.655,461.9836,312.5679,462.362,321.4807,462.9129,330.3936,462.46,339.3064,462.5947,348.2193,462.535,348.2105,462.5321,350.0185,467.8008,351.785,473.0557,353.6306,478.3369,355.404,483.5941,356.9681,488.7815,357.1567,488.8423,355.289,494.2285,353.5973,499.6715,351.9137,505.1172,349.7689,510.414,348.2193,515.9028,348.2193,516.4964,339.3064,515.6434,330.3936,516.3698,321.4807,515.4697,312.5679,515.8429,303.655,516.5516,294.7421,515.8602,285.8293,515.9949,276.9164,516.1991,268.0036,516.267,259.0907,515.8994,250.1778,516.1541,241.265,515.402,232.3521,516.1516,223.4393,516.3824,214.5264,516.2917,205.6135,515.9028,205.7837,515.9577,203.7297,510.4353,201.933,504.9959,200.1918,499.5744,198.5981,494.2005,196.8647,488.7815,196.8103,488.7634,198.803,483.595,200.3159,478.2668,202.0191,473.002,203.9269,467.8054,205.6135,462.535" style="stroke:#181818;stroke-width:0.4374;"/><text fill="#000000" font-family="sans-serif" font-size="11.3735" lengthAdjust="spacing" textLength="96.9362" x="207.3633" y="478.1928">Em menos de 2s a</text><text fill="#000000" font-family="sans-serif" font-size="11.3735" lengthAdjust="spacing" textLength="133.3654" x="210.3204" y="493.6835">notifica&#231;&#227;o sonora/visual</text><text fill="#000000" font-family="sans-serif" font-size="11.3735" lengthAdjust="spacing" textLength="122.1284" x="210.3204" y="509.1741">ocorre atrav&#233;s da IHM.</text><g class="message" data-participant-1="IHM" data-participant-2="OP"><polygon fill="#00BFFF" points="119.7171,537.621,119.7398,537.6779,117.9224,538.2087,116.2385,539.0731,114.5111,539.8289,112.6408,540.2274,110.9683,541.1205,110.9598,541.0994,112.6718,541.7049,114.4262,542.4165,116.2102,543.2017,117.8924,543.7329,119.7171,544.62,119.8312,544.7342,118.8872,543.7901,118.2765,543.1794,117.7064,542.6094,116.8998,541.8027,116.2175,541.1205,116.2316,541.1346,116.9109,540.414,117.6542,539.7575,118.3666,539.0701,119.1379,538.4416,119.7171,537.621" style="stroke:#00BFFF;stroke-width:0.8749;"/><path d="M114.4678,541.1205 L114.4678,541.3657 L122.9932,540.6372 L131.5187,541.346 L140.0441,541.5867 L148.5696,540.2883 L157.0951,541.0298 L165.6205,540.623 L174.146,540.6731 L182.6714,541.041 L191.1969,540.314 L199.7223,541.7663 L208.2478,540.3853 L216.7732,540.8898 L225.2987,541.6244 L233.8242,541.0204 L242.3496,541.2001 L250.8751,541.0832 L259.4005,541.3287 L267.926,541.3994 L276.4514,541.1205" fill="none" style="stroke:#00BFFF;stroke-width:0.8749;"/><text fill="#000000" font-family="sans-serif" font-size="11.3735" lengthAdjust="spacing" textLength="120.2859" x="124.9664" y="536.0383">Visualiza&#231;&#227;o do status.</text></g><polygon fill="#FEFFDD" points="337.7207,552.4939,337.7207,552.6778,346.5182,552.1315,355.3156,552.6631,364.113,552.8436,372.9104,551.8698,381.7079,552.426,390.5053,552.1208,399.3027,552.1584,408.1001,552.4343,416.8976,551.8891,425.695,552.9783,434.4924,551.9425,443.2898,552.3209,452.0873,552.8719,460.8847,552.4189,469.6821,552.5537,478.4795,552.466,487.277,552.6501,496.0744,552.4939,496.1374,552.5239,497.9784,556.2419,499.7506,559.9271,501.5025,563.6026,503.1405,567.2239,504.8232,570.8665,504.9463,570.9224,503.2599,574.8007,501.1322,578.4784,499.7541,582.4968,497.7454,586.2286,496.0744,590.1139,496.0744,590.5809,487.277,589.6808,478.4795,590.054,469.6821,590.7627,460.8847,590.0712,452.0873,590.206,443.2898,590.4101,434.4924,590.478,425.695,590.1105,416.8976,590.3652,408.1001,589.6131,399.3027,590.3627,390.5053,590.5935,381.7079,590.5028,372.9104,590.6502,364.113,589.6912,355.3156,589.5433,346.5182,589.5702,337.7207,590.1139,337.7051,590.1068,335.9188,586.2407,334.4021,582.4971,332.4251,578.5444,330.6306,574.6746,328.9719,570.8665,329.032,570.8951,330.5461,567.1084,332.3347,563.4524,334.3921,559.9243,336.0857,556.2231,337.7207,552.4939" style="stroke:#181818;stroke-width:0.4374;"/><text fill="#000000" font-family="sans-serif" font-size="11.3735" lengthAdjust="spacing" textLength="127.8492" x="339.4705" y="568.1517">Se o usu&#225;rio n&#227;o estiver</text><text fill="#000000" font-family="sans-serif" font-size="11.3735" lengthAdjust="spacing" textLength="152.6548" x="342.4276" y="583.6424">autorizado a opera&#231;&#227;o falha.</text><g class="message" data-participant-1="Z" data-participant-2="OP"><polygon fill="#00BFFF" points="119.7171,596.5985,119.7398,596.6554,117.9224,597.1863,116.2385,598.0507,114.5111,598.8065,112.6408,599.205,110.9683,600.0981,110.9598,600.077,112.6718,600.6825,114.4262,601.394,116.2102,602.1793,117.8924,602.7105,119.7171,603.5976,119.8312,603.7118,118.8872,602.7677,118.2765,602.157,117.7064,601.5869,116.8998,600.7803,116.2175,600.0981,116.2316,600.1121,116.9109,599.3916,117.6542,598.7351,118.3666,598.0477,119.1379,597.4192,119.7171,596.5985" style="stroke:#00BFFF;stroke-width:0.8749;"/><path d="M114.4678,600.0981 L114.4678,600.3432 L123.2351,599.6148 L132.0023,600.3235 L140.7696,600.5643 L149.5369,599.2659 L158.3042,600.0074 L167.0714,599.6006 L175.8387,599.6507 L184.606,600.0186 L193.3733,599.2916 L202.1405,600.7439 L210.9078,599.3628 L219.6751,599.8674 L228.4424,600.6019 L237.2096,599.998 L245.9769,600.1777 L254.7442,600.0608 L263.5115,600.3063 L272.2788,600.377 L281.046,600.7813 L289.8133,600.8809 L298.5806,600.8904 L307.3479,600.3951 L316.1151,600.6388 L324.8824,600.9172 L333.6497,599.2568 L342.417,600.8896 L351.1842,599.7522 L359.9515,600.7208 L368.7188,599.5206 L377.4861,600.0182 L386.2533,600.9632 L395.0206,600.0412 L403.7879,600.2209 L412.5552,600.0981" fill="none" style="stroke:#00BFFF;stroke-width:0.8749;stroke-dasharray:1.7498,1.7498;"/></g><text fill="#1E90FF" font-family="Arial" font-size="12.2483" lengthAdjust="spacing" textLength="3.1846" x="26.2465" y="647.3119">&#160;</text><text fill="#1E90FF" font-family="Arial" font-size="12.2483" lengthAdjust="spacing" textLength="3.1846" x="26.2465" y="663.9941">&#160;</text><text fill="#1E90FF" font-family="Arial" font-size="12.2483" font-weight="bold" lengthAdjust="spacing" textLength="135.8459" x="26.2465" y="680.6763">Casos de Uso cobertos</text><text fill="#1E90FF" font-family="Arial" font-size="12.2483" lengthAdjust="spacing" textLength="3.2825" x="162.0924" y="680.6763">:</text><text fill="#1E90FF" font-family="Arial" font-size="12.2483" lengthAdjust="spacing" textLength="3.944" x="26.2465" y="697.3584">-</text><text fill="#1E90FF" font-family="Arial" font-size="12.2483" font-weight="bold" lengthAdjust="spacing" textLength="51.0264" x="33.375" y="697.3584">MIO-001</text><text fill="#1E90FF" font-family="Arial" font-size="12.2483" lengthAdjust="spacing" textLength="167.0424" x="87.5859" y="697.3584">Interface de Opera&#231;&#227;o (IHM);</text><text fill="#1E90FF" font-family="Arial" font-size="12.2483" lengthAdjust="spacing" textLength="3.944" x="26.2465" y="714.0406">-</text><text fill="#1E90FF" font-family="Arial" font-size="12.2483" font-weight="bold" lengthAdjust="spacing" textLength="51.0264" x="33.375" y="714.0406">MIO-003</text><text fill="#1E90FF" font-family="Arial" font-size="12.2483" lengthAdjust="spacing" textLength="149.6375" x="87.5859" y="714.0406">Autentica&#231;&#227;o de Usu&#225;rios;</text><polygon fill="none" points="24.0593,53.9283,24.0593,54.1122,32.8549,53.5658,41.6506,54.0974,50.4463,54.278,59.242,53.3041,68.0377,53.8603,76.8334,53.5551,85.629,53.5928,94.4247,53.8687,103.2204,53.3234,112.0161,54.4127,120.8118,53.3769,129.6074,53.7553,138.4031,54.3062,147.1988,53.8532,155.9945,53.988,164.7902,53.9003,173.5859,54.0845,182.3815,54.1375,191.1772,54.4407,199.9729,54.5154,208.7686,54.5225,217.5643,54.151,226.3599,54.3339,235.1556,54.5426,243.9513,53.2973,252.747,54.5219,261.5427,53.6689,270.3384,54.3953,279.134,53.4952,287.9297,53.8684,296.7254,54.5771,305.5211,53.8856,314.3168,54.0204,323.1124,54.2245,331.9081,54.2924,340.7038,53.9249,349.4995,54.1796,358.2952,53.4275,367.0909,54.1771,375.8865,54.4079,384.6822,54.3172,393.4779,54.4646,402.2736,53.5056,411.0693,53.3577,419.865,53.3846,428.6606,53.8768,437.4563,53.7563,446.252,54.5244,455.0477,53.7755,463.8434,53.6281,472.639,54.128,481.4347,53.3449,490.2304,53.4741,499.0261,54.496,507.8218,54.3094,516.6175,54.5709,525.4131,53.6467,534.2088,54.2075,543.0045,54.4448,551.8002,53.515,560.5959,53.8444,569.3915,54.0385,578.1872,54.4985,586.9829,53.9246,595.7786,54.333,604.5743,53.4438,613.37,53.3358,622.1656,54.3689,630.9613,53.301,639.757,54.3736,648.5527,54.1091,657.3484,53.6939,666.1441,53.6188,674.9397,54.3296,683.7354,53.6664,692.5311,54.4461,701.3268,53.4447,710.1225,54.4685,718.9181,54.352,727.7138,54.1426,736.5095,53.9696,745.3052,54.564,754.1009,54.4651,762.8966,53.9283,762.9154,53.9739,763.8544,54.3849,764.7379,54.6619,765.7604,55.2744,766.6256,55.5075,767.5363,55.8501,767.5828,55.8694,767.7568,56.7102,768.1959,57.6608,768.8324,58.6932,769.1896,59.6099,769.4582,60.4899,769.4206,60.4899,769.1763,69.6307,769.2666,78.7714,768.8578,87.9122,769.821,97.053,769.4582,106.1937,769.6574,106.2763,769.2156,107.1804,768.8767,108.1272,768.2682,108.9623,767.9442,109.9153,767.5363,110.8335,767.4931,110.729,766.6401,111.2944,765.708,111.6687,764.8141,112.1354,763.7989,112.3091,762.8966,112.7553,762.8966,112.6377,754.1009,113.1433,745.3052,113.2517,736.5095,112.3069,727.7138,112.5857,718.9181,112.8859,710.1225,112.2209,701.3268,113.0645,692.5311,112.981,683.7354,112.6672,674.9397,112.8798,666.1441,113.3928,657.3484,112.4816,648.5527,113.0309,639.757,113.0052,630.9613,112.8566,622.1656,112.8786,613.37,112.8546,604.5743,112.2093,595.7786,112.4047,586.9829,112.3515,578.1872,112.8112,569.3915,112.8324,560.5959,112.8968,551.8002,112.5008,543.0045,112.6963,534.2088,112.6502,525.4131,113.26,516.6175,113.1285,507.8218,112.3305,499.0261,112.6915,490.2304,112.2503,481.4347,113.0076,472.639,113.2877,463.8434,113.2318,455.0477,112.3743,446.252,113.1612,437.4563,112.1055,428.6606,112.9304,419.865,112.4935,411.0693,112.84,402.2736,112.9656,393.4779,113.1684,384.6822,112.1255,375.8865,113.1713,367.0909,112.9112,358.2952,113.0662,349.4995,113.4096,340.7038,112.7601,331.9081,112.9087,323.1124,112.9421,314.3168,112.9279,305.5211,112.7546,296.7254,113.3771,287.9297,112.2219,279.134,113.2499,270.3384,112.2094,261.5427,112.2826,252.747,112.7903,243.9513,112.7801,235.1556,112.3242,226.3599,113.1173,217.5643,112.8506,208.7686,113.3911,199.9729,113.339,191.1772,112.3632,182.3815,112.4072,173.5859,112.6423,164.7902,113.0664,155.9945,113.1079,147.1988,113.0188,138.4031,112.4562,129.6074,113.3121,120.8118,113.3098,112.0161,112.714,103.2204,112.5462,94.4247,112.4042,85.629,112.5676,76.8334,112.8756,68.0377,112.6955,59.242,112.3898,50.4463,113.1817,41.6506,112.3538,32.8549,113.1949,24.0593,112.7553,24.1069,112.8704,23.1728,112.4712,22.2806,112.1732,21.248,111.536,20.3139,111.1368,19.4195,110.8335,19.5593,110.8914,18.8743,109.8389,18.5877,108.9515,18.2975,108.0625,17.9005,107.1293,17.4976,106.1937,17.184,106.1937,17.46,97.053,18.1491,87.9122,18.065,78.7714,16.976,69.6307,17.4976,60.4899,17.5188,60.4987,17.7436,59.5046,18.2593,58.6311,18.7297,57.7387,19.1482,56.8249,19.4195,55.8501,19.3453,55.671,20.3921,55.5737,21.2763,55.0837,22.1414,54.5474,23.0787,54.1857,24.0593,53.9283" style="stroke:#000000;stroke-width:0.8749;"/><text fill="#1E90FF" font-family="Arial" font-size="17.4976" font-weight="bold" lengthAdjust="spacing" textLength="716.9652" x="34.9953" y="90.1309">Diagrama de sequ&#234;ncia - M&#243;dulo de Interface e Opera&#231;&#227;o (MIO) - IHM Operacional</text><!--SRC=[dLJ1RXCn4BtxAuPSagoQJO5RAf0gceWSIYAbz51ncUuwhQMDPsllHi3VL1mGI9mGNx0_nhCtQH8LeQg-nF7El7dpvjalZCsAEjTqDfuiqh9U5KfnLecZpgpKZdDn7M9FixcwbjhcxBvGP_h-lADATfN9JCcseivaMbIER_IA08MybV6- -QDzpBrIcTZAIK4Buokzud2uk51gs5Kpyfkpi_7bc4hnlZQEQXoW2XMISK4enII1JlEz-IOfBRHhxWcetkIHfE9AszpaGdSrM_oqwP591Jm6Oek0XeXhH8Cy_eoKwd6VfXQji2CTQpaIoanM2ELCXR6tV4AgTzsdI-DhBinN3eYXgRPbeQfsLWXxj58AESr5ICaEKeHynLNjGyAswrvK6OoFQCw1tH5DkBZbVggwGwMwRvwrL9V-kMARydpK-Mwoes0JiuRkcE_35bDzs6C0QZQdmTkm6sqb7iwZm1jvTIjlgiAq47arejCrv8eMsVEHkhK2I5bh5s8kjJDBp8_4asr-hRNn0UkJ3QCL1xMZKOBGjQ-RUsSaLRa-e7OLwYqkHZ3JGnRYXKedcVPUo4J66CJW2KjrGvVxF6FNawB-7FlC0UuF7P8UQhMN6cZDMngyWbM34JtuBCMjGcjG95MB2ngqucxLW_gRNMSsxunstjkeiVDi-eZeU4Me9577LnxsXfW8YJAtwLwiE1wk8sZuB9au1_5myzVD3n_m0PN-dyFs4ZoQnzDKFlG1HhURC9o00je34r_tl12VWztpGSjmmT9W0B34m_RC-w2w7wHYN8Hdfgj2t-3HeafAbIHdXcySuqM0_bxVrSrF2_FHWCwRttdTtfMfhRHRSgRnJirs_VJEfxC-8eFkyHXtt7AH92h0jrMKMWgKSqgXrZlsxQ0_mkMPN6jNYK-IaG98aW1jS7pyCadswkM71L6fVx8V_HhHfzjNTJFf0DzEnfz49Xi6Vm40]--></g></svg>