<svg xmlns="http://www.w3.org/2000/svg" xmlns:xlink="http://www.w3.org/1999/xlink" contentStyleType="text/css" data-diagram-type="SEQUENCE" height="750.6016px" preserveAspectRatio="none" style="width:960px;height:750px;background:#EEEBDC;" version="1.1" viewBox="0 0 960 750" width="960.2195px" zoomAndPan="magnify"><defs/><g><rect fill="#EEEBDC" height="750.6016" style="stroke:none;stroke-width:1.0587;" width="960.2195" x="0" y="0"/><g><title>IHM</title><polygon fill="#A9DCDF" points="504.6188,219.5631,504.6188,219.6372,506.7362,219.4168,508.8536,219.6313,510.9709,219.7041,513.0883,219.3113,515.2056,219.5631,515.1233,219.5631,514.7541,230.1125,514.7996,240.6619,515.1335,251.2114,514.4737,261.7608,515.7917,272.3103,514.5383,282.8597,514.9962,293.4092,515.6629,303.9586,515.1148,314.508,515.2779,325.0575,515.1718,335.6069,515.3946,346.1564,515.4588,356.7058,515.8257,367.2553,515.916,377.8047,515.9247,388.3541,515.4752,398.9036,515.6964,409.453,515.949,420.0025,514.4421,430.5519,515.9239,441.1014,514.8917,451.6508,515.7707,462.2003,514.6815,472.7497,515.1331,483.2991,515.9907,493.8486,515.154,504.398,515.3171,514.9475,515.5641,525.4969,515.6463,536.0464,515.2015,546.5958,515.5097,557.1452,514.5996,567.6947,515.5067,578.2441,515.2056,588.7936,515.2056,588.987,513.0883,588.9505,510.9709,589.0099,508.8536,588.6231,506.7362,588.5634,504.6188,588.7936,503.961,588.7936,504.5565,578.2441,504.4108,567.6947,505.3402,557.1452,504.4339,546.5958,504.2557,536.0464,504.8605,525.4969,503.9129,514.9475,504.0693,504.398,505.3059,493.8486,505.0801,483.2991,505.3964,472.7497,504.2782,462.2003,504.9568,451.6508,505.2439,441.1014,504.1187,430.5519,504.5174,420.0025,504.7522,409.453,505.3088,398.9036,504.6144,388.3541,505.1086,377.8047,504.0326,367.2553,503.9018,356.7058,505.152,346.1564,503.8598,335.6069,505.1577,325.0575,504.8376,314.508,504.3352,303.9586,504.2443,293.4092,505.1045,282.8597,504.3019,272.3103,505.2454,261.7608,504.0337,251.2114,505.2725,240.6619,505.1316,230.1125,504.6188,219.5631" style="stroke:#181818;stroke-width:1.0587;"/></g><g><title>MCU</title><polygon fill="#A9DCDF" points="724.6776,219.5631,724.6776,219.6372,726.795,219.4168,728.9123,219.6313,731.0297,219.7041,733.147,219.3113,735.2644,219.5631,735.1821,219.5631,734.8128,230.0841,734.8584,240.6052,735.1922,251.1263,734.5324,261.6473,735.8505,272.1684,734.5971,282.6895,735.055,293.2106,735.7217,303.7316,735.1736,314.2527,735.3366,324.7738,735.2305,335.2948,735.4534,345.8159,735.5175,356.337,735.8844,366.8581,735.9748,377.3791,735.9835,387.9002,735.5339,398.4213,735.7552,408.9424,736.0078,419.4634,734.5009,429.9845,735.9827,440.5056,734.9505,451.0266,735.8295,461.5477,734.7403,472.0688,735.1918,482.5899,736.0495,493.1109,735.2128,503.632,735.3758,514.1531,735.6229,524.6742,735.705,535.1952,735.2602,545.7163,735.5684,556.2374,734.6584,566.7584,735.5654,577.2795,735.8447,587.8006,735.2644,598.3217,735.2644,598.4785,733.147,598.538,731.0297,598.1512,728.9123,598.0915,726.795,598.1024,724.6776,598.3217,724.6153,598.3217,724.4695,587.8006,725.399,577.2795,724.4927,566.7584,724.3144,556.2374,724.9193,545.7163,723.9716,535.1952,724.128,524.6742,725.3646,514.1531,725.1388,503.632,725.4552,493.1109,724.3369,482.5899,725.0155,472.0688,725.3027,461.5477,724.1775,451.0266,724.5761,440.5056,724.811,429.9845,725.3676,419.4634,724.6732,408.9424,725.1673,398.4213,724.0913,387.9002,723.9606,377.3791,725.2108,366.8581,723.9186,356.337,725.2164,345.8159,724.8964,335.2948,724.394,324.7738,724.3031,314.2527,725.1633,303.7316,724.3607,293.2106,725.3042,282.6895,724.0924,272.1684,725.3313,261.6473,725.1903,251.1263,724.9369,240.6052,724.7276,230.0841,724.6776,219.5631" style="stroke:#181818;stroke-width:1.0587;"/></g><g><title>Operador</title><polygon fill="#000000" fill-opacity="0.00000" points="111.6241,208.9763,111.6241,209.0505,113.318,208.8301,115.0119,209.0445,116.7058,209.1173,118.3997,208.7245,120.0935,208.9763,120.0113,208.9763,119.642,219.473,119.6875,229.9696,120.0214,240.4663,119.3616,250.963,120.6797,261.4596,119.4263,271.9563,119.8842,282.453,120.5508,292.9496,120.0027,303.4463,120.1658,313.943,120.0597,324.4397,120.2825,334.9363,120.3467,345.433,120.7136,355.9297,120.804,366.4263,120.8127,376.923,120.3631,387.4197,120.5843,397.9163,120.837,408.413,119.33,418.9097,120.8119,429.4064,119.7796,439.903,120.6587,450.3997,119.5695,460.8964,120.021,471.393,120.8787,481.8897,120.0419,492.3864,120.205,502.8831,120.452,513.3797,120.5342,523.8764,120.0894,534.3731,120.3976,544.8697,119.4875,555.3664,120.3946,565.8631,120.6739,576.3597,120.5642,586.8564,120.7425,597.3531,120.0935,607.8498,120.0935,607.6793,118.3997,607.6196,116.7058,607.6305,115.0119,607.829,113.318,607.7804,111.6241,607.8498,112.3455,607.8498,111.4392,597.3531,111.2609,586.8564,111.8658,576.3597,110.9182,565.8631,111.0745,555.3664,112.3112,544.8697,112.0854,534.3731,112.4017,523.8764,111.2835,513.3797,111.9621,502.8831,112.2492,492.3864,111.124,481.8897,111.5226,471.393,111.7575,460.8964,112.3141,450.3997,111.6197,439.903,112.1138,429.4064,111.0378,418.9097,110.9071,408.413,112.1573,397.9163,110.8651,387.4197,112.163,376.923,111.8429,366.4263,111.3405,355.9297,111.2496,345.433,112.1098,334.9363,111.3072,324.4397,112.2507,313.943,111.039,303.4463,112.2778,292.9496,112.1368,282.453,111.8835,271.9563,111.6741,261.4596,112.3934,250.963,112.2737,240.4663,111.8033,229.9696,111.9081,219.473,111.6241,208.9763"/><path d="M114.9914,208.9763 L115.288,208.9763 L114.4065,219.473 L115.2642,229.9696 L115.5555,240.4663 L113.9844,250.963 L114.8817,261.4596 L114.3893,271.9563 L114.45,282.453 L114.8952,292.9496 L114.0154,303.4463 L115.7729,313.943 L114.1017,324.4397 L114.7122,334.9363 L115.6011,345.433 L114.8703,355.9297 L115.0877,366.4263 L114.9463,376.923 L115.2434,387.4197 L115.3289,397.9163 L115.8181,408.413 L115.9386,418.9097 L115.9502,429.4064 L115.3508,439.903 L115.6457,450.3997 L115.9826,460.8964 L113.9734,471.393 L115.9491,481.8897 L114.5728,492.3864 L115.7449,502.8831 L114.2926,513.3797 L114.8947,523.8764 L116.0382,534.3731 L114.9226,544.8697 L115.14,555.3664 L115.4694,565.8631 L115.5789,576.3597 L114.9858,586.8564 L115.3968,597.3531 L114.9914,607.8498" fill="none" style="stroke:#0000FF;stroke-width:0.5293;stroke-dasharray:5.2934,5.2934;"/></g><g><title>Supervisor</title><polygon fill="#000000" fill-opacity="0.00000" points="214.8517,208.9763,214.8517,209.0505,216.5456,208.8301,218.2395,209.0445,219.9334,209.1173,221.6273,208.7245,223.3212,208.9763,223.2389,208.9763,222.8696,219.473,222.9152,229.9696,223.249,240.4663,222.5892,250.963,223.9073,261.4596,222.6539,271.9563,223.1118,282.453,223.7784,292.9496,223.2303,303.4463,223.3934,313.943,223.2873,324.4397,223.5102,334.9363,223.5743,345.433,223.9412,355.9297,224.0316,366.4263,224.0403,376.923,223.5907,387.4197,223.8119,397.9163,224.0646,408.413,222.5577,418.9097,224.0395,429.4064,223.0073,439.903,223.8863,450.3997,222.7971,460.8964,223.2486,471.393,224.1063,481.8897,223.2696,492.3864,223.4326,502.8831,223.6797,513.3797,223.7618,523.8764,223.317,534.3731,223.6252,544.8697,222.7151,555.3664,223.6222,565.8631,223.9015,576.3597,223.7918,586.8564,223.9701,597.3531,223.3212,607.8498,223.3212,607.6793,221.6273,607.6196,219.9334,607.6305,218.2395,607.829,216.5456,607.7804,214.8517,607.8498,215.5731,607.8498,214.6668,597.3531,214.4886,586.8564,215.0934,576.3597,214.1458,565.8631,214.3022,555.3664,215.5388,544.8697,215.313,534.3731,215.6293,523.8764,214.5111,513.3797,215.1897,502.8831,215.4768,492.3864,214.3516,481.8897,214.7503,471.393,214.9851,460.8964,215.5417,450.3997,214.8473,439.903,215.3415,429.4064,214.2655,418.9097,214.1347,408.413,215.3849,397.9163,214.0927,387.4197,215.3906,376.923,215.0705,366.4263,214.5681,355.9297,214.4772,345.433,215.3374,334.9363,214.5348,324.4397,215.4783,313.943,214.2666,303.4463,215.5054,292.9496,215.3645,282.453,215.1111,271.9563,214.9017,261.4596,215.621,250.963,215.5013,240.4663,215.0309,229.9696,215.1357,219.473,214.8517,208.9763"/><path d="M218.3592,208.9763 L218.6559,208.9763 L217.7744,219.473 L218.6321,229.9696 L218.9234,240.4663 L217.3522,250.963 L218.2495,261.4596 L217.7572,271.9563 L217.8179,282.453 L218.263,292.9496 L217.3833,303.4463 L219.1407,313.943 L217.4696,324.4397 L218.0801,334.9363 L218.969,345.433 L218.2382,355.9297 L218.4556,366.4263 L218.3141,376.923 L218.6112,387.4197 L218.6968,397.9163 L219.186,408.413 L219.3065,418.9097 L219.3181,429.4064 L218.7187,439.903 L219.0136,450.3997 L219.3505,460.8964 L217.3412,471.393 L219.317,481.8897 L217.9407,492.3864 L219.1128,502.8831 L217.6605,513.3797 L218.2626,523.8764 L219.4061,534.3731 L218.2905,544.8697 L218.5079,555.3664 L218.8372,565.8631 L218.9468,576.3597 L218.3537,586.8564 L218.7647,597.3531 L218.3592,607.8498" fill="none" style="stroke:#0000FF;stroke-width:0.5293;stroke-dasharray:5.2934,5.2934;"/></g><g><title>IHM</title><polygon fill="#000000" fill-opacity="0.00000" points="505.6775,208.9763,505.6775,209.0505,507.3714,208.8301,509.0653,209.0445,510.7592,209.1173,512.4531,208.7245,514.1469,208.9763,514.0647,208.9763,513.6954,219.473,513.7409,229.9696,514.0748,240.4663,513.415,250.963,514.7331,261.4596,513.4797,271.9563,513.9376,282.453,514.6042,292.9496,514.0561,303.4463,514.2192,313.943,514.1131,324.4397,514.3359,334.9363,514.4001,345.433,514.767,355.9297,514.8574,366.4263,514.866,376.923,514.4165,387.4197,514.6377,397.9163,514.8904,408.413,513.3834,418.9097,514.8653,429.4064,513.833,439.903,514.7121,450.3997,513.6229,460.8964,514.0744,471.393,514.9321,481.8897,514.0953,492.3864,514.2584,502.8831,514.5054,513.3797,514.5876,523.8764,514.1428,534.3731,514.451,544.8697,513.5409,555.3664,514.448,565.8631,514.7273,576.3597,514.6175,586.8564,514.7959,597.3531,514.1469,607.8498,514.1469,607.6793,512.4531,607.6196,510.7592,607.6305,509.0653,607.829,507.3714,607.7804,505.6775,607.8498,506.3989,607.8498,505.4926,597.3531,505.3143,586.8564,505.9192,576.3597,504.9716,565.8631,505.1279,555.3664,506.3646,544.8697,506.1388,534.3731,506.4551,523.8764,505.3368,513.3797,506.0154,502.8831,506.3026,492.3864,505.1774,481.8897,505.576,471.393,505.8109,460.8964,506.3675,450.3997,505.6731,439.903,506.1672,429.4064,505.0912,418.9097,504.9605,408.413,506.2107,397.9163,504.9185,387.4197,506.2163,376.923,505.8963,366.4263,505.3939,355.9297,505.303,345.433,506.1632,334.9363,505.3606,324.4397,506.3041,313.943,505.0923,303.4463,506.3312,292.9496,506.1902,282.453,505.9369,271.9563,505.7275,261.4596,506.4468,250.963,506.3271,240.4663,505.8567,229.9696,505.9614,219.473,505.6775,208.9763"/><path d="M509.3829,208.9763 L509.6796,208.9763 L508.798,219.473 L509.6557,229.9696 L509.9471,240.4663 L508.3759,250.963 L509.2732,261.4596 L508.7809,271.9563 L508.8416,282.453 L509.2867,292.9496 L508.407,303.4463 L510.1644,313.943 L508.4932,324.4397 L509.1037,334.9363 L509.9926,345.433 L509.2618,355.9297 L509.4792,366.4263 L509.3378,376.923 L509.6349,387.4197 L509.7204,397.9163 L510.2096,408.413 L510.3301,418.9097 L510.3417,429.4064 L509.7423,439.903 L510.0373,450.3997 L510.3741,460.8964 L508.3649,471.393 L510.3407,481.8897 L508.9644,492.3864 L510.1364,502.8831 L508.6841,513.3797 L509.2862,523.8764 L510.4297,534.3731 L509.3141,544.8697 L509.5315,555.3664 L509.8609,565.8631 L509.9704,576.3597 L509.3774,586.8564 L509.7883,597.3531 L509.3829,607.8498" fill="none" style="stroke:#0000FF;stroke-width:0.5293;stroke-dasharray:5.2934,5.2934;"/></g><g><title>MCU</title><polygon fill="#000000" fill-opacity="0.00000" points="725.7363,208.9763,725.7363,209.0505,727.4302,208.8301,729.124,209.0445,730.8179,209.1173,732.5118,208.7245,734.2057,208.9763,734.1234,208.9763,733.7542,219.473,733.7997,229.9696,734.1335,240.4663,733.4738,250.963,734.7918,261.4596,733.5384,271.9563,733.9963,282.453,734.663,292.9496,734.1149,303.4463,734.2779,313.943,734.1719,324.4397,734.3947,334.9363,734.4589,345.433,734.8257,355.9297,734.9161,366.4263,734.9248,376.923,734.4753,387.4197,734.6965,397.9163,734.9491,408.413,733.4422,418.9097,734.924,429.4064,733.8918,439.903,734.7708,450.3997,733.6816,460.8964,734.1332,471.393,734.9908,481.8897,734.1541,492.3864,734.3172,502.8831,734.5642,513.3797,734.6463,523.8764,734.2016,534.3731,734.5098,544.8697,733.5997,555.3664,734.5068,565.8631,734.7861,576.3597,734.6763,586.8564,734.8547,597.3531,734.2057,607.8498,734.2057,607.6793,732.5118,607.6196,730.8179,607.6305,729.124,607.829,727.4302,607.7804,725.7363,607.8498,726.4577,607.8498,725.5514,597.3531,725.3731,586.8564,725.9779,576.3597,725.0303,565.8631,725.1867,555.3664,726.4233,544.8697,726.1975,534.3731,726.5139,523.8764,725.3956,513.3797,726.0742,502.8831,726.3613,492.3864,725.2362,481.8897,725.6348,471.393,725.8697,460.8964,726.4263,450.3997,725.7318,439.903,726.226,429.4064,725.15,418.9097,725.0193,408.413,726.2694,397.9163,724.9773,387.4197,726.2751,376.923,725.955,366.4263,725.4526,355.9297,725.3617,345.433,726.222,334.9363,725.4194,324.4397,726.3629,313.943,725.1511,303.4463,726.3899,292.9496,726.249,282.453,725.9956,271.9563,725.7863,261.4596,726.5055,250.963,726.3859,240.4663,725.9155,229.9696,726.0202,219.473,725.7363,208.9763"/><path d="M729.6587,208.9763 L729.9554,208.9763 L729.0739,219.473 L729.9316,229.9696 L730.2229,240.4663 L728.6517,250.963 L729.549,261.4596 L729.0567,271.9563 L729.1174,282.453 L729.5625,292.9496 L728.6828,303.4463 L730.4402,313.943 L728.769,324.4397 L729.3796,334.9363 L730.2684,345.433 L729.5376,355.9297 L729.755,366.4263 L729.6136,376.923 L729.9107,387.4197 L729.9963,397.9163 L730.4855,408.413 L730.606,418.9097 L730.6175,429.4064 L730.0181,439.903 L730.3131,450.3997 L730.65,460.8964 L728.6407,471.393 L730.6165,481.8897 L729.2402,492.3864 L730.4122,502.8831 L728.96,513.3797 L729.562,523.8764 L730.7056,534.3731 L729.5899,544.8697 L729.8074,555.3664 L730.1367,565.8631 L730.2463,576.3597 L729.6532,586.8564 L730.0641,597.3531 L729.6587,607.8498" fill="none" style="stroke:#0000FF;stroke-width:0.5293;stroke-dasharray:5.2934,5.2934;"/></g><g class="participant participant-head" data-participant="OP"><text fill="#1E90FF" font-family="Aapex" font-size="17.9975" lengthAdjust="spacing" textLength="82.1944" x="71.5856" y="203.703">Operador</text><polygon fill="#00BFFF" points="132.8912,141.4728,130.4083,144.8655,127.4715,149.8346,123.2713,153.1834,118.8576,155.0146,115.3384,155.1736,110.8152,152.8833,106.5474,151.3871,103.308,148.3493,101.6088,144.8716,100.6011,142.1025,99.6138,138.4856,98.0115,135.3731,99.2428,132.3341,100.3216,129.0052,104.3702,126.3724,107.2184,122.9563,110.7439,121.822,114.9351,120.8451,120.3097,121.4255,123.2535,122.8138,126.6761,123.4431,130.8377,127.7067,132.2884,132.2078,132.9187,135.279,132.2047,140.3399" style="stroke:#00BFFF;stroke-width:0.5293;"/><path d="M115.8588,158.5262 L115.8588,158.5262 L115.8926,158.6191 L118.1213,157.496 L120.5481,156.9178 L122.9104,156.1621 L125.0605,154.823 L127.5043,154.2915 L127.5043,154.2915 L127.4891,154.2582 L129.7503,155.1675 L132.0878,156.2446 L134.4783,157.4383 L136.686,158.23 L139.1497,159.5849 L139.3869,159.6927 L139.9384,161.7912 L141.1824,164.2045 L142.5108,166.6562 L143.3477,168.8845 L144.4431,171.2303 L144.5073,171.2303 L144.413,172.0772 L144.6111,172.9242 L144.6681,173.7711 L144.9943,174.6181 L144.4431,175.465 L144.4431,175.465 L144.6664,175.6883 L142.9752,177.3849 L141.14,178.9375 L139.5157,180.7009 L137.9012,182.4742 L135.9737,183.9344 L135.9737,183.2557 L127.9277,184.5729 L119.8818,183.6554 L111.8359,184.4368 L103.7899,183.4686 L95.744,183.9344 L95.744,183.9344 L95.7212,183.9116 L94.2968,182.4873 L92.34,180.5304 L90.6974,178.8878 L89.0811,177.2715 L87.2746,175.465 L87.6663,175.465 L87.2709,174.6181 L87.5449,173.7711 L86.7359,172.9242 L87.5422,172.0772 L87.2746,171.2303 L87.2746,171.2303 L87.5094,171.337 L88.5237,168.9878 L89.6545,166.6915 L90.2437,164.149 L91.2299,161.787 L92.568,159.5849 L92.447,159.3187 L94.8856,158.501 L97.1879,157.3833 L99.6879,156.7007 L101.8503,155.2753 L104.2134,154.2915 L104.2134,154.2915 L104.1582,154.1398 L106.5792,155.2394 L108.7643,155.6905 L111.1172,156.6027 L113.6341,157.9662 L115.8588,158.5262" fill="#00BFFF"/></g><g class="participant participant-head" data-participant="SP"><text fill="#1E90FF" font-family="Aapex" font-size="17.9975" lengthAdjust="spacing" textLength="90.3832" x="170.7188" y="203.703">Supervisor</text><polygon fill="#00BFFF" points="236.1189,141.4728,233.6359,144.8655,230.6991,149.8346,226.4989,153.1834,222.0852,155.0146,218.566,155.1736,214.0428,152.8833,209.775,151.3871,206.5356,148.3493,204.8364,144.8716,203.8287,142.1025,202.8415,138.4856,201.2391,135.3731,202.4704,132.3341,203.5492,129.0052,207.5978,126.3724,210.446,122.9563,213.9715,121.822,218.1627,120.8451,223.5374,121.4255,226.4811,122.8138,229.9037,123.4431,234.0653,127.7067,235.516,132.2078,236.1463,135.279,235.4323,140.3399" style="stroke:#00BFFF;stroke-width:0.5293;"/><path d="M219.0864,158.5262 L219.0864,158.5262 L219.1202,158.6191 L221.3489,157.496 L223.7757,156.9178 L226.138,156.1621 L228.2881,154.823 L230.7319,154.2915 L230.7319,154.2915 L230.7168,154.2582 L232.9779,155.1675 L235.3154,156.2446 L237.7059,157.4383 L239.9136,158.23 L242.3773,159.5849 L242.6145,159.6927 L243.166,161.7912 L244.41,164.2045 L245.7384,166.6562 L246.5753,168.8845 L247.6707,171.2303 L247.7349,171.2303 L247.6406,172.0772 L247.8387,172.9242 L247.8957,173.7711 L248.2219,174.6181 L247.6707,175.465 L247.6707,175.465 L247.894,175.6883 L246.2028,177.3849 L244.3677,178.9375 L242.7433,180.7009 L241.1288,182.4742 L239.2013,183.9344 L239.2013,183.2557 L231.1554,184.5729 L223.1094,183.6554 L215.0635,184.4368 L207.0175,183.4686 L198.9716,183.9344 L198.9716,183.9344 L198.9488,183.9116 L197.5245,182.4873 L195.5676,180.5304 L193.925,178.8878 L192.3087,177.2715 L190.5022,175.465 L190.8939,175.465 L190.4985,174.6181 L190.7725,173.7711 L189.9635,172.9242 L190.7698,172.0772 L190.5022,171.2303 L190.5022,171.2303 L190.737,171.337 L191.7513,168.9878 L192.8821,166.6915 L193.4713,164.149 L194.4575,161.787 L195.7956,159.5849 L195.6746,159.3187 L198.1132,158.501 L200.4155,157.3833 L202.9155,156.7007 L205.0779,155.2753 L207.441,154.2915 L207.441,154.2915 L207.3858,154.1398 L209.8068,155.2394 L211.992,155.6905 L214.3448,156.6027 L216.8617,157.9662 L219.0864,158.5262" fill="#00BFFF"/></g><g class="participant participant-head" data-participant="IHM"><text fill="#000000" font-family="sans-serif" font-size="14.8215" lengthAdjust="spacing" textLength="29.4502" x="492.0111" y="204.6336">IHM</text><path d="M488.2094,159.1466 L488.4072,159.1466 L487.8195,164.2282 L488.3913,169.3099 L488.5855,174.3915 L487.538,179.4732 L488.2094,184.5548 M488.2094,171.8507 L488.2094,171.7776 L491.8089,171.4494 L495.4084,171.4898 L499.0079,171.7866 L502.6074,171.2001 L506.2069,171.8507" fill="none" style="stroke:#181818;stroke-width:0.5293;"/><polygon fill="#E2E2F0" points="531.6853,174.9409,529.8231,177.4853,527.6205,181.2121,524.4703,183.7237,521.16,185.0972,518.5206,185.2164,515.1283,183.4987,511.9274,182.3766,509.4978,180.0982,508.2234,177.4899,507.4677,175.4131,506.7272,172.7004,505.5254,170.366,506.449,168.0868,507.2581,165.5902,510.2945,163.6155,512.4307,161.0535,515.0748,160.2027,518.2182,159.47,522.2492,159.9053,524.457,160.9466,527.0239,161.4185,530.1451,164.6163,531.2331,167.9921,531.7058,170.2954,531.1704,174.0911" style="stroke:#181818;stroke-width:0.5293;"/></g><g class="participant participant-head" data-participant="MCU"><polygon fill="#1E90FF" points="704.7798,168.5836,704.7798,168.8061,714.8563,168.145,724.9328,168.7882,735.0092,169.0067,745.0857,167.8284,755.1621,168.5836,755.1516,168.5583,755.4788,168.5996,755.8589,168.7687,756.2758,169.0265,756.566,168.9784,757.0336,169.3588,757.2141,169.4336,756.9832,169.648,757.2792,170.0807,757.6396,170.54,757.6258,170.8444,757.8088,171.2303,757.8329,171.2303,757.7976,178.0384,757.8718,184.8465,757.8932,191.6547,758.0155,198.4628,757.8088,205.2709,758.0276,205.3615,757.8752,205.7369,757.5818,206.0539,757.4949,206.4564,757.4176,206.8629,757.0336,207.1424,756.9362,206.9073,756.751,207.5187,756.245,207.3558,755.9828,207.7816,755.4696,207.6012,755.1621,207.9176,755.1621,207.8451,745.0857,208.7027,735.0092,207.866,724.9328,208.0291,714.8563,208.2761,704.7798,207.9176,704.836,208.0533,704.405,207.7613,704.07,207.7012,703.5796,207.2659,703.321,207.3902,702.9083,207.1424,703.0871,207.2164,702.8982,206.8281,702.7981,206.4766,702.2857,205.9543,702.0755,205.5571,702.1331,205.2709,701.9139,205.2709,702.1124,198.4628,702.0638,191.6547,702.3736,184.8465,702.0715,178.0384,702.1331,171.2303,702.0213,171.184,702.3626,170.8868,702.2258,170.3916,702.429,170.0373,702.9649,169.8207,702.9083,169.3588,702.9672,169.5008,703.3818,169.4432,703.6135,168.9438,704.0743,168.9978,704.4853,168.9311,704.7798,168.5836" style="stroke:#00BFFF;stroke-width:0.5293;"/><text fill="#A9DCDF" font-family="Impact" font-size="17.9975" lengthAdjust="spacing" textLength="40.8542" x="709.5439" y="195.2336">MCU</text></g><g><title>IHM</title><polygon fill="#A9DCDF" points="504.6188,219.5631,504.6188,219.6372,506.7362,219.4168,508.8536,219.6313,510.9709,219.7041,513.0883,219.3113,515.2056,219.5631,515.1233,219.5631,514.7541,230.1125,514.7996,240.6619,515.1335,251.2114,514.4737,261.7608,515.7917,272.3103,514.5383,282.8597,514.9962,293.4092,515.6629,303.9586,515.1148,314.508,515.2779,325.0575,515.1718,335.6069,515.3946,346.1564,515.4588,356.7058,515.8257,367.2553,515.916,377.8047,515.9247,388.3541,515.4752,398.9036,515.6964,409.453,515.949,420.0025,514.4421,430.5519,515.9239,441.1014,514.8917,451.6508,515.7707,462.2003,514.6815,472.7497,515.1331,483.2991,515.9907,493.8486,515.154,504.398,515.3171,514.9475,515.5641,525.4969,515.6463,536.0464,515.2015,546.5958,515.5097,557.1452,514.5996,567.6947,515.5067,578.2441,515.2056,588.7936,515.2056,588.987,513.0883,588.9505,510.9709,589.0099,508.8536,588.6231,506.7362,588.5634,504.6188,588.7936,503.961,588.7936,504.5565,578.2441,504.4108,567.6947,505.3402,557.1452,504.4339,546.5958,504.2557,536.0464,504.8605,525.4969,503.9129,514.9475,504.0693,504.398,505.3059,493.8486,505.0801,483.2991,505.3964,472.7497,504.2782,462.2003,504.9568,451.6508,505.2439,441.1014,504.1187,430.5519,504.5174,420.0025,504.7522,409.453,505.3088,398.9036,504.6144,388.3541,505.1086,377.8047,504.0326,367.2553,503.9018,356.7058,505.152,346.1564,503.8598,335.6069,505.1577,325.0575,504.8376,314.508,504.3352,303.9586,504.2443,293.4092,505.1045,282.8597,504.3019,272.3103,505.2454,261.7608,504.0337,251.2114,505.2725,240.6619,505.1316,230.1125,504.6188,219.5631" style="stroke:#181818;stroke-width:1.0587;"/></g><g><title>MCU</title><polygon fill="#A9DCDF" points="724.6776,219.5631,724.6776,219.6372,726.795,219.4168,728.9123,219.6313,731.0297,219.7041,733.147,219.3113,735.2644,219.5631,735.1821,219.5631,734.8128,230.0841,734.8584,240.6052,735.1922,251.1263,734.5324,261.6473,735.8505,272.1684,734.5971,282.6895,735.055,293.2106,735.7217,303.7316,735.1736,314.2527,735.3366,324.7738,735.2305,335.2948,735.4534,345.8159,735.5175,356.337,735.8844,366.8581,735.9748,377.3791,735.9835,387.9002,735.5339,398.4213,735.7552,408.9424,736.0078,419.4634,734.5009,429.9845,735.9827,440.5056,734.9505,451.0266,735.8295,461.5477,734.7403,472.0688,735.1918,482.5899,736.0495,493.1109,735.2128,503.632,735.3758,514.1531,735.6229,524.6742,735.705,535.1952,735.2602,545.7163,735.5684,556.2374,734.6584,566.7584,735.5654,577.2795,735.8447,587.8006,735.2644,598.3217,735.2644,598.4785,733.147,598.538,731.0297,598.1512,728.9123,598.0915,726.795,598.1024,724.6776,598.3217,724.6153,598.3217,724.4695,587.8006,725.399,577.2795,724.4927,566.7584,724.3144,556.2374,724.9193,545.7163,723.9716,535.1952,724.128,524.6742,725.3646,514.1531,725.1388,503.632,725.4552,493.1109,724.3369,482.5899,725.0155,472.0688,725.3027,461.5477,724.1775,451.0266,724.5761,440.5056,724.811,429.9845,725.3676,419.4634,724.6732,408.9424,725.1673,398.4213,724.0913,387.9002,723.9606,377.3791,725.2108,366.8581,723.9186,356.337,725.2164,345.8159,724.8964,335.2948,724.394,324.7738,724.3031,314.2527,725.1633,303.7316,724.3607,293.2106,725.3042,282.6895,724.0924,272.1684,725.3313,261.6473,725.1903,251.1263,724.9369,240.6052,724.7276,230.0841,724.6776,219.5631" style="stroke:#181818;stroke-width:1.0587;"/></g><g class="message" data-participant-1="OP" data-participant-2="IHM"><polygon fill="#00BFFF" points="491.9147,240.4253,491.9423,240.4942,493.9778,241.1365,496.1748,242.1826,498.3192,243.0971,500.2906,243.5794,502.5015,244.6601,502.4913,244.6346,500.3282,245.3673,498.2165,246.2283,496.1405,247.1785,493.9415,247.8213,491.9147,248.8948,492.0529,249.0329,492.6044,247.8905,493.5593,247.1515,494.5633,246.4617,495.2811,245.4856,496.1494,244.6601,496.1665,244.6771,495.2945,243.8051,494.5001,243.0107,493.6683,242.1789,492.9078,241.4184,491.9147,240.4253" style="stroke:#00BFFF;stroke-width:1.0587;"/><path d="M115.8588,244.6601 L115.8588,244.9567 L126.4813,244.0752 L137.1037,244.9329 L147.7262,245.2242 L158.3486,243.653 L168.9711,244.5504 L179.5935,244.058 L190.2159,244.1187 L200.8384,244.5638 L211.4608,243.6841 L222.0833,245.4416 L232.7057,243.7704 L243.3282,244.3809 L253.9506,245.2698 L264.573,244.539 L275.1955,244.7564 L285.8179,244.615 L296.4404,244.9121 L307.0628,244.9976 L317.6853,245.4868 L328.3077,245.6073 L338.9301,245.6189 L349.5526,245.0195 L360.175,245.3144 L370.7975,245.6513 L381.4199,243.642 L392.0424,245.6178 L402.6648,244.2415 L413.2872,245.4136 L423.9097,243.9613 L434.5321,244.5634 L445.1546,245.7069 L455.777,244.5913 L466.3995,244.8087 L477.0219,245.138 L487.6443,245.2476 L498.2668,244.6601" fill="none" style="stroke:#00BFFF;stroke-width:1.0587;"/><text fill="#000000" font-family="sans-serif" font-size="13.7628" lengthAdjust="spacing" textLength="362.7738" x="123.2696" y="238.5102">Envio de um comando sem a autoriza&#231;&#227;o para execu&#231;&#227;o</text></g><g class="message" data-participant-1="IHM" data-participant-2="OP"><polygon fill="#00BFFF" points="127.5043,273.9918,127.5318,274.0606,125.3326,274.7029,123.2949,275.749,121.2046,276.6635,118.9414,277.1458,116.9175,278.2265,116.9073,278.201,118.979,278.9337,121.102,279.7947,123.2606,280.745,125.2963,281.3877,127.5043,282.4612,127.6424,282.5993,126.5001,281.457,125.761,280.7179,125.0712,280.0281,124.0951,279.052,123.2696,278.2265,123.2866,278.2435,124.1085,277.3715,125.008,276.5771,125.8701,275.7453,126.8035,274.9848,127.5043,273.9918" style="stroke:#00BFFF;stroke-width:1.0587;"/><path d="M121.1522,278.2265 L121.1522,278.5231 L131.7747,277.6416 L142.3971,278.4993 L153.0195,278.7906 L163.642,277.2195 L174.2644,278.1168 L184.8869,277.6244 L195.5093,277.6851 L206.1318,278.1303 L216.7542,277.2505 L227.3766,279.008 L237.9991,277.3368 L248.6215,277.9473 L259.244,278.8362 L269.8664,278.1054 L280.4889,278.3228 L291.1113,278.1814 L301.7337,278.4785 L312.3562,278.564 L322.9786,279.0532 L333.6011,279.1737 L344.2235,279.1853 L354.846,278.5859 L365.4684,278.8808 L376.0909,279.2177 L386.7133,277.2085 L397.3357,279.1842 L407.9582,277.8079 L418.5806,278.98 L429.2031,277.5277 L439.8255,278.1298 L450.448,279.2733 L461.0704,278.1577 L471.6928,278.3751 L482.3153,278.7045 L492.9377,278.814 L503.5602,278.2265" fill="none" style="stroke:#00BFFF;stroke-width:1.0587;"/><text fill="#000000" font-family="sans-serif" font-size="13.7628" lengthAdjust="spacing" textLength="159.9375" x="133.8563" y="272.0766">A a&#231;&#227;o inv&#225;lida &#233; negada</text></g><polygon fill="#FEFFDD" points="419.8902,291.9893,419.8902,292.2118,430.4147,291.5506,440.9391,292.1939,451.4636,292.4124,461.9881,291.234,472.5126,291.907,483.0371,291.5377,493.5616,291.5833,504.0861,291.9171,514.6106,291.2573,525.1351,292.5754,535.6595,291.322,546.184,291.7799,556.7085,292.4465,567.233,291.8984,577.7575,292.0615,588.282,291.9554,598.8065,291.9893,598.8549,292.0296,600.9887,294.5841,603.2,297.2032,605.3405,299.7633,607.46,302.306,609.3932,304.6934,609.4645,304.7482,607.4056,307.5457,605.355,310.3496,602.8395,312.7959,601.1136,315.8496,598.8065,318.4562,598.8065,318.1423,588.282,319.0213,577.7575,317.9321,567.233,318.3836,556.7085,319.2413,546.184,318.4046,535.6595,318.5676,525.1351,318.8147,514.6106,318.8968,504.0861,318.452,493.5616,318.7602,483.0371,317.8502,472.5126,318.7572,461.9881,319.0365,451.4636,318.9268,440.9391,319.1052,430.4147,317.9447,419.8902,318.4562,419.7077,318.3158,417.599,315.5699,415.639,312.9384,413.4831,310.1562,411.6113,307.5925,409.3034,304.6934,409.256,304.6539,411.3278,302.075,413.6,299.6633,415.4747,296.9203,417.6321,294.4128,419.8902,291.9893" style="stroke:#181818;stroke-width:0.5293;"/><text fill="#000000" font-family="sans-serif" font-size="13.7628" lengthAdjust="spacing" textLength="174.8151" x="422.0075" y="310.9364">Recep&#231;&#227;o e envio de dados</text><g class="message" data-participant-1="OP" data-participant-2="IHM"><polygon fill="#00BFFF" points="491.9147,345.3593,491.9423,345.4282,493.9778,346.0705,496.1748,347.1165,498.3192,348.0311,500.2906,348.5133,502.5015,349.594,502.4913,349.5685,500.3282,350.3012,498.2165,351.1622,496.1405,352.1125,493.9415,352.7552,491.9147,353.8287,492.0529,353.9668,492.6044,352.8245,493.5593,352.0855,494.5633,351.3957,495.2811,350.4195,496.1494,349.594,496.1665,349.611,495.2945,348.7391,494.5001,347.9447,493.6683,347.1128,492.9078,346.3524,491.9147,345.3593" style="stroke:#00BFFF;stroke-width:1.0587;"/><path d="M115.8588,349.594 L115.8588,349.8907 L126.4813,349.0091 L137.1037,349.8668 L147.7262,350.1582 L158.3486,348.587 L168.9711,349.4843 L179.5935,348.992 L190.2159,349.0527 L200.8384,349.4978 L211.4608,348.6181 L222.0833,350.3755 L232.7057,348.7043 L243.3282,349.3148 L253.9506,350.2037 L264.573,349.4729 L275.1955,349.6903 L285.8179,349.5489 L296.4404,349.846 L307.0628,349.9315 L317.6853,350.4207 L328.3077,350.5412 L338.9301,350.5528 L349.5526,349.9534 L360.175,350.2484 L370.7975,350.5852 L381.4199,348.576 L392.0424,350.5518 L402.6648,349.1755 L413.2872,350.3475 L423.9097,348.8952 L434.5321,349.4973 L445.1546,350.6408 L455.777,349.5252 L466.3995,349.7426 L477.0219,350.072 L487.6443,350.1815 L498.2668,349.594" fill="none" style="stroke:#00BFFF;stroke-width:1.0587;"/><text fill="#000000" font-family="sans-serif" font-size="13.7628" lengthAdjust="spacing" textLength="363.3518" x="123.2696" y="343.4441">Envio de um comando com a autoriza&#231;&#227;o para execu&#231;&#227;o</text></g><g class="message" data-participant-1="IHM" data-participant-2="OP"><polygon fill="#00BFFF" points="127.5043,378.9257,127.5318,378.9946,125.3326,379.6369,123.2949,380.6829,121.2046,381.5975,118.9414,382.0797,116.9175,383.1604,116.9073,383.1349,118.979,383.8676,121.102,384.7286,123.2606,385.6789,125.2963,386.3216,127.5043,387.3951,127.6424,387.5333,126.5001,386.3909,125.761,385.6519,125.0712,384.9621,124.0951,383.9859,123.2696,383.1604,123.2866,383.1774,124.1085,382.3055,125.008,381.5111,125.8701,380.6793,126.8035,379.9188,127.5043,378.9257" style="stroke:#00BFFF;stroke-width:1.0587;"/><path d="M121.1522,383.1604 L121.1522,383.4571 L131.7747,382.5756 L142.3971,383.4332 L153.0195,383.7246 L163.642,382.1534 L174.2644,383.0507 L184.8869,382.5584 L195.5093,382.6191 L206.1318,383.0642 L216.7542,382.1845 L227.3766,383.9419 L237.9991,382.2707 L248.6215,382.8812 L259.244,383.7701 L269.8664,383.0393 L280.4889,383.2567 L291.1113,383.1153 L301.7337,383.4124 L312.3562,383.498 L322.9786,383.9871 L333.6011,384.1076 L344.2235,384.1192 L354.846,383.5198 L365.4684,383.8148 L376.0909,384.1517 L386.7133,382.1424 L397.3357,384.1182 L407.9582,382.7419 L418.5806,383.9139 L429.2031,382.4616 L439.8255,383.0637 L450.448,384.2072 L461.0704,383.0916 L471.6928,383.309 L482.3153,383.6384 L492.9377,383.7479 L503.5602,383.1604" fill="none" style="stroke:#00BFFF;stroke-width:1.0587;"/><text fill="#000000" font-family="sans-serif" font-size="13.7628" lengthAdjust="spacing" textLength="191.069" x="133.8563" y="377.0105">A a&#231;&#227;o permitida &#233; executada</text></g><polygon fill="#FEFFDD" points="588.2197,396.9232,588.2197,397.1457,598.6888,396.4846,609.158,397.1278,619.6271,397.3463,630.0962,396.1679,640.5654,396.8409,651.0345,396.4717,661.5036,396.5172,671.9728,396.851,682.4419,396.1913,692.911,397.5093,703.3802,396.2559,713.8493,396.7138,724.3184,397.3805,734.7876,396.8324,745.2567,396.9954,755.7258,396.8894,766.195,397.1122,776.6641,397.1764,787.1332,397.5433,797.6024,397.6336,808.0715,397.6423,818.5406,397.1928,829.0098,397.414,839.4789,397.6666,849.948,396.1597,860.4172,397.6415,870.8863,396.9232,870.8059,396.8562,873.1484,399.5846,874.9868,401.893,877.2198,404.5302,879.5568,407.254,881.4731,409.6273,881.4594,409.6168,879.3852,412.4025,877.3331,415.2053,875.2374,417.9745,873.0026,420.6367,870.8863,423.3901,870.8863,423.6942,860.4172,422.7841,849.948,423.6912,839.4789,423.9705,829.0098,423.8607,818.5406,424.0391,808.0715,422.8787,797.6024,422.6997,787.1332,422.7322,776.6641,423.3278,766.195,423.182,755.7258,424.1115,745.2567,423.2052,734.7876,423.0269,724.3184,423.6318,713.8493,422.6841,703.3802,422.8405,692.911,424.0771,682.4419,423.8513,671.9728,424.1677,661.5036,423.0494,651.0345,423.728,640.5654,424.0152,630.0962,422.89,619.6271,423.2886,609.158,423.5235,598.6888,424.0801,588.2197,423.3901,588.2185,423.3892,586.2317,420.7371,583.8301,417.7658,581.6782,414.9867,579.8912,412.4882,577.6329,409.6273,577.4386,409.4653,579.8883,407.2015,581.9237,404.5923,583.9124,401.9443,586.0065,399.3841,588.2197,396.9232" style="stroke:#181818;stroke-width:0.5293;"/><text fill="#000000" font-family="sans-serif" font-size="13.7628" lengthAdjust="spacing" textLength="278.7105" x="590.3371" y="415.8703">Verifica os n&#237;veis de autoriza&#231;&#227;o do usu&#225;rio</text><g class="message" data-participant-1="IHM" data-participant-2="MCU"><polygon fill="#00BFFF" points="711.9735,450.2932,712.001,450.3621,714.0365,451.0044,716.2335,452.0504,718.3779,452.965,720.3494,453.4472,722.5602,454.5279,722.5501,454.5025,720.387,455.2351,718.2753,456.0962,716.1993,457.0464,714.0002,457.6892,711.9735,458.7626,712.1116,458.9008,712.6631,457.7584,713.618,457.0194,714.6221,456.3296,715.3398,455.3535,716.2082,454.5279,716.2252,454.545,715.3533,453.673,714.5589,452.8786,713.727,452.0468,712.9666,451.2863,711.9735,450.2932" style="stroke:#00BFFF;stroke-width:1.0587;"/><path d="M515.2056,454.5279 L515.2056,454.8246 L525.8961,453.9431 L536.5867,454.8008 L547.2772,455.0921 L557.9677,453.5209 L568.6582,454.4182 L579.3487,453.9259 L590.0393,453.9866 L600.7298,454.4317 L611.4203,453.552 L622.1108,455.3094 L632.8014,453.6382 L643.4919,454.2488 L654.1824,455.1377 L664.8729,454.4069 L675.5635,454.6243 L686.254,454.4828 L696.9445,454.7799 L707.635,454.8655 L718.3255,454.5279" fill="none" style="stroke:#00BFFF;stroke-width:1.0587;"/><text fill="#000000" font-family="sans-serif" font-size="13.7628" lengthAdjust="spacing" textLength="119.874" x="522.6163" y="448.3781">Envio da demanda</text></g><g class="message" data-participant-1="MCU" data-participant-2="IHM"><polygon fill="#00BFFF" points="526.851,483.8596,526.8786,483.9285,524.6794,484.5708,522.6417,485.6169,520.5514,486.5314,518.2881,487.0137,516.2643,488.0943,516.2541,488.0689,518.3257,488.8015,520.4487,489.6626,522.6074,490.6128,524.6431,491.2556,526.851,492.329,526.9892,492.4672,525.8468,491.3248,525.1078,490.5858,524.418,489.896,523.4419,488.9199,522.6163,488.0943,522.6334,488.1114,523.4553,487.2394,524.3548,486.445,525.2168,485.6132,526.1503,484.8527,526.851,483.8596" style="stroke:#00BFFF;stroke-width:1.0587;"/><path d="M520.499,488.0943 L520.499,488.391 L531.1895,487.5095 L541.88,488.3672 L552.5706,488.6585 L563.2611,487.0873 L573.9516,487.9846 L584.6421,487.4923 L595.3327,487.553 L606.0232,487.9981 L616.7137,487.1184 L627.4042,488.8758 L638.0947,487.2047 L648.7853,487.8152 L659.4758,488.7041 L670.1663,487.9733 L680.8568,488.1907 L691.5474,488.0492 L702.2379,488.3463 L712.9284,488.4319 L723.6189,488.0943" fill="none" style="stroke:#00BFFF;stroke-width:1.0587;"/><text fill="#000000" font-family="sans-serif" font-size="13.7628" lengthAdjust="spacing" textLength="150.6477" x="533.2031" y="481.9445">Se autorizado, permite.</text></g><g class="message" data-participant-1="MCU" data-participant-2="IHM"><polygon fill="#00BFFF" points="526.851,517.426,526.8786,517.4949,524.6794,518.1372,522.6417,519.1833,520.5514,520.0978,518.2881,520.5801,516.2643,521.6608,516.2541,521.6353,518.3257,522.368,520.4487,523.229,522.6074,524.1792,524.6431,524.822,526.851,525.8955,526.9892,526.0336,525.8468,524.8912,525.1078,524.1522,524.418,523.4624,523.4419,522.4863,522.6163,521.6608,522.6334,521.6778,523.4553,520.8058,524.3548,520.0114,525.2168,519.1796,526.1503,518.4191,526.851,517.426" style="stroke:#00BFFF;stroke-width:1.0587;"/><path d="M520.499,521.6608 L520.499,521.9574 L531.1895,521.0759 L541.88,521.9336 L552.5706,522.2249 L563.2611,520.6537 L573.9516,521.5511 L584.6421,521.0587 L595.3327,521.1194 L606.0232,521.5645 L616.7137,520.6848 L627.4042,522.4423 L638.0947,520.7711 L648.7853,521.3816 L659.4758,522.2705 L670.1663,521.5397 L680.8568,521.7571 L691.5474,521.6157 L702.2379,521.9128 L712.9284,521.9983 L723.6189,521.6608" fill="none" style="stroke:#00BFFF;stroke-width:1.0587;"/><text fill="#000000" font-family="sans-serif" font-size="13.7628" lengthAdjust="spacing" textLength="184.0638" x="533.2031" y="515.5109">Se n&#227;o autorizado, bloqueia.</text></g><g class="message" data-participant-1="SP" data-participant-2="IHM"><polygon fill="#00BFFF" points="491.9147,550.9925,491.9423,551.0613,493.9778,551.7036,496.1748,552.7497,498.3192,553.6642,500.2906,554.1465,502.5015,555.2272,502.4913,555.2017,500.3282,555.9344,498.2165,556.7954,496.1405,557.7457,493.9415,558.3884,491.9147,559.4619,492.0529,559.6,492.6044,558.4577,493.5593,557.7186,494.5633,557.0288,495.2811,556.0527,496.1494,555.2272,496.1665,555.2442,495.2945,554.3723,494.5001,553.5778,493.6683,552.746,492.9078,551.9856,491.9147,550.9925" style="stroke:#00BFFF;stroke-width:1.0587;"/><path d="M219.0864,555.2272 L219.0864,555.5239 L229.8242,554.6423 L240.5619,555.5 L251.2996,555.7913 L262.0373,554.2202 L272.775,555.1175 L283.5127,554.6251 L294.2504,554.6858 L304.9881,555.131 L315.7258,554.2513 L326.4635,556.0087 L337.2012,554.3375 L347.9389,554.948 L358.6766,555.8369 L369.4143,555.1061 L380.152,555.3235 L390.8897,555.1821 L401.6274,555.4792 L412.3651,555.5647 L423.1028,556.0539 L433.8406,556.1744 L444.5783,556.186 L455.316,555.5866 L466.0537,555.8815 L476.7914,556.2184 L487.5291,554.2092 L498.2668,555.2272" fill="none" style="stroke:#00BFFF;stroke-width:1.0587;"/><text fill="#000000" font-family="sans-serif" font-size="13.7628" lengthAdjust="spacing" textLength="206.4146" x="226.4972" y="549.0773">Envio de um comando qualquer</text></g><g class="message" data-participant-1="IHM" data-participant-2="SP"><polygon fill="#00BFFF" points="230.7319,584.5589,230.7594,584.6277,228.5602,585.2701,226.5225,586.3161,224.4322,587.2307,222.169,587.7129,220.1451,588.7936,220.1349,588.7681,222.2066,589.5008,224.3296,590.3618,226.4882,591.3121,228.5239,591.9548,230.7319,593.0283,230.87,593.1664,229.7277,592.0241,228.9887,591.2851,228.2988,590.5952,227.3227,589.6191,226.4972,588.7936,226.5142,588.8106,227.3362,587.9387,228.2356,587.1442,229.0977,586.3124,230.0311,585.552,230.7319,584.5589" style="stroke:#00BFFF;stroke-width:1.0587;"/><path d="M224.3798,588.7936 L224.3798,589.0903 L234.9159,588.2087 L245.452,589.0664 L255.988,589.3578 L266.5241,587.7866 L277.0601,588.6839 L287.5962,588.1916 L298.1323,588.2522 L308.6683,588.6974 L319.2044,587.8177 L329.7405,589.5751 L340.2765,587.9039 L350.8126,588.5144 L361.3487,589.4033 L371.8847,588.6725 L382.4208,588.8899 L392.9568,588.7485 L403.4929,589.0456 L414.029,589.1311 L424.565,589.6203 L435.1011,589.7408 L445.6372,589.7524 L456.1732,589.153 L466.7093,589.448 L477.2454,589.7848 L487.7814,587.7756 L498.3175,589.7513 L508.8536,588.7936" fill="none" style="stroke:#00BFFF;stroke-width:1.0587;"/><text fill="#000000" font-family="sans-serif" font-size="13.7628" lengthAdjust="spacing" textLength="124.457" x="237.0839" y="582.6437">A a&#231;&#227;o &#233; executada</text></g><text fill="#1E90FF" font-family="Arial" font-size="14.8215" lengthAdjust="spacing" textLength="3.8536" x="31.7603" y="645.926">&#160;</text><text fill="#1E90FF" font-family="Arial" font-size="14.8215" lengthAdjust="spacing" textLength="3.8536" x="31.7603" y="666.1128">&#160;</text><text fill="#1E90FF" font-family="Arial" font-size="14.8215" font-weight="bold" lengthAdjust="spacing" textLength="164.3843" x="31.7603" y="686.2995">Casos de Uso cobertos</text><text fill="#1E90FF" font-family="Arial" font-size="14.8215" lengthAdjust="spacing" textLength="3.9721" x="196.1446" y="686.2995">:</text><text fill="#1E90FF" font-family="Arial" font-size="14.8215" lengthAdjust="spacing" textLength="4.7725" x="31.7603" y="706.4863">-</text><text fill="#1E90FF" font-family="Arial" font-size="14.8215" font-weight="bold" lengthAdjust="spacing" textLength="61.746" x="40.3863" y="706.4863">MIO-003</text><text fill="#1E90FF" font-family="Arial" font-size="14.8215" lengthAdjust="spacing" textLength="177.1011" x="105.9859" y="706.4863">Autentica&#231;&#227;o de Usu&#225;rios</text><polygon fill="none" points="29.1136,26.4669,29.1136,26.6894,39.7571,26.0283,50.4005,26.6715,61.044,26.89,71.6875,25.7117,82.3309,26.3846,92.9744,26.0154,103.6179,26.0609,114.2614,26.3948,124.9048,25.735,135.5483,27.053,146.1918,25.7996,156.8352,26.2575,167.4787,26.9242,178.1222,26.3761,188.7656,26.5392,199.4091,26.4331,210.0526,26.6559,220.6961,26.7201,231.3395,27.087,241.983,27.1773,252.6265,27.186,263.2699,26.7365,273.9134,26.9577,284.5569,27.2103,295.2003,25.7034,305.8438,27.1852,316.4873,26.153,327.1308,27.032,337.7742,25.9428,348.4177,26.3944,359.0612,27.252,369.7046,26.4153,380.3481,26.5784,390.9916,26.8254,401.635,26.9076,412.2785,26.4628,422.922,26.771,433.5654,25.8609,444.2089,26.768,454.8524,27.0473,465.4959,26.9375,476.1393,27.1159,486.7828,25.9555,497.4263,25.7765,508.0697,25.809,518.7132,26.4046,529.3567,26.2589,540.0001,27.1883,550.6436,26.282,561.2871,26.1037,571.9306,26.7086,582.574,25.7609,593.2175,25.9173,603.861,27.1539,614.5044,26.9281,625.1479,27.2445,635.7914,26.1262,646.4348,26.8048,657.0783,27.092,667.7218,25.9668,678.3652,26.3654,689.0087,26.6003,699.6522,27.1569,710.2957,26.4625,720.9391,26.9566,731.5826,25.8806,742.2261,25.7499,752.8695,27.0001,763.513,25.7079,774.1565,27.0057,784.7999,26.6857,795.4434,26.1833,806.0869,26.0924,816.7304,26.9526,827.3738,26.15,838.0173,27.0935,848.6608,25.8817,859.3042,27.1206,869.9477,26.9796,880.5912,26.7263,891.2346,26.5169,901.8781,27.2362,912.5216,27.1165,923.1651,26.4669,923.1879,26.5221,924.3242,27.0195,925.3932,27.3547,926.6305,28.0959,927.6775,28.3779,928.7795,28.7925,928.8358,28.8158,929.0463,29.8332,929.5777,30.9836,930.3479,32.2329,930.7801,33.3421,931.1051,34.407,931.0597,34.407,930.764,45.468,930.8733,56.5291,930.3787,67.5901,931.5442,78.6512,931.1051,89.7122,931.3462,89.8121,930.8116,90.9062,930.4015,92.0519,929.6652,93.0624,929.2731,94.2156,928.7795,95.3267,928.7272,95.2003,927.695,95.8844,926.5671,96.3374,925.4854,96.9021,924.2569,97.1123,923.1651,97.6523,923.1651,97.51,912.5216,98.1218,901.8781,98.2529,891.2346,97.1097,880.5912,97.447,869.9477,97.8103,859.3042,97.0056,848.6608,98.0264,838.0173,97.9254,827.3738,97.5456,816.7304,97.8029,806.0869,98.4237,795.4434,97.3211,784.7999,97.9858,774.1565,97.9547,763.513,97.7748,752.8695,97.8015,742.2261,97.7724,731.5826,96.9915,720.9391,97.2279,710.2957,97.1637,699.6522,97.7199,689.0087,97.7456,678.3652,97.8235,667.7218,97.3442,657.0783,97.5808,646.4348,97.525,635.7914,98.263,625.1479,98.1039,614.5044,97.1383,603.861,97.5751,593.2175,97.0412,582.574,97.9576,571.9306,98.2965,561.2871,98.2288,550.6436,97.1912,540.0001,98.1435,529.3567,96.8659,518.7132,97.8642,508.0697,97.3354,497.4263,97.7547,486.7828,97.9067,476.1393,98.1521,465.4959,96.8901,454.8524,98.1557,444.2089,97.8409,433.5654,98.0285,422.922,98.444,412.2785,97.6581,401.635,97.8378,390.9916,97.8782,380.3481,97.8611,369.7046,97.6514,359.0612,98.4047,348.4177,97.0068,337.7742,98.2507,327.1308,96.9917,316.4873,97.0803,305.8438,97.6946,295.2003,97.6822,284.5569,97.1305,273.9134,98.0903,263.2699,97.7675,252.6265,98.4216,241.983,98.3585,231.3395,97.1777,220.6961,97.231,210.0526,97.5155,199.4091,98.0287,188.7656,98.0789,178.1222,97.9711,167.4787,97.2903,156.8352,98.326,146.1918,98.3233,135.5483,97.6022,124.9048,97.3992,114.2614,97.2273,103.6179,97.4251,92.9744,97.7978,82.3309,97.5799,71.6875,97.21,61.044,98.1683,50.4005,97.1664,39.7571,98.1841,29.1136,97.6523,29.1713,97.7916,28.0409,97.3084,26.9613,96.9478,25.7117,96.1768,24.5814,95.6938,23.4991,95.3267,23.6683,95.3968,22.8394,94.1232,22.4926,93.0493,22.1414,91.9736,21.661,90.8444,21.1735,89.7122,20.794,89.7122,21.128,78.6512,21.9618,67.5901,21.8601,56.5291,20.5423,45.468,21.1735,34.407,21.1991,34.4176,21.4711,33.2147,22.0952,32.1576,22.6644,31.0779,23.1709,29.9721,23.4991,28.7925,23.4094,28.5758,24.6761,28.458,25.746,27.865,26.7928,27.2161,27.9271,26.7785,29.1136,26.4669" style="stroke:#000000;stroke-width:1.0587;"/><text fill="#1E90FF" font-family="Arial" font-size="21.1735" font-weight="bold" lengthAdjust="spacing" textLength="867.5845" x="42.3471" y="70.2749">Diagrama de sequ&#234;ncia - M&#243;dulo de Interface e Opera&#231;&#227;o (MIO) - IHM Operacional</text><!--SRC=[dLJDRjim3BxpARXSqXfDMcot01jGjDcMGvQWGNjdRAOLO4kk91lTtYRROUY0deOzWLzib9pVTkY0w69Rvi_7xoFvHkaqhpB6o-77MR-iYXo0KcyiTYObMygCxI0vd4pNrxDAxclbLZzcKvYRIcTals9dz7dSWPAiLwagINliZ2-kEm2dNPYWKyvpGPBfPeYfqTwQd2mQf9ITCrXATDqyrQmS2g3ALStIAjF76Tjc2UBXL1OX8NdMcPAN-ugqFFX1OYlBnGbgWqNpf5LXJZ0p4ahGBfGRxDG3HrIo5ko2bD24w-PdyyFWl5awbT8nydwPHz5G02pKRRKspZXKsdmlM0fnucBPiG_85vJVaJlkG_SKeFl-e0DT_ESPQQ7M71nLD5Iri8UYrFP3H8B957iVmlK0XxfM9afGID55PDXnWOHKIGkeRoi68Ylym6aLlq6SGup9T83dkB9HkcwMkSe8cqVKV4iPmPqsajJKRDjyLvnosPepyZfv9bev-1ykUHw4IyGjb5_XYhR-6JGXPO0tRDL2MW95uPtUtCydCDRD2kjaqNi5cCGbe2MGsqqrissOJ7gr1SJzvpOwPDWrdEVclc95qbwzrmxCNcTEHYUNG7QDUBPBpnuf6U-rJPZclTOPVzfKVCKbEIVY2L-jWBlb31_KNErfiXrAuLevWRHcTJThIF92cgarOMzGmTe7aftqsiBO8hZ_OGSlscnOeDYQAE1R9rqZ_wEuRSdEQ6Ffj8ueqAJ6Mb78MwgRnr1ChFtmYORk5-F93GvrXvnlPUcXDoKaoQMYMqj5w2mPpVkg-QLJHTZ3SVCxg_AezKXxMNsoN6Mg9jibTpGUJOx5CYWGhsMVQCgJ14BuDWl0mWXv5a1oNP1hIRjsOTxcRBrnIJ802P8a4grtTlOkIV2yagtiDtn6XtOgN0oz2VaN]--></g></svg>