<svg xmlns="http://www.w3.org/2000/svg" xmlns:xlink="http://www.w3.org/1999/xlink" contentStyleType="text/css" data-diagram-type="SEQUENCE" height="750.7601px" preserveAspectRatio="none" style="width:830px;height:750px;background:#EEEBDC;" version="1.1" viewBox="0 0 830 750" width="830.4139px" zoomAndPan="magnify"><defs/><g><rect fill="#EEEBDC" height="750.7601" style="stroke:none;stroke-width:0.9156;" width="830.4139" x="0" y="0"/><g><title>IHM</title><polygon fill="#A9DCDF" points="326.3396,189.8818,326.3396,189.9459,328.1707,189.7554,330.0018,189.9408,331.833,190.0038,333.6641,189.6641,335.4952,189.8818,335.4241,189.8818,335.1047,198.9172,335.1441,207.9525,335.4328,216.9879,334.8622,226.0233,336.0021,235.0587,334.9181,244.094,335.3141,253.1294,335.8907,262.1648,335.4167,271.2002,335.5577,280.2355,335.466,289.2709,335.6587,298.3063,335.7141,307.3416,336.0314,316.377,336.1096,325.4124,336.1171,334.4478,335.7283,343.4831,335.9196,352.5185,336.1381,361.5539,334.8349,370.5892,336.1164,379.6246,335.2237,388.66,335.9839,397.6954,335.042,406.7307,335.4325,415.7661,336.1742,424.8015,335.4506,433.8369,335.5916,442.8722,335.8052,451.9076,335.4952,460.943,335.4952,461.07,333.6641,460.9418,331.833,461.0306,330.0018,460.7683,328.1707,461.0298,326.3396,460.943,326.8415,460.943,326.7466,451.9076,326.9009,442.8722,325.8973,433.8369,325.7425,424.8015,325.7707,415.7661,326.2857,406.7307,326.1597,397.6954,326.9635,388.66,326.1797,379.6246,326.0255,370.5892,326.5486,361.5539,325.7291,352.5185,325.8643,343.4831,326.9337,334.4478,326.7385,325.4124,327.0121,316.377,326.045,307.3416,326.6318,298.3063,326.8802,289.2709,325.9071,280.2355,326.2518,271.2002,326.4549,262.1648,326.9363,253.1294,326.3358,244.094,326.7631,235.0587,325.8326,226.0233,325.7195,216.9879,326.8007,207.9525,325.6832,198.9172,326.3396,189.8818" style="stroke:#A9DCDF;stroke-width:0.9156;"/><path d="M326.3396,189.8818 L326.5962,189.8818 L325.8338,198.9172 L326.5755,207.9525 L326.8275,216.9879 L325.4687,226.0233 L326.2447,235.0587 L325.819,244.094 L325.8714,253.1294 L326.2564,262.1648 L325.4956,271.2002 L327.0154,280.2355 L325.5702,289.2709 L326.0982,298.3063 L326.8669,307.3416 L326.2349,316.377 L326.4229,325.4124 L326.3006,334.4478 L326.5575,343.4831 L326.6315,352.5185 L327.0546,361.5539 L327.1588,370.5892 L327.1688,379.6246 L326.6504,388.66 L326.9055,397.6954 L327.1968,406.7307 L325.4592,415.7661 L327.1679,424.8015 L325.9776,433.8369 L326.9912,442.8722 L325.7353,451.9076 L326.3396,460.943" fill="none" style="stroke:#181818;stroke-width:0.9156;"/><path d="M335.4952,189.8818 L335.7518,189.8818 L334.9894,198.9172 L335.7312,207.9525 L335.9831,216.9879 L334.6243,226.0233 L335.4003,235.0587 L334.9746,244.094 L335.027,253.1294 L335.412,262.1648 L334.6512,271.2002 L336.1711,280.2355 L334.7258,289.2709 L335.2538,298.3063 L336.0225,307.3416 L335.3905,316.377 L335.5785,325.4124 L335.4562,334.4478 L335.7131,343.4831 L335.7871,352.5185 L336.2102,361.5539 L336.3144,370.5892 L336.3244,379.6246 L335.806,388.66 L336.0611,397.6954 L336.3525,406.7307 L334.6148,415.7661 L336.3235,424.8015 L335.1332,433.8369 L336.1469,442.8722 L334.8909,451.9076 L335.4952,460.943" fill="none" style="stroke:#181818;stroke-width:0.9156;"/><path d="M326.3396,189.8818 L326.3396,189.9673 L328.1707,189.7132 L330.0018,189.9605 L331.833,190.0444 L333.6641,189.5915 L335.4952,189.8818" fill="none" style="stroke:#181818;stroke-width:0.9156;"/></g><g><title>IHM</title><polygon fill="#A9DCDF" points="326.3396,500.2955,326.3396,500.3597,328.1707,500.1691,330.0018,500.3545,331.833,500.4175,333.6641,500.0778,335.4952,500.2955,335.4241,500.2955,335.1047,509.3614,335.1441,518.4273,335.4328,527.4932,334.8622,536.5591,336.0021,545.625,334.9181,554.6909,335.3141,563.7568,335.8907,572.8226,335.4167,581.8885,335.5577,590.9544,335.466,600.0203,335.6587,609.0862,335.7141,618.1521,336.0314,627.218,335.4952,636.2839,335.4952,636.4887,333.6641,636.4912,331.833,636.3616,330.0018,636.4254,328.1707,636.4982,326.3396,636.2839,325.6793,636.2839,326.9608,627.218,326.0681,618.1521,326.8283,609.0862,325.8864,600.0203,326.2769,590.9544,327.0186,581.8885,326.295,572.8226,326.436,563.7568,326.6496,554.6909,326.7207,545.625,326.336,536.5591,326.6026,527.4932,325.8155,518.4273,326.6,509.3614,326.3396,500.2955" style="stroke:#A9DCDF;stroke-width:0.9156;"/><path d="M326.3396,500.2955 L326.5962,500.2955 L325.8338,509.3614 L326.5755,518.4273 L326.8275,527.4932 L325.4687,536.5591 L326.2447,545.625 L325.819,554.6909 L325.8714,563.7568 L326.2564,572.8226 L325.4956,581.8885 L327.0154,590.9544 L325.5702,600.0203 L326.0982,609.0862 L326.8669,618.1521 L326.2349,627.218 L326.3396,636.2839" fill="none" style="stroke:#181818;stroke-width:0.9156;"/><path d="M335.4952,500.2955 L335.7518,500.2955 L334.9894,509.3614 L335.7312,518.4273 L335.9831,527.4932 L334.6243,536.5591 L335.4003,545.625 L334.9746,554.6909 L335.027,563.7568 L335.412,572.8226 L334.6512,581.8885 L336.1711,590.9544 L334.7258,600.0203 L335.2538,609.0862 L336.0225,618.1521 L335.3905,627.218 L335.4952,636.2839" fill="none" style="stroke:#181818;stroke-width:0.9156;"/><path d="M326.3396,636.2839 L326.3396,636.3694 L328.1707,636.1153 L330.0018,636.3625 L331.833,636.4465 L333.6641,635.9936 L335.4952,636.2839" fill="none" style="stroke:#181818;stroke-width:0.9156;"/></g><g><title>IHM</title><polygon fill="#A9DCDF" points="330.9174,424.5897,330.9174,424.6538,332.7485,424.4632,334.5796,424.6487,336.4108,424.7117,338.2419,424.372,340.073,424.5897,340.0493,424.5897,339.9428,430.3954,339.956,436.2012,340.0522,442.007,339.862,447.8127,340.073,453.6185,340.073,453.7874,338.2419,453.4261,336.4108,453.5581,334.5796,453.7503,332.7485,453.5923,330.9174,453.6185,330.9382,453.6185,330.9076,447.8127,330.9719,442.007,330.9904,436.2012,331.0961,430.3954,330.9174,424.5897" style="stroke:#181818;stroke-width:0.9156;"/></g><g><title>Sistema</title><polygon fill="#A9DCDF" points="553.7734,189.8818,553.7734,189.9459,555.6045,189.7554,557.4356,189.9408,559.2668,190.0038,561.0979,189.6641,562.929,189.8818,562.8579,189.8818,562.5385,198.9172,562.5779,207.9525,562.8666,216.9879,562.296,226.0233,563.4359,235.0587,562.3519,244.094,562.7479,253.1294,563.3245,262.1648,562.8505,271.2002,562.9915,280.2355,562.8998,289.2709,563.0925,298.3063,563.148,307.3416,563.4652,316.377,563.5434,325.4124,563.5509,334.4478,563.1621,343.4831,563.3535,352.5185,563.5719,361.5539,562.2687,370.5892,563.5502,379.6246,562.6575,388.66,563.4177,397.6954,562.4758,406.7307,562.8663,415.7661,563.608,424.8015,562.8844,433.8369,563.0254,442.8722,563.239,451.9076,562.929,460.943,562.929,461.07,561.0979,460.9418,559.2668,461.0306,557.4356,460.7683,555.6045,461.0298,553.7734,460.943,554.2753,460.943,554.1804,451.9076,554.3347,442.8722,553.3311,433.8369,553.1763,424.8015,553.2045,415.7661,553.7195,406.7307,553.5935,397.6954,554.3973,388.66,553.6135,379.6246,553.4593,370.5892,553.9824,361.5539,553.1629,352.5185,553.2981,343.4831,554.3676,334.4478,554.1723,325.4124,554.4459,316.377,553.4788,307.3416,554.0656,298.3063,554.314,289.2709,553.3409,280.2355,553.6856,271.2002,553.8887,262.1648,554.3701,253.1294,553.7696,244.094,554.1969,235.0587,553.2664,226.0233,553.1533,216.9879,554.2345,207.9525,553.117,198.9172,553.7734,189.8818" style="stroke:#A9DCDF;stroke-width:0.9156;"/><path d="M553.7734,189.8818 L554.03,189.8818 L553.2676,198.9172 L554.0094,207.9525 L554.2613,216.9879 L552.9025,226.0233 L553.6785,235.0587 L553.2528,244.094 L553.3052,253.1294 L553.6902,262.1648 L552.9294,271.2002 L554.4493,280.2355 L553.004,289.2709 L553.532,298.3063 L554.3007,307.3416 L553.6687,316.377 L553.8567,325.4124 L553.7344,334.4478 L553.9913,343.4831 L554.0653,352.5185 L554.4884,361.5539 L554.5926,370.5892 L554.6026,379.6246 L554.0842,388.66 L554.3393,397.6954 L554.6306,406.7307 L552.893,415.7661 L554.6017,424.8015 L553.4114,433.8369 L554.425,442.8722 L553.1691,451.9076 L553.7734,460.943" fill="none" style="stroke:#181818;stroke-width:0.9156;"/><path d="M562.929,189.8818 L563.1856,189.8818 L562.4232,198.9172 L563.165,207.9525 L563.4169,216.9879 L562.0581,226.0233 L562.8341,235.0587 L562.4084,244.094 L562.4609,253.1294 L562.8458,262.1648 L562.085,271.2002 L563.6049,280.2355 L562.1596,289.2709 L562.6876,298.3063 L563.4563,307.3416 L562.8243,316.377 L563.0123,325.4124 L562.89,334.4478 L563.1469,343.4831 L563.2209,352.5185 L563.644,361.5539 L563.7482,370.5892 L563.7582,379.6246 L563.2398,388.66 L563.4949,397.6954 L563.7863,406.7307 L562.0486,415.7661 L563.7573,424.8015 L562.5671,433.8369 L563.5807,442.8722 L562.3247,451.9076 L562.929,460.943" fill="none" style="stroke:#181818;stroke-width:0.9156;"/><path d="M553.7734,189.8818 L553.7734,189.9673 L555.6045,189.7132 L557.4356,189.9605 L559.2668,190.0444 L561.0979,189.5915 L562.929,189.8818" fill="none" style="stroke:#181818;stroke-width:0.9156;"/></g><g><title>Sistema</title><polygon fill="#A9DCDF" points="553.7734,500.2955,553.7734,500.3597,555.6045,500.1691,557.4356,500.3545,559.2668,500.4175,561.0979,500.0778,562.929,500.2955,562.8579,500.2955,562.5385,509.3614,562.5779,518.4273,562.8666,527.4932,562.296,536.5591,563.4359,545.625,562.3519,554.6909,562.7479,563.7568,563.3245,572.8226,562.8505,581.8885,562.9915,590.9544,562.8998,600.0203,563.0925,609.0862,563.148,618.1521,563.4652,627.218,562.929,636.2839,562.929,636.4887,561.0979,636.4912,559.2668,636.3616,557.4356,636.4254,555.6045,636.4982,553.7734,636.2839,553.1131,636.2839,554.3946,627.218,553.5019,618.1521,554.2621,609.0862,553.3202,600.0203,553.7107,590.9544,554.4524,581.8885,553.7288,572.8226,553.8698,563.7568,554.0834,554.6909,554.1545,545.625,553.7698,536.5591,554.0364,527.4932,553.2493,518.4273,554.0338,509.3614,553.7734,500.2955" style="stroke:#A9DCDF;stroke-width:0.9156;"/><path d="M553.7734,500.2955 L554.03,500.2955 L553.2676,509.3614 L554.0094,518.4273 L554.2613,527.4932 L552.9025,536.5591 L553.6785,545.625 L553.2528,554.6909 L553.3052,563.7568 L553.6902,572.8226 L552.9294,581.8885 L554.4493,590.9544 L553.004,600.0203 L553.532,609.0862 L554.3007,618.1521 L553.6687,627.218 L553.7734,636.2839" fill="none" style="stroke:#181818;stroke-width:0.9156;"/><path d="M562.929,500.2955 L563.1856,500.2955 L562.4232,509.3614 L563.165,518.4273 L563.4169,527.4932 L562.0581,536.5591 L562.8341,545.625 L562.4084,554.6909 L562.4609,563.7568 L562.8458,572.8226 L562.085,581.8885 L563.6049,590.9544 L562.1596,600.0203 L562.6876,609.0862 L563.4563,618.1521 L562.8243,627.218 L562.929,636.2839" fill="none" style="stroke:#181818;stroke-width:0.9156;"/><path d="M553.7734,636.2839 L553.7734,636.3694 L555.6045,636.1153 L557.4356,636.3625 L559.2668,636.4465 L561.0979,635.9936 L562.929,636.2839" fill="none" style="stroke:#181818;stroke-width:0.9156;"/></g><g><title>Operador</title><polygon fill="#000000" fill-opacity="0.00000" points="117.7417,180.7262,117.7417,180.7903,119.2066,180.5997,120.6715,180.7852,122.1364,180.8482,123.6013,180.5085,125.0662,180.7262,124.995,180.7262,124.6757,189.7654,124.7151,198.8047,125.0038,207.8439,124.4332,216.8832,125.5731,225.9224,124.4891,234.9617,124.8851,244.0009,125.4616,253.0402,124.9876,262.0795,125.1286,271.1187,125.0369,280.158,125.2296,289.1972,125.2851,298.2365,125.6024,307.2757,125.6806,316.315,125.6881,325.3542,125.2993,334.3935,125.4906,343.4327,125.7091,352.472,124.4059,361.5112,125.6874,370.5505,124.7947,379.5897,125.5549,388.629,124.6129,397.6682,125.0035,406.7075,125.7452,415.7467,125.0215,424.786,125.1626,433.8252,125.3762,442.8645,125.4473,451.9037,125.0662,460.943,125.0662,460.9418,123.6013,461.0306,122.1364,460.7683,120.6715,461.0298,119.2066,461.1103,117.7417,460.943,118.1487,460.943,118.3029,451.9037,117.2994,442.8645,117.1446,433.8252,117.1727,424.786,117.6878,415.7467,117.5617,406.7075,118.3656,397.6682,117.5818,388.629,117.4276,379.5897,117.9507,370.5505,117.1311,361.5112,117.2664,352.472,118.3358,343.4327,118.1406,334.3935,118.4141,325.3542,117.4471,316.315,118.0339,307.2757,118.2822,298.2365,117.3092,289.1972,117.6539,280.158,117.857,271.1187,118.3384,262.0795,117.7378,253.0402,118.1652,244.0009,117.2347,234.9617,117.1216,225.9224,118.2028,216.8832,117.0853,207.8439,118.2077,198.8047,117.9309,189.7654,117.7417,180.7262"/><path d="M120.6537,180.7262 L120.9103,180.7262 L120.1479,189.7654 L120.8897,198.8047 L121.1416,207.8439 L119.7828,216.8832 L120.5588,225.9224 L120.1331,234.9617 L120.1856,244.0009 L120.5705,253.0402 L119.8097,262.0795 L121.3296,271.1187 L119.8843,280.158 L120.4123,289.1972 L121.181,298.2365 L120.549,307.2757 L120.737,316.315 L120.6147,325.3542 L120.8717,334.3935 L120.9456,343.4327 L121.3687,352.472 L121.4729,361.5112 L121.4829,370.5505 L120.9646,379.5897 L121.2196,388.629 L121.511,397.6682 L119.7733,406.7075 L121.482,415.7467 L120.2918,424.786 L121.3054,433.8252 L120.0494,442.8645 L120.5701,451.9037 L120.6537,460.943" fill="none" style="stroke:#0000FF;stroke-width:0.4578;stroke-dasharray:4.5778,4.5778;"/></g><path d="M120.6537,460.943 L120.7392,460.943 L120.4851,468.8135 L120.7324,476.684 L120.8164,484.5545 L120.3634,492.425 L120.6537,500.2955" fill="none" style="stroke:#0000FF;stroke-width:0.4578;stroke-dasharray:0.9156,3.6622;"/><g><title>Operador</title><polygon fill="#000000" fill-opacity="0.00000" points="117.7417,500.2955,117.7417,500.3597,119.2066,500.1691,120.6715,500.3545,122.1364,500.4175,123.6013,500.0778,125.0662,500.2955,124.995,500.2955,124.6757,509.3098,124.7151,518.3241,125.0038,527.3383,124.4332,536.3526,125.5731,545.3669,124.4891,554.3812,124.8851,563.3954,125.4616,572.4097,124.9876,581.424,125.1286,590.4383,125.0369,599.4525,125.2296,608.4668,125.2851,617.4811,125.6024,626.4954,125.6806,635.5097,125.0662,644.5239,125.0662,644.7312,123.6013,644.6016,122.1364,644.6654,120.6715,644.7382,119.2066,644.3038,117.7417,644.5239,118.3629,644.5239,117.4702,635.5097,118.2304,626.4954,117.2885,617.4811,117.679,608.4668,118.4207,599.4525,117.6971,590.4383,117.8381,581.424,118.0517,572.4097,118.1228,563.3954,117.7381,554.3812,118.0046,545.3669,117.2176,536.3526,118.0021,527.3383,118.2436,518.3241,118.1487,509.3098,117.7417,500.2955"/><path d="M120.6537,500.2955 L120.9103,500.2955 L120.1479,509.3098 L120.8897,518.3241 L121.1416,527.3383 L119.7828,536.3526 L120.5588,545.3669 L120.1331,554.3812 L120.1856,563.3954 L120.5705,572.4097 L119.8097,581.424 L121.3296,590.4383 L119.8843,599.4525 L120.4123,608.4668 L121.181,617.4811 L120.549,626.4954 L120.737,635.5097 L120.6537,644.5239" fill="none" style="stroke:#0000FF;stroke-width:0.4578;stroke-dasharray:4.5778,4.5778;"/></g><g><title>IHM</title><polygon fill="#000000" fill-opacity="0.00000" points="327.2552,180.7262,327.2552,180.7903,328.7201,180.5997,330.1849,180.7852,331.6498,180.8482,333.1147,180.5085,334.5796,180.7262,334.5085,180.7262,334.1892,189.7654,334.2285,198.8047,334.5172,207.8439,333.9467,216.8832,335.0865,225.9224,334.0026,234.9617,334.3986,244.0009,334.9751,253.0402,334.5011,262.0795,334.6421,271.1187,334.5504,280.158,334.7431,289.1972,334.7986,298.2365,335.1159,307.2757,335.194,316.315,335.2015,325.3542,334.8128,334.3935,335.0041,343.4327,335.2226,352.472,333.9194,361.5112,335.2009,370.5505,334.3082,379.5897,335.0684,388.629,334.1264,397.6682,334.5169,406.7075,335.2586,415.7467,334.535,424.786,334.6761,433.8252,334.8897,442.8645,334.9607,451.9037,334.5796,460.943,334.5796,460.9418,333.1147,461.0306,331.6498,460.7683,330.1849,461.0298,328.7201,461.1103,327.2552,460.943,327.6622,460.943,327.8164,451.9037,326.8129,442.8645,326.658,433.8252,326.6862,424.786,327.2012,415.7467,327.0752,406.7075,327.879,397.6682,327.0952,388.629,326.9411,379.5897,327.4641,370.5505,326.6446,361.5112,326.7799,352.472,327.8493,343.4327,327.654,334.3935,327.9276,325.3542,326.9605,316.315,327.5474,307.2757,327.7957,298.2365,326.8226,289.1972,327.1674,280.158,327.3705,271.1187,327.8519,262.0795,327.2513,253.0402,327.6787,244.0009,326.7481,234.9617,326.6351,225.9224,327.7162,216.8832,326.5988,207.8439,327.7211,198.8047,327.4443,189.7654,327.2552,180.7262"/><path d="M330.4596,180.7262 L330.7162,180.7262 L329.9538,189.7654 L330.6956,198.8047 L330.9475,207.8439 L329.5887,216.8832 L330.3647,225.9224 L329.939,234.9617 L329.9915,244.0009 L330.3764,253.0402 L329.6156,262.0795 L331.1355,271.1187 L329.6902,280.158 L330.2182,289.1972 L330.9869,298.2365 L330.3549,307.2757 L330.5429,316.315 L330.4206,325.3542 L330.6776,334.3935 L330.7515,343.4327 L331.1746,352.472 L331.2788,361.5112 L331.2888,370.5505 L330.7705,379.5897 L331.0255,388.629 L331.3169,397.6682 L329.5792,406.7075 L331.2879,415.7467 L330.0977,424.786 L331.1113,433.8252 L329.8553,442.8645 L330.376,451.9037 L330.4596,460.943" fill="none" style="stroke:#0000FF;stroke-width:0.4578;stroke-dasharray:4.5778,4.5778;"/></g><path d="M330.4596,460.943 L330.5451,460.943 L330.291,468.8135 L330.5383,476.684 L330.6223,484.5545 L330.1693,492.425 L330.4596,500.2955" fill="none" style="stroke:#0000FF;stroke-width:0.4578;stroke-dasharray:0.9156,3.6622;"/><g><title>IHM</title><polygon fill="#000000" fill-opacity="0.00000" points="327.2552,500.2955,327.2552,500.3597,328.7201,500.1691,330.1849,500.3545,331.6498,500.4175,333.1147,500.0778,334.5796,500.2955,334.5085,500.2955,334.1892,509.3098,334.2285,518.3241,334.5172,527.3383,333.9467,536.3526,335.0865,545.3669,334.0026,554.3812,334.3986,563.3954,334.9751,572.4097,334.5011,581.424,334.6421,590.4383,334.5504,599.4525,334.7431,608.4668,334.7986,617.4811,335.1159,626.4954,335.194,635.5097,334.5796,644.5239,334.5796,644.7312,333.1147,644.6016,331.6498,644.6654,330.1849,644.7382,328.7201,644.3038,327.2552,644.5239,327.8764,644.5239,326.9837,635.5097,327.7439,626.4954,326.8019,617.4811,327.1924,608.4668,327.9341,599.4525,327.2105,590.4383,327.3516,581.424,327.5652,572.4097,327.6362,563.3954,327.2516,554.3812,327.5181,545.3669,326.7311,536.3526,327.5155,527.3383,327.7571,518.3241,327.6622,509.3098,327.2552,500.2955"/><path d="M330.4596,500.2955 L330.7162,500.2955 L329.9538,509.3098 L330.6956,518.3241 L330.9475,527.3383 L329.5887,536.3526 L330.3647,545.3669 L329.939,554.3812 L329.9915,563.3954 L330.3764,572.4097 L329.6156,581.424 L331.1355,590.4383 L329.6902,599.4525 L330.2182,608.4668 L330.9869,617.4811 L330.3549,626.4954 L330.5429,635.5097 L330.4596,644.5239" fill="none" style="stroke:#0000FF;stroke-width:0.4578;stroke-dasharray:4.5778,4.5778;"/></g><g><title>Sistema</title><polygon fill="#000000" fill-opacity="0.00000" points="554.689,180.7262,554.689,180.7903,556.1539,180.5997,557.6188,180.7852,559.0837,180.8482,560.5486,180.5085,562.0134,180.7262,561.9423,180.7262,561.623,189.7654,561.6623,198.8047,561.951,207.8439,561.3805,216.8832,562.5203,225.9224,561.4364,234.9617,561.8324,244.0009,562.4089,253.0402,561.9349,262.0795,562.0759,271.1187,561.9842,280.158,562.1769,289.1972,562.2324,298.2365,562.5497,307.2757,562.6278,316.315,562.6354,325.3542,562.2466,334.3935,562.4379,343.4327,562.6564,352.472,561.3532,361.5112,562.6347,370.5505,561.742,379.5897,562.5022,388.629,561.5602,397.6682,561.9507,406.7075,562.6924,415.7467,561.9688,424.786,562.1099,433.8252,562.3235,442.8645,562.3945,451.9037,562.0134,460.943,562.0134,460.9418,560.5486,461.0306,559.0837,460.7683,557.6188,461.0298,556.1539,461.1103,554.689,460.943,555.096,460.943,555.2502,451.9037,554.2467,442.8645,554.0918,433.8252,554.12,424.786,554.6351,415.7467,554.509,406.7075,555.3128,397.6682,554.529,388.629,554.3749,379.5897,554.898,370.5505,554.0784,361.5112,554.2137,352.472,555.2831,343.4327,555.0878,334.3935,555.3614,325.3542,554.3943,316.315,554.9812,307.2757,555.2295,298.2365,554.2564,289.1972,554.6012,280.158,554.8043,271.1187,555.2857,262.0795,554.6851,253.0402,555.1125,244.0009,554.1819,234.9617,554.0689,225.9224,555.15,216.8832,554.0326,207.8439,555.1549,198.8047,554.8781,189.7654,554.689,180.7262"/><path d="M557.4824,180.7262 L557.739,180.7262 L556.9766,189.7654 L557.7184,198.8047 L557.9703,207.8439 L556.6115,216.8832 L557.3876,225.9224 L556.9618,234.9617 L557.0143,244.0009 L557.3992,253.0402 L556.6384,262.0795 L558.1583,271.1187 L556.713,280.158 L557.241,289.1972 L558.0097,298.2365 L557.3777,307.2757 L557.5657,316.315 L557.4434,325.3542 L557.7004,334.3935 L557.7743,343.4327 L558.1974,352.472 L558.3016,361.5112 L558.3116,370.5505 L557.7933,379.5897 L558.0483,388.629 L558.3397,397.6682 L556.602,406.7075 L558.3107,415.7467 L557.1205,424.786 L558.1341,433.8252 L556.8781,442.8645 L557.3988,451.9037 L557.4824,460.943" fill="none" style="stroke:#0000FF;stroke-width:0.4578;stroke-dasharray:4.5778,4.5778;"/></g><path d="M557.4824,460.943 L557.5679,460.943 L557.3138,468.8135 L557.5611,476.684 L557.6451,484.5545 L557.1921,492.425 L557.4824,500.2955" fill="none" style="stroke:#0000FF;stroke-width:0.4578;stroke-dasharray:0.9156,3.6622;"/><g><title>Sistema</title><polygon fill="#000000" fill-opacity="0.00000" points="554.689,500.2955,554.689,500.3597,556.1539,500.1691,557.6188,500.3545,559.0837,500.4175,560.5486,500.0778,562.0134,500.2955,561.9423,500.2955,561.623,509.3098,561.6623,518.3241,561.951,527.3383,561.3805,536.3526,562.5203,545.3669,561.4364,554.3812,561.8324,563.3954,562.4089,572.4097,561.9349,581.424,562.0759,590.4383,561.9842,599.4525,562.1769,608.4668,562.2324,617.4811,562.5497,626.4954,562.6278,635.5097,562.0134,644.5239,562.0134,644.7312,560.5486,644.6016,559.0837,644.6654,557.6188,644.7382,556.1539,644.3038,554.689,644.5239,555.3102,644.5239,554.4175,635.5097,555.1777,626.4954,554.2357,617.4811,554.6262,608.4668,555.3679,599.4525,554.6443,590.4383,554.7854,581.424,554.999,572.4097,555.07,563.3954,554.6854,554.3812,554.9519,545.3669,554.1649,536.3526,554.9493,527.3383,555.1909,518.3241,555.096,509.3098,554.689,500.2955"/><path d="M557.4824,500.2955 L557.739,500.2955 L556.9766,509.3098 L557.7184,518.3241 L557.9703,527.3383 L556.6115,536.3526 L557.3876,545.3669 L556.9618,554.3812 L557.0143,563.3954 L557.3992,572.4097 L556.6384,581.424 L558.1583,590.4383 L556.713,599.4525 L557.241,608.4668 L558.0097,617.4811 L557.3777,626.4954 L557.5657,635.5097 L557.4824,644.5239" fill="none" style="stroke:#0000FF;stroke-width:0.4578;stroke-dasharray:4.5778,4.5778;"/></g><g class="participant participant-head" data-participant="OP"><text fill="#1E90FF" font-family="Aapex" font-size="15.5645" lengthAdjust="spacing" textLength="71.0831" x="83.1157" y="176.1658">Operador</text><polygon fill="#00BFFF" points="136.1338,122.3481,133.9865,125.2821,131.4467,129.5794,127.8143,132.4755,123.9973,134.0592,120.9538,134.1967,117.0421,132.216,113.3512,130.9221,110.5497,128.295,109.0802,125.2874,108.2088,122.8926,107.355,119.7646,105.9692,117.0729,107.0341,114.4448,107.9671,111.5659,111.4683,109.289,113.9316,106.3347,116.9805,105.3537,120.605,104.5088,125.2531,105.0108,127.799,106.2114,130.7589,106.7556,134.3579,110.4429,135.6124,114.3355,136.1575,116.9915,135.5401,121.3683" style="stroke:#00BFFF;stroke-width:0.4578;"/><path d="M121.4039,137.0961 L121.4039,137.0961 L121.4332,137.1765 L123.3605,136.2052 L125.4593,135.7051 L127.5022,135.0516 L129.3617,133.8935 L131.4751,133.4339 L131.4751,133.4339 L131.462,133.4051 L133.4175,134.1914 L135.439,135.1229 L137.5063,136.1553 L139.4156,136.84 L141.5463,138.0117 L141.7514,138.1049 L142.2283,139.9198 L143.3041,142.0068 L144.453,144.1271 L145.1767,146.0541 L146.1241,148.0828 L146.1796,148.0828 L146.0981,148.8153 L146.2694,149.5477 L146.3187,150.2802 L146.6007,151.0126 L146.1241,151.7451 L146.1241,151.7451 L146.3172,151.9382 L144.8546,153.4054 L143.2675,154.7481 L141.8628,156.2732 L140.4665,157.8067 L138.7996,159.0696 L138.7996,158.4826 L131.8413,159.6218 L124.8831,158.8283 L117.9248,159.504 L110.9665,158.6667 L104.0083,159.0696 L104.0083,159.0696 L103.9886,159.0499 L102.7567,157.818 L101.0644,156.1257 L99.6439,154.7052 L98.2461,153.3074 L96.6838,151.7451 L97.0225,151.7451 L96.6806,151.0126 L96.9175,150.2802 L96.2179,149.5477 L96.9152,148.8153 L96.6838,148.0828 L96.6838,148.0828 L96.8868,148.1751 L97.764,146.1434 L98.742,144.1576 L99.2515,141.9588 L100.1044,139.9161 L101.2616,138.0117 L101.1569,137.7815 L103.2659,137.0743 L105.257,136.1077 L107.419,135.5174 L109.2891,134.2847 L111.3328,133.4339 L111.3328,133.4339 L111.285,133.3027 L113.3787,134.2536 L115.2685,134.6437 L117.3033,135.4327 L119.4799,136.6118 L121.4039,137.0961" fill="#00BFFF"/></g><g class="participant participant-head" data-participant="IHM"><text fill="#000000" font-family="sans-serif" font-size="12.8179" lengthAdjust="spacing" textLength="25.469" x="315.4362" y="176.9706">IHM</text><path d="M312.1484,137.6326 L312.3194,137.6326 L311.8112,142.0273 L312.3057,146.422 L312.4737,150.8167 L311.5678,155.2114 L312.1484,159.6061 M312.1484,148.6194 L312.1484,148.5561 L315.2613,148.2723 L318.3742,148.3073 L321.4871,148.5639 L324.6,148.0567 L327.7129,148.6194" fill="none" style="stroke:#181818;stroke-width:0.4578;"/><polygon fill="#E2E2F0" points="349.7471,151.2918,348.1366,153.4923,346.2318,156.7153,343.5075,158.8874,340.6447,160.0751,338.3621,160.1782,335.4283,158.6928,332.6601,157.7223,330.559,155.7519,329.4569,153.4963,328.8033,151.7002,328.163,149.3542,327.1236,147.3354,327.9223,145.3643,328.622,143.2051,331.248,141.4974,333.0954,139.2817,335.3821,138.546,338.1005,137.9124,341.5866,138.2888,343.496,139.1893,345.7159,139.5975,348.4151,142.3629,349.3561,145.2824,349.7649,147.2743,349.3018,150.5569" style="stroke:#181818;stroke-width:0.4578;"/></g><g class="participant participant-head" data-participant="ST"><text fill="#000000" font-family="sans-serif" font-size="12.8179" lengthAdjust="spacing" textLength="47.5156" x="531.8467" y="176.9706">Sistema</text><polygon fill="#E2E2F0" points="569.3986,151.2918,567.7882,153.4923,565.8833,156.7153,563.159,158.8874,560.2962,160.0751,558.0136,160.1782,555.0798,158.6928,552.3117,157.7223,550.2106,155.7519,549.1084,153.4963,548.4548,151.7002,547.8145,149.3542,546.7752,147.3354,547.5738,145.3643,548.2736,143.2051,550.8995,141.4974,552.7469,139.2817,555.0336,138.546,557.752,137.9124,561.2381,138.2888,563.1475,139.1893,565.3674,139.5975,568.0667,142.3629,569.0076,145.2824,569.4164,147.2743,568.9534,150.5569" style="stroke:#181818;stroke-width:0.4578;"/><polygon fill="#181818" points="554.689,137.6326,554.73,137.6819,555.7067,136.6199,556.9241,135.8468,558.0631,134.9797,558.9443,133.8031,560.1823,133.0548,560.1603,133.046,559.6953,133.9221,559.3412,134.8425,559.0643,135.7938,558.5215,136.6387,558.3512,137.6326,558.5081,137.6954,558.5388,138.4768,559.0276,139.4413,559.5723,140.4283,559.7918,141.2852,560.1823,142.2104,560.1957,142.2264,559.0774,141.2874,558.0199,140.4212,556.933,139.5198,555.9021,138.6855,554.689,137.6326" style="stroke:#181818;stroke-width:0.9156;"/></g><g><title>IHM</title><polygon fill="#A9DCDF" points="326.3396,189.8818,326.3396,189.9459,328.1707,189.7554,330.0018,189.9408,331.833,190.0038,333.6641,189.6641,335.4952,189.8818,335.4241,189.8818,335.1047,198.9172,335.1441,207.9525,335.4328,216.9879,334.8622,226.0233,336.0021,235.0587,334.9181,244.094,335.3141,253.1294,335.8907,262.1648,335.4167,271.2002,335.5577,280.2355,335.466,289.2709,335.6587,298.3063,335.7141,307.3416,336.0314,316.377,336.1096,325.4124,336.1171,334.4478,335.7283,343.4831,335.9196,352.5185,336.1381,361.5539,334.8349,370.5892,336.1164,379.6246,335.2237,388.66,335.9839,397.6954,335.042,406.7307,335.4325,415.7661,336.1742,424.8015,335.4506,433.8369,335.5916,442.8722,335.8052,451.9076,335.4952,460.943,335.4952,461.07,333.6641,460.9418,331.833,461.0306,330.0018,460.7683,328.1707,461.0298,326.3396,460.943,326.8415,460.943,326.7466,451.9076,326.9009,442.8722,325.8973,433.8369,325.7425,424.8015,325.7707,415.7661,326.2857,406.7307,326.1597,397.6954,326.9635,388.66,326.1797,379.6246,326.0255,370.5892,326.5486,361.5539,325.7291,352.5185,325.8643,343.4831,326.9337,334.4478,326.7385,325.4124,327.0121,316.377,326.045,307.3416,326.6318,298.3063,326.8802,289.2709,325.9071,280.2355,326.2518,271.2002,326.4549,262.1648,326.9363,253.1294,326.3358,244.094,326.7631,235.0587,325.8326,226.0233,325.7195,216.9879,326.8007,207.9525,325.6832,198.9172,326.3396,189.8818" style="stroke:#A9DCDF;stroke-width:0.9156;"/><path d="M326.3396,189.8818 L326.5962,189.8818 L325.8338,198.9172 L326.5755,207.9525 L326.8275,216.9879 L325.4687,226.0233 L326.2447,235.0587 L325.819,244.094 L325.8714,253.1294 L326.2564,262.1648 L325.4956,271.2002 L327.0154,280.2355 L325.5702,289.2709 L326.0982,298.3063 L326.8669,307.3416 L326.2349,316.377 L326.4229,325.4124 L326.3006,334.4478 L326.5575,343.4831 L326.6315,352.5185 L327.0546,361.5539 L327.1588,370.5892 L327.1688,379.6246 L326.6504,388.66 L326.9055,397.6954 L327.1968,406.7307 L325.4592,415.7661 L327.1679,424.8015 L325.9776,433.8369 L326.9912,442.8722 L325.7353,451.9076 L326.3396,460.943" fill="none" style="stroke:#181818;stroke-width:0.9156;"/><path d="M335.4952,189.8818 L335.7518,189.8818 L334.9894,198.9172 L335.7312,207.9525 L335.9831,216.9879 L334.6243,226.0233 L335.4003,235.0587 L334.9746,244.094 L335.027,253.1294 L335.412,262.1648 L334.6512,271.2002 L336.1711,280.2355 L334.7258,289.2709 L335.2538,298.3063 L336.0225,307.3416 L335.3905,316.377 L335.5785,325.4124 L335.4562,334.4478 L335.7131,343.4831 L335.7871,352.5185 L336.2102,361.5539 L336.3144,370.5892 L336.3244,379.6246 L335.806,388.66 L336.0611,397.6954 L336.3525,406.7307 L334.6148,415.7661 L336.3235,424.8015 L335.1332,433.8369 L336.1469,442.8722 L334.8909,451.9076 L335.4952,460.943" fill="none" style="stroke:#181818;stroke-width:0.9156;"/><path d="M326.3396,189.8818 L326.3396,189.9673 L328.1707,189.7132 L330.0018,189.9605 L331.833,190.0444 L333.6641,189.5915 L335.4952,189.8818" fill="none" style="stroke:#181818;stroke-width:0.9156;"/></g><g><title>IHM</title><polygon fill="#A9DCDF" points="326.3396,500.2955,326.3396,500.3597,328.1707,500.1691,330.0018,500.3545,331.833,500.4175,333.6641,500.0778,335.4952,500.2955,335.4241,500.2955,335.1047,509.3614,335.1441,518.4273,335.4328,527.4932,334.8622,536.5591,336.0021,545.625,334.9181,554.6909,335.3141,563.7568,335.8907,572.8226,335.4167,581.8885,335.5577,590.9544,335.466,600.0203,335.6587,609.0862,335.7141,618.1521,336.0314,627.218,335.4952,636.2839,335.4952,636.4887,333.6641,636.4912,331.833,636.3616,330.0018,636.4254,328.1707,636.4982,326.3396,636.2839,325.6793,636.2839,326.9608,627.218,326.0681,618.1521,326.8283,609.0862,325.8864,600.0203,326.2769,590.9544,327.0186,581.8885,326.295,572.8226,326.436,563.7568,326.6496,554.6909,326.7207,545.625,326.336,536.5591,326.6026,527.4932,325.8155,518.4273,326.6,509.3614,326.3396,500.2955" style="stroke:#A9DCDF;stroke-width:0.9156;"/><path d="M326.3396,500.2955 L326.5962,500.2955 L325.8338,509.3614 L326.5755,518.4273 L326.8275,527.4932 L325.4687,536.5591 L326.2447,545.625 L325.819,554.6909 L325.8714,563.7568 L326.2564,572.8226 L325.4956,581.8885 L327.0154,590.9544 L325.5702,600.0203 L326.0982,609.0862 L326.8669,618.1521 L326.2349,627.218 L326.3396,636.2839" fill="none" style="stroke:#181818;stroke-width:0.9156;"/><path d="M335.4952,500.2955 L335.7518,500.2955 L334.9894,509.3614 L335.7312,518.4273 L335.9831,527.4932 L334.6243,536.5591 L335.4003,545.625 L334.9746,554.6909 L335.027,563.7568 L335.412,572.8226 L334.6512,581.8885 L336.1711,590.9544 L334.7258,600.0203 L335.2538,609.0862 L336.0225,618.1521 L335.3905,627.218 L335.4952,636.2839" fill="none" style="stroke:#181818;stroke-width:0.9156;"/><path d="M326.3396,636.2839 L326.3396,636.3694 L328.1707,636.1153 L330.0018,636.3625 L331.833,636.4465 L333.6641,635.9936 L335.4952,636.2839" fill="none" style="stroke:#181818;stroke-width:0.9156;"/></g><g><title>IHM</title><polygon fill="#A9DCDF" points="330.9174,424.5897,330.9174,424.6538,332.7485,424.4632,334.5796,424.6487,336.4108,424.7117,338.2419,424.372,340.073,424.5897,340.0493,424.5897,339.9428,430.3954,339.956,436.2012,340.0522,442.007,339.862,447.8127,340.073,453.6185,340.073,453.7874,338.2419,453.4261,336.4108,453.5581,334.5796,453.7503,332.7485,453.5923,330.9174,453.6185,330.9382,453.6185,330.9076,447.8127,330.9719,442.007,330.9904,436.2012,331.0961,430.3954,330.9174,424.5897" style="stroke:#181818;stroke-width:0.9156;"/></g><g><title>Sistema</title><polygon fill="#A9DCDF" points="553.7734,189.8818,553.7734,189.9459,555.6045,189.7554,557.4356,189.9408,559.2668,190.0038,561.0979,189.6641,562.929,189.8818,562.8579,189.8818,562.5385,198.9172,562.5779,207.9525,562.8666,216.9879,562.296,226.0233,563.4359,235.0587,562.3519,244.094,562.7479,253.1294,563.3245,262.1648,562.8505,271.2002,562.9915,280.2355,562.8998,289.2709,563.0925,298.3063,563.148,307.3416,563.4652,316.377,563.5434,325.4124,563.5509,334.4478,563.1621,343.4831,563.3535,352.5185,563.5719,361.5539,562.2687,370.5892,563.5502,379.6246,562.6575,388.66,563.4177,397.6954,562.4758,406.7307,562.8663,415.7661,563.608,424.8015,562.8844,433.8369,563.0254,442.8722,563.239,451.9076,562.929,460.943,562.929,461.07,561.0979,460.9418,559.2668,461.0306,557.4356,460.7683,555.6045,461.0298,553.7734,460.943,554.2753,460.943,554.1804,451.9076,554.3347,442.8722,553.3311,433.8369,553.1763,424.8015,553.2045,415.7661,553.7195,406.7307,553.5935,397.6954,554.3973,388.66,553.6135,379.6246,553.4593,370.5892,553.9824,361.5539,553.1629,352.5185,553.2981,343.4831,554.3676,334.4478,554.1723,325.4124,554.4459,316.377,553.4788,307.3416,554.0656,298.3063,554.314,289.2709,553.3409,280.2355,553.6856,271.2002,553.8887,262.1648,554.3701,253.1294,553.7696,244.094,554.1969,235.0587,553.2664,226.0233,553.1533,216.9879,554.2345,207.9525,553.117,198.9172,553.7734,189.8818" style="stroke:#A9DCDF;stroke-width:0.9156;"/><path d="M553.7734,189.8818 L554.03,189.8818 L553.2676,198.9172 L554.0094,207.9525 L554.2613,216.9879 L552.9025,226.0233 L553.6785,235.0587 L553.2528,244.094 L553.3052,253.1294 L553.6902,262.1648 L552.9294,271.2002 L554.4493,280.2355 L553.004,289.2709 L553.532,298.3063 L554.3007,307.3416 L553.6687,316.377 L553.8567,325.4124 L553.7344,334.4478 L553.9913,343.4831 L554.0653,352.5185 L554.4884,361.5539 L554.5926,370.5892 L554.6026,379.6246 L554.0842,388.66 L554.3393,397.6954 L554.6306,406.7307 L552.893,415.7661 L554.6017,424.8015 L553.4114,433.8369 L554.425,442.8722 L553.1691,451.9076 L553.7734,460.943" fill="none" style="stroke:#181818;stroke-width:0.9156;"/><path d="M562.929,189.8818 L563.1856,189.8818 L562.4232,198.9172 L563.165,207.9525 L563.4169,216.9879 L562.0581,226.0233 L562.8341,235.0587 L562.4084,244.094 L562.4609,253.1294 L562.8458,262.1648 L562.085,271.2002 L563.6049,280.2355 L562.1596,289.2709 L562.6876,298.3063 L563.4563,307.3416 L562.8243,316.377 L563.0123,325.4124 L562.89,334.4478 L563.1469,343.4831 L563.2209,352.5185 L563.644,361.5539 L563.7482,370.5892 L563.7582,379.6246 L563.2398,388.66 L563.4949,397.6954 L563.7863,406.7307 L562.0486,415.7661 L563.7573,424.8015 L562.5671,433.8369 L563.5807,442.8722 L562.3247,451.9076 L562.929,460.943" fill="none" style="stroke:#181818;stroke-width:0.9156;"/><path d="M553.7734,189.8818 L553.7734,189.9673 L555.6045,189.7132 L557.4356,189.9605 L559.2668,190.0444 L561.0979,189.5915 L562.929,189.8818" fill="none" style="stroke:#181818;stroke-width:0.9156;"/></g><g><title>Sistema</title><polygon fill="#A9DCDF" points="553.7734,500.2955,553.7734,500.3597,555.6045,500.1691,557.4356,500.3545,559.2668,500.4175,561.0979,500.0778,562.929,500.2955,562.8579,500.2955,562.5385,509.3614,562.5779,518.4273,562.8666,527.4932,562.296,536.5591,563.4359,545.625,562.3519,554.6909,562.7479,563.7568,563.3245,572.8226,562.8505,581.8885,562.9915,590.9544,562.8998,600.0203,563.0925,609.0862,563.148,618.1521,563.4652,627.218,562.929,636.2839,562.929,636.4887,561.0979,636.4912,559.2668,636.3616,557.4356,636.4254,555.6045,636.4982,553.7734,636.2839,553.1131,636.2839,554.3946,627.218,553.5019,618.1521,554.2621,609.0862,553.3202,600.0203,553.7107,590.9544,554.4524,581.8885,553.7288,572.8226,553.8698,563.7568,554.0834,554.6909,554.1545,545.625,553.7698,536.5591,554.0364,527.4932,553.2493,518.4273,554.0338,509.3614,553.7734,500.2955" style="stroke:#A9DCDF;stroke-width:0.9156;"/><path d="M553.7734,500.2955 L554.03,500.2955 L553.2676,509.3614 L554.0094,518.4273 L554.2613,527.4932 L552.9025,536.5591 L553.6785,545.625 L553.2528,554.6909 L553.3052,563.7568 L553.6902,572.8226 L552.9294,581.8885 L554.4493,590.9544 L553.004,600.0203 L553.532,609.0862 L554.3007,618.1521 L553.6687,627.218 L553.7734,636.2839" fill="none" style="stroke:#181818;stroke-width:0.9156;"/><path d="M562.929,500.2955 L563.1856,500.2955 L562.4232,509.3614 L563.165,518.4273 L563.4169,527.4932 L562.0581,536.5591 L562.8341,545.625 L562.4084,554.6909 L562.4609,563.7568 L562.8458,572.8226 L562.085,581.8885 L563.6049,590.9544 L562.1596,600.0203 L562.6876,609.0862 L563.4563,618.1521 L562.8243,627.218 L562.929,636.2839" fill="none" style="stroke:#181818;stroke-width:0.9156;"/><path d="M553.7734,636.2839 L553.7734,636.3694 L555.6045,636.1153 L557.4356,636.3625 L559.2668,636.4465 L561.0979,635.9936 L562.929,636.2839" fill="none" style="stroke:#181818;stroke-width:0.9156;"/></g><polygon fill="#FEFFDD" points="489.6248,194.4596,489.6248,194.652,498.7194,194.0803,507.814,194.6366,516.9086,194.8255,526.0031,193.8065,535.0977,194.3885,544.1923,194.0691,553.2868,194.1085,562.3814,194.3972,571.476,193.8266,580.5706,194.9665,589.6651,193.8825,598.7597,194.2785,607.8543,194.8551,616.9489,194.3811,626.0434,194.4596,626.0622,194.4686,627.8658,198.3008,629.7549,202.1737,631.6027,206.0271,633.5293,209.9179,635.199,213.6864,635.3855,213.7711,633.5566,217.8006,631.6075,221.7755,629.8345,225.8303,628.0697,229.889,626.0434,233.8287,626.0434,233.1684,616.9489,234.45,607.8543,233.5573,598.7597,234.3175,589.6651,233.3755,580.5706,233.766,571.476,234.5077,562.3814,233.7841,553.2868,233.9251,544.1923,234.1388,535.0977,234.2098,526.0031,233.8252,516.9086,234.0917,507.814,233.3047,498.7194,234.0891,489.6248,233.8287,489.7771,233.898,487.9172,229.8564,486.1329,225.8492,483.9973,221.6823,482.1191,217.6325,480.4692,213.6864,480.298,213.6049,482.2841,209.8333,484.0773,205.9699,486.1503,202.2397,487.7456,198.282,489.6248,194.4596" style="stroke:#181818;stroke-width:0.4578;"/><text fill="#000000" font-family="sans-serif" font-size="11.9023" lengthAdjust="spacing" textLength="91.1836" x="491.456" y="210.8454">Estado de Falha:</text><text fill="#000000" font-family="sans-serif" font-size="11.9023" lengthAdjust="spacing" textLength="130.1041" x="494.5506" y="227.0564">Sonoro ON / Visual ON.</text><g class="message" data-participant-1="OP" data-participant-2="IHM"><polygon fill="#00BFFF" points="315.3529,256.8258,315.3767,256.8854,317.137,257.4409,319.037,258.3455,320.8915,259.1364,322.5965,259.5535,324.5085,260.4881,324.4997,260.4661,322.629,261.0997,320.8028,261.8443,319.0074,262.6661,317.1056,263.222,315.3529,264.1503,315.4723,264.2698,315.9493,263.2819,316.7751,262.6428,317.6434,262.0462,318.2641,261.202,319.0151,260.4881,319.0298,260.5028,318.2758,259.7487,317.5887,259.0617,316.8694,258.3423,316.2117,257.6847,315.3529,256.8258" style="stroke:#00BFFF;stroke-width:0.9156;"/><path d="M121.4039,260.4881 L121.4039,260.7447 L130.4695,259.9823 L139.535,260.724 L148.6006,260.976 L157.6662,259.6172 L166.7317,260.3932 L175.7973,259.9674 L184.8628,260.0199 L193.9284,260.4049 L202.994,259.6441 L212.0595,261.1639 L221.1251,259.7187 L230.1906,260.2467 L239.2562,261.0154 L248.3218,260.3834 L257.3873,260.5714 L266.4529,260.4491 L275.5184,260.706 L284.584,260.78 L293.6495,261.2031 L302.7151,261.3073 L311.7807,261.3173 L320.8462,260.4881" fill="none" style="stroke:#00BFFF;stroke-width:0.9156;"/><text fill="#000000" font-family="sans-serif" font-size="11.9023" lengthAdjust="spacing" textLength="182.9622" x="127.8129" y="255.1696">Selecionar "Reconhecer Alarme".</text></g><g class="message" data-participant-1="IHM" data-participant-2="ST"><polygon fill="#00BFFF" points="542.7867,269.6437,542.8105,269.7033,544.5708,270.2587,546.4708,271.1634,548.3253,271.9543,550.0303,272.3713,551.9423,273.3059,551.9335,273.2839,550.0628,273.9175,548.2366,274.6622,546.4412,275.484,544.5394,276.0398,542.7867,276.9682,542.9061,277.0877,543.3831,276.0997,544.2089,275.4606,545.0772,274.8641,545.698,274.0199,546.4489,273.3059,546.4636,273.3207,545.7096,272.5666,545.0225,271.8796,544.3032,271.1602,543.6455,270.5025,542.7867,269.6437" style="stroke:#00BFFF;stroke-width:0.9156;"/><path d="M335.4952,273.3059 L335.4952,273.5625 L344.7467,272.8002 L353.9982,273.5419 L363.2497,273.7939 L372.5013,272.4351 L381.7528,273.2111 L391.0043,272.7853 L400.2558,272.8378 L409.5073,273.2227 L418.7588,272.462 L428.0103,273.9818 L437.2619,272.5365 L446.5134,273.0645 L455.7649,273.8332 L465.0164,273.2012 L474.2679,273.3892 L483.5194,273.2669 L492.7709,273.5239 L502.0225,273.5979 L511.274,274.0209 L520.5255,274.1251 L529.777,274.1351 L539.0285,273.6168 L548.28,273.3059" fill="none" style="stroke:#00BFFF;stroke-width:0.9156;"/></g><g class="message" data-participant-1="ST" data-participant-2="ST"><path d="M562.929,302.3347 L562.929,302.4203 L570.6197,302.1661 L578.3104,302.4134 L586.0011,302.4974 L593.6919,302.0444 L601.3826,302.3347" fill="none" style="stroke:#00BFFF;stroke-width:0.9156;"/><path d="M601.3826,302.3347 L601.4681,302.3347 L601.214,304.7152 L601.4612,307.0957 L601.5452,309.4761 L601.0923,311.8566 L601.3826,314.237" fill="none" style="stroke:#00BFFF;stroke-width:0.9156;"/><path d="M563.8446,314.237 L563.8446,314.3226 L571.3522,314.0684 L578.8598,314.3157 L586.3674,314.3997 L593.875,313.9467 L601.3826,314.237" fill="none" style="stroke:#00BFFF;stroke-width:0.9156;"/><polygon fill="#00BFFF" points="573.0002,310.5748,573.024,310.6343,571.1221,311.1898,569.3598,312.0945,567.5521,312.8854,565.5948,313.3024,563.8446,314.237,563.8358,314.215,565.6274,314.8486,567.4633,315.5933,569.3302,316.4151,571.0907,316.9709,573.0002,317.8993,573.1197,318.0188,572.1317,317.0308,571.4926,316.3917,570.896,315.7951,570.0519,314.951,569.3379,314.237,569.3527,314.2518,570.0635,313.4977,570.8414,312.8107,571.5869,312.0913,572.3941,311.4336,573.0002,310.5748" style="stroke:#00BFFF;stroke-width:0.9156;"/><text fill="#000000" font-family="sans-serif" font-size="11.9023" lengthAdjust="spacing" textLength="156.4439" x="569.3379" y="297.0162">Grava Auditoria (Registro c).</text></g><polygon fill="#FEFFDD" points="455.7491,326.1393,455.7491,326.3318,465.0295,325.76,474.31,326.3163,483.5905,326.5053,492.8709,325.4862,502.1514,326.0682,511.4318,325.7488,520.7123,325.7882,529.9928,326.0769,539.2732,325.5063,548.5537,326.6462,557.8341,325.5623,567.1146,325.9583,576.3951,326.5348,585.6755,326.0608,594.956,326.2018,604.2364,326.1101,613.5169,326.3028,622.7974,326.3583,632.0778,326.6756,641.3583,326.7537,650.6387,326.7612,659.9192,326.1393,659.9929,326.1639,661.8845,331.6774,663.7848,337.1938,665.2038,342.5498,667.4401,348.1783,669.0748,353.6062,668.9887,353.5784,667.3987,359.3327,665.2688,364.9127,663.5615,370.6292,661.9657,376.3816,659.9192,381.9886,659.9192,381.9439,650.6387,382.085,641.3583,382.2986,632.0778,382.3696,622.7974,381.985,613.5169,382.2515,604.2364,381.4645,594.956,382.2489,585.6755,382.4905,576.3951,382.3956,567.1146,382.5498,557.8341,381.5463,548.5537,381.3914,539.2732,381.4196,529.9928,381.9346,520.7123,381.8086,511.4318,382.6124,502.1514,381.8286,492.8709,381.6745,483.5905,382.1975,474.31,381.378,465.0295,381.5133,455.7491,381.9886,455.9376,382.0494,454.0445,376.3529,452.3002,370.7044,450.1622,364.929,448.5173,359.3125,446.5935,353.6062,446.7644,353.6631,448.2878,348.0672,450.228,342.6102,452.1233,337.1382,454.1067,331.6956,455.7491,326.1393" style="stroke:#181818;stroke-width:0.4578;"/><text fill="#000000" font-family="sans-serif" font-size="11.9023" lengthAdjust="spacing" textLength="153.5636" x="457.5802" y="342.5251">L&#243;gica de Reconhecimento:</text><text fill="#000000" font-family="sans-serif" font-size="11.9023" lengthAdjust="spacing" textLength="152.1115" x="460.6748" y="358.7361">1. Desliga Som (Registro a);</text><text fill="#000000" font-family="sans-serif" font-size="11.9023" lengthAdjust="spacing" textLength="197.9473" x="460.6748" y="374.947">2. Mant&#233;m Visual Ativo (Registro b).</text><g class="message" data-participant-1="ST" data-participant-2="IHM"><polygon fill="#00BFFF" points="350.1442,420.9274,350.168,420.987,348.2661,421.5425,346.5038,422.4471,344.6961,423.238,342.7388,423.6551,340.9886,424.5897,340.9798,424.5677,342.7714,425.2013,344.6073,425.9459,346.4742,426.7677,348.2347,427.3236,350.1442,428.2519,350.2637,428.3714,349.2757,427.3835,348.6366,426.7444,348.04,426.1478,347.1959,425.3036,346.4819,424.5897,346.4967,424.6044,347.2075,423.8503,347.9854,423.1633,348.7309,422.4439,349.5381,421.7863,350.1442,420.9274" style="stroke:#00BFFF;stroke-width:0.9156;"/><path d="M344.6508,424.5897 L344.6508,424.8463 L353.7033,424.0839 L362.7558,424.8256 L371.8083,425.0776 L380.8607,423.7188 L389.9132,424.4948 L398.9657,424.069 L408.0182,424.1215 L417.0706,424.5065 L426.1231,423.7457 L435.1756,425.2655 L444.2281,423.8203 L453.2806,424.3483 L462.333,425.117 L471.3855,424.485 L480.438,424.673 L489.4905,424.5507 L498.543,424.8076 L507.5954,424.8816 L516.6479,425.3047 L525.7004,425.4089 L534.7529,425.4189 L543.8054,424.9005 L552.8578,424.5897" fill="none" style="stroke:#00BFFF;stroke-width:0.9156;stroke-dasharray:1.8311,1.8311;"/><text fill="#000000" font-family="sans-serif" font-size="11.9023" lengthAdjust="spacing" textLength="74.2823" x="355.6375" y="403.0603">Atualiza IHM:</text><text fill="#000000" font-family="sans-serif" font-size="11.9023" lengthAdjust="spacing" textLength="193.2101" x="358.7321" y="419.2712">Som mudo / Alerta visual mantido.</text></g><g class="message" data-participant-1="IHM" data-participant-2="OP"><polygon fill="#00BFFF" points="131.4751,449.9562,131.4989,450.0158,129.597,450.5713,127.8348,451.4759,126.027,452.2668,124.0697,452.6839,122.3195,453.6185,122.3107,453.5965,124.1023,454.2301,125.9383,454.9747,127.8051,455.7965,129.5656,456.3524,131.4751,457.2807,131.5946,457.4002,130.6066,456.4123,129.9675,455.7732,129.371,455.1766,128.5268,454.3324,127.8129,453.6185,127.8276,453.6332,128.5384,452.8791,129.3163,452.1921,130.0618,451.4727,130.869,450.8151,131.4751,449.9562" style="stroke:#00BFFF;stroke-width:0.9156;"/><path d="M125.9817,453.6185 L125.9817,453.8751 L135.0473,453.1127 L144.1128,453.8544 L153.1784,454.1064 L162.244,452.7476 L171.3095,453.5236 L180.3751,453.0978 L189.4406,453.1503 L198.5062,453.5353 L207.5718,452.7745 L216.6373,454.2943 L225.7029,452.8491 L234.7684,453.3771 L243.834,454.1458 L252.8996,453.5138 L261.9651,453.7018 L271.0307,453.5795 L280.0962,453.8364 L289.1618,453.9104 L298.2274,454.3335 L307.2929,454.4377 L316.3585,454.4477 L325.424,453.6185" fill="none" style="stroke:#00BFFF;stroke-width:0.9156;stroke-dasharray:1.8311,1.8311;"/><text fill="#000000" font-family="sans-serif" font-size="11.9023" lengthAdjust="spacing" textLength="155.206" x="136.9685" y="448.3">Visualiza&#231;&#227;o do alarme final</text></g><text fill="#000000" font-family="sans-serif" font-size="10.0712" lengthAdjust="spacing" textLength="210.4759" x="234.6396" y="484.5268">A falha persiste at&#233; ser resolvida fisicamente</text><polygon fill="#FEFFDD" points="477.7225,504.8733,477.7225,505.0658,487.0936,504.494,496.4646,505.0503,505.8357,505.2393,515.2067,504.2202,524.5777,504.8022,533.9488,504.4828,543.3198,504.5222,552.6908,504.8109,562.0619,504.2403,571.4329,505.3802,580.8039,504.2963,590.175,504.6923,599.546,505.2688,608.9171,504.7948,618.2881,504.9358,627.6591,504.8441,637.0302,504.8733,637.0794,504.8967,638.9272,508.7501,640.8538,512.6409,642.7084,516.4974,644.5418,520.3439,646.1858,524.1001,646.2565,524.1323,644.4835,528.1871,642.7186,532.2457,640.492,536.0944,639.0498,540.2997,637.0302,544.2424,637.0302,543.971,627.6591,544.7312,618.2881,543.7892,608.9171,544.1797,599.546,544.9214,590.175,544.1978,580.8039,544.3389,571.4329,544.5525,562.0619,544.6235,552.6908,544.2389,543.3198,544.5054,533.9488,543.7184,524.5777,544.5028,515.2067,544.7444,505.8357,544.6494,496.4646,544.8037,487.0936,543.8002,477.7225,544.2424,477.5413,544.1601,475.7188,540.1355,474.0439,536.1781,472.1746,532.1322,470.5874,528.2146,468.5669,524.1001,468.5188,524.0772,470.3035,520.2097,472.2921,516.4393,473.8766,512.4765,475.7484,508.6506,477.7225,504.8733" style="stroke:#181818;stroke-width:0.4578;"/><text fill="#000000" font-family="sans-serif" font-size="11.9023" lengthAdjust="spacing" textLength="153.0993" x="479.5537" y="521.2591">Sensor indica normaliza&#231;&#227;o</text><text fill="#000000" font-family="sans-serif" font-size="11.9023" lengthAdjust="spacing" textLength="96.5872" x="482.6483" y="537.4701">(Falha Resolvida).</text><g class="message" data-participant-1="ST" data-participant-2="ST"><path d="M562.929,570.9018 L562.929,570.9873 L570.6197,570.7332 L578.3104,570.9805 L586.0011,571.0644 L593.6919,570.6115 L601.3826,570.9018" fill="none" style="stroke:#00BFFF;stroke-width:0.9156;"/><path d="M601.3826,570.9018 L601.4681,570.9018 L601.214,573.2823 L601.4612,575.6627 L601.5452,578.0432 L601.0923,580.4236 L601.3826,582.8041" fill="none" style="stroke:#00BFFF;stroke-width:0.9156;"/><path d="M563.8446,582.8041 L563.8446,582.8896 L571.3522,582.6355 L578.8598,582.8827 L586.3674,582.9667 L593.875,582.5138 L601.3826,582.8041" fill="none" style="stroke:#00BFFF;stroke-width:0.9156;"/><polygon fill="#00BFFF" points="573.0002,579.1419,573.024,579.2014,571.1221,579.7569,569.3598,580.6615,567.5521,581.4524,565.5948,581.8695,563.8446,582.8041,563.8358,582.7821,565.6274,583.4157,567.4633,584.1603,569.3302,584.9821,571.0907,585.538,573.0002,586.4663,573.1197,586.5858,572.1317,585.5979,571.4926,584.9588,570.896,584.3622,570.0519,583.518,569.3379,582.8041,569.3527,582.8188,570.0635,582.0648,570.8414,581.3777,571.5869,580.6584,572.3941,580.0007,573.0002,579.1419" style="stroke:#00BFFF;stroke-width:0.9156;"/><text fill="#000000" font-family="sans-serif" font-size="11.9023" lengthAdjust="spacing" textLength="156.4439" x="569.3379" y="565.5833">Grava Auditoria (Registro c).</text></g><g class="message" data-participant-1="ST" data-participant-2="IHM"><polygon fill="#00BFFF" points="345.5664,624.3816,345.5902,624.4411,343.6883,624.9966,341.926,625.9013,340.1183,626.6922,338.161,627.1092,336.4108,628.0438,336.402,628.0218,338.1935,628.6554,340.0295,629.4001,341.8964,630.2219,343.6569,630.7777,345.5664,631.7061,345.6859,631.8255,344.6979,630.8376,344.0588,630.1985,343.4622,629.6019,342.6181,628.7578,341.9041,628.0438,341.9189,628.0586,342.6297,627.3045,343.4076,626.6175,344.1531,625.8981,344.9603,625.2404,345.5664,624.3816" style="stroke:#00BFFF;stroke-width:0.9156;"/><path d="M340.073,628.0438 L340.073,628.3004 L349.3245,627.538 L358.576,628.2798 L367.8276,628.5317 L377.0791,627.173 L386.3306,627.949 L395.5821,627.5232 L404.8336,627.5757 L414.0851,627.9606 L423.3366,627.1998 L432.5882,628.7197 L441.8397,627.2744 L451.0912,627.8024 L460.3427,628.5711 L469.5942,627.9391 L478.8457,628.1271 L488.0972,628.0048 L497.3488,628.2618 L506.6003,628.3358 L515.8518,628.7588 L525.1033,628.863 L534.3548,628.873 L543.6063,628.3547 L552.8578,628.0438" fill="none" style="stroke:#00BFFF;stroke-width:0.9156;stroke-dasharray:1.8311,1.8311;"/><text fill="#000000" font-family="sans-serif" font-size="11.9023" lengthAdjust="spacing" textLength="117.69" x="351.0597" y="606.5144">Remove Alerta Visual</text><text fill="#000000" font-family="sans-serif" font-size="11.9023" lengthAdjust="spacing" textLength="124.391" x="354.1543" y="622.7253">(Completa Registro b).</text></g><text fill="#1E90FF" font-family="Arial" font-size="12.8179" lengthAdjust="spacing" textLength="3.3326" x="27.4668" y="677.4529">&#160;</text><text fill="#1E90FF" font-family="Arial" font-size="12.8179" font-weight="bold" lengthAdjust="spacing" textLength="142.1623" x="27.4668" y="694.9108">Casos de Uso cobertos</text><text fill="#1E90FF" font-family="Arial" font-size="12.8179" lengthAdjust="spacing" textLength="3.4352" x="169.6291" y="694.9108">:</text><text fill="#1E90FF" font-family="Arial" font-size="12.8179" lengthAdjust="spacing" textLength="4.1273" x="27.4668" y="712.3686">-</text><text fill="#1E90FF" font-family="Arial" font-size="12.8179" font-weight="bold" lengthAdjust="spacing" textLength="53.399" x="34.9268" y="712.3686">MIO-004</text><text fill="#1E90FF" font-family="Arial" font-size="12.8179" lengthAdjust="spacing" textLength="207.9176" x="91.6584" y="712.3686">Reconhecimento de Alarmes (Ack);</text><polygon fill="none" points="25.1779,22.889,25.1779,23.0815,34.3826,22.5097,43.5872,23.066,52.7919,23.255,61.9965,22.2359,71.2012,22.8179,80.4058,22.4985,89.6105,22.5379,98.8151,22.8266,108.0198,22.256,117.2244,23.3959,126.4291,22.312,135.6337,22.708,144.8384,23.2845,154.043,22.8105,163.2477,22.9515,172.4523,22.8598,181.657,23.0525,190.8616,23.108,200.0663,23.4253,209.2709,23.5034,218.4756,23.5109,227.6802,23.1222,236.8849,23.3135,246.0895,23.532,255.2942,22.2287,264.4989,23.5102,273.7035,22.6176,282.9082,23.3778,292.1128,22.4358,301.3175,22.8263,310.5221,23.568,319.7268,22.8444,328.9314,22.9854,338.1361,23.1991,347.3407,23.2701,356.5454,22.8855,365.75,23.152,374.9547,22.3649,384.1593,23.1494,393.364,23.3909,402.5686,23.296,411.7733,23.4503,420.9779,22.4467,430.1826,22.2919,439.3872,22.3201,448.5919,22.8351,457.7965,22.7091,467.0012,23.5129,476.2058,22.7291,485.4105,22.5749,494.6151,23.098,503.8198,22.2785,513.0244,22.4137,522.2291,23.4832,531.4337,23.2879,540.6384,23.5615,549.843,22.5944,559.0477,23.1813,568.2523,23.4296,577.457,22.4565,586.6616,22.8013,595.8663,23.0044,605.0709,23.4858,614.2756,22.8852,623.4802,23.3125,632.6849,22.382,641.8895,22.269,651.0942,23.3501,660.2988,22.2326,669.5035,23.355,678.7081,23.0782,687.9128,22.6437,697.1174,22.5651,706.3221,23.309,715.5267,22.615,724.7314,23.4309,733.936,22.383,743.1407,23.4543,752.3453,23.3324,761.55,23.1133,770.7546,22.9323,779.9593,23.5543,789.1639,23.4508,798.3686,22.889,798.3884,22.9367,799.371,23.3669,800.2956,23.6568,801.3656,24.2978,802.2711,24.5417,803.2241,24.9002,803.2728,24.9204,803.4548,25.8003,803.9143,26.7951,804.5805,27.8755,804.9542,28.8348,805.2353,29.7557,805.196,29.7557,804.9403,39.3215,805.0349,48.8873,804.6071,58.4531,805.615,68.0188,805.2353,77.5846,805.4438,77.671,804.9815,78.6172,804.6268,79.608,803.99,80.482,803.6509,81.4792,803.2241,82.4401,803.1788,82.3308,802.2862,82.9224,801.3107,83.3142,800.3753,83.8026,799.3129,83.9843,798.3686,84.4513,798.3686,84.3283,789.1639,84.8573,779.9593,84.9708,770.7546,83.9821,761.55,84.2738,752.3453,84.588,743.1407,83.8921,733.936,84.7749,724.7314,84.6875,715.5267,84.3591,706.3221,84.5816,697.1174,85.1185,687.9128,84.1649,678.7081,84.7397,669.5035,84.7129,660.2988,84.5573,651.0942,84.5804,641.8895,84.5552,632.6849,83.8799,623.4802,84.0844,614.2756,84.0288,605.0709,84.5098,595.8663,84.532,586.6616,84.5994,577.457,84.1849,568.2523,84.3895,559.0477,84.3413,549.843,84.9795,540.6384,84.8419,531.4337,84.0068,522.2291,84.3846,513.0244,83.9228,503.8198,84.7154,494.6151,85.0084,485.4105,84.9499,476.2058,84.0526,467.0012,84.8761,457.7965,83.7712,448.5919,84.6346,439.3872,84.1773,430.1826,84.5399,420.9779,84.6714,411.7733,84.8836,402.5686,83.7922,393.364,84.8867,384.1593,84.6145,374.9547,84.7767,365.75,85.136,356.5454,84.4563,347.3407,84.6118,338.1361,84.6467,328.9314,84.6319,319.7268,84.4506,310.5221,85.102,301.3175,83.8931,292.1128,84.9689,282.9082,83.88,273.7035,83.9566,264.4989,84.488,255.2942,84.4772,246.0895,84.0001,236.8849,84.8301,227.6802,84.551,218.4756,85.1166,209.2709,85.0621,200.0663,84.0409,190.8616,84.087,181.657,84.3331,172.4523,84.7768,163.2477,84.8203,154.043,84.7271,144.8384,84.1383,135.6337,85.034,126.4291,85.0316,117.2244,84.408,108.0198,84.2325,98.8151,84.0838,89.6105,84.2549,80.4058,84.5771,71.2012,84.3887,61.9965,84.0688,52.7919,84.8976,43.5872,84.0311,34.3826,84.9113,25.1779,84.4513,25.2278,84.5718,24.2503,84.1539,23.3166,83.8421,22.2359,83.1753,21.2584,82.7576,20.3224,82.4401,20.4687,82.5007,19.7519,81.3993,19.452,80.4706,19.1483,79.5403,18.7328,78.5637,18.3112,77.5846,17.983,77.5846,18.2719,68.0188,18.9929,58.4531,18.9049,48.8873,17.7653,39.3215,18.3112,29.7557,18.3334,29.7649,18.5686,28.7246,19.1083,27.8105,19.6006,26.8767,20.0386,25.9204,20.3224,24.9002,20.2448,24.7128,21.3403,24.6109,22.2656,24.0981,23.1709,23.5369,24.1518,23.1585,25.1779,22.889" style="stroke:#000000;stroke-width:0.9156;"/><text fill="#1E90FF" font-family="Arial" font-size="18.3112" font-weight="bold" lengthAdjust="spacing" textLength="750.3016" x="36.6224" y="60.7749">Diagrama de sequ&#234;ncia - M&#243;dulo de Interface e Opera&#231;&#227;o (MIO) - IHM Operacional</text><!--SRC=[dLJ1RjD04BtlLmo-9B5Kfo1Eha2AcXGYqJggsvwuJEn9kk3TJNVjIF0tY0E2QyKN-CUONSSbBJsW-EGuC-_DlFTsNqXTL4r9C9sTvSccKPKGMDJ6GfHjo69fR0Je85k8fMbqYVOBHFFtvv4eZAwjgI2NhYQ5lYY_4c8y41cutRVfx6O63ADaBItSDGID0hF3vQgAT2493625LX4ueuqre16O8W6Hass_0JCvMOOcm9fqAVdbha5TcXJ444TmhM1fwlQxWUYIkFoM2h8m2Q1HpuEMYPnH9zop747MaswbQx0AOw8EZLZBhQTgVu8bPwgc_S7Olg_mVRGbNHjOyGgMrhngc6o3baLeIidYIKp4O2p4uCr1ZnZ0iyzSoqAQmr4NtWddsj_aKk-otBASthM7TvQTfvwvscyaFHrMAKnWXTKjmYSsmnJ6Mch4hJPSRxOiLtwLmgw5WtJcIrFug27ltCmkO0mtdSZPHI94je2ZjvugXPmgufKqU_ECSudW8b_B8-PNtKiAxonk4IQzqZ2yx4mmK8mO_Uba7zhxjIpGZzOpIEKD33E-J61Ahf9hv77L7XQEJlp_hn8uHyr9KFqAan2EluNBGEh7wvUQr5mdlsBtAmYXG3KipvWt8rjZdpaENCrXJXuR49Pci2XRHEcEbk522A5yE2mhgR4I9JtgJPBamIvET3Y8NP8TsIxDMraYDpiMnUj0m3t_g9QJTfnloOUDjMCVrTuClD8msCoAxW1PXFzsQ5-hIrBCsSkoazZZdngrgQZs5Fj23mwC_eMfaKD_OBkeQCtt3jHc8-9uAd5jKOL8ERfhsb_-Te4ZE6_lowOAfs3EmjeL5WG4uIBjb1kUpxCHLtgBm-SG_YgEXOVlM8HO6VR22gOwHMUSnxjsB9vPiah6nN4g62EE6Upe-FXr73z9jc_eZf23uQJuF3e9y3lOFm00]--></g></svg>