<svg xmlns="http://www.w3.org/2000/svg" xmlns:xlink="http://www.w3.org/1999/xlink" contentStyleType="text/css" data-diagram-type="SEQUENCE" height="750.1363px" preserveAspectRatio="none" style="width:1257px;height:750px;background:#EEEBDC;" version="1.1" viewBox="0 0 1257 750" width="1257.6223px" zoomAndPan="magnify"><defs/><g><rect fill="#EEEBDC" height="750.1363" style="stroke:none;stroke-width:1.3866;" width="1257.6223" x="0" y="0"/><g><title>Linha de produ..o</title><polygon fill="#A9DCDF" points="420.8895,319.0505,420.8895,319.1476,423.6626,318.859,426.4358,319.1398,429.2089,319.2352,431.9821,318.7208,434.7552,319.0505,434.6475,319.0505,434.1638,332.7889,434.2235,346.5272,434.6607,360.2656,433.7966,374.0039,435.5229,387.7423,433.8813,401.4806,434.481,415.219,435.3541,428.9573,434.6363,442.6957,434.8498,456.434,434.7109,470.1724,435.0027,483.9107,435.0868,497.6491,435.5673,511.3874,435.6857,525.1258,434.7552,538.8641,434.7552,539.1781,431.9821,538.9818,429.2089,539.0784,426.4358,539.1887,423.6626,538.5308,420.8895,538.8641,421.8303,538.8641,420.4783,525.1258,421.6296,511.3874,420.2031,497.6491,420.7945,483.9107,421.9178,470.1724,420.8219,456.434,421.0355,442.6957,421.359,428.9573,421.4666,415.219,420.8841,401.4806,421.2877,387.7423,420.0958,374.0039,421.2838,360.2656,421.6496,346.5272,421.5058,332.7889,420.8895,319.0505" style="stroke:#181818;stroke-width:1.3866;"/></g><g><title>Contagem em tempo real</title><polygon fill="#A9DCDF" points="699.7371,363.0132,699.7371,363.1104,702.5103,362.8217,705.2834,363.1026,708.0566,363.198,710.8297,362.6835,713.6028,363.0132,713.4951,363.0132,713.0115,376.202,713.0711,389.3909,713.5083,402.5797,712.6442,415.7685,714.3705,428.9573,712.7289,442.1461,713.3286,455.3349,714.2018,468.5238,713.4839,481.7126,713.6028,494.9014,713.6028,494.9329,710.8297,494.8866,708.0566,494.9839,705.2834,495.0119,702.5103,495.1721,699.7371,494.9014,700.6676,494.9014,700.6789,481.7126,700.0902,468.5238,700.3799,455.3349,700.7108,442.1461,698.7371,428.9573,700.6779,415.7685,699.326,402.5797,700.4773,389.3909,699.0507,376.202,699.7371,363.0132" style="stroke:#181818;stroke-width:1.3866;"/></g><g><title>Status do sistema</title><polygon fill="#A9DCDF" points="972.8804,406.9759,972.8804,407.0731,975.6535,406.7845,978.4267,407.0653,981.1998,407.1607,983.973,406.6462,986.7461,406.9759,986.7102,406.9759,986.549,415.7685,986.5689,424.561,986.7146,433.3536,986.4266,442.1461,986.7461,450.9387,986.7461,451.1946,983.973,450.6474,981.1998,450.8473,978.4267,451.1383,975.6535,450.899,972.8804,450.9387,972.9119,450.9387,972.8656,442.1461,972.9629,433.3536,972.9909,424.561,973.1511,415.7685,972.8804,406.9759" style="stroke:#181818;stroke-width:1.3866;"/></g><g><title>Operador</title><polygon fill="#000000" fill-opacity="0.00000" points="213.6354,272.3146,213.6354,272.4118,215.854,272.1231,218.0725,272.404,220.291,272.4994,222.5095,271.9849,224.728,272.3146,224.6203,272.3146,224.1367,286.196,224.1963,300.0773,224.6335,313.9586,223.7694,327.8399,225.4957,341.7213,223.8541,355.6026,224.4538,369.4839,225.3269,383.3652,224.6091,397.2466,224.8226,411.1279,224.6837,425.0092,224.9756,438.8905,225.0596,452.7719,225.5401,466.6532,225.6585,480.5345,225.6699,494.4158,225.0811,508.2972,225.3708,522.1785,225.7017,536.0598,223.728,549.9411,224.728,563.8225,224.728,564.1361,222.5095,563.6854,220.291,564.0692,218.0725,563.5937,215.854,563.7908,213.6354,563.8225,214.6637,563.8225,213.5679,549.9411,213.7814,536.0598,214.105,522.1785,214.2126,508.2972,213.63,494.4158,214.0337,480.5345,212.8417,466.6532,214.0298,452.7719,214.3955,438.8905,214.2518,425.0092,214.4854,411.1279,212.9656,397.2466,212.7311,383.3652,212.7738,369.4839,213.5538,355.6026,213.3629,341.7213,214.5803,327.8399,213.3932,313.9586,213.1598,300.0773,213.9519,286.196,213.6354,272.3146"/><path d="M218.0456,272.3146 L218.4342,272.3146 L217.2796,286.196 L218.4029,300.0773 L218.7845,313.9586 L216.7267,327.8399 L217.9019,341.7213 L217.2571,355.6026 L217.3366,369.4839 L217.9196,383.3652 L216.7674,397.2466 L219.0691,411.1279 L216.8803,425.0092 L217.68,438.8905 L218.8441,452.7719 L217.887,466.6532 L218.1717,480.5345 L217.9865,494.4158 L218.3756,508.2972 L218.4877,522.1785 L219.1284,536.0598 L219.2862,549.9411 L218.0456,563.8225" fill="none" style="stroke:#0000FF;stroke-width:0.6933;stroke-dasharray:6.9329,6.9329;"/></g><g><title>Linha de produ..o</title><polygon fill="#000000" fill-opacity="0.00000" points="422.276,272.3146,422.276,272.4118,424.4946,272.1231,426.7131,272.404,428.9316,272.4994,431.1501,271.9849,433.3686,272.3146,433.2609,272.3146,432.7773,286.196,432.8369,300.0773,433.2741,313.9586,432.41,327.8399,434.1363,341.7213,432.4947,355.6026,433.0944,369.4839,433.9676,383.3652,433.2497,397.2466,433.4632,411.1279,433.3243,425.0092,433.6162,438.8905,433.7002,452.7719,434.1807,466.6532,434.2991,480.5345,434.3105,494.4158,433.7217,508.2972,434.0114,522.1785,434.3423,536.0598,432.3687,549.9411,433.3686,563.8225,433.3686,564.1361,431.1501,563.6854,428.9316,564.0692,426.7131,563.5937,424.4946,563.7908,422.276,563.8225,423.3043,563.8225,422.2085,549.9411,422.4221,536.0598,422.7456,522.1785,422.8532,508.2972,422.2706,494.4158,422.6743,480.5345,421.4823,466.6532,422.6704,452.7719,423.0362,438.8905,422.8924,425.0092,423.126,411.1279,421.6062,397.2466,421.3717,383.3652,421.4144,369.4839,422.1944,355.6026,422.0035,341.7213,423.2209,327.8399,422.0338,313.9586,421.8004,300.0773,422.5926,286.196,422.276,272.3146"/><path d="M426.8312,272.3146 L427.2198,272.3146 L426.0652,286.196 L427.1885,300.0773 L427.5701,313.9586 L425.5123,327.8399 L426.6875,341.7213 L426.0427,355.6026 L426.1222,369.4839 L426.7052,383.3652 L425.553,397.2466 L427.8547,411.1279 L425.666,425.0092 L426.4656,438.8905 L427.6298,452.7719 L426.6726,466.6532 L426.9574,480.5345 L426.7721,494.4158 L427.1612,508.2972 L427.2733,522.1785 L427.914,536.0598 L428.0718,549.9411 L426.8312,563.8225" fill="none" style="stroke:#0000FF;stroke-width:0.6933;stroke-dasharray:6.9329,6.9329;"/></g><g><title>Contagem em tempo real</title><polygon fill="#000000" fill-opacity="0.00000" points="701.1237,272.3146,701.1237,272.4118,703.3422,272.1231,705.5607,272.404,707.7792,272.4994,709.9978,271.9849,712.2163,272.3146,712.1085,272.3146,711.6249,286.196,711.6845,300.0773,712.1218,313.9586,711.2576,327.8399,712.9839,341.7213,711.3423,355.6026,711.9421,369.4839,712.8152,383.3652,712.0973,397.2466,712.3109,411.1279,712.172,425.0092,712.4638,438.8905,712.5478,452.7719,713.0284,466.6532,713.1467,480.5345,713.1581,494.4158,712.5693,508.2972,712.8591,522.1785,713.19,536.0598,711.2163,549.9411,712.2163,563.8225,712.2163,564.1361,709.9978,563.6854,707.7792,564.0692,705.5607,563.5937,703.3422,563.7908,701.1237,563.8225,702.152,563.8225,701.0561,549.9411,701.2697,536.0598,701.5932,522.1785,701.7008,508.2972,701.1183,494.4158,701.5219,480.5345,700.33,466.6532,701.518,452.7719,701.8838,438.8905,701.7401,425.0092,701.9737,411.1279,700.4539,397.2466,700.2194,383.3652,700.2621,369.4839,701.042,355.6026,700.8512,341.7213,702.0685,327.8399,700.8815,313.9586,700.648,300.0773,701.4402,286.196,701.1237,272.3146"/><path d="M706.1282,272.3146 L706.5168,272.3146 L705.3622,286.196 L706.4855,300.0773 L706.8671,313.9586 L704.8093,327.8399 L705.9845,341.7213 L705.3397,355.6026 L705.4192,369.4839 L706.0022,383.3652 L704.85,397.2466 L707.1518,411.1279 L704.963,425.0092 L705.7626,438.8905 L706.9268,452.7719 L705.9696,466.6532 L706.2544,480.5345 L706.0691,494.4158 L706.4583,508.2972 L706.5703,522.1785 L707.211,536.0598 L707.3688,549.9411 L706.1282,563.8225" fill="none" style="stroke:#0000FF;stroke-width:0.6933;stroke-dasharray:6.9329,6.9329;"/></g><g><title>Status do sistema</title><polygon fill="#000000" fill-opacity="0.00000" points="974.2669,272.3146,974.2669,272.4118,976.4855,272.1231,978.704,272.404,980.9225,272.4994,983.141,271.9849,985.3595,272.3146,985.2518,272.3146,984.7682,286.196,984.8278,300.0773,985.265,313.9586,984.4009,327.8399,986.1272,341.7213,984.4856,355.6026,985.0853,369.4839,985.9585,383.3652,985.2406,397.2466,985.4541,411.1279,985.3152,425.0092,985.6071,438.8905,985.6911,452.7719,986.1716,466.6532,986.29,480.5345,986.3014,494.4158,985.7126,508.2972,986.0023,522.1785,986.3332,536.0598,984.3596,549.9411,985.3595,563.8225,985.3595,564.1361,983.141,563.6854,980.9225,564.0692,978.704,563.5937,976.4855,563.7908,974.2669,563.8225,975.2952,563.8225,974.1994,549.9411,974.4129,536.0598,974.7365,522.1785,974.8441,508.2972,974.2615,494.4158,974.6652,480.5345,973.4732,466.6532,974.6613,452.7719,975.0271,438.8905,974.8833,425.0092,975.1169,411.1279,973.5971,397.2466,973.3626,383.3652,973.4053,369.4839,974.1853,355.6026,973.9944,341.7213,975.2118,327.8399,974.0247,313.9586,973.7913,300.0773,974.5835,286.196,974.2669,272.3146"/><path d="M978.9802,272.3146 L979.3688,272.3146 L978.2142,286.196 L979.3375,300.0773 L979.7191,313.9586 L977.6613,327.8399 L978.8365,341.7213 L978.1917,355.6026 L978.2712,369.4839 L978.8542,383.3652 L977.702,397.2466 L980.0037,411.1279 L977.8149,425.0092 L978.6146,438.8905 L979.7787,452.7719 L978.8216,466.6532 L979.1063,480.5345 L978.9211,494.4158 L979.3102,508.2972 L979.4223,522.1785 L980.063,536.0598 L980.2208,549.9411 L978.9802,563.8225" fill="none" style="stroke:#0000FF;stroke-width:0.6933;stroke-dasharray:6.9329,6.9329;"/></g><g class="participant participant-head" data-participant="Operador"><text fill="#1E90FF" font-family="Aapex" font-size="23.5718" lengthAdjust="spacing" textLength="107.6519" x="161.1961" y="265.4081">Operador</text><polygon fill="#00BFFF" points="230.3356,171.4996,228.7096,173.7213,226.7864,176.9754,224.0359,179.1684,221.1455,180.3676,218.8409,180.4717,215.8789,178.9719,213.084,177.9921,210.9627,176.0027,209.8499,173.7253,209.19,171.9119,208.5435,169.5433,207.4942,167.5051,208.3005,165.515,209.007,163.335,211.6582,161.6109,213.5235,159.3738,215.8322,158.631,218.5768,157.9913,222.0965,158.3713,224.0242,159.2805,226.2656,159.6926,228.9908,162.4847,229.9408,165.4323,230.3536,167.4435,229.886,170.7576" style="stroke:#00BFFF;stroke-width:0.6933;"/><path d="M219.1817,179.894 L219.4408,179.894 L218.6711,187.3815 L219.42,194.869 L219.6743,202.3565 L218.3025,209.844 L219.1817,217.3315 M201.1563,190.9866 L201.1563,190.8908 L208.3665,190.461 L215.5766,190.5139 L222.7868,190.9026 L229.997,190.1345 L237.2072,190.9866 M219.1817,217.3315 L219.6974,217.7784 L214.9896,220.9825 L211.7873,225.4913 L208.7688,230.1593 L204.6815,233.9012 L201.1563,238.1301 M219.1817,217.3315 L219.2453,217.3866 L222.7571,221.4654 L226.5582,225.7951 L230.2197,230.0037 L234.1476,234.4432 L237.2072,238.1301" fill="none" style="stroke:#00BFFF;stroke-width:0.6933;"/></g><g class="participant participant-head" data-participant="A"><polygon fill="#1E90FF" points="317.9852,219.4114,317.9852,219.7028,331.7148,218.8369,345.4445,219.6794,359.1741,219.9656,372.9038,218.4222,386.6334,219.3036,400.363,218.82,414.0927,218.8796,427.8223,219.3169,441.552,218.4527,455.2816,220.179,469.0113,218.5374,482.7409,219.1372,496.4706,220.0103,510.2002,219.2924,523.9299,219.506,537.6595,219.4114,537.6539,219.3977,538.1813,219.6907,538.6823,219.9196,539.2338,220.2706,539.7391,220.5102,540.1106,220.4267,540.4007,220.5468,540.4224,220.9619,540.7147,221.4891,541.0197,222.0216,540.6149,222.26,541.1259,222.8778,541.4395,222.8778,540.9889,231.7946,541.3727,240.7113,540.8971,249.6281,541.0943,258.5449,541.1259,267.4616,541.4426,267.5928,540.9021,267.9432,540.7648,268.4607,540.6614,268.9922,540.4914,269.4961,540.1106,269.9128,540.11,269.9111,539.6712,270.2385,539.0289,270.0744,538.6903,270.6434,538.2467,270.9591,537.6595,270.9281,537.6595,271.5444,523.9299,271.7781,510.2002,270.2582,496.4706,270.0238,482.7409,270.0664,469.0113,270.8464,455.2816,270.6556,441.552,271.8729,427.8223,270.6858,414.0927,270.4524,400.363,271.2446,386.6334,270.0034,372.9038,270.2082,359.1741,271.8279,345.4445,271.5321,331.7148,271.9465,317.9852,270.9281,317.9283,270.7906,317.5514,270.8613,317.1091,270.774,316.4309,270.1172,316.0073,270.0749,315.534,269.9128,315.5878,269.935,315.6093,269.5378,315.1261,268.9316,315.1224,268.5239,314.4853,267.8539,314.5187,267.4616,314.2057,267.4616,314.7515,258.5449,314.1874,249.6281,314.754,240.7113,314.6142,231.7946,314.5187,222.8778,314.4043,222.8304,314.5707,222.325,315.1207,221.9785,315.0001,221.3542,315.5837,221.0216,315.534,220.4267,315.4363,220.1906,316.1335,220.4873,316.6001,220.2274,317.048,219.9221,317.5033,219.6346,317.9852,219.4114" style="stroke:#00BFFF;stroke-width:0.6933;"/><text fill="#A9DCDF" font-family="Impact" font-size="23.5718" lengthAdjust="spacing" textLength="207.1952" x="324.2248" y="254.3155">Linha de produ&#231;&#227;o</text></g><g class="participant participant-head" data-participant="B"><polygon fill="#1E90FF" points="558.4581,219.4114,558.4581,219.7028,572.5735,218.8369,586.6889,219.6794,600.8044,219.9656,614.9198,218.4222,629.0352,219.3036,643.1506,218.82,657.266,218.8796,671.3814,219.3169,685.4969,218.4527,699.6123,220.179,713.7277,218.5374,727.8431,219.1372,741.9585,220.0103,756.0739,219.2924,770.1893,219.506,784.3048,219.3671,798.4202,219.6589,812.5356,219.7429,826.651,220.2235,840.7664,220.3418,854.8818,219.4114,855.002,219.7014,855.4171,219.7232,855.9443,220.0154,856.4767,220.3204,856.7152,219.9157,857.333,220.4267,857.6227,220.5467,857.4094,220.8645,857.967,221.5015,857.7308,221.8098,858.116,222.3755,858.3483,222.8778,858.691,222.8778,858.3258,231.7946,858.3969,240.7113,858.5048,249.6281,858.5407,258.5449,858.3483,267.4616,858.3466,267.4609,858.2679,268.0026,857.6977,268.3408,857.8605,268.9826,857.7701,269.5195,857.333,269.9128,857.4116,270.1026,856.9512,270.3776,856.2671,270.1126,855.7469,270.2434,855.2622,270.4596,854.8818,270.9281,854.8818,270.8464,840.7664,270.6556,826.651,271.8729,812.5356,270.6858,798.4202,270.4524,784.3048,271.2446,770.1893,270.0034,756.0739,270.2082,741.9585,271.8279,727.8431,271.5321,713.7277,271.9465,699.6123,270.4819,685.4969,271.3706,671.3814,271.7467,657.266,270.273,643.1506,270.7951,629.0352,271.1027,614.9198,271.8318,600.8044,270.9222,586.6889,271.5694,572.5735,270.1602,558.4581,270.9281,558.3383,270.6389,558.057,270.94,557.3508,270.2158,557.0774,270.5362,556.5337,270.204,556.007,269.9128,555.8926,269.8654,555.6528,269.36,555.7967,269.0134,555.27,268.3891,555.4475,268.0565,554.9917,267.4616,554.7362,267.4616,555.277,258.5449,555.2155,249.6281,555.1049,240.7113,555.0135,231.7946,554.9917,222.8778,555.3019,223.0063,555.4567,222.4961,555.4701,221.9273,555.7154,221.4546,555.7483,220.8939,556.007,220.4267,556.1337,220.7326,556.5246,220.2897,557.018,220.0942,557.3701,219.5577,557.8962,219.4414,558.4581,219.4114" style="stroke:#00BFFF;stroke-width:0.6933;"/><text fill="#A9DCDF" font-family="Impact" font-size="23.5718" lengthAdjust="spacing" textLength="283.9446" x="564.6977" y="254.3155">Contagem em tempo real</text></g><g class="participant participant-head" data-participant="C"><polygon fill="#1E90FF" points="875.6804,219.4114,875.6804,219.7028,889.5648,218.8369,903.4492,219.6794,917.3336,219.9656,931.2179,218.4222,945.1023,219.3036,958.9867,218.82,972.871,218.8796,986.7554,219.3169,1000.6398,218.4527,1014.5242,220.179,1028.4085,218.5374,1042.2929,219.1372,1056.1773,220.0103,1070.0616,219.2924,1083.946,219.4114,1083.9581,219.4405,1084.4306,219.6008,1084.9581,219.8937,1085.459,220.1227,1086.0105,220.4737,1086.3972,220.4267,1086.6837,220.5454,1086.8903,221.037,1086.912,221.4522,1087.2043,221.9793,1087.5093,222.5118,1087.4125,222.8778,1087.0791,222.8778,1087.7261,231.7946,1087.2754,240.7113,1087.6592,249.6281,1087.1837,258.5449,1087.4125,267.4616,1087.3832,267.4495,1087.5261,268.083,1086.9855,268.4335,1086.8482,268.9509,1086.7448,269.4824,1086.3972,269.9128,1086.4708,270.0905,1085.9062,270.1141,1085.4675,270.4415,1084.8252,270.2775,1084.4865,270.8464,1083.946,270.9281,1083.946,271.6882,1070.0616,271.5444,1056.1773,271.7781,1042.2929,270.2582,1028.4085,270.0238,1014.5242,270.0664,1000.6398,270.8464,986.7554,270.6556,972.871,271.8729,958.9867,270.6858,945.1023,270.4524,931.2179,271.2446,917.3336,270.0034,903.4492,270.2082,889.5648,271.8279,875.6804,270.9281,875.7575,271.1141,875.3201,271.0386,874.6431,270.3845,874.2662,270.4552,873.824,270.3679,873.2293,269.9128,873.0276,269.8292,872.9853,269.4056,872.877,268.9546,872.8984,268.5574,872.4153,267.9511,872.214,267.4616,872.4278,267.4616,871.9581,258.5449,871.901,249.6281,872.4468,240.7113,871.8827,231.7946,872.214,222.8778,872.4313,222.9678,872.5053,222.4241,872.5057,221.85,872.6721,221.3445,873.2221,220.998,873.2293,220.4267,873.1764,220.2988,873.8242,220.4763,874.112,219.7845,874.8092,220.0811,875.2759,219.8212,875.6804,219.4114" style="stroke:#00BFFF;stroke-width:0.6933;"/><text fill="#A9DCDF" font-family="Impact" font-size="23.5718" lengthAdjust="spacing" textLength="195.7864" x="881.92" y="254.3155">Status do sistema</text></g><g><title>Linha de produ..o</title><polygon fill="#A9DCDF" points="420.8895,319.0505,420.8895,319.1476,423.6626,318.859,426.4358,319.1398,429.2089,319.2352,431.9821,318.7208,434.7552,319.0505,434.6475,319.0505,434.1638,332.7889,434.2235,346.5272,434.6607,360.2656,433.7966,374.0039,435.5229,387.7423,433.8813,401.4806,434.481,415.219,435.3541,428.9573,434.6363,442.6957,434.8498,456.434,434.7109,470.1724,435.0027,483.9107,435.0868,497.6491,435.5673,511.3874,435.6857,525.1258,434.7552,538.8641,434.7552,539.1781,431.9821,538.9818,429.2089,539.0784,426.4358,539.1887,423.6626,538.5308,420.8895,538.8641,421.8303,538.8641,420.4783,525.1258,421.6296,511.3874,420.2031,497.6491,420.7945,483.9107,421.9178,470.1724,420.8219,456.434,421.0355,442.6957,421.359,428.9573,421.4666,415.219,420.8841,401.4806,421.2877,387.7423,420.0958,374.0039,421.2838,360.2656,421.6496,346.5272,421.5058,332.7889,420.8895,319.0505" style="stroke:#181818;stroke-width:1.3866;"/></g><g><title>Contagem em tempo real</title><polygon fill="#A9DCDF" points="699.7371,363.0132,699.7371,363.1104,702.5103,362.8217,705.2834,363.1026,708.0566,363.198,710.8297,362.6835,713.6028,363.0132,713.4951,363.0132,713.0115,376.202,713.0711,389.3909,713.5083,402.5797,712.6442,415.7685,714.3705,428.9573,712.7289,442.1461,713.3286,455.3349,714.2018,468.5238,713.4839,481.7126,713.6028,494.9014,713.6028,494.9329,710.8297,494.8866,708.0566,494.9839,705.2834,495.0119,702.5103,495.1721,699.7371,494.9014,700.6676,494.9014,700.6789,481.7126,700.0902,468.5238,700.3799,455.3349,700.7108,442.1461,698.7371,428.9573,700.6779,415.7685,699.326,402.5797,700.4773,389.3909,699.0507,376.202,699.7371,363.0132" style="stroke:#181818;stroke-width:1.3866;"/></g><g><title>Status do sistema</title><polygon fill="#A9DCDF" points="972.8804,406.9759,972.8804,407.0731,975.6535,406.7845,978.4267,407.0653,981.1998,407.1607,983.973,406.6462,986.7461,406.9759,986.7102,406.9759,986.549,415.7685,986.5689,424.561,986.7146,433.3536,986.4266,442.1461,986.7461,450.9387,986.7461,451.1946,983.973,450.6474,981.1998,450.8473,978.4267,451.1383,975.6535,450.899,972.8804,450.9387,972.9119,450.9387,972.8656,442.1461,972.9629,433.3536,972.9909,424.561,973.1511,415.7685,972.8804,406.9759" style="stroke:#181818;stroke-width:1.3866;"/></g><g class="message" data-participant-1="Operador" data-participant-2="A"><polygon fill="#00BFFF" points="404.2506,313.5042,404.2867,313.5944,406.9526,314.4357,409.8301,315.8057,412.6386,317.0035,415.2207,317.6351,418.1163,319.0505,418.103,319.0171,415.27,319.9767,412.5042,321.1044,409.7852,322.349,406.9051,323.1908,404.2506,324.5968,404.4315,324.7777,405.1539,323.2815,406.4045,322.3136,407.7195,321.4102,408.6596,320.1317,409.7969,319.0505,409.8192,319.0728,408.6772,317.9308,407.6367,316.8903,406.5473,315.8009,405.5513,314.8049,404.2506,313.5042" style="stroke:#00BFFF;stroke-width:1.3866;"/><path d="M219.1817,319.0505 L219.1817,319.4391 L232.9952,318.2845 L246.8086,319.4078 L260.6221,319.7894 L274.4355,317.7316 L288.249,318.9068 L302.0624,318.262 L315.8759,318.3415 L329.6893,318.9245 L343.5028,317.7723 L357.3162,320.0741 L371.1297,317.8853 L384.9431,318.6849 L398.7566,319.8491 L412.57,319.0505" fill="none" style="stroke:#00BFFF;stroke-width:1.3866;"/><text fill="#000000" font-family="sans-serif" font-size="18.0255" lengthAdjust="spacing" textLength="105.485" x="228.8877" y="310.9959">Iniciar/Parar</text></g><g class="message" data-participant-1="Operador" data-participant-2="B"><polygon fill="#00BFFF" points="683.0982,357.4669,683.1343,357.5571,685.8003,358.3984,688.6777,359.7684,691.4863,360.9662,694.0684,361.5978,696.964,363.0132,696.9506,362.9799,694.1176,363.9395,691.3518,365.0672,688.6328,366.3118,685.7527,367.1536,683.0982,368.5595,683.2792,368.7405,684.0015,367.2443,685.2521,366.2764,686.5672,365.3729,687.5072,364.0944,688.6445,363.0132,688.6668,363.0355,687.5248,361.8935,686.4843,360.8531,685.3949,359.7636,684.3989,358.7676,683.0982,357.4669" style="stroke:#00BFFF;stroke-width:1.3866;"/><path d="M219.1817,363.0132 L219.1817,363.4018 L233.071,362.2472 L246.9603,363.3706 L260.8496,363.7521 L274.7389,361.6943 L288.6282,362.8696 L302.5175,362.2247 L316.4068,362.3042 L330.2961,362.8872 L344.1854,361.735 L358.0747,364.0368 L371.9639,361.848 L385.8532,362.6476 L399.7425,363.8118 L413.6318,362.8546 L427.5211,363.1394 L441.4104,362.9542 L455.2997,363.3433 L469.189,363.4553 L483.0783,364.096 L496.9676,364.2538 L510.8569,364.269 L524.7462,363.484 L538.6355,363.8703 L552.5247,364.3115 L566.414,361.6799 L580.3033,364.2676 L594.1926,362.4651 L608.0819,364.0001 L621.9712,362.098 L635.8605,362.8866 L649.7498,364.3843 L663.6391,362.9231 L677.5284,363.2079 L691.4177,363.0132" fill="none" style="stroke:#00BFFF;stroke-width:1.3866;"/><text fill="#000000" font-family="sans-serif" font-size="18.0255" lengthAdjust="spacing" textLength="67.4693" x="228.8877" y="354.9586">Solicitar</text></g><g class="message" data-participant-1="Operador" data-participant-2="C"><polygon fill="#00BFFF" points="956.2415,401.4297,956.2776,401.5199,958.9435,402.3611,961.821,403.7311,964.6295,404.9289,967.2116,405.5605,970.1072,406.9759,970.0939,406.9426,967.2609,407.9022,964.4951,409.0299,961.7761,410.2745,958.896,411.1163,956.2415,412.5222,956.4224,412.7032,957.1448,411.207,958.3954,410.2391,959.7104,409.3356,960.6505,408.0572,961.7878,406.9759,961.8101,406.9983,960.6681,405.8562,959.6276,404.8158,958.5382,403.7263,957.5422,402.7303,956.2415,401.4297" style="stroke:#00BFFF;stroke-width:1.3866;"/><path d="M219.1817,406.9759 L219.1817,407.3645 L232.985,406.21 L246.7884,407.3333 L260.5917,407.7149 L274.395,405.6571 L288.1983,406.8323 L302.0016,406.1875 L315.805,406.267 L329.6083,406.8499 L343.4116,405.6978 L357.2149,407.9995 L371.0182,405.8107 L384.8216,406.6103 L398.6249,407.7745 L412.4282,406.8174 L426.2315,407.1021 L440.0348,406.9169 L453.8381,407.306 L467.6415,407.4181 L481.4448,408.0588 L495.2481,408.2166 L509.0514,408.2317 L522.8547,407.4467 L536.6581,407.833 L550.4614,408.2742 L564.2647,405.6426 L578.068,408.2304 L591.8713,406.4278 L605.6746,407.9628 L619.478,406.0608 L633.2813,406.8493 L647.0846,408.347 L660.8879,406.8859 L674.6912,407.1706 L688.4946,407.602 L702.2979,407.7455 L716.1012,406.9687 L729.9045,407.5069 L743.7078,405.9177 L757.5111,407.5017 L771.3145,407.9894 L785.1178,407.7978 L798.9211,408.1093 L812.7244,406.0828 L826.5277,405.7702 L840.3311,405.8271 L854.1344,406.8671 L867.9377,406.6126 L881.741,408.2357 L895.5443,406.653 L909.3477,406.3417 L923.151,407.398 L936.9543,405.7431 L950.7576,406.0162 L964.5609,406.9759" fill="none" style="stroke:#00BFFF;stroke-width:1.3866;"/><text fill="#000000" font-family="sans-serif" font-size="18.0255" lengthAdjust="spacing" textLength="67.4693" x="228.8877" y="398.9213">Solicitar</text></g><g class="message" data-participant-1="C" data-participant-2="Operador"><polygon fill="#00BFFF" points="234.434,445.3924,234.4701,445.4826,231.5898,446.3238,228.9209,447.6938,226.1832,448.8917,223.219,449.5233,220.5683,450.9387,220.555,450.9053,223.2682,451.8649,226.0488,452.9926,228.876,454.2372,231.5422,455.079,234.434,456.485,234.615,456.6659,233.1188,455.1697,232.1509,454.2018,231.2474,453.2984,229.969,452.0199,228.8877,450.9387,228.91,450.961,229.9866,449.819,231.1646,448.7785,232.2937,447.6891,233.5162,446.6931,234.434,445.3924" style="stroke:#00BFFF;stroke-width:1.3866;"/><path d="M226.1146,450.9387 L226.1146,451.3273 L240.0463,450.1727 L253.978,451.296 L267.9097,451.6776 L281.8414,449.6198 L295.7731,450.795 L309.7048,450.1502 L323.6365,450.2297 L337.5682,450.8127 L351.4999,449.6605 L365.4316,451.9622 L379.3634,449.7734 L393.2951,450.5731 L407.2268,451.7372 L421.1585,450.7801 L435.0902,451.0648 L449.0219,450.8796 L462.9536,451.2687 L476.8853,451.3808 L490.817,452.0215 L504.7487,452.1793 L518.6804,452.1945 L532.6121,451.4094 L546.5438,451.7957 L560.4755,452.2369 L574.4072,449.6054 L588.3389,452.1931 L602.2706,450.3905 L616.2023,451.9256 L630.134,450.0235 L644.0657,450.812 L657.9974,452.3097 L671.9292,450.8486 L685.8609,451.1334 L699.7926,451.5647 L713.7243,451.7082 L727.656,450.9315 L741.5877,451.4697 L755.5194,449.8804 L769.4511,451.4644 L783.3828,451.9522 L797.3145,451.7605 L811.2462,452.072 L825.1779,450.0456 L839.1096,449.7329 L853.0413,449.7899 L866.973,450.8298 L880.9047,450.5753 L894.8364,452.1984 L908.7681,450.6157 L922.6998,450.3045 L936.6315,451.3607 L950.5633,449.7058 L964.495,449.9789 L978.4267,450.9387" fill="none" style="stroke:#00BFFF;stroke-width:1.3866;stroke-dasharray:2.7731,2.7731;"/><text fill="#000000" font-family="sans-serif" font-size="18.0255" lengthAdjust="spacing" textLength="124.8805" x="242.7535" y="442.8841">Mostrar Status</text></g><g class="message" data-participant-1="B" data-participant-2="Operador"><polygon fill="#00BFFF" points="234.434,489.3551,234.4701,489.4453,231.5898,490.2866,228.9209,491.6566,226.1832,492.8544,223.219,493.486,220.5683,494.9014,220.555,494.8681,223.2682,495.8276,226.0488,496.9553,228.876,498.1999,231.5422,499.0417,234.434,500.4477,234.615,500.6286,233.1188,499.1324,232.1509,498.1645,231.2474,497.2611,229.969,495.9826,228.8877,494.9014,228.91,494.9237,229.9866,493.7817,231.1646,492.7412,232.2937,491.6518,233.5162,490.6558,234.434,489.3551" style="stroke:#00BFFF;stroke-width:1.3866;"/><path d="M226.1146,494.9014 L226.1146,495.29 L239.8051,494.1354 L253.4957,495.2587 L267.1862,495.6403 L280.8767,493.5825 L294.5673,494.7577 L308.2578,494.1129 L321.9484,494.1924 L335.6389,494.7754 L349.3294,493.6232 L363.02,495.925 L376.7105,493.7362 L390.401,494.5358 L404.0916,495.7 L417.7821,494.7428 L431.4727,495.0276 L445.1632,494.8423 L458.8537,495.2315 L472.5443,495.3435 L486.2348,495.9842 L499.9253,496.142 L513.6159,496.1572 L527.3064,495.3721 L540.997,495.7585 L554.6875,496.1997 L568.378,493.5681 L582.0686,496.1558 L595.7591,494.3532 L609.4496,495.8883 L623.1402,493.9862 L636.8307,494.7748 L650.5213,496.2725 L664.2118,494.8113 L677.9023,495.0961 L691.5929,495.5274 L705.2834,494.9014" fill="none" style="stroke:#00BFFF;stroke-width:1.3866;stroke-dasharray:2.7731,2.7731;"/><text fill="#000000" font-family="sans-serif" font-size="18.0255" lengthAdjust="spacing" textLength="172.3055" x="242.7535" y="486.8468">Mostrar a contagem</text></g><g class="message" data-participant-1="A" data-participant-2="Operador"><polygon fill="#00BFFF" points="234.434,533.3178,234.4701,533.408,231.5898,534.2493,228.9209,535.6193,226.1832,536.8171,223.219,537.4487,220.5683,538.8641,220.555,538.8308,223.2682,539.7904,226.0488,540.9181,228.876,542.1627,231.5422,543.0045,234.434,544.4104,234.615,544.5914,233.1188,543.0952,232.1509,542.1273,231.2474,541.2238,229.969,539.9454,228.8877,538.8641,228.91,538.8864,229.9866,537.7444,231.1646,536.704,232.2937,535.6145,233.5162,534.6185,234.434,533.3178" style="stroke:#00BFFF;stroke-width:1.3866;"/><path d="M226.1146,538.8641 L226.1146,539.2527 L240.4233,538.0981 L254.7319,539.2215 L269.0406,539.603 L283.3492,537.5452 L297.6579,538.7205 L311.9665,538.0756 L326.2752,538.1551 L340.5838,538.7381 L354.8925,537.5859 L369.2011,539.8877 L383.5098,537.6989 L397.8185,538.4985 L412.1271,539.6627 L426.4358,538.8641" fill="none" style="stroke:#00BFFF;stroke-width:1.3866;stroke-dasharray:2.7731,2.7731;"/><text fill="#000000" font-family="sans-serif" font-size="18.0255" lengthAdjust="spacing" textLength="168.43" x="242.7535" y="530.8095">Opera&#231;&#227;o finalizada</text></g><text fill="#1E90FF" font-family="Arial" font-size="19.412" lengthAdjust="spacing" textLength="5.0471" x="41.5972" y="613.6919">&#160;</text><text fill="#1E90FF" font-family="Arial" font-size="19.412" lengthAdjust="spacing" textLength="5.0471" x="41.5972" y="640.1309">&#160;</text><text fill="#1E90FF" font-family="Arial" font-size="19.412" font-weight="bold" lengthAdjust="spacing" textLength="215.298" x="41.5972" y="666.57">Casos de Uso cobertos</text><text fill="#1E90FF" font-family="Arial" font-size="19.412" lengthAdjust="spacing" textLength="5.2024" x="256.8952" y="666.57">:</text><text fill="#1E90FF" font-family="Arial" font-size="19.412" lengthAdjust="spacing" textLength="6.2506" x="41.5972" y="693.0091">-</text><text fill="#1E90FF" font-family="Arial" font-size="19.412" font-weight="bold" lengthAdjust="spacing" textLength="80.8702" x="52.895" y="693.0091">MIO-001</text><text fill="#1E90FF" font-family="Arial" font-size="19.412" lengthAdjust="spacing" textLength="256.1214" x="138.8123" y="693.0091">Interface de opera&#231;&#227;o (IHM)</text><polygon fill="none" points="38.1308,34.6643,38.1308,34.9558,52.0708,34.0899,66.0108,34.9323,79.9508,35.2185,93.8908,33.6752,107.8308,34.5566,121.7708,34.073,135.7108,34.1326,149.6508,34.5698,163.5908,33.7057,177.5308,35.432,191.4708,33.7904,205.4108,34.3901,219.3508,35.2633,233.2908,34.5454,247.2308,34.759,261.1708,34.62,275.1109,34.9119,289.0509,34.9959,302.9909,35.4764,316.9309,35.5948,330.8709,35.6062,344.8109,35.0174,358.7509,35.3071,372.6909,35.638,386.6309,33.6644,400.5709,35.6051,414.5109,34.2532,428.4509,35.4045,442.3909,33.978,456.3309,34.5694,470.2709,35.6926,484.2109,34.5968,498.1509,34.8103,512.0909,35.1339,526.0309,35.2415,539.9709,34.6589,553.9109,35.0626,567.851,33.8706,581.791,35.0587,595.731,35.4245,609.671,35.2807,623.611,35.5143,637.551,33.9945,651.491,33.76,665.431,33.8027,679.371,34.5827,693.311,34.3918,707.251,35.6092,721.191,34.4221,735.131,34.1887,749.071,34.9809,763.011,33.7397,776.951,33.9445,790.891,35.5642,804.831,35.2684,818.771,35.6828,832.711,34.2181,846.651,35.1069,860.591,35.483,874.5311,34.0093,888.4711,34.5314,902.4111,34.839,916.3511,35.5681,930.2911,34.6585,944.2311,35.3057,958.1711,33.8965,972.1111,33.7253,986.0511,35.3626,999.9911,33.6702,1013.9311,35.3701,1027.8711,34.9508,1041.8111,34.2929,1055.7511,34.1738,1069.6911,35.3004,1083.6311,34.2493,1097.5711,35.485,1111.5111,33.8979,1125.4511,35.5204,1139.3911,35.3359,1153.3311,35.004,1167.2711,34.7298,1181.2112,35.6718,1195.1512,35.5151,1209.0912,34.6643,1209.1211,34.7366,1210.6093,35.388,1212.0095,35.8271,1213.6299,36.7978,1215.0013,37.1672,1216.4446,37.7102,1216.5183,37.7407,1216.794,39.0733,1217.4899,40.5799,1218.4987,42.2162,1219.0648,43.669,1219.4905,45.0636,1219.4309,45.0636,1219.0438,59.5506,1219.1869,74.0375,1218.539,88.5244,1220.0655,103.0113,1219.4905,117.4982,1219.8063,117.629,1219.1061,119.062,1218.5689,120.5625,1217.6046,121.8861,1217.091,123.3964,1216.4446,124.8516,1216.376,124.6861,1215.0241,125.5821,1213.5469,126.1754,1212.1302,126.915,1210.5212,127.1903,1209.0912,127.8975,1209.0912,127.7112,1195.1512,128.5124,1181.2112,128.6842,1167.2711,127.1869,1153.3311,127.6287,1139.3911,128.1045,1125.4511,127.0505,1111.5111,128.3875,1097.5711,128.2552,1083.6311,127.7578,1069.6911,128.0948,1055.7511,128.9079,1041.8111,127.4637,1027.8711,128.3343,1013.9311,128.2936,999.9911,128.058,986.0511,128.0929,972.1111,128.0549,958.1711,127.0321,944.2311,127.3418,930.2911,127.2576,916.3511,127.986,902.4111,128.0197,888.4711,128.1218,874.5311,127.4941,860.591,127.8039,846.651,127.7308,832.711,128.6974,818.771,128.489,804.831,127.2243,790.891,127.7964,776.951,127.0971,763.011,128.2974,749.071,128.7412,735.131,128.6526,721.191,127.2936,707.251,128.5408,693.311,126.8676,679.371,128.175,665.431,127.4825,651.491,128.0316,637.551,128.2308,623.611,128.5521,609.671,126.8993,595.731,128.5568,581.791,128.1446,567.851,128.3902,553.9109,128.9344,539.9709,127.9051,526.0309,128.1405,512.0909,128.1935,498.1509,128.171,484.2109,127.8964,470.2709,128.883,456.3309,127.0521,442.3909,128.6813,428.4509,127.0323,414.5109,127.1483,400.5709,127.953,386.6309,127.9367,372.6909,127.2142,358.7509,128.4712,344.8109,128.0484,330.8709,128.9051,316.9309,128.8225,302.9909,127.276,289.0509,127.3458,275.1109,127.7184,261.1708,128.3905,247.2308,128.4563,233.2908,128.3151,219.3508,127.4234,205.4108,128.7799,191.4708,128.7763,177.5308,127.832,163.5908,127.566,149.6508,127.341,135.7108,127.6,121.7708,128.0881,107.8308,127.8027,93.8908,127.3182,79.9508,128.5733,66.0108,127.2612,52.0708,128.5941,38.1308,127.8975,38.2063,128.0799,36.7259,127.4471,35.3119,126.9749,33.6752,125.965,32.1949,125.3324,30.7774,124.8516,30.9989,124.9434,29.9133,123.2754,29.4591,121.8689,28.9991,120.46,28.37,118.981,27.7315,117.4982,27.2344,117.4982,27.6719,103.0113,28.7639,88.5244,28.6306,74.0375,26.9047,59.5506,27.7315,45.0636,27.765,45.0775,28.1212,43.5021,28.9386,42.1176,29.6841,40.7034,30.3475,39.2552,30.7774,37.7102,30.6598,37.4264,32.3189,37.2721,33.7202,36.4955,35.0912,35.6456,36.5768,35.0724,38.1308,34.6643" style="stroke:#000000;stroke-width:1.3866;"/><text fill="#1E90FF" font-family="Arial" font-size="27.7315" font-weight="bold" lengthAdjust="spacing" textLength="1136.296" x="55.4629" y="92.0407">Diagrama de sequ&#234;ncia - M&#243;dulo de Interface e Opera&#231;&#227;o (MIO) - IHM Operacional</text><!--SRC=[hPHDJiCm48NtFiNGJS1Ie6mZWTIc82eHYbHnW25nYwN44so71TTXWSIM8-HYJD8VKbGsQQqielZvVPbdZq-qIVCgKp2vkPsVbrMH2u6f9mkpKbdCo8eIhTUfBj5u6DnhyuB0-j9ILjMVzGSD01sCTcKn6OzBLG0_NXKbWLMOjyhnhdBkqLSECWAd7Kkn5SL215UzXWXWxvWQHb9lLn74LA3Xt-JQTUE5ze8BGHk9JL8GNiCeMf5uzh6PRSBKR-WL9nI4lGQpvvIpfqSBcs1teEC8jefVuFWeG8Br3cs938pt0kF-m1X2jjqG8aZ8UKvlpHQPEWPa_0y48TsasW4T4D_e3wXzQti55jfWhjynmoxhWBFHyqIBu84ykgZlSf6hfJ8PU2g5b1EDIuj5Up4uzLhLNuPR0498wk-iojkccHglx09J1QeRo6aodPsnSdgNh3vpbt94Keh6VaKHOa74gxbQAMDqv1h39qUySS_AUd9IHe9Df6ItS3YybBB3OorrW4mwQystfZy0]--></g></svg>