<svg xmlns="http://www.w3.org/2000/svg" xmlns:xlink="http://www.w3.org/1999/xlink" contentStyleType="text/css" data-diagram-type="SEQUENCE" height="750.619px" preserveAspectRatio="none" style="width:1246px;height:750px;background:#EEEBDC;" version="1.1" viewBox="0 0 1246 750" width="1246.9743px" zoomAndPan="magnify"><defs/><g><rect fill="#EEEBDC" height="750.619" style="stroke:none;stroke-width:1.3525;" width="1246.9743" x="0" y="0"/><rect fill="#FFFFCC" height="36.0306" rx="3.3812" ry="3.3812" style="stroke:#FFDD88;stroke-width:4.0574;" width="1232.7724" x="6.7623" y="6.7623"/><text fill="#000000" font-family="monospace" font-size="13.5247" lengthAdjust="spacing" textLength="480.4096" x="13.5247" y="27.0493">Please&#160;use&#160;'!option&#160;handwritten&#160;true'&#160;to&#160;enable&#160;handwritten</text><g><title>IHM</title><polygon fill="#A9DCDF" points="527.8509,330.0486,527.8509,330.1433,530.5558,329.8618,533.2608,330.1357,535.9657,330.2288,538.6706,329.727,541.3756,330.0486,541.2705,330.0486,540.7987,343.3534,540.8569,356.6582,541.2834,369.9629,540.4405,383.2677,542.1243,396.5725,540.5231,409.8773,541.1081,423.182,541.9597,436.4868,541.2595,449.7916,541.4678,463.0964,541.3323,476.4012,541.617,489.7059,541.699,503.0107,542.1677,516.3155,542.2831,529.6203,542.2942,542.9251,541.3756,556.2298,541.3756,556.3446,538.6706,556.4388,535.9657,556.5464,533.2608,555.9047,530.5558,556.5357,527.8509,556.2298,527.4499,556.2298,528.5729,542.9251,527.1814,529.6203,527.7582,516.3155,528.8539,503.0107,527.785,489.7059,527.9933,476.4012,528.3089,463.0964,528.4138,449.7916,527.8456,436.4868,528.2393,423.182,527.0767,409.8773,528.2355,396.5725,528.5923,383.2677,528.4521,369.9629,528.68,356.6582,527.1975,343.3534,527.8509,330.0486" style="stroke:#181818;stroke-width:1.3525;"/></g><g><title>Sistema</title><polygon fill="#A9DCDF" points="789.1449,330.0486,789.1449,330.1433,791.8498,329.8618,794.5548,330.1357,797.2597,330.2288,799.9646,329.727,802.6696,330.0486,802.5645,330.0486,802.0928,343.3534,802.1509,356.6582,802.5774,369.9629,801.7345,383.2677,803.4184,396.5725,801.8171,409.8773,802.4021,423.182,803.2538,436.4868,802.5536,449.7916,802.7619,463.0964,802.6264,476.4012,802.911,489.7059,802.993,503.0107,803.4617,516.3155,803.5772,529.6203,803.5882,542.9251,802.6696,556.2298,802.6696,556.3446,799.9646,556.4388,797.2597,556.5464,794.5548,555.9047,791.8498,556.5357,789.1449,556.2298,788.7439,556.2298,789.8669,542.9251,788.4754,529.6203,789.0523,516.3155,790.1479,503.0107,789.079,489.7059,789.2873,476.4012,789.6029,463.0964,789.7078,449.7916,789.1396,436.4868,789.5334,423.182,788.3707,409.8773,789.5295,396.5725,789.8863,383.2677,789.7461,369.9629,789.974,356.6582,788.4916,343.3534,789.1449,330.0486" style="stroke:#181818;stroke-width:1.3525;"/></g><g><title>Operador</title><polygon fill="#000000" fill-opacity="0.00000" points="384.8937,316.5239,384.8937,316.6187,387.0577,316.3371,389.2216,316.6111,391.3856,316.7041,393.5495,316.2023,395.7135,316.5239,395.6084,316.5239,395.1367,329.7807,395.1948,343.0374,395.6213,356.2942,394.7784,369.5509,396.4623,382.8076,394.861,396.0644,395.446,409.3211,396.2977,422.5779,395.5975,435.8346,395.8058,449.0914,395.6703,462.3481,395.9549,475.6048,396.0369,488.8616,396.5056,502.1183,396.6211,515.3751,396.6321,528.6318,396.0578,541.8886,396.3405,555.1453,395.7135,568.402,395.7135,568.7186,393.5495,568.0769,391.3856,568.7079,389.2216,568.2684,387.0577,568.6427,384.8937,568.402,384.2242,568.402,384.8011,555.1453,385.8967,541.8886,384.8278,528.6318,385.0362,515.3751,385.3517,502.1183,385.4567,488.8616,384.8885,475.6048,385.2822,462.3481,384.1196,449.0914,385.2784,435.8346,385.6352,422.5779,385.495,409.3211,385.7228,396.0644,384.2404,382.8076,384.0117,369.5509,384.0533,356.2942,384.8141,343.0374,384.6279,329.7807,384.8937,316.5239"/><path d="M389.1954,316.5239 L389.5744,316.5239 L388.4483,329.7807 L389.544,343.0374 L389.9161,356.2942 L387.9089,369.5509 L389.0553,382.8076 L388.4263,396.0644 L388.5038,409.3211 L389.0725,422.5779 L387.9487,435.8346 L390.1938,449.0914 L388.0588,462.3481 L388.8388,475.6048 L389.9743,488.8616 L389.0407,502.1183 L389.3185,515.3751 L389.1378,528.6318 L389.5173,541.8886 L389.6266,555.1453 L389.1954,568.402" fill="none" style="stroke:#0000FF;stroke-width:0.6762;stroke-dasharray:6.7623,6.7623;"/></g><g><title>IHM</title><polygon fill="#000000" fill-opacity="0.00000" points="529.2034,316.5239,529.2034,316.6187,531.3673,316.3371,533.5312,316.6111,535.6952,316.7041,537.8591,316.2023,540.0231,316.5239,539.918,316.5239,539.4463,329.7807,539.5044,343.0374,539.9309,356.2942,539.088,369.5509,540.7719,382.8076,539.1707,396.0644,539.7556,409.3211,540.6073,422.5779,539.9071,435.8346,540.1154,449.0914,539.9799,462.3481,540.2645,475.6048,540.3465,488.8616,540.8152,502.1183,540.9307,515.3751,540.9418,528.6318,540.3675,541.8886,540.6501,555.1453,540.0231,568.402,540.0231,568.7186,537.8591,568.0769,535.6952,568.7079,533.5312,568.2684,531.3673,568.6427,529.2034,568.402,528.5339,568.402,529.1107,555.1453,530.2064,541.8886,529.1374,528.6318,529.3458,515.3751,529.6613,502.1183,529.7663,488.8616,529.1981,475.6048,529.5918,462.3481,528.4292,449.0914,529.588,435.8346,529.9448,422.5779,529.8046,409.3211,530.0325,396.0644,528.55,382.8076,528.3213,369.5509,528.3629,356.2942,529.1237,343.0374,528.9376,329.7807,529.2034,316.5239"/><path d="M533.937,316.5239 L534.316,316.5239 L533.1898,329.7807 L534.2855,343.0374 L534.6577,356.2942 L532.6505,369.5509 L533.7968,382.8076 L533.1679,396.0644 L533.2454,409.3211 L533.8141,422.5779 L532.6903,435.8346 L534.9354,449.0914 L532.8004,462.3481 L533.5804,475.6048 L534.7159,488.8616 L533.7823,502.1183 L534.06,515.3751 L533.8794,528.6318 L534.2589,541.8886 L534.3682,555.1453 L533.937,568.402" fill="none" style="stroke:#0000FF;stroke-width:0.6762;stroke-dasharray:6.7623,6.7623;"/></g><g><title>Sistema</title><polygon fill="#000000" fill-opacity="0.00000" points="790.4974,316.5239,790.4974,316.6187,792.6613,316.3371,794.8253,316.6111,796.9892,316.7041,799.1532,316.2023,801.3171,316.5239,801.212,316.5239,800.7403,329.7807,800.7984,343.0374,801.2249,356.2942,800.3821,369.5509,802.0659,382.8076,800.4647,396.0644,801.0496,409.3211,801.9013,422.5779,801.2011,435.8346,801.4094,449.0914,801.2739,462.3481,801.5586,475.6048,801.6405,488.8616,802.1092,502.1183,802.2247,515.3751,802.2358,528.6318,801.6615,541.8886,801.9441,555.1453,801.3171,568.402,801.3171,568.7186,799.1532,568.0769,796.9892,568.7079,794.8253,568.2684,792.6613,568.6427,790.4974,568.402,789.8279,568.402,790.4047,555.1453,791.5004,541.8886,790.4315,528.6318,790.6398,515.3751,790.9554,502.1183,791.0603,488.8616,790.4921,475.6048,790.8858,462.3481,789.7232,449.0914,790.882,435.8346,791.2388,422.5779,791.0986,409.3211,791.3265,396.0644,789.844,382.8076,789.6153,369.5509,789.657,356.2942,790.4177,343.0374,790.2316,329.7807,790.4974,316.5239"/><path d="M794.6239,316.5239 L795.0029,316.5239 L793.8767,329.7807 L794.9724,343.0374 L795.3446,356.2942 L793.3374,369.5509 L794.4837,382.8076 L793.8548,396.0644 L793.9323,409.3211 L794.501,422.5779 L793.3771,435.8346 L795.6223,449.0914 L793.4873,462.3481 L794.2672,475.6048 L795.4028,488.8616 L794.4692,502.1183 L794.7469,515.3751 L794.5663,528.6318 L794.9458,541.8886 L795.0551,555.1453 L794.6239,568.402" fill="none" style="stroke:#0000FF;stroke-width:0.6762;stroke-dasharray:6.7623,6.7623;"/></g><g class="participant participant-head" data-participant="OP"><text fill="#1E90FF" font-family="Aapex" font-size="22.9919" lengthAdjust="spacing" textLength="105.0039" x="333.7443" y="309.7873">Operador</text><polygon fill="#00BFFF" points="412.0626,230.2878,408.8906,234.6219,405.1389,240.97,399.7731,245.2481,394.1346,247.5875,389.6387,247.7906,383.8603,244.8647,378.4081,242.9533,374.2698,239.0725,372.099,234.6297,370.8117,231.0922,369.5505,226.4715,367.5035,222.4953,369.0765,218.613,370.4547,214.3603,375.6267,210.9969,379.2654,206.6328,383.7693,205.1837,389.1235,203.9357,395.9897,204.6771,399.7504,206.4507,404.1228,207.2547,409.4392,212.7015,411.2924,218.4516,412.0977,222.3751,411.1856,228.8404" style="stroke:#00BFFF;stroke-width:0.6762;"/><path d="M390.3036,252.0736 L390.3036,252.0736 L390.3468,252.1923 L393.1939,250.7575 L396.2942,250.0188 L399.312,249.0534 L402.0588,247.3427 L405.1807,246.6637 L405.1807,246.6637 L405.1614,246.6212 L408.0501,247.7828 L411.0362,249.1588 L414.0901,250.6838 L416.9105,251.6952 L420.0579,253.426 L420.3608,253.5637 L421.0654,256.2447 L422.6546,259.3277 L424.3516,262.4597 L425.4208,265.3064 L426.8202,268.3032 L426.9022,268.3032 L426.7818,269.3851 L427.0348,270.4671 L427.1077,271.5491 L427.5243,272.631 L426.8202,273.713 L426.8202,273.713 L427.1054,273.9982 L424.945,276.1657 L422.6005,278.1491 L420.5254,280.4019 L418.4629,282.6673 L416.0005,284.5328 L416.0005,283.6657 L405.7217,285.3485 L395.443,284.1763 L385.1642,285.1745 L374.8855,283.9376 L364.6067,284.5328 L364.6067,284.5328 L364.5776,284.5036 L362.758,282.684 L360.2581,280.1841 L358.1597,278.0857 L356.0949,276.0209 L353.787,273.713 L354.2874,273.713 L353.7823,272.631 L354.1323,271.5491 L353.0989,270.4671 L354.1289,269.3851 L353.787,268.3032 L353.787,268.3032 L354.087,268.4395 L355.3827,265.4383 L356.8274,262.5048 L357.5801,259.2567 L358.84,256.2392 L360.5493,253.426 L360.3948,253.086 L363.5101,252.0413 L366.4513,250.6135 L369.6451,249.7415 L372.4076,247.9206 L375.4265,246.6637 L375.4265,246.6637 L375.356,246.4699 L378.4488,247.8746 L381.2403,248.4509 L384.2461,249.6163 L387.4615,251.3582 L390.3036,252.0736" fill="#00BFFF"/></g><g class="participant participant-head" data-participant="IHM"><text fill="#000000" font-family="sans-serif" font-size="18.9345" lengthAdjust="spacing" textLength="37.6228" x="511.7444" y="310.9761">IHM</text><path d="M506.8877,252.8661 L507.1403,252.8661 L506.3896,259.358 L507.12,265.8498 L507.3681,272.3417 L506.03,278.8335 L506.8877,285.3253 M506.8877,269.0957 L506.8877,269.0023 L511.486,268.583 L516.0844,268.6347 L520.6828,269.0138 L525.2812,268.2646 L529.8796,269.0957" fill="none" style="stroke:#181818;stroke-width:0.6762;"/><polygon fill="#E2E2F0" points="562.4285,273.0434,560.0495,276.294,557.2356,281.055,553.2113,284.2636,548.9824,286.0182,545.6105,286.1705,541.2767,283.9761,537.1876,282.5426,534.0838,279.632,532.4558,276.2999,531.4903,273.6467,530.5444,270.1812,529.0091,267.199,530.1889,264.2874,531.2225,261.0978,535.1015,258.5752,537.8306,255.3022,541.2084,254.2153,545.2241,253.2793,550.3737,253.8354,553.1943,255.1656,556.4736,255.7686,560.4609,259.8537,561.8508,264.1663,562.4547,267.1089,561.7707,271.9579" style="stroke:#181818;stroke-width:0.6762;"/></g><g class="participant participant-head" data-participant="ST"><text fill="#000000" font-family="sans-serif" font-size="18.9345" lengthAdjust="spacing" textLength="70.1901" x="756.7548" y="310.9761">Sistema</text><polygon fill="#E2E2F0" points="812.2265,273.0434,809.8475,276.294,807.0337,281.055,803.0093,284.2636,798.7804,286.0182,795.4086,286.1705,791.0748,283.9761,786.9856,282.5426,783.8819,279.632,782.2538,276.2999,781.2883,273.6467,780.3424,270.1812,778.8071,267.199,779.9869,264.2874,781.0206,261.0978,784.8996,258.5752,787.6286,255.3022,791.0065,254.2153,795.0222,253.2793,800.1718,253.8354,802.9923,255.1656,806.2716,255.7686,810.2589,259.8537,811.6489,264.1663,812.2528,267.1089,811.5687,271.9579" style="stroke:#181818;stroke-width:0.6762;"/><polygon fill="#181818" points="790.4974,252.8661,790.558,252.9389,792.0008,251.3702,793.7991,250.2281,795.4816,248.9472,796.7833,247.2092,798.6122,246.1038,798.5796,246.0908,797.8927,247.3849,797.3697,248.7445,796.9607,250.1498,796.1588,251.3979,795.9072,252.8661,796.139,252.9588,796.1844,254.1131,796.9064,255.538,797.711,256.9959,798.0353,258.2616,798.6122,259.6285,798.6319,259.6521,796.98,258.2649,795.4178,256.9854,793.8123,255.6539,792.2894,254.4214,790.4974,252.8661" style="stroke:#181818;stroke-width:1.3525;"/></g><g><title>IHM</title><polygon fill="#A9DCDF" points="527.8509,330.0486,527.8509,330.1433,530.5558,329.8618,533.2608,330.1357,535.9657,330.2288,538.6706,329.727,541.3756,330.0486,541.2705,330.0486,540.7987,343.3534,540.8569,356.6582,541.2834,369.9629,540.4405,383.2677,542.1243,396.5725,540.5231,409.8773,541.1081,423.182,541.9597,436.4868,541.2595,449.7916,541.4678,463.0964,541.3323,476.4012,541.617,489.7059,541.699,503.0107,542.1677,516.3155,542.2831,529.6203,542.2942,542.9251,541.3756,556.2298,541.3756,556.3446,538.6706,556.4388,535.9657,556.5464,533.2608,555.9047,530.5558,556.5357,527.8509,556.2298,527.4499,556.2298,528.5729,542.9251,527.1814,529.6203,527.7582,516.3155,528.8539,503.0107,527.785,489.7059,527.9933,476.4012,528.3089,463.0964,528.4138,449.7916,527.8456,436.4868,528.2393,423.182,527.0767,409.8773,528.2355,396.5725,528.5923,383.2677,528.4521,369.9629,528.68,356.6582,527.1975,343.3534,527.8509,330.0486" style="stroke:#181818;stroke-width:1.3525;"/></g><g><title>Sistema</title><polygon fill="#A9DCDF" points="789.1449,330.0486,789.1449,330.1433,791.8498,329.8618,794.5548,330.1357,797.2597,330.2288,799.9646,329.727,802.6696,330.0486,802.5645,330.0486,802.0928,343.3534,802.1509,356.6582,802.5774,369.9629,801.7345,383.2677,803.4184,396.5725,801.8171,409.8773,802.4021,423.182,803.2538,436.4868,802.5536,449.7916,802.7619,463.0964,802.6264,476.4012,802.911,489.7059,802.993,503.0107,803.4617,516.3155,803.5772,529.6203,803.5882,542.9251,802.6696,556.2298,802.6696,556.3446,799.9646,556.4388,797.2597,556.5464,794.5548,555.9047,791.8498,556.5357,789.1449,556.2298,788.7439,556.2298,789.8669,542.9251,788.4754,529.6203,789.0523,516.3155,790.1479,503.0107,789.079,489.7059,789.2873,476.4012,789.6029,463.0964,789.7078,449.7916,789.1396,436.4868,789.5334,423.182,788.3707,409.8773,789.5295,396.5725,789.8863,383.2677,789.7461,369.9629,789.974,356.6582,788.4916,343.3534,789.1449,330.0486" style="stroke:#181818;stroke-width:1.3525;"/></g><polygon fill="#FEFFDD" points="719.1973,336.8109,719.1973,337.0952,732.8449,336.2506,746.4925,337.0723,760.1401,337.3515,773.7877,335.8461,787.4354,336.7058,801.083,336.2341,814.7306,336.2923,828.3782,336.7187,842.0258,335.8759,855.6735,337.5597,869.3211,336.8109,869.0645,336.6888,871.9455,342.453,874.9068,348.2554,877.401,353.8354,880.1686,359.5456,882.8457,365.2127,882.8326,365.2068,880.2141,371.1969,877.534,377.159,874.9713,383.1745,872.3014,389.1413,869.3211,394.967,869.3211,395.8857,855.6735,395.3114,842.0258,395.594,828.3782,395.9167,814.7306,393.9916,801.083,395.8847,787.4354,394.566,773.7877,395.689,760.1401,394.2975,746.4925,394.8744,732.8449,395.97,719.1973,394.967,719.1773,394.9579,716.5356,389.0358,713.9264,383.1285,711.2533,377.1921,708.3759,371.1629,705.6726,365.2127,705.7895,365.2684,708.1445,359.4214,711.1982,353.9071,714.0105,348.2779,716.6733,342.5774,719.1973,336.8109" style="stroke:#181818;stroke-width:0.6762;"/><text fill="#000000" font-family="sans-serif" font-size="17.5821" lengthAdjust="spacing" textLength="127.8041" x="721.9022" y="361.016">Processamento</text><text fill="#000000" font-family="sans-serif" font-size="17.5821" lengthAdjust="spacing" textLength="141.4478" x="726.4735" y="384.9628">das informa&#231;&#245;es.</text><g class="message" data-participant-1="IHM" data-participant-2="OP"><polygon fill="#00BFFF" points="405.1807,428.9383,405.2159,429.0263,402.4064,429.8469,399.8032,431.1832,397.1329,432.3515,394.2416,432.9676,391.6561,434.3482,391.6431,434.3157,394.2896,435.2516,397.0017,436.3516,399.7595,437.5656,402.3601,438.3867,405.1807,439.7581,405.3572,439.9345,403.8978,438.4752,402.9538,437.5311,402.0725,436.6498,400.8255,435.4028,399.7709,434.3482,399.7926,434.3699,400.8427,433.256,401.9917,432.2411,403.093,431.1785,404.2855,430.207,405.1807,428.9383" style="stroke:#00BFFF;stroke-width:1.3525;"/><path d="M397.0659,434.3482 L397.0659,434.7272 L410.0092,433.601 L422.9524,434.6967 L435.8957,435.0689 L448.8389,433.0617 L461.7822,434.208 L474.7254,433.5791 L487.6687,433.6566 L500.6119,434.2253 L513.5552,433.1014 L526.4984,434.3482" fill="none" style="stroke:#00BFFF;stroke-width:1.3525;"/><text fill="#000000" font-family="sans-serif" font-size="17.5821" lengthAdjust="spacing" textLength="105.0881" x="413.2955" y="426.4917">Visualiza&#231;&#227;o.</text></g><g class="message" data-participant-1="IHM" data-participant-2="ST"><polygon fill="#00BFFF" points="772.9153,447.8729,772.9505,447.9608,775.5509,448.7814,778.3575,450.1177,781.097,451.2861,783.6156,451.9021,786.44,453.2827,786.427,453.2502,783.6636,454.1862,780.9659,455.2861,778.3138,456.5001,775.5045,457.3212,772.9153,458.6926,773.0918,458.8691,773.7964,457.4097,775.0162,456.4656,776.2989,455.5844,777.2159,454.3373,778.3252,453.2827,778.3469,453.3045,777.233,452.1906,776.2181,451.1757,775.1555,450.113,774.184,449.1415,772.9153,447.8729" style="stroke:#00BFFF;stroke-width:1.3525;"/><path d="M541.3756,453.2827 L541.3756,453.6617 L554.6897,452.5356 L568.0038,453.6313 L581.318,454.0035 L594.6321,451.9963 L607.9463,453.1426 L621.2604,452.5136 L634.5745,452.5912 L647.8887,453.1598 L661.2028,452.036 L674.517,454.2811 L687.8311,452.1461 L701.1453,452.9261 L714.4594,454.0616 L727.7735,453.128 L741.0877,453.4058 L754.4018,453.2251 L767.716,453.6047 L781.0301,453.2827" fill="none" style="stroke:#00BFFF;stroke-width:1.3525;"/></g><g class="message" data-participant-1="ST" data-participant-2="IHM"><polygon fill="#00BFFF" points="556.2527,538.6478,556.2879,538.7358,553.4784,539.5563,550.8752,540.8926,548.2048,542.061,545.3135,542.6771,542.728,544.0576,542.715,544.0251,545.3615,544.9611,548.0737,546.0611,550.8314,547.275,553.432,548.0961,556.2527,549.4675,556.4292,549.644,554.9698,548.1846,554.0257,547.2405,553.1445,546.3593,551.8975,545.1123,550.8428,544.0576,550.8646,544.0794,551.9146,542.9655,553.0637,541.9506,554.165,540.888,555.3574,539.9165,556.2527,538.6478" style="stroke:#00BFFF;stroke-width:1.3525;"/><path d="M548.1379,544.0576 L548.1379,544.4367 L561.452,543.3105 L574.7662,544.4062 L588.0803,544.7784 L601.3945,542.7712 L614.7086,543.9175 L628.0227,543.2886 L641.3369,543.3661 L654.651,543.9347 L667.9652,542.8109 L681.2793,545.056 L694.5934,542.9211 L707.9076,543.701 L721.2217,544.8366 L734.5359,543.903 L747.85,544.1807 L761.1642,544 L774.4783,544.3796 L787.7924,544.0576" fill="none" style="stroke:#00BFFF;stroke-width:1.3525;stroke-dasharray:2.7049,2.7049;"/><text fill="#000000" font-family="sans-serif" font-size="17.5821" lengthAdjust="spacing" textLength="149.8521" x="564.3675" y="488.3076">Em menos de 2s a</text><text fill="#000000" font-family="sans-serif" font-size="17.5821" lengthAdjust="spacing" textLength="206.1675" x="568.9388" y="512.2544">notifica&#231;&#227;o sonora/visual</text><text fill="#000000" font-family="sans-serif" font-size="17.5821" lengthAdjust="spacing" textLength="188.7964" x="568.9388" y="536.2012">ocorre atrav&#233;s da IHM.</text></g><text fill="#1E90FF" font-family="Arial" font-size="18.9345" lengthAdjust="spacing" textLength="4.923" x="40.574" y="617.0448">&#160;</text><text fill="#1E90FF" font-family="Arial" font-size="18.9345" lengthAdjust="spacing" textLength="4.923" x="40.574" y="642.8335">&#160;</text><text fill="#1E90FF" font-family="Arial" font-size="18.9345" font-weight="bold" lengthAdjust="spacing" textLength="210.0021" x="40.574" y="668.6222">Casos de Uso cobertos</text><text fill="#1E90FF" font-family="Arial" font-size="18.9345" lengthAdjust="spacing" textLength="5.0744" x="250.5761" y="668.6222">:</text><text fill="#1E90FF" font-family="Arial" font-size="18.9345" lengthAdjust="spacing" textLength="6.0969" x="40.574" y="694.4109">-</text><text fill="#1E90FF" font-family="Arial" font-size="18.9345" font-weight="bold" lengthAdjust="spacing" textLength="78.8809" x="51.5939" y="694.4109">MIO-002</text><text fill="#1E90FF" font-family="Arial" font-size="18.9345" lengthAdjust="spacing" textLength="183.2477" x="135.3978" y="694.4109">Exibi&#231;&#227;o de Alarmes;</text><polygon fill="none" points="37.1928,83.3669,37.1928,83.6512,50.7899,82.8065,64.3871,83.6283,77.9842,83.9074,91.5813,82.402,105.1784,83.2618,118.7755,82.7901,132.3726,82.8482,145.9697,83.2747,159.5668,82.4318,173.1639,84.1157,186.761,82.5145,200.3581,83.0994,213.9552,83.9511,227.5524,83.2509,241.1495,83.4592,254.7466,83.3237,268.3437,83.6083,281.9408,83.6903,295.5379,84.159,309.135,84.2745,322.7321,84.2856,336.3292,83.7113,349.9263,83.9939,363.5234,84.3166,377.1205,82.3915,390.7177,84.2846,404.3148,82.9659,417.9119,84.0889,431.509,82.6974,445.1061,83.2742,458.7032,84.3699,472.3003,83.301,485.8974,83.5093,499.4945,83.8249,513.0916,83.9298,526.6887,83.3616,540.2859,83.7553,553.883,82.5927,567.4801,83.7515,581.0772,84.1083,594.6743,83.9681,608.2714,84.196,621.8685,82.7135,635.4656,82.4848,649.0627,82.5265,662.6598,83.2873,676.2569,83.1011,689.854,84.2885,703.4512,83.1306,717.0483,82.9029,730.6454,83.6756,744.2425,82.465,757.8396,82.6648,771.4367,84.2446,785.0338,83.9561,798.6309,84.3603,812.228,82.9317,825.8251,83.7986,839.4222,84.1654,853.0193,82.728,866.6165,83.2372,880.2136,83.5373,893.8107,84.2484,907.4078,83.3612,921.0049,83.9925,934.602,82.6179,948.1991,82.4509,961.7962,84.048,975.3933,82.3973,988.9904,84.0552,1002.5875,83.6463,1016.1847,83.0045,1029.7818,82.8884,1043.3789,83.9873,1056.976,82.9621,1070.5731,84.1674,1084.1702,82.6193,1097.7673,84.2019,1111.3644,84.0219,1124.9615,83.6982,1138.5586,83.4308,1152.1557,84.3496,1165.7528,84.1967,1179.35,83.3669,1179.3792,83.4374,1180.8307,84.0728,1182.1965,84.501,1183.7771,85.4479,1185.1147,85.8082,1186.5225,86.3379,1186.5944,86.3676,1186.8633,87.6674,1187.5421,89.137,1188.5261,90.7329,1189.0783,92.15,1189.4935,93.5104,1189.4354,93.5104,1189.0577,107.641,1189.1974,121.7715,1188.5654,135.9021,1190.0544,150.0327,1189.4935,164.1632,1189.8015,164.2908,1189.1185,165.6885,1188.5945,167.1521,1187.6539,168.4432,1187.153,169.9163,1186.5225,171.3358,1186.4556,171.1743,1185.137,172.0483,1183.696,172.6269,1182.3143,173.3484,1180.7448,173.6169,1179.35,174.3067,1179.35,174.1249,1165.7528,174.9065,1152.1557,175.074,1138.5586,173.6135,1124.9615,174.0445,1111.3644,174.5086,1097.7673,173.4806,1084.1702,174.7847,1070.5731,174.6556,1056.976,174.1704,1043.3789,174.4991,1029.7818,175.2922,1016.1847,173.8836,1002.5875,174.7327,988.9904,174.693,975.3933,174.4633,961.7962,174.4973,948.1991,174.4602,934.602,173.4626,921.0049,173.7646,907.4078,173.6825,893.8107,174.393,880.2136,174.4259,866.6165,174.5255,853.0193,173.9132,839.4222,174.2154,825.8251,174.1441,812.228,175.0869,798.6309,174.8836,785.0338,173.65,771.4367,174.2081,757.8396,173.526,744.2425,174.6967,730.6454,175.1297,717.0483,175.0432,703.4512,173.7176,689.854,174.9342,676.2569,173.3021,662.6598,174.5774,649.0627,173.9019,635.4656,174.4375,621.8685,174.6318,608.2714,174.9452,594.6743,173.3331,581.0772,174.9498,567.4801,174.5477,553.883,174.7873,540.2859,175.3181,526.6887,174.3141,513.0916,174.5438,499.4945,174.5954,485.8974,174.5735,472.3003,174.3056,458.7032,175.2679,445.1061,173.4821,431.509,175.0712,417.9119,173.4628,404.3148,173.576,390.7177,174.3608,377.1205,174.345,363.5234,173.6402,349.9263,174.8663,336.3292,174.4539,322.7321,175.2895,309.135,175.209,295.5379,173.7005,281.9408,173.7685,268.3437,174.132,254.7466,174.7876,241.1495,174.8517,227.5524,174.714,213.9552,173.8442,200.3581,175.1674,186.761,175.1639,173.1639,174.2428,159.5668,173.9834,145.9697,173.7639,132.3726,174.0165,118.7755,174.4926,105.1784,174.2142,91.5813,173.7417,77.9842,174.9659,64.3871,173.686,50.7899,174.9862,37.1928,174.3067,37.2665,174.4847,35.8225,173.8674,34.4433,173.4068,32.8469,172.4217,31.4029,171.8047,30.0203,171.3358,30.2364,171.4253,29.1775,169.7983,28.7345,168.4264,28.2858,167.0522,27.6721,165.6096,27.0493,164.1632,26.5645,164.1632,26.9912,150.0327,28.0564,135.9021,27.9264,121.7715,26.2429,107.641,27.0493,93.5104,27.082,93.5239,27.4295,91.9872,28.2268,90.6368,28.9539,89.2574,29.601,87.8448,30.0203,86.3379,29.9056,86.061,31.5239,85.9105,32.8908,85.153,34.228,84.324,35.6771,83.7649,37.1928,83.3669" style="stroke:#000000;stroke-width:1.3525;"/><text fill="#1E90FF" font-family="Arial" font-size="27.0493" font-weight="bold" lengthAdjust="spacing" textLength="1108.3455" x="54.0987" y="139.3319">Diagrama de sequ&#234;ncia - M&#243;dulo de Interface e Opera&#231;&#227;o (MIO) - IHM Operacional</text><!--SRC=[dLEnRXin3Dtv5QmN9uVO3Z9UqG95xA8UN1jmcgaBhQDj0NUY8-aCjtzJT2ZQDSWNt8-LqXb1Xqw-uI2HV8_K8_d6EbEt5UDqzd4zFhHD3K0cYiV1yi2UAl43f83B5MoaTHNvRpYOVreCm8YBNcfSsn2veHIqVW2O3669uMoRpXvdo2UxiHwf9jzmGCsrfNfFOropxtwWyWHRvLH8aLrbAu6dbfpUM-N8mUW45_TunQSI6qdbHKz7XLpZJg4-HpRi0ksumSYds58DHbCgb50Bla4oqXp8xQcYL4JRd4l284wy8EFH1eNTe58eb-HQxo3mJX-kDpfqp_f7CU9zzySPIsCOJW26xoxwO8Z__URE6YkNiwxODpQ4xeL3cPffZwfhQixhMVM0lHCzoP6zkafSUJ4S0kd3e-1NXvKsrBgj-8QwNubh30h3qNkTZDMWnCSiblsUl3_brQbfrWyuqfCQIfpzAsKIJvariTrQqmDxzMdIQv_SMLxMMT0ETxyLcVitlb0F67wMI2h4XN2eUQT3YL4EK1HJIpjFJHwWm4zjFmKumaNtNBMr9FlSHVPRCgmJbNUeV-VLOhwyriYaKpPhZntLHG69liy2i1NjYWVGNFSKUjs-1D4jsR2F4egY12Kf2cKRtTxU5GNEqdxrEJJuGxzcRpFhcUql]--></g></svg>