<svg xmlns="http://www.w3.org/2000/svg" xmlns:xlink="http://www.w3.org/1999/xlink" contentStyleType="text/css" data-diagram-type="SEQUENCE" height="750.1424px" preserveAspectRatio="none" style="width:1313px;height:750px;background:#EEEBDC;" version="1.1" viewBox="0 0 1313 750" width="1313.4732px" zoomAndPan="magnify"><defs/><g><rect fill="#EEEBDC" height="750.1424" style="stroke:none;stroke-width:1.4482;" width="1313.4732" x="0" y="0"/><g><title>IHM</title><polygon fill="#A9DCDF" points="565.1954,300.3378,565.1954,300.4392,568.0917,300.1378,570.988,300.4311,573.8843,300.5307,576.7806,299.9934,579.6769,300.3378,579.5644,300.3378,579.0593,314.5838,579.1216,328.8299,579.5782,343.076,578.6757,357.3221,580.4787,371.5681,578.7642,385.8142,579.3905,400.0603,580.3024,414.3063,579.5527,428.5524,579.7757,442.7985,579.6307,457.0445,579.9354,471.2906,580.0232,485.5367,580.5251,499.7827,580.6487,514.0288,580.6606,528.2749,579.6769,542.5209,579.6769,542.6439,576.7806,542.7447,573.8843,542.8599,570.988,542.1728,568.0917,542.8485,565.1954,542.5209,564.766,542.5209,565.9684,528.2749,564.4785,514.0288,565.0962,499.7827,566.2694,485.5367,565.1248,471.2906,565.3479,457.0445,565.6858,442.7985,565.7982,428.5524,565.1897,414.3063,565.6113,400.0603,564.3665,385.8142,565.6072,371.5681,565.9893,357.3221,565.8392,343.076,566.0832,328.8299,564.4958,314.5838,565.1954,300.3378" style="stroke:#181818;stroke-width:1.4482;"/></g><g><title>Sistema</title><polygon fill="#A9DCDF" points="844.9755,300.3378,844.9755,300.4392,847.8718,300.1378,850.7681,300.4311,853.6644,300.5307,856.5607,299.9934,859.457,300.3378,859.3445,300.3378,858.8394,314.5838,858.9017,328.8299,859.3583,343.076,858.4558,357.3221,860.2588,371.5681,858.5443,385.8142,859.1706,400.0603,860.0825,414.3063,859.3328,428.5524,859.5558,442.7985,859.4108,457.0445,859.7156,471.2906,859.8033,485.5367,860.3052,499.7827,860.4288,514.0288,860.4407,528.2749,859.457,542.5209,859.457,542.6439,856.5607,542.7447,853.6644,542.8599,850.7681,542.1728,847.8718,542.8485,844.9755,542.5209,844.5461,542.5209,845.7486,528.2749,844.2586,514.0288,844.8763,499.7827,846.0495,485.5367,844.9049,471.2906,845.128,457.0445,845.4659,442.7985,845.5783,428.5524,844.9699,414.3063,845.3914,400.0603,844.1466,385.8142,845.3873,371.5681,845.7694,357.3221,845.6193,343.076,845.8633,328.8299,844.2759,314.5838,844.9755,300.3378" style="stroke:#181818;stroke-width:1.4482;"/></g><g><title>Operador</title><polygon fill="#000000" fill-opacity="0.00000" points="412.1243,285.8563,412.1243,285.9577,414.4413,285.6563,416.7584,285.9496,419.0754,286.0492,421.3925,285.5119,423.7095,285.8563,423.597,285.8563,423.0919,300.0509,423.1541,314.2455,423.6108,328.4402,422.7083,342.6348,424.5113,356.8294,422.7968,371.0241,423.4231,385.2187,424.335,399.4133,423.5853,413.608,423.8083,427.8026,423.6632,441.9972,423.968,456.1919,424.0558,470.3865,424.5577,484.5811,424.6813,498.7758,424.6932,512.9704,424.0782,527.165,424.3808,541.3597,423.7095,555.5543,423.7095,555.8933,421.3925,555.2062,419.0754,555.8818,416.7584,555.4112,414.4413,555.812,412.1243,555.5543,411.4074,555.5543,412.0251,541.3597,413.1982,527.165,412.0537,512.9704,412.2768,498.7758,412.6147,484.5811,412.7271,470.3865,412.1186,456.1919,412.5402,441.9972,411.2953,427.8026,412.5361,413.608,412.9182,399.4133,412.768,385.2187,413.012,371.0241,411.4247,356.8294,411.1798,342.6348,411.2244,328.4402,412.039,314.2455,411.8397,300.0509,412.1243,285.8563"/><path d="M416.7303,285.8563 L417.1361,285.8563 L415.9303,300.0509 L417.1035,314.2455 L417.502,328.4402 L415.3528,342.6348 L416.5802,356.8294 L415.9068,371.0241 L415.9898,385.2187 L416.5987,399.4133 L415.3953,413.608 L417.7993,427.8026 L415.5133,441.9972 L416.3484,456.1919 L417.5643,470.3865 L416.5647,484.5811 L416.862,498.7758 L416.6686,512.9704 L417.075,527.165 L417.192,541.3597 L416.7303,555.5543" fill="none" style="stroke:#0000FF;stroke-width:0.7241;stroke-dasharray:7.2408,7.2408;"/></g><g><title>IHM</title><polygon fill="#000000" fill-opacity="0.00000" points="566.6436,285.8563,566.6436,285.9577,568.9606,285.6563,571.2776,285.9496,573.5947,286.0492,575.9117,285.5119,578.2288,285.8563,578.1162,285.8563,577.6111,300.0509,577.6734,314.2455,578.1301,328.4402,577.2276,342.6348,579.0305,356.8294,577.316,371.0241,577.9424,385.2187,578.8543,399.4133,578.1045,413.608,578.3276,427.8026,578.1825,441.9972,578.4873,456.1919,578.5751,470.3865,579.0769,484.5811,579.2006,498.7758,579.2124,512.9704,578.5975,527.165,578.9001,541.3597,578.2288,555.5543,578.2288,555.8933,575.9117,555.2062,573.5947,555.8818,571.2776,555.4112,568.9606,555.812,566.6436,555.5543,565.9267,555.5543,566.5444,541.3597,567.7175,527.165,566.573,512.9704,566.796,498.7758,567.1339,484.5811,567.2463,470.3865,566.6379,456.1919,567.0595,441.9972,565.8146,427.8026,567.0554,413.608,567.4374,399.4133,567.2873,385.2187,567.5313,371.0241,565.944,356.8294,565.6991,342.6348,565.7437,328.4402,566.5583,314.2455,566.359,300.0509,566.6436,285.8563"/><path d="M571.7121,285.8563 L572.1179,285.8563 L570.9121,300.0509 L572.0853,314.2455 L572.4838,328.4402 L570.3346,342.6348 L571.562,356.8294 L570.8886,371.0241 L570.9716,385.2187 L571.5805,399.4133 L570.3771,413.608 L572.7811,427.8026 L570.4951,441.9972 L571.3302,456.1919 L572.5461,470.3865 L571.5465,484.5811 L571.8438,498.7758 L571.6504,512.9704 L572.0568,527.165 L572.1738,541.3597 L571.7121,555.5543" fill="none" style="stroke:#0000FF;stroke-width:0.7241;stroke-dasharray:7.2408,7.2408;"/></g><g><title>Sistema</title><polygon fill="#000000" fill-opacity="0.00000" points="846.4237,285.8563,846.4237,285.9577,848.7407,285.6563,851.0577,285.9496,853.3748,286.0492,855.6918,285.5119,858.0089,285.8563,857.8963,285.8563,857.3912,300.0509,857.4535,314.2455,857.9102,328.4402,857.0077,342.6348,858.8106,356.8294,857.0961,371.0241,857.7225,385.2187,858.6344,399.4133,857.8847,413.608,858.1077,427.8026,857.9626,441.9972,858.2674,456.1919,858.3552,470.3865,858.857,484.5811,858.9807,498.7758,858.9925,512.9704,858.3776,527.165,858.6802,541.3597,858.0089,555.5543,858.0089,555.8933,855.6918,555.2062,853.3748,555.8818,851.0577,555.4112,848.7407,555.812,846.4237,555.5543,845.7068,555.5543,846.3245,541.3597,847.4976,527.165,846.3531,512.9704,846.5762,498.7758,846.914,484.5811,847.0264,470.3865,846.418,456.1919,846.8396,441.9972,845.5947,427.8026,846.8355,413.608,847.2175,399.4133,847.0674,385.2187,847.3114,371.0241,845.7241,356.8294,845.4792,342.6348,845.5238,328.4402,846.3384,314.2455,846.1391,300.0509,846.4237,285.8563"/><path d="M850.8421,285.8563 L851.2479,285.8563 L850.0421,300.0509 L851.2153,314.2455 L851.6138,328.4402 L849.4646,342.6348 L850.6921,356.8294 L850.0186,371.0241 L850.1016,385.2187 L850.7105,399.4133 L849.5072,413.608 L851.9111,427.8026 L849.6251,441.9972 L850.4602,456.1919 L851.6761,470.3865 L850.6765,484.5811 L850.9739,498.7758 L850.7804,512.9704 L851.1868,527.165 L851.3038,541.3597 L850.8421,555.5543" fill="none" style="stroke:#0000FF;stroke-width:0.7241;stroke-dasharray:7.2408,7.2408;"/></g><g class="participant participant-head" data-participant="OP"><text fill="#1E90FF" font-family="Aapex" font-size="24.6186" lengthAdjust="spacing" textLength="112.4327" x="357.3561" y="278.643">Operador</text><polygon fill="#00BFFF" points="441.2153,193.5191,437.8189,198.1598,433.8017,204.957,428.0563,209.5378,422.0189,212.0427,417.2049,212.2601,411.0178,209.1273,405.1798,207.0807,400.7487,202.9253,398.4244,198.1682,397.046,194.3804,395.6956,189.4328,393.5037,185.1753,395.188,181.0184,396.6637,176.4648,402.2017,172.8634,406.0978,168.1906,410.9203,166.6389,416.6533,165.3026,424.0052,166.0965,428.032,167.9956,432.7138,168.8564,438.4063,174.6886,440.3906,180.8455,441.2528,185.0465,440.2763,191.9693" style="stroke:#00BFFF;stroke-width:0.7241;"/><path d="M417.9169,216.8461 L417.9169,216.8461 L417.9631,216.9733 L421.0117,215.437 L424.3313,214.646 L427.5626,213.6123 L430.5037,211.7805 L433.8466,211.0535 L433.8466,211.0535 L433.8259,211.008 L436.9189,212.2518 L440.1163,213.7251 L443.3862,215.3581 L446.4062,216.441 L449.7762,218.2943 L450.1006,218.4417 L450.8551,221.3124 L452.5566,224.6135 L454.3738,227.9671 L455.5186,231.0152 L457.017,234.224 L457.1048,234.224 L456.9759,235.3825 L457.2468,236.541 L457.3248,237.6995 L457.7709,238.858 L457.017,240.0166 L457.017,240.0166 L457.3224,240.322 L455.0091,242.6427 L452.4988,244.7665 L450.2768,247.1787 L448.0684,249.6043 L445.4318,251.6018 L445.4318,250.6734 L434.4258,252.4752 L423.4199,251.2201 L412.4139,252.2889 L401.408,250.9646 L390.402,251.6018 L390.402,251.6018 L390.3708,251.5706 L388.4225,249.6222 L385.7458,246.9455 L383.4988,244.6986 L381.288,242.4877 L378.8168,240.0166 L379.3526,240.0166 L378.8118,238.858 L379.1865,237.6995 L378.08,236.541 L379.1829,235.3825 L378.8168,234.224 L378.8168,234.224 L379.138,234.37 L380.5254,231.1564 L382.0723,228.0154 L382.8782,224.5375 L384.2273,221.3065 L386.0576,218.2943 L385.8921,217.9302 L389.2278,216.8116 L392.3771,215.2828 L395.7968,214.3491 L398.7548,212.3993 L401.9872,211.0535 L401.9872,211.0535 L401.9118,210.846 L405.2234,212.3501 L408.2124,212.9672 L411.4308,214.2151 L414.8737,216.0802 L417.9169,216.8461" fill="#00BFFF"/></g><g class="participant participant-head" data-participant="IHM"><text fill="#000000" font-family="sans-serif" font-size="20.2741" lengthAdjust="spacing" textLength="40.2845" x="547.9494" y="279.916">IHM</text><path d="M542.7491,217.6948 L543.0196,217.6948 L542.2157,224.6459 L542.9979,231.597 L543.2635,238.5482 L541.8307,245.4993 L542.7491,252.4504 M542.7491,235.0726 L542.7491,234.9726 L547.6728,234.5236 L552.5965,234.579 L557.5202,234.9849 L562.4439,234.1827 L567.3676,235.0726" fill="none" style="stroke:#181818;stroke-width:0.7241;"/><polygon fill="#E2E2F0" points="602.2193,239.2996,599.672,242.7801,596.6591,247.878,592.35,251.3136,587.8219,253.1923,584.2115,253.3554,579.5711,251.0058,575.1926,249.4708,571.8693,246.3543,570.1261,242.7864,569.0923,239.9456,568.0794,236.2349,566.4355,233.0417,567.6988,229.924,568.8056,226.5089,572.959,223.8078,575.8811,220.3032,579.498,219.1394,583.7978,218.1372,589.3117,218.7327,592.3318,220.157,595.8431,220.8026,600.1125,225.1767,601.6008,229.7944,602.2474,232.9452,601.515,238.1372" style="stroke:#181818;stroke-width:0.7241;"/></g><g class="participant participant-head" data-participant="ST"><text fill="#000000" font-family="sans-serif" font-size="20.2741" lengthAdjust="spacing" textLength="75.1559" x="810.2939" y="279.916">Sistema</text><polygon fill="#E2E2F0" points="869.6901,239.2996,867.1428,242.7801,864.1299,247.878,859.8208,251.3136,855.2927,253.1923,851.6823,253.3554,847.0419,251.0058,842.6635,249.4708,839.3402,246.3543,837.5969,242.7864,836.5631,239.9456,835.5503,236.2349,833.9064,233.0417,835.1696,229.924,836.2764,226.5089,840.4298,223.8078,843.3519,220.3032,846.9688,219.1394,851.2686,218.1372,856.7825,218.7327,859.8026,220.157,863.3139,220.8026,867.5833,225.1767,869.0716,229.7944,869.7182,232.9452,868.9858,238.1372" style="stroke:#181818;stroke-width:0.7241;"/><polygon fill="#181818" points="846.4237,217.6948,846.4886,217.7727,848.0334,216.093,849.959,214.8702,851.7605,213.4986,853.1543,211.6376,855.1126,210.454,855.0777,210.4401,854.3422,211.8257,853.7822,213.2816,853.3442,214.7863,852.4857,216.1227,852.2163,217.6948,852.4644,217.7941,852.513,219.03,853.2861,220.5556,854.1476,222.1167,854.4949,223.472,855.1126,224.9356,855.1337,224.9609,853.3649,223.4756,851.6922,222.1055,849.9731,220.6798,848.3424,219.3601,846.4237,217.6948" style="stroke:#181818;stroke-width:1.4482;"/></g><g><title>IHM</title><polygon fill="#A9DCDF" points="565.1954,300.3378,565.1954,300.4392,568.0917,300.1378,570.988,300.4311,573.8843,300.5307,576.7806,299.9934,579.6769,300.3378,579.5644,300.3378,579.0593,314.5838,579.1216,328.8299,579.5782,343.076,578.6757,357.3221,580.4787,371.5681,578.7642,385.8142,579.3905,400.0603,580.3024,414.3063,579.5527,428.5524,579.7757,442.7985,579.6307,457.0445,579.9354,471.2906,580.0232,485.5367,580.5251,499.7827,580.6487,514.0288,580.6606,528.2749,579.6769,542.5209,579.6769,542.6439,576.7806,542.7447,573.8843,542.8599,570.988,542.1728,568.0917,542.8485,565.1954,542.5209,564.766,542.5209,565.9684,528.2749,564.4785,514.0288,565.0962,499.7827,566.2694,485.5367,565.1248,471.2906,565.3479,457.0445,565.6858,442.7985,565.7982,428.5524,565.1897,414.3063,565.6113,400.0603,564.3665,385.8142,565.6072,371.5681,565.9893,357.3221,565.8392,343.076,566.0832,328.8299,564.4958,314.5838,565.1954,300.3378" style="stroke:#181818;stroke-width:1.4482;"/></g><g><title>Sistema</title><polygon fill="#A9DCDF" points="844.9755,300.3378,844.9755,300.4392,847.8718,300.1378,850.7681,300.4311,853.6644,300.5307,856.5607,299.9934,859.457,300.3378,859.3445,300.3378,858.8394,314.5838,858.9017,328.8299,859.3583,343.076,858.4558,357.3221,860.2588,371.5681,858.5443,385.8142,859.1706,400.0603,860.0825,414.3063,859.3328,428.5524,859.5558,442.7985,859.4108,457.0445,859.7156,471.2906,859.8033,485.5367,860.3052,499.7827,860.4288,514.0288,860.4407,528.2749,859.457,542.5209,859.457,542.6439,856.5607,542.7447,853.6644,542.8599,850.7681,542.1728,847.8718,542.8485,844.9755,542.5209,844.5461,542.5209,845.7486,528.2749,844.2586,514.0288,844.8763,499.7827,846.0495,485.5367,844.9049,471.2906,845.128,457.0445,845.4659,442.7985,845.5783,428.5524,844.9699,414.3063,845.3914,400.0603,844.1466,385.8142,845.3873,371.5681,845.7694,357.3221,845.6193,343.076,845.8633,328.8299,844.2759,314.5838,844.9755,300.3378" style="stroke:#181818;stroke-width:1.4482;"/></g><polygon fill="#FEFFDD" points="770.0792,307.5785,770.0792,307.8829,784.6924,306.9785,799.3055,307.8584,813.9187,308.1573,828.5319,306.5454,843.145,307.466,857.7582,306.9609,872.3713,307.0232,886.9845,307.4798,901.5977,306.5773,916.2108,308.3803,930.824,307.5785,930.5493,307.4477,933.6341,313.6197,936.8049,319.8326,939.4755,325.8074,942.4389,331.9216,945.3055,337.9897,945.2915,337.9833,942.4877,344.3972,939.618,350.7812,936.874,357.2223,934.0152,363.6112,930.824,369.849,930.824,370.8327,916.2108,370.2178,901.5977,370.5204,886.9845,370.866,872.3713,368.8047,857.7582,370.8316,843.145,369.4197,828.5319,370.6221,813.9187,369.1322,799.3055,369.7498,784.6924,370.923,770.0792,369.849,770.0578,369.8393,767.2292,363.4982,764.4354,357.1729,761.5732,350.8166,758.4923,344.3608,755.5977,337.9897,755.7229,338.0493,758.2445,331.7887,761.5142,325.8843,764.5255,319.8568,767.3766,313.753,770.0792,307.5785" style="stroke:#181818;stroke-width:0.7241;"/><text fill="#000000" font-family="sans-serif" font-size="18.826" lengthAdjust="spacing" textLength="136.8461" x="772.9755" y="333.4961">Processamento</text><text fill="#000000" font-family="sans-serif" font-size="18.826" lengthAdjust="spacing" textLength="151.455" x="777.8703" y="359.1371">das informa&#231;&#245;es.</text><g class="message" data-participant-1="IHM" data-participant-2="OP"><polygon fill="#00BFFF" points="433.8466,406.2238,433.8842,406.318,430.876,407.1966,428.0886,408.6274,425.2293,409.8785,422.1335,410.5381,419.365,412.0164,419.3511,411.9815,422.1849,412.9837,425.0889,414.1615,428.0417,415.4614,430.8263,416.3406,433.8466,417.809,434.0355,417.998,432.4729,416.4353,431.462,415.4244,430.5184,414.4809,429.1832,413.1456,428.054,412.0164,428.0772,412.0397,429.2016,410.847,430.4319,409.7603,431.6111,408.6224,432.888,407.5822,433.8466,406.2238" style="stroke:#00BFFF;stroke-width:1.4482;"/><path d="M425.1577,412.0164 L425.1577,412.4222 L439.0166,411.2164 L452.8756,412.3896 L466.7345,412.7881 L480.5935,410.6389 L494.4525,411.8663 L508.3114,411.1929 L522.1704,411.2759 L536.0293,411.8848 L549.8883,410.6814 L563.7473,412.0164" fill="none" style="stroke:#00BFFF;stroke-width:1.4482;"/><text fill="#000000" font-family="sans-serif" font-size="18.826" lengthAdjust="spacing" textLength="112.5229" x="442.5355" y="403.6041">Visualiza&#231;&#227;o.</text></g><g class="message" data-participant-1="IHM" data-participant-2="ST"><polygon fill="#00BFFF" points="827.5977,426.4979,827.6354,426.5921,830.4197,427.4707,833.425,428.9016,836.3583,430.1526,839.055,430.8122,842.0792,432.2905,842.0653,432.2557,839.1064,433.2579,836.2178,434.4357,833.3781,435.7355,830.3701,436.6147,827.5977,438.0831,827.7867,438.2721,828.5411,436.7094,829.8472,435.6986,831.2207,434.755,832.2025,433.4197,833.3903,432.2905,833.4136,432.3138,832.2209,431.1211,831.1342,430.0344,829.9964,428.8966,828.9561,427.8563,827.5977,426.4979" style="stroke:#00BFFF;stroke-width:1.4482;"/><path d="M579.6769,432.2905 L579.6769,432.6963 L593.933,431.4905 L608.1891,432.6637 L622.4452,433.0622 L636.7013,430.913 L650.9574,432.1404 L665.2135,431.467 L679.4696,431.55 L693.7257,432.1589 L707.9818,430.9556 L722.2379,433.3595 L736.4939,431.0735 L750.75,431.9086 L765.0061,433.1245 L779.2622,432.1249 L793.5183,432.4223 L807.7744,432.2288 L822.0305,432.6352 L836.2866,432.2905" fill="none" style="stroke:#00BFFF;stroke-width:1.4482;"/></g><g class="message" data-participant-1="ST" data-participant-2="IHM"><polygon fill="#00BFFF" points="595.6066,523.695,595.6443,523.7892,592.636,524.6678,589.8486,526.0987,586.9893,527.3497,583.8935,528.0093,581.1251,529.4876,581.1111,529.4528,583.9449,530.455,586.8489,531.6327,589.8018,532.9326,592.5863,533.8118,595.6066,535.2802,595.7956,535.4692,594.2329,533.9065,593.222,532.8956,592.2785,531.9521,590.9432,530.6168,589.814,529.4876,589.8373,529.5109,590.9616,528.3182,592.192,527.2315,593.3712,526.0936,594.648,525.0534,595.6066,523.695" style="stroke:#00BFFF;stroke-width:1.4482;"/><path d="M586.9177,529.4876 L586.9177,529.8934 L601.1738,528.6876 L615.4299,529.8608 L629.686,530.2593 L643.942,528.1101 L658.1981,529.3375 L672.4542,528.6641 L686.7103,528.7471 L700.9664,529.356 L715.2225,528.1526 L729.4786,530.5566 L743.7347,528.2706 L757.9908,529.1057 L772.2469,530.3216 L786.503,529.322 L800.7591,529.6193 L815.0152,529.4259 L829.2713,529.8323 L843.5274,529.4876" fill="none" style="stroke:#00BFFF;stroke-width:1.4482;stroke-dasharray:2.8963,2.8963;"/><text fill="#000000" font-family="sans-serif" font-size="18.826" lengthAdjust="spacing" textLength="160.4539" x="604.2955" y="469.7933">Em menos de 2s a</text><text fill="#000000" font-family="sans-serif" font-size="18.826" lengthAdjust="spacing" textLength="220.7534" x="609.1902" y="495.4343">notifica&#231;&#227;o sonora/visual</text><text fill="#000000" font-family="sans-serif" font-size="18.826" lengthAdjust="spacing" textLength="202.1534" x="609.1902" y="521.0753">ocorre atrav&#233;s da IHM.</text></g><text fill="#1E90FF" font-family="Arial" font-size="20.2741" lengthAdjust="spacing" textLength="5.2712" x="43.4445" y="607.6384">&#160;</text><text fill="#1E90FF" font-family="Arial" font-size="20.2741" lengthAdjust="spacing" textLength="5.2712" x="43.4445" y="635.2517">&#160;</text><text fill="#1E90FF" font-family="Arial" font-size="20.2741" font-weight="bold" lengthAdjust="spacing" textLength="224.8594" x="43.4445" y="662.8649">Casos de Uso cobertos</text><text fill="#1E90FF" font-family="Arial" font-size="20.2741" lengthAdjust="spacing" textLength="5.4334" x="268.3039" y="662.8649">:</text><text fill="#1E90FF" font-family="Arial" font-size="20.2741" lengthAdjust="spacing" textLength="6.5282" x="43.4445" y="690.4781">-</text><text fill="#1E90FF" font-family="Arial" font-size="20.2741" font-weight="bold" lengthAdjust="spacing" textLength="84.4616" x="55.244" y="690.4781">MIO-002</text><text fill="#1E90FF" font-family="Arial" font-size="20.2741" lengthAdjust="spacing" textLength="196.2122" x="144.9769" y="690.4781">Exibi&#231;&#227;o de Alarmes;</text><polygon fill="none" points="39.8242,36.2038,39.8242,36.5082,54.3832,35.6038,68.9423,36.4837,83.5014,36.7826,98.0605,35.1707,112.6196,36.0912,127.1786,35.5862,141.7377,35.6484,156.2968,36.1051,170.8559,35.2026,185.415,37.0055,199.974,35.291,214.5331,35.9174,229.0922,36.8293,243.6513,36.0796,258.2104,36.3026,272.7694,36.1575,287.3285,36.4623,301.8876,36.5501,316.4467,37.052,331.0058,37.1756,345.5648,37.1874,360.1239,36.5725,374.683,36.8751,389.2421,37.2207,403.8012,35.1594,418.3602,37.1864,432.9193,35.7744,447.4784,36.9768,462.0375,35.4869,476.5966,36.1046,491.1556,37.2777,505.7147,36.1332,520.2738,36.3563,534.8329,36.6942,549.392,36.8065,563.951,36.1981,578.5101,36.6197,593.0692,35.3748,607.6283,36.6156,622.1874,36.9977,636.7464,36.8475,651.3055,37.0915,665.8646,35.5042,680.4237,35.2593,694.9828,35.3039,709.5418,36.1185,724.1009,35.9192,738.66,37.1906,753.2191,35.9508,767.7782,35.707,782.3372,36.5343,796.8963,35.2381,811.4554,35.452,826.0145,37.1436,840.5736,36.8347,855.1326,37.2674,869.6917,35.7378,884.2508,36.666,898.8099,37.0588,913.369,35.5197,927.928,36.065,942.4871,36.3862,957.0462,37.1476,971.6053,36.1977,986.1644,36.8737,1000.7234,35.4018,1015.2825,35.223,1029.8416,36.9331,1044.4007,35.1655,1058.9598,36.9408,1073.5188,36.503,1088.0779,35.8158,1102.637,35.6915,1117.1961,36.8681,1131.7552,35.7703,1146.3142,37.0609,1160.8733,35.4033,1175.4324,37.0979,1189.9915,36.9051,1204.5505,36.5585,1219.1096,36.2722,1233.6687,37.256,1248.2278,37.0923,1262.7869,36.2038,1262.8181,36.2793,1264.3724,36.9596,1265.8348,37.4181,1267.5272,38.432,1268.9595,38.8178,1270.4669,39.3849,1270.5438,39.4168,1270.8318,40.8086,1271.5586,42.3821,1272.6122,44.091,1273.2034,45.6083,1273.648,47.0649,1273.5858,47.0649,1273.1815,62.1952,1273.331,77.3255,1272.6543,92.4557,1274.2486,107.586,1273.648,122.7163,1273.9778,122.8529,1273.2465,124.3495,1272.6855,125.9167,1271.6783,127.299,1271.142,128.8764,1270.4669,130.3963,1270.3953,130.2234,1268.9833,131.1592,1267.4404,131.7788,1265.9609,132.5513,1264.2804,132.8388,1262.7869,133.5774,1262.7869,133.3828,1248.2278,134.2196,1233.6687,134.399,1219.1096,132.8352,1204.5505,133.2967,1189.9915,133.7936,1175.4324,132.6928,1160.8733,134.0892,1146.3142,133.951,1131.7552,133.4315,1117.1961,133.7834,1102.637,134.6327,1088.0779,133.1244,1073.5188,134.0336,1058.9598,133.9911,1044.4007,133.7451,1029.8416,133.7815,1015.2825,133.7418,1000.7234,132.6736,986.1644,132.997,971.6053,132.9091,957.0462,133.6699,942.4871,133.7051,927.928,133.8117,913.369,133.1561,898.8099,133.4797,884.2508,133.4033,869.6917,134.4128,855.1326,134.1952,840.5736,132.8743,826.0145,133.4718,811.4554,132.7415,796.8963,133.9951,782.3372,134.4586,767.7782,134.3661,753.2191,132.9467,738.66,134.2493,724.1009,132.5017,709.5418,133.8673,694.9828,133.144,680.4237,133.7175,665.8646,133.9255,651.3055,134.2611,636.7464,132.5349,622.1874,134.266,607.6283,133.8355,593.0692,134.092,578.5101,134.6604,563.951,133.5854,549.392,133.8313,534.8329,133.8865,520.2738,133.8631,505.7147,133.5763,491.1556,134.6066,476.5966,132.6944,462.0375,134.396,447.4784,132.6738,432.9193,132.795,418.3602,133.6354,403.8012,133.6184,389.2421,132.8637,374.683,134.1766,360.1239,133.7351,345.5648,134.6298,331.0058,134.5435,316.4467,132.9283,301.8876,133.0012,287.3285,133.3904,272.7694,134.0923,258.2104,134.161,243.6513,134.0136,229.0922,133.0822,214.5331,134.499,199.974,134.4953,185.415,133.509,170.8559,133.2312,156.2968,132.9962,141.7377,133.2667,127.1786,133.7764,112.6196,133.4784,98.0605,132.9724,83.5014,134.2832,68.9423,132.9128,54.3832,134.305,39.8242,133.5774,39.9031,133.768,38.3569,133.1071,36.8801,132.6138,35.1707,131.5591,33.6246,130.8984,32.1442,130.3963,32.3756,130.4921,31.2417,128.75,30.7674,127.2811,30.287,125.8096,29.6299,124.265,28.963,122.7163,28.4439,122.7163,28.9008,107.586,30.0413,92.4557,29.9021,77.3255,28.0995,62.1952,28.963,47.0649,28.998,47.0794,29.3701,45.434,30.2237,43.9881,31.0024,42.5111,31.6952,40.9985,32.1442,39.3849,32.0214,39.0885,33.7542,38.9273,35.2177,38.1162,36.6496,37.2286,38.2011,36.6299,39.8242,36.2038" style="stroke:#000000;stroke-width:1.4482;"/><text fill="#1E90FF" font-family="Arial" font-size="28.963" font-weight="bold" lengthAdjust="spacing" textLength="1186.7589" x="57.9261" y="96.1283">Diagrama de sequ&#234;ncia - M&#243;dulo de Interface e Opera&#231;&#227;o (MIO) - IHM Operacional</text><!--SRC=[dLEnRXin3Dtv5QmN9uVO3Z9UqG95xA8UN1jmcgaBhQDj0NUY8-aCjtzJT2ZQDSWNt8-LqXb1Xqw-uI2HV8_K8_d6EbEt5UDqzd4zFhHD3K0cYiV1yi2UAl43f83B5MoaTHNvRpYOVreCm8YBNcfSsn2veHIqVW2O3669uMoRpXvdo2UxiHwf9jzmGCsrfNfFOropxtwWyWHRvLH8aLrbAu6dbfpUM-N8mUW45_TunQSI6qdbHKz7XLpZJg4-HpRi0ksumSYds58DHbCgb50Bla4oqXp8xQcYL4JRd4l284wy8EFH1eNTe58eb-HQxo3mJX-kDpfqp_f7CU9zzySPIsCOJW26xoxwO8Z__URE6YkNiwxODpQ4xeL3cPffZwfhQixhMVM0lHCzoP6zkafSUJ4S0kd3e-1NXvKsrBgj-8QwNubh30h3qNkTZDMWnCSiblsUl3_brQbfrWyuqfCQIfpzAsKIJvariTrQqmDxzMdIQv_SMLxMMT0ETxyLcVitlb0F67wMI2h4XN2eUQT3YL4EK1HJIpjFJHwWm4zjFmKumaNtNBMr9FlSHVPRCgmJbNUeV-VLOhwyriYaKpPhZntLHG69liy2i1NjYWVGNFSKUjs-1D4jsR2F4egY12Kf2cKRtTxU5GNEqdxrEJJuGxzcRpFhcUql]--></g></svg>