<svg xmlns="http://www.w3.org/2000/svg" xmlns:xlink="http://www.w3.org/1999/xlink" contentStyleType="text/css" data-diagram-type="SEQUENCE" height="750.4426px" preserveAspectRatio="none" style="width:857px;height:750px;background:#EEEBDC;" version="1.1" viewBox="0 0 857 750" width="857.2436px" zoomAndPan="magnify"><defs/><g><rect fill="#EEEBDC" height="750.4426" style="stroke:none;stroke-width:0.9451;" width="857.2436" x="0" y="0"/><g><title>IHM</title><polygon fill="#A9DCDF" points="336.8833,196.0167,336.8833,196.0829,338.7735,195.8861,340.6638,196.0776,342.5541,196.1426,344.4444,195.7919,346.3347,196.0167,346.2612,196.0167,345.9316,205.344,345.9722,214.6713,346.2703,223.9986,345.6812,233.3258,346.8579,242.6531,345.739,251.9804,346.1478,261.3077,346.7429,270.635,346.2536,279.9623,346.3992,289.2896,346.3045,298.6169,346.5034,307.9442,346.5607,317.2715,346.8882,326.5988,346.9689,335.9261,346.9767,345.2534,346.5753,354.5807,346.7728,363.908,346.9984,373.2353,345.653,382.5626,346.976,391.8899,346.0544,401.2172,346.8392,410.5444,345.8668,419.8717,346.2699,429.199,347.0356,438.5263,346.2886,447.8536,346.4342,457.1809,346.6547,466.5082,346.3347,475.8355,346.3347,475.9666,344.4444,475.8343,342.5541,475.926,340.6638,475.6552,338.7735,475.9251,336.8833,475.8355,337.4014,475.8355,337.3034,466.5082,337.4626,457.1809,336.4267,447.8536,336.2668,438.5263,336.2959,429.199,336.8276,419.8717,336.6975,410.5444,337.5273,401.2172,336.7182,391.8899,336.559,382.5626,337.099,373.2353,336.253,363.908,336.3926,354.5807,337.4966,345.2534,337.295,335.9261,337.5774,326.5988,336.5791,317.2715,337.1849,307.9442,337.4413,298.6169,336.4368,289.2896,336.7926,279.9623,337.0023,270.635,337.4993,261.3077,336.8793,251.9804,337.3204,242.6531,336.3598,233.3258,336.2431,223.9986,337.3592,214.6713,336.2056,205.344,336.8833,196.0167" style="stroke:#A9DCDF;stroke-width:0.9451;"/><path d="M336.8833,196.0167 L337.1481,196.0167 L336.3611,205.344 L337.1268,214.6713 L337.3869,223.9986 L335.9842,233.3258 L336.7853,242.6531 L336.3458,251.9804 L336.4,261.3077 L336.7974,270.635 L336.012,279.9623 L337.5809,289.2896 L336.089,298.6169 L336.634,307.9442 L337.4276,317.2715 L336.7752,326.5988 L336.9692,335.9261 L336.843,345.2534 L337.1082,354.5807 L337.1846,363.908 L337.6213,373.2353 L337.7289,382.5626 L337.7392,391.8899 L337.2041,401.2172 L337.4675,410.5444 L337.7682,419.8717 L335.9744,429.199 L337.7383,438.5263 L336.5096,447.8536 L337.556,457.1809 L336.2594,466.5082 L336.8833,475.8355" fill="none" style="stroke:#181818;stroke-width:0.9451;"/><path d="M346.3347,196.0167 L346.5995,196.0167 L345.8125,205.344 L346.5782,214.6713 L346.8383,223.9986 L345.4357,233.3258 L346.2367,242.6531 L345.7972,251.9804 L345.8514,261.3077 L346.2488,270.635 L345.4634,279.9623 L347.0324,289.2896 L345.5404,298.6169 L346.0854,307.9442 L346.879,317.2715 L346.2266,326.5988 L346.4207,335.9261 L346.2944,345.2534 L346.5596,354.5807 L346.636,363.908 L347.0727,373.2353 L347.1803,382.5626 L347.1907,391.8899 L346.6555,401.2172 L346.9189,410.5444 L347.2196,419.8717 L345.4258,429.199 L347.1897,438.5263 L345.961,447.8536 L347.0074,457.1809 L345.7108,466.5082 L346.3347,475.8355" fill="none" style="stroke:#181818;stroke-width:0.9451;"/><path d="M336.8833,196.0167 L336.8833,196.105 L338.7735,195.8426 L340.6638,196.0979 L342.5541,196.1846 L344.4444,195.717 L346.3347,196.0167" fill="none" style="stroke:#181818;stroke-width:0.9451;"/></g><g><title>IHM</title><polygon fill="#A9DCDF" points="336.8833,516.4595,336.8833,516.5257,338.7735,516.329,340.6638,516.5204,342.5541,516.5854,344.4444,516.2347,346.3347,516.4595,346.2612,516.4595,345.9316,526.2723,345.9722,536.0852,346.2703,545.898,345.6812,555.7109,346.8579,565.5237,345.739,575.3366,346.1478,585.1494,346.7429,594.9623,346.2536,604.7751,346.3347,614.588,346.3347,614.6095,344.4444,614.5779,342.5541,614.6442,340.6638,614.6633,338.7735,614.7725,336.8833,614.588,337.5175,614.588,337.5252,604.7751,337.1239,594.9623,337.3214,585.1494,337.547,575.3366,336.2016,565.5237,337.5245,555.7109,336.603,545.898,337.3878,536.0852,336.4154,526.2723,336.8833,516.4595" style="stroke:#A9DCDF;stroke-width:0.9451;"/><path d="M336.8833,516.4595 L337.1481,516.4595 L336.3611,526.2723 L337.1268,536.0852 L337.3869,545.898 L335.9842,555.7109 L336.7853,565.5237 L336.3458,575.3366 L336.4,585.1494 L336.7974,594.9623 L336.012,604.7751 L336.8833,614.588" fill="none" style="stroke:#181818;stroke-width:0.9451;"/><path d="M346.3347,516.4595 L346.5995,516.4595 L345.8125,526.2723 L346.5782,536.0852 L346.8383,545.898 L345.4357,555.7109 L346.2367,565.5237 L345.7972,575.3366 L345.8514,585.1494 L346.2488,594.9623 L345.4634,604.7751 L346.3347,614.588" fill="none" style="stroke:#181818;stroke-width:0.9451;"/><path d="M336.8833,614.588 L336.8833,614.6762 L338.7735,614.4139 L340.6638,614.6691 L342.5541,614.7558 L344.4444,614.2883 L346.3347,614.588" fill="none" style="stroke:#181818;stroke-width:0.9451;"/></g><g><title>Sistema</title><polygon fill="#A9DCDF" points="571.6652,196.0167,571.6652,196.0829,573.5555,195.8861,575.4458,196.0776,577.336,196.1426,579.2263,195.7919,581.1166,196.0167,581.0432,196.0167,580.7135,205.344,580.7541,214.6713,581.0522,223.9986,580.4632,233.3258,581.6399,242.6531,580.5209,251.9804,580.9297,261.3077,581.5249,270.635,581.0355,279.9623,581.1811,289.2896,581.0864,298.6169,581.2853,307.9442,581.3426,317.2715,581.6702,326.5988,581.7508,335.9261,581.7586,345.2534,581.3573,354.5807,581.5548,363.908,581.7803,373.2353,580.435,382.5626,581.7579,391.8899,580.8364,401.2172,581.6211,410.5444,580.6487,419.8717,581.0519,429.199,581.8175,438.5263,581.0705,447.8536,581.2161,457.1809,581.4367,466.5082,581.1166,475.8355,581.1166,475.9666,579.2263,475.8343,577.336,475.926,575.4458,475.6552,573.5555,475.9251,571.6652,475.8355,572.1833,475.8355,572.0853,466.5082,572.2446,457.1809,571.2086,447.8536,571.0488,438.5263,571.0779,429.199,571.6095,419.8717,571.4794,410.5444,572.3092,401.2172,571.5001,391.8899,571.3409,382.5626,571.8809,373.2353,571.0349,363.908,571.1745,354.5807,572.2785,345.2534,572.077,335.9261,572.3594,326.5988,571.361,317.2715,571.9669,307.9442,572.2232,298.6169,571.2187,289.2896,571.5746,279.9623,571.7843,270.635,572.2812,261.3077,571.6612,251.9804,572.1024,242.6531,571.1418,233.3258,571.0251,223.9986,572.1412,214.6713,570.9876,205.344,571.6652,196.0167" style="stroke:#A9DCDF;stroke-width:0.9451;"/><path d="M571.6652,196.0167 L571.9301,196.0167 L571.1431,205.344 L571.9088,214.6713 L572.1689,223.9986 L570.7662,233.3258 L571.5673,242.6531 L571.1277,251.9804 L571.1819,261.3077 L571.5793,270.635 L570.7939,279.9623 L572.3629,289.2896 L570.8709,298.6169 L571.416,307.9442 L572.2095,317.2715 L571.5571,326.5988 L571.7512,335.9261 L571.6249,345.2534 L571.8902,354.5807 L571.9665,363.908 L572.4033,373.2353 L572.5108,382.5626 L572.5212,391.8899 L571.9861,401.2172 L572.2494,410.5444 L572.5501,419.8717 L570.7564,429.199 L572.5202,438.5263 L571.2915,447.8536 L572.3379,457.1809 L571.0414,466.5082 L571.6652,475.8355" fill="none" style="stroke:#181818;stroke-width:0.9451;"/><path d="M581.1166,196.0167 L581.3815,196.0167 L580.5945,205.344 L581.3602,214.6713 L581.6203,223.9986 L580.2176,233.3258 L581.0187,242.6531 L580.5791,251.9804 L580.6333,261.3077 L581.0307,270.635 L580.2453,279.9623 L581.8143,289.2896 L580.3223,298.6169 L580.8674,307.9442 L581.6609,317.2715 L581.0085,326.5988 L581.2026,335.9261 L581.0763,345.2534 L581.3416,354.5807 L581.418,363.908 L581.8547,373.2353 L581.9623,382.5626 L581.9726,391.8899 L581.4375,401.2172 L581.7008,410.5444 L582.0015,419.8717 L580.2078,429.199 L581.9717,438.5263 L580.743,447.8536 L581.7893,457.1809 L580.4928,466.5082 L581.1166,475.8355" fill="none" style="stroke:#181818;stroke-width:0.9451;"/><path d="M571.6652,196.0167 L571.6652,196.105 L573.5555,195.8426 L575.4458,196.0979 L577.336,196.1846 L579.2263,195.717 L581.1166,196.0167" fill="none" style="stroke:#181818;stroke-width:0.9451;"/></g><g><title>Sistema</title><polygon fill="#A9DCDF" points="571.6652,516.4595,571.6652,516.5257,573.5555,516.329,575.4458,516.5204,577.336,516.5854,579.2263,516.2347,581.1166,516.4595,581.0432,516.4595,580.7135,526.2723,580.7541,536.0852,581.0522,545.898,580.4632,555.7109,581.6399,565.5237,580.5209,575.3366,580.9297,585.1494,581.5249,594.9623,581.0355,604.7751,581.1166,614.588,581.1166,614.6095,579.2263,614.5779,577.336,614.6442,575.4458,614.6633,573.5555,614.7725,571.6652,614.588,572.2994,614.588,572.3072,604.7751,571.9058,594.9623,572.1033,585.1494,572.3289,575.3366,570.9836,565.5237,572.3065,555.7109,571.3849,545.898,572.1697,536.0852,571.1973,526.2723,571.6652,516.4595" style="stroke:#A9DCDF;stroke-width:0.9451;"/><path d="M571.6652,516.4595 L571.9301,516.4595 L571.1431,526.2723 L571.9088,536.0852 L572.1689,545.898 L570.7662,555.7109 L571.5673,565.5237 L571.1277,575.3366 L571.1819,585.1494 L571.5793,594.9623 L570.7939,604.7751 L571.6652,614.588" fill="none" style="stroke:#181818;stroke-width:0.9451;"/><path d="M581.1166,516.4595 L581.3815,516.4595 L580.5945,526.2723 L581.3602,536.0852 L581.6203,545.898 L580.2176,555.7109 L581.0187,565.5237 L580.5791,575.3366 L580.6333,585.1494 L581.0307,594.9623 L580.2453,604.7751 L581.1166,614.588" fill="none" style="stroke:#181818;stroke-width:0.9451;"/><path d="M571.6652,614.588 L571.6652,614.6762 L573.5555,614.4139 L575.4458,614.6691 L577.336,614.7558 L579.2263,614.2883 L581.1166,614.588" fill="none" style="stroke:#181818;stroke-width:0.9451;"/></g><g><title>Operador</title><polygon fill="#000000" fill-opacity="0.00000" points="121.5458,186.5652,121.5458,186.6315,123.058,186.4347,124.5702,186.6261,126.0825,186.6912,127.5947,186.3405,129.1069,186.5652,129.0335,186.5652,128.7038,195.8965,128.7445,205.2278,129.0425,214.5591,128.4535,223.8904,129.6302,233.2217,128.5112,242.553,128.92,251.8843,129.5152,261.2156,129.0258,270.5469,129.1714,279.8782,129.0767,289.2095,129.2756,298.5408,129.3329,307.8721,129.6605,317.2034,129.7412,326.5347,129.7489,335.866,129.3476,345.1973,129.5451,354.5286,129.7706,363.8599,128.4253,373.1912,129.7482,382.5225,128.8267,391.8538,129.6114,401.1851,128.639,410.5164,129.0422,419.8477,129.8078,429.179,129.0609,438.5103,129.2064,447.8416,129.427,457.1729,129.5003,466.5042,129.1069,475.8355,129.1069,475.8343,127.5947,475.926,126.0825,475.6552,124.5702,475.9251,123.058,476.0082,121.5458,475.8355,121.9659,475.8355,122.1252,466.5042,121.0892,457.1729,120.9294,447.8416,120.9585,438.5103,121.4901,429.179,121.36,419.8477,122.1898,410.5164,121.3807,401.1851,121.2215,391.8538,121.7615,382.5225,120.9155,373.1912,121.0551,363.8599,122.1591,354.5286,121.9575,345.1973,122.24,335.866,121.2416,326.5347,121.8475,317.2034,122.1038,307.8721,121.0993,298.5408,121.4552,289.2095,121.6648,279.8782,122.1618,270.5469,121.5418,261.2156,121.983,251.8843,121.0224,242.553,120.9057,233.2217,122.0218,223.8904,120.8682,214.5591,122.0268,205.2278,121.7411,195.8965,121.5458,186.5652"/><path d="M124.5519,186.5652 L124.8168,186.5652 L124.0298,195.8965 L124.7955,205.2278 L125.0556,214.5591 L123.6529,223.8904 L124.454,233.2217 L124.0144,242.553 L124.0686,251.8843 L124.466,261.2156 L123.6806,270.5469 L125.2496,279.8782 L123.7576,289.2095 L124.3027,298.5408 L125.0962,307.8721 L124.4438,317.2034 L124.6379,326.5347 L124.5116,335.866 L124.7769,345.1973 L124.8533,354.5286 L125.29,363.8599 L125.3976,373.1912 L125.4079,382.5225 L124.8728,391.8538 L125.1361,401.1851 L125.4368,410.5164 L123.6431,419.8477 L125.4069,429.179 L124.1782,438.5103 L125.2246,447.8416 L123.9281,457.1729 L124.4656,466.5042 L124.5519,475.8355" fill="none" style="stroke:#0000FF;stroke-width:0.4726;stroke-dasharray:4.7257,4.7257;"/></g><path d="M124.5519,475.8355 L124.6402,475.8355 L124.3779,483.9603 L124.6331,492.0851 L124.7198,500.2099 L124.2522,508.3347 L124.5519,516.4595" fill="none" style="stroke:#0000FF;stroke-width:0.4726;stroke-dasharray:0.9451,3.7806;"/><g><title>Operador</title><polygon fill="#000000" fill-opacity="0.00000" points="121.5458,516.4595,121.5458,516.5257,123.058,516.329,124.5702,516.5204,126.0825,516.5854,127.5947,516.2347,129.1069,516.4595,129.0335,516.4595,128.7038,526.1536,128.7445,535.8476,129.0425,545.5417,128.4535,555.2358,129.6302,564.9298,128.5112,574.6239,128.92,584.318,129.5152,594.012,129.0258,603.7061,129.1714,613.4002,129.1069,623.0942,129.1069,623.0842,127.5947,623.1505,126.0825,623.1696,124.5702,623.2788,123.058,623.3056,121.5458,623.0942,122.1878,623.0942,121.7864,613.4002,121.9839,603.7061,122.2095,594.012,120.8642,584.318,122.1871,574.6239,121.2655,564.9298,122.0503,555.2358,121.0779,545.5417,121.481,535.8476,122.2467,526.1536,121.5458,516.4595"/><path d="M124.5519,516.4595 L124.8168,516.4595 L124.0298,526.1536 L124.7955,535.8476 L125.0556,545.5417 L123.6529,555.2358 L124.454,564.9298 L124.0144,574.6239 L124.0686,584.318 L124.466,594.012 L123.6806,603.7061 L125.2496,613.4002 L124.5519,623.0942" fill="none" style="stroke:#0000FF;stroke-width:0.4726;stroke-dasharray:4.7257,4.7257;"/></g><g><title>IHM</title><polygon fill="#000000" fill-opacity="0.00000" points="337.8284,186.5652,337.8284,186.6315,339.3406,186.4347,340.8528,186.6261,342.3651,186.6912,343.8773,186.3405,345.3895,186.5652,345.3161,186.5652,344.9864,195.8965,345.0271,205.2278,345.3251,214.5591,344.7361,223.8904,345.9128,233.2217,344.7938,242.553,345.2026,251.8843,345.7978,261.2156,345.3085,270.5469,345.454,279.8782,345.3593,289.2095,345.5583,298.5408,345.6155,307.8721,345.9431,317.2034,346.0238,326.5347,346.0315,335.866,345.6302,345.1973,345.8277,354.5286,346.0532,363.8599,344.7079,373.1912,346.0308,382.5225,345.1093,391.8538,345.8941,401.1851,344.9217,410.5164,345.3248,419.8477,346.0904,429.179,345.3435,438.5103,345.4891,447.8416,345.7096,457.1729,345.7829,466.5042,345.3895,475.8355,345.3895,475.8343,343.8773,475.926,342.3651,475.6552,340.8528,475.9251,339.3406,476.0082,337.8284,475.8355,338.2485,475.8355,338.4078,466.5042,337.3718,457.1729,337.212,447.8416,337.2411,438.5103,337.7727,429.179,337.6426,419.8477,338.4724,410.5164,337.6633,401.1851,337.5042,391.8538,338.0441,382.5225,337.1981,373.1912,337.3377,363.8599,338.4417,354.5286,338.2402,345.1973,338.5226,335.866,337.5243,326.5347,338.1301,317.2034,338.3864,307.8721,337.3819,298.5408,337.7378,289.2095,337.9475,279.8782,338.4444,270.5469,337.8244,261.2156,338.2656,251.8843,337.305,242.553,337.1883,233.2217,338.3044,223.8904,337.1508,214.5591,338.3094,205.2278,338.0237,195.8965,337.8284,186.5652"/><path d="M341.1364,186.5652 L341.4013,186.5652 L340.6143,195.8965 L341.38,205.2278 L341.6401,214.5591 L340.2374,223.8904 L341.0385,233.2217 L340.5989,242.553 L340.6531,251.8843 L341.0505,261.2156 L340.2651,270.5469 L341.8341,279.8782 L340.3421,289.2095 L340.8872,298.5408 L341.6807,307.8721 L341.0283,317.2034 L341.2224,326.5347 L341.0961,335.866 L341.3614,345.1973 L341.4377,354.5286 L341.8745,363.8599 L341.982,373.1912 L341.9924,382.5225 L341.4573,391.8538 L341.7206,401.1851 L342.0213,410.5164 L340.2276,419.8477 L341.9914,429.179 L340.7627,438.5103 L341.8091,447.8416 L340.5126,457.1729 L341.0501,466.5042 L341.1364,475.8355" fill="none" style="stroke:#0000FF;stroke-width:0.4726;stroke-dasharray:4.7257,4.7257;"/></g><path d="M341.1364,475.8355 L341.2247,475.8355 L340.9623,483.9603 L341.2176,492.0851 L341.3043,500.2099 L340.8367,508.3347 L341.1364,516.4595" fill="none" style="stroke:#0000FF;stroke-width:0.4726;stroke-dasharray:0.9451,3.7806;"/><g><title>IHM</title><polygon fill="#000000" fill-opacity="0.00000" points="337.8284,516.4595,337.8284,516.5257,339.3406,516.329,340.8528,516.5204,342.3651,516.5854,343.8773,516.2347,345.3895,516.4595,345.3161,516.4595,344.9864,526.1536,345.0271,535.8476,345.3251,545.5417,344.7361,555.2358,345.9128,564.9298,344.7938,574.6239,345.2026,584.318,345.7978,594.012,345.3085,603.7061,345.454,613.4002,345.3895,623.0942,345.3895,623.0842,343.8773,623.1505,342.3651,623.1696,340.8528,623.2788,339.3406,623.3056,337.8284,623.0942,338.4704,623.0942,338.0691,613.4002,338.2665,603.7061,338.4921,594.012,337.1468,584.318,338.4697,574.6239,337.5482,564.9298,338.3329,555.2358,337.3605,545.5417,337.7637,535.8476,338.5293,526.1536,337.8284,516.4595"/><path d="M341.1364,516.4595 L341.4013,516.4595 L340.6143,526.1536 L341.38,535.8476 L341.6401,545.5417 L340.2374,555.2358 L341.0385,564.9298 L340.5989,574.6239 L340.6531,584.318 L341.0505,594.012 L340.2651,603.7061 L341.8341,613.4002 L341.1364,623.0942" fill="none" style="stroke:#0000FF;stroke-width:0.4726;stroke-dasharray:4.7257,4.7257;"/></g><g><title>Sistema</title><polygon fill="#000000" fill-opacity="0.00000" points="572.6103,186.5652,572.6103,186.6315,574.1226,186.4347,575.6348,186.6261,577.147,186.6912,578.6592,186.3405,580.1715,186.5652,580.098,186.5652,579.7684,195.8965,579.809,205.2278,580.107,214.5591,579.518,223.8904,580.6947,233.2217,579.5758,242.553,579.9845,251.8843,580.5797,261.2156,580.0904,270.5469,580.236,279.8782,580.1413,289.2095,580.3402,298.5408,580.3975,307.8721,580.725,317.2034,580.8057,326.5347,580.8135,335.866,580.4121,345.1973,580.6096,354.5286,580.8352,363.8599,579.4898,373.1912,580.8127,382.5225,579.8912,391.8538,580.676,401.1851,579.7036,410.5164,580.1067,419.8477,580.8724,429.179,580.1254,438.5103,580.271,447.8416,580.4915,457.1729,580.5649,466.5042,580.1715,475.8355,580.1715,475.8343,578.6592,475.926,577.147,475.6552,575.6348,475.9251,574.1226,476.0082,572.6103,475.8355,573.0305,475.8355,573.1897,466.5042,572.1537,457.1729,571.9939,447.8416,572.023,438.5103,572.5547,429.179,572.4246,419.8477,573.2544,410.5164,572.4452,401.1851,572.2861,391.8538,572.8261,382.5225,571.9801,373.1912,572.1197,363.8599,573.2237,354.5286,573.0221,345.1973,573.3045,335.866,572.3062,326.5347,572.912,317.2034,573.1684,307.8721,572.1638,298.5408,572.5197,289.2095,572.7294,279.8782,573.2263,270.5469,572.6064,261.2156,573.0475,251.8843,572.0869,242.553,571.9702,233.2217,573.0863,223.8904,571.9327,214.5591,573.0914,205.2278,572.8056,195.8965,572.6103,186.5652"/><path d="M575.494,186.5652 L575.7589,186.5652 L574.9719,195.8965 L575.7376,205.2278 L575.9977,214.5591 L574.595,223.8904 L575.3961,233.2217 L574.9566,242.553 L575.0108,251.8843 L575.4082,261.2156 L574.6228,270.5469 L576.1917,279.8782 L574.6998,289.2095 L575.2448,298.5408 L576.0384,307.8721 L575.3859,317.2034 L575.58,326.5347 L575.4538,335.866 L575.719,345.1973 L575.7954,354.5286 L576.2321,363.8599 L576.3397,373.1912 L576.35,382.5225 L575.8149,391.8538 L576.0782,401.1851 L576.379,410.5164 L574.5852,419.8477 L576.3491,429.179 L575.1204,438.5103 L576.1667,447.8416 L574.8702,457.1729 L575.4077,466.5042 L575.494,475.8355" fill="none" style="stroke:#0000FF;stroke-width:0.4726;stroke-dasharray:4.7257,4.7257;"/></g><path d="M575.494,475.8355 L575.5823,475.8355 L575.32,483.9603 L575.5752,492.0851 L575.6619,500.2099 L575.1944,508.3347 L575.494,516.4595" fill="none" style="stroke:#0000FF;stroke-width:0.4726;stroke-dasharray:0.9451,3.7806;"/><g><title>Sistema</title><polygon fill="#000000" fill-opacity="0.00000" points="572.6103,516.4595,572.6103,516.5257,574.1226,516.329,575.6348,516.5204,577.147,516.5854,578.6592,516.2347,580.1715,516.4595,580.098,516.4595,579.7684,526.1536,579.809,535.8476,580.107,545.5417,579.518,555.2358,580.6947,564.9298,579.5758,574.6239,579.9845,584.318,580.5797,594.012,580.0904,603.7061,580.236,613.4002,580.1715,623.0942,580.1715,623.0842,578.6592,623.1505,577.147,623.1696,575.6348,623.2788,574.1226,623.3056,572.6103,623.0942,573.2523,623.0942,572.851,613.4002,573.0485,603.7061,573.274,594.012,571.9287,584.318,573.2516,574.6239,572.3301,564.9298,573.1149,555.2358,572.1425,545.5417,572.5456,535.8476,573.3112,526.1536,572.6103,516.4595"/><path d="M575.494,516.4595 L575.7589,516.4595 L574.9719,526.1536 L575.7376,535.8476 L575.9977,545.5417 L574.595,555.2358 L575.3961,564.9298 L574.9566,574.6239 L575.0108,584.318 L575.4082,594.012 L574.6228,603.7061 L576.1917,613.4002 L575.494,623.0942" fill="none" style="stroke:#0000FF;stroke-width:0.4726;stroke-dasharray:4.7257,4.7257;"/></g><g class="participant participant-head" data-participant="OP"><text fill="#1E90FF" font-family="Aapex" font-size="16.0674" lengthAdjust="spacing" textLength="73.3797" x="85.8011" y="181.8575">Operador</text><polygon fill="#00BFFF" points="140.5322,126.301,138.3155,129.3298,135.6936,133.766,131.9439,136.7557,128.0035,138.3905,124.8617,138.5324,120.8236,136.4878,117.0134,135.1521,114.1215,132.44,112.6045,129.3353,111.7049,126.8631,110.8235,123.6341,109.393,120.8554,110.4923,118.1424,111.4554,115.1705,115.0697,112.82,117.6126,109.7703,120.76,108.7575,124.5017,107.8854,129.2999,108.4036,131.928,109.643,134.9836,110.2048,138.6988,114.0112,139.9939,118.0296,140.5566,120.7714,139.9193,125.2895" style="stroke:#00BFFF;stroke-width:0.4726;"/><path d="M125.3263,141.5255 L125.3263,141.5255 L125.3565,141.6085 L127.3462,140.6058 L129.5127,140.0896 L131.6217,139.415 L133.5412,138.2194 L135.7229,137.7449 L135.7229,137.7449 L135.7094,137.7152 L137.7281,138.527 L139.8149,139.4886 L141.949,140.5543 L143.92,141.2611 L146.1195,142.4707 L146.3312,142.5669 L146.8236,144.4404 L147.9341,146.5949 L149.1201,148.7837 L149.8672,150.773 L150.8452,152.8672 L150.9025,152.8672 L150.8183,153.6233 L150.9952,154.3794 L151.0461,155.1356 L151.3372,155.8917 L150.8452,156.6478 L150.8452,156.6478 L151.0445,156.8471 L149.5347,158.3618 L147.8964,159.7479 L146.4462,161.3222 L145.0048,162.9053 L143.284,164.2089 L143.284,163.603 L136.101,164.779 L128.9179,163.9598 L121.7348,164.6574 L114.5517,163.793 L107.3686,164.2089 L107.3686,164.2089 L107.3483,164.1886 L106.0767,162.917 L104.3297,161.17 L102.8632,159.7035 L101.4203,158.2606 L99.8075,156.6478 L100.1572,156.6478 L99.8042,155.8917 L100.0488,155.1356 L99.3266,154.3794 L100.0464,153.6233 L99.8075,152.8672 L99.8075,152.8672 L100.0172,152.9625 L100.9227,150.8652 L101.9322,148.8151 L102.4582,146.5453 L103.3387,144.4366 L104.5332,142.4707 L104.4252,142.233 L106.6023,141.503 L108.6577,140.5052 L110.8896,139.8958 L112.8201,138.6233 L114.9298,137.7449 L114.9298,137.7449 L114.8805,137.6095 L117.0419,138.5912 L118.9927,138.9939 L121.0932,139.8083 L123.3402,141.0256 L125.3263,141.5255" fill="#00BFFF"/></g><g class="participant participant-head" data-participant="IHM"><text fill="#000000" font-family="sans-serif" font-size="13.232" lengthAdjust="spacing" textLength="26.2919" x="325.6276" y="182.6883">IHM</text><path d="M322.2336,142.0794 L322.4101,142.0794 L321.8855,146.6161 L322.3959,151.1528 L322.5693,155.6894 L321.6342,160.2261 L322.2336,164.7628 M322.2336,153.4211 L322.2336,153.3558 L325.447,153.0628 L328.6605,153.0989 L331.874,153.3638 L335.0875,152.8403 L338.301,153.4211" fill="none" style="stroke:#181818;stroke-width:0.4726;"/><polygon fill="#E2E2F0" points="361.047,156.1798,359.3845,158.4514,357.4181,161.7786,354.6058,164.0208,351.6505,165.247,349.2942,165.3534,346.2656,163.8199,343.408,162.8181,341.239,160.7841,340.1013,158.4555,339.4265,156.6014,338.7655,154.1796,337.6926,152.0956,338.5171,150.0609,339.2394,147.8319,341.9502,146.0691,343.8573,143.7818,346.2179,143.0222,349.0242,142.3681,352.6229,142.7568,354.5939,143.6863,356.8856,144.1077,359.672,146.9625,360.6434,149.9763,361.0654,152.0326,360.5874,155.4212" style="stroke:#181818;stroke-width:0.4726;"/></g><g class="participant participant-head" data-participant="ST"><text fill="#000000" font-family="sans-serif" font-size="13.232" lengthAdjust="spacing" textLength="49.0508" x="549.0301" y="182.6883">Sistema</text><polygon fill="#E2E2F0" points="587.7953,156.1798,586.1327,158.4514,584.1664,161.7786,581.354,164.0208,578.3988,165.247,576.0424,165.3534,573.0138,163.8199,570.1562,162.8181,567.9872,160.7841,566.8495,158.4555,566.1748,156.6014,565.5138,154.1796,564.4409,152.0956,565.2653,150.0609,565.9877,147.8319,568.6984,146.0691,570.6056,143.7818,572.9661,143.0222,575.7724,142.3681,579.3711,142.7568,581.3421,143.6863,583.6338,144.1077,586.4202,146.9625,587.3916,149.9763,587.8136,152.0326,587.3356,155.4212" style="stroke:#181818;stroke-width:0.4726;"/><polygon fill="#181818" points="572.6103,142.0794,572.6527,142.1303,573.6609,141.034,574.9176,140.2359,576.0934,139.3407,577.0031,138.1262,578.2812,137.3537,578.2584,137.3446,577.7784,138.2489,577.4129,139.1991,577.1271,140.1811,576.5667,141.0534,576.3909,142.0794,576.5528,142.1442,576.5846,142.9508,577.0892,143.9465,577.6514,144.9654,577.878,145.8499,578.2812,146.8051,578.2949,146.8216,577.1406,145.8522,576.0488,144.958,574.9269,144.0276,573.8626,143.1663,572.6103,142.0794" style="stroke:#181818;stroke-width:0.9451;"/></g><g><title>IHM</title><polygon fill="#A9DCDF" points="336.8833,196.0167,336.8833,196.0829,338.7735,195.8861,340.6638,196.0776,342.5541,196.1426,344.4444,195.7919,346.3347,196.0167,346.2612,196.0167,345.9316,205.344,345.9722,214.6713,346.2703,223.9986,345.6812,233.3258,346.8579,242.6531,345.739,251.9804,346.1478,261.3077,346.7429,270.635,346.2536,279.9623,346.3992,289.2896,346.3045,298.6169,346.5034,307.9442,346.5607,317.2715,346.8882,326.5988,346.9689,335.9261,346.9767,345.2534,346.5753,354.5807,346.7728,363.908,346.9984,373.2353,345.653,382.5626,346.976,391.8899,346.0544,401.2172,346.8392,410.5444,345.8668,419.8717,346.2699,429.199,347.0356,438.5263,346.2886,447.8536,346.4342,457.1809,346.6547,466.5082,346.3347,475.8355,346.3347,475.9666,344.4444,475.8343,342.5541,475.926,340.6638,475.6552,338.7735,475.9251,336.8833,475.8355,337.4014,475.8355,337.3034,466.5082,337.4626,457.1809,336.4267,447.8536,336.2668,438.5263,336.2959,429.199,336.8276,419.8717,336.6975,410.5444,337.5273,401.2172,336.7182,391.8899,336.559,382.5626,337.099,373.2353,336.253,363.908,336.3926,354.5807,337.4966,345.2534,337.295,335.9261,337.5774,326.5988,336.5791,317.2715,337.1849,307.9442,337.4413,298.6169,336.4368,289.2896,336.7926,279.9623,337.0023,270.635,337.4993,261.3077,336.8793,251.9804,337.3204,242.6531,336.3598,233.3258,336.2431,223.9986,337.3592,214.6713,336.2056,205.344,336.8833,196.0167" style="stroke:#A9DCDF;stroke-width:0.9451;"/><path d="M336.8833,196.0167 L337.1481,196.0167 L336.3611,205.344 L337.1268,214.6713 L337.3869,223.9986 L335.9842,233.3258 L336.7853,242.6531 L336.3458,251.9804 L336.4,261.3077 L336.7974,270.635 L336.012,279.9623 L337.5809,289.2896 L336.089,298.6169 L336.634,307.9442 L337.4276,317.2715 L336.7752,326.5988 L336.9692,335.9261 L336.843,345.2534 L337.1082,354.5807 L337.1846,363.908 L337.6213,373.2353 L337.7289,382.5626 L337.7392,391.8899 L337.2041,401.2172 L337.4675,410.5444 L337.7682,419.8717 L335.9744,429.199 L337.7383,438.5263 L336.5096,447.8536 L337.556,457.1809 L336.2594,466.5082 L336.8833,475.8355" fill="none" style="stroke:#181818;stroke-width:0.9451;"/><path d="M346.3347,196.0167 L346.5995,196.0167 L345.8125,205.344 L346.5782,214.6713 L346.8383,223.9986 L345.4357,233.3258 L346.2367,242.6531 L345.7972,251.9804 L345.8514,261.3077 L346.2488,270.635 L345.4634,279.9623 L347.0324,289.2896 L345.5404,298.6169 L346.0854,307.9442 L346.879,317.2715 L346.2266,326.5988 L346.4207,335.9261 L346.2944,345.2534 L346.5596,354.5807 L346.636,363.908 L347.0727,373.2353 L347.1803,382.5626 L347.1907,391.8899 L346.6555,401.2172 L346.9189,410.5444 L347.2196,419.8717 L345.4258,429.199 L347.1897,438.5263 L345.961,447.8536 L347.0074,457.1809 L345.7108,466.5082 L346.3347,475.8355" fill="none" style="stroke:#181818;stroke-width:0.9451;"/><path d="M336.8833,196.0167 L336.8833,196.105 L338.7735,195.8426 L340.6638,196.0979 L342.5541,196.1846 L344.4444,195.717 L346.3347,196.0167" fill="none" style="stroke:#181818;stroke-width:0.9451;"/></g><g><title>IHM</title><polygon fill="#A9DCDF" points="336.8833,516.4595,336.8833,516.5257,338.7735,516.329,340.6638,516.5204,342.5541,516.5854,344.4444,516.2347,346.3347,516.4595,346.2612,516.4595,345.9316,526.2723,345.9722,536.0852,346.2703,545.898,345.6812,555.7109,346.8579,565.5237,345.739,575.3366,346.1478,585.1494,346.7429,594.9623,346.2536,604.7751,346.3347,614.588,346.3347,614.6095,344.4444,614.5779,342.5541,614.6442,340.6638,614.6633,338.7735,614.7725,336.8833,614.588,337.5175,614.588,337.5252,604.7751,337.1239,594.9623,337.3214,585.1494,337.547,575.3366,336.2016,565.5237,337.5245,555.7109,336.603,545.898,337.3878,536.0852,336.4154,526.2723,336.8833,516.4595" style="stroke:#A9DCDF;stroke-width:0.9451;"/><path d="M336.8833,516.4595 L337.1481,516.4595 L336.3611,526.2723 L337.1268,536.0852 L337.3869,545.898 L335.9842,555.7109 L336.7853,565.5237 L336.3458,575.3366 L336.4,585.1494 L336.7974,594.9623 L336.012,604.7751 L336.8833,614.588" fill="none" style="stroke:#181818;stroke-width:0.9451;"/><path d="M346.3347,516.4595 L346.5995,516.4595 L345.8125,526.2723 L346.5782,536.0852 L346.8383,545.898 L345.4357,555.7109 L346.2367,565.5237 L345.7972,575.3366 L345.8514,585.1494 L346.2488,594.9623 L345.4634,604.7751 L346.3347,614.588" fill="none" style="stroke:#181818;stroke-width:0.9451;"/><path d="M336.8833,614.588 L336.8833,614.6762 L338.7735,614.4139 L340.6638,614.6691 L342.5541,614.7558 L344.4444,614.2883 L346.3347,614.588" fill="none" style="stroke:#181818;stroke-width:0.9451;"/></g><g><title>Sistema</title><polygon fill="#A9DCDF" points="571.6652,196.0167,571.6652,196.0829,573.5555,195.8861,575.4458,196.0776,577.336,196.1426,579.2263,195.7919,581.1166,196.0167,581.0432,196.0167,580.7135,205.344,580.7541,214.6713,581.0522,223.9986,580.4632,233.3258,581.6399,242.6531,580.5209,251.9804,580.9297,261.3077,581.5249,270.635,581.0355,279.9623,581.1811,289.2896,581.0864,298.6169,581.2853,307.9442,581.3426,317.2715,581.6702,326.5988,581.7508,335.9261,581.7586,345.2534,581.3573,354.5807,581.5548,363.908,581.7803,373.2353,580.435,382.5626,581.7579,391.8899,580.8364,401.2172,581.6211,410.5444,580.6487,419.8717,581.0519,429.199,581.8175,438.5263,581.0705,447.8536,581.2161,457.1809,581.4367,466.5082,581.1166,475.8355,581.1166,475.9666,579.2263,475.8343,577.336,475.926,575.4458,475.6552,573.5555,475.9251,571.6652,475.8355,572.1833,475.8355,572.0853,466.5082,572.2446,457.1809,571.2086,447.8536,571.0488,438.5263,571.0779,429.199,571.6095,419.8717,571.4794,410.5444,572.3092,401.2172,571.5001,391.8899,571.3409,382.5626,571.8809,373.2353,571.0349,363.908,571.1745,354.5807,572.2785,345.2534,572.077,335.9261,572.3594,326.5988,571.361,317.2715,571.9669,307.9442,572.2232,298.6169,571.2187,289.2896,571.5746,279.9623,571.7843,270.635,572.2812,261.3077,571.6612,251.9804,572.1024,242.6531,571.1418,233.3258,571.0251,223.9986,572.1412,214.6713,570.9876,205.344,571.6652,196.0167" style="stroke:#A9DCDF;stroke-width:0.9451;"/><path d="M571.6652,196.0167 L571.9301,196.0167 L571.1431,205.344 L571.9088,214.6713 L572.1689,223.9986 L570.7662,233.3258 L571.5673,242.6531 L571.1277,251.9804 L571.1819,261.3077 L571.5793,270.635 L570.7939,279.9623 L572.3629,289.2896 L570.8709,298.6169 L571.416,307.9442 L572.2095,317.2715 L571.5571,326.5988 L571.7512,335.9261 L571.6249,345.2534 L571.8902,354.5807 L571.9665,363.908 L572.4033,373.2353 L572.5108,382.5626 L572.5212,391.8899 L571.9861,401.2172 L572.2494,410.5444 L572.5501,419.8717 L570.7564,429.199 L572.5202,438.5263 L571.2915,447.8536 L572.3379,457.1809 L571.0414,466.5082 L571.6652,475.8355" fill="none" style="stroke:#181818;stroke-width:0.9451;"/><path d="M581.1166,196.0167 L581.3815,196.0167 L580.5945,205.344 L581.3602,214.6713 L581.6203,223.9986 L580.2176,233.3258 L581.0187,242.6531 L580.5791,251.9804 L580.6333,261.3077 L581.0307,270.635 L580.2453,279.9623 L581.8143,289.2896 L580.3223,298.6169 L580.8674,307.9442 L581.6609,317.2715 L581.0085,326.5988 L581.2026,335.9261 L581.0763,345.2534 L581.3416,354.5807 L581.418,363.908 L581.8547,373.2353 L581.9623,382.5626 L581.9726,391.8899 L581.4375,401.2172 L581.7008,410.5444 L582.0015,419.8717 L580.2078,429.199 L581.9717,438.5263 L580.743,447.8536 L581.7893,457.1809 L580.4928,466.5082 L581.1166,475.8355" fill="none" style="stroke:#181818;stroke-width:0.9451;"/><path d="M571.6652,196.0167 L571.6652,196.105 L573.5555,195.8426 L575.4458,196.0979 L577.336,196.1846 L579.2263,195.717 L581.1166,196.0167" fill="none" style="stroke:#181818;stroke-width:0.9451;"/></g><g><title>Sistema</title><polygon fill="#A9DCDF" points="571.6652,516.4595,571.6652,516.5257,573.5555,516.329,575.4458,516.5204,577.336,516.5854,579.2263,516.2347,581.1166,516.4595,581.0432,516.4595,580.7135,526.2723,580.7541,536.0852,581.0522,545.898,580.4632,555.7109,581.6399,565.5237,580.5209,575.3366,580.9297,585.1494,581.5249,594.9623,581.0355,604.7751,581.1166,614.588,581.1166,614.6095,579.2263,614.5779,577.336,614.6442,575.4458,614.6633,573.5555,614.7725,571.6652,614.588,572.2994,614.588,572.3072,604.7751,571.9058,594.9623,572.1033,585.1494,572.3289,575.3366,570.9836,565.5237,572.3065,555.7109,571.3849,545.898,572.1697,536.0852,571.1973,526.2723,571.6652,516.4595" style="stroke:#A9DCDF;stroke-width:0.9451;"/><path d="M571.6652,516.4595 L571.9301,516.4595 L571.1431,526.2723 L571.9088,536.0852 L572.1689,545.898 L570.7662,555.7109 L571.5673,565.5237 L571.1277,575.3366 L571.1819,585.1494 L571.5793,594.9623 L570.7939,604.7751 L571.6652,614.588" fill="none" style="stroke:#181818;stroke-width:0.9451;"/><path d="M581.1166,516.4595 L581.3815,516.4595 L580.5945,526.2723 L581.3602,536.0852 L581.6203,545.898 L580.2176,555.7109 L581.0187,565.5237 L580.5791,575.3366 L580.6333,585.1494 L581.0307,594.9623 L580.2453,604.7751 L581.1166,614.588" fill="none" style="stroke:#181818;stroke-width:0.9451;"/><path d="M571.6652,614.588 L571.6652,614.6762 L573.5555,614.4139 L575.4458,614.6691 L577.336,614.7558 L579.2263,614.2883 L581.1166,614.588" fill="none" style="stroke:#181818;stroke-width:0.9451;"/></g><polygon fill="#FEFFDD" points="505.4441,200.7424,505.4441,200.941,514.8325,200.3508,524.2209,200.9251,533.6093,201.1201,542.9977,200.0681,552.3861,200.6689,561.7745,200.3393,571.1629,200.3799,580.5513,200.678,589.9397,200.0889,599.3281,201.2656,608.7165,200.1467,618.105,200.5555,627.4934,201.1506,636.8818,200.6613,646.2702,200.7424,646.2896,200.7516,648.1514,204.7076,650.1015,208.7057,652.0091,212.6836,653.9979,216.7001,655.7216,220.5904,655.9141,220.6778,654.0261,224.8375,652.0141,228.9408,650.1837,233.1267,648.3619,237.3164,646.2702,241.3835,646.2702,240.7019,636.8818,242.0248,627.4934,241.1032,618.105,241.888,608.7165,240.9156,599.3281,241.3187,589.9397,242.0844,580.5513,241.3374,571.1629,241.483,561.7745,241.7035,552.3861,241.7769,542.9977,241.3798,533.6093,241.6549,524.2209,240.8425,514.8325,241.6523,505.4441,241.3835,505.6013,241.4549,503.6813,237.2828,501.8393,233.1461,499.6346,228.8446,497.6959,224.664,495.9926,220.5904,495.8159,220.5062,497.8662,216.6128,499.7173,212.6245,501.8573,208.7739,503.5041,204.6883,505.4441,200.7424" style="stroke:#181818;stroke-width:0.4726;"/><text fill="#000000" font-family="sans-serif" font-size="12.2868" lengthAdjust="spacing" textLength="94.1296" x="507.3343" y="217.6576">Estado de Falha:</text><text fill="#000000" font-family="sans-serif" font-size="12.2868" lengthAdjust="spacing" textLength="134.3076" x="510.5289" y="234.3923">Sonoro ON / Visual ON.</text><g class="message" data-participant-1="IHM" data-participant-2="OP"><polygon fill="#00BFFF" points="135.7229,265.1236,135.7475,265.1851,133.7841,265.7585,131.965,266.6924,130.0988,267.5088,128.0783,267.9394,126.2715,268.9042,126.2624,268.8814,128.1119,269.5355,130.0072,270.3042,131.9344,271.1526,133.7517,271.7264,135.7229,272.6847,135.8462,272.8081,134.8264,271.7882,134.1666,271.1284,133.5508,270.5126,132.6793,269.6412,131.9423,268.9042,131.9575,268.9194,132.6913,268.1409,133.4943,267.4317,134.2639,266.6891,135.0973,266.0102,135.7229,265.1236" style="stroke:#00BFFF;stroke-width:0.9451;"/><path d="M130.0521,268.9042 L130.0521,269.169 L139.4105,268.382 L148.769,269.1477 L158.1274,269.4078 L167.4859,268.0051 L176.8443,268.8062 L186.2028,268.3667 L195.5613,268.4209 L204.9197,268.8183 L214.2782,268.0329 L223.6366,269.6019 L232.9951,268.1099 L242.3535,268.6549 L251.712,269.4485 L261.0705,268.7961 L270.4289,268.9902 L279.7874,268.8639 L289.1458,269.1291 L298.5043,269.2055 L307.8627,269.6422 L317.2212,269.7498 L326.5797,269.7602 L335.9381,268.9042" fill="none" style="stroke:#00BFFF;stroke-width:0.9451;stroke-dasharray:1.8903,1.8903;"/><text fill="#000000" font-family="sans-serif" font-size="12.2868" lengthAdjust="spacing" textLength="73.4385" x="141.3938" y="263.4138">Visualiza&#231;&#227;o.</text></g><g class="message" data-participant-1="OP" data-participant-2="IHM"><polygon fill="#00BFFF" points="325.5415,295.0903,325.5661,295.1518,327.3834,295.7252,329.3447,296.659,331.2592,297.4755,333.0192,297.9061,334.993,298.8708,334.9839,298.8481,333.0528,299.5022,331.1675,300.2709,329.3141,301.1192,327.3509,301.6931,325.5415,302.6514,325.6649,302.7747,326.1573,301.7549,327.0097,301.0951,327.9061,300.4793,328.5469,299.6078,329.3221,298.8708,329.3373,298.886,328.5589,298.1076,327.8497,297.3984,327.107,296.6558,326.4281,295.9769,325.5415,295.0903" style="stroke:#00BFFF;stroke-width:0.9451;"/><path d="M125.3263,298.8708 L125.3263,299.1357 L134.6848,298.3487 L144.0433,299.1144 L153.4017,299.3745 L162.7602,297.9718 L172.1186,298.7729 L181.4771,298.3334 L190.8355,298.3876 L200.194,298.785 L209.5525,297.9996 L218.9109,299.5685 L228.2694,298.0766 L237.6278,298.6216 L246.9863,299.4152 L256.3447,298.7627 L265.7032,298.9568 L275.0617,298.8306 L284.4201,299.0958 L293.7786,299.1722 L303.137,299.6089 L312.4955,299.7165 L321.8539,299.7268 L331.2124,298.8708" fill="none" style="stroke:#00BFFF;stroke-width:0.9451;"/><text fill="#000000" font-family="sans-serif" font-size="12.2868" lengthAdjust="spacing" textLength="188.8735" x="131.9423" y="293.3805">Selecionar "Reconhecer Alarme".</text></g><g class="message" data-participant-1="IHM" data-participant-2="ST"><polygon fill="#00BFFF" points="560.3235,308.3223,560.3481,308.3837,562.1653,308.9572,564.1267,309.891,566.0411,310.7075,567.8011,311.138,569.7749,312.1028,569.7658,312.0801,567.8347,312.7342,565.9495,313.5029,564.0961,314.3512,562.1329,314.925,560.3235,315.8834,560.4468,316.0067,560.9392,314.9869,561.7917,314.3271,562.688,313.7113,563.3288,312.8398,564.104,312.1028,564.1193,312.118,563.3408,311.3396,562.6316,310.6304,561.889,309.8878,561.2101,309.2088,560.3235,308.3223" style="stroke:#00BFFF;stroke-width:0.9451;"/><path d="M346.3347,312.1028 L346.3347,312.3677 L355.8851,311.5807 L365.4355,312.3464 L374.9859,312.6065 L384.5363,311.2038 L394.0868,312.0049 L403.6372,311.5654 L413.1876,311.6195 L422.738,312.0169 L432.2885,311.2316 L441.8389,312.8005 L451.3893,311.3086 L460.9397,311.8536 L470.4901,312.6472 L480.0406,311.9947 L489.591,312.1888 L499.1414,312.0626 L508.6918,312.3278 L518.2422,312.4042 L527.7927,312.8409 L537.3431,312.9485 L546.8935,312.9588 L556.4439,312.4237 L565.9943,312.1028" fill="none" style="stroke:#00BFFF;stroke-width:0.9451;"/></g><g class="message" data-participant-1="ST" data-participant-2="ST"><path d="M581.1166,342.0695 L581.1166,342.1578 L589.0558,341.8955 L596.995,342.1507 L604.9342,342.2374 L612.8734,341.7698 L620.8126,342.0695" fill="none" style="stroke:#00BFFF;stroke-width:0.9451;"/><path d="M620.8126,342.0695 L620.9008,342.0695 L620.6385,344.5269 L620.8938,346.9842 L620.9804,349.4416 L620.5129,351.899 L620.8126,354.3564" fill="none" style="stroke:#00BFFF;stroke-width:0.9451;"/><path d="M582.0617,354.3564 L582.0617,354.4446 L589.8119,354.1823 L597.5621,354.4375 L605.3122,354.5242 L613.0624,354.0567 L620.8126,354.3564" fill="none" style="stroke:#00BFFF;stroke-width:0.9451;"/><polygon fill="#00BFFF" points="591.5132,350.5758,591.5378,350.6373,589.5744,351.2107,587.7552,352.1446,585.8891,352.961,583.8686,353.3916,582.0617,354.3564,582.0527,354.3336,583.9021,354.9877,585.7974,355.7564,587.7246,356.6048,589.542,357.1786,591.5132,358.1369,591.6365,358.2603,590.6166,357.2404,589.9569,356.5806,589.341,355.9648,588.4696,355.0934,587.7326,354.3564,587.7478,354.3716,588.4816,353.5931,589.2846,352.8839,590.0542,352.1413,590.8875,351.4624,591.5132,350.5758" style="stroke:#00BFFF;stroke-width:0.9451;"/><text fill="#000000" font-family="sans-serif" font-size="12.2868" lengthAdjust="spacing" textLength="161.4984" x="587.7326" y="336.5792">Grava Auditoria (Registro c).</text></g><polygon fill="#FEFFDD" points="470.4738,366.6432,470.4738,366.8418,480.0541,366.2516,489.6344,366.8259,499.2147,367.021,508.795,365.9689,518.3753,366.5697,527.9556,366.2401,537.5359,366.2807,547.1162,366.5788,556.6965,365.9898,566.2768,367.1665,575.8571,366.0475,585.4374,366.4563,595.0177,367.0514,604.598,366.5621,614.1783,366.7077,623.7586,366.613,633.3389,366.8119,642.9192,366.8692,652.4995,367.1968,662.0798,367.2774,671.6601,367.2852,681.2404,366.6432,681.3165,366.6686,683.2693,372.3602,685.2309,378.0549,686.6957,383.5839,689.0044,389.3942,690.6918,394.9975,690.6029,394.9688,688.9616,400.909,686.7629,406.6693,685.0005,412.5705,683.3531,418.5087,681.2404,424.2968,681.2404,424.2508,671.6601,424.3964,662.0798,424.6169,652.4995,424.6902,642.9192,424.2932,633.3389,424.5683,623.7586,423.7558,614.1783,424.5656,604.598,424.815,595.0177,424.717,585.4374,424.8762,575.8571,423.8403,566.2768,423.6804,556.6965,423.7095,547.1162,424.2412,537.5359,424.1111,527.9556,424.9409,518.3753,424.1318,508.795,423.9726,499.2147,424.5126,489.6344,423.6666,480.0541,423.8062,470.4738,424.2968,470.6684,424.3596,468.7141,418.4791,466.9135,412.6481,464.7065,406.6861,463.0084,400.8882,461.0224,394.9975,461.1988,395.0563,462.7715,389.2795,464.7743,383.6462,466.7309,377.9975,468.7783,372.379,470.4738,366.6432" style="stroke:#181818;stroke-width:0.4726;"/><text fill="#000000" font-family="sans-serif" font-size="12.2868" lengthAdjust="spacing" textLength="158.525" x="472.3641" y="383.5584">L&#243;gica de Reconhecimento:</text><text fill="#000000" font-family="sans-serif" font-size="12.2868" lengthAdjust="spacing" textLength="157.026" x="475.5587" y="400.2931">1. Desliga Som (Registro a);</text><text fill="#000000" font-family="sans-serif" font-size="12.2868" lengthAdjust="spacing" textLength="204.3427" x="475.5587" y="417.0278">2. Mant&#233;m Visual Ativo (Registro b).</text><g class="message" data-participant-1="ST" data-participant-2="IHM"><polygon fill="#00BFFF" points="356.7312,464.4938,356.7558,464.5553,354.7925,465.1287,352.9733,466.0626,351.1071,466.8791,349.0866,467.3096,347.2798,468.2744,347.2707,468.2516,349.1202,468.9057,351.0155,469.6744,352.9427,470.5228,354.7601,471.0966,356.7312,472.0549,356.8546,472.1783,355.8347,471.1584,355.1749,470.4987,354.5591,469.8828,353.6877,469.0114,352.9507,468.2744,352.9659,468.2896,353.6997,467.5111,354.5027,466.8019,355.2723,466.0593,356.1056,465.3804,356.7312,464.4938" style="stroke:#00BFFF;stroke-width:0.9451;"/><path d="M351.0604,468.2744 L351.0604,468.5392 L360.6108,467.7523 L370.1612,468.518 L379.7116,468.778 L389.2621,467.3754 L398.8125,468.1764 L408.3629,467.7369 L417.9133,467.7911 L427.4637,468.1885 L437.0142,467.4031 L446.5646,468.9721 L456.115,467.4801 L465.6654,468.0252 L475.2158,468.8187 L484.7663,468.1663 L494.3167,468.3604 L503.8671,468.2341 L513.4175,468.4994 L522.9679,468.5757 L532.5184,469.0125 L542.0688,469.12 L551.6192,469.1304 L561.1696,468.5953 L570.72,468.2744" fill="none" style="stroke:#00BFFF;stroke-width:0.9451;stroke-dasharray:1.8903,1.8903;"/><text fill="#000000" font-family="sans-serif" font-size="12.2868" lengthAdjust="spacing" textLength="76.6823" x="362.4021" y="446.0493">Atualiza IHM:</text><text fill="#000000" font-family="sans-serif" font-size="12.2868" lengthAdjust="spacing" textLength="199.4525" x="365.5967" y="462.784">Som mudo / Alerta visual mantido.</text></g><text fill="#000000" font-family="sans-serif" font-size="10.3966" lengthAdjust="spacing" textLength="217.2762" x="242.2205" y="500.1813">A falha persiste at&#233; ser resolvida fisicamente</text><polygon fill="#FEFFDD" points="493.1572,521.1852,493.1572,521.3839,502.831,520.7936,512.5048,521.3679,522.1786,521.563,531.8524,520.5109,541.5262,521.1117,551.2,520.7821,560.8738,520.8227,570.5476,521.1208,580.2214,520.5318,589.8953,521.7085,599.5691,520.5895,609.2429,520.9983,618.9167,521.5934,628.5905,521.1041,638.2643,521.2497,647.9381,521.155,657.6119,521.1852,657.6627,521.2094,659.5702,525.1872,661.559,529.2037,663.4736,533.1849,665.3662,537.1556,667.0633,541.0332,667.1363,541.0664,665.306,545.2522,663.4841,549.442,661.1856,553.415,659.6968,557.7561,657.6119,561.8263,657.6119,561.5461,647.9381,562.3308,638.2643,561.3584,628.5905,561.7616,618.9167,562.5272,609.2429,561.7802,599.5691,561.9258,589.8953,562.1463,580.2214,562.2197,570.5476,561.8226,560.8738,562.0978,551.2,561.2853,541.5262,562.0951,531.8524,562.3444,522.1786,562.2464,512.5048,562.4057,502.831,561.3697,493.1572,561.8263,492.9702,561.7413,491.0887,557.5867,489.3598,553.5014,487.43,549.3248,485.7915,545.2806,483.7058,541.0332,483.6561,541.0095,485.4985,537.0171,487.5513,533.1249,489.187,529.0341,491.1193,525.0845,493.1572,521.1852" style="stroke:#181818;stroke-width:0.4726;"/><text fill="#000000" font-family="sans-serif" font-size="12.2868" lengthAdjust="spacing" textLength="158.0458" x="495.0475" y="538.1004">Sensor indica normaliza&#231;&#227;o</text><text fill="#000000" font-family="sans-serif" font-size="12.2868" lengthAdjust="spacing" textLength="99.7078" x="498.2421" y="554.8351">(Falha Resolvida).</text><g class="message" data-participant-1="ST" data-participant-2="IHM"><polygon fill="#00BFFF" points="356.7312,602.3011,356.7558,602.3626,354.7925,602.936,352.9733,603.8699,351.1071,604.6864,349.0866,605.1169,347.2798,606.0817,347.2707,606.0589,349.1202,606.713,351.0155,607.4817,352.9427,608.3301,354.7601,608.9039,356.7312,609.8622,356.8546,609.9856,355.8347,608.9657,355.1749,608.306,354.5591,607.6901,353.6877,606.8187,352.9507,606.0817,352.9659,606.0969,353.6997,605.3184,354.5027,604.6092,355.2723,603.8666,356.1056,603.1877,356.7312,602.3011" style="stroke:#00BFFF;stroke-width:0.9451;"/><path d="M351.0604,606.0817 L351.0604,606.3465 L360.6108,605.5596 L370.1612,606.3253 L379.7116,606.5854 L389.2621,605.1827 L398.8125,605.9837 L408.3629,605.5442 L417.9133,605.5984 L427.4637,605.9958 L437.0142,605.2104 L446.5646,606.7794 L456.115,605.2874 L465.6654,605.8325 L475.2158,606.626 L484.7663,605.9736 L494.3167,606.1677 L503.8671,606.0414 L513.4175,606.3067 L522.9679,606.383 L532.5184,606.8198 L542.0688,606.9273 L551.6192,606.9377 L561.1696,606.4026 L570.72,606.0817" fill="none" style="stroke:#00BFFF;stroke-width:0.9451;stroke-dasharray:1.8903,1.8903;"/><text fill="#000000" font-family="sans-serif" font-size="12.2868" lengthAdjust="spacing" textLength="121.4924" x="362.4021" y="583.8567">Remove Alerta Visual</text><text fill="#000000" font-family="sans-serif" font-size="12.2868" lengthAdjust="spacing" textLength="128.4099" x="365.5967" y="600.5913">(Completa Registro b).</text></g><text fill="#1E90FF" font-family="Arial" font-size="13.232" lengthAdjust="spacing" textLength="3.4403" x="28.3543" y="657.0871">&#160;</text><text fill="#1E90FF" font-family="Arial" font-size="13.232" lengthAdjust="spacing" textLength="3.4403" x="28.3543" y="675.109">&#160;</text><text fill="#1E90FF" font-family="Arial" font-size="13.232" font-weight="bold" lengthAdjust="spacing" textLength="146.7554" x="28.3543" y="693.1309">Casos de Uso cobertos</text><text fill="#1E90FF" font-family="Arial" font-size="13.232" lengthAdjust="spacing" textLength="3.5462" x="175.1097" y="693.1309">:</text><text fill="#1E90FF" font-family="Arial" font-size="13.232" lengthAdjust="spacing" textLength="4.2607" x="28.3543" y="711.1528">-</text><text fill="#1E90FF" font-family="Arial" font-size="13.232" font-weight="bold" lengthAdjust="spacing" textLength="55.1242" x="36.0552" y="711.1528">MIO-004</text><text fill="#1E90FF" font-family="Arial" font-size="13.232" lengthAdjust="spacing" textLength="214.6352" x="94.6198" y="711.1528">Reconhecimento de Alarmes (Ack);</text><polygon fill="none" points="25.9914,23.6285,25.9914,23.8272,35.4934,23.237,44.9955,23.8112,54.4975,24.0063,63.9996,22.9543,73.5016,23.5551,83.0037,23.2254,92.5057,23.2661,102.0077,23.5641,111.5098,22.9751,121.0118,24.1518,130.5139,23.0328,140.0159,23.4416,149.518,24.0368,159.02,23.5475,168.522,23.693,178.0241,23.5984,187.5261,23.7973,197.0282,23.8546,206.5302,24.1821,216.0323,24.2628,225.5343,24.2705,235.0363,23.8692,244.5384,24.0667,254.0404,24.2923,263.5425,22.9469,273.0445,24.2698,282.5465,23.3483,292.0486,24.1331,301.5506,23.1607,311.0527,23.5638,320.5547,24.3295,330.0568,23.5825,339.5588,23.7281,349.0608,23.9486,358.5629,24.0219,368.0649,23.6249,377.567,23.9,387.069,23.0875,396.5711,23.8973,406.0731,24.1467,415.5751,24.0487,425.0772,24.2079,434.5792,23.172,444.0813,23.0121,453.5833,23.0412,463.0854,23.5729,472.5874,23.4428,482.0894,24.2726,491.5915,23.4635,501.0935,23.3043,510.5956,23.8443,520.0976,22.9983,529.5997,23.1379,539.1017,24.2419,548.6037,24.0403,558.1058,24.3227,567.6078,23.3244,577.1099,23.9302,586.6119,24.1866,596.114,23.1821,605.616,23.5379,615.118,23.7476,624.6201,24.2446,634.1221,23.6246,643.6242,24.0657,653.1262,23.1051,662.6282,22.9884,672.1303,24.1045,681.6323,22.9509,691.1344,24.1096,700.6364,23.8238,710.1385,23.3753,719.6405,23.2942,729.1425,24.0621,738.6446,23.3456,748.1466,24.1879,757.6487,23.1061,767.1507,24.2121,776.6528,24.0863,786.1548,23.8601,795.6568,23.6732,805.1589,24.3153,814.6609,24.2085,824.163,23.6285,824.1834,23.6778,825.1978,24.1218,826.1522,24.4211,827.2568,25.0828,828.1915,25.3346,829.1753,25.7047,829.2256,25.7255,829.4135,26.6339,829.8879,27.6608,830.5755,28.7761,830.9614,29.7664,831.2515,30.7171,831.211,30.7171,830.947,40.5919,831.0446,50.4668,830.603,60.3416,831.6435,70.2165,831.2515,80.0913,831.4668,80.1805,830.9895,81.1572,830.6233,82.18,829.966,83.0822,829.616,84.1117,829.1753,85.1037,829.1286,84.9908,828.2071,85.6016,827.2001,86.006,826.2345,86.5102,825.1378,86.6978,824.163,87.1799,824.163,87.0528,814.6609,87.599,805.1589,87.7161,795.6568,86.6954,786.1548,86.9966,776.6528,87.3209,767.1507,86.6025,757.6487,87.5139,748.1466,87.4237,738.6446,87.0846,729.1425,87.3143,719.6405,87.8686,710.1385,86.8841,700.6364,87.4776,691.1344,87.4498,681.6323,87.2893,672.1303,87.313,662.6282,87.2871,653.1262,86.5899,643.6242,86.801,634.1221,86.7436,624.6201,87.2402,615.118,87.2631,605.616,87.3327,596.114,86.9048,586.6119,87.116,577.1099,87.0662,567.6078,87.7251,558.1058,87.583,548.6037,86.721,539.1017,87.1109,529.5997,86.6343,520.0976,87.4524,510.5956,87.755,501.0935,87.6945,491.5915,86.7682,482.0894,87.6184,472.5874,86.4778,463.0854,87.369,453.5833,86.897,444.0813,87.2713,434.5792,87.407,425.0772,87.6261,415.5751,86.4994,406.0731,87.6292,396.5711,87.3483,387.069,87.5157,377.567,87.8866,368.0649,87.185,358.5629,87.3455,349.0608,87.3816,339.5588,87.3663,330.0568,87.1791,320.5547,87.8516,311.0527,86.6036,301.5506,87.7141,292.0486,86.5901,282.5465,86.6692,273.0445,87.2177,263.5425,87.2066,254.0404,86.7141,244.5384,87.5709,235.0363,87.2827,225.5343,87.8667,216.0323,87.8104,206.5302,86.7562,197.0282,86.8038,187.5261,87.0578,178.0241,87.5159,168.522,87.5607,159.02,87.4645,149.518,86.8567,140.0159,87.7813,130.5139,87.7789,121.0118,87.1352,111.5098,86.9539,102.0077,86.8005,92.5057,86.977,83.0037,87.3097,73.5016,87.1152,63.9996,86.785,54.4975,87.6405,44.9955,86.7461,35.4934,87.6547,25.9914,87.1799,26.0429,87.3042,25.0338,86.8729,24.0699,86.5509,22.9543,85.8626,21.9453,85.4314,20.979,85.1037,21.1301,85.1662,20.3901,84.0292,20.0804,83.0705,19.7669,82.1102,19.3381,81.102,18.9028,80.0913,18.564,80.0913,18.8622,70.2165,19.6066,60.3416,19.5157,50.4668,18.3393,40.5919,18.9028,30.7171,18.9257,30.7266,19.1685,29.6527,19.7257,28.709,20.2338,27.745,20.686,26.7578,20.979,25.7047,20.8989,25.5113,22.0298,25.4061,22.985,24.8767,23.9195,24.2974,24.9321,23.9067,25.9914,23.6285" style="stroke:#000000;stroke-width:0.9451;"/><text fill="#1E90FF" font-family="Arial" font-size="18.9028" font-weight="bold" lengthAdjust="spacing" textLength="774.543" x="37.8057" y="62.7385">Diagrama de sequ&#234;ncia - M&#243;dulo de Interface e Opera&#231;&#227;o (MIO) - IHM Operacional</text><!--SRC=[dLJDRjD04BxlKmo-9B4K1n0dLrIAcXGYaJggsvwuJEn9kk3TJNVjIF0sY0E2QyKJ-CMONSTjLNgAJ_wP-MQ-7-yhgOkgAGbcy_CysJMg4WABsbY8iXrPB8sD01raAx4sZIxHVeDeyN4PYSBesfeASkbgKkYByYiX9WEHWJkycyrlvi0mIjRImbr3q2Wm1rokgaWNai00LcWLWJFQM0CQWKSa87AoxG_WIKwMeGcm9brAlhbhK9Sc1J744LmhM9kw_MaWkYGklwM2B4m3QDJFGSk3d54dtBCUGTOFtKlNO1NMH1qQiPPxFwhz3PQSgPhs5sFxliBtqPvqRM3352njcMhOR8UMHMXAoU99JCHW8iJW_L6N6C2BrqBBGfhZKLVU2UVQl-HIxxBSivpUjOTxbfstdhlQCv9-75OfJ663rIt25pR35CPQQiIjDbnlzYnNVfN2eOM3TEvBK_Yi8U_Sp2vW0ZUToDb58WGFWV7ub1EsYjB35_aTWyY9o5R0txWcXPmgOiAQdNl1rwG3ElK4yglk9eKF5lS8qzu765vs5XaeHZpx-TwVslkjBD0lta-GojiR6Bn9O4QkabjaCke95evE_FUt2InHSqvKJt0QelDOkFP3_NOzfsdTiUsUWaeALCFQJPWOsHhxG78QQquwzoT9yk01npJyNLqy7TakedjP8coaOov-VGBk-OziJjfnQ2N_GKoPpL6FmljLXi4x5k80-7ptIrACrQzvOEpxpepQLLJxrgUy1qVczCBKo0azibrKjEL30cgp4t4yaxYrg8B3ZkwQzey_2c0Co_Q-RAeGsGKBPZTO4124KwzJPBXSP2Ekz34BhqCMgpWM7hwR8iJ6iCQManN7P-YCyu3NZkDcrYoJSN6S2WQ9OqORltxzBewV9SqtT95sC9mMNqSd0V-0-my0]--></g></svg>