<svg xmlns="http://www.w3.org/2000/svg" xmlns:xlink="http://www.w3.org/1999/xlink" contentStyleType="text/css" data-diagram-type="SEQUENCE" height="750.7867px" preserveAspectRatio="none" style="width:898px;height:750px;background:#EEEBDC;" version="1.1" viewBox="0 0 898 750" width="898.3688px" zoomAndPan="magnify"><defs/><g><rect fill="#EEEBDC" height="750.7867" style="stroke:none;stroke-width:0.9905;" width="898.3688" x="0" y="0"/><g><title>IHM</title><polygon fill="#A9DCDF" points="318.3395,205.4203,318.3395,205.4897,320.3205,205.2835,322.3014,205.4841,324.2824,205.5523,326.2634,205.1848,328.2444,205.4203,328.1674,205.4203,327.8219,215.261,327.8645,225.1016,328.1768,234.9422,327.5596,244.7829,328.7927,254.6235,327.6201,264.4642,328.0485,274.3048,328.6722,284.1454,328.1594,293.9861,328.3119,303.8267,328.2127,313.6674,328.4212,323.508,328.4812,333.3486,328.8245,343.1893,328.909,353.0299,328.9171,362.8706,328.4966,372.7112,328.7035,382.5518,328.9399,392.3925,327.53,402.2331,328.9164,412.0738,327.9507,421.9144,328.7731,431.755,327.754,441.5957,328.1765,451.4363,328.9789,461.277,328.1961,471.1176,328.3487,480.9582,328.5798,490.7989,328.6566,500.6395,328.2405,510.4802,328.5288,520.3208,327.6774,530.1614,328.526,540.0021,328.7873,549.8427,328.6847,559.6833,328.8515,569.524,327.7659,579.3646,328.2444,589.2053,328.2444,588.9899,326.2634,589.0001,324.2824,589.1858,322.3014,589.1404,320.3205,589.4302,318.3395,589.2053,318.1665,589.2053,317.9997,579.3646,318.5656,569.524,317.679,559.6833,317.8253,549.8427,318.9823,540.0021,318.771,530.1614,319.067,520.3208,318.0208,510.4802,318.6557,500.6395,318.9243,490.7989,317.8716,480.9582,318.2446,471.1176,318.4643,461.277,318.9851,451.4363,318.3354,441.5957,318.7977,431.755,317.791,421.9144,317.6687,412.0738,318.8383,402.2331,317.6294,392.3925,318.8436,382.5518,318.5442,372.7112,318.0741,362.8706,317.9891,353.0299,318.7939,343.1893,318.043,333.3486,318.9257,323.508,317.792,313.6674,318.9511,303.8267,318.8192,293.9861,318.5822,284.1454,318.3863,274.3048,319.0592,264.4642,318.9473,254.6235,318.5072,244.7829,318.6052,234.9422,318.2105,225.1016,319.0491,215.261,318.3395,205.4203" style="stroke:#181818;stroke-width:0.9905;"/></g><g><title>FIltragem de permiss.es</title><polygon fill="#A9DCDF" points="457.5691,205.4203,457.5691,205.4897,459.5501,205.2835,461.531,205.4841,463.512,205.5523,465.493,205.1848,467.4739,205.4203,467.397,205.4203,467.0515,215.261,467.0941,225.1016,467.4064,234.9422,466.7891,244.7829,468.0223,254.6235,466.8496,264.4642,467.278,274.3048,467.9018,284.1454,467.389,293.9861,467.5415,303.8267,467.4423,313.6674,467.6508,323.508,467.7108,333.3486,468.054,343.1893,468.1386,353.0299,468.1467,362.8706,467.7261,372.7112,467.9331,382.5518,468.1695,392.3925,466.7596,402.2331,468.146,412.0738,467.1802,421.9144,468.0027,431.755,466.9836,441.5957,467.4061,451.4363,468.2085,461.277,467.4257,471.1176,467.5782,480.9582,467.8093,490.7989,467.8862,500.6395,467.4701,510.4802,467.7584,520.3208,466.907,530.1614,467.7556,540.0021,468.0169,549.8427,467.9142,559.6833,468.0811,569.524,466.9954,579.3646,467.4739,589.2053,467.4739,588.9899,465.493,589.0001,463.512,589.1858,461.531,589.1404,459.5501,589.4302,457.5691,589.2053,457.3961,589.2053,457.2293,579.3646,457.7952,569.524,456.9086,559.6833,457.0549,549.8427,458.2119,540.0021,458.0006,530.1614,458.2966,520.3208,457.2504,510.4802,457.8852,500.6395,458.1539,490.7989,457.1012,480.9582,457.4741,471.1176,457.6939,461.277,458.2146,451.4363,457.5649,441.5957,458.0273,431.755,457.0206,421.9144,456.8983,412.0738,458.0679,402.2331,456.859,392.3925,458.0732,382.5518,457.7738,372.7112,457.3037,362.8706,457.2187,353.0299,458.0235,343.1893,457.2726,333.3486,458.1553,323.508,457.0216,313.6674,458.1806,303.8267,458.0488,293.9861,457.8117,284.1454,457.6159,274.3048,458.2888,264.4642,458.1768,254.6235,457.7367,244.7829,457.8347,234.9422,457.4401,225.1016,458.2787,215.261,457.5691,205.4203" style="stroke:#181818;stroke-width:0.9905;"/></g><g><title>Sistema</title><polygon fill="#A9DCDF" points="601.2052,205.4203,601.2052,205.4897,603.1862,205.2835,605.1672,205.4841,607.1481,205.5523,609.1291,205.1848,611.1101,205.4203,611.0331,205.4203,610.6876,215.261,610.7302,225.1016,611.0426,234.9422,610.4253,244.7829,611.6584,254.6235,610.4858,264.4642,610.9142,274.3048,611.5379,284.1454,611.0251,293.9861,611.1777,303.8267,611.0784,313.6674,611.2869,323.508,611.3469,333.3486,611.6902,343.1893,611.7747,353.0299,611.7829,362.8706,611.3623,372.7112,611.5692,382.5518,611.8056,392.3925,610.3957,402.2331,611.7821,412.0738,610.8164,421.9144,611.6388,431.755,610.6198,441.5957,611.0422,451.4363,611.8446,461.277,611.0618,471.1176,611.2144,480.9582,611.4455,490.7989,611.5223,500.6395,611.1062,510.4802,611.3946,520.3208,610.5431,530.1614,611.3918,540.0021,611.6531,549.8427,611.5504,559.6833,611.7173,569.524,610.6316,579.3646,611.1101,589.2053,611.1101,588.9899,609.1291,589.0001,607.1481,589.1858,605.1672,589.1404,603.1862,589.4302,601.2052,589.2053,601.0322,589.2053,600.8654,579.3646,601.4313,569.524,600.5447,559.6833,600.691,549.8427,601.848,540.0021,601.6368,530.1614,601.9327,520.3208,600.8865,510.4802,601.5214,500.6395,601.79,490.7989,600.7373,480.9582,601.1103,471.1176,601.33,461.277,601.8508,451.4363,601.2011,441.5957,601.6634,431.755,600.6567,421.9144,600.5344,412.0738,601.7041,402.2331,600.4951,392.3925,601.7094,382.5518,601.4099,372.7112,600.9399,362.8706,600.8548,353.0299,601.6596,343.1893,600.9088,333.3486,601.7915,323.508,600.6577,313.6674,601.8168,303.8267,601.6849,293.9861,601.4479,284.1454,601.252,274.3048,601.9249,264.4642,601.813,254.6235,601.3729,244.7829,601.4709,234.9422,601.0762,225.1016,601.9149,215.261,601.2052,205.4203" style="stroke:#181818;stroke-width:0.9905;"/></g><g><title>Operador</title><polygon fill="#000000" fill-opacity="0.00000" points="211.803,195.5155,211.803,195.5849,213.3878,195.3787,214.9726,195.5793,216.5574,195.6474,218.1421,195.28,219.7269,195.5155,219.6499,195.5155,219.3045,205.3351,219.3471,215.1547,219.6594,224.9743,219.0421,234.7939,220.2753,244.6136,219.1026,254.4332,219.531,264.2528,220.1547,274.0724,219.6419,283.892,219.7945,293.7116,219.6953,303.5312,219.9037,313.3508,219.9638,323.1705,220.307,332.9901,220.3916,342.8097,220.3997,352.6293,219.9791,362.4489,220.1861,372.2685,220.4225,382.0881,219.0126,391.9077,220.399,401.7274,219.4332,411.547,220.2556,421.3666,219.2366,431.1862,219.6591,441.0058,220.4615,450.8254,219.6786,460.645,219.8312,470.4647,220.0623,480.2843,220.1392,490.1039,219.723,499.9235,220.0114,509.7431,219.1599,519.5627,220.0086,529.3823,220.2699,539.2019,220.1672,549.0216,220.3341,558.8412,219.2484,568.6608,219.0809,578.4804,219.1114,588.3,219.7269,598.1196,219.7269,598.1002,218.1421,598.0547,216.5574,598.3446,214.9726,598.062,213.3878,598.0064,211.803,598.1196,212.0291,598.1196,211.1425,588.3,211.2888,578.4804,212.4458,568.6608,212.2346,558.8412,212.5305,549.0216,211.4843,539.2019,212.1192,529.3823,212.3878,519.5627,211.3351,509.7431,211.7081,499.9235,211.9278,490.1039,212.4486,480.2843,211.7989,470.4647,212.2612,460.645,211.2545,450.8254,211.1322,441.0058,212.3019,431.1862,211.0929,421.3666,212.3072,411.547,212.0077,401.7274,211.5377,391.9077,211.4526,382.0881,212.2574,372.2685,211.5065,362.4489,212.3893,352.6293,211.2555,342.8097,212.4146,332.9901,212.2827,323.1705,212.0457,313.3508,211.8498,303.5312,212.5227,293.7116,212.4108,283.892,211.9707,274.0724,212.0687,264.2528,211.674,254.4332,212.5127,244.6136,211.9564,234.7939,211.974,224.9743,211.2005,215.1547,211.4017,205.3351,211.803,195.5155"/><path d="M214.9534,195.5155 L215.2309,195.5155 L214.4062,205.3351 L215.2086,215.1547 L215.4812,224.9743 L214.0112,234.7939 L214.8507,244.6136 L214.3901,254.4332 L214.4469,264.2528 L214.8634,274.0724 L214.0403,283.892 L215.6845,293.7116 L214.121,303.5312 L214.6922,313.3508 L215.5238,323.1705 L214.8401,332.9901 L215.0435,342.8097 L214.9112,352.6293 L215.1891,362.4489 L215.2692,372.2685 L215.7269,382.0881 L215.8396,391.9077 L215.8504,401.7274 L215.2896,411.547 L215.5656,421.3666 L215.8808,431.1862 L214.0009,441.0058 L215.8494,450.8254 L214.5618,460.645 L215.6583,470.4647 L214.2996,480.2843 L214.8629,490.1039 L215.9328,499.9235 L214.889,509.7431 L215.0924,519.5627 L215.4006,529.3823 L215.5031,539.2019 L214.9482,549.0216 L215.3327,558.8412 L214.1974,568.6608 L215.3289,578.4804 L215.6773,588.3 L214.9534,598.1196" fill="none" style="stroke:#0000FF;stroke-width:0.4952;stroke-dasharray:4.9524,4.9524;"/></g><g><title>IHM</title><polygon fill="#000000" fill-opacity="0.00000" points="319.33,195.5155,319.33,195.5849,320.9148,195.3787,322.4995,195.5793,324.0843,195.6474,325.6691,195.28,327.2539,195.5155,327.1769,195.5155,326.8314,205.3351,326.874,215.1547,327.1864,224.9743,326.5691,234.7939,327.8022,244.6136,326.6296,254.4332,327.058,264.2528,327.6817,274.0724,327.1689,283.892,327.3215,293.7116,327.2222,303.5312,327.4307,313.3508,327.4907,323.1705,327.834,332.9901,327.9185,342.8097,327.9267,352.6293,327.5061,362.4489,327.713,372.2685,327.9494,382.0881,326.5395,391.9077,327.9259,401.7274,326.9602,411.547,327.7826,421.3666,326.7636,431.1862,327.186,441.0058,327.9884,450.8254,327.2056,460.645,327.3582,470.4647,327.5893,480.2843,327.6661,490.1039,327.25,499.9235,327.5383,509.7431,326.6869,519.5627,327.5355,529.3823,327.7968,539.2019,327.6942,549.0216,327.8611,558.8412,326.7754,568.6608,326.6079,578.4804,326.6384,588.3,327.2539,598.1196,327.2539,598.1002,325.6691,598.0547,324.0843,598.3446,322.4995,598.062,320.9148,598.0064,319.33,598.1196,319.5561,598.1196,318.6695,588.3,318.8158,578.4804,319.9728,568.6608,319.7615,558.8412,320.0575,549.0216,319.0113,539.2019,319.6462,529.3823,319.9148,519.5627,318.8621,509.7431,319.2351,499.9235,319.4548,490.1039,319.9756,480.2843,319.3258,470.4647,319.7882,460.645,318.7815,450.8254,318.6592,441.0058,319.8288,431.1862,318.6199,421.3666,319.8341,411.547,319.5347,401.7274,319.0646,391.9077,318.9796,382.0881,319.7844,372.2685,319.0335,362.4489,319.9162,352.6293,318.7825,342.8097,319.9415,332.9901,319.8097,323.1705,319.5726,313.3508,319.3768,303.5312,320.0497,293.7116,319.9377,283.892,319.4976,274.0724,319.5956,264.2528,319.201,254.4332,320.0396,244.6136,319.4834,234.7939,319.5009,224.9743,318.7274,215.1547,318.9286,205.3351,319.33,195.5155"/><path d="M322.7967,195.5155 L323.0743,195.5155 L322.2495,205.3351 L323.052,215.1547 L323.3245,224.9743 L321.8546,234.7939 L322.6941,244.6136 L322.2334,254.4332 L322.2902,264.2528 L322.7067,274.0724 L321.8836,283.892 L323.5279,293.7116 L321.9643,303.5312 L322.5355,313.3508 L323.3671,323.1705 L322.6834,332.9901 L322.8868,342.8097 L322.7545,352.6293 L323.0325,362.4489 L323.1125,372.2685 L323.5702,382.0881 L323.6829,391.9077 L323.6937,401.7274 L323.133,411.547 L323.4089,421.3666 L323.7241,431.1862 L321.8443,441.0058 L323.6928,450.8254 L322.4051,460.645 L323.5017,470.4647 L322.1429,480.2843 L322.7062,490.1039 L323.7761,499.9235 L322.7323,509.7431 L322.9358,519.5627 L323.2439,529.3823 L323.3464,539.2019 L322.7915,549.0216 L323.176,558.8412 L322.0407,568.6608 L323.1723,578.4804 L323.5207,588.3 L322.7967,598.1196" fill="none" style="stroke:#0000FF;stroke-width:0.4952;stroke-dasharray:4.9524,4.9524;"/></g><g><title>FIltragem de permiss.es</title><polygon fill="#000000" fill-opacity="0.00000" points="458.5596,195.5155,458.5596,195.5849,460.1443,195.3787,461.7291,195.5793,463.3139,195.6474,464.8987,195.28,466.4834,195.5155,466.4065,195.5155,466.061,205.3351,466.1036,215.1547,466.4159,224.9743,465.7987,234.7939,467.0318,244.6136,465.8592,254.4332,466.2876,264.2528,466.9113,274.0724,466.3985,283.892,466.551,293.7116,466.4518,303.5312,466.6603,313.3508,466.7203,323.1705,467.0636,332.9901,467.1481,342.8097,467.1562,352.6293,466.7356,362.4489,466.9426,372.2685,467.179,382.0881,465.7691,391.9077,467.1555,401.7274,466.1898,411.547,467.0122,421.3666,465.9931,431.1862,466.4156,441.0058,467.218,450.8254,466.4352,460.645,466.5877,470.4647,466.8188,480.2843,466.8957,490.1039,466.4796,499.9235,466.7679,509.7431,465.9165,519.5627,466.7651,529.3823,467.0264,539.2019,466.9237,549.0216,467.0906,558.8412,466.005,568.6608,465.8375,578.4804,465.868,588.3,466.4834,598.1196,466.4834,598.1002,464.8987,598.0547,463.3139,598.3446,461.7291,598.062,460.1443,598.0064,458.5596,598.1196,458.7857,598.1196,457.8991,588.3,458.0454,578.4804,459.2023,568.6608,458.9911,558.8412,459.2871,549.0216,458.2408,539.2019,458.8757,529.3823,459.1444,519.5627,458.0917,509.7431,458.4646,499.9235,458.6844,490.1039,459.2051,480.2843,458.5554,470.4647,459.0177,460.645,458.0111,450.8254,457.8888,441.0058,459.0584,431.1862,457.8495,421.3666,459.0637,411.547,458.7642,401.7274,458.2942,391.9077,458.2092,382.0881,459.014,372.2685,458.2631,362.4489,459.1458,352.6293,458.0121,342.8097,459.1711,332.9901,459.0393,323.1705,458.8022,313.3508,458.6063,303.5312,459.2793,293.7116,459.1673,283.892,458.7272,274.0724,458.8252,264.2528,458.4305,254.4332,459.2692,244.6136,458.713,234.7939,458.7305,224.9743,457.957,215.1547,458.1582,205.3351,458.5596,195.5155"/><path d="M462.4549,195.5155 L462.7325,195.5155 L461.9077,205.3351 L462.7102,215.1547 L462.9827,224.9743 L461.5128,234.7939 L462.3523,244.6136 L461.8917,254.4332 L461.9484,264.2528 L462.3649,274.0724 L461.5419,283.892 L463.1861,293.7116 L461.6225,303.5312 L462.1937,313.3508 L463.0254,323.1705 L462.3416,332.9901 L462.545,342.8097 L462.4127,352.6293 L462.6907,362.4489 L462.7707,372.2685 L463.2284,382.0881 L463.3411,391.9077 L463.352,401.7274 L462.7912,411.547 L463.0671,421.3666 L463.3823,431.1862 L461.5025,441.0058 L463.351,450.8254 L462.0633,460.645 L463.1599,470.4647 L461.8012,480.2843 L462.3644,490.1039 L463.4343,499.9235 L462.3905,509.7431 L462.594,519.5627 L462.9021,529.3823 L463.0046,539.2019 L462.4498,549.0216 L462.8342,558.8412 L461.699,568.6608 L462.8305,578.4804 L463.1789,588.3 L462.4549,598.1196" fill="none" style="stroke:#0000FF;stroke-width:0.4952;stroke-dasharray:4.9524,4.9524;"/></g><g><title>Sistema</title><polygon fill="#000000" fill-opacity="0.00000" points="602.1957,195.5155,602.1957,195.5849,603.7805,195.3787,605.3653,195.5793,606.95,195.6474,608.5348,195.28,610.1196,195.5155,610.0426,195.5155,609.6972,205.3351,609.7397,215.1547,610.0521,224.9743,609.4348,234.7939,610.668,244.6136,609.4953,254.4332,609.9237,264.2528,610.5474,274.0724,610.0346,283.892,610.1872,293.7116,610.0879,303.5312,610.2964,313.3508,610.3564,323.1705,610.6997,332.9901,610.7843,342.8097,610.7924,352.6293,610.3718,362.4489,610.5788,372.2685,610.8151,382.0881,609.4053,391.9077,610.7916,401.7274,609.8259,411.547,610.6483,421.3666,609.6293,431.1862,610.0517,441.0058,610.8541,450.8254,610.0713,460.645,610.2239,470.4647,610.455,480.2843,610.5319,490.1039,610.1157,499.9235,610.4041,509.7431,609.5526,519.5627,610.4013,529.3823,610.6626,539.2019,610.5599,549.0216,610.7268,558.8412,609.6411,568.6608,609.4736,578.4804,609.5041,588.3,610.1196,598.1196,610.1196,598.1002,608.5348,598.0547,606.95,598.3446,605.3653,598.062,603.7805,598.0064,602.1957,598.1196,602.4218,598.1196,601.5352,588.3,601.6815,578.4804,602.8385,568.6608,602.6272,558.8412,602.9232,549.0216,601.877,539.2019,602.5119,529.3823,602.7805,519.5627,601.7278,509.7431,602.1008,499.9235,602.3205,490.1039,602.8413,480.2843,602.1916,470.4647,602.6539,460.645,601.6472,450.8254,601.5249,441.0058,602.6945,431.1862,601.4856,421.3666,602.6998,411.547,602.4004,401.7274,601.9304,391.9077,601.8453,382.0881,602.6501,372.2685,601.8992,362.4489,602.7819,352.6293,601.6482,342.8097,602.8073,332.9901,602.6754,323.1705,602.4384,313.3508,602.2425,303.5312,602.9154,293.7116,602.8035,283.892,602.3634,274.0724,602.4614,264.2528,602.0667,254.4332,602.9054,244.6136,602.3491,234.7939,602.3666,224.9743,601.5932,215.1547,601.7944,205.3351,602.1957,195.5155"/><path d="M605.2178,195.5155 L605.4954,195.5155 L604.6706,205.3351 L605.473,215.1547 L605.7456,224.9743 L604.2756,234.7939 L605.1151,244.6136 L604.6545,254.4332 L604.7113,264.2528 L605.1278,274.0724 L604.3047,283.892 L605.9489,293.7116 L604.3854,303.5312 L604.9566,313.3508 L605.7882,323.1705 L605.1045,332.9901 L605.3079,342.8097 L605.1756,352.6293 L605.4535,362.4489 L605.5336,372.2685 L605.9913,382.0881 L606.104,391.9077 L606.1148,401.7274 L605.554,411.547 L605.83,421.3666 L606.1452,431.1862 L604.2653,441.0058 L606.1138,450.8254 L604.8262,460.645 L605.9228,470.4647 L604.564,480.2843 L605.1273,490.1039 L606.1972,499.9235 L605.1534,509.7431 L605.3568,519.5627 L605.665,529.3823 L605.7675,539.2019 L605.2126,549.0216 L605.5971,558.8412 L604.4618,568.6608 L605.5934,578.4804 L605.9417,588.3 L605.2178,598.1196" fill="none" style="stroke:#0000FF;stroke-width:0.4952;stroke-dasharray:4.9524,4.9524;"/></g><g class="participant participant-head" data-participant="OP"><text fill="#1E90FF" font-family="Aapex" font-size="16.8382" lengthAdjust="spacing" textLength="76.9" x="174.3435" y="190.5819">Operador</text><polygon fill="#00BFFF" points="231.7003,132.3601,229.3772,135.5342,226.6296,140.1833,222.7,143.3164,218.5706,145.0297,215.278,145.1784,211.0462,143.0356,207.0533,141.6358,204.0226,138.7937,202.4328,135.54,201.49,132.9492,200.5664,129.5653,199.0672,126.6533,200.2192,123.8101,201.2286,120.6956,205.0163,118.2324,207.6811,115.0363,210.9795,113.975,214.9007,113.0611,219.9292,113.6041,222.6833,114.903,225.8855,115.4917,229.779,119.4808,231.1362,123.6919,231.7259,126.5652,231.058,131.3001" style="stroke:#00BFFF;stroke-width:0.4952;"/><path d="M215.765,148.315 L215.765,148.315 L215.7966,148.402 L217.8817,147.3512 L220.1522,146.8102 L222.3623,146.1032 L224.3739,144.8503 L226.6603,144.3531 L226.6603,144.3531 L226.6461,144.3219 L228.7617,145.1727 L230.9486,146.1804 L233.1851,147.2972 L235.2506,148.038 L237.5556,149.3055 L237.7775,149.4064 L238.2935,151.3698 L239.4573,153.6276 L240.7002,155.9214 L241.4832,158.0061 L242.508,160.2008 L242.5681,160.2008 L242.4799,160.9932 L242.6652,161.7856 L242.7186,162.578 L243.0237,163.3704 L242.508,164.1628 L242.508,164.1628 L242.7169,164.3716 L241.1347,165.959 L239.4177,167.4116 L237.898,169.0614 L236.3875,170.7205 L234.5842,172.0866 L234.5842,171.4517 L227.0565,172.684 L219.5288,171.8256 L212.0011,172.5566 L204.4735,171.6508 L196.9458,172.0866 L196.9458,172.0866 L196.9245,172.0653 L195.5918,170.7327 L193.7611,168.9019 L192.2242,167.3651 L190.7121,165.8529 L189.0219,164.1628 L189.3884,164.1628 L189.0185,163.3704 L189.2748,162.578 L188.5179,161.7856 L189.2723,160.9932 L189.0219,160.2008 L189.0219,160.2008 L189.2416,160.3007 L190.1905,158.1027 L191.2485,155.9544 L191.7998,153.5756 L192.7225,151.3658 L193.9743,149.3055 L193.8611,149.0565 L196.1427,148.2914 L198.2967,147.2458 L200.6356,146.6071 L202.6588,145.2736 L204.8696,144.3531 L204.8696,144.3531 L204.818,144.2112 L207.0831,145.2399 L209.1275,145.662 L211.3287,146.5155 L213.6835,147.7911 L215.765,148.315" fill="#00BFFF"/></g><g class="participant participant-head" data-participant="IHM"><text fill="#000000" font-family="sans-serif" font-size="13.8668" lengthAdjust="spacing" textLength="27.5532" x="306.5439" y="191.4525">IHM</text><path d="M302.987,148.8955 L303.1721,148.8955 L302.6222,153.6498 L303.1572,158.4041 L303.3389,163.1584 L302.3589,167.9128 L302.987,172.6671 M302.987,160.7813 L302.987,160.7129 L306.3547,160.4058 L309.7223,160.4436 L313.09,160.7213 L316.4576,160.1726 L319.8252,160.7813" fill="none" style="stroke:#181818;stroke-width:0.4952;"/><polygon fill="#E2E2F0" points="343.6625,163.6724,341.9203,166.053,339.8595,169.5397,336.9123,171.8895,333.8152,173.1745,331.3458,173.286,328.172,171.679,325.1773,170.6291,322.9042,168.4975,321.7119,166.0573,321.0048,164.1142,320.3121,161.5762,319.1877,159.3922,320.0517,157.2598,320.8087,154.924,323.6496,153.0766,325.6482,150.6795,328.122,149.8836,331.0629,149.1981,334.8342,149.6053,336.8998,150.5795,339.3014,151.0211,342.2215,154.0128,343.2395,157.1712,343.6818,159.3262,343.1808,162.8774" style="stroke:#181818;stroke-width:0.4952;"/></g><g class="participant participant-head" data-participant="Z"><polygon fill="#1E90FF" points="359.9398,157.7246,359.9398,157.9328,369.7095,157.3142,379.4792,157.9161,389.2489,158.1205,399.0186,157.018,408.7883,157.6476,418.5579,157.3022,428.3276,157.3448,438.0973,157.6571,447.867,157.0398,457.6367,158.273,467.4064,157.1003,477.176,157.5287,486.9457,158.1525,496.7154,157.6397,506.4851,157.7922,516.2548,157.693,526.0244,157.9014,535.7941,157.9615,545.5638,158.3047,555.3335,158.3893,565.1032,157.7246,565.189,157.9318,565.4855,157.9473,565.8621,158.1561,566.2425,158.374,566.4128,158.0848,566.8541,158.4499,567.0611,158.5356,566.9087,158.7626,567.3071,159.2177,567.1383,159.4379,567.4134,159.842,567.5794,160.2008,567.8242,160.2008,567.5633,166.5704,567.6142,172.94,567.6912,179.3096,567.7168,185.6792,567.5794,192.0488,567.5782,192.0483,567.5219,192.4353,567.1147,192.6768,567.231,193.1353,567.1664,193.5188,566.8541,193.7997,566.9103,193.9353,566.5814,194.1318,566.0927,193.9425,565.7212,194.036,565.3749,194.1904,565.1032,194.525,565.1032,194.4667,555.3335,194.3303,545.5638,195.1999,535.7941,194.352,526.0244,194.1852,516.2548,194.7511,506.4851,193.8645,496.7154,194.0108,486.9457,195.1678,477.176,194.9565,467.4064,195.2525,457.6367,194.2063,447.867,194.8412,438.0973,195.1098,428.3276,194.0571,418.5579,194.4301,408.7883,194.6498,399.0186,195.1706,389.2489,194.5209,379.4792,194.9832,369.7095,193.9765,359.9398,194.525,359.8543,194.3184,359.6533,194.5336,359.1489,194.0162,358.9536,194.2451,358.5652,194.0078,358.1889,193.7997,358.1072,193.7659,357.9359,193.4048,358.0387,193.1573,357.6624,192.7114,357.7892,192.4738,357.4636,192.0488,357.2811,192.0488,357.6675,185.6792,357.6235,179.3096,357.5445,172.94,357.4792,166.5704,357.4636,160.2008,357.6853,160.2926,357.7958,159.9282,357.8054,159.5218,357.9806,159.1841,358.0041,158.7836,358.1889,158.4499,358.2794,158.6684,358.5586,158.3521,358.9111,158.2124,359.1626,157.8292,359.5384,157.7461,359.9398,157.7246" style="stroke:#00BFFF;stroke-width:0.4952;"/><text fill="#A9DCDF" font-family="Impact" font-size="16.8382" lengthAdjust="spacing" textLength="196.249" x="364.397" y="182.658">FIltragem de permiss&#245;es</text></g><g class="participant participant-head" data-participant="ST"><text fill="#000000" font-family="sans-serif" font-size="13.8668" lengthAdjust="spacing" textLength="51.4039" x="577.4842" y="191.4525">Sistema</text><polygon fill="#E2E2F0" points="618.1091,163.6724,616.3669,166.053,614.3061,169.5397,611.3589,171.8895,608.2619,173.1745,605.7924,173.286,602.6186,171.679,599.6239,170.6291,597.3509,168.4975,596.1585,166.0573,595.4514,164.1142,594.7587,161.5762,593.6343,159.3922,594.4983,157.2598,595.2553,154.924,598.0962,153.0766,600.0948,150.6795,602.5686,149.8836,605.5095,149.1981,609.2808,149.6053,611.3464,150.5795,613.748,151.0211,616.6681,154.0128,617.6861,157.1712,618.1284,159.3262,617.6274,162.8774" style="stroke:#181818;stroke-width:0.4952;"/><polygon fill="#181818" points="602.1957,148.8955,602.2401,148.9488,603.2967,147.7999,604.6137,146.9635,605.8459,146.0254,606.7993,144.7526,608.1386,143.9431,608.1148,143.9335,607.6117,144.8812,607.2287,145.877,606.9291,146.9062,606.3419,147.8202,606.1577,148.8955,606.3274,148.9634,606.3606,149.8087,606.8894,150.8522,607.4786,151.9199,607.7161,152.8469,608.1386,153.8479,608.153,153.8652,606.9433,152.8493,605.7992,151.9122,604.6234,150.9371,603.5081,150.0345,602.1957,148.8955" style="stroke:#181818;stroke-width:0.9905;"/></g><g><title>IHM</title><polygon fill="#A9DCDF" points="318.3395,205.4203,318.3395,205.4897,320.3205,205.2835,322.3014,205.4841,324.2824,205.5523,326.2634,205.1848,328.2444,205.4203,328.1674,205.4203,327.8219,215.261,327.8645,225.1016,328.1768,234.9422,327.5596,244.7829,328.7927,254.6235,327.6201,264.4642,328.0485,274.3048,328.6722,284.1454,328.1594,293.9861,328.3119,303.8267,328.2127,313.6674,328.4212,323.508,328.4812,333.3486,328.8245,343.1893,328.909,353.0299,328.9171,362.8706,328.4966,372.7112,328.7035,382.5518,328.9399,392.3925,327.53,402.2331,328.9164,412.0738,327.9507,421.9144,328.7731,431.755,327.754,441.5957,328.1765,451.4363,328.9789,461.277,328.1961,471.1176,328.3487,480.9582,328.5798,490.7989,328.6566,500.6395,328.2405,510.4802,328.5288,520.3208,327.6774,530.1614,328.526,540.0021,328.7873,549.8427,328.6847,559.6833,328.8515,569.524,327.7659,579.3646,328.2444,589.2053,328.2444,588.9899,326.2634,589.0001,324.2824,589.1858,322.3014,589.1404,320.3205,589.4302,318.3395,589.2053,318.1665,589.2053,317.9997,579.3646,318.5656,569.524,317.679,559.6833,317.8253,549.8427,318.9823,540.0021,318.771,530.1614,319.067,520.3208,318.0208,510.4802,318.6557,500.6395,318.9243,490.7989,317.8716,480.9582,318.2446,471.1176,318.4643,461.277,318.9851,451.4363,318.3354,441.5957,318.7977,431.755,317.791,421.9144,317.6687,412.0738,318.8383,402.2331,317.6294,392.3925,318.8436,382.5518,318.5442,372.7112,318.0741,362.8706,317.9891,353.0299,318.7939,343.1893,318.043,333.3486,318.9257,323.508,317.792,313.6674,318.9511,303.8267,318.8192,293.9861,318.5822,284.1454,318.3863,274.3048,319.0592,264.4642,318.9473,254.6235,318.5072,244.7829,318.6052,234.9422,318.2105,225.1016,319.0491,215.261,318.3395,205.4203" style="stroke:#181818;stroke-width:0.9905;"/></g><g><title>FIltragem de permiss.es</title><polygon fill="#A9DCDF" points="457.5691,205.4203,457.5691,205.4897,459.5501,205.2835,461.531,205.4841,463.512,205.5523,465.493,205.1848,467.4739,205.4203,467.397,205.4203,467.0515,215.261,467.0941,225.1016,467.4064,234.9422,466.7891,244.7829,468.0223,254.6235,466.8496,264.4642,467.278,274.3048,467.9018,284.1454,467.389,293.9861,467.5415,303.8267,467.4423,313.6674,467.6508,323.508,467.7108,333.3486,468.054,343.1893,468.1386,353.0299,468.1467,362.8706,467.7261,372.7112,467.9331,382.5518,468.1695,392.3925,466.7596,402.2331,468.146,412.0738,467.1802,421.9144,468.0027,431.755,466.9836,441.5957,467.4061,451.4363,468.2085,461.277,467.4257,471.1176,467.5782,480.9582,467.8093,490.7989,467.8862,500.6395,467.4701,510.4802,467.7584,520.3208,466.907,530.1614,467.7556,540.0021,468.0169,549.8427,467.9142,559.6833,468.0811,569.524,466.9954,579.3646,467.4739,589.2053,467.4739,588.9899,465.493,589.0001,463.512,589.1858,461.531,589.1404,459.5501,589.4302,457.5691,589.2053,457.3961,589.2053,457.2293,579.3646,457.7952,569.524,456.9086,559.6833,457.0549,549.8427,458.2119,540.0021,458.0006,530.1614,458.2966,520.3208,457.2504,510.4802,457.8852,500.6395,458.1539,490.7989,457.1012,480.9582,457.4741,471.1176,457.6939,461.277,458.2146,451.4363,457.5649,441.5957,458.0273,431.755,457.0206,421.9144,456.8983,412.0738,458.0679,402.2331,456.859,392.3925,458.0732,382.5518,457.7738,372.7112,457.3037,362.8706,457.2187,353.0299,458.0235,343.1893,457.2726,333.3486,458.1553,323.508,457.0216,313.6674,458.1806,303.8267,458.0488,293.9861,457.8117,284.1454,457.6159,274.3048,458.2888,264.4642,458.1768,254.6235,457.7367,244.7829,457.8347,234.9422,457.4401,225.1016,458.2787,215.261,457.5691,205.4203" style="stroke:#181818;stroke-width:0.9905;"/></g><g><title>Sistema</title><polygon fill="#A9DCDF" points="601.2052,205.4203,601.2052,205.4897,603.1862,205.2835,605.1672,205.4841,607.1481,205.5523,609.1291,205.1848,611.1101,205.4203,611.0331,205.4203,610.6876,215.261,610.7302,225.1016,611.0426,234.9422,610.4253,244.7829,611.6584,254.6235,610.4858,264.4642,610.9142,274.3048,611.5379,284.1454,611.0251,293.9861,611.1777,303.8267,611.0784,313.6674,611.2869,323.508,611.3469,333.3486,611.6902,343.1893,611.7747,353.0299,611.7829,362.8706,611.3623,372.7112,611.5692,382.5518,611.8056,392.3925,610.3957,402.2331,611.7821,412.0738,610.8164,421.9144,611.6388,431.755,610.6198,441.5957,611.0422,451.4363,611.8446,461.277,611.0618,471.1176,611.2144,480.9582,611.4455,490.7989,611.5223,500.6395,611.1062,510.4802,611.3946,520.3208,610.5431,530.1614,611.3918,540.0021,611.6531,549.8427,611.5504,559.6833,611.7173,569.524,610.6316,579.3646,611.1101,589.2053,611.1101,588.9899,609.1291,589.0001,607.1481,589.1858,605.1672,589.1404,603.1862,589.4302,601.2052,589.2053,601.0322,589.2053,600.8654,579.3646,601.4313,569.524,600.5447,559.6833,600.691,549.8427,601.848,540.0021,601.6368,530.1614,601.9327,520.3208,600.8865,510.4802,601.5214,500.6395,601.79,490.7989,600.7373,480.9582,601.1103,471.1176,601.33,461.277,601.8508,451.4363,601.2011,441.5957,601.6634,431.755,600.6567,421.9144,600.5344,412.0738,601.7041,402.2331,600.4951,392.3925,601.7094,382.5518,601.4099,372.7112,600.9399,362.8706,600.8548,353.0299,601.6596,343.1893,600.9088,333.3486,601.7915,323.508,600.6577,313.6674,601.8168,303.8267,601.6849,293.9861,601.4479,284.1454,601.252,274.3048,601.9249,264.4642,601.813,254.6235,601.3729,244.7829,601.4709,234.9422,601.0762,225.1016,601.9149,215.261,601.2052,205.4203" style="stroke:#181818;stroke-width:0.9905;"/></g><polygon fill="#FEFFDD" points="387.2976,210.3727,387.2976,210.5809,397.2684,209.9624,407.2393,210.5642,417.2102,210.7686,427.181,209.6661,437.1519,210.2958,447.1228,209.9503,457.0936,209.9929,467.0645,210.3052,477.0354,209.688,487.0063,210.9211,496.9771,209.7485,506.948,210.1769,516.9189,210.8006,526.8897,210.2878,536.8606,210.3727,536.881,210.3824,538.8321,214.5282,540.8758,218.7181,542.8748,222.8868,544.9591,227.096,546.7654,231.1729,546.9671,231.2646,544.9886,235.6238,542.88,239.9239,540.9619,244.3106,539.0526,248.7014,536.8606,252.9635,536.8606,252.2492,526.8897,253.6356,516.9189,252.6699,506.948,253.4923,496.9771,252.4732,487.0063,252.8957,477.0354,253.6981,467.0645,252.9153,457.0936,253.0678,447.1228,253.299,437.1519,253.3758,427.181,252.9597,417.2102,253.248,407.2393,252.3966,397.2684,253.2452,387.2976,252.9635,387.4623,253.0384,385.4502,248.6662,383.5199,244.331,381.2095,239.8232,379.1777,235.4419,377.3927,231.1729,377.2075,231.0847,379.3561,227.0045,381.2961,222.8249,383.5387,218.7895,385.2645,214.508,387.2976,210.3727" style="stroke:#181818;stroke-width:0.4952;"/><text fill="#000000" font-family="sans-serif" font-size="12.8763" lengthAdjust="spacing" textLength="118.5392" x="389.2785" y="228.0994">Verifica os n&#237;veis de</text><text fill="#000000" font-family="sans-serif" font-size="12.8763" lengthAdjust="spacing" textLength="142.3217" x="392.6264" y="245.637">autoriza&#231;&#227;o do usu&#225;rio.</text><g class="message" data-participant-1="OP" data-participant-2="IHM"><polygon fill="#00BFFF" points="306.4537,277.8426,306.4795,277.907,308.3839,278.5079,310.4393,279.4866,312.4456,280.3423,314.2901,280.7934,316.3585,281.8045,316.349,281.7807,314.3253,282.4662,312.3496,283.2717,310.4073,284.1608,308.3499,284.7621,306.4537,285.7664,306.583,285.8957,307.099,284.8269,307.9923,284.1355,308.9317,283.4901,309.6032,282.5769,310.4156,281.8045,310.4316,281.8204,309.6158,281.0047,308.8725,280.2614,308.0943,279.4832,307.3828,278.7717,306.4537,277.8426" style="stroke:#00BFFF;stroke-width:0.9905;"/><path d="M215.765,281.8045 L215.765,282.0821 L225.4281,281.2573 L235.0913,282.0598 L244.7545,282.3323 L254.4176,280.8624 L264.0808,281.7019 L273.744,281.2413 L283.4071,281.298 L293.0703,281.7145 L302.7334,280.8915 L312.3966,281.8045" fill="none" style="stroke:#00BFFF;stroke-width:0.9905;"/><text fill="#000000" font-family="sans-serif" font-size="12.8763" lengthAdjust="spacing" textLength="78.8029" x="222.6984" y="276.0508">Iniciar/Parar.</text></g><g class="message" data-participant-1="IHM" data-participant-2="ST"><polygon fill="#00BFFF" points="589.3194,309.2469,589.3452,309.3113,591.2496,309.9122,593.3051,310.8909,595.3113,311.7465,597.1558,312.1977,599.2243,313.2088,599.2147,313.185,597.191,313.8704,595.2153,314.676,593.273,315.5651,591.2156,316.1664,589.3194,317.1707,589.4487,317.3,589.9647,316.2312,590.858,315.5398,591.7974,314.8944,592.469,313.9812,593.2814,313.2088,593.2973,313.2247,592.4815,312.409,591.7383,311.6657,590.96,310.8875,590.2486,310.176,589.3194,309.2469" style="stroke:#00BFFF;stroke-width:0.9905;"/><path d="M328.2444,313.2088 L328.2444,313.4864 L338.1339,312.6616 L348.0235,313.4641 L357.913,313.7366 L367.8026,312.2667 L377.6921,313.1062 L387.5817,312.6456 L397.4712,312.7023 L407.3608,313.1188 L417.2503,312.2957 L427.1399,313.94 L437.0295,312.3764 L446.919,312.9476 L456.8086,313.7792 L466.6981,313.0955 L476.5877,313.2989 L486.4772,313.1666 L496.3668,313.4446 L506.2563,313.5246 L516.1459,313.9823 L526.0354,314.095 L535.925,314.1059 L545.8146,313.5451 L555.7041,313.821 L565.5937,314.1362 L575.4832,312.2564 L585.3728,314.1049 L595.2623,313.2088" fill="none" style="stroke:#00BFFF;stroke-width:0.9905;"/><text fill="#000000" font-family="sans-serif" font-size="12.8763" lengthAdjust="spacing" textLength="190.1315" x="335.1777" y="307.4551">Se autorizado o processo inicia.</text></g><g class="message" data-participant-1="ST" data-participant-2="IHM"><polygon fill="#00BFFF" points="339.1397,323.1136,339.1654,323.1781,337.1079,323.779,335.2014,324.7577,333.2458,325.6133,331.1283,326.0645,329.2348,327.0756,329.2253,327.0518,331.1635,327.7372,333.1497,328.5428,335.1694,329.4318,337.0739,330.0332,339.1397,331.0375,339.2689,331.1668,338.2001,330.098,337.5087,329.4066,336.8634,328.7612,335.9501,327.8479,335.1777,327.0756,335.1937,327.0915,335.9627,326.2757,336.8042,325.5325,337.6107,324.7542,338.484,324.0428,339.1397,323.1136" style="stroke:#00BFFF;stroke-width:0.9905;"/><path d="M333.1968,327.0756 L333.1968,327.3531 L343.0863,326.5284 L352.9759,327.3308 L362.8654,327.6034 L372.755,326.1334 L382.6445,326.9729 L392.5341,326.5123 L402.4237,326.5691 L412.3132,326.9856 L422.2028,326.1625 L432.0923,327.8067 L441.9819,326.2432 L451.8714,326.8144 L461.761,327.646 L471.6505,326.9623 L481.5401,327.1657 L491.4296,327.0334 L501.3192,327.3113 L511.2088,327.3914 L521.0983,327.8491 L530.9879,327.9618 L540.8774,327.9726 L550.767,327.4118 L560.6565,327.6878 L570.5461,328.003 L580.4356,326.1231 L590.3252,327.9716 L600.2148,327.0756" fill="none" style="stroke:#00BFFF;stroke-width:0.9905;stroke-dasharray:1.981,1.981;"/></g><g class="message" data-participant-1="IHM" data-participant-2="ST"><polygon fill="#00BFFF" points="589.3194,336.9804,589.3452,337.0448,591.2496,337.6458,593.3051,338.6244,595.3113,339.4801,597.1558,339.9313,599.2243,340.9423,599.2147,340.9185,597.191,341.604,595.2153,342.4096,593.273,343.2986,591.2156,343.9,589.3194,344.9043,589.4487,345.0335,589.9647,343.9648,590.858,343.2733,591.7974,342.628,592.469,341.7147,593.2814,340.9423,593.2973,340.9583,592.4815,340.1425,591.7383,339.3993,590.96,338.621,590.2486,337.9095,589.3194,336.9804" style="stroke:#00BFFF;stroke-width:0.9905;"/><path d="M328.2444,340.9423 L328.2444,341.2199 L338.1339,340.3952 L348.0235,341.1976 L357.913,341.4702 L367.8026,340.0002 L377.6921,340.8397 L387.5817,340.3791 L397.4712,340.4359 L407.3608,340.8523 L417.2503,340.0293 L427.1399,341.6735 L437.0295,340.11 L446.919,340.6812 L456.8086,341.5128 L466.6981,340.8291 L476.5877,341.0325 L486.4772,340.9002 L496.3668,341.1781 L506.2563,341.2582 L516.1459,341.7158 L526.0354,341.8286 L535.925,341.8394 L545.8146,341.2786 L555.7041,341.5546 L565.5937,341.8697 L575.4832,339.9899 L585.3728,341.8384 L595.2623,340.9423" fill="none" style="stroke:#00BFFF;stroke-width:0.9905;"/></g><polygon fill="#FEFFDD" points="270.4205,353.8186,270.4205,354.0268,279.9651,353.4083,289.5098,354.0101,299.0544,354.2145,308.5991,353.112,318.1438,353.7417,327.6884,353.3962,337.2331,353.4388,346.7778,353.7511,356.3224,353.1338,365.8671,354.367,375.4117,353.8186,375.2519,353.6854,377.3426,356.154,379.4832,358.6643,381.3329,360.932,383.3529,363.3417,385.3166,365.7044,385.3082,365.698,383.3823,368.3156,381.4172,370.9031,379.527,373.5481,377.5683,376.1406,375.4117,378.5807,375.4117,379.2535,365.8671,378.8329,356.3224,379.0399,346.7778,379.2763,337.2331,377.8664,327.6884,379.2528,318.1438,378.2871,308.5991,379.1095,299.0544,378.0904,289.5098,378.5129,279.9651,379.3153,270.4205,378.5807,270.4077,378.5709,268.4671,376.0267,266.5471,373.4984,264.5865,370.9387,262.4956,368.2789,260.5156,365.7044,260.5885,365.7651,262.3514,363.2063,264.5497,361.0102,266.5976,358.6888,268.5522,356.2898,270.4205,353.8186" style="stroke:#181818;stroke-width:0.4952;"/><text fill="#000000" font-family="sans-serif" font-size="12.8763" lengthAdjust="spacing" textLength="101.6069" x="272.4014" y="371.5453">Fluxo dos dados.</text><polygon fill="#FEFFDD" points="503.1842,389.1849,503.1842,389.3931,512.9003,388.7745,522.6165,389.3763,532.3327,389.5807,542.0489,388.4783,551.765,389.1079,561.4812,388.7624,571.1974,388.805,580.9136,389.1174,590.6297,388.5001,600.3459,389.7332,610.0621,388.5606,619.7783,388.989,629.4944,389.6127,639.2106,389.0999,648.9268,389.2525,658.643,389.1532,668.3591,389.3617,678.0753,389.4217,687.7915,389.765,697.5077,389.8495,707.2238,389.1849,707.3961,389.3284,709.2694,391.6158,711.3033,394.0372,713.3448,396.4648,714.9648,398.5411,717.1287,401.0707,717.3062,401.2073,715.0701,403.5862,713.3064,406.3286,711.0562,408.6968,709.1869,411.3579,707.2238,413.947,707.2238,414.6815,697.5077,413.8987,687.7915,414.0513,678.0753,414.2824,668.3591,414.3592,658.643,413.9431,648.9268,414.2314,639.2106,413.38,629.4944,414.2286,619.7783,414.4899,610.0621,414.3873,600.3459,414.5542,590.6297,413.4685,580.9136,413.301,571.1974,413.3315,561.4812,413.8886,551.765,413.7523,542.0489,414.6219,532.3327,413.7739,522.6165,413.6072,512.9003,414.1731,503.1842,413.947,503.0097,413.8127,501.0673,411.2672,499.3921,408.9271,497.3553,406.3089,495.4525,403.7938,493.2793,401.0707,493.1977,401.0027,495.3412,398.761,497.391,396.4411,499.1024,393.8393,501.1789,391.5418,503.1842,389.1849" style="stroke:#181818;stroke-width:0.4952;"/><text fill="#000000" font-family="sans-serif" font-size="12.8763" lengthAdjust="spacing" textLength="200.5355" x="505.1651" y="406.9116">Processamento das informa&#231;&#245;es.</text><polygon fill="#FEFFDD" points="524.9748,424.5511,524.9748,424.7593,535.0654,424.1407,545.1559,424.7425,555.2465,424.947,565.337,423.8445,575.4276,424.4741,585.5181,424.1287,595.6087,424.1713,605.6992,424.4836,615.7898,423.8663,625.8803,425.0995,635.9709,423.9268,646.0615,424.3552,656.152,424.9789,666.2426,424.4661,676.3331,424.6187,686.4237,424.5511,686.4137,424.5478,688.4606,430.5126,690.4605,436.4619,692.55,442.441,694.5577,448.3928,696.3285,454.2656,696.5419,454.3345,694.4275,460.4324,692.5122,466.5946,690.6063,472.7598,688.178,478.7565,686.4237,484.9706,686.4237,485.6427,676.3331,484.6769,666.2426,485.4993,656.152,484.4803,646.0615,484.9028,635.9709,485.7052,625.8803,484.9223,615.7898,485.0749,605.6992,485.306,595.6087,485.3829,585.5181,484.9667,575.4276,485.2551,565.337,484.4036,555.2465,485.2523,545.1559,485.5136,535.0654,485.4109,524.9748,484.9706,525.1674,485.0328,522.842,478.7806,520.8079,472.6225,518.8366,466.4846,517.0324,460.4006,515.07,454.2656,515.0084,454.2451,517.2644,448.3939,518.9772,442.3616,520.9054,436.4011,523.0653,430.5178,524.9748,424.5511" style="stroke:#181818;stroke-width:0.4952;"/><text fill="#000000" font-family="sans-serif" font-size="12.8763" lengthAdjust="spacing" textLength="109.7447" x="526.9558" y="442.2778">Em menos de 2s a</text><text fill="#000000" font-family="sans-serif" font-size="12.8763" lengthAdjust="spacing" textLength="150.9875" x="530.3036" y="459.8153">notifica&#231;&#227;o sonora/visual</text><text fill="#000000" font-family="sans-serif" font-size="12.8763" lengthAdjust="spacing" textLength="138.2657" x="530.3036" y="477.3528">ocorre atrav&#233;s da IHM.</text><g class="message" data-participant-1="IHM" data-participant-2="OP"><polygon fill="#00BFFF" points="226.6603,509.5585,226.6861,509.6229,224.6285,510.2238,222.7221,511.2025,220.7664,512.0581,218.6489,512.5093,216.7555,513.5204,216.7459,513.4966,218.6841,514.182,220.6704,514.9876,222.69,515.8767,224.5945,516.478,226.6603,517.4823,226.7895,517.6116,225.7208,516.5428,225.0293,515.8514,224.384,515.206,223.4707,514.2927,222.6984,513.5204,222.7143,513.5363,223.4833,512.7205,224.3248,511.9773,225.1313,511.1991,226.0046,510.4876,226.6603,509.5585" style="stroke:#00BFFF;stroke-width:0.9905;"/><path d="M220.7174,513.5204 L220.7174,513.798 L230.3806,512.9732 L240.0437,513.7756 L249.7069,514.0482 L259.37,512.5782 L269.0332,513.4178 L278.6964,512.9571 L288.3595,513.0139 L298.0227,513.4304 L307.6859,512.6073 L317.349,513.5204" fill="none" style="stroke:#00BFFF;stroke-width:0.9905;"/><text fill="#000000" font-family="sans-serif" font-size="12.8763" lengthAdjust="spacing" textLength="76.9616" x="232.6032" y="507.7667">Visualiza&#231;&#227;o.</text></g><polygon fill="#FEFFDD" points="372.4403,526.3967,372.4403,526.6049,382.4002,525.9863,392.36,526.5881,402.3199,526.7926,412.2798,525.6901,422.2396,526.3197,432.1995,525.9742,442.1594,526.0168,452.1192,526.3292,462.0791,525.7119,472.0389,526.945,481.9988,525.7724,491.9587,526.2008,501.9185,526.8245,511.8784,526.3117,521.8383,526.4643,531.7981,526.365,541.758,526.5735,551.7179,526.3967,551.7892,526.4306,553.8734,530.6398,555.8798,534.812,557.8632,538.9732,559.7176,543.0729,561.6227,547.1968,561.762,547.2602,559.8528,551.6509,557.444,555.8146,555.8837,560.3639,553.6097,564.5888,551.7179,568.9875,551.7179,569.5162,541.758,568.4972,531.7981,568.9196,521.8383,569.722,511.8784,568.9392,501.9185,569.0918,491.9587,569.3229,481.9988,569.3997,472.0389,568.9836,462.0791,569.272,452.1192,568.4205,442.1594,569.2692,432.1995,569.5305,422.2396,569.4278,412.2798,569.5947,402.3199,568.509,392.36,568.3415,382.4002,568.372,372.4403,568.9875,372.4226,568.9794,370.4003,564.6025,368.6832,560.3643,366.4449,555.8892,364.4133,551.5081,362.5355,547.1968,362.6035,547.2292,364.3176,542.9421,366.3426,538.8031,368.6718,534.8089,370.5892,530.6185,372.4403,526.3967" style="stroke:#181818;stroke-width:0.4952;"/><text fill="#000000" font-family="sans-serif" font-size="12.8763" lengthAdjust="spacing" textLength="144.7425" x="374.4213" y="544.1234">Se o usu&#225;rio n&#227;o estiver</text><text fill="#000000" font-family="sans-serif" font-size="12.8763" lengthAdjust="spacing" textLength="172.8257" x="377.7691" y="561.6609">autorizado a opera&#231;&#227;o falha.</text><g class="message" data-participant-1="Z" data-participant-2="OP"><polygon fill="#00BFFF" points="226.6603,576.329,226.6861,576.3934,224.6285,576.9944,222.7221,577.973,220.7664,578.8287,218.6489,579.2798,216.7555,580.2909,216.7459,580.2671,218.6841,580.9526,220.6704,581.7581,222.69,582.6472,224.5945,583.2485,226.6603,584.2528,226.7895,584.3821,225.7208,583.3133,225.0293,582.6219,224.384,581.9765,223.4707,581.0633,222.6984,580.2909,222.7143,580.3068,223.4833,579.4911,224.3248,578.7478,225.1313,577.9696,226.0046,577.2581,226.6603,576.329" style="stroke:#00BFFF;stroke-width:0.9905;"/><path d="M220.7174,580.2909 L220.7174,580.5685 L230.5449,579.7437 L240.3725,580.5462 L250.2,580.8187 L260.0276,579.3488 L269.8551,580.1883 L279.6827,579.7277 L289.5102,579.7844 L299.3378,580.2009 L309.1653,579.3779 L318.9929,581.0221 L328.8204,579.4585 L338.648,580.0297 L348.4755,580.8614 L358.3031,580.1776 L368.1306,580.381 L377.9582,580.2487 L387.7858,580.5267 L397.6133,580.6067 L407.4409,581.0644 L417.2684,581.1771 L427.096,581.188 L436.9235,580.6272 L446.7511,580.9031 L456.5786,580.2909" fill="none" style="stroke:#00BFFF;stroke-width:0.9905;stroke-dasharray:1.981,1.981;"/></g><text fill="#1E90FF" font-family="Arial" font-size="13.8668" lengthAdjust="spacing" textLength="3.6053" x="29.7145" y="633.7433">&#160;</text><text fill="#1E90FF" font-family="Arial" font-size="13.8668" lengthAdjust="spacing" textLength="3.6053" x="29.7145" y="652.6298">&#160;</text><text fill="#1E90FF" font-family="Arial" font-size="13.8668" font-weight="bold" lengthAdjust="spacing" textLength="153.7958" x="29.7145" y="671.5162">Casos de Uso cobertos</text><text fill="#1E90FF" font-family="Arial" font-size="13.8668" lengthAdjust="spacing" textLength="3.7163" x="183.5103" y="671.5162">:</text><text fill="#1E90FF" font-family="Arial" font-size="13.8668" lengthAdjust="spacing" textLength="4.4651" x="29.7145" y="690.4027">-</text><text fill="#1E90FF" font-family="Arial" font-size="13.8668" font-weight="bold" lengthAdjust="spacing" textLength="57.7687" x="37.7849" y="690.4027">MIO-002</text><text fill="#1E90FF" font-family="Arial" font-size="13.8668" lengthAdjust="spacing" textLength="134.2021" x="99.159" y="690.4027">Exibi&#231;&#227;o de Alarmes;</text><text fill="#1E90FF" font-family="Arial" font-size="13.8668" lengthAdjust="spacing" textLength="4.4651" x="29.7145" y="709.2892">-</text><text fill="#1E90FF" font-family="Arial" font-size="13.8668" font-weight="bold" lengthAdjust="spacing" textLength="57.7687" x="37.7849" y="709.2892">MIO-003</text><text fill="#1E90FF" font-family="Arial" font-size="13.8668" lengthAdjust="spacing" textLength="169.4097" x="99.159" y="709.2892">Autentica&#231;&#227;o de Usu&#225;rios;</text><polygon fill="none" points="27.2383,24.7621,27.2383,24.9703,37.1962,24.3517,47.1541,24.9535,57.112,25.158,67.0699,24.0555,77.0278,24.6851,86.9857,24.3397,96.9435,24.3822,106.9014,24.6946,116.8593,24.0773,126.8172,25.3105,136.7751,24.1378,146.733,24.5662,156.6909,25.1899,166.6488,24.6771,176.6067,24.8297,186.5646,24.7305,196.5225,24.9389,206.4803,24.999,216.4382,25.3422,226.3961,25.4268,236.354,25.4349,246.3119,25.0143,256.2698,25.2213,266.2277,25.4576,276.1856,24.0478,286.1435,25.4341,296.1014,24.4684,306.0593,25.2908,316.0172,24.2718,325.975,24.6942,335.9329,25.4966,345.8908,24.7138,355.8487,24.8664,365.8066,25.0975,375.7645,25.1744,385.7224,24.7582,395.6803,25.0466,405.6382,24.1951,415.5961,25.0438,425.554,25.3051,435.5118,25.2024,445.4697,25.3693,455.4276,24.2836,465.3855,24.1161,475.3434,24.1466,485.3013,24.7038,495.2592,24.5674,505.2171,25.437,515.175,24.5891,525.1329,24.4223,535.0908,24.9882,545.0486,24.1016,555.0065,24.2479,564.9644,25.4049,574.9223,25.1936,584.8802,25.4896,594.8381,24.4434,604.796,25.0783,614.7539,25.3469,624.7118,24.2942,634.6697,24.6671,644.6276,24.8869,654.5855,25.4077,664.5433,24.7579,674.5012,25.2203,684.4591,24.2136,694.417,24.0913,704.3749,25.2609,714.3328,24.052,724.2907,25.2662,734.2486,24.9668,744.2065,24.4967,754.1644,24.4117,764.1223,25.2165,774.0801,24.4656,784.038,25.3483,793.9959,24.2146,803.9538,25.3736,813.9117,25.2418,823.8696,25.0047,833.8275,24.8089,843.7854,25.4818,853.7433,25.3698,863.7012,24.7621,863.7226,24.8137,864.7856,25.2791,865.7858,25.5927,866.9434,26.2861,867.923,26.55,868.954,26.9379,869.0066,26.9597,869.2036,27.9116,869.7007,28.9878,870.4214,30.1566,870.8257,31.1945,871.1298,32.1907,871.0873,32.1907,870.8107,42.5393,870.913,52.8879,870.4502,63.2364,871.5406,73.585,871.1298,83.9336,871.3554,84.027,870.8552,85.0506,870.4715,86.1225,869.7826,87.068,869.4158,88.1469,868.954,89.1864,868.905,89.0682,867.9393,89.7082,866.884,90.132,865.8721,90.6604,864.7227,90.857,863.7012,91.3622,863.7012,91.2291,853.7433,91.8014,843.7854,91.9241,833.8275,90.8545,823.8696,91.1702,813.9117,91.51,803.9538,90.7572,793.9959,91.7122,784.038,91.6177,774.0801,91.2624,764.1223,91.5031,754.1644,92.0839,744.2065,91.0523,734.2486,91.6742,724.2907,91.6451,714.3328,91.4769,704.3749,91.5018,694.417,91.4746,684.4591,90.744,674.5012,90.9652,664.5433,90.9051,654.5855,91.4254,644.6276,91.4495,634.6697,91.5224,624.7118,91.074,614.7539,91.2953,604.796,91.2431,594.8381,91.9336,584.8802,91.7847,574.9223,90.8813,564.9644,91.29,555.0065,90.7905,545.0486,91.6478,535.0908,91.9649,525.1329,91.9016,515.175,90.9308,505.2171,91.8218,495.2592,90.6265,485.3013,91.5605,475.3434,91.0657,465.3855,91.458,455.4276,91.6003,445.4697,91.8298,435.5118,90.6491,425.554,91.8332,415.5961,91.5387,405.6382,91.7142,395.6803,92.1029,385.7224,91.3676,375.7645,91.5358,365.8066,91.5736,355.8487,91.5576,345.8908,91.3614,335.9329,92.0661,325.975,90.7583,316.0172,91.9221,306.0593,90.7441,296.1014,90.827,286.1435,91.4018,276.1856,91.3902,266.2277,90.8741,256.2698,91.772,246.3119,91.47,236.354,92.0819,226.3961,92.023,216.4382,90.9182,206.4803,90.9681,196.5225,91.2343,186.5646,91.7143,176.6067,91.7613,166.6488,91.6605,156.6909,91.0235,146.733,91.9925,136.7751,91.99,126.8172,91.3154,116.8593,91.1254,106.9014,90.9646,96.9435,91.1497,86.9857,91.4983,77.0278,91.2945,67.0699,90.9484,57.112,91.8449,47.1541,90.9076,37.1962,91.8598,27.2383,91.3622,27.2923,91.4925,26.2347,91.0405,25.2247,90.7031,24.0555,89.9817,22.9981,89.5299,21.9855,89.1864,22.1437,89.252,21.3682,88.0604,21.0438,87.0557,20.7152,86.0493,20.2658,84.9928,19.8097,83.9336,19.4546,83.9336,19.7671,73.585,20.5472,63.2364,20.452,52.8879,19.2191,42.5393,19.8097,32.1907,19.8336,32.2006,20.0881,31.0752,20.672,30.0863,21.2045,29.076,21.6784,28.0415,21.9855,26.9379,21.9015,26.7351,23.0866,26.6249,24.0877,26.0701,25.067,25.463,26.1282,25.0536,27.2383,24.7621" style="stroke:#000000;stroke-width:0.9905;"/><text fill="#1E90FF" font-family="Arial" font-size="19.8097" font-weight="bold" lengthAdjust="spacing" textLength="811.7008" x="39.6194" y="65.7483">Diagrama de sequ&#234;ncia - M&#243;dulo de Interface e Opera&#231;&#227;o (MIO) - IHM Operacional</text><!--SRC=[dLJ1RjD04BtlLmovfBKQfogt892gDXKv14TAwQ7YChKtwKhsJhfhHu6_gJWWa3XLV85_ZBVha4J0AJvOzdhcpPltPlpAsBni2atNuvjvkcggKYdEQt7KorRQSI6kH-mfcwa7QMp1xZFr9k-dFRLYLvlShDZMrBkPbBNZfQu8KCYhZFVjB-rZxhtAnTPEIfeRN-kAm-7yLgbXNsNajsVNuxinwOrvC8wuP5Tf7y0MN3voIdFjscS2ZZT5f4LSQrkOGjHJmnRl3J1YC5cXwHMTwCs8AWcjWDeQAQUqHAgBaPMsFlAjzQPkk5GvIYAL2SsT4UTIeRD7BZYGQAej9V9YnGbfMXkFj3C21B0aShrGNYyX4jvurRxWJfABS-qFcnjELN-eLF_jKPVgqt-lYOK7SZpgRE_LA1Xlrj0LZkqUuTFk6TAeHojuahLsT3-YE-tCmkJeqvDjVwwrYK9yiiGDb3TVkFtMVXKA_lYcVNP6KfNDQF0kW8qw-ko6CuZlKeMpy6b-EuBXEmWa2wsSvDfx8HDJKZM_fK47iqyxP1VnRyfc4wg35M1yUXWGgimwL8Q5DU8mbyOkn5M1DYJv9tvyw7Rm5vqY8chGTHe7X8VTU8JFSGBGJ1Z2zdiW4gZjUkrbinvqZE5_v4h_KXbQxFM3pYYZFJp1rmEbmqwGXANjc7IRe-wZJDZV8uT4zJz8pPYE8zDLgPVOLAfbfPBasl3ISHMtokkdfbiD6j2qVIcQKiBvnDRQBJZNMBDity_9T9AT8Z885uyn-9RB9541lgkYr4AWd5CAjQxOTqvznDZayg1TBJv9HWeWIGAqmVdvHPBGEFnqjdEgwRBxzxmvZ7gDgCi6FvnwvtE4xHn1R62mhVmR]--></g></svg>