<svg xmlns="http://www.w3.org/2000/svg" xmlns:xlink="http://www.w3.org/1999/xlink" contentStyleType="text/css" data-diagram-type="SEQUENCE" height="750.0547px" preserveAspectRatio="none" style="width:1003px;height:750px;background:#EEEBDC;" version="1.1" viewBox="0 0 1003 750" width="1003.0988px" zoomAndPan="magnify"><defs/><g><rect fill="#EEEBDC" height="750.0547" style="stroke:none;stroke-width:1.1347;" width="1003.0988" x="0" y="0"/><g><title>M.dulo Edge</title><rect fill="#A9DCDF" height="347.962" style="stroke:#181818;stroke-width:1.1347;" width="11.3473" x="440.1666" y="261.1007"/></g><g><title>Usu.rio</title><rect fill="#000000" fill-opacity="0.00000" height="396.4217" width="9.0778" x="159.6198" y="222.8535"/><line style="stroke:#0000FF;stroke-width:0.5674;stroke-dasharray:5.6736,5.6736;" x1="163.9858" x2="163.9858" y1="222.8535" y2="619.2752"/></g><g><title>M.dulo Edge</title><rect fill="#000000" fill-opacity="0.00000" height="396.4217" width="9.0778" x="441.3013" y="222.8535"/><line style="stroke:#0000FF;stroke-width:0.5674;stroke-dasharray:5.6736,5.6736;" x1="444.8725" x2="444.8725" y1="222.8535" y2="619.2752"/></g><g><title>Monitor</title><rect fill="#000000" fill-opacity="0.00000" height="396.4217" width="9.0778" x="741.4403" y="222.8535"/><line style="stroke:#0000FF;stroke-width:0.5674;stroke-dasharray:5.6736,5.6736;" x1="745.9571" x2="745.9571" y1="222.8535" y2="619.2752"/></g><g><title>Cloud</title><rect fill="#000000" fill-opacity="0.00000" height="396.4217" width="9.0778" x="831.319" y="222.8535"/><line style="stroke:#0000FF;stroke-width:0.5674;stroke-dasharray:5.6736,5.6736;" x1="835.6446" x2="835.6446" y1="222.8535" y2="619.2752"/></g><g class="participant participant-head" data-participant="USER"><text fill="#1E90FF" font-family="Aapex" font-size="19.2904" lengthAdjust="spacing" textLength="70.699" x="125.405" y="217.2015">Usu&#225;rio</text><ellipse cx="164.1587" cy="138.1417" fill="#00BFFF" rx="9.0778" ry="9.0778" style="stroke:#00BFFF;stroke-width:0.5674;"/><path d="M164.1587,147.2195 L164.1587,177.8571 M149.4073,156.2973 L178.9102,156.2973 M164.1587,177.8571 L149.4073,194.878 M164.1587,177.8571 L178.9102,194.878" fill="none" style="stroke:#00BFFF;stroke-width:0.5674;"/></g><g class="participant participant-head" data-participant="EDGE"><rect fill="#1E90FF" height="42.1596" rx="2.8368" ry="2.8368" style="stroke:#00BFFF;stroke-width:0.5674;" width="135.8334" x="377.9236" y="179.5592"/><text fill="#A9DCDF" font-family="Impact" font-size="19.2904" lengthAdjust="spacing" textLength="119.9472" x="385.8667" y="208.1236">M&#243;dulo Edge</text></g><g class="participant participant-head" data-participant="Monitor"><rect fill="#1E90FF" height="42.1596" rx="2.8368" ry="2.8368" style="stroke:#00BFFF;stroke-width:0.5674;" width="88.5528" x="701.7028" y="179.5592"/><text fill="#A9DCDF" font-family="Impact" font-size="19.2904" lengthAdjust="spacing" textLength="72.6666" x="709.6459" y="208.1236">Monitor</text></g><g class="participant participant-head" data-participant="Cloud"><rect fill="#1E90FF" height="42.1596" rx="2.8368" ry="2.8368" style="stroke:#00BFFF;stroke-width:0.5674;" width="68.5102" x="801.6028" y="179.5592"/><text fill="#A9DCDF" font-family="Impact" font-size="19.2904" lengthAdjust="spacing" textLength="52.624" x="809.5459" y="208.1236">Cloud</text></g><g><title>M.dulo Edge</title><rect fill="#A9DCDF" height="347.962" style="stroke:#181818;stroke-width:1.1347;" width="11.3473" x="440.1666" y="261.1007"/></g><g class="message" data-participant-1="USER" data-participant-2="EDGE"><polygon fill="#00BFFF" points="426.5499,256.5617,437.8971,261.1007,426.5499,265.6396,431.0888,261.1007" style="stroke:#00BFFF;stroke-width:1.1347;"/><line style="stroke:#00BFFF;stroke-width:1.1347;" x1="164.1587" x2="433.3582" y1="261.1007" y2="261.1007"/><text fill="#000000" font-family="sans-serif" font-size="14.7515" lengthAdjust="spacing" textLength="254.4481" x="172.1018" y="254.509">Deploy remoto de um modelo de ML</text></g><g class="message" data-participant-1="EDGE" data-participant-2="USER"><polygon fill="#00BFFF" points="176.6407,292.5394,165.2935,297.0783,176.6407,301.6172,172.1018,297.0783" style="stroke:#00BFFF;stroke-width:1.1347;"/><line style="stroke:#00BFFF;stroke-width:1.1347;stroke-dasharray:2.2695,2.2695;" x1="169.8324" x2="439.0319" y1="297.0783" y2="297.0783"/><text fill="#000000" font-family="sans-serif" font-size="14.7515" lengthAdjust="spacing" textLength="160.4664" x="183.4491" y="290.4867">Confirma&#231;&#227;o de deploy</text></g><path d="M287.671,311.8298 L287.671,342.4674 L601.9905,342.4674 L601.9905,323.1771 L590.6432,311.8298 L287.671,311.8298" fill="#FEFFDD" style="stroke:#181818;stroke-width:0.5674;"/><path d="M590.6432,311.8298 L590.6432,323.1771 L601.9905,323.1771 L590.6432,311.8298" fill="#FEFFDD" style="stroke:#181818;stroke-width:0.5674;"/><text fill="#000000" font-family="sans-serif" font-size="14.7515" lengthAdjust="spacing" textLength="290.6039" x="294.4794" y="333.2727">A partir de um agendamento pr&#233;-definido</text><g class="message" data-participant-1="EDGE" data-participant-2="EDGE"><line style="stroke:#00BFFF;stroke-width:1.1347;" x1="451.5139" x2="499.1724" y1="375.8421" y2="375.8421"/><line style="stroke:#00BFFF;stroke-width:1.1347;" x1="499.1724" x2="499.1724" y1="375.8421" y2="390.5935"/><line style="stroke:#00BFFF;stroke-width:1.1347;" x1="452.6486" x2="499.1724" y1="390.5935" y2="390.5935"/><polygon fill="#00BFFF" points="463.9959,386.0546,452.6486,390.5935,463.9959,395.1324,459.457,390.5935" style="stroke:#00BFFF;stroke-width:1.1347;"/><text fill="#000000" font-family="sans-serif" font-size="14.7515" lengthAdjust="spacing" textLength="163.0627" x="459.457" y="369.2504">Executar modelo de ML</text></g><path d="M301.2878,405.345 L301.2878,435.9826 L589.5085,435.9826 L589.5085,416.6922 L578.1612,405.345 L301.2878,405.345" fill="#FEFFDD" style="stroke:#181818;stroke-width:0.5674;"/><path d="M578.1612,405.345 L578.1612,416.6922 L589.5085,416.6922 L578.1612,405.345" fill="#FEFFDD" style="stroke:#181818;stroke-width:0.5674;"/><text fill="#000000" font-family="sans-serif" font-size="14.7515" lengthAdjust="spacing" textLength="264.715" x="308.0961" y="426.7879">An&#225;lise do fluxo de dados de sensores</text><g class="message" data-participant-1="EDGE" data-participant-2="EDGE"><line style="stroke:#00BFFF;stroke-width:1.1347;" x1="451.5139" x2="499.1724" y1="469.3572" y2="469.3572"/><line style="stroke:#00BFFF;stroke-width:1.1347;" x1="499.1724" x2="499.1724" y1="469.3572" y2="484.1087"/><line style="stroke:#00BFFF;stroke-width:1.1347;" x1="452.6486" x2="499.1724" y1="484.1087" y2="484.1087"/><polygon fill="#00BFFF" points="463.9959,479.5698,452.6486,484.1087,463.9959,488.6476,459.457,484.1087" style="stroke:#00BFFF;stroke-width:1.1347;"/><text fill="#000000" font-family="sans-serif" font-size="14.7515" lengthAdjust="spacing" textLength="261.5582" x="459.457" y="462.7656">Verifica gera&#231;&#227;o de relat&#243;rio preditivo</text></g><path d="M345.5421,498.8601 L345.5421,529.4978 L542.9847,529.4978 L542.9847,510.2074 L531.6374,498.8601 L345.5421,498.8601" fill="#FEFFDD" style="stroke:#181818;stroke-width:0.5674;"/><path d="M531.6374,498.8601 L531.6374,510.2074 L542.9847,510.2074 L531.6374,498.8601" fill="#FEFFDD" style="stroke:#181818;stroke-width:0.5674;"/><text fill="#000000" font-family="sans-serif" font-size="14.7515" lengthAdjust="spacing" textLength="174.5983" x="352.3505" y="520.3031">Caso anomalia detectada</text><g class="message" data-participant-1="EDGE" data-participant-2="Monitor"><polygon fill="#00BFFF" points="732.3624,558.3335,743.7097,562.8724,732.3624,567.4113,736.9013,562.8724" style="stroke:#00BFFF;stroke-width:1.1347;"/><line style="stroke:#00BFFF;stroke-width:1.1347;" x1="451.5139" x2="739.1708" y1="562.8724" y2="562.8724"/><text fill="#000000" font-family="sans-serif" font-size="14.7515" lengthAdjust="spacing" textLength="229.9458" x="459.457" y="556.2808">Notifica usu&#225;rio sobre resultados</text></g><g class="message" data-participant-1="EDGE" data-participant-2="Cloud"><polygon fill="#00BFFF" points="822.2412,594.3112,833.5885,598.8501,822.2412,603.389,826.7801,598.8501" style="stroke:#00BFFF;stroke-width:1.1347;"/><line style="stroke:#00BFFF;stroke-width:1.1347;" x1="451.5139" x2="829.0495" y1="598.8501" y2="598.8501"/><text fill="#000000" font-family="sans-serif" font-size="14.7515" lengthAdjust="spacing" textLength="267.4293" x="459.457" y="592.2584">Envia dados consolidados para Nuvem</text></g><text fill="#1E90FF" font-family="Arial" font-size="15.8862" font-weight="bold" lengthAdjust="spacing" textLength="180.7205" x="34.0418" y="660.0867">Casos de Uso cobertos:</text><text fill="#1E90FF" font-family="Arial" font-size="15.8862" lengthAdjust="spacing" textLength="5.1153" x="34.0418" y="681.7236">-</text><text fill="#1E90FF" font-family="Arial" font-size="15.8862" font-weight="bold" lengthAdjust="spacing" textLength="64.5294" x="43.2875" y="681.7236">EDG-003</text><text fill="#1E90FF" font-family="Arial" font-size="15.8862" lengthAdjust="spacing" textLength="351.4009" x="111.9473" y="681.7236">Execu&#231;&#227;o de Modelos de Manuten&#231;&#227;o Preditiva</text><text fill="#1E90FF" font-family="Arial" font-size="15.8862" lengthAdjust="spacing" textLength="5.1153" x="34.0418" y="703.3605">-</text><text fill="#1E90FF" font-family="Arial" font-size="15.8862" font-weight="bold" lengthAdjust="spacing" textLength="63.2267" x="43.2875" y="703.3605">CLD-003</text><text fill="#1E90FF" font-family="Arial" font-size="15.8862" lengthAdjust="spacing" textLength="348.2396" x="110.6447" y="703.3605">Treinamento de Modelos de Machine Learning</text><rect fill="none" height="76.299" rx="8.5105" ry="8.5105" style="stroke:#000000;stroke-width:1.1347;" width="948.9942" x="22.6945" y="28.3682"/><text fill="#1E90FF" font-family="Arial" font-size="22.6945" font-weight="bold" lengthAdjust="spacing" textLength="903.6051" x="45.3891" y="75.3232">Diagrama de Sequ&#234;ncia - M&#243;dulo Edge (EDG) - Processamento Machine Learning</text><!--SRC=[PPB1RjGm48RlVegX9uWKL8dR7f3GRk2ogIgMvJwrPnTBZYUCxLLvd8e3WciV8I-6xMGNsbwYEF7y__VFp2lhjKk6ODDztBqTq-2KSdGaRo3og02QPcFnA3WWv5ix-fwcFrvRX1RwwT4anz2P8y7hRlFfJVvuAwmf11p8HuOUzJVh2RQ4ugq_DeqgqhE3KgWZ2-n3cXx4Cc20_Qxxh4QKQBKTqKUu-j_bgbp9HfrIvIAqx-jf1HiQ7Vy0eO6pQmPD0mnioDL3lorEzeIHvkhoW3PN5vKLhDaVh0mu_Pf-rW9JvPJdNC0daiNb0rGoMGomX5Y2ZZBzRWqThBU65_qpN7TFEaMKfqGlnFtqu6p8vWm7b-vd43GSoaiW7rWeF9F-Ic8FLYCSIVxX2pcCqsDfwIXaR8xEB_pM67B7FG_eR9bj91tHuCMWPs_pT5Pmmt7sIESv1RwJuXAIYmNmKhDsd4mEx4z5ih9hpk3EpeVSFeIRTA91gGDd8AaRLb1godr6qdn74Zciygu0v8rgcYpVNb-_QvgvbPUSVUrdhUpHfqX-_dMxXCQpm7gxMGI-25c_pEovmjDLhOkwGFu5]--></g></svg>