<svg xmlns="http://www.w3.org/2000/svg" xmlns:xlink="http://www.w3.org/1999/xlink" contentStyleType="text/css" data-diagram-type="SEQUENCE" height="750.0546px" preserveAspectRatio="none" style="width:1001px;height:750px;background:#EEEBDC;" version="1.1" viewBox="0 0 1001 750" width="1001.5835px" zoomAndPan="magnify"><defs/><g><rect fill="#EEEBDC" height="750.0546" style="stroke:none;stroke-width:1.133;" width="1001.5835" x="0" y="0"/><g><title>M.dulo Edge</title><polygon fill="#A9DCDF" points="439.5017,261.8392,439.5017,261.9186,441.7677,261.6828,444.0337,261.9122,446.2997,261.9902,448.5658,261.5698,450.8318,261.8392,450.7437,261.8392,450.3486,273.0469,450.3973,284.2545,450.7546,295.4621,450.0485,306.6697,451.4591,317.8773,450.1177,329.085,450.6077,340.2926,451.3212,351.5002,450.7346,362.7078,450.9091,373.9155,450.7956,385.1231,451.0341,396.3307,451.1027,407.5383,451.4954,418.7459,451.5921,429.9536,451.6014,441.1612,451.1203,452.3688,451.357,463.5764,451.6274,474.7841,450.0147,485.9917,451.6005,497.1993,450.4958,508.4069,451.4366,519.6146,450.2709,530.8222,450.7542,542.0298,451.672,553.2374,450.7766,564.445,450.9511,575.6527,451.2155,586.8603,451.3034,598.0679,450.8318,609.2755,450.8318,609.2741,448.5658,609.384,446.2997,609.0594,444.0337,609.3829,441.7677,609.4826,439.5017,609.2755,440.0053,609.2755,440.1962,598.0679,438.9543,586.8603,438.7627,575.6527,438.7976,564.445,439.4349,553.2374,439.279,542.0298,440.2737,530.8222,439.3037,519.6146,439.113,508.4069,439.7603,497.1993,438.7461,485.9917,438.9135,474.7841,440.2369,463.5764,439.9953,452.3688,440.3338,441.1612,439.1371,429.9536,439.8633,418.7459,440.1706,407.5383,438.9664,396.3307,439.393,385.1231,439.6444,373.9155,440.2401,362.7078,439.4969,351.5002,440.0257,340.2926,438.8742,329.085,438.7343,317.8773,440.0723,306.6697,438.6893,295.4621,440.0783,284.2545,439.7358,273.0469,439.5017,261.8392" style="stroke:#181818;stroke-width:1.133;"/></g><g><title>Usu.rio</title><polygon fill="#000000" fill-opacity="0.00000" points="159.3787,223.6499,159.3787,223.7293,161.1915,223.4934,163.0043,223.7229,164.8171,223.8008,166.63,223.3804,168.4428,223.6499,168.3547,223.6499,167.9596,234.9591,168.0083,246.2683,168.3656,257.5775,167.6595,268.8868,169.0701,280.196,167.7287,291.5052,168.2187,302.8144,168.9322,314.1237,168.3456,325.4329,168.5201,336.7421,168.4066,348.0513,168.6451,359.3605,168.7137,370.6698,169.1064,381.979,169.2031,393.2882,169.2124,404.5974,168.7313,415.9067,168.968,427.2159,169.2384,438.5251,167.6257,449.8343,169.2115,461.1435,168.1068,472.4528,169.0476,483.762,167.8819,495.0712,168.3652,506.3804,169.283,517.6897,168.3876,528.9989,168.5621,540.3081,168.8265,551.6173,168.9144,562.9265,168.4384,574.2358,168.7682,585.545,167.7942,596.8542,168.765,608.1634,168.4428,619.4727,168.4428,619.6797,166.63,619.6405,164.8171,619.7042,163.0043,619.2902,161.1915,619.2263,159.3787,619.4727,158.6746,619.4727,159.312,608.1634,159.156,596.8542,160.1507,585.545,159.1808,574.2358,158.99,562.9265,159.6373,551.6173,158.6231,540.3081,158.7905,528.9989,160.114,517.6897,159.8723,506.3804,160.2109,495.0712,159.0141,483.762,159.7403,472.4528,160.0476,461.1435,158.8434,449.8343,159.2701,438.5251,159.5214,427.2159,160.1171,415.9067,159.3739,404.5974,159.9028,393.2882,158.7512,381.979,158.6113,370.6698,159.9493,359.3605,158.5664,348.0513,159.9553,336.7421,159.6128,325.4329,159.0751,314.1237,158.9779,302.8144,159.8985,291.5052,159.0395,280.196,160.0493,268.8868,158.7524,257.5775,160.0782,246.2683,159.9274,234.9591,159.3787,223.6499"/><path d="M163.738,223.6499 L164.0556,223.6499 L163.1121,234.9591 L164.03,246.2683 L164.3418,257.5775 L162.6603,268.8868 L163.6206,280.196 L163.0937,291.5052 L163.1587,302.8144 L163.6351,314.1237 L162.6936,325.4329 L164.5744,336.7421 L162.7859,348.0513 L163.4393,359.3605 L164.3906,370.6698 L163.6085,381.979 L163.8411,393.2882 L163.6898,404.5974 L164.0077,415.9067 L164.0993,427.2159 L164.6228,438.5251 L164.7518,449.8343 L164.7642,461.1435 L164.1227,472.4528 L164.4384,483.762 L164.7989,495.0712 L162.6486,506.3804 L164.7631,517.6897 L163.2901,528.9989 L164.5445,540.3081 L162.9902,551.6173 L163.6346,562.9265 L164.8584,574.2358 L163.6644,585.545 L163.8971,596.8542 L164.2496,608.1634 L163.738,619.4727" fill="none" style="stroke:#0000FF;stroke-width:0.5665;stroke-dasharray:5.6651,5.6651;"/></g><g><title>M.dulo Edge</title><polygon fill="#000000" fill-opacity="0.00000" points="440.6347,223.6499,440.6347,223.7293,442.4475,223.4934,444.2603,223.7229,446.0731,223.8008,447.8859,223.3804,449.6988,223.6499,449.6107,223.6499,449.2155,234.9591,449.2643,246.2683,449.6215,257.5775,448.9154,268.8868,450.3261,280.196,448.9847,291.5052,449.4747,302.8144,450.1882,314.1237,449.6016,325.4329,449.7761,336.7421,449.6626,348.0513,449.901,359.3605,449.9697,370.6698,450.3624,381.979,450.4591,393.2882,450.4684,404.5974,449.9873,415.9067,450.224,427.2159,450.4944,438.5251,448.8817,449.8343,450.4675,461.1435,449.3628,472.4528,450.3036,483.762,449.1379,495.0712,449.6212,506.3804,450.539,517.6897,449.6436,528.9989,449.8181,540.3081,450.0824,551.6173,450.1704,562.9265,449.6943,574.2358,450.0242,585.545,449.0502,596.8542,450.021,608.1634,449.6988,619.4727,449.6988,619.6797,447.8859,619.6405,446.0731,619.7042,444.2603,619.2902,442.4475,619.2263,440.6347,619.4727,439.9306,619.4727,440.568,608.1634,440.412,596.8542,441.4067,585.545,440.4368,574.2358,440.246,562.9265,440.8933,551.6173,439.8791,540.3081,440.0465,528.9989,441.3699,517.6897,441.1283,506.3804,441.4669,495.0712,440.2701,483.762,440.9963,472.4528,441.3036,461.1435,440.0994,449.8343,440.5261,438.5251,440.7774,427.2159,441.3731,415.9067,440.6299,404.5974,441.1588,393.2882,440.0072,381.979,439.8673,370.6698,441.2053,359.3605,439.8224,348.0513,441.2113,336.7421,440.8688,325.4329,440.3311,314.1237,440.2338,302.8144,441.1544,291.5052,440.2955,280.196,441.3053,268.8868,440.0084,257.5775,441.3342,246.2683,441.1834,234.9591,440.6347,223.6499"/><path d="M444.2004,223.6499 L444.5179,223.6499 L443.5745,234.9591 L444.4924,246.2683 L444.8042,257.5775 L443.1227,268.8868 L444.083,280.196 L443.5561,291.5052 L443.6211,302.8144 L444.0974,314.1237 L443.156,325.4329 L445.0368,336.7421 L443.2483,348.0513 L443.9016,359.3605 L444.8529,370.6698 L444.0708,381.979 L444.3035,393.2882 L444.1521,404.5974 L444.4701,415.9067 L444.5617,427.2159 L445.0852,438.5251 L445.2142,449.8343 L445.2265,461.1435 L444.5851,472.4528 L444.9007,483.762 L445.2613,495.0712 L443.1109,506.3804 L445.2254,517.6897 L443.7525,528.9989 L445.0068,540.3081 L443.4526,551.6173 L444.0969,562.9265 L445.3207,574.2358 L444.1268,585.545 L444.3595,596.8542 L444.712,608.1634 L444.2004,619.4727" fill="none" style="stroke:#0000FF;stroke-width:0.5665;stroke-dasharray:5.6651,5.6651;"/></g><g><title>Monitor</title><polygon fill="#000000" fill-opacity="0.00000" points="740.3202,223.6499,740.3202,223.7293,742.133,223.4934,743.9458,223.7229,745.7586,223.8008,747.5715,223.3804,749.3843,223.6499,749.2962,223.6499,748.9011,234.9591,748.9498,246.2683,749.3071,257.5775,748.6009,268.8868,750.0116,280.196,748.6702,291.5052,749.1602,302.8144,749.8737,314.1237,749.2871,325.4329,749.4616,336.7421,749.3481,348.0513,749.5866,359.3605,749.6552,370.6698,750.0479,381.979,750.1446,393.2882,750.1539,404.5974,749.6728,415.9067,749.9095,427.2159,750.1799,438.5251,748.5672,449.8343,750.153,461.1435,749.0483,472.4528,749.9891,483.762,748.8234,495.0712,749.3067,506.3804,750.2245,517.6897,749.3291,528.9989,749.5036,540.3081,749.7679,551.6173,749.8559,562.9265,749.3799,574.2358,749.7097,585.545,748.7357,596.8542,749.7065,608.1634,749.3843,619.4727,749.3843,619.6797,747.5715,619.6405,745.7586,619.7042,743.9458,619.2902,742.133,619.2263,740.3202,619.4727,739.6161,619.4727,740.2535,608.1634,740.0975,596.8542,741.0922,585.545,740.1223,574.2358,739.9315,562.9265,740.5788,551.6173,739.5646,540.3081,739.732,528.9989,741.0554,517.6897,740.8138,506.3804,741.1524,495.0712,739.9556,483.762,740.6818,472.4528,740.9891,461.1435,739.7849,449.8343,740.2116,438.5251,740.4629,427.2159,741.0586,415.9067,740.3154,404.5974,740.8443,393.2882,739.6927,381.979,739.5528,370.6698,740.8908,359.3605,739.5079,348.0513,740.8968,336.7421,740.5543,325.4329,740.0166,314.1237,739.9193,302.8144,740.84,291.5052,739.981,280.196,740.9908,268.8868,739.6939,257.5775,741.0197,246.2683,740.8689,234.9591,740.3202,223.6499"/><path d="M744.8302,223.6499 L745.1477,223.6499 L744.2043,234.9591 L745.1222,246.2683 L745.434,257.5775 L743.7525,268.8868 L744.7128,280.196 L744.1859,291.5052 L744.2509,302.8144 L744.7273,314.1237 L743.7858,325.4329 L745.6666,336.7421 L743.8781,348.0513 L744.5315,359.3605 L745.4828,370.6698 L744.7006,381.979 L744.9333,393.2882 L744.782,404.5974 L745.0999,415.9067 L745.1915,427.2159 L745.715,438.5251 L745.844,449.8343 L745.8564,461.1435 L745.2149,472.4528 L745.5306,483.762 L745.8911,495.0712 L743.7407,506.3804 L745.8552,517.6897 L744.3823,528.9989 L745.6366,540.3081 L744.0824,551.6173 L744.7267,562.9265 L745.9506,574.2358 L744.7566,585.545 L744.9893,596.8542 L745.3418,608.1634 L744.8302,619.4727" fill="none" style="stroke:#0000FF;stroke-width:0.5665;stroke-dasharray:5.6651,5.6651;"/></g><g><title>Cloud</title><polygon fill="#000000" fill-opacity="0.00000" points="830.0631,223.6499,830.0631,223.7293,831.876,223.4934,833.6888,223.7229,835.5016,223.8008,837.3144,223.3804,839.1272,223.6499,839.0392,223.6499,838.644,234.9591,838.6927,246.2683,839.05,257.5775,838.3439,268.8868,839.7545,280.196,838.4131,291.5052,838.9032,302.8144,839.6166,314.1237,839.0301,325.4329,839.2046,336.7421,839.091,348.0513,839.3295,359.3605,839.3982,370.6698,839.7908,381.979,839.8876,393.2882,839.8969,404.5974,839.4157,415.9067,839.6525,427.2159,839.9229,438.5251,838.3101,449.8343,839.896,461.1435,838.7913,472.4528,839.7321,483.762,838.5664,495.0712,839.0496,506.3804,839.9675,517.6897,839.072,528.9989,839.2466,540.3081,839.5109,551.6173,839.5988,562.9265,839.1228,574.2358,839.4527,585.545,838.4787,596.8542,839.4495,608.1634,839.1272,619.4727,839.1272,619.6797,837.3144,619.6405,835.5016,619.7042,833.6888,619.2902,831.876,619.2263,830.0631,619.4727,829.3591,619.4727,829.9964,608.1634,829.8405,596.8542,830.8352,585.545,829.8652,574.2358,829.6745,562.9265,830.3218,551.6173,829.3076,540.3081,829.475,528.9989,830.7984,517.6897,830.5568,506.3804,830.8953,495.0712,829.6985,483.762,830.4248,472.4528,830.7321,461.1435,829.5279,449.8343,829.9545,438.5251,830.2059,427.2159,830.8016,415.9067,830.0584,404.5974,830.5872,393.2882,829.4357,381.979,829.2958,370.6698,830.6337,359.3605,829.2508,348.0513,830.6398,336.7421,830.2973,325.4329,829.7596,314.1237,829.6623,302.8144,830.5829,291.5052,829.724,280.196,830.7337,268.8868,829.4369,257.5775,830.7627,246.2683,830.6119,234.9591,830.0631,223.6499"/><path d="M834.3823,223.6499 L834.6998,223.6499 L833.7563,234.9591 L834.6742,246.2683 L834.986,257.5775 L833.3045,268.8868 L834.2649,280.196 L833.738,291.5052 L833.8029,302.8144 L834.2793,314.1237 L833.3378,325.4329 L835.2186,336.7421 L833.4301,348.0513 L834.0835,359.3605 L835.0348,370.6698 L834.2527,381.979 L834.4853,393.2882 L834.334,404.5974 L834.6519,415.9067 L834.7435,427.2159 L835.267,438.5251 L835.396,449.8343 L835.4084,461.1435 L834.7669,472.4528 L835.0826,483.762 L835.4431,495.0712 L833.2928,506.3804 L835.4073,517.6897 L833.9343,528.9989 L835.1887,540.3081 L833.6344,551.6173 L834.2788,562.9265 L835.5026,574.2358 L834.3086,585.545 L834.5413,596.8542 L834.8938,608.1634 L834.3823,619.4727" fill="none" style="stroke:#0000FF;stroke-width:0.5665;stroke-dasharray:5.6651,5.6651;"/></g><g class="participant participant-head" data-participant="USER"><text fill="#1E90FF" font-family="Aapex" font-size="19.2612" lengthAdjust="spacing" textLength="70.5922" x="125.2156" y="218.0063">Usu&#225;rio</text><polygon fill="#00BFFF" points="182.1391,151.4066,179.4818,155.0374,176.3388,160.3554,171.8437,163.9394,167.1201,165.8992,163.3537,166.0693,158.513,163.6182,153.9454,162.017,150.4786,158.7659,148.6601,155.044,147.5816,152.0804,146.5251,148.2095,144.8102,144.8785,146.128,141.6262,147.2826,138.0635,151.6154,135.2458,154.6636,131.5899,158.4367,130.3759,162.9221,129.3304,168.6742,129.9516,171.8246,131.4374,175.4876,132.1108,179.9413,136.6739,181.4939,141.491,182.1684,144.7778,181.4044,150.194" style="stroke:#00BFFF;stroke-width:0.5665;"/><path d="M163.9107,169.6573 L163.9107,169.6573 L163.9469,169.7568 L166.3321,168.5548 L168.9293,167.936 L171.4574,167.1272 L173.7585,165.6941 L176.3739,165.1253 L176.3739,165.1253 L176.3577,165.0897 L178.7776,166.0628 L181.2792,167.2155 L183.8376,168.4931 L186.2003,169.3404 L188.837,170.7903 L189.0908,170.9057 L189.6811,173.1516 L191.0124,175.7344 L192.4341,178.3582 L193.3297,180.743 L194.5021,183.2535 L194.5708,183.2535 L194.4699,184.1599 L194.6819,185.0663 L194.7429,185.9727 L195.0919,186.8791 L194.5021,187.7855 L194.5021,187.7855 L194.741,188.0245 L192.9311,189.8402 L190.9671,191.5018 L189.2287,193.3891 L187.5008,195.2869 L185.438,196.8496 L185.438,196.1233 L176.8271,197.533 L168.2162,196.551 L159.6053,197.3873 L150.9944,196.3511 L142.3835,196.8496 L142.3835,196.8496 L142.3591,196.8253 L140.8347,195.3009 L138.7405,193.2067 L136.9825,191.4487 L135.2528,189.7189 L133.3194,187.7855 L133.7386,187.7855 L133.3154,186.8791 L133.6086,185.9727 L132.7429,185.0663 L133.6058,184.1599 L133.3194,183.2535 L133.3194,183.2535 L133.5707,183.3677 L134.6562,180.8535 L135.8664,178.396 L136.497,175.6749 L137.5525,173.1471 L138.9844,170.7903 L138.855,170.5055 L141.4648,169.6303 L143.9288,168.4342 L146.6043,167.7037 L148.9186,166.1782 L151.4476,165.1253 L151.4476,165.1253 L151.3886,164.9629 L153.9795,166.1397 L156.3181,166.6225 L158.8361,167.5988 L161.5298,169.058 L163.9107,169.6573" fill="#00BFFF"/></g><g class="participant participant-head" data-participant="EDGE"><polygon fill="#1E90FF" points="380.1852,180.421,380.1852,180.6591,392,179.9515,403.8148,180.64,415.6297,180.8738,427.4445,179.6127,439.2593,180.3329,451.0741,179.9377,462.889,179.9864,474.7038,180.3437,486.5186,179.6376,498.3334,181.0482,510.1483,180.421,510.0572,180.201,510.5203,180.5179,511.0118,180.9035,511.3376,180.8888,511.7604,181.1085,512.1512,181.2506,512.14,181.246,512.3794,181.677,512.5665,182.0863,512.8533,182.537,513.049,182.9499,512.9808,183.2535,513.2373,183.2535,513.077,190.5397,513.1559,197.8258,513.246,205.112,512.7084,212.3982,512.9808,219.6843,513.2175,219.7824,512.7114,220.0421,512.8352,220.5626,512.3103,220.8145,512.2932,221.2768,512.1512,221.6872,512.2583,221.946,511.7435,221.8362,511.3652,222.0558,510.9984,222.3032,510.609,222.4962,510.1483,222.5169,510.1483,222.5124,498.3334,222.8423,486.5186,221.8683,474.7038,222.8391,462.889,223.138,451.0741,223.0205,439.2593,223.2114,427.4445,221.9695,415.6297,221.7779,403.8148,221.8128,392,222.4501,380.1852,222.5169,380.1568,222.4483,379.8831,222.5887,379.3588,222.1241,378.9339,221.8994,378.6158,221.9328,378.1823,221.6872,377.9496,221.5909,377.8352,221.2116,378.0769,220.9799,377.8365,220.5485,377.7748,220.1911,377.3526,219.6843,377.2311,219.6843,377.4732,212.3982,377.5756,205.112,377.1742,197.8258,377.3164,190.5397,377.3526,183.2535,377.3966,183.2717,377.746,182.9471,377.683,182.4517,378.0118,182.1186,377.8231,181.5711,378.1823,181.2506,378.0844,181.0143,378.6556,181.2604,378.8798,180.6686,379.4576,180.9304,379.8145,180.659,380.1852,180.421" style="stroke:#00BFFF;stroke-width:0.5665;"/><text fill="#A9DCDF" font-family="Impact" font-size="19.2612" lengthAdjust="spacing" textLength="119.766" x="385.2837" y="208.9422">M&#243;dulo Edge</text></g><g class="participant participant-head" data-participant="Monitor"><polygon fill="#1E90FF" points="703.4753,180.421,703.4753,180.6591,715.2972,179.9515,727.1192,180.64,738.9412,180.8738,750.7632,179.6127,762.5852,180.3329,774.4072,179.9377,786.2292,180.421,786.1738,180.2871,786.6199,180.5631,786.9304,180.5116,787.511,181.1119,787.7404,180.8647,788.2321,181.2506,788.1631,181.222,788.5487,181.7136,788.534,182.0394,788.7537,182.4622,788.8847,182.8483,789.0617,183.2535,789.1292,183.2535,789.152,190.5397,789.2829,197.8258,789.3152,205.112,789.3183,212.3982,789.0617,219.6843,789.1506,219.7211,789.0576,220.1519,788.9749,220.587,788.3123,220.7818,788.6348,221.3847,788.2321,221.6872,788.1892,221.5838,787.9087,222.0394,787.3594,221.8464,787.0205,222.1611,786.737,222.6097,786.2292,222.5169,786.2292,222.4616,774.4072,222.6362,762.5852,222.9005,750.7632,222.9885,738.9412,222.5124,727.1192,222.8423,715.2972,221.8683,703.4753,222.5169,703.5164,222.6161,703.1539,222.5422,702.7383,222.3401,702.3621,222.233,701.8031,221.6846,701.4723,221.6872,701.2448,221.593,701.0896,221.1968,701.12,220.8776,700.906,220.4571,701.0464,220.1834,700.6427,219.6843,700.5767,219.6843,700.5132,212.3982,700.7289,205.112,700.3909,197.8258,700.4467,190.5397,700.6427,183.2535,700.8692,183.3473,700.9607,182.9159,701.2309,182.5585,701.0282,182.0052,701.4178,181.6973,701.4723,181.2506,701.5577,181.4566,701.8047,180.9198,702.2597,180.8853,702.6923,180.7968,703.1689,180.8143,703.4753,180.421" style="stroke:#00BFFF;stroke-width:0.5665;"/><text fill="#A9DCDF" font-family="Impact" font-size="19.2612" lengthAdjust="spacing" textLength="72.5568" x="708.5738" y="208.9422">Monitor</text></g><g class="participant participant-head" data-participant="Cloud"><polygon fill="#1E90FF" points="803.2244,180.421,803.2244,180.6591,813.6813,179.9515,824.1383,180.64,834.5952,180.8738,845.0521,179.6127,855.5091,180.3329,865.966,180.421,865.9043,180.2721,866.3111,180.4531,866.7573,180.729,867.0678,180.6775,867.6483,181.2778,867.9689,181.2506,867.749,181.1595,868.0658,181.6226,868.4515,182.1142,868.4367,182.4399,868.6564,182.8628,868.7985,183.2535,868.7865,183.2535,868.8659,190.5397,868.8888,197.8258,869.0197,205.112,869.052,212.3982,868.7985,219.6843,869.0355,219.7825,868.7214,220.1217,868.6284,220.5525,868.5458,220.9876,867.8832,221.1824,867.9689,221.6872,868.067,221.924,867.5255,221.7497,867.2449,222.2053,866.6956,222.0123,866.3567,222.327,865.966,222.5169,865.966,223.3571,855.5091,222.4616,845.0521,222.6362,834.5952,222.9005,824.1383,222.9885,813.6813,222.5124,803.2244,222.5169,803.2659,222.6171,802.7411,222.1512,802.4643,222.2842,802.1019,222.2104,801.6863,222.0083,801.2215,221.6872,801.4354,221.7758,800.887,221.2168,800.6621,220.7918,800.5069,220.3957,800.5372,220.0764,800.3919,219.6843,800.3176,219.6843,800.6492,212.3982,800.3259,205.112,800.2623,197.8258,800.4781,190.5397,800.3919,183.2535,800.1592,183.1571,800.3767,182.7779,800.9501,182.5461,801.0417,182.1147,801.3118,181.7573,801.2215,181.2506,801.175,181.1383,801.6682,181.196,802.108,181.1247,802.355,180.588,802.81,180.5534,803.2244,180.421" style="stroke:#00BFFF;stroke-width:0.5665;"/><text fill="#A9DCDF" font-family="Impact" font-size="19.2612" lengthAdjust="spacing" textLength="52.5445" x="808.323" y="208.9422">Cloud</text></g><g><title>M.dulo Edge</title><polygon fill="#A9DCDF" points="439.5017,261.8392,439.5017,261.9186,441.7677,261.6828,444.0337,261.9122,446.2997,261.9902,448.5658,261.5698,450.8318,261.8392,450.7437,261.8392,450.3486,273.0469,450.3973,284.2545,450.7546,295.4621,450.0485,306.6697,451.4591,317.8773,450.1177,329.085,450.6077,340.2926,451.3212,351.5002,450.7346,362.7078,450.9091,373.9155,450.7956,385.1231,451.0341,396.3307,451.1027,407.5383,451.4954,418.7459,451.5921,429.9536,451.6014,441.1612,451.1203,452.3688,451.357,463.5764,451.6274,474.7841,450.0147,485.9917,451.6005,497.1993,450.4958,508.4069,451.4366,519.6146,450.2709,530.8222,450.7542,542.0298,451.672,553.2374,450.7766,564.445,450.9511,575.6527,451.2155,586.8603,451.3034,598.0679,450.8318,609.2755,450.8318,609.2741,448.5658,609.384,446.2997,609.0594,444.0337,609.3829,441.7677,609.4826,439.5017,609.2755,440.0053,609.2755,440.1962,598.0679,438.9543,586.8603,438.7627,575.6527,438.7976,564.445,439.4349,553.2374,439.279,542.0298,440.2737,530.8222,439.3037,519.6146,439.113,508.4069,439.7603,497.1993,438.7461,485.9917,438.9135,474.7841,440.2369,463.5764,439.9953,452.3688,440.3338,441.1612,439.1371,429.9536,439.8633,418.7459,440.1706,407.5383,438.9664,396.3307,439.393,385.1231,439.6444,373.9155,440.2401,362.7078,439.4969,351.5002,440.0257,340.2926,438.8742,329.085,438.7343,317.8773,440.0723,306.6697,438.6893,295.4621,440.0783,284.2545,439.7358,273.0469,439.5017,261.8392" style="stroke:#181818;stroke-width:1.133;"/></g><g class="message" data-participant-1="USER" data-participant-2="EDGE"><polygon fill="#00BFFF" points="425.9055,257.3072,425.935,257.3809,428.1134,258.0683,430.4647,259.1878,432.7596,260.1666,434.8695,260.6827,437.2356,261.8392,437.2247,261.812,434.9098,262.5961,432.6498,263.5176,430.428,264.5346,428.0745,265.2224,425.9055,266.3713,426.0533,266.5191,426.6436,265.2965,427.6655,264.5056,428.7401,263.7674,429.5082,262.7227,430.4375,261.8392,430.4558,261.8575,429.5226,260.9243,428.6724,260.0741,427.7822,259.1839,426.9683,258.37,425.9055,257.3072" style="stroke:#00BFFF;stroke-width:1.133;"/><path d="M163.9107,261.8392 L163.9107,262.1567 L175.1104,261.2133 L186.3101,262.1312 L197.5098,262.443 L208.7095,260.7615 L219.9092,261.7218 L231.1089,261.1949 L242.3086,261.2599 L253.5083,261.7363 L264.708,260.7948 L275.9077,262.6756 L287.1075,260.8871 L298.3072,261.5405 L309.5069,262.4918 L320.7066,261.7096 L331.9063,261.9423 L343.106,261.791 L354.3057,262.1089 L365.5054,262.2005 L376.7051,262.724 L387.9048,262.853 L399.1045,262.8654 L410.3042,262.2239 L421.5039,262.5396 L432.7036,261.8392" fill="none" style="stroke:#00BFFF;stroke-width:1.133;"/><text fill="#000000" font-family="sans-serif" font-size="14.7292" lengthAdjust="spacing" textLength="254.0637" x="171.8418" y="255.2576">Deploy remoto de um modelo de ML</text></g><g class="message" data-participant-1="EDGE" data-participant-2="USER"><polygon fill="#00BFFF" points="176.3739,293.2305,176.4034,293.3042,174.0497,293.9916,171.8689,295.1111,169.6319,296.0899,167.2097,296.606,165.0437,297.7626,165.0328,297.7353,167.25,298.5194,169.522,299.4409,171.8323,300.4579,174.0109,301.1458,176.3739,302.2946,176.5217,302.4425,175.2991,301.2199,174.5082,300.429,173.77,299.6907,172.7253,298.6461,171.8418,297.7626,171.86,297.7808,172.7397,296.8476,173.7023,295.9974,174.6249,295.1072,175.6239,294.2933,176.3739,293.2305" style="stroke:#00BFFF;stroke-width:1.133;"/><path d="M169.5758,297.7626 L169.5758,298.0801 L180.7755,297.1366 L191.9752,298.0545 L203.1749,298.3663 L214.3746,296.6848 L225.5743,297.6452 L236.774,297.1183 L247.9737,297.1832 L259.1734,297.6596 L270.3731,296.7181 L281.5728,298.5989 L292.7725,296.8104 L303.9722,297.4638 L315.1719,298.4151 L326.3716,297.633 L337.5713,297.8656 L348.771,297.7143 L359.9707,298.0323 L371.1704,298.1238 L382.3701,298.6473 L393.5698,298.7763 L404.7695,298.7887 L415.9692,298.1472 L427.1689,298.4629 L438.3686,297.7626" fill="none" style="stroke:#00BFFF;stroke-width:1.133;stroke-dasharray:2.266,2.266;"/><text fill="#000000" font-family="sans-serif" font-size="14.7292" lengthAdjust="spacing" textLength="160.224" x="183.172" y="291.1809">Confirma&#231;&#227;o de deploy</text></g><path d="M287.2365,312.4917 L287.4481,312.4917 L286.8192,318.61 L287.4311,324.7283 L287.639,330.8465 L286.518,336.9648 L287.2365,343.0831 L287.2365,342.8483 L298.4452,341.7945 L309.6539,341.9244 L320.8627,342.8771 L332.0714,340.9942 L343.2801,344.7558 L354.4889,341.1788 L365.6976,342.4855 L376.9063,344.3881 L388.1151,342.8239 L399.3238,343.2892 L410.5325,342.9865 L421.7413,343.6225 L432.95,343.8056 L444.1587,344.8527 L455.3675,345.1106 L466.5762,345.1354 L477.785,343.8524 L488.9937,344.4837 L500.2024,345.2048 L511.4112,340.9041 L522.6199,345.1331 L533.8286,342.1872 L545.0374,344.6959 L556.2461,341.5874 L567.4548,342.8761 L578.6636,345.3237 L589.8723,342.9358 L601.081,343.0831 L601.1871,343.0831 L601.4221,339.2308 L601.5002,335.3786 L601.0771,331.5263 L601.3703,327.6741 L601.081,323.8219 L600.6734,323.4142 L599.0175,321.7584 L596.9394,319.6802 L594.5995,317.3403 L592.4535,315.1943 L589.7509,312.4917 L589.7509,311.0322 L578.5467,310.5212 L567.3424,310.6142 L556.1382,312.3138 L544.934,311.8979 L533.7297,314.5505 L522.5255,311.964 L511.3212,311.4552 L500.117,313.1814 L488.9128,310.477 L477.7085,310.9233 L466.5043,314.4524 L455.3,313.808 L444.0958,314.7109 L432.8916,311.5195 L421.6873,313.4561 L410.4831,314.2756 L399.2788,311.0644 L388.0746,312.2021 L376.8704,312.8724 L365.6661,314.4609 L354.4619,312.4791 L343.2577,313.8893 L332.0534,310.8185 L320.8492,310.4455 L309.6449,314.0133 L298.4407,310.3256 L287.2365,312.4917" fill="#FEFFDD" style="stroke:#181818;stroke-width:0.5665;"/><path d="M589.7509,312.4917 L590.2635,312.4917 L589.959,314.7577 L589.4811,317.0238 L589.3946,319.2898 L590.2129,321.5558 L589.7509,323.8219 L589.7509,323.5204 L592.0169,324.4179 L594.283,323.2652 L596.549,324.4437 L598.815,324.3096 L601.081,323.8219 L601.2555,323.9963 L598.8486,321.5895 L597.0664,319.8073 L594.7199,317.4607 L592.1375,314.8783 L589.7509,312.4917" fill="#FEFFDD" style="stroke:#181818;stroke-width:0.5665;"/><text fill="#000000" font-family="sans-serif" font-size="14.7292" lengthAdjust="spacing" textLength="290.1649" x="294.0345" y="333.9023">A partir de um agendamento pr&#233;-definido</text><g class="message" data-participant-1="EDGE" data-participant-2="EDGE"><path d="M450.8318,376.4073 L450.8318,376.5131 L460.3491,376.1987 L469.8664,376.5046 L479.3837,376.6086 L488.901,376.0481 L498.4183,376.4073" fill="none" style="stroke:#00BFFF;stroke-width:1.133;"/><path d="M498.4183,376.4073 L498.5242,376.4073 L498.2097,379.3531 L498.5157,382.299 L498.6196,385.2448 L498.0591,388.1906 L498.4183,391.1365" fill="none" style="stroke:#00BFFF;stroke-width:1.133;"/><path d="M451.9648,391.1365 L451.9648,391.2423 L461.2555,390.9278 L470.5462,391.2338 L479.8369,391.3377 L489.1276,390.7772 L498.4183,391.1365" fill="none" style="stroke:#00BFFF;stroke-width:1.133;"/><polygon fill="#00BFFF" points="463.2949,386.6044,463.3244,386.6781,460.9708,387.3655,458.79,388.485,456.5529,389.4638,454.1308,389.9799,451.9648,391.1365,451.9539,391.1092,454.171,391.8933,456.4431,392.8148,458.7533,393.8318,460.9319,394.5197,463.2949,395.6685,463.4428,395.8164,462.2202,394.5938,461.4293,393.8029,460.691,393.0646,459.6464,392.02,458.7629,391.1365,458.7811,391.1547,459.6608,390.2215,460.6234,389.3713,461.546,388.4811,462.5449,387.6672,463.2949,386.6044" style="stroke:#00BFFF;stroke-width:1.133;"/><text fill="#000000" font-family="sans-serif" font-size="14.7292" lengthAdjust="spacing" textLength="162.8164" x="458.7629" y="369.8256">Executar modelo de ML</text></g><path d="M300.8326,405.8656 L301.0443,405.8656 L300.4153,411.9839 L301.0273,418.1022 L301.2351,424.2204 L300.1141,430.3387 L300.8326,436.457 L300.8326,436.2222 L312.344,435.1684 L323.8554,435.2983 L335.3668,436.2511 L346.8783,434.3681 L358.3897,438.1297 L369.9011,434.5527 L381.4125,435.8595 L392.9239,437.762 L404.4353,436.1978 L415.9467,436.6631 L427.4581,436.3605 L438.9696,436.9964 L450.481,437.1795 L461.9924,438.2266 L473.5038,438.4845 L485.0152,438.5093 L496.5266,437.2263 L508.038,437.8576 L519.5494,438.5787 L531.0608,434.278 L542.5723,438.507 L554.0837,435.5611 L565.5951,438.0698 L577.1065,434.9613 L588.6179,436.457 L588.5489,436.457 L589.3648,432.6047 L588.5688,428.7525 L588.724,424.9002 L588.9589,421.048 L588.6179,417.1958 L588.9143,417.4922 L586.3491,414.9269 L584.2904,412.8682 L581.4122,409.99 L579.7563,408.3342 L577.2878,405.8656 L577.2878,407.5219 L565.7688,407.2087 L554.2498,407.7178 L542.7309,404.4061 L531.2119,403.8951 L519.6929,403.9881 L508.174,405.6877 L496.655,405.2718 L485.1361,407.9244 L473.6171,405.3379 L462.0981,404.8291 L450.5792,406.5553 L439.0602,403.8509 L427.5412,404.2972 L416.0223,407.8263 L404.5033,407.1819 L392.9843,408.0848 L381.4654,404.8934 L369.9464,406.83 L358.4274,407.6495 L346.9085,404.4383 L335.3895,405.576 L323.8705,406.2463 L312.3516,407.8348 L300.8326,405.8656" fill="#FEFFDD" style="stroke:#181818;stroke-width:0.5665;"/><path d="M577.2878,405.8656 L577.2836,405.8656 L577.7536,408.1317 L576.73,410.3977 L576.6057,412.6637 L577.795,414.9297 L577.2878,417.1958 L577.2878,416.4737 L579.5538,417.7083 L581.8198,417.4039 L584.0859,416.9259 L586.3519,416.8395 L588.6179,417.1958 L588.9446,417.5225 L586.1387,414.7166 L584.5073,413.0852 L581.4262,410.004 L579.9935,408.5713 L577.2878,405.8656" fill="#FEFFDD" style="stroke:#181818;stroke-width:0.5665;"/><text fill="#000000" font-family="sans-serif" font-size="14.7292" lengthAdjust="spacing" textLength="264.3151" x="307.6307" y="427.2762">An&#225;lise do fluxo de dados de sensores</text><g class="message" data-participant-1="EDGE" data-participant-2="EDGE"><path d="M450.8318,469.7812 L450.8318,469.887 L460.3491,469.5726 L469.8664,469.8785 L479.3837,469.9825 L488.901,469.422 L498.4183,469.7812" fill="none" style="stroke:#00BFFF;stroke-width:1.133;"/><path d="M498.4183,469.7812 L498.5242,469.7812 L498.2097,472.727 L498.5157,475.6729 L498.6196,478.6187 L498.0591,481.5645 L498.4183,484.5104" fill="none" style="stroke:#00BFFF;stroke-width:1.133;"/><path d="M451.9648,484.5104 L451.9648,484.6162 L461.2555,484.3017 L470.5462,484.6077 L479.8369,484.7116 L489.1276,484.1511 L498.4183,484.5104" fill="none" style="stroke:#00BFFF;stroke-width:1.133;"/><polygon fill="#00BFFF" points="463.2949,479.9783,463.3244,480.052,460.9708,480.7394,458.79,481.8589,456.5529,482.8377,454.1308,483.3538,451.9648,484.5104,451.9539,484.4831,454.171,485.2672,456.4431,486.1887,458.7533,487.2057,460.9319,487.8936,463.2949,489.0424,463.4428,489.1903,462.2202,487.9677,461.4293,487.1768,460.691,486.4385,459.6464,485.3939,458.7629,484.5104,458.7811,484.5286,459.6608,483.5954,460.6234,482.7452,461.546,481.855,462.5449,481.0411,463.2949,479.9783" style="stroke:#00BFFF;stroke-width:1.133;"/><text fill="#000000" font-family="sans-serif" font-size="14.7292" lengthAdjust="spacing" textLength="261.1631" x="458.7629" y="463.1995">Verifica gera&#231;&#227;o de relat&#243;rio preditivo</text></g><path d="M345.0201,499.2395 L345.2318,499.2395 L344.6028,505.3578 L345.2148,511.4761 L345.4226,517.5943 L344.3016,523.7126 L345.0201,529.8309 L345.0201,529.5961 L356.6168,528.5423 L368.2136,528.6722 L379.8103,529.625 L391.407,527.742 L403.0037,531.5036 L414.6004,527.9266 L426.1972,529.2334 L437.7939,531.136 L449.3906,529.5717 L460.9873,530.0371 L472.584,529.7344 L484.1808,530.3703 L495.7775,530.5534 L507.3742,531.6005 L518.9709,531.8584 L530.5677,531.8832 L542.1644,529.8309 L542.4208,529.8309 L542.6313,525.9786 L542.8716,522.1264 L541.438,518.2741 L542.8477,514.4219 L542.1644,510.5697 L541.9532,510.3585 L540.2785,508.6838 L537.2798,505.6851 L535.3175,503.7228 L533.6284,502.0337 L530.8342,499.2395 L530.8342,499.0923 L519.2209,499.5577 L507.6075,500.2626 L495.9941,500.4971 L484.3807,499.2277 L472.7673,500.1073 L461.1539,497.51 L449.5406,500.0988 L437.9272,500.8958 L426.3138,500.5826 L414.7004,501.0917 L403.087,497.78 L391.4736,497.269 L379.8603,497.3621 L368.2469,499.0616 L356.6335,498.6457 L345.0201,499.2395" fill="#FEFFDD" style="stroke:#181818;stroke-width:0.5665;"/><path d="M530.8342,499.2395 L531.5205,499.2395 L530.6583,501.5056 L530.4887,503.7716 L531.0641,506.0376 L530.1627,508.3036 L530.8342,510.5697 L530.8342,510.0468 L533.1003,511.2232 L535.3663,511.0084 L537.6323,511.3094 L539.8983,510.2456 L542.1644,510.5697 L542.3917,510.797 L540.3188,508.7241 L537.2959,505.7012 L535.298,503.7033 L533.19,501.5953 L530.8342,499.2395" fill="#FEFFDD" style="stroke:#181818;stroke-width:0.5665;"/><text fill="#000000" font-family="sans-serif" font-size="14.7292" lengthAdjust="spacing" textLength="174.3346" x="351.8182" y="520.6501">Caso anomalia detectada</text><g class="message" data-participant-1="EDGE" data-participant-2="Monitor"><polygon fill="#00BFFF" points="731.2561,558.623,731.2856,558.6967,733.464,559.3842,735.8152,560.5036,738.1102,561.4824,740.2201,561.9985,742.5862,563.1551,742.5753,563.1278,740.2604,563.912,738.0004,564.8334,735.7786,565.8504,733.4251,566.5383,731.2561,567.6871,731.4039,567.835,731.9942,566.6124,733.0161,565.8215,734.0907,565.0833,734.8588,564.0386,735.7881,563.1551,735.8063,563.1733,734.8732,562.2402,734.023,561.3899,733.1328,560.4997,732.3189,559.6859,731.2561,558.623" style="stroke:#00BFFF;stroke-width:1.133;"/><path d="M450.8318,563.1551 L450.8318,563.4726 L462.3207,562.5292 L473.8096,563.4471 L485.2985,563.7589 L496.7874,562.0774 L508.2763,563.0377 L519.7651,562.5108 L531.254,562.5757 L542.7429,563.0521 L554.2318,562.1107 L565.7207,563.9915 L577.2096,562.2029 L588.6985,562.8563 L600.1874,563.8076 L611.6763,563.0255 L623.1652,563.2582 L634.6541,563.1068 L646.143,563.4248 L657.6319,563.5163 L669.1208,564.0399 L680.6097,564.1688 L692.0986,564.1812 L703.5875,563.5398 L715.0764,563.8554 L726.5653,564.2159 L738.0541,563.1551" fill="none" style="stroke:#00BFFF;stroke-width:1.133;"/><text fill="#000000" font-family="sans-serif" font-size="14.7292" lengthAdjust="spacing" textLength="229.5985" x="458.7629" y="556.5734">Notifica usu&#225;rio sobre resultados</text></g><g class="message" data-participant-1="EDGE" data-participant-2="Cloud"><polygon fill="#00BFFF" points="820.999,594.5464,821.0285,594.6201,823.2069,595.3075,825.5582,596.427,827.8532,597.4058,829.9631,597.9219,832.3292,599.0784,832.3183,599.0512,830.0033,599.8353,827.7433,600.7568,825.5215,601.7738,823.1681,602.4616,820.999,603.6105,821.1469,603.7583,821.7371,602.5357,822.759,601.7448,823.8336,601.0066,824.6018,599.9619,825.5311,599.0784,825.5493,599.0966,824.6161,598.1635,823.7659,597.3133,822.8757,596.4231,822.0619,595.6092,820.999,594.5464" style="stroke:#00BFFF;stroke-width:1.133;"/><path d="M450.8318,599.0784 L450.8318,599.3959 L462.255,598.4525 L473.6782,599.3704 L485.1014,599.6822 L496.5245,598.0007 L507.9477,598.961 L519.3709,598.4341 L530.7941,598.4991 L542.2173,598.9755 L553.6405,598.034 L565.0637,599.9148 L576.4869,598.1263 L587.9101,598.7797 L599.3333,599.731 L610.7565,598.9488 L622.1797,599.1815 L633.6029,599.0302 L645.026,599.3481 L656.4492,599.4397 L667.8724,599.9632 L679.2956,600.0922 L690.7188,600.1046 L702.142,599.4631 L713.5652,599.7788 L724.9884,600.1393 L736.4116,597.9889 L747.8348,600.1034 L759.258,598.6305 L770.6812,599.8848 L782.1043,598.3306 L793.5275,598.9749 L804.9507,600.1988 L816.3739,599.0048 L827.7971,599.0784" fill="none" style="stroke:#00BFFF;stroke-width:1.133;"/><text fill="#000000" font-family="sans-serif" font-size="14.7292" lengthAdjust="spacing" textLength="267.0253" x="458.7629" y="592.4967">Envia dados consolidados para Nuvem</text></g><text fill="#1E90FF" font-family="Arial" font-size="15.8622" font-weight="bold" lengthAdjust="spacing" textLength="180.4475" x="33.9904" y="660.2225">Casos de Uso cobertos:</text><text fill="#1E90FF" font-family="Arial" font-size="15.8622" lengthAdjust="spacing" textLength="5.1076" x="33.9904" y="681.8267">-</text><text fill="#1E90FF" font-family="Arial" font-size="15.8622" font-weight="bold" lengthAdjust="spacing" textLength="64.4319" x="43.2221" y="681.8267">EDG-003</text><text fill="#1E90FF" font-family="Arial" font-size="15.8622" lengthAdjust="spacing" textLength="350.8701" x="111.7782" y="681.8267">Execu&#231;&#227;o de Modelos de Manuten&#231;&#227;o Preditiva</text><text fill="#1E90FF" font-family="Arial" font-size="15.8622" lengthAdjust="spacing" textLength="5.1076" x="33.9904" y="703.4309">-</text><text fill="#1E90FF" font-family="Arial" font-size="15.8622" font-weight="bold" lengthAdjust="spacing" textLength="63.1312" x="43.2221" y="703.4309">CLD-003</text><text fill="#1E90FF" font-family="Arial" font-size="15.8622" lengthAdjust="spacing" textLength="347.7135" x="110.4775" y="703.4309">Treinamento de Modelos de Machine Learning</text><polygon fill="none" points="31.1579,28.3253,31.1579,28.5635,42.5062,27.8559,53.8546,28.5443,65.2029,28.7782,76.5513,27.517,87.8996,28.2373,99.248,27.8421,110.5964,27.8908,121.9447,28.2481,133.2931,27.542,144.6414,28.9526,155.9898,27.6112,167.3382,28.1013,178.6865,28.8147,190.0349,28.2281,201.3832,28.4026,212.7316,28.2891,224.08,28.5276,235.4283,28.5963,246.7767,28.9889,258.125,29.0856,269.4734,29.0949,280.8217,28.6138,292.1701,28.8506,303.5185,29.121,314.8668,27.5082,326.2152,29.0941,337.5635,27.9894,348.9119,28.9301,360.2603,27.7645,371.6086,28.2477,382.957,29.1656,394.3053,28.2701,405.6537,28.4446,417.002,28.709,428.3504,28.7969,439.6988,28.3209,451.0471,28.6507,462.3955,27.6768,473.7438,28.6475,485.0922,28.9464,496.4406,28.829,507.7889,29.0199,519.1373,27.778,530.4856,27.5864,541.834,27.6213,553.1823,28.2586,564.5307,28.1027,575.8791,29.0974,587.2274,28.1274,598.5758,27.9366,609.9241,28.584,621.2725,27.5698,632.6209,27.7371,643.9692,29.0606,655.3176,28.8189,666.6659,29.1575,678.0143,27.9607,689.3626,28.687,700.711,28.9943,712.0594,27.7901,723.4077,28.2167,734.7561,28.4681,746.1044,29.0638,757.4528,28.3206,768.8012,28.8494,780.1495,27.6979,791.4979,27.558,802.8462,28.8959,814.1946,27.513,825.5429,28.902,836.8913,28.5594,848.2397,28.0218,859.588,27.9245,870.9364,28.8451,882.2847,27.9862,893.6331,28.9959,904.9815,27.6991,916.3298,29.0249,927.6782,28.874,939.0265,28.6029,950.3749,28.3788,961.7233,28.3253,961.8283,28.5789,963.0137,29.0372,964.1512,29.3799,965.3672,29.9122,966.5114,30.271,967.732,30.8142,967.9819,30.9178,968.2838,32.0383,968.7877,33.2426,969.013,34.3315,969.5817,35.5626,970.2208,36.8229,970.8222,36.8229,970.7078,48.6606,970.1722,60.4983,969.8558,72.3361,969.9728,84.1738,970.2208,96.0115,969.9814,95.9123,969.8678,97.2732,969.4833,98.5219,968.9112,99.6928,968.4722,100.9189,967.732,102.0202,967.7122,101.9725,966.5428,102.5484,965.2725,102.8805,964.1678,103.6126,962.9607,104.0974,961.7233,104.5091,961.7233,105.135,950.3749,104.2489,939.0265,104.3568,927.6782,105.0115,916.3298,105.1519,904.9815,103.9284,893.6331,104.2894,882.2847,104.6782,870.9364,103.817,859.588,104.9095,848.2397,104.8014,836.8913,104.3949,825.5429,104.6703,814.1946,105.3347,802.8462,104.1546,791.4979,104.866,780.1495,104.8327,768.8012,104.6403,757.4528,104.6688,746.1044,104.6377,734.7561,103.8019,723.4077,104.055,712.0594,103.9862,700.711,104.5814,689.3626,104.6089,678.0143,104.6924,666.6659,104.1794,655.3176,104.4326,643.9692,104.3729,632.6209,105.1627,621.2725,104.9924,609.9241,103.959,598.5758,104.4265,587.2274,103.8551,575.8791,104.8358,564.5307,105.1985,553.1823,105.1261,541.834,104.0156,530.4856,105.0348,519.1373,103.6675,507.7889,104.7359,496.4406,104.17,485.0922,104.6187,473.7438,104.7814,462.3955,105.044,451.0471,103.6934,439.6988,105.0478,428.3504,104.711,417.002,104.9117,405.6537,105.3564,394.3053,104.5153,382.957,104.7077,371.6086,104.7509,360.2603,104.7326,348.9119,104.5082,337.5635,105.3143,326.2152,103.8182,314.8668,105.1496,303.5185,103.8021,292.1701,103.8969,280.8217,104.5544,269.4734,104.5411,258.125,103.9507,246.7767,104.9778,235.4283,104.6324,224.08,105.3324,212.7316,105.2649,201.3832,104.0012,190.0349,104.0582,178.6865,104.3627,167.3382,104.9119,155.9898,104.9657,144.6414,104.8503,133.2931,104.1216,121.9447,105.2301,110.5964,105.2272,99.248,104.4555,87.8996,104.2382,76.5513,104.0543,65.2029,104.266,53.8546,104.6648,42.5062,104.4316,31.1579,104.5091,31.0975,104.3633,30.0266,104.1814,28.688,103.3534,27.6252,103.191,26.4126,102.6671,25.1491,102.0202,25.2789,102.0739,24.893,100.9185,24.0678,99.5812,23.5509,98.3715,23.3391,97.2882,22.6603,96.0115,21.984,96.0115,22.3951,84.1738,22.7911,72.3361,22.7381,60.4983,22.2541,48.6606,22.6603,36.8229,22.6453,36.8167,23.4178,35.7288,23.8821,34.5132,23.9455,33.1315,24.6788,32.0273,25.1491,30.8142,25.0749,30.6349,26.3471,30.3073,27.595,29.9209,28.8151,29.4674,29.86,28.5912,31.1579,28.3253" style="stroke:#000000;stroke-width:1.133;"/><text fill="#1E90FF" font-family="Arial" font-size="22.6603" font-weight="bold" lengthAdjust="spacing" textLength="902.2401" x="45.3205" y="75.2094">Diagrama de Sequ&#234;ncia - M&#243;dulo Edge (EDG) - Processamento Machine Learning</text><!--SRC=[PPB1RjGm48RlVegX9uWKL8dR7f3GRk2ogIgMvJwrPnTBZYUCxLLvd8e3WciV8I-6xMGNsbwYEF7y__VFp2lhjKk6ODDztBqTq-2KSdGaRo3og02QPcFnA3WWv5ix-fwcFrvRX1RwwT4anz2P8y7hRlFfJVvuAwmf11p8HuOUzJVh2RQ4ugq_DeqgqhE3KgWZ2-n3cXx4Cc20_Qxxh4QKQBKTqKUu-j_bgbp9HfrIvIAqx-jf1HiQ7Vy0eO6pQmPD0mnioDL3lorEzeIHvkhoW3PN5vKLhDaVh0mu_Pf-rW9JvPJdNC0daiNb0rGoMGomX5Y2ZZBzRWqThBU65_qpN7TFEaMKfqGlnFtqu6p8vWm7b-vd43GSoaiW7rWeF9F-Ic8FLYCSIVxX2pcCqsDfwIXaR8xEB_pM67B7FG_eR9bj91tHuCMWPs_pT5Pmmt7sIESv1RwJuXAIYmNmKhDsd4mEx4z5ih9hpk3EpeVSFeIRTA91gGDd8AaRLb1godr6qdn74Zciygu0v8rgcYpVNb-_QvgvbPUSVUrdhUpHfqX-_dMxXCQpm7gxMGI-25c_pEovmjDLhOkwGFu5]--></g></svg>