<svg xmlns="http://www.w3.org/2000/svg" xmlns:xlink="http://www.w3.org/1999/xlink" contentStyleType="text/css" data-diagram-type="SEQUENCE" height="750.7599px" preserveAspectRatio="none" style="width:960px;height:750px;background:#EEEBDC;" version="1.1" viewBox="0 0 960 750" width="960.9221px" zoomAndPan="magnify"><defs/><g><rect fill="#EEEBDC" height="750.7599" style="stroke:none;stroke-width:1.266;" width="960.9221" x="0" y="0"/><g><title>MCU</title><polygon fill="#000000" fill-opacity="0.00000" points="34.5564,220.9841,34.5564,221.0728,36.5821,220.8092,38.6077,221.0656,40.6334,221.1527,42.6591,220.683,44.6847,220.9841,44.5863,220.9841,44.1448,233.7562,44.1992,246.5283,44.5984,259.3004,43.8094,272.0726,45.3856,284.8447,43.8868,297.6168,44.4343,310.3889,45.2316,323.1611,44.5761,335.9332,44.7711,348.7053,44.6443,361.4774,44.9107,374.2496,44.9875,387.0217,45.4262,399.7938,45.5343,412.5659,45.5447,425.338,45.0071,438.1102,45.2716,450.8823,45.5738,463.6544,43.7717,476.4265,45.5437,489.1987,44.3093,501.9708,45.3605,514.7429,44.058,527.515,44.598,540.2872,45.6236,553.0593,44.623,565.8314,44.818,578.6035,45.1134,591.3757,44.6847,604.1478,44.6847,604.3234,42.6591,604.1461,40.6334,604.269,38.6077,603.9062,36.5821,604.2678,34.5564,604.1478,35.2505,604.1478,35.1192,591.3757,35.3325,578.6035,33.9448,565.8314,33.7307,553.0593,33.7697,540.2872,34.4819,527.515,34.3076,514.7429,35.4191,501.9708,34.3353,489.1987,34.1221,476.4265,34.8454,463.6544,33.7122,450.8823,33.8992,438.1102,35.378,425.338,35.108,412.5659,35.4863,399.7938,34.149,387.0217,34.9605,374.2496,35.3039,361.4774,33.9583,348.7053,34.4351,335.9332,34.7159,323.1611,35.3816,310.3889,34.5511,297.6168,35.142,284.8447,33.8553,272.0726,33.699,259.3004,35.194,246.5283,33.6487,233.7562,34.5564,220.9841"/><path d="M39.2471,220.9841 L39.6019,220.9841 L38.5478,233.7562 L39.5734,246.5283 L39.9218,259.3004 L38.0429,272.0726 L39.116,284.8447 L38.5272,297.6168 L38.5998,310.3889 L39.1321,323.1611 L38.0801,335.9332 L40.1817,348.7053 L38.1832,361.4774 L38.9133,374.2496 L39.9763,387.0217 L39.1024,399.7938 L39.3623,412.5659 L39.1932,425.338 L39.5485,438.1102 L39.6508,450.8823 L40.2358,463.6544 L40.3799,476.4265 L40.3938,489.1987 L39.677,501.9708 L40.0297,514.7429 L40.4325,527.515 L38.0298,540.2872 L40.3925,553.0593 L38.7466,565.8314 L40.1482,578.6035 L38.4115,591.3757 L39.2471,604.1478" fill="none" style="stroke:#0000FF;stroke-width:0.633;stroke-dasharray:6.3302,6.3302;"/></g><g><title>C.mera</title><polygon fill="#000000" fill-opacity="0.00000" points="128.8203,220.9841,128.8203,221.0728,130.846,220.8092,132.8716,221.0656,134.8973,221.1527,136.9229,220.683,138.9486,220.9841,138.8502,220.9841,138.4086,233.7562,138.4631,246.5283,138.8623,259.3004,138.0733,272.0726,139.6495,284.8447,138.1506,297.6168,138.6982,310.3889,139.4955,323.1611,138.84,335.9332,139.035,348.7053,138.9082,361.4774,139.1746,374.2496,139.2514,387.0217,139.6901,399.7938,139.7982,412.5659,139.8086,425.338,139.271,438.1102,139.5355,450.8823,139.8377,463.6544,138.0356,476.4265,139.8076,489.1987,138.5732,501.9708,139.6244,514.7429,138.3219,527.515,138.8619,540.2872,139.8875,553.0593,138.8869,565.8314,139.0819,578.6035,139.3773,591.3757,138.9486,604.1478,138.9486,604.3234,136.9229,604.1461,134.8973,604.269,132.8716,603.9062,130.846,604.2678,128.8203,604.1478,129.5143,604.1478,129.3831,591.3757,129.5964,578.6035,128.2087,565.8314,127.9946,553.0593,128.0336,540.2872,128.7458,527.515,128.5715,514.7429,129.683,501.9708,128.5992,489.1987,128.386,476.4265,129.1093,463.6544,127.9761,450.8823,128.1631,438.1102,129.6419,425.338,129.3719,412.5659,129.7502,399.7938,128.4129,387.0217,129.2244,374.2496,129.5678,361.4774,128.2222,348.7053,128.6989,335.9332,128.9798,323.1611,129.6455,310.3889,128.815,297.6168,129.4059,284.8447,128.1192,272.0726,127.9629,259.3004,129.4579,246.5283,127.9126,233.7562,128.8203,220.9841"/><path d="M133.6807,220.9841 L134.0355,220.9841 L132.9813,233.7562 L134.007,246.5283 L134.3554,259.3004 L132.4765,272.0726 L133.5495,284.8447 L132.9608,297.6168 L133.0334,310.3889 L133.5657,323.1611 L132.5137,335.9332 L134.6153,348.7053 L132.6168,361.4774 L133.3469,374.2496 L134.4099,387.0217 L133.5359,399.7938 L133.7959,412.5659 L133.6268,425.338 L133.9821,438.1102 L134.0844,450.8823 L134.6694,463.6544 L134.8135,476.4265 L134.8273,489.1987 L134.1105,501.9708 L134.4633,514.7429 L134.8661,527.515 L132.4633,540.2872 L134.8261,553.0593 L133.1802,565.8314 L134.5818,578.6035 L132.8451,591.3757 L133.6807,604.1478" fill="none" style="stroke:#0000FF;stroke-width:0.633;stroke-dasharray:6.3302,6.3302;"/></g><g><title>M.dulo Edge</title><polygon fill="#000000" fill-opacity="0.00000" points="426.3101,220.9841,426.3101,221.0728,428.3358,220.8092,430.3615,221.0656,432.3871,221.1527,434.4128,220.683,436.4384,220.9841,436.34,220.9841,435.8985,233.7562,435.9529,246.5283,436.3521,259.3004,435.5631,272.0726,437.1394,284.8447,435.6405,297.6168,436.1881,310.3889,436.9853,323.1611,436.3298,335.9332,436.5248,348.7053,436.398,361.4774,436.6645,374.2496,436.7412,387.0217,437.1799,399.7938,437.288,412.5659,437.2984,425.338,436.7608,438.1102,437.0254,450.8823,437.3275,463.6544,435.5254,476.4265,437.2975,489.1987,436.0631,501.9708,437.1143,514.7429,435.8117,527.515,436.3517,540.2872,437.3773,553.0593,436.3767,565.8314,436.5718,578.6035,436.8672,591.3757,436.4384,604.1478,436.4384,604.3234,434.4128,604.1461,432.3871,604.269,430.3615,603.9062,428.3358,604.2678,426.3101,604.1478,427.0042,604.1478,426.8729,591.3757,427.0863,578.6035,425.6985,565.8314,425.4845,553.0593,425.5234,540.2872,426.2356,527.515,426.0613,514.7429,427.1728,501.9708,426.089,489.1987,425.8758,476.4265,426.5991,463.6544,425.4659,450.8823,425.6529,438.1102,427.1317,425.338,426.8617,412.5659,427.24,399.7938,425.9027,387.0217,426.7143,374.2496,427.0576,361.4774,425.7121,348.7053,426.1888,335.9332,426.4696,323.1611,427.1353,310.3889,426.3048,297.6168,426.8958,284.8447,425.609,272.0726,425.4527,259.3004,426.9477,246.5283,425.4025,233.7562,426.3101,220.9841"/><path d="M430.3389,220.9841 L430.6937,220.9841 L429.6395,233.7562 L430.6652,246.5283 L431.0136,259.3004 L429.1346,272.0726 L430.2077,284.8447 L429.6189,297.6168 L429.6915,310.3889 L430.2238,323.1611 L429.1718,335.9332 L431.2735,348.7053 L429.2749,361.4774 L430.0051,374.2496 L431.068,387.0217 L430.1941,399.7938 L430.4541,412.5659 L430.285,425.338 L430.6403,438.1102 L430.7426,450.8823 L431.3276,463.6544 L431.4717,476.4265 L431.4855,489.1987 L430.7687,501.9708 L431.1214,514.7429 L431.5243,527.515 L429.1215,540.2872 L431.4843,553.0593 L429.8384,565.8314 L431.24,578.6035 L429.5033,591.3757 L430.3389,604.1478" fill="none" style="stroke:#0000FF;stroke-width:0.633;stroke-dasharray:6.3302,6.3302;"/></g><g><title>MDC.SCADA</title><polygon fill="#000000" fill-opacity="0.00000" points="855.4312,220.9841,855.4312,221.0728,857.4568,220.8092,859.4825,221.0656,861.5081,221.1527,863.5338,220.683,865.5595,220.9841,865.4611,220.9841,865.0195,233.7562,865.0739,246.5283,865.4732,259.3004,864.6842,272.0726,866.2604,284.8447,864.7615,297.6168,865.3091,310.3889,866.1063,323.1611,865.4509,335.9332,865.6458,348.7053,865.519,361.4774,865.7855,374.2496,865.8622,387.0217,866.301,399.7938,866.409,412.5659,866.4194,425.338,865.8818,438.1102,866.1464,450.8823,866.4485,463.6544,864.6464,476.4265,866.4185,489.1987,865.1841,501.9708,866.2353,514.7429,864.9327,527.515,865.4727,540.2872,866.4984,553.0593,865.4978,565.8314,865.6928,578.6035,865.9882,591.3757,865.5595,604.1478,865.5595,604.3234,863.5338,604.1461,861.5081,604.269,859.4825,603.9062,857.4568,604.2678,855.4312,604.1478,856.1252,604.1478,855.994,591.3757,856.2073,578.6035,854.8196,565.8314,854.6055,553.0593,854.6444,540.2872,855.3566,527.515,855.1823,514.7429,856.2938,501.9708,855.21,489.1987,854.9968,476.4265,855.7202,463.6544,854.5869,450.8823,854.7739,438.1102,856.2528,425.338,855.9827,412.5659,856.361,399.7938,855.0238,387.0217,855.8353,374.2496,856.1786,361.4774,854.8331,348.7053,855.3098,335.9332,855.5907,323.1611,856.2563,310.3889,855.4258,297.6168,856.0168,284.8447,854.73,272.0726,854.5737,259.3004,856.0687,246.5283,854.5235,233.7562,855.4312,220.9841"/><path d="M860.467,220.9841 L860.8218,220.9841 L859.7676,233.7562 L860.7933,246.5283 L861.1417,259.3004 L859.2628,272.0726 L860.3358,284.8447 L859.7471,297.6168 L859.8197,310.3889 L860.352,323.1611 L859.3,335.9332 L861.4016,348.7053 L859.4031,361.4774 L860.1332,374.2496 L861.1962,387.0217 L860.3222,399.7938 L860.5822,412.5659 L860.4131,425.338 L860.7684,438.1102 L860.8707,450.8823 L861.4557,463.6544 L861.5998,476.4265 L861.6137,489.1987 L860.8969,501.9708 L861.2496,514.7429 L861.6524,527.515 L859.2496,540.2872 L861.6124,553.0593 L859.9665,565.8314 L861.3681,578.6035 L859.6314,591.3757 L860.467,604.1478" fill="none" style="stroke:#0000FF;stroke-width:0.633;stroke-dasharray:6.3302,6.3302;"/></g><g class="participant participant-head" data-participant="MCU"><polygon fill="#1E90FF" points="9.4953,172.6797,9.4953,172.9458,21.5454,172.1552,33.5955,172.9245,45.6456,173.1858,57.6957,171.7766,69.7459,172.6797,69.7333,172.6495,70.1246,172.6989,70.5791,172.901,71.0777,173.2094,71.4247,173.1518,71.9839,173.6068,72.1998,173.6962,71.9236,173.9526,72.2776,174.4701,72.7085,175.0194,72.6921,175.3834,72.911,175.8448,72.9397,175.8448,72.8975,183.9865,72.9863,192.1281,73.0119,200.2697,73.1581,208.4113,72.911,216.5529,73.1726,216.6613,72.9904,217.1102,72.6394,217.4893,72.5355,217.9706,72.4431,218.4568,71.9839,218.791,71.8674,218.5098,71.6459,219.2409,71.0408,219.0462,70.7273,219.5553,70.1135,219.3396,69.7459,219.718,69.7459,219.6313,57.6957,220.6569,45.6456,219.6563,33.5955,219.8513,21.5454,220.1467,9.4953,219.718,9.5625,219.8803,9.047,219.5311,8.6464,219.4592,8.06,218.9386,7.7508,219.0873,7.2572,218.791,7.471,218.8795,7.2451,218.4152,7.1254,217.9948,6.5127,217.3701,6.2613,216.8952,6.3302,216.5529,6.0679,216.5529,6.3053,208.4113,6.2472,200.2697,6.6177,192.1281,6.2565,183.9865,6.3302,175.8448,6.1964,175.7894,6.6046,175.4341,6.441,174.8419,6.684,174.4182,7.3248,174.1592,7.2572,173.6068,7.3276,173.7766,7.8234,173.7077,8.1005,173.1105,8.6516,173.175,9.143,173.0954,9.4953,172.6797" style="stroke:#00BFFF;stroke-width:0.633;"/><text fill="#A9DCDF" font-family="Impact" font-size="21.5226" lengthAdjust="spacing" textLength="48.8562" x="15.1924" y="204.5496">MCU</text></g><g class="participant participant-head" data-participant="C.mera"><polygon fill="#1E90FF" points="88.7364,172.6797,88.7364,172.9458,101.6359,172.1552,114.5353,172.9245,127.4347,173.1858,140.3342,171.7766,153.2336,172.5814,166.1331,172.1398,179.0325,172.6797,178.9706,172.5302,179.4691,172.8386,179.8161,172.781,180.4647,173.4518,180.7212,173.1756,181.2706,173.6068,181.1934,173.5748,181.6244,174.1242,181.6079,174.4882,181.8534,174.9606,181.9997,175.3921,182.1976,175.8448,182.2729,175.8448,182.2985,183.9865,182.4448,192.1281,182.4808,200.2697,182.4842,208.4113,182.1976,216.5529,182.2969,216.594,182.1929,217.0754,182.1006,217.5616,181.3602,217.7793,181.7205,218.453,181.2706,218.791,181.2227,218.6754,180.9092,219.1845,180.2954,218.9688,179.9167,219.3205,179.5999,219.8218,179.0325,219.718,179.0325,219.6563,166.1331,219.8513,153.2336,220.1467,140.3342,220.245,127.4347,219.7131,114.5353,220.0816,101.6359,218.9933,88.7364,219.718,88.7823,219.8289,88.3773,219.7463,87.913,219.5205,87.4926,219.4008,86.8679,218.788,86.4984,218.791,86.2441,218.6857,86.0707,218.243,86.1046,217.8863,85.8655,217.4164,86.0224,217.1106,85.5713,216.5529,85.4976,216.5529,85.4265,208.4113,85.6677,200.2697,85.2899,192.1281,85.3522,183.9865,85.5713,175.8448,85.8243,175.9496,85.9266,175.4676,86.2285,175.0682,86.0021,174.45,86.4374,174.1059,86.4984,173.6068,86.5937,173.837,86.8697,173.2372,87.3781,173.1986,87.8615,173.0997,88.3941,173.1193,88.7364,172.6797" style="stroke:#00BFFF;stroke-width:0.633;"/><text fill="#A9DCDF" font-family="Impact" font-size="21.5226" lengthAdjust="spacing" textLength="78.9018" x="94.4336" y="204.5496">C&#226;mera</text></g><g class="participant participant-head" data-participant="EDGE"><polygon fill="#1E90FF" points="323.3588,143.366,323.3588,143.6321,336.0665,142.8415,348.7742,143.6107,361.4819,143.872,374.1896,142.4628,386.8973,143.2676,399.605,142.826,412.3127,142.8805,425.0204,143.2797,437.7281,142.4907,450.4359,144.0669,463.1436,142.568,475.8513,143.1156,488.559,143.9129,501.2667,143.2574,513.9744,143.4524,526.6821,143.3256,539.3898,143.366,539.4186,143.4356,539.876,143.6446,540.3796,143.9652,540.841,144.1839,541.29,144.3725,541.6279,144.293,541.7271,144.3342,541.994,144.8155,542.2725,145.3017,541.9029,145.5194,542.634,146.1931,542.5549,146.5311,542.1795,146.5311,543.2307,158.2014,541.9282,169.8717,542.4682,181.542,543.4938,193.2123,542.4932,204.8826,542.5549,216.5529,542.596,216.5699,542.5015,217.0552,542.3464,217.5154,541.9972,217.8951,541.9253,218.3898,541.6279,218.791,541.5354,218.5678,541.2262,219.0873,540.8212,219.3755,540.3568,219.5205,539.9364,219.7716,539.3898,219.718,539.3898,219.1064,526.6821,218.8923,513.9744,218.9313,501.2667,219.6435,488.559,219.4692,475.8513,220.5807,463.1436,219.4969,450.4359,219.2837,437.7281,220.007,425.0204,218.8738,412.3127,219.0608,399.605,220.5396,386.8973,220.2696,374.1896,220.6479,361.4819,219.3106,348.7742,220.1221,336.0665,220.4655,323.3588,219.718,323.2825,219.5338,322.8957,219.4952,322.4839,219.3963,322.1212,219.4159,321.5676,218.9748,321.1207,218.791,321.3011,218.8657,320.7194,218.2539,320.4858,217.7864,320.7608,217.5295,320.0996,216.8848,320.1937,216.5529,320.838,216.5529,320.4553,204.8826,319.8545,193.2123,319.7458,181.542,320.7745,169.8717,319.8147,158.2014,320.1937,146.5311,320.4244,146.6267,320.1636,145.9942,320.8052,145.7356,320.9387,145.2665,321.0308,144.7802,321.1207,144.293,321.1283,144.3114,321.6857,144.3909,322.115,144.1614,322.4909,143.8028,322.9545,143.656,323.3588,143.366" style="stroke:#00BFFF;stroke-width:0.633;"/><text fill="#A9DCDF" font-family="Impact" font-size="21.5226" lengthAdjust="spacing" textLength="133.8274" x="364.4606" y="175.2359">M&#243;dulo Edge</text><text fill="#A9DCDF" font-family="Impact" font-size="21.5226" lengthAdjust="spacing" textLength="204.6367" x="329.0559" y="204.5496">(Buffer/RTSP Server)</text></g><g class="participant participant-head" data-participant="MDC"><polygon fill="#1E90FF" points="769.9454,143.366,769.9454,143.6321,782.8811,142.8415,795.8168,143.6107,808.7525,143.872,821.6882,142.4628,834.6239,143.2676,847.5596,142.826,860.4953,142.8805,873.431,143.2797,886.3667,142.4907,899.3024,144.0669,912.2381,142.568,925.1738,143.1156,938.1095,143.9129,951.0452,143.366,951.0314,143.3326,951.5039,143.578,951.9353,143.7244,952.4169,143.9918,952.8743,144.2009,953.2833,144.293,953.5116,144.3876,953.7303,144.849,953.9189,145.298,953.9388,145.677,954.2057,146.1583,954.2103,146.5311,955.0994,146.5311,953.2973,158.2014,955.0693,169.8717,953.8349,181.542,954.8861,193.2123,953.5836,204.8826,954.2103,216.5529,954.1836,216.5419,954.314,217.1203,953.8205,217.4403,953.6951,217.9128,953.6007,218.3981,953.2833,218.791,953.3505,218.9533,952.835,218.9749,952.4344,219.2738,951.848,219.124,951.5388,219.6435,951.0452,219.718,951.0452,220.4121,938.1095,220.2808,925.1738,220.4941,912.2381,219.1064,899.3024,218.8923,886.3667,218.9313,873.431,219.6435,860.4953,219.4692,847.5596,220.5807,834.6239,219.4969,821.6882,219.2837,808.7525,220.007,795.8168,218.8738,782.8811,219.0608,769.9454,219.718,770.0502,219.971,769.5681,219.7025,769.1688,219.6336,768.5506,219.0363,768.2065,219.1008,767.7073,218.791,767.9375,218.8863,767.3377,218.2671,767.2991,217.8803,767.2002,217.4685,767.2198,217.1058,766.7803,216.5529,766.775,216.5529,767.3659,204.8826,766.0792,193.2123,765.9229,181.542,767.4179,169.8717,765.8726,158.2014,766.7803,146.5311,766.9787,146.6133,767.0463,146.1168,767.0466,145.5926,767.1986,145.1311,767.7008,144.8147,767.7073,144.293,767.659,144.1763,768.2505,144.3384,768.5133,143.7067,769.1499,143.9775,769.576,143.7402,769.9454,143.366" style="stroke:#00BFFF;stroke-width:0.633;"/><text fill="#A9DCDF" font-family="Impact" font-size="21.5226" lengthAdjust="spacing" textLength="125.4766" x="797.757" y="175.2359">MDC/SCADA</text><text fill="#A9DCDF" font-family="Impact" font-size="21.5226" lengthAdjust="spacing" textLength="169.7055" x="775.6426" y="204.5496">(An&#225;lise Remota)</text></g><g class="message" data-participant-1="C.mera" data-participant-2="EDGE"><polygon fill="#00BFFF" points="416.1818,258.593,416.2148,258.6753,418.649,259.4435,421.2763,260.6944,423.8407,261.7881,426.1983,262.3648,428.8422,263.6571,428.83,263.6267,426.2433,264.5028,423.718,265.5325,421.2353,266.6689,418.6056,267.4375,416.1818,268.7213,416.3471,268.8865,417.0066,267.5204,418.1485,266.6366,419.3492,265.8117,420.2076,264.6444,421.246,263.6571,421.2664,263.6775,420.2236,262.6348,419.2736,261.6847,418.2789,260.69,417.3694,259.7806,416.1818,258.593" style="stroke:#00BFFF;stroke-width:1.266;"/><path d="M133.8845,263.6571 L133.8845,264.0119 L146.4885,262.9577 L159.0926,263.9834 L171.6967,264.3318 L184.3007,262.4529 L196.9048,263.5259 L209.5089,262.9372 L222.1129,263.0098 L234.717,263.5421 L247.3211,262.4901 L259.9252,264.5917 L272.5292,262.5932 L285.1333,263.3233 L297.7374,264.3863 L310.3414,263.5123 L322.9455,263.7723 L335.5496,263.6032 L348.1536,263.9585 L360.7577,264.0608 L373.3618,264.6458 L385.9659,264.7899 L398.5699,264.8037 L411.174,264.0869 L423.7781,263.6571" fill="none" style="stroke:#00BFFF;stroke-width:1.266;"/><text fill="#000000" font-family="sans-serif" font-size="16.4585" lengthAdjust="spacing" textLength="267.1049" x="142.7467" y="256.3027">Envio cont&#237;nuo de stream de v&#237;deo</text></g><polygon fill="#FEFFDD" points="69.632,280.1156,69.632,280.3817,82.1062,279.5911,94.5804,280.3603,107.0546,280.6216,119.5288,279.2124,132.003,280.0172,144.4772,279.5756,156.9514,279.6301,169.4255,280.0293,181.8997,279.2403,194.3739,280.8165,206.8481,279.3176,219.3223,279.8652,231.7965,280.6625,244.2707,280.007,256.7449,280.202,269.219,280.0752,281.6932,280.3416,294.1674,280.4184,306.6416,280.8571,319.1158,280.9652,331.59,280.9756,344.0642,280.438,356.5384,280.7025,369.0125,281.0047,381.4867,279.2026,393.9609,280.9746,406.4351,279.7402,418.9093,280.7914,431.3835,279.4889,443.8577,280.0289,456.3319,281.0545,468.8061,280.0539,481.2802,280.2489,493.7544,280.1156,493.8642,280.2071,496.4214,283.2665,498.8173,286.1915,501.4438,289.3087,503.6971,292.1149,506.4148,295.308,506.5099,295.3812,504.0661,298.7408,501.4993,302.0058,499.0236,305.3409,496.1249,308.3505,493.7544,311.7665,493.7544,310.9408,481.2802,310.9798,468.8061,311.692,456.3319,311.5177,443.8577,312.6292,431.3835,311.5454,418.9093,311.3322,406.4351,312.0555,393.9609,310.9223,381.4867,311.1093,369.0125,312.5881,356.5384,312.3181,344.0642,312.6964,331.59,311.3591,319.1158,312.1706,306.6416,312.514,294.1674,311.1684,281.6932,311.6452,269.219,311.926,256.7449,312.5917,244.2707,311.7612,231.7965,312.3522,219.3223,311.0654,206.8481,310.9091,194.3739,312.4041,181.8997,310.8589,169.4255,312.4109,156.9514,312.0281,144.4772,311.4273,132.003,311.3186,119.5288,312.3473,107.0546,311.3876,94.5804,312.5158,82.1062,311.0667,69.632,311.7665,69.8386,311.9254,67.262,308.5994,64.6498,305.2462,62.0516,301.9036,59.7468,298.7867,56.9717,295.308,57.1706,295.4738,59.5586,292.3153,62.1228,289.3035,64.5257,286.1574,67.3322,283.3477,69.632,280.1156" style="stroke:#181818;stroke-width:0.633;"/><text fill="#000000" font-family="sans-serif" font-size="16.4585" lengthAdjust="spacing" textLength="279.1525" x="142.7221" y="302.7739">EDGE mant&#233;m buffer (10s pr&#233;-falha)</text><g class="message" data-participant-1="MCU" data-participant-2="EDGE"><polygon fill="#00BFFF" points="416.1818,343.9391,416.2148,344.0215,418.649,344.7896,421.2763,346.0405,423.8407,347.1342,426.1983,347.7109,428.8422,349.0032,428.83,348.9728,426.2433,349.849,423.718,350.8786,421.2353,352.015,418.6056,352.7837,416.1818,354.0674,416.3471,354.2326,417.0066,352.8665,418.1485,351.9827,419.3492,351.1578,420.2076,349.9905,421.246,349.0032,421.2664,349.0236,420.2236,347.9809,419.2736,347.0309,418.2789,346.0361,417.3694,345.1267,416.1818,343.9391" style="stroke:#00BFFF;stroke-width:1.266;"/><path d="M39.6206,349.0032 L39.6206,349.358 L52.4258,348.3039 L65.2311,349.3295 L78.0363,349.6779 L90.8416,347.799 L103.6468,348.8721 L116.4521,348.2833 L129.2573,348.3559 L142.0626,348.8882 L154.8678,347.8362 L167.6731,349.9378 L180.4783,347.9393 L193.2836,348.6694 L206.0888,349.7324 L218.8941,348.8585 L231.6993,349.1184 L244.5046,348.9493 L257.3098,349.3046 L270.1151,349.4069 L282.9203,349.9919 L295.7256,350.136 L308.5308,350.1499 L321.3361,349.4331 L334.1413,349.7858 L346.9466,350.1887 L359.7518,347.7859 L372.5571,350.1486 L385.3623,348.5027 L398.1676,349.9043 L410.9728,348.1676 L423.7781,349.0032" fill="none" style="stroke:#00BFFF;stroke-width:1.266;"/><text fill="#000000" font-family="sans-serif" font-size="16.4585" lengthAdjust="spacing" textLength="240.1294" x="48.4828" y="341.6488">Sinaliza Falha Cr&#237;tica Detectada</text></g><g class="message" data-participant-1="EDGE" data-participant-2="EDGE"><path d="M431.3743,411.5607 L431.3743,411.679 L442.009,411.3276 L452.6437,411.6695 L463.2784,411.7856 L473.9131,411.1593 L484.5478,411.5607" fill="none" style="stroke:#00BFFF;stroke-width:1.266;stroke-dasharray:2.5321,2.5321;"/><path d="M484.5478,411.5607 L484.6661,411.5607 L484.3147,414.8524 L484.6566,418.1441 L484.7727,421.4358 L484.1464,424.7275 L484.5478,428.0192" fill="none" style="stroke:#00BFFF;stroke-width:1.266;stroke-dasharray:2.5321,2.5321;"/><path d="M432.6403,428.0192 L432.6403,428.1375 L443.0218,427.7861 L453.4033,428.128 L463.7848,428.2441 L474.1663,427.6178 L484.5478,428.0192" fill="none" style="stroke:#00BFFF;stroke-width:1.266;stroke-dasharray:2.5321,2.5321;"/><polygon fill="#00BFFF" points="445.3007,422.955,445.3336,423.0374,442.7037,423.8055,440.2668,425.0564,437.7671,426.1501,435.0606,426.7268,432.6403,428.0192,432.6281,427.9887,435.1056,428.8649,437.6444,429.8946,440.2259,431.031,442.6603,431.7996,445.3007,433.0833,445.4659,433.2486,444.0998,431.8824,443.216,430.9987,442.3911,430.1737,441.2238,429.0064,440.2365,428.0192,440.2569,428.0396,441.2398,426.9968,442.3155,426.0468,443.3464,425.0521,444.4626,424.1426,445.3007,422.955" style="stroke:#00BFFF;stroke-width:1.266;"/><text fill="#000000" font-family="sans-serif" font-size="16.4585" lengthAdjust="spacing" textLength="407.1173" x="440.2365" y="381.7898">Salva os 10s de buffer pr&#233;-falha e continua gravando</text><text fill="#000000" font-family="sans-serif" font-size="16.4585" lengthAdjust="spacing" textLength="200.9418" x="440.2365" y="404.2063">por 5 segundos p&#243;s-falha;</text></g><g class="message" data-participant-1="EDGE" data-participant-2="EDGE"><path d="M431.3743,468.1602 L431.3743,468.2784 L442.009,467.9271 L452.6437,468.2689 L463.2784,468.3851 L473.9131,467.7588 L484.5478,468.1602" fill="none" style="stroke:#00BFFF;stroke-width:1.266;stroke-dasharray:2.5321,2.5321;"/><path d="M484.5478,468.1602 L484.6661,468.1602 L484.3147,471.4519 L484.6566,474.7436 L484.7727,478.0353 L484.1464,481.327 L484.5478,484.6187" fill="none" style="stroke:#00BFFF;stroke-width:1.266;stroke-dasharray:2.5321,2.5321;"/><path d="M432.6403,484.6187 L432.6403,484.7369 L443.0218,484.3855 L453.4033,484.7274 L463.7848,484.8436 L474.1663,484.2172 L484.5478,484.6187" fill="none" style="stroke:#00BFFF;stroke-width:1.266;stroke-dasharray:2.5321,2.5321;"/><polygon fill="#00BFFF" points="445.3007,479.5545,445.3336,479.6369,442.7037,480.405,440.2668,481.6559,437.7671,482.7496,435.0606,483.3263,432.6403,484.6187,432.6281,484.5882,435.1056,485.4644,437.6444,486.4941,440.2259,487.6304,442.6603,488.3991,445.3007,489.6828,445.4659,489.848,444.0998,488.4819,443.216,487.5981,442.3911,486.7732,441.2238,485.6059,440.2365,484.6187,440.2569,484.639,441.2398,483.5963,442.3155,482.6463,443.3464,481.6515,444.4626,480.7421,445.3007,479.5545" style="stroke:#00BFFF;stroke-width:1.266;"/><text fill="#000000" font-family="sans-serif" font-size="16.4585" lengthAdjust="spacing" textLength="204.8095" x="440.2365" y="460.8058">Codifica clipe salvo (H.264)</text></g><g class="message" data-participant-1="EDGE" data-participant-2="EDGE"><path d="M431.3743,524.7597 L431.3743,524.8779 L442.009,524.5265 L452.6437,524.8684 L463.2784,524.9845 L473.9131,524.3582 L484.5478,524.7597" fill="none" style="stroke:#00BFFF;stroke-width:1.266;stroke-dasharray:2.5321,2.5321;"/><path d="M484.5478,524.7597 L484.6661,524.7597 L484.3147,528.0513 L484.6566,531.343 L484.7727,534.6347 L484.1464,537.9264 L484.5478,541.2181" fill="none" style="stroke:#00BFFF;stroke-width:1.266;stroke-dasharray:2.5321,2.5321;"/><path d="M432.6403,541.2181 L432.6403,541.3364 L443.0218,540.985 L453.4033,541.3269 L463.7848,541.443 L474.1663,540.8167 L484.5478,541.2181" fill="none" style="stroke:#00BFFF;stroke-width:1.266;stroke-dasharray:2.5321,2.5321;"/><polygon fill="#00BFFF" points="445.3007,536.154,445.3336,536.2363,442.7037,537.0045,440.2668,538.2554,437.7671,539.3491,435.0606,539.9258,432.6403,541.2181,432.6281,541.1877,435.1056,542.0639,437.6444,543.0935,440.2259,544.2299,442.6603,544.9986,445.3007,546.2823,445.4659,546.4475,444.0998,545.0814,443.216,544.1976,442.3911,543.3727,441.2238,542.2054,440.2365,541.2181,440.2569,541.2385,441.2398,540.1958,442.3155,539.2457,443.3464,538.251,444.4626,537.3416,445.3007,536.154" style="stroke:#00BFFF;stroke-width:1.266;"/><text fill="#000000" font-family="sans-serif" font-size="16.4585" lengthAdjust="spacing" textLength="281.5719" x="440.2365" y="517.4052">Prepara para disponibiliza&#231;&#227;o (RTSP)</text></g><g class="message" data-participant-1="EDGE" data-participant-2="MDC"><polygon fill="#00BFFF" points="845.3029,576.295,845.3358,576.3773,847.77,577.1455,850.3973,578.3964,852.9617,579.4901,855.3193,580.0668,857.9632,581.3591,857.951,581.3287,855.3643,582.2048,852.839,583.2345,850.3563,584.3709,847.7266,585.1395,845.3029,586.4233,845.4681,586.5885,846.1276,585.2224,847.2695,584.3386,848.4702,583.5137,849.3286,582.3464,850.367,581.3591,850.3874,581.3795,849.3446,580.3368,848.3946,579.3867,847.3999,578.392,846.4905,577.4826,845.3029,576.295" style="stroke:#00BFFF;stroke-width:1.266;"/><path d="M431.3743,581.3591 L431.3743,581.7139 L444.1478,580.6597 L456.9212,581.6854 L469.6947,582.0338 L482.4682,580.1549 L495.2417,581.2279 L508.0152,580.6392 L520.7886,580.7118 L533.5621,581.2441 L546.3356,580.1921 L559.1091,582.2937 L571.8826,580.2952 L584.656,581.0253 L597.4295,582.0883 L610.203,581.2143 L622.9765,581.4743 L635.7499,581.3052 L648.5234,581.6605 L661.2969,581.7628 L674.0704,582.3478 L686.8439,582.4919 L699.6173,582.5057 L712.3908,581.7889 L725.1643,582.1417 L737.9378,582.5445 L750.7113,580.1417 L763.4847,582.5045 L776.2582,580.8586 L789.0317,582.2602 L801.8052,580.5235 L814.5786,581.2435 L827.3521,582.611 L840.1256,581.2769 L852.8991,581.3591" fill="none" style="stroke:#00BFFF;stroke-width:1.266;"/><text fill="#000000" font-family="sans-serif" font-size="16.4585" lengthAdjust="spacing" textLength="222.6505" x="440.2365" y="574.0047">Inicia stream de v&#237;deo (RTSP)</text></g><text fill="#1E90FF" font-family="Arial" font-size="17.7245" font-weight="bold" lengthAdjust="spacing" textLength="201.6334" x="37.9811" y="649.682">Casos de Uso cobertos:</text><text fill="#1E90FF" font-family="Arial" font-size="17.7245" lengthAdjust="spacing" textLength="5.7073" x="37.9811" y="673.8227">-</text><text fill="#1E90FF" font-family="Arial" font-size="17.7245" font-weight="bold" lengthAdjust="spacing" textLength="64.127" x="48.2967" y="673.8227">MC-007</text><text fill="#1E90FF" font-family="Arial" font-size="17.7245" lengthAdjust="spacing" textLength="343.3581" x="112.4238" y="673.8227">: Captura de V&#237;deo para An&#225;lise de Falhas</text><text fill="#1E90FF" font-family="Arial" font-size="17.7245" lengthAdjust="spacing" textLength="5.7073" x="37.9811" y="697.9634">-</text><text fill="#1E90FF" font-family="Arial" font-size="17.7245" font-weight="bold" lengthAdjust="spacing" textLength="71.9967" x="48.2967" y="697.9634">EDG-005</text><text fill="#1E90FF" font-family="Arial" font-size="17.7245" lengthAdjust="spacing" textLength="559.6673" x="120.2934" y="697.9634">: An&#225;lise de V&#237;deo em Tempo Real (Pr&#233;-requisito para acionamento)</text><polygon fill="none" points="101.6115,31.6509,101.6115,31.917,114.2123,31.1264,126.8132,31.8956,139.4141,32.1569,152.0149,30.7477,164.6158,31.5525,177.2166,31.111,189.8175,31.1654,202.4183,31.5646,215.0192,30.7756,227.6201,32.3519,240.2209,30.853,252.8218,31.4005,265.4226,32.1978,278.0235,31.5423,290.6244,31.7373,303.2252,31.6105,315.8261,31.8769,328.4269,31.9537,341.0278,32.3924,353.6286,32.5005,366.2295,32.5109,378.8304,31.9733,391.4312,32.2378,404.0321,32.54,416.6329,30.7379,429.2338,32.5099,441.8347,31.2755,454.4355,32.3268,467.0364,31.0242,479.6372,31.5642,492.2381,32.5898,504.8389,31.5892,517.4398,31.7842,530.0407,32.0796,542.6415,32.1779,555.2424,31.646,567.8432,32.0145,580.4441,30.9262,593.045,32.011,605.6458,32.345,618.2467,32.2137,630.8475,32.427,643.4484,31.0393,656.0492,30.8252,668.6501,30.8642,681.251,31.5764,693.8518,31.4021,706.4527,32.5136,719.0535,31.4298,731.6544,31.2166,744.2553,31.9399,756.8561,30.8067,769.457,30.9937,782.0578,32.4725,794.6587,32.2025,807.2595,32.5808,819.8604,31.2435,832.4613,32.055,845.0621,32.3984,857.663,31.6509,857.5867,31.4667,858.9903,32.1698,860.369,32.8125,861.7967,33.5737,863.0336,33.8742,864.3772,34.432,864.5575,34.5067,864.7175,35.6854,865.2255,37.0083,866.2422,38.5419,866.3225,39.6876,867.1583,41.1462,867.8026,41.1462,867.4199,54.3738,866.8191,67.6013,866.7104,80.8288,867.7391,94.0564,867.1583,107.2839,867.0416,107.2356,866.8328,108.7224,865.8303,109.8803,865.7303,111.4122,865.1222,112.7335,864.3772,113.9981,864.4167,114.0936,863.0419,114.5727,861.8088,115.3939,860.4477,115.906,859.0332,116.289,857.663,116.7792,857.663,117.1188,845.0621,116.6143,832.4613,117.6863,819.8604,116.9753,807.2595,116.9977,794.6587,116.009,782.0578,116.2662,769.457,117.4512,756.8561,117.3233,744.2553,116.7249,731.6544,116.3713,719.0535,116.502,706.4527,115.9105,693.8518,117.3043,681.251,117.7155,668.6501,117.4457,656.0492,117.659,643.4484,116.6061,630.8475,116.8896,618.2467,116.2885,605.6458,117.1388,593.045,117.0916,580.4441,117.4786,567.8432,116.4885,555.2424,116.6091,542.6415,117.3407,530.0407,117.4975,517.4398,116.1303,504.8389,116.5338,492.2381,116.9682,479.6372,116.0059,467.0364,117.2266,454.4355,117.1058,441.8347,116.6517,429.2338,116.9593,416.6329,117.7018,404.0321,116.3831,391.4312,117.178,378.8304,117.1409,366.2295,116.9258,353.6286,116.9576,341.0278,116.9229,328.4269,115.989,315.8261,116.2718,303.2252,116.1949,290.6244,116.86,278.0235,116.8908,265.4226,116.984,252.8218,116.4108,240.2209,116.6937,227.6201,116.627,215.0192,117.5095,202.4183,117.3193,189.8175,116.1645,177.2166,116.6869,164.6158,116.0484,152.0149,117.1443,139.4141,117.5496,126.8132,117.4687,114.2123,116.2278,101.6115,116.7792,101.6864,116.9601,100.1487,115.9334,98.9581,115.7448,97.5346,114.9939,96.2558,114.592,94.8973,113.9981,94.991,114.0369,94.5252,112.7315,93.5042,111.1962,93.414,110.0464,92.7419,108.6556,92.1162,107.2839,92.5661,107.2839,93.0629,94.0564,92.1231,80.8288,92.3381,67.6013,92.3864,54.3738,92.1162,41.1462,92.1931,41.1781,92.6721,39.8032,93.5057,38.5753,93.5471,37.0192,94.5615,35.8662,94.8973,34.432,94.7965,34.1887,96.1529,33.6651,97.5894,33.3352,98.9304,32.7744,100.1891,32.015,101.6115,31.6509" style="stroke:#000000;stroke-width:1.266;"/><text fill="#1E90FF" font-family="Arial" font-size="25.3207" font-weight="bold" lengthAdjust="spacing" textLength="724.4006" x="117.4369" y="84.0395">Diagrama de Sequ&#234;ncia - M&#243;dulo de Controle (MC) - Video</text><!--SRC=[PLAzRjim4Dxv5DTCjb0bRj6qG0e4S2MdxH30Y99CMSxIsI50aIf9UUZRj1sA1F2KH-2BzKZPJXelbYL-ltTy8tMj-eQWd5rKnrtVAY4wj5xMiaFjuUYok3a2TC3F_mwAyBibYw_0uQdfbO5Piw8xFVhIBvTaJwwkgpbKPDTanqbhLdwTlIAMnKbLJCifiwOw_5BI4LnHQpmE50O8iVM4_3n9m1dCz5eQg8tsOQDx0rp4UKlOnd_hi6d8Y7jjF85XzrtejtjwVBIS83oqi4XfOVHkug2puI5Vehh7iH1S_OKbG2KrAlaJuI82eB1XmqqGIl9KUsnG96Z-pAbGhH6CWwZDoRPMpov0gOJKFSBAuXfrO-1ETyR2AJXQzVpEgSAJ6_2V3omAqyXbJ54hsV4KsD70wDln-uyVnWVWkIKUFqBwQQJhZ9OB6Jk5l-4Fy-BAkFd0Eu_JPzPtpVl2Wm7lqOfMf1lmfXEGPQL4Rj9Y15Rqem-FEh9ps5qI_bvmPsiKmUYo6FFHhMIzB1DHPb0JOcbuVLO0InReJ9hVZOjBNv3rnfqndfUIy_bbaKycdxACfu6TxstolXr2fghxgyNVq_BSZifDcNiQkIz1MpArS4rjP_XAeeBHFExDSYVffDzAOosDnfQqD-EKVyWD8Fu1]--></g></svg>