<svg xmlns="http://www.w3.org/2000/svg" xmlns:xlink="http://www.w3.org/1999/xlink" contentStyleType="text/css" data-diagram-type="SEQUENCE" height="750.3493px" preserveAspectRatio="none" style="width:1708px;height:750px;background:#EEEBDC;" version="1.1" viewBox="0 0 1708 750" width="1708.0516px" zoomAndPan="magnify"><defs/><g><rect fill="#EEEBDC" height="750.3493" style="stroke:none;stroke-width:1.4917;" width="1708.0516" x="0" y="0"/><g><title>IHM</title><polygon fill="#A9DCDF" points="631.5272,343.2511,631.5272,343.3557,634.5107,343.0451,637.4942,343.3473,640.4777,343.4499,643.4612,342.8964,646.4447,343.2511,646.3288,343.2511,645.8085,357.9519,645.8726,372.6526,646.3431,387.3534,645.4134,402.0541,647.2706,416.7549,645.5045,431.4556,646.1497,446.1564,647.0891,460.8571,646.3168,475.5579,646.5465,490.2586,646.3971,504.9593,646.711,519.6601,646.8015,534.3608,647.3184,549.0616,647.4458,563.7623,647.458,578.4631,646.4447,593.1638,646.4447,593.2904,643.4612,593.3943,640.4777,593.513,637.4942,592.8052,634.5107,593.5012,631.5272,593.1638,631.0849,593.1638,632.3236,578.4631,630.7888,563.7623,631.4251,549.0616,632.6335,534.3608,631.4545,519.6601,631.6843,504.9593,632.0324,490.2586,632.1482,475.5579,631.5214,460.8571,631.9557,446.1564,630.6733,431.4556,631.9515,416.7549,632.345,402.0541,632.1904,387.3534,632.4417,372.6526,630.8066,357.9519,631.5272,343.2511" style="stroke:#181818;stroke-width:1.4917;"/></g><g><title>Sistema</title><polygon fill="#A9DCDF" points="1153.6455,390.5485,1153.6455,390.653,1156.6289,390.3425,1159.6124,390.6446,1162.5959,390.7473,1165.5794,390.1938,1168.5629,390.5485,1168.447,390.5485,1167.9267,405.0211,1167.9908,419.4936,1168.4613,433.9661,1167.5316,448.4386,1169.3888,462.9111,1167.6227,477.3837,1168.2679,491.8562,1169.2073,506.3287,1168.435,520.8012,1168.6647,535.2737,1168.5153,549.7463,1168.8292,564.2188,1168.9197,578.6913,1168.5629,593.1638,1168.5629,593.4551,1165.5794,593.4975,1162.5959,593.5016,1159.6124,593.2904,1156.6289,593.3943,1153.6455,593.1638,1154.693,593.1638,1152.5696,578.6913,1154.6576,564.2188,1153.2031,549.7463,1154.4418,535.2737,1152.907,520.8012,1153.5433,506.3287,1154.7517,491.8562,1153.5728,477.3837,1153.8025,462.9111,1154.1506,448.4386,1154.2664,433.9661,1153.6396,419.4936,1154.0739,405.0211,1153.6455,390.5485" style="stroke:#181818;stroke-width:1.4917;"/></g><g><title>Banco de Dados</title><polygon fill="#A9DCDF" points="1615.8207,437.8459,1615.8207,437.9504,1618.8042,437.6399,1621.7877,437.942,1624.7712,438.0447,1627.7547,437.4912,1630.7382,437.8459,1630.6222,437.8459,1630.1019,453.3777,1630.1661,468.9095,1630.6365,484.4413,1629.7068,499.9731,1631.564,515.5049,1629.7979,531.0367,1630.4431,546.5685,1631.3825,562.1002,1630.6102,577.632,1630.7382,593.1638,1630.7382,593.1978,1627.7547,593.1479,1624.7712,593.2526,1621.7877,593.2827,1618.8042,593.4551,1615.8207,593.1638,1616.8217,593.1638,1616.834,577.632,1616.2005,562.1002,1616.5122,546.5685,1616.8682,531.0367,1614.7448,515.5049,1616.8328,499.9731,1615.3784,484.4413,1616.617,468.9095,1615.0822,453.3777,1615.8207,437.8459" style="stroke:#181818;stroke-width:1.4917;"/></g><g><title>Supervisor</title><polygon fill="#000000" fill-opacity="0.00000" points="69.6451,292.9703,69.6451,293.0748,72.0319,292.7642,74.4187,293.0664,76.8055,293.169,79.1923,292.6155,81.5791,292.9703,81.4631,292.9703,80.9429,307.9045,81.007,322.8388,81.4774,337.773,80.5477,352.7073,82.405,367.6415,80.6389,382.5758,81.2841,397.51,82.2234,412.4443,81.4511,427.3785,81.6809,442.3128,81.5314,457.247,81.8454,472.1813,81.9358,487.1155,82.4528,502.0498,82.5801,516.984,82.5924,531.9183,81.9589,546.8525,82.2706,561.7868,82.6266,576.721,80.5032,591.6553,81.5791,606.5896,81.5791,606.9269,79.1923,606.4421,76.8055,606.855,74.4187,606.3434,72.0319,606.5555,69.6451,606.5896,70.7514,606.5896,69.5724,591.6553,69.8022,576.721,70.1502,561.7868,70.266,546.8525,69.6393,531.9183,70.0735,516.984,68.7912,502.0498,70.0693,487.1155,70.4629,472.1813,70.3082,457.247,70.5596,442.3128,68.9245,427.3785,68.6722,412.4443,68.7181,397.51,69.5573,382.5758,69.3519,367.6415,70.6616,352.7073,69.3845,337.773,69.1333,322.8388,69.9856,307.9045,69.6451,292.9703"/><path d="M74.5874,292.9703 L75.0055,292.9703 L73.7633,307.9045 L74.9719,322.8388 L75.3824,337.773 L73.1685,352.7073 L74.4328,367.6415 L73.7391,382.5758 L73.8246,397.51 L74.4518,412.4443 L73.2123,427.3785 L75.6886,442.3128 L73.3338,457.247 L74.194,472.1813 L75.4465,487.1155 L74.4168,502.0498 L74.7231,516.984 L74.5239,531.9183 L74.9425,546.8525 L75.063,561.7868 L75.7523,576.721 L75.9221,591.6553 L74.5874,606.5896" fill="none" style="stroke:#0000FF;stroke-width:0.7459;stroke-dasharray:7.4587,7.4587;"/></g><g><title>IHM</title><polygon fill="#000000" fill-opacity="0.00000" points="633.019,292.9703,633.019,293.0748,635.4058,292.7642,637.7926,293.0664,640.1794,293.169,642.5662,292.6155,644.953,292.9703,644.8371,292.9703,644.3168,307.9045,644.3809,322.8388,644.8513,337.773,643.9216,352.7073,645.7789,367.6415,644.0128,382.5758,644.658,397.51,645.5973,412.4443,644.825,427.3785,645.0548,442.3128,644.9053,457.247,645.2193,472.1813,645.3097,487.1155,645.8267,502.0498,645.954,516.984,645.9663,531.9183,645.3328,546.8525,645.6445,561.7868,646.0005,576.721,643.8772,591.6553,644.953,606.5896,644.953,606.9269,642.5662,606.4421,640.1794,606.855,637.7926,606.3434,635.4058,606.5555,633.019,606.5896,634.1253,606.5896,632.9463,591.6553,633.1761,576.721,633.5241,561.7868,633.6399,546.8525,633.0132,531.9183,633.4474,516.984,632.1651,502.0498,633.4432,487.1155,633.8368,472.1813,633.6821,457.247,633.9335,442.3128,632.2984,427.3785,632.0461,412.4443,632.092,397.51,632.9312,382.5758,632.7258,367.6415,634.0355,352.7073,632.7584,337.773,632.5072,322.8388,633.3595,307.9045,633.019,292.9703"/><path d="M638.2401,292.9703 L638.6582,292.9703 L637.416,307.9045 L638.6246,322.8388 L639.0351,337.773 L636.8212,352.7073 L638.0855,367.6415 L637.3918,382.5758 L637.4773,397.51 L638.1046,412.4443 L636.865,427.3785 L639.3413,442.3128 L636.9865,457.247 L637.8468,472.1813 L639.0993,487.1155 L638.0695,502.0498 L638.3758,516.984 L638.1766,531.9183 L638.5952,546.8525 L638.7158,561.7868 L639.405,576.721 L639.5748,591.6553 L638.2401,606.5896" fill="none" style="stroke:#0000FF;stroke-width:0.7459;stroke-dasharray:7.4587,7.4587;"/></g><g><title>Sistema</title><polygon fill="#000000" fill-opacity="0.00000" points="1155.1372,292.9703,1155.1372,293.0748,1157.524,292.7642,1159.9108,293.0664,1162.2976,293.169,1164.6844,292.6155,1167.0712,292.9703,1166.9553,292.9703,1166.435,307.9045,1166.4991,322.8388,1166.9695,337.773,1166.0398,352.7073,1167.8971,367.6415,1166.131,382.5758,1166.7762,397.51,1167.7155,412.4443,1166.9432,427.3785,1167.173,442.3128,1167.0235,457.247,1167.3375,472.1813,1167.4279,487.1155,1167.9449,502.0498,1168.0722,516.984,1168.0845,531.9183,1167.451,546.8525,1167.7627,561.7868,1168.1187,576.721,1165.9954,591.6553,1167.0712,606.5896,1167.0712,606.9269,1164.6844,606.4421,1162.2976,606.855,1159.9108,606.3434,1157.524,606.5555,1155.1372,606.5896,1156.2435,606.5896,1155.0645,591.6553,1155.2943,576.721,1155.6423,561.7868,1155.7581,546.8525,1155.1314,531.9183,1155.5656,516.984,1154.2833,502.0498,1155.5614,487.1155,1155.955,472.1813,1155.8003,457.247,1156.0517,442.3128,1154.4166,427.3785,1154.1643,412.4443,1154.2102,397.51,1155.0494,382.5758,1154.844,367.6415,1156.1537,352.7073,1154.8766,337.773,1154.6254,322.8388,1155.4777,307.9045,1155.1372,292.9703"/><path d="M1159.6887,292.9703 L1160.1067,292.9703 L1158.8646,307.9045 L1160.0731,322.8388 L1160.4836,337.773 L1158.2697,352.7073 L1159.5341,367.6415 L1158.8404,382.5758 L1158.9259,397.51 L1159.5531,412.4443 L1158.3135,427.3785 L1160.7899,442.3128 L1158.435,457.247 L1159.2953,472.1813 L1160.5478,487.1155 L1159.5181,502.0498 L1159.8244,516.984 L1159.6251,531.9183 L1160.0438,546.8525 L1160.1643,561.7868 L1160.8536,576.721 L1161.0234,591.6553 L1159.6887,606.5896" fill="none" style="stroke:#0000FF;stroke-width:0.7459;stroke-dasharray:7.4587,7.4587;"/></g><g><title>Banco de Dados</title><polygon fill="#000000" fill-opacity="0.00000" points="1617.3124,292.9703,1617.3124,293.0748,1619.6992,292.7642,1622.086,293.0664,1624.4728,293.169,1626.8596,292.6155,1629.2464,292.9703,1629.1305,292.9703,1628.6102,307.9045,1628.6743,322.8388,1629.1447,337.773,1628.2151,352.7073,1630.0723,367.6415,1628.3062,382.5758,1628.9514,397.51,1629.8908,412.4443,1629.1185,427.3785,1629.3482,442.3128,1629.1988,457.247,1629.5127,472.1813,1629.6031,487.1155,1630.1201,502.0498,1630.2475,516.984,1630.2597,531.9183,1629.6262,546.8525,1629.938,561.7868,1630.294,576.721,1628.1706,591.6553,1629.2464,606.5896,1629.2464,606.9269,1626.8596,606.4421,1624.4728,606.855,1622.086,606.3434,1619.6992,606.5555,1617.3124,606.5896,1618.4187,606.5896,1617.2397,591.6553,1617.4695,576.721,1617.8176,561.7868,1617.9333,546.8525,1617.3066,531.9183,1617.7409,516.984,1616.4585,502.0498,1617.7367,487.1155,1618.1302,472.1813,1617.9756,457.247,1618.2269,442.3128,1616.5918,427.3785,1616.3395,412.4443,1616.3855,397.51,1617.2246,382.5758,1617.0193,367.6415,1618.3289,352.7073,1617.0518,337.773,1616.8007,322.8388,1617.6529,307.9045,1617.3124,292.9703"/><path d="M1622.95,292.9703 L1623.3681,292.9703 L1622.126,307.9045 L1623.3345,322.8388 L1623.745,337.773 L1621.5311,352.7073 L1622.7955,367.6415 L1622.1018,382.5758 L1622.1873,397.51 L1622.8145,412.4443 L1621.5749,427.3785 L1624.0512,442.3128 L1621.6964,457.247 L1622.5567,472.1813 L1623.8092,487.1155 L1622.7794,502.0498 L1623.0858,516.984 L1622.8865,531.9183 L1623.3051,546.8525 L1623.4257,561.7868 L1624.115,576.721 L1624.2848,591.6553 L1622.95,606.5896" fill="none" style="stroke:#0000FF;stroke-width:0.7459;stroke-dasharray:7.4587,7.4587;"/></g><g class="participant participant-head" data-participant="Supervisor"><text fill="#1E90FF" font-family="Aapex" font-size="25.3597" lengthAdjust="spacing" textLength="127.3562" x="7.4587" y="285.5399">Supervisor</text><polygon fill="#00BFFF" points="87.612,184.5082,85.8627,186.8984,83.7936,190.3993,80.8344,192.7587,77.7248,194.0488,75.2454,194.1608,72.0587,192.5473,69.0518,191.4931,66.7696,189.3529,65.5724,186.9027,64.8625,184.9518,64.1669,182.4035,63.038,180.2107,63.9055,178.0697,64.6656,175.7243,67.5179,173.8694,69.5246,171.4627,72.0084,170.6635,74.9613,169.9752,78.7479,170.3841,80.8219,171.3623,83.2332,171.8056,86.1652,174.8095,87.1872,177.9806,87.6313,180.1444,87.1283,183.71" style="stroke:#00BFFF;stroke-width:0.7459;"/><path d="M75.6121,193.5394 L75.8908,193.5394 L75.0627,201.5948 L75.8684,209.6502 L76.1421,217.7057 L74.6661,225.7611 L75.6121,233.8166 M56.2194,205.4733 L56.2194,205.3703 L63.9764,204.9078 L71.7335,204.9648 L79.4906,205.383 L87.2477,204.5566 L95.0048,205.4733 M75.6121,233.8166 L76.1669,234.2974 L71.102,237.7444 L67.6568,242.5953 L64.4093,247.6174 L60.012,251.643 L56.2194,256.1928 M75.6121,233.8166 L75.6805,233.8758 L79.4586,238.2641 L83.5481,242.9221 L87.4873,247.45 L91.7131,252.2262 L95.0048,256.1928" fill="none" style="stroke:#00BFFF;stroke-width:0.7459;"/></g><g class="participant participant-head" data-participant="IHM"><text fill="#000000" font-family="sans-serif" font-size="20.8845" lengthAdjust="spacing" textLength="41.4973" x="613.7621" y="286.8511">IHM</text><path d="M608.4052,222.7568 L608.6839,222.7568 L607.8558,229.9172 L608.6614,237.0776 L608.9351,244.238 L607.4592,251.3983 L608.4052,258.5587 M608.4052,240.6578 L608.4052,240.5547 L613.4771,240.0922 L618.549,240.1492 L623.621,240.5674 L628.6929,239.741 L633.7649,240.6578" fill="none" style="stroke:#181818;stroke-width:0.7459;"/><polygon fill="#E2E2F0" points="669.6657,245.012,667.0417,248.5973,663.9381,253.8487,659.4993,257.3877,654.8349,259.323,651.1158,259.4909,646.3357,257.0706,641.8255,255.4894,638.4021,252.279,636.6063,248.6038,635.5414,245.6774,634.4981,241.855,632.8047,238.5657,634.106,235.3542,635.2461,231.8362,639.5246,229.0538,642.5347,225.4437,646.2604,224.2449,650.6896,223.2125,656.3696,223.8259,659.4806,225.2931,663.0976,225.9581,667.4955,230.4639,669.0286,235.2207,669.6947,238.4663,668.9402,243.8146" style="stroke:#181818;stroke-width:0.7459;"/></g><g class="participant participant-head" data-participant="Sistema"><text fill="#000000" font-family="sans-serif" font-size="20.8845" lengthAdjust="spacing" textLength="77.4185" x="1117.9197" y="286.8511">Sistema</text><polygon fill="#E2E2F0" points="1179.1041,245.012,1176.4801,248.5973,1173.3765,253.8487,1168.9377,257.3877,1164.2733,259.323,1160.5542,259.4909,1155.7741,257.0706,1151.2638,255.4894,1147.8404,252.279,1146.0447,248.6038,1144.9798,245.6774,1143.9365,241.855,1142.2431,238.5657,1143.5443,235.3542,1144.6844,231.8362,1148.9629,229.0538,1151.973,225.4437,1155.6987,224.2449,1160.128,223.2125,1165.8079,223.8259,1168.9189,225.2931,1172.5359,225.9581,1176.9338,230.4639,1178.4669,235.2207,1179.133,238.4663,1178.3786,243.8146" style="stroke:#181818;stroke-width:0.7459;"/><polygon fill="#181818" points="1155.1372,222.7568,1155.2041,222.8371,1156.7954,221.1068,1158.7789,219.8471,1160.6347,218.4342,1162.0705,216.5173,1164.0877,215.298,1164.0518,215.2837,1163.2941,216.711,1162.7172,218.2107,1162.2661,219.7607,1161.3817,221.1374,1161.1042,222.7568,1161.3598,222.859,1161.4099,224.1321,1162.2063,225.7038,1163.0937,227.3118,1163.4514,228.7079,1164.0877,230.2155,1164.1094,230.2416,1162.2874,228.7116,1160.5643,227.3002,1158.7935,225.8316,1157.1137,224.4723,1155.1372,222.7568" style="stroke:#181818;stroke-width:1.4917;"/></g><g class="participant participant-head" data-participant="DB"><text fill="#000000" font-family="sans-serif" font-size="20.8845" lengthAdjust="spacing" textLength="158.784" x="1539.4122" y="286.8511">Banco de Dados</text><path d="M1596.4279,210.8228 L1596.4279,210.8228 L1596.5251,210.9227 L1598.9216,208.0153 L1601.8876,205.6936 L1604.6681,203.1811 L1606.8388,200.0414 L1609.8537,197.77 L1609.8466,197.719 L1612.4999,197.117 L1615.189,196.7723 L1617.9029,196.6064 L1620.5312,195.8242 L1623.2794,195.9053 L1623.2794,195.9053 L1623.3299,196.2689 L1625.9071,195.8643 L1628.6317,196.5213 L1631.3743,197.3078 L1634.0122,197.3407 L1636.7051,197.77 L1636.7367,197.8024 L1639.3755,200.3654 L1642.1579,203.076 L1644.8711,205.7154 L1647.7164,208.4907 L1650.1309,210.8228 L1651.0207,210.8228 L1651.0316,218.5799 L1650.4685,226.337 L1650.7456,234.0941 L1651.062,241.8512 L1650.1309,249.6082 L1650.1309,249.6082 L1649.7976,249.2654 L1647.7593,252.5413 L1644.6236,254.6884 L1642.3221,257.6937 L1639.1615,259.8152 L1636.7051,262.661 L1636.6989,262.6161 L1634.0876,263.521 L1631.3304,263.3749 L1628.6593,263.849 L1625.9954,264.3752 L1623.2794,264.5257 L1623.2794,264.5257 L1623.3174,264.7991 L1620.5939,264.1502 L1617.9353,263.9685 L1615.1718,263.031 L1612.5648,263.2207 L1609.8537,262.661 L1610.107,262.9216 L1607.374,260.2618 L1604.7667,257.7313 L1601.575,254.5997 L1598.8117,251.9088 L1596.4279,249.6082 L1595.604,249.6082 L1596.3499,241.8512 L1596.1674,234.0941 L1597.3315,226.337 L1596.1963,218.5799 L1596.4279,210.8228" fill="#E2E2F0" style="stroke:#181818;stroke-width:0.7459;"/><path d="M1596.4279,210.8228 L1596.4279,210.8228 L1596.5251,210.9227 L1598.9216,213.2364 L1601.8876,216.1358 L1604.6681,218.8445 L1606.8388,220.9259 L1609.8537,223.8756 L1609.8466,223.8246 L1612.4999,223.9685 L1615.189,224.3696 L1617.9029,224.9496 L1620.5312,224.9133 L1623.2794,225.7403 L1623.2794,225.7403 L1623.3299,226.1039 L1625.9071,224.9534 L1628.6317,224.8645 L1631.3743,224.9051 L1634.0122,224.1922 L1636.7051,223.8756 L1636.7367,223.908 L1639.3755,221.2498 L1642.1579,218.7393 L1644.8711,216.1576 L1647.7164,213.7118 L1650.1309,210.8228" fill="none" style="stroke:#181818;stroke-width:0.7459;"/></g><g><title>IHM</title><polygon fill="#A9DCDF" points="631.5272,343.2511,631.5272,343.3557,634.5107,343.0451,637.4942,343.3473,640.4777,343.4499,643.4612,342.8964,646.4447,343.2511,646.3288,343.2511,645.8085,357.9519,645.8726,372.6526,646.3431,387.3534,645.4134,402.0541,647.2706,416.7549,645.5045,431.4556,646.1497,446.1564,647.0891,460.8571,646.3168,475.5579,646.5465,490.2586,646.3971,504.9593,646.711,519.6601,646.8015,534.3608,647.3184,549.0616,647.4458,563.7623,647.458,578.4631,646.4447,593.1638,646.4447,593.2904,643.4612,593.3943,640.4777,593.513,637.4942,592.8052,634.5107,593.5012,631.5272,593.1638,631.0849,593.1638,632.3236,578.4631,630.7888,563.7623,631.4251,549.0616,632.6335,534.3608,631.4545,519.6601,631.6843,504.9593,632.0324,490.2586,632.1482,475.5579,631.5214,460.8571,631.9557,446.1564,630.6733,431.4556,631.9515,416.7549,632.345,402.0541,632.1904,387.3534,632.4417,372.6526,630.8066,357.9519,631.5272,343.2511" style="stroke:#181818;stroke-width:1.4917;"/></g><g><title>Sistema</title><polygon fill="#A9DCDF" points="1153.6455,390.5485,1153.6455,390.653,1156.6289,390.3425,1159.6124,390.6446,1162.5959,390.7473,1165.5794,390.1938,1168.5629,390.5485,1168.447,390.5485,1167.9267,405.0211,1167.9908,419.4936,1168.4613,433.9661,1167.5316,448.4386,1169.3888,462.9111,1167.6227,477.3837,1168.2679,491.8562,1169.2073,506.3287,1168.435,520.8012,1168.6647,535.2737,1168.5153,549.7463,1168.8292,564.2188,1168.9197,578.6913,1168.5629,593.1638,1168.5629,593.4551,1165.5794,593.4975,1162.5959,593.5016,1159.6124,593.2904,1156.6289,593.3943,1153.6455,593.1638,1154.693,593.1638,1152.5696,578.6913,1154.6576,564.2188,1153.2031,549.7463,1154.4418,535.2737,1152.907,520.8012,1153.5433,506.3287,1154.7517,491.8562,1153.5728,477.3837,1153.8025,462.9111,1154.1506,448.4386,1154.2664,433.9661,1153.6396,419.4936,1154.0739,405.0211,1153.6455,390.5485" style="stroke:#181818;stroke-width:1.4917;"/></g><g><title>Banco de Dados</title><polygon fill="#A9DCDF" points="1615.8207,437.8459,1615.8207,437.9504,1618.8042,437.6399,1621.7877,437.942,1624.7712,438.0447,1627.7547,437.4912,1630.7382,437.8459,1630.6222,437.8459,1630.1019,453.3777,1630.1661,468.9095,1630.6365,484.4413,1629.7068,499.9731,1631.564,515.5049,1629.7979,531.0367,1630.4431,546.5685,1631.3825,562.1002,1630.6102,577.632,1630.7382,593.1638,1630.7382,593.1978,1627.7547,593.1479,1624.7712,593.2526,1621.7877,593.2827,1618.8042,593.4551,1615.8207,593.1638,1616.8217,593.1638,1616.834,577.632,1616.2005,562.1002,1616.5122,546.5685,1616.8682,531.0367,1614.7448,515.5049,1616.8328,499.9731,1615.3784,484.4413,1616.617,468.9095,1615.0822,453.3777,1615.8207,437.8459" style="stroke:#181818;stroke-width:1.4917;"/></g><g class="message" data-participant-1="Supervisor" data-participant-2="IHM"><polygon fill="#00BFFF" points="613.6263,337.2841,613.6651,337.3812,616.5333,338.2863,619.629,339.7602,622.6506,341.0489,625.4285,341.7284,628.5438,343.2511,628.5294,343.2153,625.4815,344.2476,622.5059,345.4609,619.5807,346.7999,616.4821,347.7055,613.6263,349.2181,613.8209,349.4128,614.5981,347.8031,615.9435,346.7618,617.3583,345.7898,618.3697,344.4144,619.5933,343.2511,619.6173,343.2751,618.3886,342.0465,617.2692,340.9271,616.0971,339.755,615.0256,338.6835,613.6263,337.2841" style="stroke:#00BFFF;stroke-width:1.4917;"/><path d="M75.6121,343.2511 L75.6121,343.6692 L90.3949,342.4271 L105.1777,343.6356 L119.9606,344.0461 L134.7434,341.8322 L149.5262,343.0966 L164.3091,342.4028 L179.0919,342.4884 L193.8747,343.1156 L208.6575,341.876 L223.4404,344.3523 L238.2232,341.9975 L253.006,342.8578 L267.7889,344.1103 L282.5717,343.0805 L297.3545,343.3869 L312.1373,343.1876 L326.9202,343.6062 L341.703,343.7268 L356.4858,344.4161 L371.2687,344.5859 L386.0515,344.6022 L400.8343,343.7576 L415.6172,344.1732 L430.4,344.6479 L445.1828,341.8167 L459.9656,344.6007 L474.7485,342.6614 L489.5313,344.3129 L504.3141,342.2665 L519.097,343.1149 L533.8798,344.7262 L548.6626,343.1542 L563.4454,343.4606 L578.2283,343.9247 L593.0111,344.079 L607.7939,343.2434 L622.5768,343.2511" fill="none" style="stroke:#00BFFF;stroke-width:1.4917;"/><text fill="#000000" font-family="sans-serif" font-size="19.3927" lengthAdjust="spacing" textLength="365.2623" x="86.0543" y="334.5856">Visualizar status da linha de produ&#231;&#227;o N</text></g><g class="message" data-participant-1="IHM" data-participant-2="Sistema"><polygon fill="#00BFFF" points="1135.7445,384.5815,1135.7833,384.6786,1138.6515,385.5837,1141.7472,387.0576,1144.7688,388.3463,1147.5467,389.0258,1150.662,390.5485,1150.6476,390.5127,1147.5997,391.545,1144.6241,392.7583,1141.6989,394.0973,1138.6003,395.0029,1135.7445,396.5155,1135.9391,396.7102,1136.7163,395.1005,1138.0617,394.0592,1139.4765,393.0872,1140.4879,391.7118,1141.7115,390.5485,1141.7355,390.5725,1140.5068,389.3439,1139.3874,388.2245,1138.2154,387.0524,1137.1438,385.9809,1135.7445,384.5815" style="stroke:#00BFFF;stroke-width:1.4917;"/><path d="M646.4447,390.5485 L646.4447,390.9666 L661.5432,389.7244 L676.6417,390.933 L691.7402,391.3435 L706.8387,389.1296 L721.9372,390.394 L737.0357,389.7002 L752.1342,389.7858 L767.2327,390.413 L782.3312,389.1734 L797.4296,391.6497 L812.5281,389.2949 L827.6266,390.1552 L842.7251,391.4077 L857.8236,390.3779 L872.9221,390.6843 L888.0206,390.485 L903.1191,390.9036 L918.2176,391.0242 L933.3161,391.7135 L948.4146,391.8833 L963.5131,391.8996 L978.6116,391.055 L993.71,391.4706 L1008.8085,391.9453 L1023.907,389.1141 L1039.0055,391.8981 L1054.104,389.9588 L1069.2025,391.6103 L1084.301,389.5639 L1099.3995,390.4123 L1114.498,392.0236 L1129.5965,390.4516 L1144.695,390.5485" fill="none" style="stroke:#00BFFF;stroke-width:1.4917;"/><text fill="#000000" font-family="sans-serif" font-size="19.3927" lengthAdjust="spacing" textLength="343.3485" x="656.887" y="381.883">Solicita dados da linha de produ&#231;&#227;o N</text></g><g class="message" data-participant-1="Sistema" data-participant-2="DB"><polygon fill="#00BFFF" points="1597.9197,431.8789,1597.9585,431.976,1600.8267,432.881,1603.9224,434.355,1606.944,435.6436,1609.7219,436.3232,1612.8372,437.8459,1612.8228,437.81,1609.7749,438.8424,1606.7994,440.0557,1603.8741,441.3946,1600.7755,442.3003,1597.9197,443.8129,1598.1144,444.0076,1598.8915,442.3979,1600.237,441.3566,1601.6518,440.3846,1602.6631,439.0092,1603.8867,437.8459,1603.9107,437.8699,1602.6821,436.6413,1601.5627,435.5219,1600.3906,434.3498,1599.319,433.2783,1597.9197,431.8789" style="stroke:#00BFFF;stroke-width:1.4917;"/><path d="M1168.5629,437.8459 L1168.5629,438.264 L1183.677,437.0218 L1198.791,438.2304 L1213.9051,438.6409 L1229.0191,436.427 L1244.1331,437.6913 L1259.2472,436.9976 L1274.3612,437.0831 L1289.4753,437.7104 L1304.5893,436.4708 L1319.7034,438.9471 L1334.8174,436.5923 L1349.9315,437.4526 L1365.0455,438.7051 L1380.1595,437.6753 L1395.2736,437.9816 L1410.3876,437.7824 L1425.5017,438.201 L1440.6157,438.3216 L1455.7298,439.0109 L1470.8438,439.1806 L1485.9578,439.197 L1501.0719,438.3524 L1516.1859,438.768 L1531.3,439.2427 L1546.414,436.4115 L1561.5281,439.1955 L1576.6421,437.2562 L1591.7561,438.9077 L1606.8702,437.8459" fill="none" style="stroke:#00BFFF;stroke-width:1.4917;"/><text fill="#000000" font-family="sans-serif" font-size="19.3927" lengthAdjust="spacing" textLength="358.9015" x="1179.0052" y="429.1804">Consulta dados da linha de produ&#231;&#227;o N</text></g><g class="message" data-participant-1="DB" data-participant-2="Sistema"><polygon fill="#00BFFF" points="1184.9722,479.1763,1185.011,479.2734,1181.9122,480.1784,1179.0409,481.6524,1176.0955,482.941,1172.9064,483.6205,1170.0547,485.1433,1170.0403,485.1074,1172.9594,486.1398,1175.9509,487.3531,1178.9926,488.692,1181.861,489.5977,1184.9722,491.1103,1185.1668,491.305,1183.5572,489.6953,1182.5158,488.654,1181.5438,487.682,1180.1684,486.3065,1179.0052,485.1433,1179.0292,485.1673,1180.1873,483.9387,1181.4547,482.8193,1182.6694,481.6472,1183.9847,480.5756,1184.9722,479.1763" style="stroke:#00BFFF;stroke-width:1.4917;"/><path d="M1176.0217,485.1433 L1176.0217,485.5614 L1191.1357,484.3192 L1206.2498,485.5278 L1221.3638,485.9383 L1236.4778,483.7244 L1251.5919,484.9887 L1266.7059,484.295 L1281.82,484.3805 L1296.934,485.0077 L1312.0481,483.7682 L1327.1621,486.2445 L1342.2761,483.8897 L1357.3902,484.75 L1372.5042,486.0025 L1387.6183,484.9727 L1402.7323,485.279 L1417.8464,485.0798 L1432.9604,485.4984 L1448.0745,485.6189 L1463.1885,486.3082 L1478.3025,486.478 L1493.4166,486.4944 L1508.5306,485.6498 L1523.6447,486.0654 L1538.7587,486.54 L1553.8728,483.7089 L1568.9868,486.4929 L1584.1008,484.5536 L1599.2149,486.2051 L1614.3289,485.1433" fill="none" style="stroke:#00BFFF;stroke-width:1.4917;stroke-dasharray:2.9835,2.9835;"/><text fill="#000000" font-family="sans-serif" font-size="19.3927" lengthAdjust="spacing" textLength="411.4558" x="1193.9226" y="476.4777">Retorna dados atuais da linha de produ&#231;&#227;o N</text></g><g class="message" data-participant-1="Sistema" data-participant-2="IHM"><polygon fill="#00BFFF" points="662.854,526.4737,662.8928,526.5707,659.7939,527.4758,656.9227,528.9497,653.9773,530.2384,650.7882,530.9179,647.9365,532.4407,647.9221,532.4048,650.8412,533.4372,653.8326,534.6504,656.8744,535.9894,659.7428,536.8951,662.854,538.4077,663.0486,538.6024,661.4389,536.9927,660.3976,535.9514,659.4256,534.9794,658.0502,533.6039,656.887,532.4407,656.911,532.4647,658.0691,531.2361,659.3365,530.1167,660.5512,528.9446,661.8665,527.873,662.854,526.4737" style="stroke:#00BFFF;stroke-width:1.4917;"/><path d="M653.9035,532.4407 L653.9035,532.8588 L669.002,531.6166 L684.1005,532.8251 L699.1989,533.2357 L714.2974,531.0218 L729.3959,532.2861 L744.4944,531.5924 L759.5929,531.6779 L774.6914,532.3051 L789.7899,531.0656 L804.8884,533.5419 L819.9869,531.1871 L835.0854,532.0473 L850.1839,533.2998 L865.2824,532.2701 L880.3808,532.5764 L895.4793,532.3772 L910.5778,532.7958 L925.6763,532.9163 L940.7748,533.6056 L955.8733,533.7754 L970.9718,533.7917 L986.0703,532.9472 L1001.1688,533.3628 L1016.2673,533.8374 L1031.3658,531.0063 L1046.4643,533.7903 L1061.5628,531.851 L1076.6612,533.5024 L1091.7597,531.4561 L1106.8582,532.3045 L1121.9567,533.9158 L1137.0552,532.3438 L1152.1537,532.4407" fill="none" style="stroke:#00BFFF;stroke-width:1.4917;stroke-dasharray:2.9835,2.9835;"/><text fill="#000000" font-family="sans-serif" font-size="19.3927" lengthAdjust="spacing" textLength="471.3988" x="671.8044" y="523.7751">Converte dados atuais para formato de visualiza&#231;&#227;o</text></g><g class="message" data-participant-1="IHM" data-participant-2="Supervisor"><polygon fill="#00BFFF" points="92.0213,573.7711,92.0601,573.8681,88.9613,574.7732,86.09,576.2471,83.1446,577.5358,79.9556,578.2153,77.1038,579.7381,77.0895,579.7022,80.0086,580.7346,83,581.9478,86.0417,583.2868,88.9101,584.1925,92.0213,585.7051,92.216,585.8997,90.6063,584.2901,89.565,583.2487,88.593,582.2768,87.2176,580.9013,86.0543,579.7381,86.0783,579.7621,87.2365,578.5335,88.5039,577.4141,89.7186,576.242,91.0338,575.1704,92.0213,573.7711" style="stroke:#00BFFF;stroke-width:1.4917;"/><path d="M83.0708,579.7381 L83.0708,580.1561 L97.8537,578.914 L112.6365,580.1225 L127.4193,580.533 L142.2021,578.3191 L156.985,579.5835 L171.7678,578.8898 L186.5506,578.9753 L201.3335,579.6025 L216.1163,578.363 L230.8991,580.8393 L245.6819,578.4845 L260.4648,579.3447 L275.2476,580.5972 L290.0304,579.5675 L304.8133,579.8738 L319.5961,579.6745 L334.3789,580.0932 L349.1617,580.2137 L363.9446,580.903 L378.7274,581.0728 L393.5102,581.0891 L408.2931,580.2445 L423.0759,580.6602 L437.8587,581.1348 L452.6416,578.3037 L467.4244,581.0876 L482.2072,579.1483 L496.99,580.7998 L511.7729,578.7535 L526.5557,579.6018 L541.3385,581.2131 L556.1214,579.6412 L570.9042,579.9475 L585.687,580.4116 L600.4698,580.566 L615.2527,579.7303 L630.0355,579.7381" fill="none" style="stroke:#00BFFF;stroke-width:1.4917;stroke-dasharray:2.9835,2.9835;"/><text fill="#000000" font-family="sans-serif" font-size="19.3927" lengthAdjust="spacing" textLength="520.1132" x="100.9718" y="571.0725">Exibe dados atuais da linha de produ&#231;&#227;o N no dashboard</text></g><text fill="#1E90FF" font-family="Arial" font-size="20.8845" font-weight="bold" lengthAdjust="spacing" textLength="237.5809" x="44.7524" y="660.2417">Casos de Uso cobertos:</text><text fill="#1E90FF" font-family="Arial" font-size="20.8845" lengthAdjust="spacing" textLength="6.7248" x="44.7524" y="688.6862">-</text><text fill="#1E90FF" font-family="Arial" font-size="20.8845" font-weight="bold" lengthAdjust="spacing" textLength="91.0142" x="56.9072" y="688.6862">MDC-002</text><text fill="#1E90FF" font-family="Arial" font-size="20.8845" lengthAdjust="spacing" textLength="232.9446" x="153.3513" y="688.6862">Monitoramento remoto</text><polygon fill="none" points="157.4646,37.2937,157.4646,37.6072,172.3389,36.6756,187.2132,37.582,202.0875,37.8899,216.9618,36.2295,231.8361,37.1778,246.7104,36.6575,261.5847,36.7216,276.459,37.192,291.3333,36.2624,306.2076,38.1196,321.0819,36.3535,335.9562,36.9987,350.8305,37.9381,365.7048,37.1657,380.5791,37.3955,395.4534,37.246,410.3277,37.56,425.202,37.6504,440.0763,38.1674,454.9506,38.2947,469.825,38.307,484.6993,37.6735,499.5736,37.9853,514.4479,38.3413,529.3222,36.2179,544.1965,38.3059,559.0708,36.8514,573.9451,38.09,588.8194,36.5553,603.6937,37.1915,618.568,38.4,633.4423,37.221,648.3166,37.4508,663.1909,37.7988,678.0652,37.9146,692.9395,37.2879,707.8138,37.7222,722.6881,36.4398,737.5624,37.7179,752.4367,38.1115,767.311,37.9568,782.1853,38.2082,797.0596,36.5731,811.9339,36.3208,826.8082,36.3667,841.6825,37.2059,856.5568,37.0005,871.4311,38.3102,886.3054,37.0331,901.1797,36.782,916.054,37.6342,930.9284,36.2989,945.8027,36.5193,960.677,38.2618,975.5513,37.9436,990.4256,38.3894,1005.2999,36.8137,1020.1742,37.7699,1035.0485,38.1745,1049.9228,36.589,1064.7971,37.1507,1079.6714,37.4816,1094.5457,38.266,1109.42,37.2875,1124.2943,37.9837,1139.1686,36.4676,1154.0429,36.2834,1168.9172,38.045,1183.7915,36.2242,1198.6658,38.0529,1213.5401,37.6019,1228.4144,36.894,1243.2887,36.766,1258.163,37.9781,1273.0373,36.8472,1287.9116,38.1766,1302.7859,36.4691,1317.6602,38.2147,1332.5345,38.0162,1347.4088,37.6591,1362.2831,37.3641,1377.1574,38.3776,1392.0318,38.209,1406.9061,37.5462,1421.7804,37.6938,1436.6547,37.0994,1451.529,38.3625,1466.4033,37.5247,1481.2776,37.5511,1496.1519,36.3862,1511.0262,36.6892,1525.9005,38.0854,1540.7748,37.9348,1555.6491,37.2937,1555.6409,37.274,1557.17,37.8011,1558.7719,38.5039,1560.2652,38.9446,1562.057,40.1058,1563.5603,40.5706,1563.9,40.7114,1564.4575,42.253,1565.1903,43.8673,1565.4636,45.2913,1566.2219,46.9162,1566.8372,48.4818,1566.259,48.4818,1567.2609,64.0676,1567.2053,79.6534,1567.6612,95.2391,1566.4946,110.8249,1566.8372,126.4107,1566.7755,126.3851,1566.3855,128.0773,1565.7871,129.6831,1564.6356,131.0599,1564.1266,132.7028,1563.5603,134.3219,1563.5887,134.3905,1561.8618,134.6966,1560.463,135.795,1558.8627,136.4066,1557.2122,136.8971,1555.6491,137.5988,1555.6491,137.811,1540.7748,138.6858,1525.9005,137.1321,1511.0262,138.0687,1496.1519,138.0249,1481.2776,137.7715,1466.4033,137.809,1451.529,137.7681,1436.6547,136.6677,1421.7804,137.0009,1406.9061,136.9103,1392.0318,137.694,1377.1574,137.7303,1362.2831,137.8401,1347.4088,137.1647,1332.5345,137.4981,1317.6602,137.4195,1302.7859,138.4593,1287.9116,138.2351,1273.0373,136.8745,1258.163,137.49,1243.2887,136.7377,1228.4144,138.029,1213.5401,138.5065,1198.6658,138.4112,1183.7915,136.9491,1168.9172,138.2909,1154.0429,136.4907,1139.1686,137.8974,1124.2943,137.1523,1109.42,137.7431,1094.5457,137.9573,1079.6714,138.3031,1064.7971,136.5249,1049.9228,138.3081,1035.0485,137.8646,1020.1742,138.1289,1005.2999,138.7143,990.4256,137.607,975.5513,137.8603,960.677,137.9172,945.8027,137.893,930.9284,137.5976,916.054,138.659,901.1797,136.6892,886.3054,138.4421,871.4311,136.668,856.5568,136.7928,841.6825,137.6585,826.8082,137.641,811.9339,136.8636,797.0596,138.216,782.1853,137.7612,767.311,138.6828,752.4367,138.594,737.5624,136.9301,722.6881,137.0052,707.8138,137.4061,692.9395,138.1292,678.0652,138.2,663.1909,138.0481,648.3166,137.0887,633.4423,138.5481,618.568,138.5443,603.6937,137.5283,588.8194,137.2422,573.9451,137,559.0708,137.2787,544.1965,137.8038,529.3222,137.4968,514.4479,136.9756,499.5736,138.3259,484.6993,136.9142,469.825,138.3482,454.9506,138.2361,440.0763,138.1535,425.202,138.6318,410.3277,137.232,395.4534,137.1503,380.5791,138.3728,365.7048,136.7084,350.8305,137.2497,335.9562,137.7711,321.0819,137.7013,306.2076,137.0641,291.3333,137.5347,276.459,138.7095,261.5847,138.5662,246.7104,136.7093,231.8361,137.7159,216.9618,136.8322,202.0875,137.5595,187.2132,138.0359,172.3389,138.2251,157.4646,137.5988,157.3381,137.2934,155.9586,137.1274,154.3017,136.2919,152.6122,135.3775,151.046,134.7609,149.5534,134.3219,149.7034,134.384,149.0128,132.7872,148.2351,131.1543,147.2785,129.4473,147.2342,128.1182,146.2765,126.4107,145.8113,126.4107,145.4887,110.8249,146.176,95.2391,147.1562,79.6534,147.1945,64.0676,146.2765,48.4818,146.2926,48.4885,146.8624,46.8708,147.6652,45.3496,148.3282,43.7705,148.6647,42.0562,149.5534,40.5706,149.6322,40.7608,151.242,40.172,152.6768,39.1607,154.2184,38.4073,156.0107,38.259,157.4646,37.2937" style="stroke:#000000;stroke-width:1.4917;"/><text fill="#1E90FF" font-family="Arial" font-size="29.835" font-weight="bold" lengthAdjust="spacing" textLength="1360.8908" x="176.1114" y="99.0222">Diagrama de Sequ&#234;ncia - M&#243;dulo de Dados e Conectividade (MDC) - Monitoramento Remoto</text><!--SRC=[bPAxJiD044Nx_Og12YmP8KeN58c3e0X58kZ7tY6ijDun-x20tw50ekKJycFCEWclWeSbozBix9axrtVFkDOcJL3FpfP7VUgiKfPMv3H4xXL0KTG6Lnux1EbQqbrQlxZM89GmNx_gP3dNQzGSW63AZjfe1gDHgWVpUdgO6zcPoC8W5naMr77aeb1vo6QMKjXA0soUPUh93oQmLmqdfz4_vFB5-LorxA9dksap8LA7IcF41WFbslu4NVkXQ1ymG3rHwWC9vMacLN1jGa9h7j53Y1XJ08rWZRiT5-qzwxH-NZynN6PnPi18emHvCsCxlO8bMzEQABT63tw7x7HllnbMJwfiNKZs7npPgvv0-LdBWiH5jqF8KcX-8BqBs5aY4WRoWlvolqUFSCE-mpWwE-oC6paRFxA8TuihcDsRXlwc0fn0CTmsZ5voSCCSoO-vcsB8FX1S1OQM6r76ePBSo7ykvLp2LHuVdnJ5jtpvCLzZkhQqDm00]--></g></svg>