<svg xmlns="http://www.w3.org/2000/svg" xmlns:xlink="http://www.w3.org/1999/xlink" contentStyleType="text/css" data-diagram-type="SEQUENCE" height="750.3486px" preserveAspectRatio="none" style="width:1704px;height:750px;background:#EEEBDC;" version="1.1" viewBox="0 0 1704 750" width="1704.661px" zoomAndPan="magnify"><defs/><g><rect fill="#EEEBDC" height="750.3486" style="stroke:none;stroke-width:1.4888;" width="1704.661" x="0" y="0"/><g><title>IHM</title><polygon fill="#A9DCDF" points="630.2736,344.0586,630.2736,344.1629,633.2512,343.8529,636.2288,344.1545,639.2064,344.2569,642.1839,343.7045,645.1615,344.0586,645.0458,344.0586,644.5265,358.7301,644.5906,373.4017,645.06,388.0733,644.1322,402.7448,645.9858,417.4164,644.2231,432.0879,644.8671,446.7595,645.8046,461.4311,645.0338,476.1026,645.2631,490.7742,645.1139,505.4458,645.4273,520.1173,645.5175,534.7889,646.0335,549.4605,646.1606,564.132,646.1728,578.8036,645.1615,593.4751,645.1615,593.6015,642.1839,593.7052,639.2064,593.8236,636.2288,593.1173,633.2512,593.8119,630.2736,593.4751,629.8322,593.4751,631.0684,578.8036,629.5367,564.132,630.1717,549.4605,631.3777,534.7889,630.2011,520.1173,630.4304,505.4458,630.7778,490.7742,630.8933,476.1026,630.2678,461.4311,630.7012,446.7595,629.4214,432.0879,630.697,417.4164,631.0898,402.7448,630.9355,388.0733,631.1863,373.4017,629.5544,358.7301,630.2736,344.0586" style="stroke:#181818;stroke-width:1.4888;"/></g><g><title>Sistema</title><polygon fill="#A9DCDF" points="1151.3554,391.2621,1151.3554,391.3664,1154.333,391.0564,1157.3106,391.358,1160.2881,391.4604,1163.2657,390.908,1166.2433,391.2621,1166.1276,391.2621,1165.6083,405.7059,1165.6723,420.1496,1166.1418,434.5934,1165.214,449.0372,1167.0675,463.481,1165.3049,477.9248,1165.9488,492.3686,1166.8864,506.8124,1166.1156,521.2562,1166.3449,535.7,1166.1957,550.1438,1166.5091,564.5876,1166.5993,579.0314,1166.2433,593.4751,1166.2433,593.7658,1163.2657,593.8082,1160.2881,593.8122,1157.3106,593.6015,1154.333,593.7052,1151.3554,593.4751,1152.4009,593.4751,1150.2817,579.0314,1152.3656,564.5876,1150.914,550.1438,1152.1501,535.7,1150.6184,521.2562,1151.2534,506.8124,1152.4595,492.3686,1151.2829,477.9248,1151.5122,463.481,1151.8596,449.0372,1151.9751,434.5934,1151.3496,420.1496,1151.783,405.7059,1151.3554,391.2621" style="stroke:#181818;stroke-width:1.4888;"/></g><g><title>Banco de Dados</title><polygon fill="#A9DCDF" points="1612.6132,438.4656,1612.6132,438.5699,1615.5908,438.2599,1618.5683,438.5615,1621.5459,438.6639,1624.5235,438.1115,1627.5011,438.4656,1627.3854,438.4656,1626.8661,453.9665,1626.9301,469.4675,1627.3996,484.9684,1626.4718,500.4694,1628.3253,515.9704,1626.5627,531.4713,1627.2066,546.9723,1628.1441,562.4732,1627.3734,577.9742,1627.5011,593.4751,1627.5011,593.509,1624.5235,593.4593,1621.5459,593.5637,1618.5683,593.5938,1615.5908,593.7658,1612.6132,593.4751,1613.6122,593.4751,1613.6245,577.9742,1612.9923,562.4732,1613.3034,546.9723,1613.6587,531.4713,1611.5395,515.9704,1613.6233,500.4694,1612.1718,484.9684,1613.4079,469.4675,1611.8762,453.9665,1612.6132,438.4656" style="stroke:#181818;stroke-width:1.4888;"/></g><g><title>Supervisor</title><polygon fill="#000000" fill-opacity="0.00000" points="69.5068,293.8775,69.5068,293.9818,71.8889,293.6719,74.271,293.9734,76.653,294.0758,79.0351,293.5235,81.4171,293.8775,81.3014,293.8775,80.7822,308.7821,80.8462,323.6867,81.3157,338.5913,80.3878,353.4959,82.2414,368.4005,80.4788,383.3051,81.1227,398.2097,82.0602,413.1143,81.2894,428.0189,81.5187,442.9236,81.3696,457.8282,81.6829,472.7328,81.7732,487.6374,82.2891,502.542,82.4162,517.4466,82.4284,532.3512,81.7962,547.2558,82.1073,562.1604,82.4626,577.065,80.3434,591.9696,81.4171,606.8742,81.4171,607.211,79.0351,606.7271,76.653,607.1391,74.271,606.6286,71.8889,606.8402,69.5068,606.8742,70.6109,606.8742,69.4343,591.9696,69.6636,577.065,70.011,562.1604,70.1265,547.2558,69.501,532.3512,69.9344,517.4466,68.6546,502.542,69.9302,487.6374,70.323,472.7328,70.1687,457.8282,70.4195,442.9236,68.7876,428.0189,68.5359,413.1143,68.5817,398.2097,69.4192,383.3051,69.2143,368.4005,70.5213,353.4959,69.2468,338.5913,68.9961,323.6867,69.8467,308.7821,69.5068,293.8775"/><path d="M74.4393,293.8775 L74.8566,293.8775 L73.6169,308.7821 L74.823,323.6867 L75.2327,338.5913 L73.0232,353.4959 L74.2851,368.4005 L73.5927,383.3051 L73.6781,398.2097 L74.3041,413.1143 L73.0669,428.0189 L75.5384,442.9236 L73.1882,457.8282 L74.0468,472.7328 L75.2968,487.6374 L74.2691,502.542 L74.5748,517.4466 L74.3759,532.3512 L74.7937,547.2558 L74.914,562.1604 L75.602,577.065 L75.7714,591.9696 L74.4393,606.8742" fill="none" style="stroke:#0000FF;stroke-width:0.7444;stroke-dasharray:7.4439,7.4439;"/></g><g><title>IHM</title><polygon fill="#000000" fill-opacity="0.00000" points="631.7624,293.8775,631.7624,293.9818,634.1445,293.6719,636.5265,293.9734,638.9086,294.0758,641.2907,293.5235,643.6727,293.8775,643.557,293.8775,643.0378,308.7821,643.1018,323.6867,643.5712,338.5913,642.6434,353.4959,644.497,368.4005,642.7344,383.3051,643.3783,398.2097,644.3158,413.1143,643.545,428.0189,643.7743,442.9236,643.6252,457.8282,643.9385,472.7328,644.0287,487.6374,644.5447,502.542,644.6718,517.4466,644.684,532.3512,644.0518,547.2558,644.3629,562.1604,644.7182,577.065,642.599,591.9696,643.6727,606.8742,643.6727,607.211,641.2907,606.7271,638.9086,607.1391,636.5265,606.6286,634.1445,606.8402,631.7624,606.8742,632.8665,606.8742,631.6899,591.9696,631.9192,577.065,632.2666,562.1604,632.3821,547.2558,631.7566,532.3512,632.19,517.4466,630.9102,502.542,632.1858,487.6374,632.5786,472.7328,632.4242,457.8282,632.6751,442.9236,631.0432,428.0189,630.7915,413.1143,630.8373,398.2097,631.6748,383.3051,631.4698,368.4005,632.7769,353.4959,631.5024,338.5913,631.2517,323.6867,632.1023,308.7821,631.7624,293.8775"/><path d="M636.9732,293.8775 L637.3904,293.8775 L636.1507,308.7821 L637.3569,323.6867 L637.7666,338.5913 L635.5571,353.4959 L636.8189,368.4005 L636.1266,383.3051 L636.2119,398.2097 L636.8379,413.1143 L635.6008,428.0189 L638.0722,442.9236 L635.722,457.8282 L636.5806,472.7328 L637.8306,487.6374 L636.8029,502.542 L637.1086,517.4466 L636.9098,532.3512 L637.3276,547.2558 L637.4479,562.1604 L638.1358,577.065 L638.3053,591.9696 L636.9732,606.8742" fill="none" style="stroke:#0000FF;stroke-width:0.7444;stroke-dasharray:7.4439,7.4439;"/></g><g><title>Sistema</title><polygon fill="#000000" fill-opacity="0.00000" points="1152.8442,293.8775,1152.8442,293.9818,1155.2263,293.6719,1157.6083,293.9734,1159.9904,294.0758,1162.3724,293.5235,1164.7545,293.8775,1164.6388,293.8775,1164.1195,308.7821,1164.1835,323.6867,1164.653,338.5913,1163.7252,353.4959,1165.5787,368.4005,1163.8161,383.3051,1164.4601,398.2097,1165.3976,413.1143,1164.6268,428.0189,1164.8561,442.9236,1164.7069,457.8282,1165.0203,472.7328,1165.1105,487.6374,1165.6265,502.542,1165.7535,517.4466,1165.7658,532.3512,1165.1336,547.2558,1165.4447,562.1604,1165.8,577.065,1163.6808,591.9696,1164.7545,606.8742,1164.7545,607.211,1162.3724,606.7271,1159.9904,607.1391,1157.6083,606.6286,1155.2263,606.8402,1152.8442,606.8742,1153.9483,606.8742,1152.7716,591.9696,1153.001,577.065,1153.3483,562.1604,1153.4639,547.2558,1152.8384,532.3512,1153.2718,517.4466,1151.992,502.542,1153.2676,487.6374,1153.6603,472.7328,1153.506,457.8282,1153.7569,442.9236,1152.125,428.0189,1151.8732,413.1143,1151.9191,398.2097,1152.7565,383.3051,1152.5516,368.4005,1153.8587,353.4959,1152.5841,338.5913,1152.3335,323.6867,1153.184,308.7821,1152.8442,293.8775"/><path d="M1157.3866,293.8775 L1157.8038,293.8775 L1156.5642,308.7821 L1157.7703,323.6867 L1158.18,338.5913 L1155.9705,353.4959 L1157.2324,368.4005 L1156.54,383.3051 L1156.6254,398.2097 L1157.2513,413.1143 L1156.0142,428.0189 L1158.4856,442.9236 L1156.1355,457.8282 L1156.994,472.7328 L1158.2441,487.6374 L1157.2164,502.542 L1157.5221,517.4466 L1157.3232,532.3512 L1157.741,547.2558 L1157.8613,562.1604 L1158.5492,577.065 L1158.7187,591.9696 L1157.3866,606.8742" fill="none" style="stroke:#0000FF;stroke-width:0.7444;stroke-dasharray:7.4439,7.4439;"/></g><g><title>Banco de Dados</title><polygon fill="#000000" fill-opacity="0.00000" points="1614.102,293.8775,1614.102,293.9818,1616.484,293.6719,1618.8661,293.9734,1621.2482,294.0758,1623.6302,293.5235,1626.0123,293.8775,1625.8966,293.8775,1625.3773,308.7821,1625.4413,323.6867,1625.9108,338.5913,1624.983,353.4959,1626.8365,368.4005,1625.0739,383.3051,1625.7178,398.2097,1626.6554,413.1143,1625.8846,428.0189,1626.1139,442.9236,1625.9647,457.8282,1626.2781,472.7328,1626.3683,487.6374,1626.8842,502.542,1627.0113,517.4466,1627.0235,532.3512,1626.3914,547.2558,1626.7025,562.1604,1627.0577,577.065,1624.9386,591.9696,1626.0123,606.8742,1626.0123,607.211,1623.6302,606.7271,1621.2482,607.1391,1618.8661,606.6286,1616.484,606.8402,1614.102,606.8742,1615.2061,606.8742,1614.0294,591.9696,1614.2588,577.065,1614.6061,562.1604,1614.7217,547.2558,1614.0962,532.3512,1614.5296,517.4466,1613.2498,502.542,1614.5254,487.6374,1614.9181,472.7328,1614.7638,457.8282,1615.0146,442.9236,1613.3828,428.0189,1613.131,413.1143,1613.1768,398.2097,1614.0143,383.3051,1613.8094,368.4005,1615.1165,353.4959,1613.8419,338.5913,1613.5912,323.6867,1614.4418,308.7821,1614.102,293.8775"/><path d="M1619.7284,293.8775 L1620.1456,293.8775 L1618.906,308.7821 L1620.1121,323.6867 L1620.5218,338.5913 L1618.3123,353.4959 L1619.5741,368.4005 L1618.8818,383.3051 L1618.9671,398.2097 L1619.5931,413.1143 L1618.356,428.0189 L1620.8274,442.9236 L1618.4773,457.8282 L1619.3358,472.7328 L1620.5858,487.6374 L1619.5581,502.542 L1619.8639,517.4466 L1619.665,532.3512 L1620.0828,547.2558 L1620.2031,562.1604 L1620.891,577.065 L1621.0605,591.9696 L1619.7284,606.8742" fill="none" style="stroke:#0000FF;stroke-width:0.7444;stroke-dasharray:7.4439,7.4439;"/></g><g class="participant participant-head" data-participant="Supervisor"><text fill="#1E90FF" font-family="Aapex" font-size="25.3094" lengthAdjust="spacing" textLength="127.1034" x="7.4439" y="286.4619">Supervisor</text><polygon fill="#00BFFF" points="99.4142,198.9493,95.9225,203.7202,91.7925,210.7081,85.8859,215.4175,79.6791,217.9927,74.7301,218.2162,68.3693,214.9955,62.3675,212.8914,57.8121,208.6195,55.4225,203.7289,54.0054,199.8348,52.6171,194.7483,50.3637,190.3714,52.0953,186.0978,53.6124,181.4164,59.3058,177.714,63.3112,172.91,68.269,171.3148,74.1629,169.941,81.7212,170.7572,85.8609,172.7096,90.674,173.5945,96.5263,179.5904,98.5664,185.9201,99.4527,190.239,98.4488,197.356" style="stroke:#00BFFF;stroke-width:0.7444;"/><path d="M75.462,222.9309 L75.462,222.9309 L75.5095,223.0616 L78.6436,221.4822 L82.0564,220.669 L85.3784,219.6064 L88.402,217.7232 L91.8386,216.9758 L91.8386,216.9758 L91.8174,216.929 L94.9972,218.2076 L98.2843,219.7223 L101.646,221.4011 L104.7507,222.5144 L108.2153,224.4197 L108.5488,224.5713 L109.3244,227.5225 L111.0737,230.9162 L112.9419,234.364 L114.1188,237.4975 L115.6592,240.7964 L115.7495,240.7964 L115.617,241.9874 L115.8955,243.1784 L115.9757,244.3694 L116.4343,245.5605 L115.6592,246.7515 L115.6592,246.7515 L115.9732,247.0655 L113.595,249.4514 L111.0143,251.6348 L108.73,254.1146 L106.4596,256.6083 L103.7489,258.6618 L103.7489,257.7074 L92.4342,259.5597 L81.1194,258.2694 L69.8046,259.3682 L58.4898,258.0067 L47.175,258.6618 L47.175,258.6618 L47.143,258.6297 L45.14,256.6267 L42.3881,253.8749 L40.0781,251.5649 L37.8052,249.292 L35.2647,246.7515 L35.8156,246.7515 L35.2596,245.5605 L35.6448,244.3694 L34.5072,243.1784 L35.6411,241.9874 L35.2647,240.7964 L35.2647,240.7964 L35.595,240.9465 L37.0213,237.6427 L38.6116,234.4135 L39.4401,230.8381 L40.827,227.5165 L42.7087,224.4197 L42.5385,224.0454 L45.9679,222.8954 L49.2055,221.3237 L52.7212,220.3638 L55.7622,218.3593 L59.0853,216.9758 L59.0853,216.9758 L59.0078,216.7624 L62.4123,218.3087 L65.4852,218.9432 L68.7939,220.226 L72.3334,222.1434 L75.462,222.9309" fill="#00BFFF"/></g><g class="participant participant-head" data-participant="IHM"><text fill="#000000" font-family="sans-serif" font-size="20.843" lengthAdjust="spacing" textLength="41.4149" x="612.5437" y="287.7705">IHM</text><path d="M607.1974,223.8034 L607.4756,223.8034 L606.6491,230.9496 L607.4532,238.0957 L607.7264,245.2419 L606.2534,252.3881 L607.1974,259.5343 M607.1974,241.6688 L607.1974,241.566 L612.2593,241.1044 L617.3212,241.1613 L622.3831,241.5786 L627.4449,240.7539 L632.5068,241.6688" fill="none" style="stroke:#181818;stroke-width:0.7444;"/><polygon fill="#E2E2F0" points="668.3364,246.0144,665.7176,249.5926,662.6202,254.8336,658.1902,258.3655,653.5351,260.297,649.8233,260.4646,645.0527,258.0491,640.5514,256.471,637.1348,253.267,635.3427,249.5991,634.2798,246.6785,633.2386,242.8637,631.5486,239.581,632.8473,236.3758,633.9851,232.8648,638.2551,230.0879,641.2592,226.485,644.9775,225.2886,649.398,224.2582,655.0667,224.8704,658.1715,226.3346,661.7813,226.9984,666.1705,231.4952,667.7005,236.2425,668.3653,239.4817,667.6123,244.8194" style="stroke:#181818;stroke-width:0.7444;"/></g><g class="participant participant-head" data-participant="Sistema"><text fill="#000000" font-family="sans-serif" font-size="20.843" lengthAdjust="spacing" textLength="77.2648" x="1115.7006" y="287.7705">Sistema</text><polygon fill="#E2E2F0" points="1176.7635,246.0144,1174.1447,249.5926,1171.0473,254.8336,1166.6173,258.3655,1161.9622,260.297,1158.2504,260.4646,1153.4798,258.0491,1148.9785,256.471,1145.5619,253.267,1143.7697,249.5991,1142.7069,246.6785,1141.6657,242.8637,1139.9756,239.581,1141.2744,236.3758,1142.4122,232.8648,1146.6822,230.0879,1149.6863,226.485,1153.4046,225.2886,1157.8251,224.2582,1163.4937,224.8704,1166.5985,226.3346,1170.2084,226.9984,1174.5976,231.4952,1176.1276,236.2425,1176.7924,239.4817,1176.0394,244.8194" style="stroke:#181818;stroke-width:0.7444;"/><polygon fill="#181818" points="1152.8442,223.8034,1152.911,223.8835,1154.4991,222.1566,1156.4787,220.8995,1158.3308,219.4894,1159.7637,217.5763,1161.7769,216.3594,1161.7411,216.3451,1160.9849,217.7696,1160.4092,219.2663,1159.959,220.8132,1159.0763,222.1872,1158.7993,223.8034,1159.0544,223.9054,1159.1044,225.176,1159.8992,226.7445,1160.7849,228.3494,1161.1419,229.7427,1161.7769,231.2473,1161.7986,231.2733,1159.9802,229.7464,1158.2605,228.3378,1156.4933,226.8721,1154.8168,225.5155,1152.8442,223.8034" style="stroke:#181818;stroke-width:1.4888;"/></g><g class="participant participant-head" data-participant="DB"><text fill="#000000" font-family="sans-serif" font-size="20.843" lengthAdjust="spacing" textLength="158.4688" x="1536.3563" y="287.7705">Banco de Dados</text><path d="M1593.259,211.8931 L1593.259,211.8931 L1593.3559,211.9928 L1595.7477,209.0911 L1598.7077,206.774 L1601.4828,204.2666 L1603.6492,201.1331 L1606.658,198.8662 L1606.651,198.8153 L1609.299,198.2145 L1611.9828,197.8705 L1614.6913,197.7049 L1617.3144,196.9243 L1620.0571,197.0052 L1620.0571,197.0052 L1620.1075,197.3681 L1622.6796,196.9643 L1625.3988,197.62 L1628.1359,198.4049 L1630.7686,198.4378 L1633.4562,198.8662 L1633.4877,198.8986 L1636.1213,201.4564 L1638.8982,204.1617 L1641.606,206.7958 L1644.4456,209.5656 L1646.8553,211.8931 L1647.7433,211.8931 L1647.7542,219.6348 L1647.1923,227.3765 L1647.4688,235.1182 L1647.7846,242.8599 L1646.8553,250.6015 L1646.8553,250.6015 L1646.5226,250.2594 L1644.4884,253.5288 L1641.3589,255.6716 L1639.0621,258.6709 L1635.9077,260.7882 L1633.4562,263.6284 L1633.45,263.5835 L1630.8439,264.4867 L1628.0921,264.3409 L1625.4263,264.814 L1622.7678,265.3392 L1620.0571,265.4894 L1620.0571,265.4894 L1620.095,265.7622 L1617.377,265.1147 L1614.7236,264.9333 L1611.9656,263.9977 L1609.3637,264.187 L1606.658,263.6284 L1606.9109,263.8885 L1604.1833,261.234 L1601.5812,258.7085 L1598.3958,255.5831 L1595.638,252.8975 L1593.259,250.6015 L1592.4366,250.6015 L1593.181,242.8599 L1592.9989,235.1182 L1594.1607,227.3765 L1593.0278,219.6348 L1593.259,211.8931" fill="#E2E2F0" style="stroke:#181818;stroke-width:0.7444;"/><path d="M1593.259,211.8931 L1593.259,211.8931 L1593.3559,211.9928 L1595.7477,214.3019 L1598.7077,217.1955 L1601.4828,219.8988 L1603.6492,221.9761 L1606.658,224.92 L1606.651,224.869 L1609.299,225.0127 L1611.9828,225.413 L1614.6913,225.9919 L1617.3144,225.9556 L1620.0571,226.781 L1620.0571,226.781 L1620.1075,227.1438 L1622.6796,225.9957 L1625.3988,225.9069 L1628.1359,225.9475 L1630.7686,225.236 L1633.4562,224.92 L1633.4877,224.9523 L1636.1213,222.2994 L1638.8982,219.7939 L1641.606,217.2173 L1644.4456,214.7763 L1646.8553,211.8931" fill="none" style="stroke:#181818;stroke-width:0.7444;"/></g><g><title>IHM</title><polygon fill="#A9DCDF" points="630.2736,344.0586,630.2736,344.1629,633.2512,343.8529,636.2288,344.1545,639.2064,344.2569,642.1839,343.7045,645.1615,344.0586,645.0458,344.0586,644.5265,358.7301,644.5906,373.4017,645.06,388.0733,644.1322,402.7448,645.9858,417.4164,644.2231,432.0879,644.8671,446.7595,645.8046,461.4311,645.0338,476.1026,645.2631,490.7742,645.1139,505.4458,645.4273,520.1173,645.5175,534.7889,646.0335,549.4605,646.1606,564.132,646.1728,578.8036,645.1615,593.4751,645.1615,593.6015,642.1839,593.7052,639.2064,593.8236,636.2288,593.1173,633.2512,593.8119,630.2736,593.4751,629.8322,593.4751,631.0684,578.8036,629.5367,564.132,630.1717,549.4605,631.3777,534.7889,630.2011,520.1173,630.4304,505.4458,630.7778,490.7742,630.8933,476.1026,630.2678,461.4311,630.7012,446.7595,629.4214,432.0879,630.697,417.4164,631.0898,402.7448,630.9355,388.0733,631.1863,373.4017,629.5544,358.7301,630.2736,344.0586" style="stroke:#181818;stroke-width:1.4888;"/></g><g><title>Sistema</title><polygon fill="#A9DCDF" points="1151.3554,391.2621,1151.3554,391.3664,1154.333,391.0564,1157.3106,391.358,1160.2881,391.4604,1163.2657,390.908,1166.2433,391.2621,1166.1276,391.2621,1165.6083,405.7059,1165.6723,420.1496,1166.1418,434.5934,1165.214,449.0372,1167.0675,463.481,1165.3049,477.9248,1165.9488,492.3686,1166.8864,506.8124,1166.1156,521.2562,1166.3449,535.7,1166.1957,550.1438,1166.5091,564.5876,1166.5993,579.0314,1166.2433,593.4751,1166.2433,593.7658,1163.2657,593.8082,1160.2881,593.8122,1157.3106,593.6015,1154.333,593.7052,1151.3554,593.4751,1152.4009,593.4751,1150.2817,579.0314,1152.3656,564.5876,1150.914,550.1438,1152.1501,535.7,1150.6184,521.2562,1151.2534,506.8124,1152.4595,492.3686,1151.2829,477.9248,1151.5122,463.481,1151.8596,449.0372,1151.9751,434.5934,1151.3496,420.1496,1151.783,405.7059,1151.3554,391.2621" style="stroke:#181818;stroke-width:1.4888;"/></g><g><title>Banco de Dados</title><polygon fill="#A9DCDF" points="1612.6132,438.4656,1612.6132,438.5699,1615.5908,438.2599,1618.5683,438.5615,1621.5459,438.6639,1624.5235,438.1115,1627.5011,438.4656,1627.3854,438.4656,1626.8661,453.9665,1626.9301,469.4675,1627.3996,484.9684,1626.4718,500.4694,1628.3253,515.9704,1626.5627,531.4713,1627.2066,546.9723,1628.1441,562.4732,1627.3734,577.9742,1627.5011,593.4751,1627.5011,593.509,1624.5235,593.4593,1621.5459,593.5637,1618.5683,593.5938,1615.5908,593.7658,1612.6132,593.4751,1613.6122,593.4751,1613.6245,577.9742,1612.9923,562.4732,1613.3034,546.9723,1613.6587,531.4713,1611.5395,515.9704,1613.6233,500.4694,1612.1718,484.9684,1613.4079,469.4675,1611.8762,453.9665,1612.6132,438.4656" style="stroke:#181818;stroke-width:1.4888;"/></g><g class="message" data-participant-1="Supervisor" data-participant-2="IHM"><polygon fill="#00BFFF" points="612.4082,338.1034,612.4469,338.2003,615.3094,339.1035,618.399,340.5745,621.4146,341.8607,624.187,342.5388,627.2961,344.0586,627.2817,344.0227,624.2399,345.0531,621.2702,346.2639,618.3508,347.6002,615.2583,348.5041,612.4082,350.0137,612.6025,350.208,613.378,348.6015,614.7209,347.5622,616.1329,346.5922,617.1422,345.2195,618.3633,344.0586,618.3873,344.0825,617.1611,342.8563,616.0439,341.7391,614.8742,340.5694,613.8047,339.5,612.4082,338.1034" style="stroke:#00BFFF;stroke-width:1.4888;"/><path d="M75.462,344.0586 L75.462,344.4758 L90.2155,343.2361 L104.969,344.4422 L119.7224,344.8519 L134.4759,342.6424 L149.2294,343.9043 L163.9829,343.2119 L178.7364,343.2973 L193.4899,343.9233 L208.2433,342.6862 L222.9968,345.1576 L237.7503,342.8074 L252.5038,343.666 L267.2573,344.916 L282.0108,343.8883 L296.7643,344.194 L311.5177,343.9951 L326.2712,344.4129 L341.0247,344.5332 L355.7782,345.2212 L370.5317,345.3906 L385.2852,345.4069 L400.0386,344.564 L414.7921,344.9788 L429.5456,345.4525 L444.2991,342.627 L459.0526,345.4054 L473.8061,343.47 L488.5596,345.1182 L503.313,343.0759 L518.0665,343.9226 L532.82,345.5307 L547.5735,343.9618 L562.327,344.2676 L577.0805,344.7308 L591.8339,344.8848 L606.5874,344.0508 L621.3409,344.0586" fill="none" style="stroke:#00BFFF;stroke-width:1.4888;"/><text fill="#000000" font-family="sans-serif" font-size="19.3542" lengthAdjust="spacing" textLength="364.5372" x="85.8835" y="335.4102">Visualizar status da linha de produ&#231;&#227;o N</text></g><g class="message" data-participant-1="IHM" data-participant-2="Sistema"><polygon fill="#00BFFF" points="1133.49,385.3069,1133.5287,385.4038,1136.3912,386.307,1139.4807,387.778,1142.4964,389.0642,1145.2688,389.7423,1148.3778,391.2621,1148.3635,391.2263,1145.3217,392.2566,1142.352,393.4674,1139.4326,394.8037,1136.3401,395.7076,1133.49,397.2172,1133.6842,397.4115,1134.4598,395.805,1135.8026,394.7657,1137.2146,393.7957,1138.224,392.423,1139.4451,391.2621,1139.4691,391.286,1138.2429,390.0598,1137.1257,388.9426,1135.9559,387.7729,1134.8865,386.7035,1133.49,385.3069" style="stroke:#00BFFF;stroke-width:1.4888;"/><path d="M645.1615,391.2621 L645.1615,391.6793 L660.23,390.4396 L675.2985,391.6457 L690.3671,392.0554 L705.4356,389.8459 L720.5041,391.1078 L735.5726,390.4154 L750.6411,390.5008 L765.7097,391.1268 L780.7782,389.8897 L795.8467,392.3611 L810.9152,390.0109 L825.9838,390.8695 L841.0523,392.1195 L856.1208,391.0918 L871.1893,391.3975 L886.2578,391.1986 L901.3264,391.6164 L916.3949,391.7368 L931.4634,392.4247 L946.5319,392.5941 L961.6004,392.6104 L976.669,391.7675 L991.7375,392.1823 L1006.806,392.656 L1021.8745,389.8305 L1036.943,392.6089 L1052.0116,390.6735 L1067.0801,392.3217 L1082.1486,390.2794 L1097.2171,391.1261 L1112.2856,392.7342 L1127.3542,391.1653 L1142.4227,391.2621" fill="none" style="stroke:#00BFFF;stroke-width:1.4888;"/><text fill="#000000" font-family="sans-serif" font-size="19.3542" lengthAdjust="spacing" textLength="342.6669" x="655.583" y="382.6137">Solicita dados da linha de produ&#231;&#227;o N</text></g><g class="message" data-participant-1="Sistema" data-participant-2="DB"><polygon fill="#00BFFF" points="1594.7477,432.5104,1594.7865,432.6073,1597.649,433.5105,1600.7385,434.9815,1603.7541,436.2677,1606.5266,436.9458,1609.6356,438.4656,1609.6213,438.4298,1606.5794,439.4601,1603.6098,440.6709,1600.6903,442.0072,1597.5979,442.9111,1594.7477,444.4207,1594.942,444.615,1595.7176,443.0085,1597.0604,441.9693,1598.4724,440.9992,1599.4818,439.6265,1600.7029,438.4656,1600.7268,438.4895,1599.5007,437.2633,1598.3835,436.1461,1597.2137,434.9764,1596.1443,433.907,1594.7477,432.5104" style="stroke:#00BFFF;stroke-width:1.4888;"/><path d="M1166.2433,438.4656 L1166.2433,438.8828 L1181.3273,437.6431 L1196.4114,438.8492 L1211.4954,439.2589 L1226.5794,437.0494 L1241.6635,438.3113 L1256.7475,437.619 L1271.8316,437.7043 L1286.9156,438.3303 L1301.9996,437.0932 L1317.0837,439.5646 L1332.1677,437.2144 L1347.2518,438.073 L1362.3358,439.323 L1377.4199,438.2953 L1392.5039,438.601 L1407.5879,438.4021 L1422.672,438.8199 L1437.756,438.9403 L1452.8401,439.6282 L1467.9241,439.7976 L1483.0081,439.8139 L1498.0922,438.971 L1513.1762,439.3858 L1528.2603,439.8595 L1543.3443,437.034 L1558.4283,439.8124 L1573.5124,437.877 L1588.5964,439.5252 L1603.6805,438.4656" fill="none" style="stroke:#00BFFF;stroke-width:1.4888;"/><text fill="#000000" font-family="sans-serif" font-size="19.3542" lengthAdjust="spacing" textLength="358.1891" x="1176.6648" y="429.8172">Consulta dados da linha de produ&#231;&#227;o N</text></g><g class="message" data-participant-1="DB" data-participant-2="Sistema"><polygon fill="#00BFFF" points="1182.6199,479.7139,1182.6587,479.8108,1179.566,480.714,1176.7004,482.185,1173.7609,483.4712,1170.5782,484.1493,1167.7321,485.6691,1167.7177,485.6333,1170.631,486.6636,1173.6165,487.8744,1176.6522,489.2107,1179.5149,490.1146,1182.6199,491.6242,1182.8142,491.8185,1181.2077,490.212,1180.1685,489.1728,1179.1984,488.2027,1177.8257,486.83,1176.6648,485.6691,1176.6887,485.693,1177.8446,484.4668,1179.1095,483.3497,1180.3218,482.1799,1181.6344,481.1105,1182.6199,479.7139" style="stroke:#00BFFF;stroke-width:1.4888;"/><path d="M1173.6872,485.6691 L1173.6872,486.0863 L1188.7713,484.8466 L1203.8553,486.0527 L1218.9393,486.4624 L1234.0234,484.2529 L1249.1074,485.5148 L1264.1915,484.8225 L1279.2755,484.9078 L1294.3595,485.5338 L1309.4436,484.2967 L1324.5276,486.7681 L1339.6117,484.4179 L1354.6957,485.2765 L1369.7797,486.5265 L1384.8638,485.4988 L1399.9478,485.8045 L1415.0319,485.6056 L1430.1159,486.0234 L1445.2,486.1438 L1460.284,486.8317 L1475.368,487.0011 L1490.4521,487.0174 L1505.5361,486.1745 L1520.6202,486.5893 L1535.7042,487.063 L1550.7882,484.2375 L1565.8723,487.0159 L1580.9563,485.0805 L1596.0404,486.7287 L1611.1244,485.6691" fill="none" style="stroke:#00BFFF;stroke-width:1.4888;stroke-dasharray:2.9776,2.9776;"/><text fill="#000000" font-family="sans-serif" font-size="19.3542" lengthAdjust="spacing" textLength="410.639" x="1191.5527" y="477.0207">Retorna dados atuais da linha de produ&#231;&#227;o N</text></g><g class="message" data-participant-1="Sistema" data-participant-2="IHM"><polygon fill="#00BFFF" points="661.5382,526.9174,661.5769,527.0143,658.4842,527.9175,655.6186,529.3885,652.6791,530.6747,649.4964,531.3528,646.6503,532.8726,646.636,532.8368,649.5493,533.8671,652.5348,535.0779,655.5705,536.4142,658.4332,537.3181,661.5382,538.8277,661.7324,539.022,660.126,537.4155,659.0867,536.3763,658.1166,535.4062,656.7439,534.0335,655.583,532.8726,655.607,532.8965,656.7628,531.6703,658.0277,530.5532,659.24,529.3834,660.5527,528.314,661.5382,526.9174" style="stroke:#00BFFF;stroke-width:1.4888;"/><path d="M652.6054,532.8726 L652.6054,533.2898 L667.674,532.0501 L682.7425,533.2562 L697.811,533.6659 L712.8795,531.4564 L727.948,532.7183 L743.0166,532.026 L758.0851,532.1113 L773.1536,532.7373 L788.2221,531.5002 L803.2906,533.9716 L818.3592,531.6214 L833.4277,532.48 L848.4962,533.73 L863.5647,532.7023 L878.6332,533.008 L893.7018,532.8091 L908.7703,533.2269 L923.8388,533.3473 L938.9073,534.0352 L953.9759,534.2046 L969.0444,534.2209 L984.1129,533.378 L999.1814,533.7928 L1014.2499,534.2665 L1029.3185,531.441 L1044.387,534.2194 L1059.4555,532.284 L1074.524,533.9322 L1089.5925,531.8899 L1104.6611,532.7366 L1119.7296,534.3447 L1134.7981,532.7758 L1149.8666,532.8726" fill="none" style="stroke:#00BFFF;stroke-width:1.4888;stroke-dasharray:2.9776,2.9776;"/><text fill="#000000" font-family="sans-serif" font-size="19.3542" lengthAdjust="spacing" textLength="470.463" x="670.4709" y="524.2242">Converte dados atuais para formato de visualiza&#231;&#227;o</text></g><g class="message" data-participant-1="IHM" data-participant-2="Supervisor"><polygon fill="#00BFFF" points="91.8386,574.1209,91.8774,574.2178,88.7847,575.121,85.9191,576.592,82.9796,577.8782,79.7969,578.5563,76.9508,580.0761,76.9365,580.0403,79.8497,581.0706,82.8352,582.2814,85.8709,583.6178,88.7336,584.5216,91.8386,586.0312,92.0329,586.2255,90.4264,584.619,89.3872,583.5798,88.4171,582.6097,87.0444,581.237,85.8835,580.0761,85.9074,580.1,87.0633,578.8738,88.3282,577.7567,89.5405,576.5869,90.8531,575.5175,91.8386,574.1209" style="stroke:#00BFFF;stroke-width:1.4888;"/><path d="M82.9059,580.0761 L82.9059,580.4933 L97.6594,579.2536 L112.4129,580.4597 L127.1664,580.8695 L141.9199,578.6599 L156.6733,579.9218 L171.4268,579.2295 L186.1803,579.3148 L200.9338,579.9408 L215.6873,578.7037 L230.4408,581.1751 L245.1943,578.8249 L259.9477,579.6835 L274.7012,580.9335 L289.4547,579.9058 L304.2082,580.2115 L318.9617,580.0126 L333.7152,580.4304 L348.4686,580.5508 L363.2221,581.2387 L377.9756,581.4081 L392.7291,581.4244 L407.4826,580.5815 L422.2361,580.9963 L436.9896,581.47 L451.743,578.6445 L466.4965,581.4229 L481.25,579.4875 L496.0035,581.1357 L510.757,579.0934 L525.5105,579.9401 L540.2639,581.5482 L555.0174,579.9793 L569.7709,580.2851 L584.5244,580.7483 L599.2779,580.9023 L614.0314,580.0683 L628.7848,580.0761" fill="none" style="stroke:#00BFFF;stroke-width:1.4888;stroke-dasharray:2.9776,2.9776;"/><text fill="#000000" font-family="sans-serif" font-size="19.3542" lengthAdjust="spacing" textLength="519.0808" x="100.7714" y="571.4277">Exibe dados atuais da linha de produ&#231;&#227;o N no dashboard</text></g><text fill="#1E90FF" font-family="Arial" font-size="20.843" font-weight="bold" lengthAdjust="spacing" textLength="237.1093" x="44.6636" y="660.4198">Casos de Uso cobertos:</text><text fill="#1E90FF" font-family="Arial" font-size="20.843" lengthAdjust="spacing" textLength="6.7114" x="44.6636" y="688.8079">-</text><text fill="#1E90FF" font-family="Arial" font-size="20.843" font-weight="bold" lengthAdjust="spacing" textLength="90.8335" x="56.7942" y="688.8079">MDC-002</text><text fill="#1E90FF" font-family="Arial" font-size="20.843" lengthAdjust="spacing" textLength="232.4822" x="153.0468" y="688.8079">Monitoramento remoto</text><polygon fill="none" points="157.152,37.2197,157.152,37.5326,171.9968,36.6028,186.8416,37.5074,201.6863,37.8147,216.5311,36.1576,231.3759,37.104,246.2207,36.5847,261.0654,36.6487,275.9102,37.1182,290.755,36.1904,305.5998,38.0439,320.4446,36.2813,335.2893,36.9252,350.1341,37.8627,364.9789,37.092,379.8237,37.3213,394.6684,37.1721,409.5132,37.4855,424.358,37.5757,439.2028,38.0916,454.0475,38.2187,468.8923,38.2309,483.7371,37.5988,498.5819,37.9099,513.4267,38.2651,528.2714,36.146,543.1162,38.2298,557.961,36.7782,572.8058,38.0144,587.6505,36.4827,602.4953,37.1177,617.3401,38.3238,632.1849,37.1471,647.0296,37.3764,661.8744,37.7238,676.7192,37.8394,691.564,37.2139,706.4088,37.6473,721.2535,36.3675,736.0983,37.6431,750.9431,38.0358,765.7879,37.8815,780.6326,38.1323,795.4774,36.5005,810.3222,36.2487,825.167,36.2945,840.0118,37.132,854.8565,36.9271,869.7013,38.2341,884.5461,36.9596,899.3909,36.7089,914.2356,37.5595,929.0804,36.2269,943.9252,36.4468,958.77,38.1858,973.6147,37.8683,988.4595,38.3132,1003.3043,36.7406,1018.1491,37.6949,1032.9939,38.0987,1047.8386,36.5164,1062.6834,37.077,1077.5282,37.4072,1092.373,38.19,1107.2177,37.2134,1122.0625,37.9083,1136.9073,36.3952,1151.7521,36.2114,1166.5968,37.9694,1181.4416,36.1523,1196.2864,37.9774,1211.1312,37.5273,1225.976,36.8208,1240.8207,36.693,1255.6655,37.9027,1270.5103,36.774,1285.3551,38.1008,1300.1998,36.3968,1315.0446,38.1389,1329.8894,37.9407,1344.7342,37.5844,1359.5789,37.29,1374.4237,38.3014,1389.2685,38.1332,1404.1133,37.4717,1418.9581,37.6189,1433.8028,37.0257,1448.6476,38.2863,1463.4924,37.4502,1478.3372,37.4766,1493.1819,36.314,1508.0267,36.6164,1522.8715,38.0098,1537.7163,37.8595,1552.561,37.2197,1552.5529,37.2,1554.079,37.726,1555.6777,38.4275,1557.168,38.8673,1558.9562,40.0262,1560.4565,40.4901,1560.7956,40.6305,1561.352,42.1692,1562.0833,43.7803,1562.3561,45.2014,1563.1129,46.823,1563.7269,48.3856,1563.1499,48.3856,1564.1498,63.9404,1564.0943,79.4952,1564.5493,95.0501,1563.385,110.6049,1563.7269,126.1598,1563.6653,126.1342,1563.2762,127.8231,1562.6789,129.4257,1561.5297,130.7997,1561.0217,132.4393,1560.4565,134.0552,1560.4849,134.1237,1558.7614,134.4293,1557.3655,135.5254,1555.7682,136.1358,1554.121,136.6254,1552.561,137.3257,1552.561,137.5374,1537.7163,138.4105,1522.8715,136.8599,1508.0267,137.7946,1493.1819,137.7509,1478.3372,137.498,1463.4924,137.5355,1448.6476,137.4946,1433.8028,136.3964,1418.9581,136.7289,1404.1133,136.6385,1389.2685,137.4207,1374.4237,137.4569,1359.5789,137.5665,1344.7342,136.8925,1329.8894,137.2251,1315.0446,137.1467,1300.1998,138.1845,1285.3551,137.9607,1270.5103,136.6028,1255.6655,137.2171,1240.8207,136.4663,1225.976,137.755,1211.1312,138.2316,1196.2864,138.1364,1181.4416,136.6772,1166.5968,138.0164,1151.7521,136.2198,1136.9073,137.6237,1122.0625,136.8801,1107.2177,137.4697,1092.373,137.6835,1077.5282,138.0285,1062.6834,136.2539,1047.8386,138.0335,1032.9939,137.5909,1018.1491,137.8547,1003.3043,138.439,988.4595,137.3338,973.6147,137.5866,958.77,137.6434,943.9252,137.6193,929.0804,137.3245,914.2356,138.3838,899.3909,136.4179,884.5461,138.1672,869.7013,136.3967,854.8565,136.5212,840.0118,137.3852,825.167,137.3678,810.3222,136.5919,795.4774,137.9416,780.6326,137.4877,765.7879,138.4075,750.9431,138.3188,736.0983,136.6583,721.2535,136.7332,706.4088,137.1334,691.564,137.855,676.7192,137.9256,661.8744,137.774,647.0296,136.8166,632.1849,138.2731,617.3401,138.2692,602.4953,137.2553,587.6505,136.9698,572.8058,136.7281,557.961,137.0062,543.1162,137.5302,528.2714,137.2238,513.4267,136.7037,498.5819,138.0513,483.7371,136.6424,468.8923,138.0736,454.0475,137.9617,439.2028,137.8793,424.358,138.3566,409.5132,136.9596,394.6684,136.8781,379.8237,138.0982,364.9789,136.437,350.1341,136.9773,335.2893,137.4976,320.4446,137.4279,305.5998,136.792,290.755,137.2617,275.9102,138.4342,261.0654,138.2911,246.2207,136.4379,231.3759,137.4426,216.5311,136.5606,201.6863,137.2865,186.8416,137.7619,171.9968,137.9508,157.152,137.3257,157.0258,137.0209,155.649,136.8552,153.9954,136.0214,152.3093,135.1088,150.7462,134.4934,149.2565,134.0552,149.4063,134.1173,148.717,132.5236,147.9408,130.8939,146.9861,129.1903,146.9419,127.8638,145.9861,126.1598,145.5219,126.1598,145.1999,110.6049,145.8859,95.0501,146.8641,79.4952,146.9023,63.9404,145.9861,48.3856,146.0022,48.3922,146.5709,46.7778,147.3721,45.2596,148.0337,43.6836,148.3696,41.9728,149.2565,40.4901,149.3351,40.6799,150.9417,40.0922,152.3737,39.083,153.9123,38.3311,155.701,38.1831,157.152,37.2197" style="stroke:#000000;stroke-width:1.4888;"/><text fill="#1E90FF" font-family="Arial" font-size="29.7757" font-weight="bold" lengthAdjust="spacing" textLength="1358.1894" x="175.7618" y="98.8256">Diagrama de Sequ&#234;ncia - M&#243;dulo de Dados e Conectividade (MDC) - Monitoramento Remoto</text><!--SRC=[bPAxJiD044Nx_Og12YmP8KeN58c3e0X58kZ7tY6ijDun-x20tw50ekKJycFCEWclWeSbozBix9axrtVFkDOcJL3FpfP7VUgiKfPMv3H4xXL0KTG6Lnux1EbQqbrQlxZM89GmNx_gP3dNQzGSW63AZjfe1gDHgWVpUdgO6zcPoC8W5naMr77aeb1vo6QMKjXA0soUPUh93oQmLmqdfz4_vFB5-LorxA9dksap8LA7IcF41WFbslu4NVkXQ1ymG3rHwWC9vMacLN1jGa9h7j53Y1XJ08rWZRiT5-qzwxH-NZynN6PnPi18emHvCsCxlO8bMzEQABT63tw7x7HllnbMJwfiNKZs7npPgvv0-LdBWiH5jqF8KcX-8BqBs5aY4WRoWlvolqUFSCE-mpWwE-oC6paRFxA8TuihcDsRXlwc0fn0CTmsZ5voSCCSoO-vcsB8FX1S1OQM6r76ePBSo7ykvLp2LHuVdnJ5jtpvCLzZkhQqDm00]--></g></svg>