<svg xmlns="http://www.w3.org/2000/svg" xmlns:xlink="http://www.w3.org/1999/xlink" contentStyleType="text/css" data-diagram-type="SEQUENCE" height="750.8237px" preserveAspectRatio="none" style="width:1609px;height:750px;background:#EEEBDC;" version="1.1" viewBox="0 0 1609 750" width="1609.8993px" zoomAndPan="magnify"><defs/><g><rect fill="#EEEBDC" height="750.8237" style="stroke:none;stroke-width:1.3878;" width="1609.8993" x="0" y="0"/><rect fill="#FFFFCC" height="36.973" rx="3.4696" ry="3.4696" style="stroke:#FFDD88;stroke-width:4.1635;" width="1595.179" x="6.9392" y="6.9392"/><text fill="#000000" font-family="monospace" font-size="13.8784" lengthAdjust="spacing" textLength="492.9761" x="13.8784" y="27.7569">Please&#160;use&#160;'!option&#160;handwritten&#160;true'&#160;to&#160;enable&#160;handwritten</text><g><title>IHM</title><polygon fill="#A9DCDF" points="587.5398,371.5822,587.5398,371.6794,590.3155,371.3905,593.0912,371.6716,595.8669,371.7671,598.6426,371.2522,601.4183,371.5822,601.3104,371.5822,600.8264,385.259,600.886,398.9358,601.3237,412.6126,600.4588,426.2894,602.1867,439.9662,600.5435,453.643,601.1438,467.3198,602.0178,480.9966,601.2992,494.6734,601.513,508.3502,601.3739,522.027,601.666,535.7038,601.7502,549.3806,602.2311,563.0574,602.3496,576.7342,602.361,590.411,601.4183,604.0878,601.4183,604.2056,598.6426,604.3023,595.8669,604.4127,593.0912,603.7542,590.3155,604.4017,587.5398,604.0878,587.1283,604.0878,588.2807,590.411,586.8528,576.7342,587.4448,563.0574,588.5691,549.3806,587.4722,535.7038,587.686,522.027,588.0098,508.3502,588.1175,494.6734,587.5344,480.9966,587.9384,467.3198,586.7454,453.643,587.9345,439.9662,588.3006,426.2894,588.1568,412.6126,588.3906,398.9358,586.8694,385.259,587.5398,371.5822" style="stroke:#181818;stroke-width:1.3878;"/></g><g><title>Sistema</title><polygon fill="#A9DCDF" points="1073.2912,415.5852,1073.2912,415.6824,1076.0669,415.3935,1078.8426,415.6746,1081.6183,415.7701,1084.394,415.2552,1087.1697,415.5852,1087.0618,415.5852,1086.5778,429.0497,1086.6374,442.5141,1087.0751,455.9786,1086.2102,469.4431,1087.9381,482.9076,1086.295,496.372,1086.8952,509.8365,1087.7692,523.301,1087.0506,536.7655,1087.2644,550.2299,1087.1253,563.6944,1087.4174,577.1589,1087.5016,590.6234,1087.1697,604.0878,1087.1697,604.3588,1084.394,604.3983,1081.6183,604.4021,1078.8426,604.2056,1076.0669,604.3023,1073.2912,604.0878,1074.2658,604.0878,1072.2903,590.6234,1074.2329,577.1589,1072.8797,563.6944,1074.0321,550.2299,1072.6042,536.7655,1073.1962,523.301,1074.3205,509.8365,1073.2236,496.372,1073.4374,482.9076,1073.7612,469.4431,1073.8689,455.9786,1073.2858,442.5141,1073.6898,429.0497,1073.2912,415.5852" style="stroke:#181818;stroke-width:1.3878;"/></g><g><title>Banco de Dados</title><polygon fill="#A9DCDF" points="1503.2748,459.5882,1503.2748,459.6854,1506.0505,459.3965,1508.8262,459.6776,1511.6019,459.7731,1514.3776,459.2582,1517.1533,459.5882,1517.0454,459.5882,1516.5614,474.0382,1516.621,488.4881,1517.0587,502.9381,1516.1938,517.3881,1517.9216,531.838,1516.2785,546.288,1516.8788,560.738,1517.7528,575.1879,1517.0342,589.6379,1517.1533,604.0878,1517.1533,604.1194,1514.3776,604.0731,1511.6019,604.1704,1508.8262,604.1985,1506.0505,604.3588,1503.2748,604.0878,1504.2062,604.0878,1504.2175,589.6379,1503.6282,575.1879,1503.9182,560.738,1504.2494,546.288,1502.2739,531.838,1504.2165,517.3881,1502.8633,502.9381,1504.0157,488.4881,1502.5878,474.0382,1503.2748,459.5882" style="stroke:#181818;stroke-width:1.3878;"/></g><g><title>Supervisor</title><polygon fill="#000000" fill-opacity="0.00000" points="64.7941,324.8035,64.7941,324.9007,67.0147,324.6118,69.2352,324.8929,71.4558,324.9884,73.6763,324.4735,75.8969,324.8035,75.789,324.8035,75.305,338.6975,75.3647,352.5916,75.8023,366.4856,74.9374,380.3797,76.6653,394.2737,75.0222,408.1678,75.6224,422.0618,76.4964,435.9559,75.7778,449.8499,75.9916,463.7439,75.8526,477.638,76.1447,491.532,76.2288,505.4261,76.7097,519.3201,76.8282,533.2142,76.8396,547.1082,76.2503,561.0023,76.5403,574.8963,76.8715,588.7903,74.896,602.6844,75.8969,616.5784,75.8969,616.8923,73.6763,616.4413,71.4558,616.8254,69.2352,616.3494,67.0147,616.5468,64.7941,616.5784,65.8234,616.5784,64.7265,602.6844,64.9403,588.7903,65.2641,574.8963,65.3718,561.0023,64.7887,547.1082,65.1927,533.2142,63.9997,519.3201,65.1888,505.4261,65.5549,491.532,65.4111,477.638,65.6449,463.7439,64.1237,449.8499,63.889,435.9559,63.9317,422.0618,64.7124,408.1678,64.5214,394.2737,65.7398,380.3797,64.5517,366.4856,64.318,352.5916,65.1109,338.6975,64.7941,324.8035"/><path d="M69.3922,324.8035 L69.7811,324.8035 L68.6255,338.6975 L69.7499,352.5916 L70.1318,366.4856 L68.0721,380.3797 L69.2484,394.2737 L68.603,408.1678 L68.6826,422.0618 L69.2661,435.9559 L68.1129,449.8499 L70.4167,463.7439 L68.2259,477.638 L69.0263,491.532 L70.1915,505.4261 L69.2335,519.3201 L69.5185,533.2142 L69.3331,547.1082 L69.7226,561.0023 L69.8347,574.8963 L70.476,588.7903 L70.634,602.6844 L69.3922,616.5784" fill="none" style="stroke:#0000FF;stroke-width:0.6939;stroke-dasharray:6.9392,6.9392;"/></g><g><title>IHM</title><polygon fill="#000000" fill-opacity="0.00000" points="588.9277,324.8035,588.9277,324.9007,591.1482,324.6118,593.3688,324.8929,595.5893,324.9884,597.8099,324.4735,600.0304,324.8035,599.9226,324.8035,599.4385,338.6975,599.4982,352.5916,599.9358,366.4856,599.0709,380.3797,600.7988,394.2737,599.1557,408.1678,599.756,422.0618,600.6299,435.9559,599.9114,449.8499,600.1251,463.7439,599.9861,477.638,600.2782,491.532,600.3623,505.4261,600.8433,519.3201,600.9618,533.2142,600.9731,547.1082,600.3838,561.0023,600.6738,574.8963,601.005,588.7903,599.0295,602.6844,600.0304,616.5784,600.0304,616.8923,597.8099,616.4413,595.5893,616.8254,593.3688,616.3494,591.1482,616.5468,588.9277,616.5784,589.9569,616.5784,588.86,602.6844,589.0738,588.7903,589.3976,574.8963,589.5053,561.0023,588.9223,547.1082,589.3263,533.2142,588.1333,519.3201,589.3224,505.4261,589.6885,491.532,589.5446,477.638,589.7785,463.7439,588.2572,449.8499,588.0226,435.9559,588.0653,422.0618,588.846,408.1678,588.6549,394.2737,589.8734,380.3797,588.6853,366.4856,588.4516,352.5916,589.2445,338.6975,588.9277,324.8035"/><path d="M593.7851,324.8035 L594.1741,324.8035 L593.0185,338.6975 L594.1428,352.5916 L594.5247,366.4856 L592.465,380.3797 L593.6413,394.2737 L592.9959,408.1678 L593.0755,422.0618 L593.659,435.9559 L592.5058,449.8499 L594.8096,463.7439 L592.6188,477.638 L593.4192,491.532 L594.5844,505.4261 L593.6264,519.3201 L593.9114,533.2142 L593.726,547.1082 L594.1155,561.0023 L594.2276,574.8963 L594.8689,588.7903 L595.0269,602.6844 L593.7851,616.5784" fill="none" style="stroke:#0000FF;stroke-width:0.6939;stroke-dasharray:6.9392,6.9392;"/></g><g><title>Sistema</title><polygon fill="#000000" fill-opacity="0.00000" points="1074.6791,324.8035,1074.6791,324.9007,1076.8996,324.6118,1079.1202,324.8929,1081.3407,324.9884,1083.5613,324.4735,1085.7818,324.8035,1085.674,324.8035,1085.1899,338.6975,1085.2496,352.5916,1085.6872,366.4856,1084.8223,380.3797,1086.5502,394.2737,1084.9071,408.1678,1085.5074,422.0618,1086.3813,435.9559,1085.6628,449.8499,1085.8765,463.7439,1085.7375,477.638,1086.0296,491.532,1086.1137,505.4261,1086.5947,519.3201,1086.7132,533.2142,1086.7245,547.1082,1086.1352,561.0023,1086.4252,574.8963,1086.7564,588.7903,1084.7809,602.6844,1085.7818,616.5784,1085.7818,616.8923,1083.5613,616.4413,1081.3407,616.8254,1079.1202,616.3494,1076.8996,616.5468,1074.6791,616.5784,1075.7083,616.5784,1074.6114,602.6844,1074.8252,588.7903,1075.149,574.8963,1075.2567,561.0023,1074.6737,547.1082,1075.0777,533.2142,1073.8847,519.3201,1075.0738,505.4261,1075.4399,491.532,1075.296,477.638,1075.5299,463.7439,1074.0086,449.8499,1073.774,435.9559,1073.8167,422.0618,1074.5974,408.1678,1074.4063,394.2737,1075.6248,380.3797,1074.4367,366.4856,1074.203,352.5916,1074.9959,338.6975,1074.6791,324.8035"/><path d="M1078.9135,324.8035 L1079.3025,324.8035 L1078.1468,338.6975 L1079.2712,352.5916 L1079.6531,366.4856 L1077.5934,380.3797 L1078.7697,394.2737 L1078.1243,408.1678 L1078.2039,422.0618 L1078.7874,435.9559 L1077.6342,449.8499 L1079.938,463.7439 L1077.7472,477.638 L1078.5476,491.532 L1079.7128,505.4261 L1078.7548,519.3201 L1079.0398,533.2142 L1078.8544,547.1082 L1079.2439,561.0023 L1079.356,574.8963 L1079.9973,588.7903 L1080.1553,602.6844 L1078.9135,616.5784" fill="none" style="stroke:#0000FF;stroke-width:0.6939;stroke-dasharray:6.9392,6.9392;"/></g><g><title>Banco de Dados</title><polygon fill="#000000" fill-opacity="0.00000" points="1504.6627,324.8035,1504.6627,324.9007,1506.8832,324.6118,1509.1038,324.8929,1511.3243,324.9884,1513.5449,324.4735,1515.7654,324.8035,1515.6576,324.8035,1515.1735,338.6975,1515.2332,352.5916,1515.6708,366.4856,1514.8059,380.3797,1516.5338,394.2737,1514.8907,408.1678,1515.491,422.0618,1516.3649,435.9559,1515.6464,449.8499,1515.8601,463.7439,1515.7211,477.638,1516.0132,491.532,1516.0973,505.4261,1516.5783,519.3201,1516.6968,533.2142,1516.7081,547.1082,1516.1188,561.0023,1516.4088,574.8963,1516.74,588.7903,1514.7645,602.6844,1515.7654,616.5784,1515.7654,616.8923,1513.5449,616.4413,1511.3243,616.8254,1509.1038,616.3494,1506.8832,616.5468,1504.6627,616.5784,1505.6919,616.5784,1504.595,602.6844,1504.8088,588.7903,1505.1326,574.8963,1505.2403,561.0023,1504.6573,547.1082,1505.0613,533.2142,1503.8683,519.3201,1505.0574,505.4261,1505.4235,491.532,1505.2796,477.638,1505.5135,463.7439,1503.9922,449.8499,1503.7576,435.9559,1503.8003,422.0618,1504.581,408.1678,1504.3899,394.2737,1505.6084,380.3797,1504.4203,366.4856,1504.1866,352.5916,1504.9795,338.6975,1504.6627,324.8035"/><path d="M1509.9076,324.8035 L1510.2966,324.8035 L1509.1409,338.6975 L1510.2653,352.5916 L1510.6472,366.4856 L1508.5875,380.3797 L1509.7638,394.2737 L1509.1184,408.1678 L1509.198,422.0618 L1509.7815,435.9559 L1508.6283,449.8499 L1510.9321,463.7439 L1508.7413,477.638 L1509.5417,491.532 L1510.7069,505.4261 L1509.7489,519.3201 L1510.0339,533.2142 L1509.8485,547.1082 L1510.238,561.0023 L1510.3501,574.8963 L1510.9914,588.7903 L1511.1494,602.6844 L1509.9076,616.5784" fill="none" style="stroke:#0000FF;stroke-width:0.6939;stroke-dasharray:6.9392,6.9392;"/></g><g class="participant participant-head" data-participant="Supervisor"><text fill="#1E90FF" font-family="Aapex" font-size="23.5934" lengthAdjust="spacing" textLength="118.4855" x="6.9392" y="317.8907">Supervisor</text><polygon fill="#00BFFF" points="92.6737,236.3116,89.4187,240.7591,85.5688,247.2732,80.0627,251.6632,74.2767,254.0639,69.6632,254.2722,63.7337,251.2699,58.1389,249.3085,53.8923,245.3261,51.6648,240.7671,50.3437,237.137,49.0496,232.3955,46.949,228.3153,48.5632,224.3315,49.9774,219.9675,55.2847,216.5161,59.0186,212.0379,63.6402,210.5508,69.1346,209.2702,76.1803,210.031,80.0394,211.851,84.5262,212.676,89.9816,218.2653,91.8834,224.1658,92.7096,228.1919,91.7737,234.8263" style="stroke:#00BFFF;stroke-width:0.6939;"/><path d="M70.3455,258.6672 L70.3455,258.6672 L70.3898,258.7891 L73.3114,257.3168 L76.4928,256.5587 L79.5895,255.5681 L82.4082,253.8126 L85.6118,253.1159 L85.6118,253.1159 L85.592,253.0722 L88.5562,254.2642 L91.6204,255.6762 L94.7542,257.2411 L97.6484,258.279 L100.8781,260.0551 L101.189,260.1964 L101.912,262.9475 L103.5427,266.1111 L105.2842,269.3251 L106.3813,272.2462 L107.8173,275.3214 L107.9015,275.3214 L107.7779,276.4316 L108.0375,277.5419 L108.1123,278.6522 L108.5398,279.7625 L107.8173,280.8727 L107.8173,280.8727 L108.11,281.1654 L105.893,283.3896 L103.4873,285.4249 L101.3579,287.7366 L99.2414,290.0612 L96.7146,291.9755 L96.7146,291.0858 L86.1669,292.8125 L75.6193,291.6097 L65.0717,292.634 L54.5241,291.3648 L43.9765,291.9755 L43.9765,291.9755 L43.9466,291.9456 L42.0794,290.0784 L39.5141,287.5131 L37.3608,285.3598 L35.242,283.241 L32.8737,280.8727 L33.3872,280.8727 L32.8689,279.7625 L33.228,278.6522 L32.1676,277.5419 L33.2246,276.4316 L32.8737,275.3214 L32.8737,275.3214 L33.1816,275.4613 L34.5112,272.3816 L35.9936,269.3713 L36.766,266.0383 L38.0589,262.9419 L39.8129,260.0551 L39.6543,259.7061 L42.8512,258.6342 L45.8693,257.169 L49.1466,256.2742 L51.9814,254.4056 L55.0792,253.1159 L55.0792,253.1159 L55.0069,252.917 L58.1806,254.3585 L61.0452,254.9499 L64.1296,256.1458 L67.4291,257.9331 L70.3455,258.6672" fill="#00BFFF"/></g><g class="participant participant-head" data-participant="IHM"><text fill="#000000" font-family="sans-serif" font-size="19.4298" lengthAdjust="spacing" textLength="38.6069" x="571.0121" y="319.1106">IHM</text><path d="M566.0283,259.4806 L566.2875,259.4806 L565.5171,266.1422 L566.2667,272.8039 L566.5213,279.4655 L565.1482,286.1272 L566.0283,292.7888 M566.0283,276.1347 L566.0283,276.0388 L570.7469,275.6085 L575.4656,275.6616 L580.1843,276.0506 L584.9029,275.2818 L589.6216,276.1347" fill="none" style="stroke:#181818;stroke-width:0.6939;"/><polygon fill="#E2E2F0" points="623.0219,280.1856,620.5807,283.5212,617.6932,288.4068,613.5636,291.6993,609.2241,293.4998,605.764,293.6561,601.3169,291.4043,597.1208,289.9333,593.9358,286.9465,592.2652,283.5273,591.2744,280.8047,590.3038,277.2485,588.7283,274.1884,589.939,271.2005,590.9997,267.9276,594.9801,265.339,597.7806,261.9803,601.2468,260.865,605.3675,259.9046,610.6518,260.4752,613.5461,261.8402,616.9112,262.4589,621.0028,266.6509,622.4291,271.0763,623.0488,274.0958,622.3469,279.0717" style="stroke:#181818;stroke-width:0.6939;"/></g><g class="participant participant-head" data-participant="Sistema"><text fill="#000000" font-family="sans-serif" font-size="19.4298" lengthAdjust="spacing" textLength="72.0261" x="1040.0539" y="319.1106">Sistema</text><polygon fill="#E2E2F0" points="1096.9766,280.1856,1094.5354,283.5212,1091.6479,288.4068,1087.5183,291.6993,1083.1788,293.4998,1079.7187,293.6561,1075.2716,291.4043,1071.0755,289.9333,1067.8906,286.9465,1066.2199,283.5273,1065.2291,280.8047,1064.2585,277.2485,1062.683,274.1884,1063.8937,271.2005,1064.9544,267.9276,1068.9349,265.339,1071.7353,261.9803,1075.2015,260.865,1079.3222,259.9046,1084.6066,260.4752,1087.5009,261.8402,1090.866,262.4589,1094.9575,266.6509,1096.3839,271.0763,1097.0036,274.0958,1096.3016,279.0717" style="stroke:#181818;stroke-width:0.6939;"/><polygon fill="#181818" points="1074.6791,259.4806,1074.7413,259.5552,1076.2218,257.9455,1078.0672,256.7736,1079.7937,255.4591,1081.1295,253.6756,1083.0062,252.5413,1082.9728,252.528,1082.2678,253.8559,1081.7312,255.2511,1081.3115,256.6932,1080.4886,257.9739,1080.2305,259.4806,1080.4683,259.5757,1080.5149,260.7601,1081.2558,262.2223,1082.0814,263.7183,1082.4142,265.0172,1083.0062,266.4198,1083.0264,266.444,1081.3313,265.0206,1079.7282,263.7075,1078.0807,262.3412,1076.518,261.0765,1074.6791,259.4806" style="stroke:#181818;stroke-width:1.3878;"/></g><g class="participant participant-head" data-participant="DB"><text fill="#000000" font-family="sans-serif" font-size="19.4298" lengthAdjust="spacing" textLength="147.7243" x="1432.1884" y="319.1106">Banco de Dados</text><path d="M1485.2329,248.3778 L1485.2329,248.3778 L1485.3232,248.4708 L1487.5528,245.7658 L1490.3122,243.6058 L1492.8991,241.2684 L1494.9186,238.3474 L1497.7235,236.2342 L1497.7169,236.1867 L1500.1854,235.6266 L1502.6872,235.3059 L1505.212,235.1516 L1507.6573,234.4239 L1510.2141,234.4994 L1510.2141,234.4994 L1510.261,234.8376 L1512.6587,234.4612 L1515.1935,235.0725 L1517.7451,235.8041 L1520.1993,235.8348 L1522.7047,236.2342 L1522.734,236.2643 L1525.189,238.6488 L1527.7777,241.1706 L1530.3018,243.6261 L1532.949,246.2081 L1535.1953,248.3778 L1536.0231,248.3778 L1536.0332,255.5946 L1535.5094,262.8114 L1535.7672,270.0282 L1536.0616,277.245 L1535.1953,284.4617 L1535.1953,284.4617 L1534.8852,284.1428 L1532.9889,287.1906 L1530.0715,289.1881 L1527.9304,291.984 L1524.9899,293.9577 L1522.7047,296.6054 L1522.6988,296.5635 L1520.2695,297.4054 L1517.7043,297.2695 L1515.2192,297.7106 L1512.7409,298.2001 L1510.2141,298.3402 L1510.2141,298.3402 L1510.2494,298.5945 L1507.7156,297.9908 L1505.2422,297.8217 L1502.6711,296.9496 L1500.2457,297.1261 L1497.7235,296.6054 L1497.9592,296.8478 L1495.4165,294.3733 L1492.9908,292.019 L1490.0214,289.1056 L1487.4506,286.602 L1485.2329,284.4617 L1484.4663,284.4617 L1485.1602,277.245 L1484.9904,270.0282 L1486.0735,262.8114 L1485.0174,255.5946 L1485.2329,248.3778" fill="#E2E2F0" style="stroke:#181818;stroke-width:0.6939;"/><path d="M1485.2329,248.3778 L1485.2329,248.3778 L1485.3232,248.4708 L1487.5528,250.6233 L1490.3122,253.3207 L1492.8991,255.8407 L1494.9186,257.7772 L1497.7235,260.5214 L1497.7169,260.474 L1500.1854,260.6078 L1502.6872,260.9811 L1505.212,261.5207 L1507.6573,261.4869 L1510.2141,262.2562 L1510.2141,262.2562 L1510.261,262.5945 L1512.6587,261.5242 L1515.1935,261.4415 L1517.7451,261.4793 L1520.1993,260.816 L1522.7047,260.5214 L1522.734,260.5516 L1525.189,258.0786 L1527.7777,255.7429 L1530.3018,253.341 L1532.949,251.0656 L1535.1953,248.3778" fill="none" style="stroke:#181818;stroke-width:0.6939;"/></g><g><title>IHM</title><polygon fill="#A9DCDF" points="587.5398,371.5822,587.5398,371.6794,590.3155,371.3905,593.0912,371.6716,595.8669,371.7671,598.6426,371.2522,601.4183,371.5822,601.3104,371.5822,600.8264,385.259,600.886,398.9358,601.3237,412.6126,600.4588,426.2894,602.1867,439.9662,600.5435,453.643,601.1438,467.3198,602.0178,480.9966,601.2992,494.6734,601.513,508.3502,601.3739,522.027,601.666,535.7038,601.7502,549.3806,602.2311,563.0574,602.3496,576.7342,602.361,590.411,601.4183,604.0878,601.4183,604.2056,598.6426,604.3023,595.8669,604.4127,593.0912,603.7542,590.3155,604.4017,587.5398,604.0878,587.1283,604.0878,588.2807,590.411,586.8528,576.7342,587.4448,563.0574,588.5691,549.3806,587.4722,535.7038,587.686,522.027,588.0098,508.3502,588.1175,494.6734,587.5344,480.9966,587.9384,467.3198,586.7454,453.643,587.9345,439.9662,588.3006,426.2894,588.1568,412.6126,588.3906,398.9358,586.8694,385.259,587.5398,371.5822" style="stroke:#181818;stroke-width:1.3878;"/></g><g><title>Sistema</title><polygon fill="#A9DCDF" points="1073.2912,415.5852,1073.2912,415.6824,1076.0669,415.3935,1078.8426,415.6746,1081.6183,415.7701,1084.394,415.2552,1087.1697,415.5852,1087.0618,415.5852,1086.5778,429.0497,1086.6374,442.5141,1087.0751,455.9786,1086.2102,469.4431,1087.9381,482.9076,1086.295,496.372,1086.8952,509.8365,1087.7692,523.301,1087.0506,536.7655,1087.2644,550.2299,1087.1253,563.6944,1087.4174,577.1589,1087.5016,590.6234,1087.1697,604.0878,1087.1697,604.3588,1084.394,604.3983,1081.6183,604.4021,1078.8426,604.2056,1076.0669,604.3023,1073.2912,604.0878,1074.2658,604.0878,1072.2903,590.6234,1074.2329,577.1589,1072.8797,563.6944,1074.0321,550.2299,1072.6042,536.7655,1073.1962,523.301,1074.3205,509.8365,1073.2236,496.372,1073.4374,482.9076,1073.7612,469.4431,1073.8689,455.9786,1073.2858,442.5141,1073.6898,429.0497,1073.2912,415.5852" style="stroke:#181818;stroke-width:1.3878;"/></g><g><title>Banco de Dados</title><polygon fill="#A9DCDF" points="1503.2748,459.5882,1503.2748,459.6854,1506.0505,459.3965,1508.8262,459.6776,1511.6019,459.7731,1514.3776,459.2582,1517.1533,459.5882,1517.0454,459.5882,1516.5614,474.0382,1516.621,488.4881,1517.0587,502.9381,1516.1938,517.3881,1517.9216,531.838,1516.2785,546.288,1516.8788,560.738,1517.7528,575.1879,1517.0342,589.6379,1517.1533,604.0878,1517.1533,604.1194,1514.3776,604.0731,1511.6019,604.1704,1508.8262,604.1985,1506.0505,604.3588,1503.2748,604.0878,1504.2062,604.0878,1504.2175,589.6379,1503.6282,575.1879,1503.9182,560.738,1504.2494,546.288,1502.2739,531.838,1504.2165,517.3881,1502.8633,502.9381,1504.0157,488.4881,1502.5878,474.0382,1503.2748,459.5882" style="stroke:#181818;stroke-width:1.3878;"/></g><g class="message" data-participant-1="Supervisor" data-participant-2="IHM"><polygon fill="#00BFFF" points="570.8857,366.0308,570.9218,366.1211,573.5902,366.9631,576.4703,368.3344,579.2814,369.5333,581.8659,370.1655,584.7642,371.5822,584.7508,371.5488,581.9152,372.5093,579.1469,373.638,576.4254,374.8837,573.5426,375.7263,570.8857,377.1336,571.0668,377.3147,571.7898,375.8171,573.0416,374.8483,574.3578,373.944,575.2988,372.6644,576.4371,371.5822,576.4594,371.6045,575.3164,370.4615,574.2749,369.42,573.1845,368.3296,572.1876,367.3327,570.8857,366.0308" style="stroke:#00BFFF;stroke-width:1.3878;"/><path d="M70.3455,371.5822 L70.3455,371.9711 L84.0987,370.8155 L97.8519,371.9399 L111.605,372.3218 L125.3582,370.2621 L139.1114,371.4384 L152.8645,370.793 L166.6177,370.8725 L180.3709,371.4561 L194.124,370.3028 L207.8772,372.6067 L221.6304,370.4159 L235.3835,371.2162 L249.1367,372.3815 L262.8899,371.4235 L276.6431,371.7085 L290.3962,371.5231 L304.1494,371.9125 L317.9026,372.0247 L331.6557,372.666 L345.4089,372.8239 L359.1621,372.8391 L372.9152,372.0534 L386.6684,372.44 L400.4216,372.8816 L414.1747,370.2477 L427.9279,372.8377 L441.6811,371.0335 L455.4343,372.57 L469.1874,370.6662 L482.9406,371.4554 L496.6938,372.9545 L510.4469,371.492 L524.2001,371.777 L537.9533,372.2088 L551.7064,372.3524 L565.4596,371.575 L579.2128,371.5822" fill="none" style="stroke:#00BFFF;stroke-width:1.3878;"/><text fill="#000000" font-family="sans-serif" font-size="18.042" lengthAdjust="spacing" textLength="339.8209" x="80.0604" y="363.5202">Visualizar status da linha de produ&#231;&#227;o N</text></g><g class="message" data-participant-1="IHM" data-participant-2="Sistema"><polygon fill="#00BFFF" points="1056.6371,410.0338,1056.6732,410.1241,1059.3416,410.9661,1062.2217,412.3374,1065.0328,413.5363,1067.6173,414.1685,1070.5156,415.5852,1070.5022,415.5518,1067.6666,416.5123,1064.8983,417.641,1062.1768,418.8868,1059.294,419.7293,1056.6371,421.1366,1056.8182,421.3177,1057.5412,419.8201,1058.793,418.8513,1060.1092,417.947,1061.0502,416.6674,1062.1885,415.5852,1062.2108,415.6075,1061.0678,414.4645,1060.0263,413.423,1058.9359,412.3326,1057.939,411.3357,1056.6371,410.0338" style="stroke:#00BFFF;stroke-width:1.3878;"/><path d="M601.4183,415.5852 L601.4183,415.9741 L615.4651,414.8185 L629.512,415.9429 L643.5588,416.3248 L657.6057,414.2651 L671.6525,415.4414 L685.6994,414.796 L699.7462,414.8756 L713.793,415.4591 L727.8399,414.3058 L741.8867,416.6097 L755.9336,414.4189 L769.9804,415.2192 L784.0273,416.3845 L798.0741,415.4265 L812.121,415.7115 L826.1678,415.5261 L840.2147,415.9156 L854.2615,416.0277 L868.3083,416.669 L882.3552,416.827 L896.402,416.8421 L910.4489,416.0564 L924.4957,416.443 L938.5426,416.8847 L952.5894,414.2507 L966.6363,416.8408 L980.6831,415.0365 L994.7299,416.573 L1008.7768,414.6692 L1022.8236,415.4584 L1036.8705,416.9575 L1050.9173,415.495 L1064.9642,415.5852" fill="none" style="stroke:#00BFFF;stroke-width:1.3878;"/><text fill="#000000" font-family="sans-serif" font-size="18.042" lengthAdjust="spacing" textLength="319.4334" x="611.1332" y="407.5232">Solicita dados da linha de produ&#231;&#227;o N</text></g><g class="message" data-participant-1="Sistema" data-participant-2="DB"><polygon fill="#00BFFF" points="1486.6207,454.0368,1486.6568,454.1271,1489.3252,454.9691,1492.2053,456.3404,1495.0164,457.5393,1497.6009,458.1715,1500.4991,459.5882,1500.4858,459.5548,1497.6502,460.5153,1494.8819,461.644,1492.1604,462.8898,1489.2776,463.7324,1486.6207,465.1396,1486.8018,465.3207,1487.5248,463.8231,1488.7766,462.8543,1490.0928,461.9501,1491.0337,460.6704,1492.1721,459.5882,1492.1944,459.6105,1491.0514,458.4675,1490.0099,457.4261,1488.9195,456.3356,1487.9226,455.3387,1486.6207,454.0368" style="stroke:#00BFFF;stroke-width:1.3878;"/><path d="M1087.1697,459.5882 L1087.1697,459.9771 L1101.231,458.8215 L1115.2923,459.9459 L1129.3536,460.3278 L1143.4149,458.2681 L1157.4762,459.4444 L1171.5376,458.799 L1185.5989,458.8786 L1199.6602,459.4621 L1213.7215,458.3089 L1227.7828,460.6127 L1241.8441,458.4219 L1255.9054,459.2223 L1269.9668,460.3875 L1284.0281,459.4295 L1298.0894,459.7145 L1312.1507,459.5291 L1326.212,459.9186 L1340.2733,460.0307 L1354.3346,460.672 L1368.396,460.83 L1382.4573,460.8451 L1396.5186,460.0594 L1410.5799,460.4461 L1424.6412,460.8877 L1438.7025,458.2537 L1452.7638,460.8438 L1466.8251,459.0395 L1480.8865,460.576 L1494.9478,459.5882" fill="none" style="stroke:#00BFFF;stroke-width:1.3878;"/><text fill="#000000" font-family="sans-serif" font-size="18.042" lengthAdjust="spacing" textLength="333.9031" x="1096.8846" y="451.5262">Consulta dados da linha de produ&#231;&#227;o N</text></g><g class="message" data-participant-1="DB" data-participant-2="Sistema"><polygon fill="#00BFFF" points="1102.436,498.0398,1102.4721,498.1301,1099.5891,498.9722,1096.9178,500.3434,1094.1776,501.5423,1091.2106,502.1745,1088.5575,503.5912,1088.5442,503.5578,1091.2599,504.5183,1094.043,505.647,1096.8729,506.8928,1099.5415,507.7354,1102.436,509.1426,1102.6171,509.3237,1101.1195,507.8261,1100.1507,506.8574,1099.2464,505.9531,1097.9668,504.6734,1096.8846,503.5912,1096.9069,503.6135,1097.9844,502.4705,1099.1635,501.4291,1100.2936,500.3386,1101.5173,499.3417,1102.436,498.0398" style="stroke:#00BFFF;stroke-width:1.3878;"/><path d="M1094.1089,503.5912 L1094.1089,503.9802 L1108.1702,502.8245 L1122.2315,503.9489 L1136.2928,504.3308 L1150.3542,502.2711 L1164.4155,503.4474 L1178.4768,502.802 L1192.5381,502.8816 L1206.5994,503.4651 L1220.6607,502.3119 L1234.722,504.6157 L1248.7834,502.4249 L1262.8447,503.2253 L1276.906,504.3905 L1290.9673,503.4325 L1305.0286,503.7175 L1319.0899,503.5321 L1333.1512,503.9216 L1347.2125,504.0337 L1361.2739,504.675 L1375.3352,504.833 L1389.3965,504.8482 L1403.4578,504.0624 L1417.5191,504.4491 L1431.5804,504.8907 L1445.6417,502.2567 L1459.7031,504.8468 L1473.7644,503.0426 L1487.8257,504.579 L1501.887,503.5912" fill="none" style="stroke:#00BFFF;stroke-width:1.3878;stroke-dasharray:2.7757,2.7757;"/><text fill="#000000" font-family="sans-serif" font-size="18.042" lengthAdjust="spacing" textLength="382.7969" x="1110.763" y="495.5292">Retorna dados atuais da linha de produ&#231;&#227;o N</text></g><g class="message" data-participant-1="Sistema" data-participant-2="IHM"><polygon fill="#00BFFF" points="616.6846,542.0429,616.7207,542.1331,613.8377,542.9752,611.1664,544.3464,608.4262,545.5454,605.4592,546.1775,602.8061,547.5942,602.7928,547.5609,605.5085,548.5213,608.2916,549.6501,611.1215,550.8958,613.7901,551.7384,616.6846,553.1456,616.8657,553.3267,615.3681,551.8292,614.3993,550.8604,613.495,549.9561,612.2154,548.6764,611.1332,547.5942,611.1555,547.6166,612.233,546.4735,613.4121,545.4321,614.5422,544.3416,615.7659,543.3447,616.6846,542.0429" style="stroke:#00BFFF;stroke-width:1.3878;"/><path d="M608.3575,547.5942 L608.3575,547.9832 L622.4043,546.8276 L636.4512,547.9519 L650.498,548.3338 L664.5449,546.2741 L678.5917,547.4504 L692.6386,546.805 L706.6854,546.8846 L720.7323,547.4681 L734.7791,546.3149 L748.826,548.6187 L762.8728,546.4279 L776.9196,547.2283 L790.9665,548.3935 L805.0133,547.4355 L819.0602,547.7205 L833.107,547.5351 L847.1539,547.9246 L861.2007,548.0367 L875.2476,548.678 L889.2944,548.836 L903.3413,548.8512 L917.3881,548.0654 L931.4349,548.4521 L945.4818,548.8937 L959.5286,546.2597 L973.5755,548.8498 L987.6223,547.0456 L1001.6692,548.582 L1015.716,546.6782 L1029.7629,547.4675 L1043.8097,548.9665 L1057.8566,547.5041 L1071.9034,547.5942" fill="none" style="stroke:#00BFFF;stroke-width:1.3878;stroke-dasharray:2.7757,2.7757;"/><text fill="#000000" font-family="sans-serif" font-size="18.042" lengthAdjust="spacing" textLength="438.5647" x="625.0116" y="539.5322">Converte dados atuais para formato de visualiza&#231;&#227;o</text></g><g class="message" data-participant-1="IHM" data-participant-2="Supervisor"><polygon fill="#00BFFF" points="85.6118,586.0459,85.6479,586.1361,82.7649,586.9782,80.0936,588.3494,77.3534,589.5484,74.3865,590.1805,71.7334,591.5972,71.72,591.5639,74.4358,592.5243,77.2188,593.6531,80.0487,594.8988,82.7173,595.7414,85.6118,597.1486,85.7929,597.3297,84.2954,595.8322,83.3266,594.8634,82.4223,593.9591,81.1426,592.6795,80.0604,591.5972,80.0827,591.6196,81.1603,590.4765,82.3394,589.4351,83.4695,588.3446,84.6931,587.3477,85.6118,586.0459" style="stroke:#00BFFF;stroke-width:1.3878;"/><path d="M77.2847,591.5972 L77.2847,591.9862 L91.0379,590.8306 L104.7911,591.9549 L118.5442,592.3368 L132.2974,590.2771 L146.0506,591.4534 L159.8038,590.808 L173.5569,590.8876 L187.3101,591.4711 L201.0633,590.3179 L214.8164,592.6217 L228.5696,590.4309 L242.3228,591.2313 L256.0759,592.3965 L269.8291,591.4385 L283.5823,591.7235 L297.3354,591.5381 L311.0886,591.9276 L324.8418,592.0398 L338.595,592.681 L352.3481,592.839 L366.1013,592.8542 L379.8545,592.0684 L393.6076,592.4551 L407.3608,592.8967 L421.114,590.2627 L434.8671,592.8528 L448.6203,591.0486 L462.3735,592.585 L476.1266,590.6812 L489.8798,591.4705 L503.633,592.9696 L517.3861,591.5071 L531.1393,591.7921 L544.8925,592.2239 L558.6457,592.3675 L572.3988,591.59 L586.152,591.5972" fill="none" style="stroke:#00BFFF;stroke-width:1.3878;stroke-dasharray:2.7757,2.7757;"/><text fill="#000000" font-family="sans-serif" font-size="18.042" lengthAdjust="spacing" textLength="483.8861" x="93.9389" y="583.5353">Exibe dados atuais da linha de produ&#231;&#227;o N no dashboard</text></g><text fill="#1E90FF" font-family="Arial" font-size="19.4298" font-weight="bold" lengthAdjust="spacing" textLength="221.0328" x="41.6353" y="666.4936">Casos de Uso cobertos:</text><text fill="#1E90FF" font-family="Arial" font-size="19.4298" lengthAdjust="spacing" textLength="6.2564" x="41.6353" y="692.9569">-</text><text fill="#1E90FF" font-family="Arial" font-size="19.4298" font-weight="bold" lengthAdjust="spacing" textLength="84.6748" x="52.9434" y="692.9569">MDC-002</text><text fill="#1E90FF" font-family="Arial" font-size="19.4298" lengthAdjust="spacing" textLength="216.7194" x="142.67" y="692.9569">Monitoramento remoto</text><polygon fill="none" points="146.4968,85.5476,146.4968,85.8393,160.3351,84.9726,174.1733,85.8158,188.0116,86.1023,201.8499,84.5575,215.6882,85.4397,229.5264,84.9557,243.3647,85.0153,257.203,85.453,271.0412,84.5881,284.8795,86.316,298.7178,84.6729,312.5561,85.2731,326.3943,86.1471,340.2326,85.4285,354.0709,85.6423,367.9091,85.5032,381.7474,85.7954,395.5857,85.8795,409.424,86.3604,423.2622,86.4789,437.1005,86.4903,450.9388,85.901,464.777,86.191,478.6153,86.5222,492.4536,84.5467,506.2919,86.4893,520.1301,85.1361,533.9684,86.2884,547.8067,84.8606,561.6449,85.4525,575.4832,86.5768,589.3215,85.4799,603.1598,85.6937,616.998,86.0175,630.8363,86.1252,644.6746,85.5422,658.5129,85.9462,672.3511,84.7532,686.1894,85.9423,700.0277,86.3084,713.8659,86.1645,727.7042,86.3984,741.5425,84.8771,755.3808,84.6425,769.219,84.6852,783.0573,85.4659,796.8956,85.2748,810.7338,86.4933,824.5721,85.3052,838.4104,85.0715,852.2487,85.8644,866.0869,84.6221,879.9252,84.8271,893.7635,86.4482,907.6017,86.1522,921.44,86.5669,935.2783,85.101,949.1166,85.9906,962.9548,86.367,976.7931,84.892,990.6314,85.4145,1004.4696,85.7224,1018.3079,86.4521,1032.1462,85.5418,1045.9845,86.1896,1059.8227,84.779,1073.661,84.6077,1087.4993,86.2465,1101.3376,84.5526,1115.1758,86.2539,1129.0141,85.8344,1142.8524,85.1758,1156.6906,85.0566,1170.5289,86.1843,1184.3672,85.1322,1198.2055,86.369,1212.0437,84.7805,1225.882,86.4045,1239.7203,86.2197,1253.5585,85.8876,1267.3968,85.6131,1281.2351,86.556,1295.0734,86.3991,1308.9116,85.7825,1322.7499,85.9198,1336.5882,85.3668,1350.4264,86.5419,1364.2647,85.7625,1378.103,85.7871,1391.9413,84.7033,1405.7795,84.9852,1419.6178,86.2842,1433.4561,86.144,1447.2943,85.5476,1447.2867,85.5292,1448.7093,86.0196,1450.1997,86.6735,1451.589,87.0835,1453.2559,88.1638,1454.6545,88.5963,1454.9706,88.7272,1455.4892,90.1615,1456.171,91.6633,1456.4253,92.9881,1457.1307,94.4998,1457.7032,95.9564,1457.1653,95.9564,1458.0974,110.4566,1458.0456,124.9568,1458.4698,139.457,1457.3844,153.9572,1457.7032,168.4574,1457.6457,168.4336,1457.283,170.0079,1456.7262,171.5019,1455.6549,172.7827,1455.1814,174.3112,1454.6545,175.8175,1454.6809,175.8813,1453.0743,176.1662,1451.773,177.188,1450.2841,177.757,1448.7485,178.2134,1447.2943,178.8662,1447.2943,179.0636,1433.4561,179.8775,1419.6178,178.432,1405.7795,179.3033,1391.9413,179.2626,1378.103,179.0269,1364.2647,179.0618,1350.4264,179.0237,1336.5882,178,1322.7499,178.3099,1308.9116,178.2257,1295.0734,178.9548,1281.2351,178.9885,1267.3968,179.0907,1253.5585,178.4624,1239.7203,178.7725,1225.882,178.6994,1212.0437,179.6668,1198.2055,179.4582,1184.3672,178.1923,1170.5289,178.765,1156.6906,178.0651,1142.8524,179.2664,1129.0141,179.7107,1115.1758,179.622,1101.3376,178.2617,1087.4993,179.5101,1073.661,177.8353,1059.8227,179.144,1045.9845,178.4508,1032.1462,179.0004,1018.3079,179.1997,1004.4696,179.5214,990.6314,177.8671,976.7931,179.5261,962.9548,179.1135,949.1166,179.3593,935.2783,179.904,921.44,178.8738,907.6017,179.1094,893.7635,179.1624,879.9252,179.1399,866.0869,178.8651,852.2487,179.8525,838.4104,178.02,824.5721,179.6507,810.7338,178.0002,796.8956,178.1163,783.0573,178.9217,769.219,178.9054,755.3808,178.1822,741.5425,179.4404,727.7042,179.0173,713.8659,179.8747,700.0277,179.792,686.1894,178.2441,672.3511,178.3139,658.5129,178.6869,644.6746,179.3596,630.8363,179.4255,616.998,179.2842,603.1598,178.3916,589.3215,179.7494,575.4832,179.7458,561.6449,178.8006,547.8067,178.5344,533.9684,178.3091,520.1301,178.5684,506.2919,179.0569,492.4536,178.7713,478.6153,178.2864,464.777,179.5426,450.9388,178.2293,437.1005,179.5634,423.2622,179.4591,409.424,179.3823,395.5857,179.8273,381.7474,178.5249,367.9091,178.4489,354.0709,179.5863,340.2326,178.0378,326.3943,178.5414,312.5561,179.0265,298.7178,178.9615,284.8795,178.3687,271.0412,178.8065,257.203,179.8996,243.3647,179.7662,229.5264,178.0387,215.6882,178.9752,201.8499,178.153,188.0116,178.8297,174.1733,179.2728,160.3351,179.4489,146.4968,178.8662,146.3791,178.5821,145.0957,178.4276,143.5542,177.6503,141.9824,176.7996,140.5253,176.2259,139.1366,175.8175,139.2762,175.8753,138.6337,174.3897,137.9101,172.8705,137.0202,171.2824,136.979,170.0459,136.088,168.4574,135.6552,168.4574,135.3551,153.9572,135.9945,139.457,136.9064,124.9568,136.9421,110.4566,136.088,95.9564,136.103,95.9626,136.6331,94.4576,137.38,93.0424,137.9968,91.5733,138.3099,89.9784,139.1366,88.5963,139.2099,88.7732,140.7076,88.2254,142.0425,87.2846,143.4767,86.5836,145.1442,86.4457,146.4968,85.5476" style="stroke:#000000;stroke-width:1.3878;"/><text fill="#1E90FF" font-family="Arial" font-size="27.7569" font-weight="bold" lengthAdjust="spacing" textLength="1266.1015" x="163.8448" y="142.9766">Diagrama de Sequ&#234;ncia - M&#243;dulo de Dados e Conectividade (MDC) - Monitoramento Remoto</text><!--SRC=[bPAxJiD044Nx_Og12YmP8KeN58c3e0X58kZ7tY6ijDun-x20tw50ekKJycFCEWclWeSbozBix9axrtVFkDOcJL3FpfP7VUgiKfPMv3H4xXL0KTG6Lnux1EbQqbrQlxZM89GmNx_gP3dNQzGSW63AZjfe1gDHgWVpUdgO6zcPoC8W5naMr77aeb1vo6QMKjXA0soUPUh93oQmLmqdfz4_vFB5-LorxA9dksap8LA7IcF41WFbslu4NVkXQ1ymG3rHwWC9vMacLN1jGa9h7j53Y1XJ08rWZRiT5-qzwxH-NZynN6PnPi18emHvCsCxlO8bMzEQABT63tw7x7HllnbMJwfiNKZs7npPgvv0-LdBWiH5jqF8KcX-8BqBs5aY4WRoWlvolqUFSCE-mpWwE-oC6paRFxA8TuihcDsRXlwc0fn0CTmsZ5voSCCSoO-vcsB8FX1S1OQM6r76ePBSo7ykvLp2LHuVdnJ5jtpvCLzZkhQqDm00]--></g></svg>