<svg xmlns="http://www.w3.org/2000/svg" xmlns:xlink="http://www.w3.org/1999/xlink" contentStyleType="text/css" data-diagram-type="SEQUENCE" height="750.4375px" preserveAspectRatio="none" style="width:965px;height:750px;background:#EEEBDC;" version="1.1" viewBox="0 0 965 750" width="965.155px" zoomAndPan="magnify"><defs/><g><rect fill="#EEEBDC" height="750.4375" style="stroke:none;stroke-width:1.0736;" width="965.155" x="0" y="0"/><rect fill="#FFFFCC" height="28.601" rx="2.684" ry="2.684" style="stroke:#FFDD88;stroke-width:3.2208;" width="953.6883" x="5.3679" y="5.3679"/><text fill="#000000" font-family="monospace" font-size="10.7359" lengthAdjust="spacing" textLength="381.3489" x="10.7359" y="21.4717">Please&#160;use&#160;'!option&#160;handwritten&#160;true'&#160;to&#160;enable&#160;handwritten</text><g><title>M.dulo Edge</title><polygon fill="#A9DCDF" points="416.4501,287.4429,416.4501,287.5181,418.5973,287.2946,420.7445,287.512,422.8917,287.5859,425.0388,287.1876,427.186,287.4429,427.1026,287.4429,426.7281,298.0627,426.7743,308.6825,427.1128,319.3023,426.4438,329.922,427.7804,340.5418,426.5093,351.1616,426.9737,361.7814,427.6497,372.4012,427.0939,383.021,427.2593,393.6408,427.1517,404.2606,427.3777,414.8804,427.4427,425.5002,427.8148,436.12,427.9064,446.7398,427.9153,457.3595,427.4594,467.9793,427.6837,478.5991,427.9399,489.2189,426.4118,499.8387,427.9144,510.4585,426.8677,521.0783,427.7591,531.6981,426.6546,542.3179,427.1125,552.9377,427.9822,563.5575,427.1337,574.1773,427.2991,584.7971,427.5496,595.4168,427.6329,606.0366,427.186,616.6564,427.186,616.655,425.0388,616.7592,422.8917,616.4516,420.7445,616.7582,418.5973,616.8526,416.4501,616.6564,416.9274,616.6564,417.1083,606.0366,415.9315,595.4168,415.75,584.7971,415.783,574.1773,416.3869,563.5575,416.2391,552.9377,417.1817,542.3179,416.2626,531.6981,416.0818,521.0783,416.6952,510.4585,415.7342,499.8387,415.8928,489.2189,417.1468,478.5991,416.9179,467.9793,417.2387,457.3595,416.1047,446.7398,416.7928,436.12,417.084,425.5002,415.943,414.8804,416.3472,404.2606,416.5854,393.6408,417.1499,383.021,416.4456,372.4012,416.9467,361.7814,415.8556,351.1616,415.723,340.5418,416.9908,329.922,415.6804,319.3023,416.9966,308.6825,416.672,298.0627,416.4501,287.4429" style="stroke:#181818;stroke-width:1.0736;"/></g><g><title>Usu.rio</title><polygon fill="#000000" fill-opacity="0.00000" points="151.0194,251.2565,151.0194,251.3317,152.7371,251.1083,154.4549,251.3257,156.1726,251.3996,157.8904,251.0012,159.6081,251.2565,159.5247,251.2565,159.1502,261.9726,159.1964,272.6886,159.5349,283.4047,158.8658,294.1208,160.2025,304.8368,158.9314,315.5529,159.3958,326.269,160.0718,336.985,159.516,347.7011,159.6814,358.4171,159.5738,369.1332,159.7998,379.8493,159.8648,390.5653,160.2369,401.2814,160.3285,411.9975,160.3373,422.7135,159.8815,433.4296,160.1058,444.1456,160.362,454.8617,158.8338,465.5778,160.3365,476.2938,159.2898,487.0099,160.1812,497.726,159.0766,508.442,159.5346,519.1581,160.4043,529.8741,159.5558,540.5902,159.7211,551.3063,159.9716,562.0223,160.055,572.7384,159.6039,583.4545,159.9164,594.1705,158.9936,604.8866,159.9134,615.6027,159.6081,626.3187,159.6081,626.5149,157.8904,626.4778,156.1726,626.5381,154.4549,626.1458,152.7371,626.0853,151.0194,626.3187,150.3523,626.3187,150.9562,615.6027,150.8084,604.8866,151.7509,594.1705,150.8319,583.4545,150.6511,572.7384,151.2645,562.0223,150.3035,551.3063,150.4621,540.5902,151.7161,529.8741,151.4871,519.1581,151.8079,508.442,150.6739,497.726,151.3621,487.0099,151.6533,476.2938,150.5122,465.5778,150.9165,454.8617,151.1546,444.1456,151.7191,433.4296,151.0149,422.7135,151.516,411.9975,150.4249,401.2814,150.2923,390.5653,151.5601,379.8493,150.2497,369.1332,151.5658,358.4171,151.2412,347.7011,150.7318,336.985,150.6396,326.269,151.5119,315.5529,150.698,304.8368,151.6548,294.1208,150.426,283.4047,151.6823,272.6886,151.5393,261.9726,151.0194,251.2565"/><path d="M155.1501,251.2565 L155.451,251.2565 L154.557,261.9726 L155.4268,272.6886 L155.7222,283.4047 L154.1289,294.1208 L155.0389,304.8368 L154.5396,315.5529 L154.6011,326.269 L155.0525,336.985 L154.1604,347.7011 L155.9426,358.4171 L154.2479,369.1332 L154.867,379.8493 L155.7684,390.5653 L155.0273,401.2814 L155.2478,411.9975 L155.1044,422.7135 L155.4057,433.4296 L155.4924,444.1456 L155.9885,454.8617 L156.1107,465.5778 L156.1224,476.2938 L155.5146,487.0099 L155.8137,497.726 L156.1553,508.442 L154.1178,519.1581 L156.1214,529.8741 L154.7257,540.5902 L155.9142,551.3063 L154.4415,562.0223 L155.0521,572.7384 L156.2117,583.4545 L155.0803,594.1705 L155.3008,604.8866 L155.6348,615.6027 L155.1501,626.3187" fill="none" style="stroke:#0000FF;stroke-width:0.5368;stroke-dasharray:5.3679,5.3679;"/></g><g><title>M.dulo Edge</title><polygon fill="#000000" fill-opacity="0.00000" points="417.5237,251.2565,417.5237,251.3317,419.2415,251.1083,420.9592,251.3257,422.6769,251.3996,424.3947,251.0012,426.1124,251.2565,426.029,251.2565,425.6545,261.9726,425.7007,272.6886,426.0392,283.4047,425.3702,294.1208,426.7068,304.8368,425.4358,315.5529,425.9001,326.269,426.5762,336.985,426.0203,347.7011,426.1857,358.4171,426.0781,369.1332,426.3041,379.8493,426.3692,390.5653,426.7412,401.2814,426.8329,411.9975,426.8417,422.7135,426.3858,433.4296,426.6101,444.1456,426.8663,454.8617,425.3382,465.5778,426.8409,476.2938,425.7941,487.0099,426.6855,497.726,425.581,508.442,426.0389,519.1581,426.9086,529.8741,426.0601,540.5902,426.2255,551.3063,426.476,562.0223,426.5593,572.7384,426.1082,583.4545,426.4208,594.1705,425.4979,604.8866,426.4177,615.6027,426.1124,626.3187,426.1124,626.5149,424.3947,626.4778,422.6769,626.5381,420.9592,626.1458,419.2415,626.0853,417.5237,626.3187,416.8566,626.3187,417.4605,615.6027,417.3127,604.8866,418.2553,594.1705,417.3362,583.4545,417.1554,572.7384,417.7688,562.0223,416.8078,551.3063,416.9664,540.5902,418.2204,529.8741,417.9914,519.1581,418.3123,508.442,417.1782,497.726,417.8664,487.0099,418.1576,476.2938,417.0166,465.5778,417.4208,454.8617,417.659,444.1456,418.2234,433.4296,417.5192,422.7135,418.0203,411.9975,416.9292,401.2814,416.7966,390.5653,418.0644,379.8493,416.754,369.1332,418.0701,358.4171,417.7456,347.7011,417.2361,336.985,417.1439,326.269,418.0162,315.5529,417.2024,304.8368,418.1591,294.1208,416.9303,283.4047,418.1866,272.6886,418.0437,261.9726,417.5237,251.2565"/><path d="M420.9024,251.2565 L421.2033,251.2565 L420.3094,261.9726 L421.1791,272.6886 L421.4746,283.4047 L419.8813,294.1208 L420.7912,304.8368 L420.2919,315.5529 L420.3535,326.269 L420.8049,336.985 L419.9128,347.7011 L421.695,358.4171 L420.0002,369.1332 L420.6194,379.8493 L421.5208,390.5653 L420.7797,401.2814 L421.0001,411.9975 L420.8567,422.7135 L421.158,433.4296 L421.2448,444.1456 L421.7408,454.8617 L421.863,465.5778 L421.8748,476.2938 L421.2669,487.0099 L421.566,497.726 L421.9077,508.442 L419.8701,519.1581 L421.8737,529.8741 L420.478,540.5902 L421.6666,551.3063 L420.1938,562.0223 L420.8044,572.7384 L421.964,583.4545 L420.8327,594.1705 L421.0532,604.8866 L421.3872,615.6027 L420.9024,626.3187" fill="none" style="stroke:#0000FF;stroke-width:0.5368;stroke-dasharray:5.3679,5.3679;"/></g><g><title>Monitor</title><polygon fill="#000000" fill-opacity="0.00000" points="701.491,251.2565,701.491,251.3317,703.2087,251.1083,704.9264,251.3257,706.6442,251.3996,708.3619,251.0012,710.0797,251.2565,709.9962,251.2565,709.6218,261.9726,709.6679,272.6886,710.0065,283.4047,709.3374,294.1208,710.674,304.8368,709.403,315.5529,709.8673,326.269,710.5434,336.985,709.9876,347.7011,710.1529,358.4171,710.0454,369.1332,710.2713,379.8493,710.3364,390.5653,710.7085,401.2814,710.8001,411.9975,710.8089,422.7135,710.353,433.4296,710.5774,444.1456,710.8336,454.8617,709.3054,465.5778,710.8081,476.2938,709.7613,487.0099,710.6528,497.726,709.5482,508.442,710.0061,519.1581,710.8758,529.8741,710.0273,540.5902,710.1927,551.3063,710.4432,562.0223,710.5265,572.7384,710.0755,583.4545,710.388,594.1705,709.4651,604.8866,710.385,615.6027,710.0797,626.3187,710.0797,626.5149,708.3619,626.4778,706.6442,626.5381,704.9264,626.1458,703.2087,626.0853,701.491,626.3187,700.8238,626.3187,701.4277,615.6027,701.28,604.8866,702.2225,594.1705,701.3034,583.4545,701.1227,572.7384,701.736,562.0223,700.7751,551.3063,700.9336,540.5902,702.1877,529.8741,701.9587,519.1581,702.2795,508.442,701.1455,497.726,701.8336,487.0099,702.1248,476.2938,700.9838,465.5778,701.388,454.8617,701.6262,444.1456,702.1907,433.4296,701.4865,422.7135,701.9876,411.9975,700.8964,401.2814,700.7639,390.5653,702.0316,379.8493,700.7213,369.1332,702.0374,358.4171,701.7128,347.7011,701.2033,336.985,701.1112,326.269,701.9835,315.5529,701.1696,304.8368,702.1264,294.1208,700.8975,283.4047,702.1538,272.6886,702.0109,261.9726,701.491,251.2565"/><path d="M705.7645,251.2565 L706.0653,251.2565 L705.1714,261.9726 L706.0411,272.6886 L706.3366,283.4047 L704.7433,294.1208 L705.6532,304.8368 L705.154,315.5529 L705.2155,326.269 L705.6669,336.985 L704.7748,347.7011 L706.557,358.4171 L704.8623,369.1332 L705.4814,379.8493 L706.3828,390.5653 L705.6417,401.2814 L705.8621,411.9975 L705.7187,422.7135 L706.02,433.4296 L706.1068,444.1456 L706.6029,454.8617 L706.725,465.5778 L706.7368,476.2938 L706.129,487.0099 L706.4281,497.726 L706.7697,508.442 L704.7321,519.1581 L706.7357,529.8741 L705.34,540.5902 L706.5286,551.3063 L705.0559,562.0223 L705.6664,572.7384 L706.826,583.4545 L705.6947,594.1705 L705.9152,604.8866 L706.2492,615.6027 L705.7645,626.3187" fill="none" style="stroke:#0000FF;stroke-width:0.5368;stroke-dasharray:5.3679,5.3679;"/></g><g><title>Cloud</title><polygon fill="#000000" fill-opacity="0.00000" points="786.527,251.2565,786.527,251.3317,788.2447,251.1083,789.9625,251.3257,791.6802,251.3996,793.3979,251.0012,795.1157,251.2565,795.0322,251.2565,794.6578,261.9726,794.704,272.6886,795.0425,283.4047,794.3734,294.1208,795.7101,304.8368,794.439,315.5529,794.9034,326.269,795.5794,336.985,795.0236,347.7011,795.1889,358.4171,795.0814,369.1332,795.3073,379.8493,795.3724,390.5653,795.7445,401.2814,795.8361,411.9975,795.8449,422.7135,795.389,433.4296,795.6134,444.1456,795.8696,454.8617,794.3414,465.5778,795.8441,476.2938,794.7974,487.0099,795.6888,497.726,794.5842,508.442,795.0421,519.1581,795.9119,529.8741,795.0634,540.5902,795.2287,551.3063,795.4792,562.0223,795.5625,572.7384,795.1115,583.4545,795.424,594.1705,794.5011,604.8866,795.421,615.6027,795.1157,626.3187,795.1157,626.5149,793.3979,626.4778,791.6802,626.5381,789.9625,626.1458,788.2447,626.0853,786.527,626.3187,785.8599,626.3187,786.4638,615.6027,786.316,604.8866,787.2585,594.1705,786.3394,583.4545,786.1587,572.7384,786.772,562.0223,785.8111,551.3063,785.9697,540.5902,787.2237,529.8741,786.9947,519.1581,787.3155,508.442,786.1815,497.726,786.8697,487.0099,787.1608,476.2938,786.0198,465.5778,786.4241,454.8617,786.6622,444.1456,787.2267,433.4296,786.5225,422.7135,787.0236,411.9975,785.9324,401.2814,785.7999,390.5653,787.0677,379.8493,785.7573,369.1332,787.0734,358.4171,786.7488,347.7011,786.2393,336.985,786.1472,326.269,787.0195,315.5529,786.2056,304.8368,787.1624,294.1208,785.9336,283.4047,787.1898,272.6886,787.0469,261.9726,786.527,251.2565"/><path d="M790.6196,251.2565 L790.9204,251.2565 L790.0265,261.9726 L790.8962,272.6886 L791.1917,283.4047 L789.5984,294.1208 L790.5083,304.8368 L790.0091,315.5529 L790.0706,326.269 L790.522,336.985 L789.6299,347.7011 L791.4121,358.4171 L789.7173,369.1332 L790.3365,379.8493 L791.2379,390.5653 L790.4968,401.2814 L790.7172,411.9975 L790.5738,422.7135 L790.8751,433.4296 L790.9619,444.1456 L791.4579,454.8617 L791.5801,465.5778 L791.5919,476.2938 L790.984,487.0099 L791.2832,497.726 L791.6248,508.442 L789.5872,519.1581 L791.5908,529.8741 L790.1951,540.5902 L791.3837,551.3063 L789.911,562.0223 L790.5215,572.7384 L791.6811,583.4545 L790.5498,594.1705 L790.7703,604.8866 L791.1043,615.6027 L790.6196,626.3187" fill="none" style="stroke:#0000FF;stroke-width:0.5368;stroke-dasharray:5.3679,5.3679;"/></g><g class="participant participant-head" data-participant="USER"><text fill="#1E90FF" font-family="Aapex" font-size="18.251" lengthAdjust="spacing" textLength="66.8897" x="118.6481" y="245.909">Usu&#225;rio</text><polygon fill="#00BFFF" points="172.586,182.8023,170.0681,186.2427,167.09,191.2818,162.8306,194.6778,158.3547,196.5348,154.7859,196.696,150.1991,194.3735,145.8711,192.8562,142.5861,189.7756,140.863,186.249,139.8411,183.4409,138.84,179.773,137.215,176.6166,138.4637,173.5349,139.5577,170.1591,143.6632,167.4892,146.5516,164.025,150.1268,162.8747,154.377,161.884,159.8273,162.4726,162.8126,163.8805,166.2834,164.5186,170.5035,168.8423,171.9747,173.4068,172.6138,176.5212,171.8899,181.6534" style="stroke:#00BFFF;stroke-width:0.5368;"/><path d="M155.3137,200.0959 L155.3137,200.0959 L155.348,200.1901 L157.6081,199.0512 L160.069,198.4648 L162.4646,197.6985 L164.645,196.3405 L167.1232,195.8015 L167.1232,195.8015 L167.1079,195.7677 L169.4009,196.6898 L171.7713,197.7821 L174.1954,198.9927 L176.4343,199.7955 L178.9327,201.1694 L179.1732,201.2788 L179.7325,203.4069 L180.9939,205.8542 L182.3411,208.3404 L183.1898,210.6001 L184.3006,212.9789 L184.3657,212.9789 L184.2701,213.8378 L184.471,214.6966 L184.5288,215.5555 L184.8595,216.4144 L184.3006,217.2732 L184.3006,217.2732 L184.527,217.4997 L182.812,219.2202 L180.951,220.7946 L179.3038,222.5829 L177.6666,224.3811 L175.7119,225.8619 L175.7119,225.1737 L167.5526,226.5094 L159.3934,225.579 L151.2341,226.3714 L143.0748,225.3895 L134.9156,225.8619 L134.9156,225.8619 L134.8925,225.8388 L133.4481,224.3944 L131.4637,222.41 L129.7979,220.7443 L128.1589,219.1052 L126.3269,217.2732 L126.7241,217.2732 L126.3232,216.4144 L126.601,215.5555 L125.7806,214.6966 L126.5983,213.8378 L126.3269,212.9789 L126.3269,212.9789 L126.565,213.0871 L127.5936,210.7048 L128.7403,208.3762 L129.3378,205.7978 L130.3379,203.4026 L131.6948,201.1694 L131.5721,200.8995 L134.0451,200.0703 L136.3798,198.9369 L138.915,198.2447 L141.1079,196.7992 L143.5043,195.8015 L143.5043,195.8015 L143.4483,195.6477 L145.9034,196.7627 L148.1193,197.2202 L150.5053,198.1453 L153.0577,199.528 L155.3137,200.0959" fill="#00BFFF"/></g><g class="participant participant-head" data-participant="EDGE"><polygon fill="#1E90FF" points="360.2448,210.2949,360.2448,210.5206,371.4399,209.8501,382.6351,210.5024,393.8302,210.724,405.0253,209.529,416.2205,210.2115,427.4156,209.8371,438.6108,209.8832,449.8059,210.2218,461.0011,209.5527,472.1962,210.8893,483.3914,210.2949,483.3051,210.0865,483.7439,210.3868,484.2097,210.7522,484.5183,210.7382,484.919,210.9464,485.2892,211.081,485.2787,211.0767,485.5055,211.4851,485.6827,211.8729,485.9545,212.3,486.14,212.6912,486.0754,212.9789,486.3184,212.9789,486.1665,219.8829,486.2413,226.7869,486.3267,233.6909,485.8173,240.595,486.0754,247.499,486.2997,247.5919,485.8201,247.8379,485.9374,248.3312,485.44,248.5699,485.4238,249.0079,485.2892,249.3968,485.3908,249.642,484.903,249.5379,484.5445,249.7461,484.1969,249.9804,483.828,250.1633,483.3914,250.1829,483.3914,250.1787,472.1962,250.4913,461.0011,249.5684,449.8059,250.4883,438.6108,250.7715,427.4156,250.6602,416.2205,250.8411,405.0253,249.6643,393.8302,249.4828,382.6351,249.5158,371.4399,250.1197,360.2448,250.1829,360.2178,250.118,359.9585,250.251,359.4617,249.8107,359.0591,249.5978,358.7577,249.6295,358.3469,249.3968,358.1264,249.3055,358.0181,248.9462,358.247,248.7266,358.0193,248.3178,357.9609,247.9791,357.5608,247.499,357.4456,247.499,357.675,240.595,357.7721,233.6909,357.3917,226.7869,357.5265,219.8829,357.5608,212.9789,357.6024,212.9962,357.9335,212.6886,357.8739,212.2192,358.1854,211.9035,358.0066,211.3848,358.3469,211.081,358.2542,210.8571,358.7954,211.0903,359.0079,210.5296,359.5553,210.7777,359.8935,210.5205,360.2448,210.2949" style="stroke:#00BFFF;stroke-width:0.5368;"/><text fill="#A9DCDF" font-family="Impact" font-size="18.251" lengthAdjust="spacing" textLength="113.4843" x="365.0759" y="237.3203">M&#243;dulo Edge</text></g><g class="participant participant-head" data-participant="Monitor"><polygon fill="#1E90FF" points="666.5785,210.2949,666.5785,210.5206,677.7805,209.8501,688.9824,210.5024,700.1843,210.724,711.3863,209.529,722.5882,210.2115,733.7902,209.8371,744.9921,210.2949,744.9396,210.1681,745.3623,210.4296,745.6566,210.3808,746.2066,210.9496,746.4241,210.7154,746.8899,211.081,746.8246,211.054,747.19,211.5198,747.176,211.8284,747.3842,212.2291,747.5083,212.595,747.6761,212.9789,747.74,212.9789,747.7616,219.8829,747.8857,226.7869,747.9162,233.6909,747.9191,240.595,747.6761,247.499,747.7602,247.5338,747.6721,247.942,747.5938,248.3543,746.966,248.5389,747.2715,249.1102,746.8899,249.3968,746.8493,249.2988,746.5835,249.7305,746.063,249.5476,745.7419,249.8458,745.4732,250.2709,744.9921,250.1829,744.9921,250.1306,733.7902,250.296,722.5882,250.5465,711.3863,250.6298,700.1843,250.1787,688.9824,250.4913,677.7805,249.5684,666.5785,250.1829,666.6175,250.277,666.274,250.207,665.8803,250.0155,665.5238,249.9139,664.9941,249.3943,664.6807,249.3968,664.4651,249.3075,664.318,248.9322,664.3468,248.6296,664.144,248.2312,664.2771,247.9719,663.8946,247.499,663.832,247.499,663.7718,240.595,663.9762,233.6909,663.6559,226.7869,663.7088,219.8829,663.8946,212.9789,664.1091,213.0678,664.1958,212.659,664.4518,212.3203,664.2598,211.7961,664.629,211.5043,664.6807,211.081,664.7615,211.2763,664.9956,210.7676,665.4267,210.7349,665.8366,210.651,666.2882,210.6676,666.5785,210.2949" style="stroke:#00BFFF;stroke-width:0.5368;"/><text fill="#A9DCDF" font-family="Impact" font-size="18.251" lengthAdjust="spacing" textLength="68.7513" x="671.4097" y="237.3203">Monitor</text></g><g class="participant participant-head" data-participant="Cloud"><polygon fill="#1E90FF" points="761.0959,210.2949,761.0959,210.5206,771.0044,209.8501,780.9129,210.5024,790.8213,210.724,800.7298,209.529,810.6383,210.2115,820.5468,210.2949,820.4883,210.1539,820.8738,210.3254,821.2966,210.5868,821.5908,210.538,822.1409,211.1069,822.4446,211.081,822.2362,210.9947,822.5364,211.4335,822.9019,211.8993,822.8879,212.208,823.0961,212.6087,823.2307,212.9789,823.2193,212.9789,823.2946,219.8829,823.3163,226.7869,823.4403,233.6909,823.4709,240.595,823.2307,247.499,823.4553,247.592,823.1577,247.9134,823.0695,248.3216,822.9912,248.7338,822.3634,248.9185,822.4446,249.3968,822.5375,249.6212,822.0244,249.456,821.7586,249.8878,821.2381,249.7048,820.9169,250.0031,820.5468,250.1829,820.5468,250.9791,810.6383,250.1306,800.7298,250.296,790.8213,250.5465,780.9129,250.6298,771.0044,250.1787,761.0959,250.1829,761.1352,250.2779,760.6379,249.8365,760.3757,249.9625,760.0323,249.8925,759.6385,249.701,759.1981,249.3968,759.4007,249.4808,758.8811,248.9511,758.668,248.5484,758.5209,248.173,758.5497,247.8705,758.4119,247.499,758.3416,247.499,758.6558,240.595,758.3494,233.6909,758.2892,226.7869,758.4936,219.8829,758.4119,212.9789,758.1915,212.8876,758.3975,212.5282,758.9409,212.3086,759.0276,211.8999,759.2837,211.5612,759.1981,211.081,759.154,210.9747,759.6213,211.0294,760.0381,210.9618,760.2721,210.4532,760.7032,210.4205,761.0959,210.2949" style="stroke:#00BFFF;stroke-width:0.5368;"/><text fill="#A9DCDF" font-family="Impact" font-size="18.251" lengthAdjust="spacing" textLength="49.7886" x="765.927" y="237.3203">Cloud</text></g><g><title>M.dulo Edge</title><polygon fill="#A9DCDF" points="416.4501,287.4429,416.4501,287.5181,418.5973,287.2946,420.7445,287.512,422.8917,287.5859,425.0388,287.1876,427.186,287.4429,427.1026,287.4429,426.7281,298.0627,426.7743,308.6825,427.1128,319.3023,426.4438,329.922,427.7804,340.5418,426.5093,351.1616,426.9737,361.7814,427.6497,372.4012,427.0939,383.021,427.2593,393.6408,427.1517,404.2606,427.3777,414.8804,427.4427,425.5002,427.8148,436.12,427.9064,446.7398,427.9153,457.3595,427.4594,467.9793,427.6837,478.5991,427.9399,489.2189,426.4118,499.8387,427.9144,510.4585,426.8677,521.0783,427.7591,531.6981,426.6546,542.3179,427.1125,552.9377,427.9822,563.5575,427.1337,574.1773,427.2991,584.7971,427.5496,595.4168,427.6329,606.0366,427.186,616.6564,427.186,616.655,425.0388,616.7592,422.8917,616.4516,420.7445,616.7582,418.5973,616.8526,416.4501,616.6564,416.9274,616.6564,417.1083,606.0366,415.9315,595.4168,415.75,584.7971,415.783,574.1773,416.3869,563.5575,416.2391,552.9377,417.1817,542.3179,416.2626,531.6981,416.0818,521.0783,416.6952,510.4585,415.7342,499.8387,415.8928,489.2189,417.1468,478.5991,416.9179,467.9793,417.2387,457.3595,416.1047,446.7398,416.7928,436.12,417.084,425.5002,415.943,414.8804,416.3472,404.2606,416.5854,393.6408,417.1499,383.021,416.4456,372.4012,416.9467,361.7814,415.8556,351.1616,415.723,340.5418,416.9908,329.922,415.6804,319.3023,416.9966,308.6825,416.672,298.0627,416.4501,287.4429" style="stroke:#181818;stroke-width:1.0736;"/></g><g class="message" data-participant-1="USER" data-participant-2="EDGE"><polygon fill="#00BFFF" points="403.5671,283.1485,403.595,283.2184,405.6592,283.8697,407.8871,284.9305,410.0617,285.8579,412.061,286.347,414.303,287.4429,414.2926,287.4171,412.0991,288.16,409.9576,289.0332,407.8524,289.9968,405.6224,290.6486,403.5671,291.7372,403.7072,291.8773,404.2665,290.7189,405.2348,289.9694,406.253,289.2699,406.9809,288.28,407.8614,287.4429,407.8787,287.4601,406.9945,286.5759,406.1889,285.7703,405.3453,284.9268,404.5742,284.1556,403.5671,283.1485" style="stroke:#00BFFF;stroke-width:1.0736;"/><path d="M155.3137,287.4429 L155.3137,287.7437 L165.926,286.8498 L176.5383,287.7196 L187.1506,288.015 L197.7629,286.4217 L208.3752,287.3316 L218.9875,286.8324 L229.5997,286.8939 L240.212,287.3453 L250.8243,286.4532 L261.4366,288.2354 L272.0489,286.5407 L282.6612,287.1598 L293.2735,288.0612 L303.8857,287.3201 L314.498,287.5406 L325.1103,287.3971 L335.7226,287.6984 L346.3349,287.7852 L356.9472,288.2813 L367.5595,288.4035 L378.1718,288.4152 L388.784,287.8074 L399.3963,288.1065 L410.0086,287.4429" fill="none" style="stroke:#00BFFF;stroke-width:1.0736;"/><text fill="#000000" font-family="sans-serif" font-size="13.9566" lengthAdjust="spacing" textLength="240.7382" x="162.8289" y="281.2064">Deploy remoto de um modelo de ML</text></g><g class="message" data-participant-1="EDGE" data-participant-2="USER"><polygon fill="#00BFFF" points="167.1232,317.1877,167.1511,317.2575,164.921,317.9089,162.8545,318.9697,160.7348,319.8971,158.4397,320.3861,156.3873,321.4821,156.377,321.4562,158.4778,322.1992,160.6307,323.0724,162.8198,324.036,164.8841,324.6878,167.1232,325.7764,167.2633,325.9165,166.1048,324.758,165.3554,324.0086,164.6559,323.3091,163.666,322.3192,162.8289,321.4821,162.8461,321.4993,163.6796,320.6151,164.5918,319.8095,165.466,318.966,166.4125,318.1948,167.1232,317.1877" style="stroke:#00BFFF;stroke-width:1.0736;"/><path d="M160.6817,321.4821 L160.6817,321.7829 L171.294,320.889 L181.9063,321.7587 L192.5185,322.0542 L203.1308,320.4609 L213.7431,321.3708 L224.3554,320.8715 L234.9677,320.9331 L245.58,321.3845 L256.1923,320.4924 L266.8045,322.2746 L277.4168,320.5798 L288.0291,321.199 L298.6414,322.1004 L309.2537,321.3593 L319.866,321.5797 L330.4783,321.4363 L341.0905,321.7376 L351.7028,321.8244 L362.3151,322.3204 L372.9274,322.4426 L383.5397,322.4544 L394.152,321.8465 L404.7643,322.1457 L415.3765,321.4821" fill="none" style="stroke:#00BFFF;stroke-width:1.0736;stroke-dasharray:2.1472,2.1472;"/><text fill="#000000" font-family="sans-serif" font-size="13.9566" lengthAdjust="spacing" textLength="151.8204" x="173.5647" y="315.2456">Confirma&#231;&#227;o de deploy</text></g><path d="M272.1711,335.4387 L272.3717,335.4387 L271.7757,341.2361 L272.3556,347.0334 L272.5525,352.8308 L271.4903,358.6282 L272.1711,364.4255 L272.1711,364.2031 L282.792,363.2045 L293.4128,363.3276 L304.0337,364.2304 L314.6545,362.4462 L325.2754,366.0106 L335.8962,362.6211 L346.517,363.8594 L357.1379,365.6622 L367.7587,364.18 L378.3796,364.6209 L389.0004,364.3341 L399.6213,364.9366 L410.2421,365.1102 L420.863,366.1023 L431.4838,366.3467 L442.1047,366.3702 L452.7255,365.1545 L463.3464,365.7527 L473.9672,366.436 L484.588,362.3609 L495.2089,366.3681 L505.8297,363.5767 L516.4506,365.9538 L527.0714,363.0083 L537.6923,364.2294 L548.3131,366.5487 L558.934,364.286 L569.5548,364.4255 L569.6553,364.4255 L569.878,360.7754 L569.952,357.1252 L569.5511,353.475 L569.8289,349.8248 L569.5548,346.1746 L569.1686,345.7883 L567.5995,344.2193 L565.6304,342.2501 L563.4133,340.033 L561.3798,337.9995 L558.8189,335.4387 L558.8189,334.0557 L548.2024,333.5716 L537.5858,333.6597 L526.9692,335.2701 L516.3526,334.876 L505.736,337.3895 L495.1194,334.9386 L484.5028,334.4566 L473.8863,336.0922 L463.2697,333.5296 L452.6531,333.9525 L442.0365,337.2966 L431.4199,336.686 L420.8033,337.5415 L410.1867,334.5174 L399.5702,336.3525 L388.9536,337.129 L378.337,334.0862 L367.7204,335.1643 L357.1038,335.7994 L346.4872,337.3046 L335.8706,335.4267 L325.2541,336.763 L314.6375,333.8533 L304.0209,333.4998 L293.4043,336.8805 L282.7877,333.3862 L272.1711,335.4387" fill="#FEFFDD" style="stroke:#181818;stroke-width:0.5368;"/><path d="M558.8189,335.4387 L559.3046,335.4387 L559.0161,337.5859 L558.5633,339.733 L558.4813,341.8802 L559.2567,344.0274 L558.8189,346.1746 L558.8189,345.8889 L560.9661,346.7394 L563.1133,345.6471 L565.2605,346.7638 L567.4076,346.6367 L569.5548,346.1746 L569.7201,346.3399 L567.4395,344.0593 L565.7508,342.3705 L563.5273,340.1471 L561.0803,337.7001 L558.8189,335.4387" fill="#FEFFDD" style="stroke:#181818;stroke-width:0.5368;"/><text fill="#000000" font-family="sans-serif" font-size="13.9566" lengthAdjust="spacing" textLength="274.946" x="278.6127" y="355.7263">A partir de um agendamento pr&#233;-definido</text><g class="message" data-participant-1="EDGE" data-participant-2="EDGE"><path d="M427.186,396.0019 L427.186,396.1022 L436.2041,395.8042 L445.2223,396.0942 L454.2404,396.1926 L463.2585,395.6615 L472.2767,396.0019" fill="none" style="stroke:#00BFFF;stroke-width:1.0736;"/><path d="M472.2767,396.0019 L472.377,396.0019 L472.079,398.7933 L472.3689,401.5846 L472.4674,404.3759 L471.9363,407.1672 L472.2767,409.9586" fill="none" style="stroke:#00BFFF;stroke-width:1.0736;"/><path d="M428.2596,409.9586 L428.2596,410.0589 L437.063,409.7609 L445.8664,410.0508 L454.6698,410.1493 L463.4733,409.6182 L472.2767,409.9586" fill="none" style="stroke:#00BFFF;stroke-width:1.0736;"/><polygon fill="#00BFFF" points="438.9955,405.6642,439.0234,405.7341,436.7932,406.3854,434.7268,407.4462,432.6071,408.3736,430.312,408.8627,428.2596,409.9586,428.2493,409.9327,430.3501,410.6757,432.503,411.5489,434.6921,412.5125,436.7564,413.1643,438.9955,414.2529,439.1356,414.393,437.9771,413.2346,437.2277,412.4851,436.5282,411.7856,435.5383,410.7957,434.7011,409.9586,434.7184,409.9758,435.5519,409.0916,436.464,408.286,437.3382,407.4425,438.2848,406.6713,438.9955,405.6642" style="stroke:#00BFFF;stroke-width:1.0736;"/><text fill="#000000" font-family="sans-serif" font-size="13.9566" lengthAdjust="spacing" textLength="154.2768" x="434.7011" y="389.7655">Executar modelo de ML</text></g><path d="M285.0542,423.9152 L285.2548,423.9152 L284.6588,429.7126 L285.2386,435.5099 L285.4356,441.3073 L284.3734,447.1047 L285.0542,452.9021 L285.0542,452.6796 L295.9618,451.6811 L306.8695,451.8041 L317.7771,452.7069 L328.6848,450.9227 L339.5924,454.4871 L350.5001,451.0976 L361.4077,452.3359 L372.3154,454.1387 L383.223,452.6565 L394.1306,453.0974 L405.0383,452.8106 L415.9459,453.4132 L426.8536,453.5867 L437.7612,454.5788 L448.6689,454.8232 L459.5765,454.8467 L470.4842,453.631 L481.3918,454.2293 L492.2995,454.9125 L503.2071,450.8374 L514.1148,454.8446 L525.0224,452.0532 L535.9301,454.4303 L546.8377,451.4849 L557.7454,452.9021 L557.68,452.9021 L558.4531,449.2519 L557.6988,445.6017 L557.8458,441.9515 L558.0685,438.3013 L557.7454,434.6511 L558.0262,434.9319 L555.5955,432.5013 L553.6448,430.5505 L550.9176,427.8233 L549.3486,426.2543 L547.0095,423.9152 L547.0095,425.4846 L536.0947,425.1879 L525.1799,425.6702 L514.2651,422.5322 L503.3503,422.0481 L492.4355,422.1362 L481.5207,423.7466 L470.6059,423.3526 L459.691,425.866 L448.7762,423.4151 L437.8614,422.9331 L426.9466,424.5687 L416.0318,422.0061 L405.117,422.429 L394.2022,425.7731 L383.2874,425.1625 L372.3726,426.018 L361.4578,422.9939 L350.543,424.829 L339.6282,425.6055 L328.7134,422.5628 L317.7986,423.6408 L306.8838,424.2759 L295.969,425.7811 L285.0542,423.9152" fill="#FEFFDD" style="stroke:#181818;stroke-width:0.5368;"/><path d="M547.0095,423.9152 L547.0055,423.9152 L547.4509,426.0624 L546.481,428.2096 L546.3632,430.3567 L547.4901,432.5039 L547.0095,434.6511 L547.0095,433.9669 L549.1567,435.1368 L551.3038,434.8483 L553.451,434.3954 L555.5982,434.3135 L557.7454,434.6511 L558.0549,434.9606 L555.3962,432.3019 L553.8504,430.7561 L550.9308,427.8366 L549.5733,426.479 L547.0095,423.9152" fill="#FEFFDD" style="stroke:#181818;stroke-width:0.5368;"/><text fill="#000000" font-family="sans-serif" font-size="13.9566" lengthAdjust="spacing" textLength="250.452" x="291.4957" y="444.2028">An&#225;lise do fluxo de dados de sensores</text><g class="message" data-participant-1="EDGE" data-participant-2="EDGE"><path d="M427.186,484.4784 L427.186,484.5787 L436.2041,484.2808 L445.2223,484.5707 L454.2404,484.6692 L463.2585,484.1381 L472.2767,484.4784" fill="none" style="stroke:#00BFFF;stroke-width:1.0736;"/><path d="M472.2767,484.4784 L472.377,484.4784 L472.079,487.2698 L472.3689,490.0611 L472.4674,492.8524 L471.9363,495.6438 L472.2767,498.4351" fill="none" style="stroke:#00BFFF;stroke-width:1.0736;"/><path d="M428.2596,498.4351 L428.2596,498.5354 L437.063,498.2374 L445.8664,498.5273 L454.6698,498.6258 L463.4733,498.0947 L472.2767,498.4351" fill="none" style="stroke:#00BFFF;stroke-width:1.0736;"/><polygon fill="#00BFFF" points="438.9955,494.1407,439.0234,494.2106,436.7932,494.8619,434.7268,495.9227,432.6071,496.8501,430.312,497.3392,428.2596,498.4351,428.2493,498.4093,430.3501,499.1522,432.503,500.0254,434.6921,500.989,436.7564,501.6408,438.9955,502.7294,439.1356,502.8695,437.9771,501.7111,437.2277,500.9616,436.5282,500.2621,435.5383,499.2722,434.7011,498.4351,434.7184,498.4524,435.5519,497.5681,436.464,496.7625,437.3382,495.919,438.2848,495.1478,438.9955,494.1407" style="stroke:#00BFFF;stroke-width:1.0736;"/><text fill="#000000" font-family="sans-serif" font-size="13.9566" lengthAdjust="spacing" textLength="247.4653" x="434.7011" y="478.242">Verifica gera&#231;&#227;o de relat&#243;rio preditivo</text></g><path d="M326.9241,512.3917 L327.1247,512.3917 L326.5287,518.1891 L327.1085,523.9865 L327.3055,529.7838 L326.2433,535.5812 L326.9241,541.3786 L326.9241,541.1561 L337.9126,540.1576 L348.901,540.2807 L359.8895,541.1835 L370.878,539.3993 L381.8665,542.9636 L392.855,539.5741 L403.8435,540.8124 L414.8319,542.6152 L425.8204,541.133 L436.8089,541.5739 L447.7974,541.2871 L458.7859,541.8897 L469.7743,542.0632 L480.7628,543.0553 L491.7513,543.2997 L502.7398,543.3232 L513.7283,541.3786 L513.9713,541.3786 L514.1707,537.7284 L514.3984,534.0782 L513.04,530.428 L514.3758,526.7778 L513.7283,523.1276 L513.5282,522.9275 L511.9413,521.3406 L509.0999,518.4992 L507.2405,516.6398 L505.64,515.0393 L502.9924,512.3917 L502.9924,512.2522 L491.9881,512.6932 L480.9839,513.3612 L469.9796,513.5833 L458.9753,512.3805 L447.9711,513.214 L436.9668,510.7529 L425.9625,513.2059 L414.9582,513.9611 L403.954,513.6644 L392.9497,514.1467 L381.9454,511.0087 L370.9412,510.5246 L359.9369,510.6127 L348.9326,512.2231 L337.9284,511.8291 L326.9241,512.3917" fill="#FEFFDD" style="stroke:#181818;stroke-width:0.5368;"/><path d="M502.9924,512.3917 L503.6427,512.3917 L502.8257,514.5389 L502.665,516.6861 L503.2102,518.8332 L502.356,520.9804 L502.9924,523.1276 L502.9924,522.6322 L505.1396,523.7469 L507.2868,523.5433 L509.4339,523.8285 L511.5811,522.8205 L513.7283,523.1276 L513.9437,523.343 L511.9795,521.3788 L509.1152,518.5145 L507.2221,516.6214 L505.2246,514.6239 L502.9924,512.3917" fill="#FEFFDD" style="stroke:#181818;stroke-width:0.5368;"/><text fill="#000000" font-family="sans-serif" font-size="13.9566" lengthAdjust="spacing" textLength="165.1908" x="333.3656" y="532.6793">Caso anomalia detectada</text><g class="message" data-participant-1="EDGE" data-participant-2="Monitor"><polygon fill="#00BFFF" points="692.9023,568.6606,692.9302,568.7305,694.9944,569.3818,697.2223,570.4426,699.3969,571.37,701.3961,571.8591,703.6381,572.955,703.6278,572.9291,701.4343,573.6721,699.2928,574.5453,697.1876,575.5089,694.9576,576.1607,692.9023,577.2493,693.0424,577.3894,693.6016,576.231,694.57,575.4815,695.5882,574.782,696.316,573.7921,697.1966,572.955,697.2139,572.9722,696.3297,572.088,695.524,571.2824,694.6805,570.4389,693.9093,569.6677,692.9023,568.6606" style="stroke:#00BFFF;stroke-width:1.0736;"/><path d="M427.186,572.955 L427.186,573.2558 L438.0723,572.3619 L448.9586,573.2316 L459.8449,573.5271 L470.7313,571.9338 L481.6176,572.8437 L492.5039,572.3445 L503.3902,572.406 L514.2765,572.8574 L525.1628,571.9653 L536.0491,573.7475 L546.9354,572.0527 L557.8217,572.6719 L568.7081,573.5733 L579.5944,572.8322 L590.4807,573.0526 L601.367,572.9092 L612.2533,573.2105 L623.1396,573.2973 L634.0259,573.7933 L644.9122,573.9155 L655.7985,573.9273 L666.6849,573.3194 L677.5712,573.6186 L688.4575,573.9602 L699.3438,572.955" fill="none" style="stroke:#00BFFF;stroke-width:1.0736;"/><text fill="#000000" font-family="sans-serif" font-size="13.9566" lengthAdjust="spacing" textLength="217.5562" x="434.7011" y="566.7185">Notifica usu&#225;rio sobre resultados</text></g><g class="message" data-participant-1="EDGE" data-participant-2="Cloud"><polygon fill="#00BFFF" points="777.9383,602.6998,777.9662,602.7696,780.0304,603.421,782.2583,604.4818,784.4329,605.4092,786.4322,605.8982,788.6742,606.9941,788.6638,606.9683,786.4703,607.7113,784.3288,608.5845,782.2236,609.5481,779.9936,610.1999,777.9383,611.2885,778.0784,611.4286,778.6377,610.2701,779.606,609.5207,780.6242,608.8212,781.3521,607.8313,782.2326,606.9941,782.2499,607.0114,781.3657,606.1272,780.5601,605.3216,779.7165,604.478,778.9454,603.7069,777.9383,602.6998" style="stroke:#00BFFF;stroke-width:1.0736;"/><path d="M427.186,606.9941 L427.186,607.295 L438.0101,606.4011 L448.8341,607.2708 L459.6582,607.5663 L470.4822,605.973 L481.3063,606.8829 L492.1303,606.3836 L502.9544,606.4452 L513.7784,606.8966 L524.6025,606.0045 L535.4266,607.7867 L546.2506,606.0919 L557.0747,606.711 L567.8987,607.6125 L578.7228,606.8714 L589.5468,607.0918 L600.3709,606.9484 L611.1949,607.2497 L622.019,607.3364 L632.843,607.8325 L643.6671,607.9547 L654.4912,607.9665 L665.3152,607.3586 L676.1393,607.6577 L686.9633,607.9994 L697.7874,605.9618 L708.6114,607.9654 L719.4355,606.5697 L730.2595,607.7583 L741.0836,606.2855 L751.9076,606.8961 L762.7317,608.0557 L773.5558,606.9244 L784.3798,606.9941" fill="none" style="stroke:#00BFFF;stroke-width:1.0736;"/><text fill="#000000" font-family="sans-serif" font-size="13.9566" lengthAdjust="spacing" textLength="253.0201" x="434.7011" y="600.7577">Envia dados consolidados para Nuvem</text></g><text fill="#1E90FF" font-family="Arial" font-size="15.0302" font-weight="bold" lengthAdjust="spacing" textLength="170.9832" x="32.2076" y="664.9313">Casos de Uso cobertos:</text><text fill="#1E90FF" font-family="Arial" font-size="15.0302" lengthAdjust="spacing" textLength="4.8397" x="32.2076" y="685.4024">-</text><text fill="#1E90FF" font-family="Arial" font-size="15.0302" font-weight="bold" lengthAdjust="spacing" textLength="61.0525" x="40.9552" y="685.4024">EDG-003</text><text fill="#1E90FF" font-family="Arial" font-size="15.0302" lengthAdjust="spacing" textLength="332.4672" x="105.9155" y="685.4024">Execu&#231;&#227;o de Modelos de Manuten&#231;&#227;o Preditiva</text><text fill="#1E90FF" font-family="Arial" font-size="15.0302" lengthAdjust="spacing" textLength="4.8397" x="32.2076" y="705.8734">-</text><text fill="#1E90FF" font-family="Arial" font-size="15.0302" font-weight="bold" lengthAdjust="spacing" textLength="59.82" x="40.9552" y="705.8734">CLD-003</text><text fill="#1E90FF" font-family="Arial" font-size="15.0302" lengthAdjust="spacing" textLength="329.4762" x="104.6831" y="705.8734">Treinamento de Modelos de Machine Learning</text><polygon fill="none" points="29.5237,66.1766,29.5237,66.4022,40.2768,65.7318,51.0299,66.3841,61.7831,66.6057,72.5362,65.4107,83.2894,66.0932,94.0425,65.7187,104.7957,65.7649,115.5488,66.1034,126.302,65.4343,137.0551,66.771,147.8083,65.4999,158.5614,65.9643,169.3145,66.6403,180.0677,66.0845,190.8208,66.2499,201.574,66.1423,212.3271,66.3683,223.0803,66.4333,233.8334,66.8054,244.5866,66.897,255.3397,66.9058,266.0929,66.45,276.846,66.6743,287.5992,66.9305,298.3523,65.4023,309.1054,66.905,319.8586,65.8583,330.6117,66.7497,341.3649,65.6451,352.118,66.1031,362.8712,66.9728,373.6243,66.1243,384.3775,66.2896,395.1306,66.5401,405.8838,66.6235,416.6369,66.1724,427.3901,66.4849,438.1432,65.5621,448.8963,66.4819,459.6495,66.7651,470.4026,66.6538,481.1558,66.8347,491.9089,65.658,502.6621,65.4764,513.4152,65.5095,524.1684,66.1134,534.9215,65.9656,545.6747,66.9081,556.4278,65.9891,567.181,65.8083,577.9341,66.4217,588.6872,65.4607,599.4404,65.6193,610.1935,66.8733,620.9467,66.6443,631.6998,66.9651,642.453,65.8311,653.2061,66.5193,663.9593,66.8105,674.7124,65.6694,685.4656,66.0737,696.2187,66.3118,706.9718,66.8763,717.725,66.1721,728.4781,66.6732,739.2313,65.5821,749.9844,65.4495,760.7376,66.7173,771.4907,65.4069,782.2439,66.723,792.997,66.3984,803.7502,65.889,814.5033,65.7968,825.2565,66.6691,836.0096,65.8552,846.7627,66.812,857.5159,65.5832,868.269,66.8395,879.0222,66.6965,889.7753,66.4396,900.5285,66.2273,911.2816,66.1766,911.3811,66.4168,912.5044,66.8511,913.5822,67.1759,914.7345,67.6803,915.8186,68.0202,916.9752,68.5349,917.2121,68.6331,917.498,69.6949,917.9756,70.836,918.1891,71.8678,918.7279,73.0343,919.3335,74.2285,919.9033,74.2285,919.7949,85.4453,919.2874,96.6622,918.9876,107.879,919.0985,119.0958,919.3335,130.3127,919.1067,130.2187,918.999,131.5082,918.6347,132.6914,918.0926,133.8009,917.6766,134.9627,916.9752,136.0062,916.9565,135.961,915.8484,136.5067,914.6447,136.8214,913.5979,137.5152,912.4541,137.9745,911.2816,138.3646,911.2816,138.9576,900.5285,138.118,889.7753,138.2203,879.0222,138.8407,868.269,138.9737,857.5159,137.8143,846.7627,138.1564,836.0096,138.5248,825.2565,137.7088,814.5033,138.744,803.7502,138.6416,792.997,138.2564,782.2439,138.5173,771.4907,139.1469,760.7376,138.0287,749.9844,138.7027,739.2313,138.6712,728.4781,138.4889,717.725,138.5159,706.9718,138.4864,696.2187,137.6945,685.4656,137.9343,674.7124,137.8691,663.9593,138.4331,653.2061,138.4592,642.453,138.5382,631.6998,138.0522,620.9467,138.2921,610.1935,138.2355,599.4404,138.9839,588.6872,138.8225,577.9341,137.8433,567.181,138.2863,556.4278,137.7449,545.6747,138.6742,534.9215,139.0178,524.1684,138.9492,513.4152,137.897,502.6621,138.8627,491.9089,137.5671,481.1558,138.5795,470.4026,138.0432,459.6495,138.4684,448.8963,138.6226,438.1432,138.8714,427.3901,137.5917,416.6369,138.875,405.8838,138.5559,395.1306,138.7461,384.3775,139.1674,373.6243,138.3705,362.8712,138.5527,352.118,138.5937,341.3649,138.5763,330.6117,138.3637,319.8586,139.1276,309.1054,137.71,298.3523,138.9715,287.5992,137.6947,276.846,137.7845,266.0929,138.4075,255.3397,138.3949,244.5866,137.8355,233.8334,138.8087,223.0803,138.4814,212.3271,139.1447,201.574,139.0808,190.8208,137.8833,180.0677,137.9374,169.3145,138.2259,158.5614,138.7463,147.8083,138.7972,137.0551,138.6879,126.302,137.9975,115.5488,139.0478,104.7957,139.045,94.0425,138.3138,83.2894,138.1079,72.5362,137.9337,61.7831,138.1342,51.0299,138.5121,40.2768,138.2912,29.5237,138.3646,29.4664,138.2264,28.4517,138.054,27.1834,137.2695,26.1763,137.1157,25.0273,136.6192,23.8301,136.0062,23.953,136.0572,23.5874,134.9624,22.8055,133.6951,22.3157,132.5489,22.115,131.5224,21.4717,130.3127,20.8309,130.3127,21.2205,119.0958,21.5957,107.879,21.5455,96.6622,21.0869,85.4453,21.4717,74.2285,21.4575,74.2226,22.1896,73.1918,22.6295,72.0399,22.6896,70.7307,23.3844,69.6844,23.8301,68.5349,23.7597,68.365,24.9652,68.0546,26.1476,67.6885,27.3037,67.2588,28.2939,66.4285,29.5237,66.1766" style="stroke:#000000;stroke-width:1.0736;"/><text fill="#1E90FF" font-family="Arial" font-size="21.4717" font-weight="bold" lengthAdjust="spacing" textLength="854.9183" x="42.9435" y="110.6016">Diagrama de Sequ&#234;ncia - M&#243;dulo Edge (EDG) - Processamento Machine Learning</text><!--SRC=[PPB1RjGm48RlVegX9uWKL8dR7f3GRk2ogIgMvJwrPnTBZYUCxLLvd8e3WciV8I-6xMGNsbwYEF7y__VFp2lhjKk6ODDztBqTq-2KSdGaRo3og02QPcFnA3WWv5ix-fwcFrvRX1RwwT4anz2P8y7hRlFfJVvuAwmf11p8HuOUzJVh2RQ4ugq_DeqgqhE3KgWZ2-n3cXx4Cc20_Qxxh4QKQBKTqKUu-j_bgbp9HfrIvIAqx-jf1HiQ7Vy0eO6pQmPD0mnioDL3lorEzeIHvkhoW3PN5vKLhDaVh0mu_Pf-rW9JvPJdNC0daiNb0rGoMGomX5Y2ZZBzRWqThBU65_qpN7TFEaMKfqGlnFtqu6p8vWm7b-vd43GSoaiW7rWeF9F-Ic8FLYCSIVxX2pcCqsDfwIXaR8xEB_pM67B7FG_eR9bj91tHuCMWPs_pT5Pmmt7sIESv1RwJuXAIYmNmKhDsd4mEx4z5ih9hpk3EpeVSFeIRTA91gGDd8AaRLb1godr6qdn74Zciygu0v8rgcYpVNb-_QvgvbPUSVUrdhUpHfqX-_dMxXCQpm7gxMGI-25c_pEovmjDLhOkwGFu5]--></g></svg>