<svg xmlns="http://www.w3.org/2000/svg" xmlns:xlink="http://www.w3.org/1999/xlink" contentStyleType="text/css" data-diagram-type="SEQUENCE" height="751.1442px" preserveAspectRatio="none" style="width:922px;height:751px;background:#EEEBDC;" version="1.1" viewBox="0 0 922 751" width="922.8342px" zoomAndPan="magnify"><defs/><g><rect fill="#EEEBDC" height="751.1442" style="stroke:none;stroke-width:1.1923;" width="922.8342" x="0" y="0"/><rect fill="#FFFFCC" height="31.7634" rx="2.9807" ry="2.9807" style="stroke:#FFDD88;stroke-width:3.5769;" width="910.552" x="5.9615" y="5.9615"/><text fill="#000000" font-family="monospace" font-size="11.9229" lengthAdjust="spacing" textLength="423.5141" x="11.9229" y="23.8458">Please&#160;use&#160;'!option&#160;handwritten&#160;true'&#160;to&#160;enable&#160;handwritten</text><g><title>MCU</title><polygon fill="#000000" fill-opacity="0.00000" points="32.5436,251.7984,32.5436,251.8819,34.4512,251.6338,36.3589,251.8752,38.2666,251.9573,40.1742,251.5149,42.0819,251.7984,41.9892,251.7984,41.5734,263.8266,41.6247,275.8548,42.0006,287.8829,41.2576,299.9111,42.742,311.9393,41.3304,323.9674,41.8461,335.9956,42.5969,348.0238,41.9796,360.0519,42.1633,372.0801,42.0438,384.1083,42.2948,396.1364,42.367,408.1646,42.7802,420.1928,42.882,432.2209,42.8918,444.2491,42.3855,456.2773,42.6346,468.3054,42.9192,480.3336,41.222,492.3618,42.8909,504.3899,41.7284,516.4181,42.7184,528.4463,41.4917,540.4744,42.0002,552.5026,42.9661,564.5308,42.0238,576.559,42.2075,588.5871,42.4856,600.6153,42.0819,612.6435,42.0819,612.8089,40.1742,612.6419,38.2666,612.7576,36.3589,612.416,34.4512,612.7565,32.5436,612.6435,33.1972,612.6435,33.0736,600.6153,33.2745,588.5871,31.9676,576.559,31.766,564.5308,31.8027,552.5026,32.4734,540.4744,32.3092,528.4463,33.356,516.4181,32.3353,504.3899,32.1345,492.3618,32.8157,480.3336,31.7485,468.3054,31.9246,456.2773,33.3173,444.2491,33.063,432.2209,33.4193,420.1928,32.1599,408.1646,32.9241,396.1364,33.2475,384.1083,31.9803,372.0801,32.4293,360.0519,32.6938,348.0238,33.3206,335.9956,32.5386,323.9674,33.0951,311.9393,31.8833,299.9111,31.7361,287.8829,33.144,275.8548,31.6888,263.8266,32.5436,251.7984"/><path d="M36.9611,251.7984 L37.2952,251.7984 L36.3024,263.8266 L37.2683,275.8548 L37.5964,287.8829 L35.827,299.9111 L36.8375,311.9393 L36.2831,323.9674 L36.3514,335.9956 L36.8527,348.0238 L35.862,360.0519 L37.8412,372.0801 L35.9591,384.1083 L36.6467,396.1364 L37.6477,408.1646 L36.8247,420.1928 L37.0695,432.2209 L36.9103,444.2491 L37.2449,456.2773 L37.3412,468.3054 L37.8921,480.3336 L38.0279,492.3618 L38.0409,504.3899 L37.3658,516.4181 L37.698,528.4463 L38.0774,540.4744 L35.8146,552.5026 L38.0397,564.5308 L36.4897,576.559 L37.8097,588.5871 L36.1741,600.6153 L36.9611,612.6435" fill="none" style="stroke:#0000FF;stroke-width:0.5961;stroke-dasharray:5.9615,5.9615;"/></g><g><title>C.mera</title><polygon fill="#000000" fill-opacity="0.00000" points="121.3167,251.7984,121.3167,251.8819,123.2244,251.6338,125.1321,251.8752,127.0397,251.9573,128.9474,251.5149,130.8551,251.7984,130.7624,251.7984,130.3466,263.8266,130.3978,275.8548,130.7738,287.8829,130.0307,299.9111,131.5152,311.9393,130.1036,323.9674,130.6193,335.9956,131.3701,348.0238,130.7528,360.0519,130.9364,372.0801,130.817,384.1083,131.0679,396.1364,131.1402,408.1646,131.5534,420.1928,131.6552,432.2209,131.6649,444.2491,131.1587,456.2773,131.4078,468.3054,131.6923,480.3336,129.9952,492.3618,131.664,504.3899,130.5015,516.4181,131.4915,528.4463,130.2649,540.4744,130.7734,552.5026,131.7393,564.5308,130.797,576.559,130.9806,588.5871,131.2588,600.6153,130.8551,612.6435,130.8551,612.8089,128.9474,612.6419,127.0397,612.7576,125.1321,612.416,123.2244,612.7565,121.3167,612.6435,121.9703,612.6435,121.8467,600.6153,122.0476,588.5871,120.7408,576.559,120.5391,564.5308,120.5758,552.5026,121.2465,540.4744,121.0824,528.4463,122.1292,516.4181,121.1085,504.3899,120.9077,492.3618,121.5889,480.3336,120.5217,468.3054,120.6978,456.2773,122.0905,444.2491,121.8362,432.2209,122.1925,420.1928,120.9331,408.1646,121.6973,396.1364,122.0207,384.1083,120.7535,372.0801,121.2024,360.0519,121.4669,348.0238,122.0938,335.9956,121.3117,323.9674,121.8682,311.9393,120.6565,299.9111,120.5092,287.8829,121.9172,275.8548,120.4619,263.8266,121.3167,251.7984"/><path d="M125.894,251.7984 L126.2282,251.7984 L125.2354,263.8266 L126.2013,275.8548 L126.5294,287.8829 L124.7599,299.9111 L125.7705,311.9393 L125.216,323.9674 L125.2844,335.9956 L125.7857,348.0238 L124.7949,360.0519 L126.7742,372.0801 L124.8921,384.1083 L125.5796,396.1364 L126.5807,408.1646 L125.7577,420.1928 L126.0025,432.2209 L125.8432,444.2491 L126.1778,456.2773 L126.2742,468.3054 L126.8251,480.3336 L126.9608,492.3618 L126.9739,504.3899 L126.2988,516.4181 L126.631,528.4463 L127.0104,540.4744 L124.7475,552.5026 L126.9727,564.5308 L125.4227,576.559 L126.7426,588.5871 L125.1071,600.6153 L125.894,612.6435" fill="none" style="stroke:#0000FF;stroke-width:0.5961;stroke-dasharray:5.9615,5.9615;"/></g><g><title>M.dulo Edge</title><polygon fill="#000000" fill-opacity="0.00000" points="401.4782,251.7984,401.4782,251.8819,403.3859,251.6338,405.2936,251.8752,407.2012,251.9573,409.1089,251.5149,411.0166,251.7984,410.9239,251.7984,410.5081,263.8266,410.5593,275.8548,410.9353,287.8829,410.1923,299.9111,411.6767,311.9393,410.2651,323.9674,410.7808,335.9956,411.5316,348.0238,410.9143,360.0519,411.0979,372.0801,410.9785,384.1083,411.2294,396.1364,411.3017,408.1646,411.7149,420.1928,411.8167,432.2209,411.8264,444.2491,411.3202,456.2773,411.5693,468.3054,411.8538,480.3336,410.1567,492.3618,411.8256,504.3899,410.6631,516.4181,411.653,528.4463,410.4264,540.4744,410.9349,552.5026,411.9008,564.5308,410.9585,576.559,411.1421,588.5871,411.4203,600.6153,411.0166,612.6435,411.0166,612.8089,409.1089,612.6419,407.2012,612.7576,405.2936,612.416,403.3859,612.7565,401.4782,612.6435,402.1318,612.6435,402.0083,600.6153,402.2091,588.5871,400.9023,576.559,400.7006,564.5308,400.7373,552.5026,401.408,540.4744,401.2439,528.4463,402.2907,516.4181,401.27,504.3899,401.0692,492.3618,401.7504,480.3336,400.6832,468.3054,400.8593,456.2773,402.252,444.2491,401.9977,432.2209,402.354,420.1928,401.0946,408.1646,401.8588,396.1364,402.1822,384.1083,400.915,372.0801,401.3639,360.0519,401.6284,348.0238,402.2553,335.9956,401.4732,323.9674,402.0298,311.9393,400.818,299.9111,400.6707,287.8829,402.0787,275.8548,400.6234,263.8266,401.4782,251.7984"/><path d="M405.2723,251.7984 L405.6065,251.7984 L404.6137,263.8266 L405.5796,275.8548 L405.9077,287.8829 L404.1382,299.9111 L405.1488,311.9393 L404.5943,323.9674 L404.6627,335.9956 L405.164,348.0238 L404.1732,360.0519 L406.1525,372.0801 L404.2703,384.1083 L404.9579,396.1364 L405.959,408.1646 L405.136,420.1928 L405.3808,432.2209 L405.2215,444.2491 L405.5561,456.2773 L405.6525,468.3054 L406.2034,480.3336 L406.3391,492.3618 L406.3522,504.3899 L405.6771,516.4181 L406.0093,528.4463 L406.3887,540.4744 L404.1258,552.5026 L406.351,564.5308 L404.801,576.559 L406.1209,588.5871 L404.4854,600.6153 L405.2723,612.6435" fill="none" style="stroke:#0000FF;stroke-width:0.5961;stroke-dasharray:5.9615,5.9615;"/></g><g><title>MDC.SCADA</title><polygon fill="#000000" fill-opacity="0.00000" points="805.6036,251.7984,805.6036,251.8819,807.5113,251.6338,809.419,251.8752,811.3266,251.9573,813.2343,251.5149,815.142,251.7984,815.0493,251.7984,814.6335,263.8266,814.6847,275.8548,815.0607,287.8829,814.3176,299.9111,815.8021,311.9393,814.3905,323.9674,814.9062,335.9956,815.657,348.0238,815.0397,360.0519,815.2233,372.0801,815.1039,384.1083,815.3548,396.1364,815.4271,408.1646,815.8403,420.1928,815.942,432.2209,815.9518,444.2491,815.4455,456.2773,815.6947,468.3054,815.9792,480.3336,814.2821,492.3618,815.9509,504.3899,814.7884,516.4181,815.7784,528.4463,814.5517,540.4744,815.0603,552.5026,816.0262,564.5308,815.0839,576.559,815.2675,588.5871,815.5457,600.6153,815.142,612.6435,815.142,612.8089,813.2343,612.6419,811.3266,612.7576,809.419,612.416,807.5113,612.7565,805.6036,612.6435,806.2572,612.6435,806.1336,600.6153,806.3345,588.5871,805.0276,576.559,804.826,564.5308,804.8627,552.5026,805.5334,540.4744,805.3693,528.4463,806.4161,516.4181,805.3954,504.3899,805.1946,492.3618,805.8758,480.3336,804.8086,468.3054,804.9847,456.2773,806.3774,444.2491,806.1231,432.2209,806.4793,420.1928,805.2199,408.1646,805.9842,396.1364,806.3076,384.1083,805.0404,372.0801,805.4893,360.0519,805.7538,348.0238,806.3807,335.9956,805.5986,323.9674,806.1551,311.9393,804.9433,299.9111,804.7961,287.8829,806.2041,275.8548,804.7488,263.8266,805.6036,251.7984"/><path d="M810.3462,251.7984 L810.6803,251.7984 L809.6875,263.8266 L810.6534,275.8548 L810.9815,287.8829 L809.2121,299.9111 L810.2226,311.9393 L809.6682,323.9674 L809.7365,335.9956 L810.2378,348.0238 L809.2471,360.0519 L811.2263,372.0801 L809.3442,384.1083 L810.0318,396.1364 L811.0328,408.1646 L810.2098,420.1928 L810.4546,432.2209 L810.2954,444.2491 L810.63,456.2773 L810.7263,468.3054 L811.2772,480.3336 L811.413,492.3618 L811.426,504.3899 L810.7509,516.4181 L811.0831,528.4463 L811.4625,540.4744 L809.1997,552.5026 L811.4248,564.5308 L809.8748,576.559 L811.1948,588.5871 L809.5592,600.6153 L810.3462,612.6435" fill="none" style="stroke:#0000FF;stroke-width:0.5961;stroke-dasharray:5.9615,5.9615;"/></g><g class="participant participant-head" data-participant="MCU"><polygon fill="#1E90FF" points="8.9422,206.3078,8.9422,206.5584,20.2904,205.8138,31.6386,206.5382,42.9868,206.7843,54.3351,205.4572,65.6833,206.3078,65.6715,206.2792,66.0399,206.3258,66.468,206.5162,66.9375,206.8066,67.2643,206.7523,67.791,207.1808,67.9942,207.265,67.7341,207.5065,68.0676,207.9938,68.4734,208.5111,68.4579,208.8539,68.664,209.2885,68.6911,209.2885,68.6513,216.9559,68.735,224.6232,68.759,232.2906,68.8968,239.958,68.664,247.6254,68.9104,247.7275,68.7388,248.1502,68.4083,248.5072,68.3104,248.9605,68.2234,249.4183,67.791,249.7331,67.6813,249.4683,67.4726,250.1568,66.9028,249.9734,66.6075,250.4529,66.0295,250.2498,65.6833,250.6061,65.6833,250.5245,54.3351,251.4903,42.9868,250.548,31.6386,250.7317,20.2904,251.0099,8.9422,250.6061,9.0055,250.759,8.5201,250.4301,8.1428,250.3624,7.5905,249.8721,7.2993,250.0121,6.8345,249.7331,7.0358,249.8165,6.8231,249.3792,6.7104,248.9832,6.1333,248.395,5.8966,247.9477,5.9615,247.6254,5.7145,247.6254,5.9381,239.958,5.8834,232.2906,6.2323,224.6232,5.892,216.9559,5.9615,209.2885,5.8355,209.2363,6.2199,208.9017,6.0658,208.344,6.2947,207.9449,6.8982,207.701,6.8345,207.1808,6.9008,207.3408,7.3677,207.2759,7.6286,206.7134,8.1477,206.7742,8.6105,206.6992,8.9422,206.3078" style="stroke:#00BFFF;stroke-width:0.5961;"/><text fill="#A9DCDF" font-family="Impact" font-size="20.269" lengthAdjust="spacing" textLength="46.0104" x="14.3075" y="236.3213">MCU</text></g><g class="participant participant-head" data-participant="C.mera"><polygon fill="#1E90FF" points="83.5677,206.3078,83.5677,206.5584,95.7157,205.8138,107.8638,206.5382,120.0119,206.7843,132.1599,205.4572,144.308,206.2151,156.4561,205.7993,168.6041,206.3078,168.5458,206.1669,169.0153,206.4573,169.3421,206.4031,169.953,207.0349,170.1944,206.7748,170.7118,207.1808,170.6392,207.1507,171.045,207.668,171.0295,208.0108,171.2607,208.4558,171.3985,208.8621,171.5849,209.2885,171.6558,209.2885,171.6799,216.9559,171.8176,224.6232,171.8516,232.2906,171.8548,239.958,171.5849,247.6254,171.6784,247.6641,171.5805,248.1174,171.4935,248.5753,170.7962,248.7803,171.1356,249.4147,170.7118,249.7331,170.6667,249.6242,170.3715,250.1037,169.7935,249.9005,169.4368,250.2318,169.1385,250.7038,168.6041,250.6061,168.6041,250.548,156.4561,250.7317,144.308,251.0099,132.1599,251.1024,120.0119,250.6015,107.8638,250.9486,95.7157,249.9236,83.5677,250.6061,83.6109,250.7105,83.2295,250.6328,82.7922,250.4201,82.3963,250.3074,81.808,249.7303,81.46,249.7331,81.2205,249.6339,81.0572,249.217,81.0891,248.8811,80.864,248.4386,81.0117,248.1506,80.5869,247.6254,80.5175,247.6254,80.4506,239.958,80.6776,232.2906,80.3219,224.6232,80.3806,216.9559,80.5869,209.2885,80.8252,209.3872,80.9215,208.9332,81.2058,208.5571,80.9926,207.9749,81.4026,207.6509,81.46,207.1808,81.5498,207.3976,81.8097,206.8327,82.2885,206.7964,82.7437,206.7032,83.2452,206.7217,83.5677,206.3078" style="stroke:#00BFFF;stroke-width:0.5961;"/><text fill="#A9DCDF" font-family="Impact" font-size="20.269" lengthAdjust="spacing" textLength="74.3058" x="88.933" y="236.3213">C&#226;mera</text></g><g class="participant participant-head" data-participant="EDGE"><polygon fill="#1E90FF" points="304.5236,178.7015,304.5236,178.9521,316.4911,178.2075,328.4586,178.9319,340.4261,179.178,352.3936,177.8509,364.3611,178.6088,376.3286,178.193,388.2961,178.2442,400.2637,178.6202,412.2312,177.8772,424.1987,179.3616,436.1662,177.95,448.1337,178.4657,460.1012,179.2165,472.0687,178.5992,484.0362,178.7828,496.0037,178.6634,507.9712,178.7015,507.9983,178.767,508.4291,178.9639,508.9033,179.2658,509.3379,179.4717,509.7607,179.6493,510.0789,179.5745,510.1724,179.6132,510.4237,180.0666,510.6859,180.5244,510.3379,180.7295,511.0265,181.3639,510.9519,181.6822,510.5984,181.6822,511.5884,192.6727,510.3617,203.6633,510.8703,214.6538,511.8361,225.6443,510.8938,236.6349,510.9519,247.6254,510.9906,247.6414,510.9017,248.0984,510.7555,248.5318,510.4267,248.8894,510.359,249.3552,510.0789,249.7331,509.9918,249.5229,509.7006,250.0121,509.3192,250.2836,508.8819,250.4201,508.486,250.6566,507.9712,250.6061,507.9712,250.0301,496.0037,249.8285,484.0362,249.8652,472.0687,250.5359,460.1012,250.3718,448.1337,251.4186,436.1662,250.3979,424.1987,250.1971,412.2312,250.8783,400.2637,249.8111,388.2961,249.9872,376.3286,251.3799,364.3611,251.1256,352.3936,251.4818,340.4261,250.2224,328.4586,250.9867,316.4911,251.3101,304.5236,250.6061,304.4518,250.4327,304.0875,250.3963,303.6997,250.3032,303.3581,250.3216,302.8368,249.9062,302.4159,249.7331,302.5858,249.8034,302.038,249.2273,301.818,248.787,302.077,248.5451,301.4543,247.9379,301.5429,247.6254,302.1497,247.6254,301.7893,236.6349,301.2235,225.6443,301.1211,214.6538,302.0899,203.6633,301.186,192.6727,301.5429,181.6822,301.7602,181.7722,301.5145,181.1766,302.1188,180.933,302.2445,180.4913,302.3313,180.0333,302.4159,179.5745,302.4231,179.5919,302.948,179.6667,303.3523,179.4506,303.7063,179.1128,304.1429,178.9746,304.5236,178.7015" style="stroke:#00BFFF;stroke-width:0.5961;"/><text fill="#A9DCDF" font-family="Impact" font-size="20.269" lengthAdjust="spacing" textLength="126.0321" x="343.2313" y="208.715">M&#243;dulo Edge</text><text fill="#A9DCDF" font-family="Impact" font-size="20.269" lengthAdjust="spacing" textLength="192.7169" x="309.8889" y="236.3213">(Buffer/RTSP Server)</text></g><g class="participant participant-head" data-participant="MDC"><polygon fill="#1E90FF" points="725.0973,178.7015,725.0973,178.9521,737.2795,178.2075,749.4617,178.9319,761.6439,179.178,773.8261,177.8509,786.0084,178.6088,798.1906,178.193,810.3728,178.2442,822.555,178.6202,834.7372,177.8772,846.9194,179.3616,859.1017,177.95,871.2839,178.4657,883.4661,179.2165,895.6483,178.7015,895.6353,178.67,896.0802,178.9011,896.4865,179.039,896.9401,179.2909,897.3708,179.4877,897.756,179.5745,897.9711,179.6636,898.177,180.0981,898.3546,180.5209,898.3733,180.8779,898.6247,181.3312,898.629,181.6822,899.4663,181.6822,897.7692,192.6727,899.438,203.6633,898.2755,214.6538,899.2655,225.6443,898.0388,236.6349,898.629,247.6254,898.6039,247.615,898.7267,248.1597,898.2619,248.4611,898.1439,248.906,898.055,249.363,897.756,249.7331,897.8193,249.8859,897.3339,249.9063,896.9566,250.1878,896.4043,250.0467,896.1131,250.5359,895.6483,250.6061,895.6483,251.2597,883.4661,251.1361,871.2839,251.337,859.1017,250.0301,846.9194,249.8285,834.7372,249.8652,822.555,250.5359,810.3728,250.3718,798.1906,251.4186,786.0084,250.3979,773.8261,250.1971,761.6439,250.8783,749.4617,249.8111,737.2795,249.9872,725.0973,250.6061,725.196,250.8444,724.742,250.5915,724.3659,250.5266,723.7837,249.9641,723.4597,250.0249,722.9896,249.7331,723.2064,249.8229,722.6415,249.2397,722.6052,248.8754,722.512,248.4876,722.5305,248.1461,722.1165,247.6254,722.1115,247.6254,722.668,236.6349,721.4563,225.6443,721.309,214.6538,722.717,203.6633,721.2617,192.6727,722.1165,181.6822,722.3034,181.7596,722.367,181.2921,722.3674,180.7984,722.5105,180.3638,722.9834,180.0658,722.9896,179.5745,722.944,179.4646,723.5011,179.6172,723.7486,179.0224,724.3481,179.2774,724.7494,179.0539,725.0973,178.7015" style="stroke:#00BFFF;stroke-width:0.5961;"/><text fill="#A9DCDF" font-family="Impact" font-size="20.269" lengthAdjust="spacing" textLength="118.1678" x="751.2889" y="208.715">MDC/SCADA</text><text fill="#A9DCDF" font-family="Impact" font-size="20.269" lengthAdjust="spacing" textLength="159.8204" x="730.4626" y="236.3213">(An&#225;lise Remota)</text></g><g class="message" data-participant-1="C.mera" data-participant-2="EDGE"><polygon fill="#00BFFF" points="391.9399,287.2167,391.9709,287.2942,394.2633,288.0176,396.7376,289.1957,399.1526,290.2257,401.3729,290.7688,403.8628,291.9858,403.8514,291.9572,401.4153,292.7823,399.037,293.752,396.699,294.8222,394.2224,295.5461,391.9399,296.755,392.0955,296.9106,392.7166,295.624,393.792,294.7918,394.9228,294.0149,395.7311,292.9156,396.7091,291.9858,396.7282,292.005,395.7463,291.023,394.8516,290.1283,393.9148,289.1915,393.0583,288.3351,391.9399,287.2167" style="stroke:#00BFFF;stroke-width:1.1923;"/><path d="M126.0859,291.9858 L126.0859,292.32 L137.9558,291.3272 L149.8257,292.2931 L161.6956,292.6212 L173.5655,290.8517 L185.4354,291.8623 L197.3053,291.3078 L209.1752,291.3762 L221.0451,291.8775 L232.915,290.8868 L244.7849,292.866 L256.6548,290.9839 L268.5247,291.6714 L280.3946,292.6725 L292.2645,291.8495 L304.1344,292.0943 L316.0043,291.9351 L327.8742,292.2696 L339.7441,292.366 L351.614,292.9169 L363.4839,293.0526 L375.3538,293.0657 L387.2237,292.3906 L399.0937,291.9858" fill="none" style="stroke:#00BFFF;stroke-width:1.1923;"/><text fill="#000000" font-family="sans-serif" font-size="15.4998" lengthAdjust="spacing" textLength="251.5465" x="134.4319" y="285.0598">Envio cont&#237;nuo de stream de v&#237;deo</text></g><polygon fill="#FEFFDD" points="65.5761,307.4856,65.5761,307.7362,77.3237,306.9916,89.0712,307.7161,100.8188,307.9622,112.5664,306.6351,124.314,307.393,136.0616,306.9771,147.8092,307.0284,159.5568,307.4044,171.3044,306.6613,183.0519,308.1457,194.7995,306.7342,206.5471,307.2498,218.2947,308.0006,230.0423,307.3834,241.7899,307.567,253.5375,307.4475,265.285,307.6985,277.0326,307.7708,288.7802,308.184,300.5278,308.2857,312.2754,308.2955,324.023,307.7892,335.7706,308.0384,347.5181,308.3229,359.2657,306.6258,371.0133,308.2946,382.7609,307.1321,394.5085,308.1221,406.2561,306.8954,418.0037,307.404,429.7512,308.3698,441.4988,307.4275,453.2464,307.6112,464.994,307.4856,465.0974,307.5718,467.5057,310.453,469.762,313.2076,472.2354,316.1432,474.3576,318.786,476.9169,321.7931,477.0065,321.8621,474.705,325.0259,472.2878,328.1008,469.9563,331.2416,467.2264,334.0759,464.994,337.2929,464.994,336.5154,453.2464,336.5521,441.4988,337.2227,429.7512,337.0586,418.0037,338.1054,406.2561,337.0847,394.5085,336.8839,382.7609,337.5651,371.0133,336.4979,359.2657,336.674,347.5181,338.0667,335.7706,337.8124,324.023,338.1687,312.2754,336.9093,300.5278,337.6735,288.7802,337.9969,277.0326,336.7297,265.285,337.1787,253.5375,337.4432,241.7899,338.07,230.0423,337.2879,218.2947,337.8445,206.5471,336.6327,194.7995,336.4855,183.0519,337.8934,171.3044,336.4381,159.5568,337.8998,147.8092,337.5393,136.0616,336.9735,124.314,336.8711,112.5664,337.8399,100.8188,336.9361,89.0712,337.9986,77.3237,336.6339,65.5761,337.2929,65.7706,337.4426,63.3441,334.3103,60.8841,331.1524,58.4372,328.0045,56.2666,325.0692,53.6532,321.7931,53.8405,321.9493,56.0894,318.9747,58.5042,316.1384,60.7671,313.1755,63.4102,310.5294,65.5761,307.4856" style="stroke:#181818;stroke-width:0.5961;"/><text fill="#000000" font-family="sans-serif" font-size="15.4998" lengthAdjust="spacing" textLength="262.8923" x="134.4088" y="328.8241">EDGE mant&#233;m buffer (10s pr&#233;-falha)</text><g class="message" data-participant-1="MCU" data-participant-2="EDGE"><polygon fill="#00BFFF" points="391.9399,367.5915,391.9709,367.6691,394.2633,368.3925,396.7376,369.5705,399.1526,370.6005,401.3729,371.1436,403.8628,372.3607,403.8514,372.332,401.4153,373.1571,399.037,374.1268,396.699,375.197,394.2224,375.9209,391.9399,377.1299,392.0955,377.2854,392.7166,375.9989,393.792,375.1666,394.9228,374.3897,395.7311,373.2904,396.7091,372.3607,396.7282,372.3799,395.7463,371.3979,394.8516,370.5032,393.9148,369.5664,393.0583,368.7099,391.9399,367.5915" style="stroke:#00BFFF;stroke-width:1.1923;"/><path d="M37.3127,372.3607 L37.3127,372.6948 L49.3721,371.702 L61.4315,372.668 L73.4908,372.9961 L85.5502,371.2266 L97.6096,372.2371 L109.6689,371.6827 L121.7283,371.751 L133.7876,372.2523 L145.847,371.2616 L157.9064,373.2408 L169.9657,371.3587 L182.0251,372.0463 L194.0845,373.0474 L206.1438,372.2243 L218.2032,372.4692 L230.2626,372.3099 L242.3219,372.6445 L254.3813,372.7408 L266.4406,373.2918 L278.5,373.4275 L290.5594,373.4405 L302.6187,372.7655 L314.6781,373.0977 L326.7375,373.477 L338.7968,371.2142 L350.8562,373.4393 L362.9156,371.8893 L374.9749,373.2093 L387.0343,371.5737 L399.0937,372.3607" fill="none" style="stroke:#00BFFF;stroke-width:1.1923;"/><text fill="#000000" font-family="sans-serif" font-size="15.4998" lengthAdjust="spacing" textLength="226.1422" x="45.6588" y="365.4347">Sinaliza Falha Cr&#237;tica Detectada</text></g><g class="message" data-participant-1="EDGE" data-participant-2="EDGE"><path d="M406.2474,431.2743 L406.2474,431.3857 L416.2627,431.0547 L426.2779,431.3767 L436.2932,431.4861 L446.3084,430.8962 L456.3237,431.2743" fill="none" style="stroke:#00BFFF;stroke-width:1.1923;stroke-dasharray:2.3846,2.3846;"/><path d="M456.3237,431.2743 L456.4351,431.2743 L456.1041,434.3742 L456.4261,437.4742 L456.5355,440.5742 L455.9456,443.6741 L456.3237,446.7741" fill="none" style="stroke:#00BFFF;stroke-width:1.1923;stroke-dasharray:2.3846,2.3846;"/><path d="M407.4397,446.7741 L407.4397,446.8855 L417.2165,446.5545 L426.9933,446.8765 L436.7701,446.9859 L446.5469,446.396 L456.3237,446.7741" fill="none" style="stroke:#00BFFF;stroke-width:1.1923;stroke-dasharray:2.3846,2.3846;"/><polygon fill="#00BFFF" points="419.3626,442.0049,419.3936,442.0825,416.9169,442.8059,414.622,443.9839,412.2679,445.0139,409.719,445.557,407.4397,446.7741,407.4282,446.7454,409.7613,447.5705,412.1523,448.5402,414.5834,449.6104,416.876,450.3343,419.3626,451.5432,419.5182,451.6988,418.2317,450.4123,417.3994,449.58,416.6225,448.8031,415.5232,447.7038,414.5935,446.7741,414.6126,446.7933,415.5383,445.8113,416.5513,444.9166,417.5222,443.9798,418.5734,443.1233,419.3626,442.0049" style="stroke:#00BFFF;stroke-width:1.1923;"/><text fill="#000000" font-family="sans-serif" font-size="15.4998" lengthAdjust="spacing" textLength="383.4033" x="414.5935" y="403.2375">Salva os 10s de buffer pr&#233;-falha e continua gravando</text><text fill="#000000" font-family="sans-serif" font-size="15.4998" lengthAdjust="spacing" textLength="189.2372" x="414.5935" y="424.3482">por 5 segundos p&#243;s-falha;</text></g><g class="message" data-participant-1="EDGE" data-participant-2="EDGE"><path d="M406.2474,484.5769 L406.2474,484.6883 L416.2627,484.3574 L426.2779,484.6793 L436.2932,484.7887 L446.3084,484.1989 L456.3237,484.5769" fill="none" style="stroke:#00BFFF;stroke-width:1.1923;stroke-dasharray:2.3846,2.3846;"/><path d="M456.3237,484.5769 L456.4351,484.5769 L456.1041,487.6769 L456.4261,490.7768 L456.5355,493.8768 L455.9456,496.9768 L456.3237,500.0767" fill="none" style="stroke:#00BFFF;stroke-width:1.1923;stroke-dasharray:2.3846,2.3846;"/><path d="M407.4397,500.0767 L407.4397,500.1881 L417.2165,499.8572 L426.9933,500.1791 L436.7701,500.2885 L446.5469,499.6987 L456.3237,500.0767" fill="none" style="stroke:#00BFFF;stroke-width:1.1923;stroke-dasharray:2.3846,2.3846;"/><polygon fill="#00BFFF" points="419.3626,495.3075,419.3936,495.3851,416.9169,496.1085,414.622,497.2865,412.2679,498.3165,409.719,498.8596,407.4397,500.0767,407.4282,500.048,409.7613,500.8732,412.1523,501.8429,414.5834,502.9131,416.876,503.6369,419.3626,504.8459,419.5182,505.0015,418.2317,503.7149,417.3994,502.8826,416.6225,502.1058,415.5232,501.0064,414.5935,500.0767,414.6126,500.0959,415.5383,499.1139,416.5513,498.2192,417.5222,497.2824,418.5734,496.426,419.3626,495.3075" style="stroke:#00BFFF;stroke-width:1.1923;"/><text fill="#000000" font-family="sans-serif" font-size="15.4998" lengthAdjust="spacing" textLength="192.8797" x="414.5935" y="477.6509">Codifica clipe salvo (H.264)</text></g><g class="message" data-participant-1="EDGE" data-participant-2="EDGE"><path d="M406.2474,537.8796 L406.2474,537.9909 L416.2627,537.66 L426.2779,537.982 L436.2932,538.0913 L446.3084,537.5015 L456.3237,537.8796" fill="none" style="stroke:#00BFFF;stroke-width:1.1923;stroke-dasharray:2.3846,2.3846;"/><path d="M456.3237,537.8796 L456.4351,537.8796 L456.1041,540.9795 L456.4261,544.0795 L456.5355,547.1794 L455.9456,550.2794 L456.3237,553.3794" fill="none" style="stroke:#00BFFF;stroke-width:1.1923;stroke-dasharray:2.3846,2.3846;"/><path d="M407.4397,553.3794 L407.4397,553.4907 L417.2165,553.1598 L426.9933,553.4818 L436.7701,553.5911 L446.5469,553.0013 L456.3237,553.3794" fill="none" style="stroke:#00BFFF;stroke-width:1.1923;stroke-dasharray:2.3846,2.3846;"/><polygon fill="#00BFFF" points="419.3626,548.6102,419.3936,548.6877,416.9169,549.4111,414.622,550.5892,412.2679,551.6192,409.719,552.1623,407.4397,553.3794,407.4282,553.3507,409.7613,554.1758,412.1523,555.1455,414.5834,556.2157,416.876,556.9396,419.3626,558.1485,419.5182,558.3041,418.2317,557.0176,417.3994,556.1853,416.6225,555.4084,415.5232,554.3091,414.5935,553.3794,414.6126,553.3985,415.5383,552.4165,416.5513,551.5219,417.5222,550.5851,418.5734,549.7286,419.3626,548.6102" style="stroke:#00BFFF;stroke-width:1.1923;"/><text fill="#000000" font-family="sans-serif" font-size="15.4998" lengthAdjust="spacing" textLength="265.1708" x="414.5935" y="530.9535">Prepara para disponibiliza&#231;&#227;o (RTSP)</text></g><g class="message" data-participant-1="EDGE" data-participant-2="MDC"><polygon fill="#00BFFF" points="796.0653,586.413,796.0963,586.4906,798.3887,587.214,800.863,588.392,803.278,589.422,805.4983,589.9651,807.9882,591.1822,807.9767,591.1535,805.5407,591.9786,803.1624,592.9483,800.8244,594.0185,798.3478,594.7424,796.0653,595.9514,796.2209,596.1069,796.842,594.8204,797.9174,593.9881,799.0482,593.2112,799.8565,592.1119,800.8344,591.1822,800.8536,591.2014,799.8716,590.2194,798.977,589.3247,798.0402,588.3879,797.1837,587.5315,796.0653,586.413" style="stroke:#00BFFF;stroke-width:1.1923;"/><path d="M406.2474,591.1822 L406.2474,591.5163 L418.2768,590.5235 L430.3063,591.4895 L442.3357,591.8176 L454.3652,590.0481 L466.3946,591.0587 L478.4241,590.5042 L490.4535,590.5725 L502.483,591.0738 L514.5124,590.0831 L526.5418,592.0623 L538.5713,590.1802 L550.6007,590.8678 L562.6302,591.8689 L574.6596,591.0458 L586.6891,591.2907 L598.7185,591.1314 L610.7479,591.466 L622.7774,591.5623 L634.8068,592.1133 L646.8363,592.249 L658.8657,592.262 L670.8952,591.587 L682.9246,591.9192 L694.954,592.2985 L706.9835,590.0357 L719.0129,592.2608 L731.0424,590.7108 L743.0718,592.0308 L755.1013,590.3952 L767.1307,591.0733 L779.1601,592.3611 L791.1896,591.1047 L803.219,591.1822" fill="none" style="stroke:#00BFFF;stroke-width:1.1923;"/><text fill="#000000" font-family="sans-serif" font-size="15.4998" lengthAdjust="spacing" textLength="209.6815" x="414.5935" y="584.2562">Inicia stream de v&#237;deo (RTSP)</text></g><text fill="#1E90FF" font-family="Arial" font-size="16.6921" font-weight="bold" lengthAdjust="spacing" textLength="189.8885" x="35.7688" y="655.5254">Casos de Uso cobertos:</text><text fill="#1E90FF" font-family="Arial" font-size="16.6921" lengthAdjust="spacing" textLength="5.3748" x="35.7688" y="678.2599">-</text><text fill="#1E90FF" font-family="Arial" font-size="16.6921" font-weight="bold" lengthAdjust="spacing" textLength="60.3917" x="45.4835" y="678.2599">MC-007</text><text fill="#1E90FF" font-family="Arial" font-size="16.6921" lengthAdjust="spacing" textLength="323.358" x="105.8753" y="678.2599">: Captura de V&#237;deo para An&#225;lise de Falhas</text><text fill="#1E90FF" font-family="Arial" font-size="16.6921" lengthAdjust="spacing" textLength="5.3748" x="35.7688" y="700.9944">-</text><text fill="#1E90FF" font-family="Arial" font-size="16.6921" font-weight="bold" lengthAdjust="spacing" textLength="67.803" x="45.4835" y="700.9944">EDG-005</text><text fill="#1E90FF" font-family="Arial" font-size="16.6921" lengthAdjust="spacing" textLength="527.0676" x="113.2865" y="700.9944">: An&#225;lise de V&#237;deo em Tempo Real (Pr&#233;-requisito para acionamento)</text><polygon fill="none" points="95.6928,73.4936,95.6928,73.7442,107.5596,72.9997,119.4265,73.7241,131.2934,73.9702,143.1603,72.6431,155.0272,73.401,166.894,72.9851,178.7609,73.0364,190.6278,73.4124,202.4947,72.6693,214.3615,74.1537,226.2284,72.7422,238.0953,73.2578,249.9622,74.0087,261.8291,73.3914,273.6959,73.575,285.5628,73.4556,297.4297,73.7065,309.2966,73.7788,321.1634,74.192,333.0303,74.2937,344.8972,74.3035,356.7641,73.7972,368.631,74.0464,380.4978,74.3309,392.3647,72.6338,404.2316,74.3026,416.0985,73.1401,427.9654,74.1301,439.8322,72.9034,451.6991,73.412,463.566,74.3779,475.4329,73.4355,487.2997,73.6192,499.1666,73.8974,511.0335,73.9899,522.9004,73.489,534.7673,73.8361,546.6341,72.8112,558.501,73.8327,570.3679,74.1473,582.2348,74.0237,594.1016,74.2245,605.9685,72.9177,617.8354,72.716,629.7023,72.7528,641.5692,73.4234,653.436,73.2593,665.3029,74.3061,677.1698,73.2854,689.0367,73.0846,700.9035,73.7658,712.7704,72.6986,724.6373,72.8747,736.5042,74.2674,748.3711,74.0131,760.2379,74.3694,772.1048,73.11,783.9717,73.8742,795.8386,74.1976,807.7054,73.4936,807.6336,73.3202,808.9555,73.9823,810.2538,74.5875,811.5984,75.3044,812.7633,75.5874,814.0285,76.1128,814.1984,76.1831,814.349,77.2931,814.8275,78.539,815.7849,79.9832,815.8606,81.0622,816.6476,82.4358,817.2545,82.4358,816.894,94.8929,816.3282,107.35,816.2258,119.807,817.1946,132.2641,816.6476,144.7212,816.5377,144.6756,816.3411,146.0758,815.397,147.1663,815.3029,148.6089,814.7302,149.8533,814.0285,151.0442,814.0658,151.1342,812.7711,151.5854,811.6098,152.3587,810.328,152.841,808.9958,153.2017,807.7054,153.6633,807.7054,153.9831,795.8386,153.508,783.9717,154.5176,772.1048,153.848,760.2379,153.8691,748.3711,152.938,736.5042,153.1802,724.6373,154.2962,712.7704,154.1757,700.9035,153.6122,689.0367,153.2792,677.1698,153.4023,665.3029,152.8452,653.436,154.1578,641.5692,154.5451,629.7023,154.291,617.8354,154.4919,605.9685,153.5003,594.1016,153.7673,582.2348,153.2012,570.3679,154.002,558.501,153.9576,546.6341,154.322,534.7673,153.3895,522.9004,153.5031,511.0335,154.1921,499.1666,154.3398,487.2997,153.0523,475.4329,153.4322,463.566,153.8413,451.6991,152.935,439.8322,154.0847,427.9654,153.9709,416.0985,153.5432,404.2316,153.833,392.3647,154.5321,380.4978,153.2903,368.631,154.0389,356.7641,154.0039,344.8972,153.8014,333.0303,153.8314,321.1634,153.7986,309.2966,152.9192,297.4297,153.1855,285.5628,153.1131,273.6959,153.7394,261.8291,153.7684,249.9622,153.8562,238.0953,153.3164,226.2284,153.5828,214.3615,153.52,202.4947,154.3511,190.6278,154.1719,178.7609,153.0845,166.894,153.5764,155.0272,152.9751,143.1603,154.0072,131.2934,154.3888,119.4265,154.3126,107.5596,153.144,95.6928,153.6633,95.7633,153.8337,94.3152,152.8668,93.194,152.6892,91.8534,151.982,90.649,151.6036,89.3697,151.0442,89.4579,151.0808,89.0192,149.8514,88.0577,148.4055,87.9728,147.3227,87.3398,146.0129,86.7506,144.7212,87.1742,144.7212,87.6422,132.2641,86.7571,119.807,86.9596,107.35,87.0051,94.8929,86.7506,82.4358,86.823,82.4658,87.2741,81.1711,88.0592,80.0147,88.0982,78.5492,89.0534,77.4633,89.3697,76.1128,89.2748,75.8836,90.5521,75.3905,91.905,75.0798,93.1678,74.5517,94.3532,73.8365,95.6928,73.4936" style="stroke:#000000;stroke-width:1.1923;"/><text fill="#1E90FF" font-family="Arial" font-size="23.8458" font-weight="bold" lengthAdjust="spacing" textLength="682.2054" x="110.5964" y="122.8307">Diagrama de Sequ&#234;ncia - M&#243;dulo de Controle (MC) - Video</text><!--SRC=[PLAzRjim4Dxv5DTCjb0bRj6qG0e4S2MdxH30Y99CMSxIsI50aIf9UUZRj1sA1F2KH-2BzKZPJXelbYL-ltTy8tMj-eQWd5rKnrtVAY4wj5xMiaFjuUYok3a2TC3F_mwAyBibYw_0uQdfbO5Piw8xFVhIBvTaJwwkgpbKPDTanqbhLdwTlIAMnKbLJCifiwOw_5BI4LnHQpmE50O8iVM4_3n9m1dCz5eQg8tsOQDx0rp4UKlOnd_hi6d8Y7jjF85XzrtejtjwVBIS83oqi4XfOVHkug2puI5Vehh7iH1S_OKbG2KrAlaJuI82eB1XmqqGIl9KUsnG96Z-pAbGhH6CWwZDoRPMpov0gOJKFSBAuXfrO-1ETyR2AJXQzVpEgSAJ6_2V3omAqyXbJ54hsV4KsD70wDln-uyVnWVWkIKUFqBwQQJhZ9OB6Jk5l-4Fy-BAkFd0Eu_JPzPtpVl2Wm7lqOfMf1lmfXEGPQL4Rj9Y15Rqem-FEh9ps5qI_bvmPsiKmUYo6FFHhMIzB1DHPb0JOcbuVLO0InReJ9hVZOjBNv3rnfqndfUIy_bbaKycdxACfu6TxstolXr2fghxgyNVq_BSZifDcNiQkIz1MpArS4rjP_XAeeBHFExDSYVffDzAOosDnfQqD-EKVyWD8Fu1]--></g></svg>