<svg xmlns="http://www.w3.org/2000/svg" xmlns:xlink="http://www.w3.org/1999/xlink" contentStyleType="text/css" data-diagram-type="SEQUENCE" height="750.8166px" preserveAspectRatio="none" style="width:967px;height:750px;background:#EEEBDC;" version="1.1" viewBox="0 0 967 750" width="967.3754px" zoomAndPan="magnify"><defs/><g><rect fill="#EEEBDC" height="750.8166" style="stroke:none;stroke-width:1.1899;" width="967.3754" x="0" y="0"/><g><title>MCU</title><polygon fill="#000000" points="390.4723,273.7922,390.4723,273.8755,392.8521,273.6278,395.2318,273.8688,397.6116,273.9507,399.9914,273.5092,402.3711,273.7922,402.2787,273.7922,401.8637,285.5511,401.9148,297.3099,402.29,309.0688,401.5485,320.8277,403.0299,332.5866,401.6212,344.3455,402.1358,356.1044,402.8851,367.8633,402.2691,379.6222,402.4523,391.3811,402.3331,403.14,402.5836,414.8989,402.6557,426.6578,403.068,438.4167,403.1696,450.1756,403.1794,461.9345,402.6741,473.6933,402.9227,485.4522,403.2067,497.2111,401.513,508.97,403.1785,520.7289,402.0183,532.4878,403.0063,544.2467,401.7821,556.0056,402.2896,567.7645,402.3711,579.5234,402.3711,579.8175,399.9914,579.5041,397.6116,579.5651,395.2318,579.6577,392.8521,579.6885,390.4723,579.5234,390.4676,579.5234,390.814,567.7645,389.7912,556.0056,390.8107,544.2467,391.1246,532.4878,391.0012,520.7289,391.2017,508.97,389.8975,497.2111,389.6963,485.4522,389.7329,473.6933,390.4022,461.9345,390.2384,450.1756,391.2831,438.4167,390.2644,426.6578,390.0641,414.8989,390.7439,403.14,389.6788,391.3811,389.8546,379.6222,391.2445,367.8633,390.9907,356.1044,391.3462,344.3455,390.0894,332.5866,390.8521,320.8277,391.1748,309.0688,389.9102,297.3099,390.3582,285.5511,390.4723,273.7922" style="stroke:#181818;stroke-width:1.1899;"/></g><g><title>Sensor .ptico</title><polygon fill="#000000" fill-opacity="0.00000" points="71.3905,233.6859,71.3905,233.7693,73.2943,233.5216,75.1981,233.7626,77.1019,233.8444,79.0057,233.403,80.9095,233.6859,80.8171,233.6859,80.4021,245.5708,80.4532,257.4557,80.8284,269.3406,80.0869,281.2254,81.5683,293.1103,80.1596,304.9952,80.6742,316.8801,81.4235,328.765,80.8075,340.6498,80.9907,352.5347,80.8715,364.4196,81.122,376.3045,81.1941,388.1894,81.6064,400.0742,81.708,411.9591,81.7178,423.844,81.2125,435.7289,81.4612,447.6138,81.7451,459.4986,80.0514,471.3835,81.7169,483.2684,80.5567,495.1533,81.5447,507.0382,80.3205,518.9231,80.828,530.8079,81.792,542.6928,80.8515,554.5777,81.0348,566.4626,81.3125,578.3475,80.9095,590.2323,80.9095,590.3974,79.0057,590.2308,77.1019,590.3463,75.1981,590.0053,73.2943,590.3451,71.3905,590.2323,72.0428,590.2323,71.9194,578.3475,72.1199,566.4626,70.8157,554.5777,70.6144,542.6928,70.6511,530.8079,71.3204,518.9231,71.1566,507.0382,72.2013,495.1533,71.1826,483.2684,70.9823,471.3835,71.6621,459.4986,70.597,447.6138,70.7728,435.7289,72.1626,423.844,71.9089,411.9591,72.2644,400.0742,71.0076,388.1894,71.7703,376.3045,72.093,364.4196,70.8284,352.5347,71.2764,340.6498,71.5404,328.765,72.166,316.8801,71.3855,304.9952,71.9409,293.1103,70.7315,281.2254,70.5846,269.3406,71.9897,257.4557,70.5374,245.5708,71.3905,233.6859"/><path d="M74.9627,233.6859 L75.2961,233.6859 L74.3053,245.5708 L75.2693,257.4557 L75.5968,269.3406 L73.8309,281.2254 L74.8394,293.1103 L74.286,304.9952 L74.3542,316.8801 L74.8545,328.765 L73.8658,340.6498 L75.841,352.5347 L73.9627,364.4196 L74.6489,376.3045 L75.648,388.1894 L74.8266,400.0742 L75.0709,411.9591 L74.912,423.844 L75.2459,435.7289 L75.3421,447.6138 L75.8919,459.4986 L76.0273,471.3835 L76.0403,483.2684 L75.3666,495.1533 L75.6982,507.0382 L76.0768,518.9231 L73.8185,530.8079 L76.0391,542.6928 L74.4923,554.5777 L75.8096,566.4626 L74.1773,578.3475 L74.9627,590.2323" fill="none" style="stroke:#0000FF;stroke-width:0.5949;stroke-dasharray:5.9494,5.9494;"/></g><g><title>MCU</title><polygon fill="#000000" fill-opacity="0.00000" points="391.6622,233.6859,391.6622,233.7693,393.566,233.5216,395.4698,233.7626,397.3736,233.8444,399.2774,233.403,401.1812,233.6859,401.0888,233.6859,400.6738,245.5708,400.7249,257.4557,401.1001,269.3406,400.3586,281.2254,401.84,293.1103,400.4313,304.9952,400.9459,316.8801,401.6952,328.765,401.0792,340.6498,401.2624,352.5347,401.1432,364.4196,401.3937,376.3045,401.4658,388.1894,401.8781,400.0742,401.9797,411.9591,401.9895,423.844,401.4842,435.7289,401.7329,447.6138,402.0168,459.4986,400.3231,471.3835,401.9886,483.2684,400.8284,495.1533,401.8164,507.0382,400.5922,518.9231,401.0997,530.8079,402.0637,542.6928,401.1233,554.5777,401.3065,566.4626,401.5842,578.3475,401.1812,590.2323,401.1812,590.3974,399.2774,590.2308,397.3736,590.3463,395.4698,590.0053,393.566,590.3451,391.6622,590.2323,392.3145,590.2323,392.1911,578.3475,392.3916,566.4626,391.0874,554.5777,390.8862,542.6928,390.9228,530.8079,391.5921,518.9231,391.4283,507.0382,392.473,495.1533,391.4543,483.2684,391.254,471.3835,391.9338,459.4986,390.8687,447.6138,391.0445,435.7289,392.4344,423.844,392.1806,411.9591,392.5361,400.0742,391.2793,388.1894,392.042,376.3045,392.3647,364.4196,391.1001,352.5347,391.5481,340.6498,391.8121,328.765,392.4377,316.8801,391.6572,304.9952,392.2126,293.1103,391.0032,281.2254,390.8563,269.3406,392.2614,257.4557,390.8091,245.5708,391.6622,233.6859"/><path d="M396.0708,233.6859 L396.4042,233.6859 L395.4134,245.5708 L396.3774,257.4557 L396.7048,269.3406 L394.9389,281.2254 L395.9475,293.1103 L395.3941,304.9952 L395.4623,316.8801 L395.9626,328.765 L394.9739,340.6498 L396.9491,352.5347 L395.0708,364.4196 L395.757,376.3045 L396.756,388.1894 L395.9347,400.0742 L396.179,411.9591 L396.0201,423.844 L396.354,435.7289 L396.4501,447.6138 L397,459.4986 L397.1354,471.3835 L397.1484,483.2684 L396.4747,495.1533 L396.8062,507.0382 L397.1848,518.9231 L394.9266,530.8079 L397.1472,542.6928 L395.6003,554.5777 L396.9176,566.4626 L395.2854,578.3475 L396.0708,590.2323" fill="none" style="stroke:#0000FF;stroke-width:0.5949;stroke-dasharray:5.9494,5.9494;"/></g><g><title>Esteira</title><polygon fill="#000000" fill-opacity="0.00000" points="655.932,233.6859,655.932,233.7693,657.8358,233.5216,659.7396,233.7626,661.6434,233.8444,663.5472,233.403,665.451,233.6859,665.3586,233.6859,664.9436,245.5708,664.9947,257.4557,665.3699,269.3406,664.6284,281.2254,666.1098,293.1103,664.7011,304.9952,665.2157,316.8801,665.965,328.765,665.349,340.6498,665.5322,352.5347,665.413,364.4196,665.6635,376.3045,665.7356,388.1894,666.1479,400.0742,666.2495,411.9591,666.2593,423.844,665.754,435.7289,666.0026,447.6138,666.2866,459.4986,664.5929,471.3835,666.2584,483.2684,665.0982,495.1533,666.0862,507.0382,664.862,518.9231,665.3695,530.8079,666.3335,542.6928,665.393,554.5777,665.5763,566.4626,665.854,578.3475,665.451,590.2323,665.451,590.3974,663.5472,590.2308,661.6434,590.3463,659.7396,590.0053,657.8358,590.3451,655.932,590.2323,656.5843,590.2323,656.4609,578.3475,656.6614,566.4626,655.3572,554.5777,655.1559,542.6928,655.1926,530.8079,655.8619,518.9231,655.6981,507.0382,656.7428,495.1533,655.7241,483.2684,655.5238,471.3835,656.2036,459.4986,655.1385,447.6138,655.3143,435.7289,656.7041,423.844,656.4504,411.9591,656.8059,400.0742,655.5491,388.1894,656.3118,376.3045,656.6345,364.4196,655.3699,352.5347,655.8179,340.6498,656.0819,328.765,656.7075,316.8801,655.927,304.9952,656.4824,293.1103,655.273,281.2254,655.1261,269.3406,656.5312,257.4557,655.0789,245.5708,655.932,233.6859"/><path d="M660.5345,233.6859 L660.868,233.6859 L659.8772,245.5708 L660.8412,257.4557 L661.1686,269.3406 L659.4027,281.2254 L660.4112,293.1103 L659.8579,304.9952 L659.9261,316.8801 L660.4264,328.765 L659.4377,340.6498 L661.4129,352.5347 L659.5346,364.4196 L660.2208,376.3045 L661.2198,388.1894 L660.3984,400.0742 L660.6428,411.9591 L660.4838,423.844 L660.8178,435.7289 L660.9139,447.6138 L661.4637,459.4986 L661.5992,471.3835 L661.6122,483.2684 L660.9385,495.1533 L661.27,507.0382 L661.6486,518.9231 L659.3904,530.8079 L661.611,542.6928 L660.0641,554.5777 L661.3814,566.4626 L659.7492,578.3475 L660.5345,590.2323" fill="none" style="stroke:#0000FF;stroke-width:0.5949;stroke-dasharray:5.9494,5.9494;"/></g><g><title>Monitor</title><polygon fill="#000000" fill-opacity="0.00000" points="754.8724,233.6859,754.8724,233.7693,756.7762,233.5216,758.68,233.7626,760.5838,233.8444,762.4876,233.403,764.3915,233.6859,764.299,233.6859,763.884,245.5708,763.9351,257.4557,764.3104,269.3406,763.5688,281.2254,765.0502,293.1103,763.6415,304.9952,764.1561,316.8801,764.9054,328.765,764.2894,340.6498,764.4727,352.5347,764.3534,364.4196,764.6039,376.3045,764.676,388.1894,765.0884,400.0742,765.1899,411.9591,765.1997,423.844,764.6944,435.7289,764.9431,447.6138,765.227,459.4986,763.5333,471.3835,765.1988,483.2684,764.0387,495.1533,765.0266,507.0382,763.8024,518.9231,764.31,530.8079,765.2739,542.6928,764.3335,554.5777,764.5168,566.4626,764.7944,578.3475,764.3915,590.2323,764.3915,590.3974,762.4876,590.2308,760.5838,590.3463,758.68,590.0053,756.7762,590.3451,754.8724,590.2323,755.5247,590.2323,755.4013,578.3475,755.6018,566.4626,754.2976,554.5777,754.0964,542.6928,754.133,530.8079,754.8023,518.9231,754.6385,507.0382,755.6832,495.1533,754.6645,483.2684,754.4642,471.3835,755.144,459.4986,754.0789,447.6138,754.2547,435.7289,755.6446,423.844,755.3908,411.9591,755.7464,400.0742,754.4895,388.1894,755.2522,376.3045,755.5749,364.4196,754.3103,352.5347,754.7583,340.6498,755.0223,328.765,755.6479,316.8801,754.8674,304.9952,755.4228,293.1103,754.2135,281.2254,754.0665,269.3406,755.4716,257.4557,754.0193,245.5708,754.8724,233.6859"/><path d="M759.6088,233.6859 L759.9423,233.6859 L758.9515,245.5708 L759.9155,257.4557 L760.2429,269.3406 L758.477,281.2254 L759.4855,293.1103 L758.9322,304.9952 L759.0004,316.8801 L759.5007,328.765 L758.512,340.6498 L760.4872,352.5347 L758.6089,364.4196 L759.2951,376.3045 L760.2941,388.1894 L759.4727,400.0742 L759.7171,411.9591 L759.5581,423.844 L759.8921,435.7289 L759.9882,447.6138 L760.538,459.4986 L760.6735,471.3835 L760.6865,483.2684 L760.0128,495.1533 L760.3443,507.0382 L760.7229,518.9231 L758.4647,530.8079 L760.6853,542.6928 L759.1384,554.5777 L760.4557,566.4626 L758.8235,578.3475 L759.6088,590.2323" fill="none" style="stroke:#0000FF;stroke-width:0.5949;stroke-dasharray:5.9494,5.9494;"/></g><g><title>M.dulo Edge</title><polygon fill="#000000" fill-opacity="0.00000" points="884.4177,233.6859,884.4177,233.7693,886.3216,233.5216,888.2254,233.7626,890.1292,233.8444,892.033,233.403,893.9368,233.6859,893.8443,233.6859,893.4293,245.5708,893.4805,257.4557,893.8557,269.3406,893.1142,281.2254,894.5956,293.1103,893.1869,304.9952,893.7015,316.8801,894.4508,328.765,893.8348,340.6498,894.018,352.5347,893.8988,364.4196,894.1492,376.3045,894.2214,388.1894,894.6337,400.0742,894.7353,411.9591,894.7451,423.844,894.2398,435.7289,894.4884,447.6138,894.7724,459.4986,893.0787,471.3835,894.7442,483.2684,893.584,495.1533,894.572,507.0382,893.3478,518.9231,893.8553,530.8079,894.8192,542.6928,893.8788,554.5777,894.0621,566.4626,894.3397,578.3475,893.9368,590.2323,893.9368,590.3974,892.033,590.2308,890.1292,590.3463,888.2254,590.0053,886.3216,590.3451,884.4177,590.2323,885.07,590.2323,884.9467,578.3475,885.1472,566.4626,883.8429,554.5777,883.6417,542.6928,883.6784,530.8079,884.3477,518.9231,884.1839,507.0382,885.2285,495.1533,884.2099,483.2684,884.0096,471.3835,884.6894,459.4986,883.6243,447.6138,883.8,435.7289,885.1899,423.844,884.9361,411.9591,885.2917,400.0742,884.0348,388.1894,884.7976,376.3045,885.1203,364.4196,883.8556,352.5347,884.3037,340.6498,884.5677,328.765,885.1933,316.8801,884.4128,304.9952,884.9681,293.1103,883.7588,281.2254,883.6119,269.3406,885.017,257.4557,883.5647,245.5708,884.4177,233.6859"/><path d="M888.1625,233.6859 L888.4959,233.6859 L887.5051,245.5708 L888.4691,257.4557 L888.7966,269.3406 L887.0307,281.2254 L888.0392,293.1103 L887.4858,304.9952 L887.554,316.8801 L888.0543,328.765 L887.0656,340.6498 L889.0408,352.5347 L887.1625,364.4196 L887.8487,376.3045 L888.8478,388.1894 L888.0264,400.0742 L888.2707,411.9591 L888.1118,423.844 L888.4457,435.7289 L888.5419,447.6138 L889.0917,459.4986 L889.2271,471.3835 L889.2401,483.2684 L888.5664,495.1533 L888.898,507.0382 L889.2766,518.9231 L887.0183,530.8079 L889.2389,542.6928 L887.6921,554.5777 L889.0094,566.4626 L887.3771,578.3475 L888.1625,590.2323" fill="none" style="stroke:#0000FF;stroke-width:0.5949;stroke-dasharray:5.9494,5.9494;"/></g><g class="participant participant-head" data-participant="Sensor .ptico"><text fill="#1E90FF" font-family="Aapex" font-size="20.228" lengthAdjust="spacing" textLength="133.2619" x="5.9494" y="227.7591">Sensor &#211;ptico</text><polygon fill="#00BFFF" points="85.7217,147.1718,84.3263,149.0784,82.6759,151.8708,80.3156,153.7528,77.8352,154.7819,75.8575,154.8712,73.3157,153.5841,70.9173,152.7433,69.0968,151.0362,68.1419,149.0818,67.5756,147.5257,67.0208,145.4931,66.1204,143.744,66.8123,142.0362,67.4186,140.1654,69.6937,138.6859,71.2944,136.7661,73.2756,136.1287,75.6309,135.5797,78.6513,135.9059,80.3056,136.686,82.229,137.0397,84.5676,139.4357,85.3829,141.9652,85.7371,143.6911,85.3359,146.5351" style="stroke:#00BFFF;stroke-width:0.5949;"/><path d="M76.15,154.3755 L76.3723,154.3755 L75.7118,160.8008 L76.3544,167.2262 L76.5727,173.6516 L75.3955,180.077 L76.15,186.5023 M60.6815,163.8945 L60.6815,163.8124 L66.8689,163.4435 L73.0563,163.4889 L79.2437,163.8225 L85.4311,163.1633 L91.6185,163.8945 M76.15,186.5023 L76.5925,186.8858 L72.5525,189.6354 L69.8045,193.5046 L67.2142,197.5105 L63.7067,200.7215 L60.6815,204.3506 M76.15,186.5023 L76.2045,186.5496 L79.2182,190.0499 L82.4801,193.7653 L85.6222,197.3769 L88.9929,201.1866 L91.6185,204.3506" fill="none" style="stroke:#00BFFF;stroke-width:0.5949;"/></g><g class="participant participant-head" data-participant="MCU"><polygon fill="#1E90FF" points="368.1085,188.2872,368.1085,188.5373,379.4338,187.7942,390.7591,188.5171,402.0844,188.7627,413.4096,187.4383,424.7349,188.2872,424.7231,188.2587,425.0909,188.3051,425.5181,188.4951,425.9867,188.7849,426.3127,188.7308,426.8384,189.1584,427.0412,189.2425,426.7817,189.4835,427.1144,189.9698,427.5194,190.4861,427.504,190.8282,427.7096,191.2619,427.7367,191.2619,427.697,198.9138,427.7805,206.5657,427.8045,214.2175,427.9419,221.8694,427.7096,229.5213,427.9555,229.6232,427.7843,230.0451,427.4544,230.4013,427.3568,230.8538,427.2699,231.3107,426.8384,231.6248,426.7289,231.3605,426.5207,232.0476,425.952,231.8646,425.6573,232.3431,425.0805,232.1404,424.7349,232.496,424.7349,232.4145,413.4096,233.3785,402.0844,232.438,390.7591,232.6213,379.4338,232.899,368.1085,232.496,368.1717,232.6486,367.6872,232.3203,367.3107,232.2528,366.7595,231.7635,366.4689,231.9032,366.005,231.6248,366.2059,231.708,365.9937,231.2715,365.8812,230.8764,365.3053,230.2894,365.069,229.843,365.1338,229.5213,364.8873,229.5213,365.1104,221.8694,365.0558,214.2175,365.404,206.5657,365.0645,198.9138,365.1338,191.2619,365.0081,191.2098,365.3917,190.8758,365.2379,190.3193,365.4663,189.921,366.0686,189.6776,366.005,189.1584,366.0712,189.3181,366.5372,189.2533,366.7976,188.692,367.3156,188.7526,367.7774,188.6778,368.1085,188.2872" style="stroke:#00BFFF;stroke-width:0.5949;"/><text fill="#A9DCDF" font-family="Impact" font-size="20.228" lengthAdjust="spacing" textLength="45.9175" x="373.463" y="218.2401">MCU</text></g><g class="participant participant-head" data-participant="Esteira"><polygon fill="#1E90FF" points="623.0532,188.2872,623.0532,188.5373,635.5993,187.7942,648.1454,188.5171,660.6915,188.7627,673.2376,187.4383,685.7837,188.1947,698.3298,188.2872,698.2651,188.1309,698.6923,188.3209,699.1608,188.6107,699.4869,188.5566,700.0966,189.1871,700.4333,189.1584,700.2023,189.0628,700.535,189.5491,700.94,190.0654,700.9246,190.4075,701.1553,190.8515,701.3045,191.2619,701.2919,191.2619,701.3753,198.9138,701.3994,206.5657,701.5368,214.2175,701.5707,221.8694,701.3045,229.5213,701.5534,229.6244,701.2236,229.9807,701.1259,230.4331,701.0391,230.89,700.3432,231.0946,700.4333,231.6248,700.5362,231.8734,699.9676,231.6904,699.6729,232.1689,699.0961,231.9661,698.7401,232.2967,698.3298,232.496,698.3298,233.3785,685.7837,232.438,673.2376,232.6213,660.6915,232.899,648.1454,232.9913,635.5993,232.4914,623.0532,232.496,623.0968,232.6013,622.5456,232.112,622.255,232.2517,621.8743,232.1742,621.4379,231.9619,620.9498,231.6248,621.1744,231.7178,620.5985,231.1308,620.3623,230.6844,620.1993,230.2684,620.2312,229.9331,620.0785,229.5213,620.0005,229.5213,620.3487,221.8694,620.0092,214.2175,619.9424,206.5657,620.169,198.9138,620.0785,191.2619,619.8341,191.1607,620.0625,190.7624,620.6648,190.519,620.7609,190.0659,621.0446,189.6906,620.9498,189.1584,620.9009,189.0405,621.4189,189.1011,621.8807,189.0263,622.1401,188.4626,622.618,188.4263,623.0532,188.2872" style="stroke:#00BFFF;stroke-width:0.5949;"/><text fill="#A9DCDF" font-family="Impact" font-size="20.228" lengthAdjust="spacing" textLength="64.5677" x="628.4077" y="218.2401">Esteira</text></g><g class="participant participant-head" data-participant="Monitor"><polygon fill="#1E90FF" points="716.1781,188.2872,716.1781,188.5373,728.5935,187.7942,741.0088,188.5171,753.4242,188.7627,765.8396,187.4383,778.255,188.1947,790.6704,187.7797,803.0858,188.2872,803.0276,188.1466,803.4961,188.4364,803.8222,188.3823,804.4319,189.0128,804.6729,188.7532,805.1892,189.1584,805.1168,189.1284,805.5218,189.6447,805.5063,189.9868,805.737,190.4309,805.8745,190.8363,806.0605,191.2619,806.1313,191.2619,806.1553,198.9138,806.2928,206.5657,806.3267,214.2175,806.3299,221.8694,806.0605,229.5213,806.1538,229.56,806.0561,230.0124,805.9693,230.4693,805.2735,230.6739,805.6121,231.3071,805.1892,231.6248,805.1442,231.5161,804.8496,231.9946,804.2727,231.7919,803.9168,232.1224,803.619,232.5935,803.0858,232.496,803.0858,232.438,790.6704,232.6213,778.255,232.899,765.8396,232.9913,753.4242,232.4914,741.0088,232.8378,728.5935,231.8149,716.1781,232.496,716.2212,232.6002,715.8406,232.5227,715.4042,232.3104,715.0091,232.1979,714.422,231.622,714.0746,231.6248,713.8356,231.5258,713.6727,231.1098,713.7045,230.7745,713.4799,230.3329,713.6273,230.0454,713.2034,229.5213,713.1341,229.5213,713.0673,221.8694,713.2939,214.2175,712.9389,206.5657,712.9975,198.9138,713.2034,191.2619,713.4412,191.3604,713.5373,190.9073,713.821,190.532,713.6082,189.951,714.0173,189.6276,714.0746,189.1584,714.1642,189.3748,714.4236,188.8111,714.9015,188.7748,715.3558,188.6818,715.8563,188.7002,716.1781,188.2872" style="stroke:#00BFFF;stroke-width:0.5949;"/><text fill="#A9DCDF" font-family="Impact" font-size="20.228" lengthAdjust="spacing" textLength="76.1988" x="721.5325" y="218.2401">Monitor</text></g><g class="participant participant-head" data-participant="M.dulo Edge"><polygon fill="#1E90FF" points="820.934,188.2872,820.934,188.5373,833.3419,187.7942,845.7498,188.5171,858.1576,188.7627,870.5655,187.4383,882.9733,188.1947,895.3812,187.7797,907.7891,187.8308,920.1969,188.2061,932.6048,187.4645,945.0127,188.9459,957.4205,188.2872,957.3249,188.0562,957.8112,188.3889,958.3275,188.794,958.6696,188.7785,959.1136,189.0092,959.524,189.1584,959.5123,189.1536,959.7636,189.6062,959.9601,190.0361,960.2613,190.5094,960.4669,190.943,960.3952,191.2619,960.6646,191.2619,960.4962,198.9138,960.5791,206.5657,960.6738,214.2175,960.1092,221.8694,960.3952,229.5213,960.6439,229.6243,960.1123,229.897,960.2423,230.4437,959.6911,230.7083,959.6731,231.1937,959.524,231.6248,959.6365,231.8965,959.0959,231.7812,958.6986,232.0119,958.3133,232.2716,957.9044,232.4743,957.4205,232.496,957.4205,232.4914,945.0127,232.8378,932.6048,231.8149,920.1969,232.8344,907.7891,233.1483,895.3812,233.025,882.9733,233.2255,870.5655,231.9212,858.1576,231.72,845.7498,231.7566,833.3419,232.426,820.934,232.496,820.9042,232.424,820.6168,232.5715,820.0662,232.0835,819.6199,231.8476,819.2859,231.8827,818.8306,231.6248,818.5862,231.5235,818.4661,231.1253,818.7199,230.8819,818.4675,230.4288,818.4027,230.0535,817.9593,229.5213,817.8317,229.5213,818.0859,221.8694,818.1935,214.2175,817.772,206.5657,817.9213,198.9138,817.9593,191.2619,818.0055,191.281,818.3724,190.9401,818.3063,190.4199,818.6516,190.07,818.4534,189.4951,818.8306,189.1584,818.7278,188.9103,819.3277,189.1687,819.5632,188.5472,820.1699,188.8222,820.5447,188.5371,820.934,188.2872" style="stroke:#00BFFF;stroke-width:0.5949;"/><text fill="#A9DCDF" font-family="Impact" font-size="20.228" lengthAdjust="spacing" textLength="125.7775" x="826.2885" y="218.2401">M&#243;dulo Edge</text></g><g><title>MCU</title><polygon fill="#000000" points="390.4723,273.7922,390.4723,273.8755,392.8521,273.6278,395.2318,273.8688,397.6116,273.9507,399.9914,273.5092,402.3711,273.7922,402.2787,273.7922,401.8637,285.5511,401.9148,297.3099,402.29,309.0688,401.5485,320.8277,403.0299,332.5866,401.6212,344.3455,402.1358,356.1044,402.8851,367.8633,402.2691,379.6222,402.4523,391.3811,402.3331,403.14,402.5836,414.8989,402.6557,426.6578,403.068,438.4167,403.1696,450.1756,403.1794,461.9345,402.6741,473.6933,402.9227,485.4522,403.2067,497.2111,401.513,508.97,403.1785,520.7289,402.0183,532.4878,403.0063,544.2467,401.7821,556.0056,402.2896,567.7645,402.3711,579.5234,402.3711,579.8175,399.9914,579.5041,397.6116,579.5651,395.2318,579.6577,392.8521,579.6885,390.4723,579.5234,390.4676,579.5234,390.814,567.7645,389.7912,556.0056,390.8107,544.2467,391.1246,532.4878,391.0012,520.7289,391.2017,508.97,389.8975,497.2111,389.6963,485.4522,389.7329,473.6933,390.4022,461.9345,390.2384,450.1756,391.2831,438.4167,390.2644,426.6578,390.0641,414.8989,390.7439,403.14,389.6788,391.3811,389.8546,379.6222,391.2445,367.8633,390.9907,356.1044,391.3462,344.3455,390.0894,332.5866,390.8521,320.8277,391.1748,309.0688,389.9102,297.3099,390.3582,285.5511,390.4723,273.7922" style="stroke:#181818;stroke-width:1.1899;"/></g><g class="message" data-participant-1="Sensor .ptico" data-participant-2="MCU"><polygon fill="#00BFFF" points="376.1937,269.0326,376.2246,269.11,378.5124,269.832,380.9817,271.0076,383.3919,272.0355,385.6077,272.5775,388.0925,273.7922,388.0811,273.7635,385.6499,274.587,383.2765,275.5547,380.9432,276.6228,378.4716,277.3452,376.1937,278.5517,376.349,278.707,376.9688,277.423,378.042,276.5924,379.1706,275.8171,379.9773,274.72,380.9532,273.7922,380.9724,273.8113,379.9924,272.8313,379.0995,271.9384,378.1646,271.0035,377.3099,270.1488,376.1937,269.0326" style="stroke:#00BFFF;stroke-width:1.1899;"/><path d="M76.15,273.7922 L76.15,274.1256 L87.9647,273.1348 L99.7795,274.0988 L111.5942,274.4263 L123.4089,272.6603 L135.2237,273.6689 L147.0384,273.1155 L158.8531,273.1837 L170.6678,273.684 L182.4826,272.6953 L194.2973,274.6705 L206.112,272.7922 L217.9268,273.4784 L229.7415,274.4774 L241.5562,273.6561 L253.371,273.9004 L265.1857,273.7415 L277.0004,274.0754 L288.8151,274.1715 L300.6299,274.7214 L312.4446,274.8568 L324.2593,274.8698 L336.0741,274.1961 L347.8888,274.5276 L359.7035,274.9063 L371.5183,272.648 L383.333,273.7922" fill="none" style="stroke:#00BFFF;stroke-width:1.1899;"/><text fill="#000000" font-family="sans-serif" font-size="15.4685" lengthAdjust="spacing" textLength="287.6677" x="84.4792" y="266.8801">Detecta embalagem no in&#237;cio da Esteira</text></g><g class="message" data-participant-1="MCU" data-participant-2="MCU"><path d="M402.3711,311.5186 L402.3711,311.6298 L412.3662,311.2995 L422.3612,311.6208 L432.3562,311.73 L442.3512,311.1414 L452.3462,311.5186" fill="none" style="stroke:#00BFFF;stroke-width:1.1899;"/><path d="M452.3462,311.5186 L452.4574,311.5186 L452.1271,314.6123 L452.4485,317.706 L452.5576,320.7997 L451.969,323.8934 L452.3462,326.9871" fill="none" style="stroke:#00BFFF;stroke-width:1.1899;"/><path d="M403.561,326.9871 L403.561,327.0983 L413.3181,326.768 L423.0751,327.0893 L432.8321,327.1985 L442.5892,326.6098 L452.3462,326.9871" fill="none" style="stroke:#00BFFF;stroke-width:1.1899;"/><polygon fill="#00BFFF" points="415.4598,322.2276,415.4908,322.305,413.019,323.0269,410.7288,324.2026,408.3794,325.2305,405.8357,325.7725,403.561,326.9871,403.5496,326.9585,405.878,327.782,408.2641,328.7497,410.6903,329.8177,412.9782,330.5401,415.4598,331.7467,415.6151,331.9019,414.3312,330.618,413.5006,329.7874,412.7253,329.0121,411.6282,327.915,410.7003,326.9871,410.7195,327.0063,411.6433,326.0262,412.6542,325.1334,413.6231,324.1985,414.6722,323.3437,415.4598,322.2276" style="stroke:#00BFFF;stroke-width:1.1899;"/><text fill="#000000" font-family="sans-serif" font-size="15.4685" lengthAdjust="spacing" textLength="223.8137" x="410.7003" y="304.6066">Aciona dispositivo de manobra</text></g><g class="message" data-participant-1="MCU" data-participant-2="Esteira"><polygon fill="#00BFFF" points="646.4129,359.9541,646.4439,360.0315,648.7316,360.7534,651.2009,361.929,653.6111,362.957,655.8269,363.499,658.3117,364.7136,658.3003,364.685,655.8691,365.5084,653.4957,366.4762,651.1624,367.5442,648.6908,368.2666,646.4129,369.4731,646.5682,369.6284,647.188,368.3444,648.2612,367.5138,649.3898,366.7385,650.1965,365.6414,651.1724,364.7136,651.1916,364.7327,650.2116,363.7527,649.3187,362.8598,648.3838,361.9249,647.5291,361.0702,646.4129,359.9541" style="stroke:#00BFFF;stroke-width:1.1899;"/><path d="M402.3711,364.7136 L402.3711,365.047 L414.3321,364.0563 L426.2931,365.0202 L438.2541,365.3477 L450.2151,363.5818 L462.1761,364.5903 L474.1371,364.0369 L486.0982,364.1052 L498.0592,364.6055 L510.0202,363.6167 L521.9812,365.5919 L533.9422,363.7136 L545.9032,364.3998 L557.8642,365.3989 L569.8252,364.5775 L581.7862,364.8218 L593.7472,364.6629 L605.7082,364.9968 L617.6692,365.093 L629.6302,365.6428 L641.5912,365.7782 L653.5522,364.7136" fill="none" style="stroke:#00BFFF;stroke-width:1.1899;"/><text fill="#000000" font-family="sans-serif" font-size="15.4685" lengthAdjust="spacing" textLength="83.6846" x="410.7003" y="357.8015">Liga Esteira</text></g><g class="message" data-participant-1="Sensor .ptico" data-participant-2="MCU"><polygon fill="#00BFFF" points="376.1937,397.6805,376.2246,397.7579,378.5124,398.4799,380.9817,399.6555,383.3919,400.6834,385.6077,401.2254,388.0925,402.4401,388.0811,402.4114,385.6499,403.2349,383.2765,404.2026,380.9432,405.2707,378.4716,405.9931,376.1937,407.1996,376.349,407.3549,376.9688,406.0709,378.042,405.2403,379.1706,404.465,379.9773,403.3679,380.9532,402.4401,380.9724,402.4592,379.9924,401.4792,379.0995,400.5863,378.1646,399.6514,377.3099,398.7967,376.1937,397.6805" style="stroke:#00BFFF;stroke-width:1.1899;"/><path d="M76.15,402.4401 L76.15,402.7735 L87.9647,401.7827 L99.7795,402.7467 L111.5942,403.0742 L123.4089,401.3082 L135.2237,402.3168 L147.0384,401.7634 L158.8531,401.8316 L170.6678,402.3319 L182.4826,401.3432 L194.2973,403.3184 L206.112,401.4401 L217.9268,402.1263 L229.7415,403.1253 L241.5562,402.304 L253.371,402.5483 L265.1857,402.3894 L277.0004,402.7233 L288.8151,402.8194 L300.6299,403.3693 L312.4446,403.5047 L324.2593,403.5177 L336.0741,402.844 L347.8888,403.1755 L359.7035,403.5542 L371.5183,401.2959 L383.333,402.4401" fill="none" style="stroke:#00BFFF;stroke-width:1.1899;"/><text fill="#000000" font-family="sans-serif" font-size="15.4685" lengthAdjust="spacing" textLength="285.7651" x="84.4792" y="395.528">Detecta Embalagem no meio da Esteira</text></g><g class="message" data-participant-1="MCU" data-participant-2="MCU"><path d="M402.3711,440.1665 L402.3711,440.2777 L412.3662,439.9474 L422.3612,440.2687 L432.3562,440.3779 L442.3512,439.7893 L452.3462,440.1665" fill="none" style="stroke:#00BFFF;stroke-width:1.1899;"/><path d="M452.3462,440.1665 L452.4574,440.1665 L452.1271,443.2602 L452.4485,446.3539 L452.5576,449.4476 L451.969,452.5413 L452.3462,455.635" fill="none" style="stroke:#00BFFF;stroke-width:1.1899;"/><path d="M403.561,455.635 L403.561,455.7462 L413.3181,455.4159 L423.0751,455.7372 L432.8321,455.8464 L442.5892,455.2577 L452.3462,455.635" fill="none" style="stroke:#00BFFF;stroke-width:1.1899;"/><polygon fill="#00BFFF" points="415.4598,450.8755,415.4908,450.9529,413.019,451.6748,410.7288,452.8505,408.3794,453.8784,405.8357,454.4204,403.561,455.635,403.5496,455.6064,405.878,456.4299,408.2641,457.3976,410.6903,458.4656,412.9782,459.188,415.4598,460.3946,415.6151,460.5498,414.3312,459.2659,413.5006,458.4353,412.7253,457.66,411.6282,456.5629,410.7003,455.635,410.7195,455.6542,411.6433,454.6741,412.6542,453.7813,413.6231,452.8464,414.6722,451.9917,415.4598,450.8755" style="stroke:#00BFFF;stroke-width:1.1899;"/><text fill="#000000" font-family="sans-serif" font-size="15.4685" lengthAdjust="spacing" textLength="156.5876" x="410.7003" y="433.2545">Incrementa Contador</text></g><g class="message" data-participant-1="MCU" data-participant-2="Monitor"><polygon fill="#00BFFF" points="745.3533,488.602,745.3843,488.6794,747.6721,489.4013,750.1413,490.5769,752.5515,491.6049,754.7673,492.1469,757.2522,493.3615,757.2407,493.3329,754.8096,494.1563,752.4361,495.1241,750.1028,496.1921,747.6313,496.9145,745.3533,498.121,745.5086,498.2763,746.1285,496.9923,747.2017,496.1617,748.3302,495.3864,749.1369,494.2893,750.1129,493.3615,750.132,493.3806,749.152,492.4006,748.2591,491.5077,747.3242,490.5728,746.4695,489.7181,745.3533,488.602" style="stroke:#00BFFF;stroke-width:1.1899;"/><path d="M402.3711,493.3615 L402.3711,493.6949 L414.4443,492.7042 L426.5174,493.6681 L438.5906,493.9956 L450.6637,492.2297 L462.7369,493.2382 L474.8101,492.6849 L486.8832,492.7531 L498.9564,493.2534 L511.0295,492.2646 L523.1027,494.2398 L535.1758,492.3615 L547.249,493.0477 L559.3221,494.0468 L571.3953,493.2254 L583.4685,493.4697 L595.5416,493.3108 L607.6148,493.6447 L619.6879,493.7409 L631.7611,494.2907 L643.8342,494.4261 L655.9074,494.4391 L667.9805,493.7655 L680.0537,494.097 L692.1269,494.4756 L704.2,492.2173 L716.2732,494.438 L728.3463,492.8911 L740.4195,494.2084 L752.4926,493.3615" fill="none" style="stroke:#00BFFF;stroke-width:1.1899;"/><text fill="#000000" font-family="sans-serif" font-size="15.4685" lengthAdjust="spacing" textLength="172.5975" x="410.7003" y="486.4494">Envia dados para o IHM</text></g><g class="message" data-participant-1="MCU" data-participant-2="M.dulo Edge"><polygon fill="#00BFFF" points="874.8987,526.3284,874.9296,526.4058,877.2174,527.1278,879.6867,528.3034,882.0969,529.3313,884.3127,529.8733,886.7975,531.088,886.7861,531.0593,884.3549,531.8828,881.9815,532.8505,879.6482,533.9186,877.1766,534.641,874.8987,535.8475,875.0539,536.0028,875.6738,534.7188,876.747,533.8882,877.8755,533.1129,878.6822,532.0158,879.6582,531.088,879.6773,531.1071,878.6973,530.1271,877.8045,529.2342,876.8696,528.2993,876.0148,527.4446,874.8987,526.3284" style="stroke:#00BFFF;stroke-width:1.1899;"/><path d="M402.3711,531.088 L402.3711,531.4214 L414.3628,530.4306 L426.3545,531.3946 L438.3461,531.7221 L450.3378,529.9561 L462.3295,530.9647 L474.3212,530.4113 L486.3128,530.4795 L498.3045,530.9798 L510.2962,529.9911 L522.2878,531.9663 L534.2795,530.088 L546.2712,530.7742 L558.2629,531.7732 L570.2545,530.9519 L582.2462,531.1962 L594.2379,531.0373 L606.2295,531.3712 L618.2212,531.4673 L630.2129,532.0172 L642.2046,532.1526 L654.1962,532.1656 L666.1879,531.4919 L678.1796,531.8234 L690.1712,532.2021 L702.1629,529.9438 L714.1546,532.1644 L726.1463,530.6176 L738.1379,531.9349 L750.1296,530.3026 L762.1213,530.9793 L774.1129,532.2645 L786.1046,531.0106 L798.0963,531.255 L810.088,531.6252 L822.0796,531.7483 L834.0713,531.0818 L846.063,531.5436 L858.0546,530.1798 L870.0463,531.5391 L882.038,531.088" fill="none" style="stroke:#00BFFF;stroke-width:1.1899;"/><text fill="#000000" font-family="sans-serif" font-size="15.4685" lengthAdjust="spacing" textLength="180.8422" x="410.7003" y="524.1759">Envia dados para Nuvem</text></g><g class="message" data-participant-1="Sensor .ptico" data-participant-2="MCU"><polygon fill="#00BFFF" points="376.1937,564.0549,376.2246,564.1323,378.5124,564.8542,380.9817,566.0299,383.3919,567.0578,385.6077,567.5998,388.0925,568.8144,388.0811,568.7858,385.6499,569.6093,383.2765,570.577,380.9432,571.6451,378.4716,572.3675,376.1937,573.574,376.349,573.7292,376.9688,572.4453,378.042,571.6147,379.1706,570.8394,379.9773,569.7423,380.9532,568.8144,380.9724,568.8336,379.9924,567.8536,379.0995,566.9607,378.1646,566.0258,377.3099,565.1711,376.1937,564.0549" style="stroke:#00BFFF;stroke-width:1.1899;"/><path d="M76.15,568.8144 L76.15,569.1479 L87.9647,568.1571 L99.7795,569.1211 L111.5942,569.4485 L123.4089,567.6826 L135.2237,568.6911 L147.0384,568.1378 L158.8531,568.206 L170.6678,568.7063 L182.4826,567.7176 L194.2973,569.6928 L206.112,567.8145 L217.9268,568.5007 L229.7415,569.4997 L241.5562,568.6783 L253.371,568.9227 L265.1857,568.7637 L277.0004,569.0977 L288.8151,569.1938 L300.6299,569.7436 L312.4446,569.8791 L324.2593,569.8921 L336.0741,569.2184 L347.8888,569.5499 L359.7035,569.9285 L371.5183,567.6703 L383.333,568.8144" fill="none" style="stroke:#00BFFF;stroke-width:1.1899;"/><text fill="#000000" font-family="sans-serif" font-size="15.4685" lengthAdjust="spacing" textLength="275.7106" x="84.4792" y="561.9024">Detecta Embalagem no Fim da Esteira</text></g><text fill="#1E90FF" font-family="Arial" font-size="16.6584" font-weight="bold" lengthAdjust="spacing" textLength="189.5049" x="35.6965" y="633.0276">Casos de Uso cobertos:</text><text fill="#1E90FF" font-family="Arial" font-size="16.6584" lengthAdjust="spacing" textLength="5.364" x="35.6965" y="655.7162">-</text><text fill="#1E90FF" font-family="Arial" font-size="16.6584" font-weight="bold" lengthAdjust="spacing" textLength="60.2697" x="45.3916" y="655.7162">MC-001</text><text fill="#1E90FF" font-family="Arial" font-size="16.6584" lengthAdjust="spacing" textLength="246.7595" x="109.9925" y="655.7162">Controle da esteira e atuadores</text><text fill="#1E90FF" font-family="Arial" font-size="16.6584" lengthAdjust="spacing" textLength="5.364" x="35.6965" y="678.4048">-</text><text fill="#1E90FF" font-family="Arial" font-size="16.6584" font-weight="bold" lengthAdjust="spacing" textLength="60.2697" x="45.3916" y="678.4048">MC-002</text><text fill="#1E90FF" font-family="Arial" font-size="16.6584" lengthAdjust="spacing" textLength="326.9859" x="109.9925" y="678.4048">Contagem de produtos de alta velocidade</text><text fill="#1E90FF" font-family="Arial" font-size="16.6584" lengthAdjust="spacing" textLength="5.364" x="35.6965" y="701.0934">-</text><text fill="#1E90FF" font-family="Arial" font-size="16.6584" font-weight="bold" lengthAdjust="spacing" textLength="60.2697" x="45.3916" y="701.0934">MC-005</text><text fill="#1E90FF" font-family="Arial" font-size="16.6584" lengthAdjust="spacing" textLength="316.308" x="109.9925" y="701.0934">Leitura de sensores anal&#243;gicos e digitais</text><polygon fill="none" points="108.1689,29.7471,108.1689,29.9972,120.0549,29.2541,131.9409,29.9771,143.8269,30.2227,155.7128,28.8982,167.5988,29.6546,179.4848,29.2396,191.3708,29.2908,203.2568,29.666,215.1428,28.9244,227.0287,30.4059,238.9147,28.9971,250.8007,29.5118,262.6867,30.2611,274.5727,29.645,286.4587,29.8283,298.3446,29.7091,310.2306,29.9595,322.1166,30.0316,334.0026,30.444,345.8886,30.5456,357.7746,30.5553,369.6605,30.0501,381.5465,30.2987,393.4325,30.5827,405.3185,28.889,417.2045,30.5544,429.0905,29.3943,440.9764,30.3823,452.8624,29.1581,464.7484,29.6656,476.6344,30.6295,488.5204,29.6891,500.4064,29.8724,512.2923,30.15,524.1783,30.2424,536.0643,29.7424,547.9503,30.0888,559.8363,29.066,571.7223,30.0855,583.6082,30.3994,595.4942,30.276,607.3802,30.4765,619.2662,29.1723,631.1522,28.9711,643.0382,29.0077,654.9241,29.677,666.8101,29.5132,678.6961,30.5579,690.5821,29.5392,702.4681,29.3389,714.3541,30.0187,726.24,28.9536,738.126,29.1294,750.012,30.5193,761.898,30.2655,773.784,30.621,785.67,29.3642,797.5559,30.1269,809.4419,30.4496,821.3279,29.185,833.2139,29.633,845.0999,29.897,856.9859,29.7471,857.0848,29.9859,858.2473,30.2683,859.5802,30.9621,860.688,31.1125,861.9313,31.59,863.2962,32.3609,863.4807,32.4373,863.5562,33.5142,864.5282,34.9623,864.9402,36.1785,865.289,37.3685,865.91,38.6712,865.489,38.6712,866.4559,51.1031,865.5538,63.535,866.6142,75.9669,865.2523,88.3988,865.91,100.8307,866.1362,100.9244,865.5647,102.1663,864.9542,103.392,864.359,104.6241,864.0852,105.9892,863.2962,107.141,863.3893,107.3659,862.0598,107.7258,860.8127,108.2848,859.4902,108.6616,858.3567,109.4946,856.9859,109.7548,856.9859,109.9391,845.0999,109.9602,833.2139,109.031,821.3279,109.2727,809.4419,110.3864,797.5559,110.2662,785.67,109.7038,773.784,109.3715,761.898,109.4943,750.012,108.9384,738.126,110.2483,726.24,110.6348,714.3541,110.3812,702.4681,110.5817,690.5821,109.5922,678.6961,109.8586,666.8101,109.2936,654.9241,110.0928,643.0382,110.0485,631.1522,110.4121,619.2662,109.4816,607.3802,109.5949,595.4942,110.2825,583.6082,110.4299,571.7223,109.145,559.8363,109.5241,547.9503,109.9324,536.0643,109.028,524.1783,110.1753,512.2923,110.0618,500.4064,109.6349,488.5204,109.9241,476.6344,110.6219,464.7484,109.3826,452.8624,110.1296,440.9764,110.0947,429.0905,109.8926,417.2045,109.9225,405.3185,109.8899,393.4325,109.0122,381.5465,109.2779,369.6605,109.2057,357.7746,109.8308,345.8886,109.8597,334.0026,109.9473,322.1166,109.4086,310.2306,109.6745,298.3446,109.6118,286.4587,110.4412,274.5727,110.2624,262.6867,109.1771,250.8007,109.6681,238.9147,109.068,227.0287,110.098,215.1428,110.4789,203.2568,110.4028,191.3708,109.2366,179.4848,110.3069,167.5988,108.871,155.7128,109.993,143.8269,109.3987,131.9409,109.8699,120.0549,110.0408,108.1689,109.7548,108.2406,109.9278,106.7976,108.9683,105.717,108.8835,104.4098,108.2518,103.1746,107.794,101.8586,107.141,102.1326,107.2545,101.3378,105.8798,100.8773,104.6435,100.3685,103.3872,99.8398,102.1227,99.2448,100.8307,99.2438,100.8307,100.0904,88.3988,98.5193,75.9669,99.9174,63.535,98.5023,51.1031,99.2448,38.6712,99.0468,38.5892,99.7822,37.4152,100.3007,36.1514,100.6325,34.8102,101.4874,33.6858,101.8586,32.3609,101.8751,32.4008,103.231,32.1044,104.484,31.5598,105.5767,30.6284,106.8464,30.124,108.1689,29.7471" style="stroke:#000000;stroke-width:1.1899;"/><text fill="#1E90FF" font-family="Arial" font-size="23.7977" font-weight="bold" lengthAdjust="spacing" textLength="719.0699" x="123.0425" y="78.9845">Diagrama de Sequ&#234;ncia - M&#243;dulo de Controle (MC) - Principal</text><!--SRC=[bPF1Qjj048Rl-nHJv-16uE0MUl6XK6I51g9IC7c0yMeg1bOxwkxABv97oA6qa5CUGI_MMTaXTd0f4G8jk_D_yy_CwXrxwuQ6O5rTRwxweNF6E6h9Dv2aDm15iMPi0tO86hMXdyFunrj6M40zFZM3axnVYaz17C7xkhpKe-z1kToZAmgJMNkaCMRk9T64dWDKKTVZRn18usFAA1cK5ctWyTVue6Hz3zdDF7EosXYqIGBCDkIZViVxFh6LcJ6lTs3n6UhoRWLhIcGJ0dLRTDXIfo1WFpvQrWmu6U606SmxL5EgWelbz9YyFdwUeLzKxBKh77k9hCAf4nrwsIhgZEgGPGMttBxa_A_fwjXqHwUE_sNknjj07NdLvzbW8-5ih7ZMNgwWyZkTQQDn4NeCg3Ev-LgVayoUnrurBStEAByDE-hUMDOrTyTL6VD3TD9XkdybHaLhQ- -YW9KjXIHnfHSh-z7pkbmibn-AukKIAeds9230DEJgAPx4Vpp4JmQKtGTfXhJFWqxjxSY9PIsBJdIVL7TBd8Om_GznAf8Ye4StFhLQQTIS3RUSaEDqzm-b_0K0]--></g></svg>