<svg xmlns="http://www.w3.org/2000/svg" xmlns:xlink="http://www.w3.org/1999/xlink" contentStyleType="text/css" data-diagram-type="SEQUENCE" height="750.8153px" preserveAspectRatio="none" style="width:965px;height:750px;background:#EEEBDC;" version="1.1" viewBox="0 0 965 750" width="965.8431px" zoomAndPan="magnify"><defs/><g><rect fill="#EEEBDC" height="750.8153" style="stroke:none;stroke-width:1.188;" width="965.8431" x="0" y="0"/><g><title>MCU</title><polygon fill="#000000" points="389.8538,274.5465,389.8538,274.6297,392.2298,274.3824,394.6058,274.623,396.9818,274.7047,399.3578,274.264,401.7338,274.5465,401.6414,274.5465,401.2271,286.2867,401.2782,298.027,401.6528,309.7673,400.9124,321.5075,402.3915,333.2478,400.985,344.9881,401.4988,356.7283,402.2469,368.4686,401.6319,380.2089,401.8148,391.9491,401.6958,403.6894,401.9459,415.4297,402.0179,427.1699,402.4296,438.9102,402.531,450.6505,402.5407,462.3907,402.0363,474.131,402.2845,485.8713,402.568,497.6115,400.877,509.3518,402.5398,521.0921,401.3815,532.8323,402.3679,544.5726,401.1457,556.3129,401.6524,568.0532,401.7338,579.7934,401.7338,580.0871,399.3578,579.7741,396.9818,579.8351,394.6058,579.9275,392.2298,579.9582,389.8538,579.7934,389.8491,579.7934,390.195,568.0532,389.1738,556.3129,390.1916,544.5726,390.505,532.8323,390.3819,521.0921,390.5821,509.3518,389.2799,497.6115,389.079,485.8713,389.1156,474.131,389.7838,462.3907,389.6203,450.6505,390.6633,438.9102,389.6463,427.1699,389.4462,415.4297,390.125,403.6894,389.0616,391.9491,389.2371,380.2089,390.6247,368.4686,390.3714,356.7283,390.7264,344.9881,389.4715,333.2478,390.233,321.5075,390.5552,309.7673,389.2926,298.027,389.7399,286.2867,389.8538,274.5465" style="stroke:#181818;stroke-width:1.188;"/></g><g><title>Sensor .ptico</title><polygon fill="#000000" fill-opacity="0.00000" points="71.2774,234.5038,71.2774,234.587,73.1782,234.3397,75.079,234.5803,76.9798,234.662,78.8806,234.2213,80.7814,234.5038,80.6891,234.5038,80.2747,246.3698,80.3258,258.2359,80.7004,270.1019,79.96,281.968,81.4391,293.834,80.0326,305.7001,80.5464,317.5661,81.2945,329.4322,80.6795,341.2983,80.8624,353.1643,80.7434,365.0304,80.9935,376.8964,81.0655,388.7625,81.4772,400.6285,81.5786,412.4946,81.5883,424.3606,81.0839,436.2267,81.3321,448.0927,81.6156,459.9588,79.9246,471.8249,81.5874,483.6909,80.4291,495.557,81.4155,507.423,80.1933,519.2891,80.7,531.1551,81.6624,543.0212,80.7235,554.8872,80.9065,566.7533,81.1837,578.6194,80.7814,590.4854,80.7814,590.6502,78.8806,590.4839,76.9798,590.5991,75.079,590.2587,73.1782,590.598,71.2774,590.4854,71.9286,590.4854,71.8055,578.6194,72.0057,566.7533,70.7035,554.8872,70.5026,543.0212,70.5392,531.1551,71.2074,519.2891,71.0439,507.423,72.0869,495.557,71.0699,483.6909,70.8698,471.8249,71.5486,459.9588,70.4852,448.0927,70.6607,436.2267,72.0483,424.3606,71.795,412.4946,72.15,400.6285,70.8951,388.7625,71.6566,376.8964,71.9788,365.0304,70.7162,353.1643,71.1635,341.2983,71.4271,329.4322,72.0517,317.5661,71.2724,305.7001,71.8269,293.834,70.6195,281.968,70.4728,270.1019,71.8757,258.2359,70.4257,246.3698,71.2774,234.5038"/><path d="M74.8439,234.5038 L75.1769,234.5038 L74.1876,246.3698 L75.1501,258.2359 L75.477,270.1019 L73.7139,281.968 L74.7208,293.834 L74.1684,305.7001 L74.2365,317.5661 L74.736,329.4322 L73.7488,341.2983 L75.7209,353.1643 L73.8456,365.0304 L74.5307,376.8964 L75.5281,388.7625 L74.7081,400.6285 L74.952,412.4946 L74.7933,424.3606 L75.1267,436.2267 L75.2227,448.0927 L75.7717,459.9588 L75.9069,471.8249 L75.9199,483.6909 L75.2473,495.557 L75.5782,507.423 L75.9563,519.2891 L73.7016,531.1551 L75.9187,543.0212 L74.3743,554.8872 L75.6895,566.7533 L74.0598,578.6194 L74.8439,590.4854" fill="none" style="stroke:#0000FF;stroke-width:0.594;stroke-dasharray:5.94,5.94;"/></g><g><title>MCU</title><polygon fill="#000000" fill-opacity="0.00000" points="391.0418,234.5038,391.0418,234.587,392.9426,234.3397,394.8434,234.5803,396.7442,234.662,398.645,234.2213,400.5458,234.5038,400.4535,234.5038,400.0391,246.3698,400.0902,258.2359,400.4648,270.1019,399.7244,281.968,401.2035,293.834,399.797,305.7001,400.3108,317.5661,401.0589,329.4322,400.4439,341.2983,400.6268,353.1643,400.5078,365.0304,400.7579,376.8964,400.8299,388.7625,401.2416,400.6285,401.343,412.4946,401.3527,424.3606,400.8483,436.2267,401.0965,448.0927,401.38,459.9588,399.689,471.8249,401.3518,483.6909,400.1935,495.557,401.1799,507.423,399.9577,519.2891,400.4644,531.1551,401.4268,543.0212,400.4879,554.8872,400.6709,566.7533,400.9481,578.6194,400.5458,590.4854,400.5458,590.6502,398.645,590.4839,396.7442,590.5991,394.8434,590.2587,392.9426,590.598,391.0418,590.4854,391.693,590.4854,391.5699,578.6194,391.7701,566.7533,390.4679,554.8872,390.267,543.0212,390.3036,531.1551,390.9718,519.2891,390.8083,507.423,391.8513,495.557,390.8343,483.6909,390.6342,471.8249,391.313,459.9588,390.2496,448.0927,390.4251,436.2267,391.8127,424.3606,391.5594,412.4946,391.9144,400.6285,390.6595,388.7625,391.421,376.8964,391.7432,365.0304,390.4806,353.1643,390.9279,341.2983,391.1915,329.4322,391.8161,317.5661,391.0368,305.7001,391.5913,293.834,390.3839,281.968,390.2372,270.1019,391.6401,258.2359,390.1901,246.3698,391.0418,234.5038"/><path d="M395.4434,234.5038 L395.7763,234.5038 L394.7871,246.3698 L395.7495,258.2359 L396.0765,270.1019 L394.3134,281.968 L395.3203,293.834 L394.7678,305.7001 L394.8359,317.5661 L395.3354,329.4322 L394.3482,341.2983 L396.3203,353.1643 L394.445,365.0304 L395.1301,376.8964 L396.1276,388.7625 L395.3075,400.6285 L395.5515,412.4946 L395.3928,424.3606 L395.7262,436.2267 L395.8222,448.0927 L396.3711,459.9588 L396.5063,471.8249 L396.5193,483.6909 L395.8467,495.557 L396.1777,507.423 L396.5557,519.2891 L394.301,531.1551 L396.5181,543.0212 L394.9737,554.8872 L396.2889,566.7533 L394.6593,578.6194 L395.4434,590.4854" fill="none" style="stroke:#0000FF;stroke-width:0.594;stroke-dasharray:5.94,5.94;"/></g><g><title>Esteira</title><polygon fill="#000000" fill-opacity="0.00000" points="654.893,234.5038,654.893,234.587,656.7938,234.3397,658.6946,234.5803,660.5954,234.662,662.4962,234.2213,664.397,234.5038,664.3046,234.5038,663.8903,246.3698,663.9414,258.2359,664.316,270.1019,663.5756,281.968,665.0547,293.834,663.6482,305.7001,664.162,317.5661,664.9101,329.4322,664.2951,341.2983,664.478,353.1643,664.359,365.0304,664.6091,376.8964,664.6811,388.7625,665.0928,400.6285,665.1942,412.4946,665.2039,424.3606,664.6995,436.2267,664.9477,448.0927,665.2312,459.9588,663.5402,471.8249,665.203,483.6909,664.0447,495.557,665.0311,507.423,663.8089,519.2891,664.3156,531.1551,665.278,543.0212,664.3391,554.8872,664.5221,566.7533,664.7993,578.6194,664.397,590.4854,664.397,590.6502,662.4962,590.4839,660.5954,590.5991,658.6946,590.2587,656.7938,590.598,654.893,590.4854,655.5442,590.4854,655.4211,578.6194,655.6212,566.7533,654.3191,554.8872,654.1182,543.0212,654.1547,531.1551,654.823,519.2891,654.6595,507.423,655.7025,495.557,654.6855,483.6909,654.4854,471.8249,655.1642,459.9588,654.1008,448.0927,654.2763,436.2267,655.6639,424.3606,655.4105,412.4946,655.7655,400.6285,654.5107,388.7625,655.2722,376.8964,655.5944,365.0304,654.3318,353.1643,654.7791,341.2983,655.0426,329.4322,655.6673,317.5661,654.888,305.7001,655.4425,293.834,654.2351,281.968,654.0884,270.1019,655.4913,258.2359,654.0412,246.3698,654.893,234.5038"/><path d="M659.4882,234.5038 L659.8212,234.5038 L658.832,246.3698 L659.7944,258.2359 L660.1213,270.1019 L658.3582,281.968 L659.3651,293.834 L658.8127,305.7001 L658.8808,317.5661 L659.3803,329.4322 L658.3931,341.2983 L660.3652,353.1643 L658.4899,365.0304 L659.175,376.8964 L660.1724,388.7625 L659.3524,400.6285 L659.5963,412.4946 L659.4376,424.3606 L659.771,436.2267 L659.867,448.0927 L660.416,459.9588 L660.5512,471.8249 L660.5642,483.6909 L659.8916,495.557 L660.2226,507.423 L660.6006,519.2891 L658.3459,531.1551 L660.563,543.0212 L659.0186,554.8872 L660.3338,566.7533 L658.7041,578.6194 L659.4882,590.4854" fill="none" style="stroke:#0000FF;stroke-width:0.594;stroke-dasharray:5.94,5.94;"/></g><g><title>Monitor</title><polygon fill="#000000" fill-opacity="0.00000" points="753.6767,234.5038,753.6767,234.587,755.5775,234.3397,757.4783,234.5803,759.3791,234.662,761.2799,234.2213,763.1807,234.5038,763.0883,234.5038,762.674,246.3698,762.7251,258.2359,763.0997,270.1019,762.3593,281.968,763.8384,293.834,762.4319,305.7001,762.9457,317.5661,763.6938,329.4322,763.0788,341.2983,763.2617,353.1643,763.1427,365.0304,763.3928,376.8964,763.4648,388.7625,763.8765,400.6285,763.9779,412.4946,763.9876,424.3606,763.4832,436.2267,763.7314,448.0927,764.0149,459.9588,762.3239,471.8249,763.9867,483.6909,762.8284,495.557,763.8148,507.423,762.5926,519.2891,763.0993,531.1551,764.0617,543.0212,763.1228,554.8872,763.3058,566.7533,763.583,578.6194,763.1807,590.4854,763.1807,590.6502,761.2799,590.4839,759.3791,590.5991,757.4783,590.2587,755.5775,590.598,753.6767,590.4854,754.3279,590.4854,754.2048,578.6194,754.4049,566.7533,753.1028,554.8872,752.9019,543.0212,752.9385,531.1551,753.6067,519.2891,753.4432,507.423,754.4862,495.557,753.4692,483.6909,753.2691,471.8249,753.9479,459.9588,752.8845,448.0927,753.06,436.2267,754.4476,424.3606,754.1942,412.4946,754.5493,400.6285,753.2944,388.7625,754.0559,376.8964,754.3781,365.0304,753.1155,353.1643,753.5628,341.2983,753.8263,329.4322,754.451,317.5661,753.6717,305.7001,754.2262,293.834,753.0188,281.968,752.8721,270.1019,754.275,258.2359,752.825,246.3698,753.6767,234.5038"/><path d="M758.4056,234.5038 L758.7385,234.5038 L757.7493,246.3698 L758.7118,258.2359 L759.0387,270.1019 L757.2756,281.968 L758.2825,293.834 L757.73,305.7001 L757.7981,317.5661 L758.2976,329.4322 L757.3105,341.2983 L759.2826,353.1643 L757.4072,365.0304 L758.0923,376.8964 L759.0898,388.7625 L758.2697,400.6285 L758.5137,412.4946 L758.355,424.3606 L758.6884,436.2267 L758.7844,448.0927 L759.3333,459.9588 L759.4686,471.8249 L759.4815,483.6909 L758.8089,495.557 L759.1399,507.423 L759.5179,519.2891 L757.2632,531.1551 L759.4804,543.0212 L757.9359,554.8872 L759.2512,566.7533 L757.6215,578.6194 L758.4056,590.4854" fill="none" style="stroke:#0000FF;stroke-width:0.594;stroke-dasharray:5.94,5.94;"/></g><g><title>M.dulo Edge</title><polygon fill="#000000" fill-opacity="0.00000" points="883.0168,234.5038,883.0168,234.587,884.9176,234.3397,886.8184,234.5803,888.7192,234.662,890.62,234.2213,892.5208,234.5038,892.4285,234.5038,892.0141,246.3698,892.0652,258.2359,892.4399,270.1019,891.6995,281.968,893.1785,293.834,891.772,305.7001,892.2859,317.5661,893.034,329.4322,892.4189,341.2983,892.6019,353.1643,892.4829,365.0304,892.7329,376.8964,892.8049,388.7625,893.2166,400.6285,893.318,412.4946,893.3278,424.3606,892.8233,436.2267,893.0716,448.0927,893.3551,459.9588,891.6641,471.8249,893.3269,483.6909,892.1686,495.557,893.155,507.423,891.9327,519.2891,892.4394,531.1551,893.4018,543.0212,892.4629,554.8872,892.6459,566.7533,892.9231,578.6194,892.5208,590.4854,892.5208,590.6502,890.62,590.4839,888.7192,590.5991,886.8184,590.2587,884.9176,590.598,883.0168,590.4854,883.6681,590.4854,883.5449,578.6194,883.7451,566.7533,882.4429,554.8872,882.242,543.0212,882.2786,531.1551,882.9469,519.2891,882.7834,507.423,883.8263,495.557,882.8093,483.6909,882.6093,471.8249,883.288,459.9588,882.2246,448.0927,882.4001,436.2267,883.7878,424.3606,883.5344,412.4946,883.8894,400.6285,882.6345,388.7625,883.396,376.8964,883.7182,365.0304,882.4556,353.1643,882.9029,341.2983,883.1665,329.4322,883.7911,317.5661,883.0119,305.7001,883.5664,293.834,882.3589,281.968,882.2122,270.1019,883.6151,258.2359,882.1651,246.3698,883.0168,234.5038"/><path d="M886.7556,234.5038 L887.0885,234.5038 L886.0993,246.3698 L887.0618,258.2359 L887.3887,270.1019 L885.6256,281.968 L886.6325,293.834 L886.0801,305.7001 L886.1482,317.5661 L886.6477,329.4322 L885.6605,341.2983 L887.6326,353.1643 L885.7573,365.0304 L886.4424,376.8964 L887.4398,388.7625 L886.6197,400.6285 L886.8637,412.4946 L886.705,424.3606 L887.0384,436.2267 L887.1344,448.0927 L887.6834,459.9588 L887.8186,471.8249 L887.8316,483.6909 L887.1589,495.557 L887.4899,507.423 L887.868,519.2891 L885.6133,531.1551 L887.8304,543.0212 L886.286,554.8872 L887.6012,566.7533 L885.9715,578.6194 L886.7556,590.4854" fill="none" style="stroke:#0000FF;stroke-width:0.594;stroke-dasharray:5.94,5.94;"/></g><g class="participant participant-head" data-participant="Sensor .ptico"><text fill="#1E90FF" font-family="Aapex" font-size="20.196" lengthAdjust="spacing" textLength="133.0508" x="5.94" y="228.5864">Sensor &#211;ptico</text><polygon fill="#00BFFF" points="95.1424,158.7544,92.3561,162.5615,89.0606,168.1376,84.3473,171.8955,79.3945,173.9504,75.4453,174.1288,70.3697,171.5588,65.5805,169.8798,61.9454,166.4709,60.0386,162.5684,58.9078,159.461,57.8,155.4022,56.0019,151.9096,57.3836,148.4994,58.5942,144.7639,63.1373,141.8094,66.3335,137.9761,70.2897,136.7031,74.9928,135.6069,81.024,136.2582,84.3274,137.8161,88.1681,138.5223,92.8379,143.3067,94.4659,148.3576,95.1731,151.8039,94.372,157.483" style="stroke:#00BFFF;stroke-width:0.594;"/><path d="M76.0294,177.8909 L76.0294,177.8909 L76.0673,177.9952 L78.5682,176.7349 L81.2915,176.086 L83.9423,175.2381 L86.355,173.7353 L89.0974,173.1389 L89.0974,173.1389 L89.0804,173.1016 L91.6178,174.1219 L94.2408,175.3306 L96.9233,176.6702 L99.4007,177.5586 L102.1654,179.0789 L102.4315,179.1999 L103.0504,181.5548 L104.4463,184.2629 L105.937,187.0141 L106.8761,189.5146 L108.1054,192.1469 L108.1774,192.1469 L108.0716,193.0973 L108.2939,194.0477 L108.3579,194.9981 L108.7238,195.9485 L108.1054,196.8989 L108.1054,196.8989 L108.3559,197.1494 L106.4582,199.0533 L104.3988,200.7956 L102.576,202.7744 L100.7643,204.7643 L98.6014,206.4029 L98.6014,205.6413 L89.5726,207.1194 L80.5438,206.0898 L71.515,206.9666 L62.4862,205.8802 L53.4574,206.4029 L53.4574,206.4029 L53.4318,206.3773 L51.8335,204.779 L49.6376,202.5831 L47.7943,200.7398 L45.9806,198.9261 L43.9534,196.8989 L44.393,196.8989 L43.9493,195.9485 L44.2567,194.9981 L43.3489,194.0477 L44.2537,193.0973 L43.9534,192.1469 L43.9534,192.1469 L44.2169,192.2667 L45.3551,189.6304 L46.6241,187.0537 L47.2852,184.2006 L48.3919,181.55 L49.8934,179.0789 L49.7576,178.7802 L52.4941,177.8626 L55.0777,176.6085 L57.8831,175.8425 L60.3096,174.243 L62.9614,173.1389 L62.9614,173.1389 L62.8995,172.9687 L65.6162,174.2026 L68.0683,174.7088 L70.7085,175.7325 L73.5329,177.2625 L76.0294,177.8909" fill="#00BFFF"/></g><g class="participant participant-head" data-participant="MCU"><polygon fill="#1E90FF" points="367.5254,189.1769,367.5254,189.4266,378.8328,188.6847,390.1401,189.4065,401.4475,189.6517,412.7548,188.3294,424.0622,189.1769,424.0504,189.1485,424.4175,189.1949,424.8441,189.3846,425.3119,189.6739,425.6375,189.6199,426.1623,190.0468,426.3648,190.1307,426.1056,190.3713,426.4379,190.8569,426.8422,191.3723,426.8268,191.7139,427.0322,192.1469,427.0592,192.1469,427.0195,199.7867,427.1028,207.4265,427.1268,215.0662,427.2641,222.706,427.0322,230.3458,427.2777,230.4475,427.1067,230.8687,426.7774,231.2244,426.6798,231.6761,426.5932,232.1323,426.1623,232.4459,426.053,232.182,425.8451,232.8681,425.2773,232.6853,424.9831,233.1631,424.4072,232.9607,424.0622,233.3158,424.0622,233.2344,412.7548,234.1968,401.4475,233.2579,390.1401,233.4409,378.8328,233.718,367.5254,233.3158,367.5885,233.468,367.1048,233.1404,366.7289,233.0729,366.1786,232.5844,365.8884,232.7239,365.4253,232.4459,365.6259,232.5289,365.414,232.0932,365.3016,231.6987,364.7266,231.1126,364.4908,230.667,364.5554,230.3458,364.3093,230.3458,364.5321,222.706,364.4776,215.0662,364.8252,207.4265,364.4862,199.7867,364.5554,192.1469,364.4299,192.0949,364.8129,191.7615,364.6594,191.2058,364.8874,190.8082,365.4887,190.5652,365.4253,190.0468,365.4913,190.2062,365.9566,190.1415,366.2166,189.5811,366.7337,189.6417,367.1949,189.5669,367.5254,189.1769" style="stroke:#00BFFF;stroke-width:0.594;"/><text fill="#A9DCDF" font-family="Impact" font-size="20.196" lengthAdjust="spacing" textLength="45.8448" x="372.8714" y="219.0824">MCU</text></g><g class="participant participant-head" data-participant="Esteira"><polygon fill="#1E90FF" points="622.0663,189.1769,622.0663,189.4266,634.5925,188.6847,647.1187,189.4065,659.645,189.6517,672.1712,188.3294,684.6974,189.0846,697.2237,189.1769,697.159,189.0209,697.5856,189.2106,698.0534,189.4999,698.379,189.4459,698.9876,190.0754,699.3238,190.0468,699.0932,189.9513,699.4254,190.4369,699.8298,190.9523,699.8143,191.2939,700.0446,191.7372,700.1937,192.1469,700.181,192.1469,700.2644,199.7867,700.2884,207.4265,700.4256,215.0662,700.4594,222.706,700.1937,230.3458,700.4422,230.4487,700.1128,230.8044,700.0153,231.2561,699.9286,231.7122,699.2339,231.9166,699.3238,232.4459,699.4266,232.6941,698.8588,232.5114,698.5646,232.9891,697.9887,232.7867,697.6333,233.1167,697.2237,233.3158,697.2237,234.1968,684.6974,233.2579,672.1712,233.4409,659.645,233.718,647.1187,233.8102,634.5925,233.3111,622.0663,233.3158,622.1098,233.4208,621.5595,232.9324,621.2693,233.0718,620.8893,232.9944,620.4536,232.7825,619.9662,232.4459,620.1904,232.5388,619.6155,231.9526,619.3796,231.507,619.2169,231.0916,619.2487,230.7569,619.0963,230.3458,619.0185,230.3458,619.3661,222.706,619.0271,215.0662,618.9604,207.4265,619.1867,199.7867,619.0963,192.1469,618.8523,192.0459,619.0803,191.6482,619.6817,191.4052,619.7776,190.9529,620.0609,190.5781,619.9662,190.0468,619.9174,189.9291,620.4346,189.9896,620.8957,189.9149,621.1546,189.352,621.6317,189.3158,622.0663,189.1769" style="stroke:#00BFFF;stroke-width:0.594;"/><text fill="#A9DCDF" font-family="Impact" font-size="20.196" lengthAdjust="spacing" textLength="64.4654" x="627.4123" y="219.0824">Esteira</text></g><g class="participant participant-head" data-participant="Monitor"><polygon fill="#1E90FF" points="715.0436,189.1769,715.0436,189.4266,727.4394,188.6847,739.8351,189.4065,752.2308,189.6517,764.6265,188.3294,777.0223,189.0846,789.418,188.6702,801.8137,189.1769,801.7556,189.0366,802.2234,189.326,802.549,189.2719,803.1577,189.9014,803.3983,189.6422,803.9138,190.0468,803.8415,190.0168,804.2458,190.5323,804.2304,190.8738,804.4607,191.3172,804.598,191.722,804.7837,192.1469,804.8544,192.1469,804.8784,199.7867,805.0156,207.4265,805.0494,215.0662,805.0527,222.706,804.7837,230.3458,804.8769,230.3843,804.7793,230.836,804.6927,231.2922,803.9979,231.4965,804.336,232.1287,803.9138,232.4459,803.8689,232.3374,803.5747,232.8151,802.9987,232.6127,802.6434,232.9427,802.3461,233.4131,801.8137,233.3158,801.8137,233.2579,789.418,233.4409,777.0223,233.718,764.6265,233.8102,752.2308,233.3111,739.8351,233.657,727.4394,232.6357,715.0436,233.3158,715.0867,233.4198,714.7067,233.3423,714.271,233.1304,713.8765,233.0181,713.2904,232.4431,712.9435,232.4459,712.7049,232.347,712.5422,231.9317,712.574,231.5969,712.3497,231.156,712.4969,230.869,712.0736,230.3458,712.0045,230.3458,711.9378,222.706,712.164,215.0662,711.8096,207.4265,711.8681,199.7867,712.0736,192.1469,712.3111,192.2453,712.407,191.7929,712.6903,191.4182,712.4779,190.8381,712.8863,190.5152,712.9435,190.0468,713.033,190.2628,713.292,189.7,713.7691,189.6638,714.2227,189.571,714.7224,189.5893,715.0436,189.1769" style="stroke:#00BFFF;stroke-width:0.594;"/><text fill="#A9DCDF" font-family="Impact" font-size="20.196" lengthAdjust="spacing" textLength="76.0781" x="720.3896" y="219.0824">Monitor</text></g><g class="participant participant-head" data-participant="M.dulo Edge"><polygon fill="#1E90FF" points="819.6337,189.1769,819.6337,189.4266,832.0219,188.6847,844.4101,189.4065,856.7983,189.6517,869.1865,188.3294,881.5747,189.0846,893.9629,188.6702,906.3511,188.7213,918.7393,189.0959,931.1276,188.3556,943.5158,189.8346,955.904,189.1769,955.8085,188.9463,956.294,189.2785,956.8095,189.6829,957.151,189.6675,957.5944,189.8978,958.0041,190.0468,957.9924,190.042,958.2434,190.4939,958.4395,190.9231,958.7403,191.3956,958.9455,191.8286,958.874,192.1469,959.143,192.1469,958.9748,199.7867,959.0575,207.4265,959.152,215.0662,958.5884,222.706,958.874,230.3458,959.1222,230.4486,958.5915,230.7209,958.7213,231.2667,958.1709,231.5308,958.153,232.0155,958.0041,232.4459,958.1165,232.7172,957.5767,232.602,957.18,232.8324,956.7953,233.0917,956.3871,233.2941,955.904,233.3158,955.904,233.3111,943.5158,233.657,931.1276,232.6357,918.7393,233.6536,906.3511,233.967,893.9629,233.8439,881.5747,234.044,869.1865,232.7419,856.7983,232.541,844.4101,232.5775,832.0219,233.2458,819.6337,233.3158,819.6039,233.2439,819.3169,233.3911,818.7672,232.9039,818.3216,232.6683,817.9882,232.7034,817.5336,232.4459,817.2896,232.3448,817.1697,231.9472,817.423,231.7042,817.171,231.2518,817.1064,230.8771,816.6637,230.3458,816.5363,230.3458,816.7901,222.706,816.8975,215.0662,816.4766,207.4265,816.6257,199.7867,816.6637,192.1469,816.7098,192.166,817.0761,191.8257,817.0101,191.3062,817.3549,190.9569,817.157,190.3829,817.5336,190.0468,817.4309,189.799,818.0299,190.0571,818.265,189.4366,818.8708,189.7111,819.245,189.4265,819.6337,189.1769" style="stroke:#00BFFF;stroke-width:0.594;"/><text fill="#A9DCDF" font-family="Impact" font-size="20.196" lengthAdjust="spacing" textLength="125.5783" x="824.9797" y="219.0824">M&#243;dulo Edge</text></g><g><title>MCU</title><polygon fill="#000000" points="389.8538,274.5465,389.8538,274.6297,392.2298,274.3824,394.6058,274.623,396.9818,274.7047,399.3578,274.264,401.7338,274.5465,401.6414,274.5465,401.2271,286.2867,401.2782,298.027,401.6528,309.7673,400.9124,321.5075,402.3915,333.2478,400.985,344.9881,401.4988,356.7283,402.2469,368.4686,401.6319,380.2089,401.8148,391.9491,401.6958,403.6894,401.9459,415.4297,402.0179,427.1699,402.4296,438.9102,402.531,450.6505,402.5407,462.3907,402.0363,474.131,402.2845,485.8713,402.568,497.6115,400.877,509.3518,402.5398,521.0921,401.3815,532.8323,402.3679,544.5726,401.1457,556.3129,401.6524,568.0532,401.7338,579.7934,401.7338,580.0871,399.3578,579.7741,396.9818,579.8351,394.6058,579.9275,392.2298,579.9582,389.8538,579.7934,389.8491,579.7934,390.195,568.0532,389.1738,556.3129,390.1916,544.5726,390.505,532.8323,390.3819,521.0921,390.5821,509.3518,389.2799,497.6115,389.079,485.8713,389.1156,474.131,389.7838,462.3907,389.6203,450.6505,390.6633,438.9102,389.6463,427.1699,389.4462,415.4297,390.125,403.6894,389.0616,391.9491,389.2371,380.2089,390.6247,368.4686,390.3714,356.7283,390.7264,344.9881,389.4715,333.2478,390.233,321.5075,390.5552,309.7673,389.2926,298.027,389.7399,286.2867,389.8538,274.5465" style="stroke:#181818;stroke-width:1.188;"/></g><g class="message" data-participant-1="Sensor .ptico" data-participant-2="MCU"><polygon fill="#00BFFF" points="375.5978,269.7945,375.6287,269.8718,377.9129,270.5925,380.3782,271.7663,382.7846,272.7926,384.9969,273.3338,387.4778,274.5465,387.4664,274.5179,385.0391,275.3401,382.6694,276.3063,380.3398,277.3726,377.8721,278.0939,375.5978,279.2985,375.7528,279.4535,376.3717,278.1716,377.4432,277.3423,378.5699,276.5682,379.3754,275.4728,380.3498,274.5465,380.3689,274.5656,379.3904,273.5871,378.499,272.6957,377.5656,271.7622,376.7122,270.9089,375.5978,269.7945" style="stroke:#00BFFF;stroke-width:1.188;"/><path d="M76.0294,274.5465 L76.0294,274.8794 L87.8254,273.8902 L99.6214,274.8526 L111.4174,275.1796 L123.2134,273.4165 L135.0095,274.4234 L146.8055,273.8709 L158.6015,273.939 L170.3975,274.4385 L182.1935,273.4513 L193.9895,275.4234 L205.7856,273.5481 L217.5816,274.2332 L229.3776,275.2307 L241.1736,274.4106 L252.9696,274.6546 L264.7656,274.4959 L276.5616,274.8293 L288.3577,274.9253 L300.1537,275.4742 L311.9497,275.6094 L323.7457,275.6224 L335.5417,274.9498 L347.3377,275.2808 L359.1338,275.6588 L370.9298,273.4041 L382.7258,274.5465" fill="none" style="stroke:#00BFFF;stroke-width:1.188;"/><text fill="#000000" font-family="sans-serif" font-size="15.444" lengthAdjust="spacing" textLength="287.212" x="84.3454" y="267.6454">Detecta embalagem no in&#237;cio da Esteira</text></g><g class="message" data-participant-1="MCU" data-participant-2="MCU"><path d="M401.7338,312.2132 L401.7338,312.3242 L411.713,311.9944 L421.6922,312.3152 L431.6713,312.4242 L441.6505,311.8365 L451.6297,312.2132" fill="none" style="stroke:#00BFFF;stroke-width:1.188;"/><path d="M451.6297,312.2132 L451.7407,312.2132 L451.411,315.302 L451.7318,318.3908 L451.8408,321.4796 L451.2531,324.5684 L451.6297,327.6572" fill="none" style="stroke:#00BFFF;stroke-width:1.188;"/><path d="M402.9218,327.6572 L402.9218,327.7681 L412.6634,327.4384 L422.405,327.7592 L432.1465,327.8682 L441.8881,327.2805 L451.6297,327.6572" fill="none" style="stroke:#00BFFF;stroke-width:1.188;"/><polygon fill="#00BFFF" points="414.8018,322.9052,414.8327,322.9825,412.3648,323.7032,410.0782,324.877,407.7325,325.9033,405.1929,326.4445,402.9218,327.6572,402.9103,327.6286,405.235,328.4508,407.6174,329.417,410.0397,330.4833,412.3241,331.2046,414.8018,332.4092,414.9568,332.5642,413.6749,331.2823,412.8456,330.453,412.0715,329.6789,410.9761,328.5835,410.0498,327.6572,410.0689,327.6763,410.9912,326.6978,412.0006,325.8064,412.9679,324.8729,414.0154,324.0196,414.8018,322.9052" style="stroke:#00BFFF;stroke-width:1.188;"/><text fill="#000000" font-family="sans-serif" font-size="15.444" lengthAdjust="spacing" textLength="223.4592" x="410.0498" y="305.3121">Aciona dispositivo de manobra</text></g><g class="message" data-participant-1="MCU" data-participant-2="Esteira"><polygon fill="#00BFFF" points="645.389,360.5719,645.4199,360.6492,647.704,361.3699,650.1694,362.5437,652.5758,363.57,654.7881,364.1112,657.269,365.3239,657.2575,365.2953,654.8302,366.1175,652.4606,367.0837,650.131,368.15,647.6633,368.8713,645.389,370.0759,645.544,370.2309,646.1629,368.949,647.2344,368.1197,648.3611,367.3456,649.1666,366.2503,650.141,365.3239,650.1601,365.343,649.1816,364.3645,648.2902,363.4731,647.3567,362.5396,646.5034,361.6863,645.389,360.5719" style="stroke:#00BFFF;stroke-width:1.188;"/><path d="M401.7338,365.3239 L401.7338,365.6568 L413.6758,364.6676 L425.6179,365.63 L437.5599,365.957 L449.502,364.1939 L461.4441,365.2008 L473.3861,364.6483 L485.3282,364.7164 L497.2702,365.2159 L509.2123,364.2288 L521.1543,366.2008 L533.0964,364.3255 L545.0385,365.0106 L556.9805,366.0081 L568.9226,365.188 L580.8646,365.432 L592.8067,365.2733 L604.7487,365.6067 L616.6908,365.7027 L628.6329,366.2516 L640.5749,366.3868 L652.517,365.3239" fill="none" style="stroke:#00BFFF;stroke-width:1.188;"/><text fill="#000000" font-family="sans-serif" font-size="15.444" lengthAdjust="spacing" textLength="83.552" x="410.0498" y="358.4228">Liga Esteira</text></g><g class="message" data-participant-1="Sensor .ptico" data-participant-2="MCU"><polygon fill="#00BFFF" points="375.5978,398.2386,375.6287,398.3159,377.9129,399.0367,380.3782,400.2105,382.7846,401.2367,384.9969,401.7779,387.4778,402.9906,387.4664,402.962,385.0391,403.7842,382.6694,404.7504,380.3398,405.8167,377.8721,406.538,375.5978,407.7426,375.7528,407.8976,376.3717,406.6157,377.4432,405.7864,378.5699,405.0123,379.3754,403.917,380.3498,402.9906,380.3689,403.0097,379.3904,402.0312,378.499,401.1398,377.5656,400.2064,376.7122,399.353,375.5978,398.2386" style="stroke:#00BFFF;stroke-width:1.188;"/><path d="M76.0294,402.9906 L76.0294,403.3235 L87.8254,402.3343 L99.6214,403.2968 L111.4174,403.6237 L123.2134,401.8606 L135.0095,402.8675 L146.8055,402.315 L158.6015,402.3831 L170.3975,402.8826 L182.1935,401.8955 L193.9895,403.8676 L205.7856,401.9922 L217.5816,402.6773 L229.3776,403.6748 L241.1736,402.8547 L252.9696,403.0987 L264.7656,402.94 L276.5616,403.2734 L288.3577,403.3694 L300.1537,403.9183 L311.9497,404.0535 L323.7457,404.0665 L335.5417,403.3939 L347.3377,403.7249 L359.1338,404.1029 L370.9298,401.8482 L382.7258,402.9906" fill="none" style="stroke:#00BFFF;stroke-width:1.188;"/><text fill="#000000" font-family="sans-serif" font-size="15.444" lengthAdjust="spacing" textLength="285.3124" x="84.3454" y="396.0895">Detecta Embalagem no meio da Esteira</text></g><g class="message" data-participant-1="MCU" data-participant-2="MCU"><path d="M401.7338,440.6573 L401.7338,440.7683 L411.713,440.4385 L421.6922,440.7594 L431.6713,440.8683 L441.6505,440.2806 L451.6297,440.6573" fill="none" style="stroke:#00BFFF;stroke-width:1.188;"/><path d="M451.6297,440.6573 L451.7407,440.6573 L451.411,443.7461 L451.7318,446.8349 L451.8408,449.9237 L451.2531,453.0125 L451.6297,456.1013" fill="none" style="stroke:#00BFFF;stroke-width:1.188;"/><path d="M402.9218,456.1013 L402.9218,456.2123 L412.6634,455.8825 L422.405,456.2033 L432.1465,456.3123 L441.8881,455.7246 L451.6297,456.1013" fill="none" style="stroke:#00BFFF;stroke-width:1.188;"/><polygon fill="#00BFFF" points="414.8018,451.3493,414.8327,451.4266,412.3648,452.1474,410.0782,453.3212,407.7325,454.3474,405.1929,454.8886,402.9218,456.1013,402.9103,456.0727,405.235,456.8949,407.6174,457.8611,410.0397,458.9274,412.3241,459.6487,414.8018,460.8533,414.9568,461.0083,413.6749,459.7264,412.8456,458.8971,412.0715,458.123,410.9761,457.0277,410.0498,456.1013,410.0689,456.1204,410.9912,455.1419,412.0006,454.2505,412.9679,453.3171,414.0154,452.4637,414.8018,451.3493" style="stroke:#00BFFF;stroke-width:1.188;"/><text fill="#000000" font-family="sans-serif" font-size="15.444" lengthAdjust="spacing" textLength="156.3396" x="410.0498" y="433.7562">Incrementa Contador</text></g><g class="message" data-participant-1="MCU" data-participant-2="Monitor"><polygon fill="#00BFFF" points="744.1727,489.016,744.2036,489.0933,746.4877,489.8141,748.9531,490.9879,751.3595,492.0142,753.5718,492.5553,756.0527,493.768,756.0412,493.7394,753.614,494.5616,751.2443,495.5278,748.9147,496.5941,746.447,497.3154,744.1727,498.52,744.3277,498.675,744.9466,497.3931,746.0181,496.5638,747.1448,495.7898,747.9503,494.6944,748.9247,493.768,748.9438,493.7871,747.9653,492.8087,747.0739,491.9172,746.1404,490.9838,745.2871,490.1304,744.1727,489.016" style="stroke:#00BFFF;stroke-width:1.188;"/><path d="M401.7338,493.768 L401.7338,494.1009 L413.7878,493.1117 L425.8418,494.0742 L437.8959,494.4011 L449.9499,492.638 L462.0039,493.6449 L474.058,493.0924 L486.112,493.1605 L498.166,493.66 L510.2201,492.6729 L522.2741,494.645 L534.3281,492.7696 L546.3821,493.4547 L558.4362,494.4522 L570.4902,493.6321 L582.5442,493.8761 L594.5983,493.7174 L606.6523,494.0508 L618.7063,494.1468 L630.7604,494.6957 L642.8144,494.831 L654.8684,494.8439 L666.9225,494.1713 L678.9765,494.5023 L691.0305,494.8803 L703.0846,492.6256 L715.1386,494.8428 L727.1926,493.2983 L739.2466,494.6136 L751.3007,493.768" fill="none" style="stroke:#00BFFF;stroke-width:1.188;"/><text fill="#000000" font-family="sans-serif" font-size="15.444" lengthAdjust="spacing" textLength="172.3241" x="410.0498" y="486.8669">Envia dados para o IHM</text></g><g class="message" data-participant-1="MCU" data-participant-2="M.dulo Edge"><polygon fill="#00BFFF" points="873.5128,526.6827,873.5437,526.76,875.8279,527.4808,878.2933,528.6546,880.6996,529.6809,882.9119,530.222,885.3928,531.4347,885.3814,531.4061,882.9541,532.2283,880.5844,533.1945,878.2548,534.2609,875.7872,534.9821,873.5128,536.1867,873.6679,536.3417,874.2867,535.0598,875.3583,534.2305,876.485,533.4565,877.2904,532.3611,878.2648,531.4347,878.2839,531.4538,877.3055,530.4754,876.414,529.5839,875.4806,528.6505,874.6272,527.7971,873.5128,526.6827" style="stroke:#00BFFF;stroke-width:1.188;"/><path d="M401.7338,531.4347 L401.7338,531.7676 L413.7064,530.7784 L425.6791,531.7409 L437.6518,532.0678 L449.6245,530.3047 L461.5972,531.3116 L473.5698,530.7592 L485.5425,530.8273 L497.5152,531.3268 L509.4879,530.3396 L521.4605,532.3117 L533.4332,530.4364 L545.4059,531.1215 L557.3786,532.1189 L569.3512,531.2988 L581.3239,531.5428 L593.2966,531.3841 L605.2693,531.7175 L617.2419,531.8135 L629.2146,532.3624 L641.1873,532.4977 L653.16,532.5107 L665.1327,531.838 L677.1053,532.169 L689.078,532.547 L701.0507,530.2924 L713.0234,532.5095 L724.996,530.9651 L736.9687,532.2803 L748.9414,530.6506 L760.9141,531.3262 L772.8867,532.6094 L784.8594,531.3575 L796.8321,531.6015 L808.8048,531.9711 L820.7774,532.094 L832.7501,531.4285 L844.7228,531.8897 L856.6955,530.528 L868.6682,531.8852 L880.6408,531.4347" fill="none" style="stroke:#00BFFF;stroke-width:1.188;"/><text fill="#000000" font-family="sans-serif" font-size="15.444" lengthAdjust="spacing" textLength="180.5558" x="410.0498" y="524.5336">Envia dados para Nuvem</text></g><g class="message" data-participant-1="Sensor .ptico" data-participant-2="MCU"><polygon fill="#00BFFF" points="375.5978,564.3494,375.6287,564.4267,377.9129,565.1475,380.3782,566.3213,382.7846,567.3476,384.9969,567.8887,387.4778,569.1014,387.4664,569.0729,385.0391,569.895,382.6694,570.8612,380.3398,571.9276,377.8721,572.6488,375.5978,573.8534,375.7528,574.0085,376.3717,572.7265,377.4432,571.8972,378.5699,571.1232,379.3754,570.0278,380.3498,569.1014,380.3689,569.1205,379.3904,568.1421,378.499,567.2506,377.5656,566.3172,376.7122,565.4638,375.5978,564.3494" style="stroke:#00BFFF;stroke-width:1.188;"/><path d="M76.0294,569.1014 L76.0294,569.4344 L87.8254,568.4451 L99.6214,569.4076 L111.4174,569.7345 L123.2134,567.9714 L135.0095,568.9783 L146.8055,568.4259 L158.6015,568.494 L170.3975,568.9935 L182.1935,568.0063 L193.9895,569.9784 L205.7856,568.1031 L217.5816,568.7882 L229.3776,569.7856 L241.1736,568.9656 L252.9696,569.2095 L264.7656,569.0508 L276.5616,569.3842 L288.3577,569.4802 L300.1537,570.0292 L311.9497,570.1644 L323.7457,570.1774 L335.5417,569.5048 L347.3377,569.8357 L359.1338,570.2138 L370.9298,567.9591 L382.7258,569.1014" fill="none" style="stroke:#00BFFF;stroke-width:1.188;"/><text fill="#000000" font-family="sans-serif" font-size="15.444" lengthAdjust="spacing" textLength="275.2738" x="84.3454" y="562.2003">Detecta Embalagem no Fim da Esteira</text></g><text fill="#1E90FF" font-family="Arial" font-size="16.632" font-weight="bold" lengthAdjust="spacing" textLength="189.2048" x="35.64" y="633.2129">Casos de Uso cobertos:</text><text fill="#1E90FF" font-family="Arial" font-size="16.632" lengthAdjust="spacing" textLength="5.3555" x="35.64" y="655.8656">-</text><text fill="#1E90FF" font-family="Arial" font-size="16.632" font-weight="bold" lengthAdjust="spacing" textLength="60.1743" x="45.3197" y="655.8656">MC-001</text><text fill="#1E90FF" font-family="Arial" font-size="16.632" lengthAdjust="spacing" textLength="246.3687" x="109.8183" y="655.8656">Controle da esteira e atuadores</text><text fill="#1E90FF" font-family="Arial" font-size="16.632" lengthAdjust="spacing" textLength="5.3555" x="35.64" y="678.5182">-</text><text fill="#1E90FF" font-family="Arial" font-size="16.632" font-weight="bold" lengthAdjust="spacing" textLength="60.1743" x="45.3197" y="678.5182">MC-002</text><text fill="#1E90FF" font-family="Arial" font-size="16.632" lengthAdjust="spacing" textLength="326.468" x="109.8183" y="678.5182">Contagem de produtos de alta velocidade</text><text fill="#1E90FF" font-family="Arial" font-size="16.632" lengthAdjust="spacing" textLength="5.3555" x="35.64" y="701.1709">-</text><text fill="#1E90FF" font-family="Arial" font-size="16.632" font-weight="bold" lengthAdjust="spacing" textLength="60.1743" x="45.3197" y="701.1709">MC-005</text><text fill="#1E90FF" font-family="Arial" font-size="16.632" lengthAdjust="spacing" textLength="315.8069" x="109.8183" y="701.1709">Leitura de sensores anal&#243;gicos e digitais</text><polygon fill="none" points="107.9976,29.7,107.9976,29.9497,119.8647,29.2078,131.7319,29.9296,143.599,30.1748,155.4662,28.8525,167.3334,29.6076,179.2005,29.1933,191.0677,29.2444,202.9348,29.619,214.802,28.8786,226.6691,30.3577,238.5363,28.9512,250.4034,29.465,262.2706,30.2131,274.1378,29.5981,286.0049,29.781,297.8721,29.662,309.7392,29.9121,321.6064,29.9841,333.4735,30.3958,345.3407,30.4972,357.2078,30.5069,369.075,30.0025,380.9422,30.2507,392.8093,30.5342,404.6765,28.8432,416.5436,30.506,428.4108,29.3477,440.2779,30.3341,452.1451,29.1119,464.0122,29.6186,475.8794,30.581,487.7466,29.6421,499.6137,29.8251,511.4809,30.1023,523.348,30.1945,535.2152,29.6953,547.0823,30.0412,558.9495,29.0199,570.8166,30.0378,582.6838,30.3512,594.551,30.2281,606.4181,30.4282,618.2853,29.1261,630.1524,28.9252,642.0196,28.9617,653.8867,29.63,665.7539,29.4665,677.6211,30.5095,689.4882,29.4925,701.3554,29.2924,713.2225,29.9712,725.0897,28.9078,736.9568,29.0833,748.824,30.4709,760.6911,30.2175,772.5583,30.5725,784.4255,29.3177,796.2926,30.0792,808.1598,30.4014,820.0269,29.1388,831.8941,29.5861,843.7612,29.8496,855.6284,29.7,855.7272,29.9384,856.8878,30.2204,858.2186,30.9131,859.3247,31.0632,860.566,31.5399,861.9287,32.3096,862.113,32.386,862.1883,33.4611,863.1588,34.9069,863.5701,36.1212,863.9184,37.3093,864.5384,38.61,864.1181,38.61,865.0834,51.0222,864.1828,63.4344,865.2415,75.8466,863.8817,88.2588,864.5384,100.671,864.7643,100.7646,864.1936,102.0045,863.5841,103.2282,862.9899,104.4583,862.7165,105.8214,861.9287,106.9713,862.0217,107.1958,860.6943,107.5552,859.4492,108.1133,858.1288,108.4895,856.997,109.3212,855.6284,109.581,855.6284,109.765,843.7612,109.786,831.8941,108.8583,820.0269,109.0996,808.1598,110.2115,796.2926,110.0915,784.4255,109.53,772.5583,109.1983,760.6911,109.3209,748.824,108.7658,736.9568,110.0737,725.0897,110.4596,713.2225,110.2063,701.3554,110.4066,689.4882,109.4186,677.6211,109.6846,665.7539,109.1205,653.8867,109.9184,642.0196,109.8741,630.1524,110.2372,618.2853,109.3082,606.4181,109.4213,594.551,110.1078,582.6838,110.255,570.8166,108.9721,558.9495,109.3507,547.0823,109.7583,535.2152,108.8553,523.348,110.0008,511.4809,109.8875,499.6137,109.4613,487.7466,109.75,475.8794,110.4467,464.0122,109.2093,452.1451,109.9552,440.2779,109.9203,428.4108,109.7185,416.5436,109.7484,404.6765,109.7158,392.8093,108.8395,380.9422,109.1048,369.075,109.0327,357.2078,109.6568,345.3407,109.6857,333.4735,109.7731,321.6064,109.2353,309.7392,109.5008,297.8721,109.4382,286.0049,110.2663,274.1378,110.0877,262.2706,109.0042,250.4034,109.4944,238.5363,108.8952,226.6691,109.9236,214.802,110.3039,202.9348,110.2279,191.0677,109.0635,179.2005,110.1322,167.3334,108.6985,155.4662,109.8188,143.599,109.2254,131.7319,109.6959,119.8647,109.8665,107.9976,109.581,108.0691,109.7537,106.6284,108.7957,105.5495,108.7111,104.2444,108.0804,103.0112,107.6232,101.6973,106.9713,101.9708,107.0846,101.1773,105.7121,100.7175,104.4777,100.2095,103.2235,99.6817,101.9609,99.0876,100.671,99.0866,100.671,99.9319,88.2588,98.3632,75.8466,99.7591,63.4344,98.3463,51.0222,99.0876,38.61,98.8899,38.5281,99.6242,37.356,100.1418,36.0941,100.4731,34.7551,101.3267,33.6324,101.6973,32.3096,101.7138,32.3495,103.0674,32.0536,104.3185,31.5098,105.4095,30.5798,106.6772,30.0763,107.9976,29.7" style="stroke:#000000;stroke-width:1.188;"/><text fill="#1E90FF" font-family="Arial" font-size="23.76" font-weight="bold" lengthAdjust="spacing" textLength="717.9308" x="122.8476" y="78.8593">Diagrama de Sequ&#234;ncia - M&#243;dulo de Controle (MC) - Principal</text><!--SRC=[bPF1Qjj048Rl-nHJv-16uE0MUl6XK6I51g9IC7c0yMeg1bOxwkxABv97oA6qa5CUGI_MMTaXTd0f4G8jk_D_yy_CwXrxwuQ6O5rTRwxweNF6E6h9Dv2aDm15iMPi0tO86hMXdyFunrj6M40zFZM3axnVYaz17C7xkhpKe-z1kToZAmgJMNkaCMRk9T64dWDKKTVZRn18usFAA1cK5ctWyTVue6Hz3zdDF7EosXYqIGBCDkIZViVxFh6LcJ6lTs3n6UhoRWLhIcGJ0dLRTDXIfo1WFpvQrWmu6U606SmxL5EgWelbz9YyFdwUeLzKxBKh77k9hCAf4nrwsIhgZEgGPGMttBxa_A_fwjXqHwUE_sNknjj07NdLvzbW8-5ih7ZMNgwWyZkTQQDn4NeCg3Ev-LgVayoUnrurBStEAByDE-hUMDOrTyTL6VD3TD9XkdybHaLhQ- -YW9KjXIHnfHSh-z7pkbmibn-AukKIAeds9230DEJgAPx4Vpp4JmQKtGTfXhJFWqxjxSY9PIsBJdIVL7TBd8Om_GznAf8Ye4StFhLQQTIS3RUSaEDqzm-b_0K0]--></g></svg>