<svg xmlns="http://www.w3.org/2000/svg" xmlns:xlink="http://www.w3.org/1999/xlink" contentStyleType="text/css" data-diagram-type="SEQUENCE" height="750.0513px" preserveAspectRatio="none" style="width:929px;height:750px;background:#EEEBDC;" version="1.1" viewBox="0 0 929 750" width="929.7043px" zoomAndPan="magnify"><defs/><g><rect fill="#EEEBDC" height="750.0513" style="stroke:none;stroke-width:1.1228;" width="929.7043" x="0" y="0"/><rect fill="#FFFFCC" height="29.9129" rx="2.8071" ry="2.8071" style="stroke:#FFDD88;stroke-width:3.3685;" width="917.5033" x="5.6142" y="5.6142"/><text fill="#000000" font-family="monospace" font-size="11.2283" lengthAdjust="spacing" textLength="398.8408" x="11.2283" y="22.4566">Please&#160;use&#160;'!option&#160;handwritten&#160;true'&#160;to&#160;enable&#160;handwritten</text><g><title>MCU</title><polygon fill="#000000" points="368.4684,300.6275,368.4684,300.7061,370.714,300.4724,372.9597,300.6998,375.2053,300.7771,377.451,300.3605,379.6967,300.6275,379.6094,300.6275,379.2178,311.7237,379.2661,322.82,379.6201,333.9162,378.9204,345.0125,380.3183,356.1087,378.989,367.205,379.4746,378.3013,380.1817,389.3975,379.6004,400.4938,379.7733,411.59,379.6608,422.6863,379.8971,433.7825,379.9652,444.8788,380.3543,455.975,380.4502,467.0713,380.4594,478.1675,379.9826,489.2638,380.2172,500.3601,380.4852,511.4563,378.8869,522.5526,380.4585,533.6488,379.3637,544.7451,380.2961,555.8413,379.1408,566.9376,379.6198,578.0338,379.6967,589.1301,379.6967,589.4077,377.451,589.1119,375.2053,589.1695,372.9597,589.2568,370.714,589.2859,368.4684,589.1301,368.464,589.1301,368.7909,578.0338,367.8256,566.9376,368.7877,555.8413,369.0839,544.7451,368.9675,533.6488,369.1567,522.5526,367.9259,511.4563,367.7361,500.3601,367.7706,489.2638,368.4022,478.1675,368.2477,467.0713,369.2335,455.975,368.2722,444.8788,368.0832,433.7825,368.7247,422.6863,367.7196,411.59,367.8855,400.4938,369.197,389.3975,368.9575,378.3013,369.2931,367.205,368.107,356.1087,368.8268,345.0125,369.1313,333.9162,367.9379,322.82,368.3607,311.7237,368.4684,300.6275" style="stroke:#181818;stroke-width:1.1228;"/></g><g><title>Sensor .ptico</title><polygon fill="#000000" fill-opacity="0.00000" points="67.3675,262.7813,67.3675,262.86,69.164,262.6262,70.9605,262.8536,72.7571,262.9309,74.5536,262.5143,76.3501,262.7813,76.2629,262.7813,75.8712,273.9964,75.9195,285.2116,76.2736,296.4267,75.5738,307.6419,76.9718,318.857,75.6424,330.0722,76.1281,341.2873,76.8351,352.5024,76.2538,363.7176,76.4267,374.9327,76.3142,386.1479,76.5506,397.363,76.6186,408.5782,77.0077,419.7933,77.1036,431.0084,77.1128,442.2236,76.636,453.4387,76.8706,464.6539,77.1386,475.869,75.5403,487.0842,77.112,498.2993,76.0172,509.5144,76.9495,520.7296,75.7943,531.9447,76.2732,543.1599,77.1828,554.375,76.2954,565.5902,76.4684,576.8053,76.7303,588.0204,76.3501,599.2356,76.3501,599.3914,74.5536,599.2341,72.7571,599.3431,70.9605,599.0213,69.164,599.342,67.3675,599.2356,67.983,599.2356,67.8666,588.0204,68.0558,576.8053,66.825,565.5902,66.6352,554.375,66.6697,543.1599,67.3014,531.9447,67.1468,520.7296,68.1326,509.5144,67.1713,498.2993,66.9823,487.0842,67.6238,475.869,66.6187,464.6539,66.7846,453.4387,68.0961,442.2236,67.8566,431.0084,68.1922,419.7933,67.0061,408.5782,67.7259,397.363,68.0304,386.1479,66.837,374.9327,67.2598,363.7176,67.5089,352.5024,68.0993,341.2873,67.3628,330.0722,67.8869,318.857,66.7457,307.6419,66.607,296.4267,67.9329,285.2116,66.5625,273.9964,67.3675,262.7813"/><path d="M70.7384,262.7813 L71.053,262.7813 L70.1181,273.9964 L71.0277,285.2116 L71.3367,296.4267 L69.6703,307.6419 L70.622,318.857 L70.0999,330.0722 L70.1642,341.2873 L70.6363,352.5024 L69.7033,363.7176 L71.5672,374.9327 L69.7948,386.1479 L70.4423,397.363 L71.385,408.5782 L70.61,419.7933 L70.8405,431.0084 L70.6905,442.2236 L71.0056,453.4387 L71.0964,464.6539 L71.6152,475.869 L71.743,487.0842 L71.7553,498.2993 L71.1196,509.5144 L71.4324,520.7296 L71.7897,531.9447 L69.6587,543.1599 L71.7542,554.375 L70.2945,565.5902 L71.5375,576.8053 L69.9973,588.0204 L70.7384,599.2356" fill="none" style="stroke:#0000FF;stroke-width:0.5614;stroke-dasharray:5.6142,5.6142;"/></g><g><title>MCU</title><polygon fill="#000000" fill-opacity="0.00000" points="369.5912,262.7813,369.5912,262.86,371.3877,262.6262,373.1843,262.8536,374.9808,262.9309,376.7773,262.5143,378.5738,262.7813,378.4866,262.7813,378.095,273.9964,378.1432,285.2116,378.4973,296.4267,377.7976,307.6419,379.1955,318.857,377.8661,330.0722,378.3518,341.2873,379.0588,352.5024,378.4775,363.7176,378.6505,374.9327,378.538,386.1479,378.7743,397.363,378.8423,408.5782,379.2315,419.7933,379.3273,431.0084,379.3365,442.2236,378.8597,453.4387,379.0944,464.6539,379.3623,475.869,377.7641,487.0842,379.3357,498.2993,378.2409,509.5144,379.1732,520.7296,378.018,531.9447,378.4969,543.1599,379.4065,554.375,378.5191,565.5902,378.6921,576.8053,378.9541,588.0204,378.5738,599.2356,378.5738,599.3914,376.7773,599.2341,374.9808,599.3431,373.1843,599.0213,371.3877,599.342,369.5912,599.2356,370.2067,599.2356,370.0903,588.0204,370.2795,576.8053,369.0488,565.5902,368.8589,554.375,368.8935,543.1599,369.5251,531.9447,369.3705,520.7296,370.3563,509.5144,369.3951,498.2993,369.206,487.0842,369.8475,475.869,368.8424,464.6539,369.0083,453.4387,370.3199,442.2236,370.0804,431.0084,370.4159,419.7933,369.2299,408.5782,369.9496,397.363,370.2541,386.1479,369.0608,374.9327,369.4836,363.7176,369.7327,352.5024,370.323,341.2873,369.5865,330.0722,370.1106,318.857,368.9694,307.6419,368.8307,296.4267,370.1567,285.2116,368.7862,273.9964,369.5912,262.7813"/><path d="M373.7513,262.7813 L374.066,262.7813 L373.1311,273.9964 L374.0407,285.2116 L374.3497,296.4267 L372.6833,307.6419 L373.635,318.857 L373.1128,330.0722 L373.1772,341.2873 L373.6493,352.5024 L372.7163,363.7176 L374.5802,374.9327 L372.8077,386.1479 L373.4553,397.363 L374.398,408.5782 L373.6229,419.7933 L373.8535,431.0084 L373.7035,442.2236 L374.0186,453.4387 L374.1093,464.6539 L374.6282,475.869 L374.756,487.0842 L374.7683,498.2993 L374.1325,509.5144 L374.4454,520.7296 L374.8027,531.9447 L372.6716,543.1599 L374.7671,554.375 L373.3074,565.5902 L374.5505,576.8053 L373.0102,588.0204 L373.7513,599.2356" fill="none" style="stroke:#0000FF;stroke-width:0.5614;stroke-dasharray:5.6142,5.6142;"/></g><g><title>Esteira</title><polygon fill="#000000" fill-opacity="0.00000" points="618.9688,262.7813,618.9688,262.86,620.7654,262.6262,622.5619,262.8536,624.3584,262.9309,626.1549,262.5143,627.9515,262.7813,627.8642,262.7813,627.4726,273.9964,627.5209,285.2116,627.8749,296.4267,627.1752,307.6419,628.5731,318.857,627.2438,330.0722,627.7294,341.2873,628.4365,352.5024,627.8552,363.7176,628.0281,374.9327,627.9156,386.1479,628.1519,397.363,628.22,408.5782,628.6091,419.7933,628.705,431.0084,628.7142,442.2236,628.2374,453.4387,628.472,464.6539,628.74,475.869,627.1417,487.0842,628.7133,498.2993,627.6186,509.5144,628.5509,520.7296,627.3957,531.9447,627.8746,543.1599,628.7842,554.375,627.8968,565.5902,628.0697,576.8053,628.3317,588.0204,627.9515,599.2356,627.9515,599.3914,626.1549,599.2341,624.3584,599.3431,622.5619,599.0213,620.7654,599.342,618.9688,599.2356,619.5844,599.2356,619.468,588.0204,619.6572,576.8053,618.4264,565.5902,618.2365,554.375,618.2711,543.1599,618.9027,531.9447,618.7482,520.7296,619.7339,509.5144,618.7727,498.2993,618.5836,487.0842,619.2251,475.869,618.2201,464.6539,618.3859,453.4387,619.6975,442.2236,619.458,431.0084,619.7935,419.7933,618.6075,408.5782,619.3272,397.363,619.6318,386.1479,618.4384,374.9327,618.8612,363.7176,619.1103,352.5024,619.7006,341.2873,618.9641,330.0722,619.4882,318.857,618.347,307.6419,618.2084,296.4267,619.5343,285.2116,618.1638,273.9964,618.9688,262.7813"/><path d="M623.312,262.7813 L623.6267,262.7813 L622.6917,273.9964 L623.6014,285.2116 L623.9104,296.4267 L622.244,307.6419 L623.1957,318.857 L622.6735,330.0722 L622.7379,341.2873 L623.21,352.5024 L622.277,363.7176 L624.1409,374.9327 L622.3684,386.1479 L623.0159,397.363 L623.9587,408.5782 L623.1836,419.7933 L623.4142,431.0084 L623.2642,442.2236 L623.5793,453.4387 L623.67,464.6539 L624.1889,475.869 L624.3167,487.0842 L624.3289,498.2993 L623.6932,509.5144 L624.0061,520.7296 L624.3633,531.9447 L622.2323,543.1599 L624.3278,554.375 L622.8681,565.5902 L624.1112,576.8053 L622.5709,588.0204 L623.312,599.2356" fill="none" style="stroke:#0000FF;stroke-width:0.5614;stroke-dasharray:5.6142,5.6142;"/></g><g><title>Monitor</title><polygon fill="#000000" fill-opacity="0.00000" points="712.3338,262.7813,712.3338,262.86,714.1303,262.6262,715.9268,262.8536,717.7233,262.9309,719.5199,262.5143,721.3164,262.7813,721.2291,262.7813,720.8375,273.9964,720.8858,285.2116,721.2399,296.4267,720.5401,307.6419,721.9381,318.857,720.6087,330.0722,721.0943,341.2873,721.8014,352.5024,721.2201,363.7176,721.393,374.9327,721.2805,386.1479,721.5169,397.363,721.5849,408.5782,721.974,419.7933,722.0699,431.0084,722.0791,442.2236,721.6023,453.4387,721.8369,464.6539,722.1049,475.869,720.5066,487.0842,722.0783,498.2993,720.9835,509.5144,721.9158,520.7296,720.7606,531.9447,721.2395,543.1599,722.1491,554.375,721.2617,565.5902,721.4346,576.8053,721.6966,588.0204,721.3164,599.2356,721.3164,599.3914,719.5199,599.2341,717.7233,599.3431,715.9268,599.0213,714.1303,599.342,712.3338,599.2356,712.9493,599.2356,712.8329,588.0204,713.0221,576.8053,711.7913,565.5902,711.6015,554.375,711.636,543.1599,712.2676,531.9447,712.1131,520.7296,713.0989,509.5144,712.1376,498.2993,711.9486,487.0842,712.5901,475.869,711.585,464.6539,711.7509,453.4387,713.0624,442.2236,712.8229,431.0084,713.1585,419.7933,711.9724,408.5782,712.6922,397.363,712.9967,386.1479,711.8033,374.9327,712.2261,363.7176,712.4752,352.5024,713.0656,341.2873,712.329,330.0722,712.8531,318.857,711.7119,307.6419,711.5733,296.4267,712.8992,285.2116,711.5288,273.9964,712.3338,262.7813"/><path d="M716.8033,262.7813 L717.1179,262.7813 L716.183,273.9964 L717.0926,285.2116 L717.4016,296.4267 L715.7352,307.6419 L716.6869,318.857 L716.1648,330.0722 L716.2291,341.2873 L716.7012,352.5024 L715.7682,363.7176 L717.6321,374.9327 L715.8597,386.1479 L716.5072,397.363 L717.4499,408.5782 L716.6749,419.7933 L716.9054,431.0084 L716.7554,442.2236 L717.0706,453.4387 L717.1613,464.6539 L717.6801,475.869 L717.8079,487.0842 L717.8202,498.2993 L717.1845,509.5144 L717.4973,520.7296 L717.8546,531.9447 L715.7236,543.1599 L717.8191,554.375 L716.3594,565.5902 L717.6025,576.8053 L716.0622,588.0204 L716.8033,599.2356" fill="none" style="stroke:#0000FF;stroke-width:0.5614;stroke-dasharray:5.6142,5.6142;"/></g><g><title>M.dulo Edge</title><polygon fill="#000000" fill-opacity="0.00000" points="834.579,262.7813,834.579,262.86,836.3755,262.6262,838.172,262.8536,839.9685,262.9309,841.7651,262.5143,843.5616,262.7813,843.4743,262.7813,843.0827,273.9964,843.131,285.2116,843.4851,296.4267,842.7853,307.6419,844.1833,318.857,842.8539,330.0722,843.3395,341.2873,844.0466,352.5024,843.4653,363.7176,843.6382,374.9327,843.5257,386.1479,843.7621,397.363,843.8301,408.5782,844.2192,419.7933,844.3151,431.0084,844.3243,442.2236,843.8475,453.4387,844.0821,464.6539,844.3501,475.869,842.7518,487.0842,844.3235,498.2993,843.2287,509.5144,844.161,520.7296,843.0058,531.9447,843.4847,543.1599,844.3943,554.375,843.5069,565.5902,843.6798,576.8053,843.9418,588.0204,843.5616,599.2356,843.5616,599.3914,841.7651,599.2341,839.9685,599.3431,838.172,599.0213,836.3755,599.342,834.579,599.2356,835.1945,599.2356,835.0781,588.0204,835.2673,576.8053,834.0365,565.5902,833.8467,554.375,833.8812,543.1599,834.5128,531.9447,834.3583,520.7296,835.3441,509.5144,834.3828,498.2993,834.1938,487.0842,834.8353,475.869,833.8302,464.6539,833.9961,453.4387,835.3076,442.2236,835.0681,431.0084,835.4037,419.7933,834.2176,408.5782,834.9374,397.363,835.2419,386.1479,834.0485,374.9327,834.4713,363.7176,834.7204,352.5024,835.3108,341.2873,834.5742,330.0722,835.0983,318.857,833.9571,307.6419,833.8185,296.4267,835.1444,285.2116,833.774,273.9964,834.579,262.7813"/><path d="M838.1127,262.7813 L838.4273,262.7813 L837.4924,273.9964 L838.402,285.2116 L838.711,296.4267 L837.0446,307.6419 L837.9963,318.857 L837.4741,330.0722 L837.5385,341.2873 L838.0106,352.5024 L837.0776,363.7176 L838.9415,374.9327 L837.1691,386.1479 L837.8166,397.363 L838.7593,408.5782 L837.9842,419.7933 L838.2148,431.0084 L838.0648,442.2236 L838.3799,453.4387 L838.4707,464.6539 L838.9895,475.869 L839.1173,487.0842 L839.1296,498.2993 L838.4939,509.5144 L838.8067,520.7296 L839.164,531.9447 L837.033,543.1599 L839.1285,554.375 L837.6688,565.5902 L838.9118,576.8053 L837.3716,588.0204 L838.1127,599.2356" fill="none" style="stroke:#0000FF;stroke-width:0.5614;stroke-dasharray:5.6142,5.6142;"/></g><g class="participant participant-head" data-participant="Sensor .ptico"><text fill="#1E90FF" font-family="Aapex" font-size="19.0881" lengthAdjust="spacing" textLength="125.7523" x="5.6142" y="257.1885">Sensor &#211;ptico</text><polygon fill="#00BFFF" points="89.9233,191.1872,87.2899,194.7854,84.1752,200.0556,79.7204,203.6074,75.0393,205.5496,71.3068,205.7182,66.5095,203.2891,61.983,201.7023,58.5474,198.4804,56.7452,194.7919,55.6764,191.855,54.6294,188.0189,52.9299,184.7178,54.2358,181.4947,55.38,177.9641,59.6739,175.1717,62.6948,171.5486,66.4339,170.3455,70.8791,169.3094,76.5794,169.925,79.7016,171.3974,83.3316,172.0649,87.7453,176.5869,89.2839,181.3607,89.9524,184.618,89.1952,189.9856" style="stroke:#00BFFF;stroke-width:0.5614;"/><path d="M71.8588,209.274 L71.8588,209.274 L71.8946,209.3725 L74.2584,208.1814 L76.8322,207.5681 L79.3376,206.7666 L81.618,205.3463 L84.2099,204.7826 L84.2099,204.7826 L84.1939,204.7473 L86.5921,205.7117 L89.0712,206.8541 L91.6065,208.1202 L93.9481,208.9599 L96.5611,210.3968 L96.8126,210.5111 L97.3976,212.7369 L98.7169,215.2964 L100.1258,217.8967 L101.0134,220.26 L102.1752,222.7479 L102.2433,222.7479 L102.1433,223.6462 L102.3534,224.5445 L102.4139,225.4427 L102.7598,226.341 L102.1752,227.2393 L102.1752,227.2393 L102.412,227.4761 L100.6184,229.2755 L98.672,230.9222 L96.9492,232.7924 L95.2369,234.6732 L93.1926,236.2219 L93.1926,235.5021 L84.6591,236.8991 L76.1256,235.926 L67.592,236.7547 L59.0585,235.7278 L50.525,236.2219 L50.525,236.2219 L50.5008,236.1977 L48.9902,234.6871 L46.9147,232.6117 L45.1726,230.8695 L43.4584,229.1553 L41.5423,227.2393 L41.9578,227.2393 L41.5384,226.341 L41.829,225.4427 L40.971,224.5445 L41.8262,223.6462 L41.5423,222.7479 L41.5423,222.7479 L41.7914,222.8611 L42.8671,220.3695 L44.0665,217.9341 L44.6914,215.2375 L45.7374,212.7323 L47.1565,210.3968 L47.0282,210.1145 L49.6146,209.2472 L52.0564,208.0618 L54.7079,207.3379 L57.0013,205.8261 L59.5076,204.7826 L59.5076,204.7826 L59.4491,204.6217 L62.0168,205.788 L64.3344,206.2664 L66.8298,207.234 L69.4992,208.68 L71.8588,209.274" fill="#00BFFF"/></g><g class="participant participant-head" data-participant="MCU"><polygon fill="#1E90FF" points="347.3648,219.9409,347.3648,220.1769,358.0519,219.4756,368.739,220.1579,379.4261,220.3896,390.1131,219.1398,400.8002,219.9409,400.7891,219.914,401.1361,219.9578,401.5393,220.1371,401.9814,220.4106,402.2891,220.3595,402.7851,220.763,402.9766,220.8423,402.7316,221.0697,403.0456,221.5287,403.4278,222.0158,403.4132,222.3387,403.6073,222.7479,403.6329,222.7479,403.5954,229.9686,403.6741,237.1893,403.6968,244.41,403.8265,251.6307,403.6073,258.8514,403.8394,258.9475,403.6778,259.3457,403.3665,259.6818,403.2743,260.1087,403.1924,260.5399,402.7851,260.8363,402.6818,260.5869,402.4853,261.2353,401.9487,261.0626,401.6707,261.5142,401.1263,261.3229,400.8002,261.6585,400.8002,261.5816,390.1131,262.4912,379.4261,261.6037,368.739,261.7767,358.0519,262.0387,347.3648,261.6585,347.4244,261.8024,346.9673,261.4927,346.612,261.4289,346.0919,260.9672,345.8176,261.0991,345.3799,260.8363,345.5695,260.9148,345.3692,260.503,345.263,260.1301,344.7196,259.5762,344.4966,259.155,344.5577,258.8514,344.3251,258.8514,344.5357,251.6307,344.4842,244.41,344.8128,237.1893,344.4923,229.9686,344.5577,222.7479,344.4391,222.6988,344.8011,222.3836,344.656,221.8585,344.8715,221.4826,345.4399,221.253,345.3799,220.763,345.4423,220.9137,345.8821,220.8526,346.1278,220.3229,346.6166,220.3801,347.0524,220.3094,347.3648,219.9409" style="stroke:#00BFFF;stroke-width:0.5614;"/><text fill="#A9DCDF" font-family="Impact" font-size="19.0881" lengthAdjust="spacing" textLength="43.33" x="352.4175" y="248.2058">MCU</text></g><g class="participant participant-head" data-participant="Esteira"><polygon fill="#1E90FF" points="587.9428,219.9409,587.9428,220.1769,599.7819,219.4756,611.621,220.1579,623.4602,220.3896,635.2993,219.1398,647.1384,219.8536,658.9775,219.9409,658.9164,219.7934,659.3195,219.9727,659.7617,220.2462,660.0694,220.1951,660.6447,220.79,660.9624,220.763,660.7444,220.6728,661.0584,221.1317,661.4406,221.6189,661.426,221.9417,661.6437,222.3607,661.7845,222.7479,661.7726,222.7479,661.8514,229.9686,661.874,237.1893,662.0038,244.41,662.0357,251.6307,661.7845,258.8514,662.0194,258.9487,661.7082,259.2848,661.616,259.7117,661.5341,260.1429,660.8774,260.336,660.9624,260.8363,661.0596,261.0709,660.5229,260.8982,660.2449,261.3497,659.7005,261.1584,659.3646,261.4703,658.9775,261.6585,658.9775,262.4912,647.1384,261.6037,635.2993,261.7767,623.4602,262.0387,611.621,262.1258,599.7819,261.6541,587.9428,261.6585,587.984,261.7578,587.4639,261.2961,587.1896,261.4279,586.8304,261.3547,586.4186,261.1544,585.9579,260.8363,586.1699,260.9241,585.6265,260.3701,585.4035,259.9489,585.2498,259.5563,585.2798,259.2399,585.1358,258.8514,585.0622,258.8514,585.3908,251.6307,585.0704,244.41,585.0074,237.1893,585.2212,229.9686,585.1358,222.7479,584.9052,222.6524,585.1207,222.2766,585.689,222.0469,585.7797,221.6194,586.0475,221.2652,585.9579,220.763,585.9118,220.6518,586.4006,220.709,586.8365,220.6383,587.0812,220.1064,587.5321,220.0721,587.9428,219.9409" style="stroke:#00BFFF;stroke-width:0.5614;"/><text fill="#A9DCDF" font-family="Impact" font-size="19.0881" lengthAdjust="spacing" textLength="60.9292" x="592.9956" y="248.2058">Esteira</text></g><g class="participant participant-head" data-participant="Monitor"><polygon fill="#1E90FF" points="675.8199,219.9409,675.8199,220.1769,687.5357,219.4756,699.2514,220.1579,710.9672,220.3896,722.683,219.1398,734.3987,219.8536,746.1145,219.462,757.8302,219.9409,757.7753,219.8082,758.2174,220.0817,758.5252,220.0307,759.1005,220.6256,759.3279,220.3807,759.8151,220.763,759.7467,220.7347,760.1289,221.2219,760.1143,221.5447,760.332,221.9637,760.4618,222.3464,760.6373,222.7479,760.7041,222.7479,760.7268,229.9686,760.8565,237.1893,760.8885,244.41,760.8915,251.6307,760.6373,258.8514,760.7253,258.8879,760.6332,259.3148,760.5513,259.7459,759.8946,259.939,760.2142,260.5365,759.8151,260.8363,759.7727,260.7338,759.4946,261.1853,758.9503,260.994,758.6144,261.3059,758.3334,261.7505,757.8302,261.6585,757.8302,261.6037,746.1145,261.7767,734.3987,262.0387,722.683,262.1258,710.9672,261.6541,699.2514,261.981,687.5357,261.0157,675.8199,261.6585,675.8607,261.7568,675.5015,261.6836,675.0896,261.4833,674.7168,261.3771,674.1628,260.8337,673.835,260.8363,673.6095,260.7429,673.4557,260.3503,673.4858,260.0339,673.2738,259.6172,673.4129,259.346,673.0129,258.8514,672.9475,258.8514,672.8845,251.6307,673.0983,244.41,672.7633,237.1893,672.8186,229.9686,673.0129,222.7479,673.2373,222.8409,673.3279,222.4134,673.5957,222.0592,673.3949,221.5109,673.781,221.2057,673.835,220.763,673.9196,220.9672,674.1644,220.4352,674.6153,220.401,675.044,220.3133,675.5163,220.3307,675.8199,219.9409" style="stroke:#00BFFF;stroke-width:0.5614;"/><text fill="#A9DCDF" font-family="Impact" font-size="19.0881" lengthAdjust="spacing" textLength="71.9048" x="680.8727" y="248.2058">Monitor</text></g><g class="participant participant-head" data-participant="M.dulo Edge"><polygon fill="#1E90FF" points="774.6727,219.9409,774.6727,220.1769,786.3813,219.4756,798.09,220.1579,809.7986,220.3896,821.5073,219.1398,833.216,219.8536,844.9246,219.462,856.6333,219.5103,868.3419,219.8643,880.0506,219.1646,891.7592,220.5625,903.4679,219.9409,903.3776,219.7229,903.8365,220.0369,904.3237,220.4191,904.6465,220.4045,905.0656,220.6222,905.4528,220.763,905.4417,220.7585,905.6789,221.1856,905.8643,221.5912,906.1486,222.0379,906.3426,222.4471,906.2749,222.7479,906.5292,222.7479,906.3702,229.9686,906.4485,237.1893,906.5378,244.41,906.005,251.6307,906.2749,258.8514,906.5096,258.9486,906.008,259.2059,906.1307,259.7218,905.6105,259.9714,905.5935,260.4295,905.4528,260.8363,905.559,261.0927,905.0488,260.9839,904.6739,261.2016,904.3103,261.4467,903.9245,261.638,903.4679,261.6585,903.4679,261.6541,891.7592,261.981,880.0506,261.0157,868.3419,261.9778,856.6333,262.274,844.9246,262.1576,833.216,262.3468,821.5073,261.116,809.7986,260.9262,798.09,260.9607,786.3813,261.5924,774.6727,261.6585,774.6445,261.5905,774.3733,261.7297,773.8537,261.2692,773.4326,261.0465,773.1175,261.0797,772.6878,260.8363,772.4572,260.7408,772.3438,260.365,772.5833,260.1353,772.3451,259.7077,772.284,259.3536,771.8656,258.8514,771.7452,258.8514,771.9851,251.6307,772.0866,244.41,771.6888,237.1893,771.8297,229.9686,771.8656,222.7479,771.9092,222.766,772.2554,222.4443,772.193,221.9534,772.5189,221.6232,772.3319,221.0807,772.6878,220.763,772.5908,220.5288,773.1569,220.7727,773.3791,220.1863,773.9516,220.4457,774.3053,220.1767,774.6727,219.9409" style="stroke:#00BFFF;stroke-width:0.5614;"/><text fill="#A9DCDF" font-family="Impact" font-size="19.0881" lengthAdjust="spacing" textLength="118.6897" x="779.7254" y="248.2058">M&#243;dulo Edge</text></g><g><title>MCU</title><polygon fill="#000000" points="368.4684,300.6275,368.4684,300.7061,370.714,300.4724,372.9597,300.6998,375.2053,300.7771,377.451,300.3605,379.6967,300.6275,379.6094,300.6275,379.2178,311.7237,379.2661,322.82,379.6201,333.9162,378.9204,345.0125,380.3183,356.1087,378.989,367.205,379.4746,378.3013,380.1817,389.3975,379.6004,400.4938,379.7733,411.59,379.6608,422.6863,379.8971,433.7825,379.9652,444.8788,380.3543,455.975,380.4502,467.0713,380.4594,478.1675,379.9826,489.2638,380.2172,500.3601,380.4852,511.4563,378.8869,522.5526,380.4585,533.6488,379.3637,544.7451,380.2961,555.8413,379.1408,566.9376,379.6198,578.0338,379.6967,589.1301,379.6967,589.4077,377.451,589.1119,375.2053,589.1695,372.9597,589.2568,370.714,589.2859,368.4684,589.1301,368.464,589.1301,368.7909,578.0338,367.8256,566.9376,368.7877,555.8413,369.0839,544.7451,368.9675,533.6488,369.1567,522.5526,367.9259,511.4563,367.7361,500.3601,367.7706,489.2638,368.4022,478.1675,368.2477,467.0713,369.2335,455.975,368.2722,444.8788,368.0832,433.7825,368.7247,422.6863,367.7196,411.59,367.8855,400.4938,369.197,389.3975,368.9575,378.3013,369.2931,367.205,368.107,356.1087,368.8268,345.0125,369.1313,333.9162,367.9379,322.82,368.3607,311.7237,368.4684,300.6275" style="stroke:#181818;stroke-width:1.1228;"/></g><g class="message" data-participant-1="Sensor .ptico" data-participant-2="MCU"><polygon fill="#00BFFF" points="354.9944,296.1361,355.0236,296.2092,357.1825,296.8904,359.5126,297.9998,361.7869,298.9698,363.8779,299.4813,366.2227,300.6275,366.2119,300.6005,363.9178,301.3775,361.6781,302.2907,359.4762,303.2986,357.1439,303.9803,354.9944,305.1188,355.1409,305.2653,355.7258,304.0537,356.7386,303.2699,357.8035,302.5383,358.5647,301.503,359.4857,300.6275,359.5038,300.6455,358.579,299.7207,357.7364,298.8782,356.8542,297.996,356.0477,297.1894,354.9944,296.1361" style="stroke:#00BFFF;stroke-width:1.1228;"/><path d="M71.8588,300.6275 L71.8588,300.9421 L83.0077,300.0072 L94.1567,300.9168 L105.3056,301.2258 L116.4546,299.5594 L127.6035,300.5111 L138.7525,299.989 L149.9014,300.0533 L161.0504,300.5254 L172.1993,299.5924 L183.3482,301.4563 L194.4972,299.6839 L205.6461,300.3314 L216.7951,301.2741 L227.944,300.499 L239.093,300.7296 L250.2419,300.5796 L261.3909,300.8947 L272.5398,300.9855 L283.6888,301.5043 L294.8377,301.6321 L305.9866,301.6444 L317.1356,301.0087 L328.2845,301.3215 L339.4335,301.6788 L350.5824,299.5478 L361.7314,300.6275" fill="none" style="stroke:#00BFFF;stroke-width:1.1228;"/><text fill="#000000" font-family="sans-serif" font-size="14.5968" lengthAdjust="spacing" textLength="271.457" x="79.7186" y="294.1049">Detecta embalagem no in&#237;cio da Esteira</text></g><g class="message" data-participant-1="MCU" data-participant-2="MCU"><path d="M379.6967,336.228 L379.6967,336.3329 L389.1285,336.0212 L398.5602,336.3244 L407.992,336.4274 L417.4238,335.872 L426.8556,336.228" fill="none" style="stroke:#00BFFF;stroke-width:1.1228;"/><path d="M426.8556,336.228 L426.9605,336.228 L426.6488,339.1473 L426.952,342.0667 L427.055,344.9861 L426.4996,347.9054 L426.8556,350.8248" fill="none" style="stroke:#00BFFF;stroke-width:1.1228;"/><path d="M380.8195,350.8248 L380.8195,350.9297 L390.0267,350.618 L399.2339,350.9212 L408.4412,351.0242 L417.6484,350.4688 L426.8556,350.8248" fill="none" style="stroke:#00BFFF;stroke-width:1.1228;"/><polygon fill="#00BFFF" points="392.0478,346.3335,392.077,346.4065,389.7446,347.0877,387.5834,348.1972,385.3664,349.1671,382.966,349.6786,380.8195,350.8248,380.8087,350.7978,383.0059,351.5748,385.2575,352.488,387.547,353.4959,389.7061,354.1776,392.0478,355.3161,392.1943,355.4626,390.9827,354.251,390.1989,353.4672,389.4673,352.7356,388.4321,351.7003,387.5565,350.8248,387.5746,350.8428,388.4463,349.9181,389.4003,349.0755,390.3146,348.1933,391.3046,347.3867,392.0478,346.3335" style="stroke:#00BFFF;stroke-width:1.1228;"/><text fill="#000000" font-family="sans-serif" font-size="14.5968" lengthAdjust="spacing" textLength="211.2014" x="387.5565" y="329.7054">Aciona dispositivo de manobra</text></g><g class="message" data-participant-1="MCU" data-participant-2="Esteira"><polygon fill="#00BFFF" points="609.9862,381.934,610.0154,382.007,612.1742,382.6882,614.5044,383.7977,616.7787,384.7676,618.8697,385.2791,621.2145,386.4253,621.2037,386.3983,618.9095,387.1753,616.6699,388.0885,614.468,389.0964,612.1357,389.7781,609.9862,390.9166,610.1327,391.0631,610.7176,389.8515,611.7304,389.0677,612.7953,388.3361,613.5565,387.3008,614.4775,386.4253,614.4956,386.4433,613.5708,385.5186,612.7282,384.676,611.846,383.7938,611.0394,382.9872,609.9862,381.934" style="stroke:#00BFFF;stroke-width:1.1228;"/><path d="M379.6967,386.4253 L379.6967,386.7399 L390.9836,385.805 L402.2706,386.7147 L413.5576,387.0236 L424.8446,385.3573 L436.1316,386.3089 L447.4185,385.7868 L458.7055,385.8511 L469.9925,386.3232 L481.2795,385.3902 L492.5664,387.2541 L503.8534,385.4817 L515.1404,386.1292 L526.4274,387.072 L537.7143,386.2969 L549.0013,386.5274 L560.2883,386.3775 L571.5753,386.6926 L582.8622,386.7833 L594.1492,387.3021 L605.4362,387.4299 L616.7232,386.4253" fill="none" style="stroke:#00BFFF;stroke-width:1.1228;"/><text fill="#000000" font-family="sans-serif" font-size="14.5968" lengthAdjust="spacing" textLength="78.9688" x="387.5565" y="379.9028">Liga Esteira</text></g><g class="message" data-participant-1="Sensor .ptico" data-participant-2="MCU"><polygon fill="#00BFFF" points="354.9944,417.5345,355.0236,417.6075,357.1825,418.2887,359.5126,419.3982,361.7869,420.3681,363.8779,420.8796,366.2227,422.0258,366.2119,421.9988,363.9178,422.7758,361.6781,423.689,359.4762,424.6969,357.1439,425.3786,354.9944,426.5171,355.1409,426.6636,355.7258,425.452,356.7386,424.6682,357.8035,423.9366,358.5647,422.9014,359.4857,422.0258,359.5038,422.0438,358.579,421.1191,357.7364,420.2765,356.8542,419.3943,356.0477,418.5877,354.9944,417.5345" style="stroke:#00BFFF;stroke-width:1.1228;"/><path d="M71.8588,422.0258 L71.8588,422.3405 L83.0077,421.4055 L94.1567,422.3152 L105.3056,422.6242 L116.4546,420.9578 L127.6035,421.9094 L138.7525,421.3873 L149.9014,421.4516 L161.0504,421.9238 L172.1993,420.9907 L183.3482,422.8546 L194.4972,421.0822 L205.6461,421.7297 L216.7951,422.6725 L227.944,421.8974 L239.093,422.1279 L250.2419,421.978 L261.3909,422.2931 L272.5398,422.3838 L283.6888,422.9026 L294.8377,423.0304 L305.9866,423.0427 L317.1356,422.407 L328.2845,422.7198 L339.4335,423.0771 L350.5824,420.9461 L361.7314,422.0258" fill="none" style="stroke:#00BFFF;stroke-width:1.1228;"/><text fill="#000000" font-family="sans-serif" font-size="14.5968" lengthAdjust="spacing" textLength="269.6616" x="79.7186" y="415.5033">Detecta Embalagem no meio da Esteira</text></g><g class="message" data-participant-1="MCU" data-participant-2="MCU"><path d="M379.6967,457.6263 L379.6967,457.7312 L389.1285,457.4195 L398.5602,457.7228 L407.992,457.8257 L417.4238,457.2703 L426.8556,457.6263" fill="none" style="stroke:#00BFFF;stroke-width:1.1228;"/><path d="M426.8556,457.6263 L426.9605,457.6263 L426.6488,460.5457 L426.952,463.465 L427.055,466.3844 L426.4996,469.3037 L426.8556,472.2231" fill="none" style="stroke:#00BFFF;stroke-width:1.1228;"/><path d="M380.8195,472.2231 L380.8195,472.328 L390.0267,472.0163 L399.2339,472.3196 L408.4412,472.4226 L417.6484,471.8671 L426.8556,472.2231" fill="none" style="stroke:#00BFFF;stroke-width:1.1228;"/><polygon fill="#00BFFF" points="392.0478,467.7318,392.077,467.8048,389.7446,468.4861,387.5834,469.5955,385.3664,470.5655,382.966,471.0769,380.8195,472.2231,380.8087,472.1961,383.0059,472.9732,385.2575,473.8864,387.547,474.8942,389.7061,475.5759,392.0478,476.7144,392.1943,476.8609,390.9827,475.6494,390.1989,474.8656,389.4673,474.1339,388.4321,473.0987,387.5565,472.2231,387.5746,472.2412,388.4463,471.3164,389.4003,470.4738,390.3146,469.5916,391.3046,468.785,392.0478,467.7318" style="stroke:#00BFFF;stroke-width:1.1228;"/><text fill="#000000" font-family="sans-serif" font-size="14.5968" lengthAdjust="spacing" textLength="147.7636" x="387.5565" y="451.1038">Incrementa Contador</text></g><g class="message" data-participant-1="MCU" data-participant-2="Monitor"><polygon fill="#00BFFF" points="703.3511,503.3323,703.3803,503.4053,705.5392,504.0866,707.8693,505.196,710.1436,506.166,712.2346,506.6774,714.5794,507.8236,714.5686,507.7966,712.2745,508.5737,710.0348,509.4869,707.833,510.4947,705.5007,511.1764,703.3511,512.3149,703.4976,512.4615,704.0826,511.2499,705.0953,510.4661,706.1602,509.7345,706.9215,508.6992,707.8424,507.8236,707.8605,507.8417,706.9357,506.9169,706.0931,506.0743,705.2109,505.1921,704.4044,504.3856,703.3511,503.3323" style="stroke:#00BFFF;stroke-width:1.1228;"/><path d="M379.6967,507.8236 L379.6967,508.1383 L391.0895,507.2033 L402.4823,508.113 L413.8751,508.422 L425.2679,506.7556 L436.6607,507.7073 L448.0535,507.1851 L459.4463,507.2495 L470.8391,507.7216 L482.2319,506.7886 L493.6247,508.6525 L505.0176,506.88 L516.4104,507.5275 L527.8032,508.4703 L539.196,507.6952 L550.5888,507.9258 L561.9816,507.7758 L573.3744,508.0909 L584.7672,508.1816 L596.16,508.7004 L607.5528,508.8282 L618.9456,508.8405 L630.3384,508.2048 L641.7312,508.5176 L653.1241,508.8749 L664.5169,506.7439 L675.9097,508.8394 L687.3025,507.3797 L698.6953,508.6228 L710.0881,507.8236" fill="none" style="stroke:#00BFFF;stroke-width:1.1228;"/><text fill="#000000" font-family="sans-serif" font-size="14.5968" lengthAdjust="spacing" textLength="162.8713" x="387.5565" y="501.3011">Envia dados para o IHM</text></g><g class="message" data-participant-1="MCU" data-participant-2="M.dulo Edge"><polygon fill="#00BFFF" points="825.5963,538.9328,825.6255,539.0058,827.7844,539.6871,830.1145,540.7965,832.3888,541.7665,834.4798,542.2779,836.8246,543.4241,836.8138,543.3971,834.5197,544.1742,832.28,545.0874,830.0782,546.0952,827.7459,546.7769,825.5963,547.9154,825.7428,548.062,826.3278,546.8504,827.3405,546.0666,828.4054,545.335,829.1667,544.2997,830.0876,543.4241,830.1057,543.4422,829.1809,542.5174,828.3383,541.6748,827.4561,540.7926,826.6496,539.9861,825.5963,538.9328" style="stroke:#00BFFF;stroke-width:1.1228;"/><path d="M379.6967,543.4241 L379.6967,543.7388 L391.0126,542.8038 L402.3285,543.7135 L413.6444,544.0225 L424.9603,542.3561 L436.2763,543.3078 L447.5922,542.7856 L458.9081,542.85 L470.224,543.3221 L481.5399,542.3891 L492.8558,544.253 L504.1717,542.4805 L515.4877,543.128 L526.8036,544.0708 L538.1195,543.2957 L549.4354,543.5263 L560.7513,543.3763 L572.0672,543.6914 L583.3832,543.7821 L594.6991,544.301 L606.015,544.4288 L617.3309,544.441 L628.6468,543.8053 L639.9627,544.1181 L651.2786,544.4754 L662.5946,542.3444 L673.9105,544.4399 L685.2264,542.9802 L696.5423,544.2233 L707.8582,542.683 L719.1741,543.3216 L730.4901,544.5344 L741.806,543.3511 L753.1219,543.5818 L764.4378,543.9311 L775.7537,544.0473 L787.0696,543.4183 L798.3855,543.8541 L809.7015,542.5671 L821.0174,543.8499 L832.3333,543.4241" fill="none" style="stroke:#00BFFF;stroke-width:1.1228;"/><text fill="#000000" font-family="sans-serif" font-size="14.5968" lengthAdjust="spacing" textLength="170.6514" x="387.5565" y="536.9016">Envia dados para Nuvem</text></g><g class="message" data-participant-1="Sensor .ptico" data-participant-2="MCU"><polygon fill="#00BFFF" points="354.9944,574.5333,355.0236,574.6063,357.1825,575.2876,359.5126,576.397,361.7869,577.367,363.8779,577.8784,366.2227,579.0246,366.2119,578.9976,363.9178,579.7747,361.6781,580.6879,359.4762,581.6957,357.1439,582.3774,354.9944,583.5159,355.1409,583.6625,355.7258,582.4509,356.7386,581.6671,357.8035,580.9355,358.5647,579.9002,359.4857,579.0246,359.5038,579.0427,358.579,578.1179,357.7364,577.2753,356.8542,576.3931,356.0477,575.5866,354.9944,574.5333" style="stroke:#00BFFF;stroke-width:1.1228;"/><path d="M71.8588,579.0246 L71.8588,579.3393 L83.0077,578.4043 L94.1567,579.314 L105.3056,579.623 L116.4546,577.9566 L127.6035,578.9083 L138.7525,578.3861 L149.9014,578.4505 L161.0504,578.9226 L172.1993,577.9896 L183.3482,579.8535 L194.4972,578.081 L205.6461,578.7285 L216.7951,579.6713 L227.944,578.8962 L239.093,579.1268 L250.2419,578.9768 L261.3909,579.2919 L272.5398,579.3826 L283.6888,579.9015 L294.8377,580.0293 L305.9866,580.0415 L317.1356,579.4058 L328.2845,579.7187 L339.4335,580.0759 L350.5824,577.9449 L361.7314,579.0246" fill="none" style="stroke:#00BFFF;stroke-width:1.1228;"/><text fill="#000000" font-family="sans-serif" font-size="14.5968" lengthAdjust="spacing" textLength="260.1737" x="79.7186" y="572.5021">Detecta Embalagem no Fim da Esteira</text></g><text fill="#1E90FF" font-family="Arial" font-size="15.7196" font-weight="bold" lengthAdjust="spacing" textLength="178.8259" x="33.6849" y="639.6193">Casos de Uso cobertos:</text><text fill="#1E90FF" font-family="Arial" font-size="15.7196" lengthAdjust="spacing" textLength="5.0617" x="33.6849" y="661.0293">-</text><text fill="#1E90FF" font-family="Arial" font-size="15.7196" font-weight="bold" lengthAdjust="spacing" textLength="56.8734" x="42.8337" y="661.0293">MC-001</text><text fill="#1E90FF" font-family="Arial" font-size="15.7196" lengthAdjust="spacing" textLength="232.8541" x="103.7942" y="661.0293">Controle da esteira e atuadores</text><text fill="#1E90FF" font-family="Arial" font-size="15.7196" lengthAdjust="spacing" textLength="5.0617" x="33.6849" y="682.4394">-</text><text fill="#1E90FF" font-family="Arial" font-size="15.7196" font-weight="bold" lengthAdjust="spacing" textLength="56.8734" x="42.8337" y="682.4394">MC-002</text><text fill="#1E90FF" font-family="Arial" font-size="15.7196" lengthAdjust="spacing" textLength="308.5596" x="103.7942" y="682.4394">Contagem de produtos de alta velocidade</text><text fill="#1E90FF" font-family="Arial" font-size="15.7196" lengthAdjust="spacing" textLength="5.0617" x="33.6849" y="703.8494">-</text><text fill="#1E90FF" font-family="Arial" font-size="15.7196" font-weight="bold" lengthAdjust="spacing" textLength="56.8734" x="42.8337" y="703.8494">MC-005</text><text fill="#1E90FF" font-family="Arial" font-size="15.7196" lengthAdjust="spacing" textLength="298.4833" x="103.7942" y="703.8494">Leitura de sensores anal&#243;gicos e digitais</text><polygon fill="none" points="102.0734,69.212,102.0734,69.448,113.2895,68.7468,124.5057,69.429,135.7219,69.6608,146.9381,68.411,158.1543,69.1248,169.3705,68.7331,180.5866,68.7814,191.8028,69.1355,203.019,68.4357,214.2352,69.8337,225.4514,68.5043,236.6676,68.99,247.8837,69.697,259.0999,69.1157,270.3161,69.2886,281.5323,69.1761,292.7485,69.4125,303.9647,69.4805,315.1808,69.8696,326.397,69.9655,337.6132,69.9747,348.8294,69.4979,360.0456,69.7325,371.2618,70.0005,382.4779,68.4022,393.6941,69.9739,404.9103,68.8791,416.1265,69.8114,427.3427,68.6562,438.5589,69.1351,449.775,70.0447,460.9912,69.1573,472.2074,69.3303,483.4236,69.5922,494.6398,69.6794,505.856,69.2076,517.0721,69.5345,528.2883,68.5693,539.5045,69.5313,550.7207,69.8275,561.9369,69.7112,573.1531,69.9003,584.3692,68.6696,595.5854,68.4797,606.8016,68.5143,618.0178,69.1459,629.234,68.9914,640.4502,69.9771,651.6663,69.0159,662.8825,68.8268,674.0987,69.4683,685.3149,68.4633,696.5311,68.6291,707.7473,69.9407,718.9634,69.7012,730.1796,70.0367,741.3958,68.8507,752.612,69.5704,763.8282,69.875,775.0444,68.6816,786.2605,69.1044,797.4767,69.3535,808.6929,69.212,808.7863,69.4374,809.8832,69.7039,811.141,70.3586,812.1864,70.5004,813.3597,70.9511,814.6476,71.6785,814.8218,71.7507,814.893,72.7668,815.8102,74.1333,816.199,75.281,816.5282,76.4039,817.1141,77.6333,816.7169,77.6333,817.6293,89.3646,816.778,101.0959,817.7787,112.8273,816.4935,124.5586,817.1141,136.2899,817.3276,136.3784,816.7883,137.5502,816.2122,138.7069,815.6506,139.8695,815.3922,141.1578,814.6476,142.2446,814.7355,142.4568,813.4809,142.7965,812.3041,143.324,811.0561,143.6795,809.9865,144.4656,808.6929,144.7112,808.6929,144.8851,797.4767,144.9049,786.2605,144.0281,775.0444,144.2562,763.8282,145.3071,752.612,145.1937,741.3958,144.663,730.1796,144.3494,718.9634,144.4653,707.7473,143.9407,696.5311,145.1768,685.3149,145.5416,674.0987,145.3022,662.8825,145.4915,651.6663,144.5576,640.4502,144.8091,629.234,144.276,618.0178,145.0301,606.8016,144.9882,595.5854,145.3314,584.3692,144.4533,573.1531,144.5602,561.9369,145.2091,550.7207,145.3482,539.5045,144.1357,528.2883,144.4935,517.0721,144.8788,505.856,144.0253,494.6398,145.108,483.4236,145.0008,472.2074,144.598,460.9912,144.8709,449.775,145.5293,438.5589,144.3599,427.3427,145.0648,416.1265,145.0319,404.9103,144.8412,393.6941,144.8694,382.4779,144.8386,371.2618,144.0103,360.0456,144.2611,348.8294,144.1929,337.6132,144.7828,326.397,144.8101,315.1808,144.8928,303.9647,144.3844,292.7485,144.6354,281.5323,144.5762,270.3161,145.3589,259.0999,145.1901,247.8837,144.166,236.6676,144.6293,225.4514,144.063,214.2352,145.035,203.019,145.3944,191.8028,145.3226,180.5866,144.2221,169.3705,145.2321,158.1543,143.8771,146.9381,144.9359,135.7219,144.3751,124.5057,144.8198,113.2895,144.981,102.0734,144.7112,102.141,144.8744,100.7793,143.9689,99.7596,143.889,98.5261,143.2929,97.3605,142.8608,96.1187,142.2446,96.3772,142.3517,95.6272,141.0545,95.1927,139.8879,94.7125,138.7024,94.2136,137.5091,93.6521,136.2899,93.6512,136.2899,94.4501,124.5586,92.9675,112.8273,94.2868,101.0959,92.9515,89.3646,93.6521,77.6333,93.4653,77.5559,94.1593,76.448,94.6485,75.2554,94.9616,73.9898,95.7684,72.9287,96.1187,71.6785,96.1342,71.7162,97.4137,71.4365,98.5961,70.9226,99.6273,70.0436,100.8254,69.5677,102.0734,69.212" style="stroke:#000000;stroke-width:1.1228;"/><text fill="#1E90FF" font-family="Arial" font-size="22.4566" font-weight="bold" lengthAdjust="spacing" textLength="678.5488" x="116.1088" y="115.6748">Diagrama de Sequ&#234;ncia - M&#243;dulo de Controle (MC) - Principal</text><!--SRC=[bPF1Qjj048Rl-nHJv-16uE0MUl6XK6I51g9IC7c0yMeg1bOxwkxABv97oA6qa5CUGI_MMTaXTd0f4G8jk_D_yy_CwXrxwuQ6O5rTRwxweNF6E6h9Dv2aDm15iMPi0tO86hMXdyFunrj6M40zFZM3axnVYaz17C7xkhpKe-z1kToZAmgJMNkaCMRk9T64dWDKKTVZRn18usFAA1cK5ctWyTVue6Hz3zdDF7EosXYqIGBCDkIZViVxFh6LcJ6lTs3n6UhoRWLhIcGJ0dLRTDXIfo1WFpvQrWmu6U606SmxL5EgWelbz9YyFdwUeLzKxBKh77k9hCAf4nrwsIhgZEgGPGMttBxa_A_fwjXqHwUE_sNknjj07NdLvzbW8-5ih7ZMNgwWyZkTQQDn4NeCg3Ev-LgVayoUnrurBStEAByDE-hUMDOrTyTL6VD3TD9XkdybHaLhQ- -YW9KjXIHnfHSh-z7pkbmibn-AukKIAeds9230DEJgAPx4Vpp4JmQKtGTfXhJFWqxjxSY9PIsBJdIVL7TBd8Om_GznAf8Ye4StFhLQQTIS3RUSaEDqzm-b_0K0]--></g></svg>