<svg xmlns="http://www.w3.org/2000/svg" xmlns:xlink="http://www.w3.org/1999/xlink" contentStyleType="text/css" data-diagram-type="SEQUENCE" height="750.8009px" preserveAspectRatio="none" style="width:1466px;height:750px;background:#EEEBDC;" version="1.1" viewBox="0 0 1466 750" width="1466.1093px" zoomAndPan="magnify"><defs/><g><rect fill="#EEEBDC" height="750.8009" style="stroke:none;stroke-width:0.9101;" width="1466.1093" x="0" y="0"/><g><title>Linha de produ..o</title><polygon fill="#A9DCDF" points="159.5826,209.4051,159.5826,209.4689,161.4027,209.2794,163.2228,209.4638,165.043,209.5264,166.8631,209.1887,168.6832,209.4051,168.6125,209.4051,168.2951,219.0233,168.3342,228.6414,168.6212,238.2596,168.054,247.8777,169.1871,257.4958,168.6832,267.114,168.6832,266.9228,166.8631,267.054,165.043,267.245,163.2228,267.088,161.4027,267.1347,159.5826,267.114,159.5535,267.114,159.7451,257.4958,159.8002,247.8777,160.1156,238.2596,160.1933,228.6414,160.2008,219.0233,159.5826,209.4051" style="stroke:#181818;stroke-width:0.9101;"/></g><g><title>IHM</title><polygon fill="#A9DCDF" points="784.8513,295.9684,784.8513,296.0322,786.6714,295.8427,788.4915,296.027,790.3116,296.0897,792.1318,295.752,793.9519,295.9684,793.8812,295.9684,793.5637,305.1569,793.6029,314.3454,793.8899,323.5339,793.3227,332.7224,794.4557,341.9109,793.3783,351.0994,793.7719,360.2879,794.345,369.4764,793.8738,378.6649,794.014,387.8534,793.9228,397.0419,794.1144,406.2304,794.1695,415.4189,794.4849,424.6074,794.5626,433.7959,794.57,442.9844,794.1836,452.1729,794.3738,461.3614,794.591,470.5499,793.2956,479.7384,794.5694,488.9269,793.682,498.1154,794.4377,507.3039,793.5014,516.4924,793.8895,525.6809,794.6268,534.8694,793.9075,544.0579,794.0477,553.2464,794.2601,562.4349,794.3307,571.6234,793.9483,580.8119,794.2133,590.0004,793.4309,599.1889,794.2107,608.3774,794.4508,617.5659,794.3564,626.7544,794.5098,635.9429,793.5123,645.1314,793.9519,654.3199,793.9519,654.1221,792.1318,654.1314,790.3116,654.302,788.4915,654.2603,786.6714,654.5266,784.8513,654.3199,784.6923,654.3199,784.5391,645.1314,785.059,635.9429,784.2444,626.7544,784.3788,617.5659,785.4419,608.3774,785.2478,599.1889,785.5197,590.0004,784.5584,580.8119,785.1418,571.6234,785.3886,562.4349,784.4213,553.2464,784.764,544.0579,784.9659,534.8694,785.4444,525.6809,784.8475,516.4924,785.2722,507.3039,784.3473,498.1154,784.2349,488.9269,785.3096,479.7384,784.1988,470.5499,785.3145,461.3614,785.0393,452.1729,784.6074,442.9844,784.5293,433.7959,785.2688,424.6074,784.5789,415.4189,785.3899,406.2304,784.3482,397.0419,785.4132,387.8534,785.292,378.6649,785.0742,369.4764,784.8942,360.2879,785.5125,351.0994,785.4097,341.9109,785.0053,332.7224,785.0953,323.5339,784.7327,314.3454,785.5033,305.1569,784.8513,295.9684" style="stroke:#181818;stroke-width:0.9101;"/></g><g><title>Sistema</title><polygon fill="#A9DCDF" points="1075.172,415.0264,1075.172,415.0901,1076.9922,414.9007,1078.8123,415.085,1080.6324,415.1476,1082.4525,414.81,1084.2727,415.0264,1084.2019,415.0264,1083.8845,424.23,1083.9236,433.4336,1084.2106,442.6372,1083.6435,451.8408,1084.7765,461.0444,1083.6991,470.248,1084.0927,479.4516,1084.6658,488.6552,1084.1946,497.8588,1084.3348,507.0624,1084.2436,516.2659,1084.4351,525.4695,1084.4903,534.6731,1084.8057,543.8767,1084.8834,553.0803,1084.8908,562.2839,1084.5044,571.4875,1084.6945,580.6911,1084.9117,589.8947,1083.6163,599.0983,1084.8901,608.3019,1084.0028,617.5055,1084.7585,626.7091,1083.8222,635.9127,1084.2103,645.1163,1084.2727,654.3199,1084.2727,654.5449,1082.4525,654.3051,1080.6324,654.3519,1078.8123,654.4226,1076.9922,654.4462,1075.172,654.3199,1075.1685,654.3199,1075.4334,645.1163,1074.6511,635.9127,1075.4308,626.7091,1075.6709,617.5055,1075.5766,608.3019,1075.7299,599.0983,1074.7324,589.8947,1074.5785,580.6911,1074.6065,571.4875,1075.1185,562.2839,1074.9932,553.0803,1075.7922,543.8767,1075.0131,534.6731,1074.8598,525.4695,1075.3798,516.2659,1074.5652,507.0624,1074.6996,497.8588,1075.7626,488.6552,1075.5685,479.4516,1075.8405,470.248,1074.8792,461.0444,1075.4625,451.8408,1075.7094,442.6372,1074.7421,433.4336,1075.0848,424.23,1075.172,415.0264" style="stroke:#181818;stroke-width:0.9101;"/></g><g><title>Banco de Dados</title><polygon fill="#A9DCDF" points="1286.9362,295.9684,1286.9362,296.0322,1288.7564,295.8427,1290.5765,296.027,1292.3966,296.0897,1294.2167,295.752,1296.0369,295.9684,1295.9661,295.9684,1295.6487,305.1569,1295.6879,314.3454,1295.9748,323.5339,1295.4077,332.7224,1296.5407,341.9109,1295.4633,351.0994,1295.8569,360.2879,1296.43,369.4764,1295.9588,378.6649,1296.099,387.8534,1296.0078,397.0419,1296.1993,406.2304,1296.2545,415.4189,1296.5699,424.6074,1296.6476,433.7959,1296.655,442.9844,1296.2686,452.1729,1296.4587,461.3614,1296.6759,470.5499,1295.3805,479.7384,1296.6543,488.9269,1295.767,498.1154,1296.5227,507.3039,1295.5864,516.4924,1295.9745,525.6809,1296.7118,534.8694,1295.9925,544.0579,1296.1327,553.2464,1296.345,562.4349,1296.4157,571.6234,1296.0333,580.8119,1296.2982,590.0004,1295.5159,599.1889,1296.2957,608.3774,1296.5357,617.5659,1296.4414,626.7544,1296.5947,635.9429,1295.5972,645.1314,1296.0369,654.3199,1296.0369,654.1221,1294.2167,654.1314,1292.3966,654.302,1290.5765,654.2603,1288.7564,654.5266,1286.9362,654.3199,1286.7773,654.3199,1286.624,645.1314,1287.144,635.9429,1286.3294,626.7544,1286.4638,617.5659,1287.5268,608.3774,1287.3327,599.1889,1287.6047,590.0004,1286.6434,580.8119,1287.2267,571.6234,1287.4736,562.4349,1286.5063,553.2464,1286.849,544.0579,1287.0509,534.8694,1287.5294,525.6809,1286.9324,516.4924,1287.3572,507.3039,1286.4323,498.1154,1286.3199,488.9269,1287.3946,479.7384,1286.2838,470.5499,1287.3994,461.3614,1287.1243,452.1729,1286.6924,442.9844,1286.6143,433.7959,1287.3537,424.6074,1286.6638,415.4189,1287.4749,406.2304,1286.4332,397.0419,1287.4981,387.8534,1287.377,378.6649,1287.1592,369.4764,1286.9792,360.2879,1287.5975,351.0994,1287.4946,341.9109,1287.0903,332.7224,1287.1803,323.5339,1286.8177,314.3454,1287.5883,305.1569,1286.9362,295.9684" style="stroke:#181818;stroke-width:0.9101;"/></g><g><title>Operador</title><polygon fill="#000000" fill-opacity="0.00000" points="38.9683,178.7306,38.9683,178.7943,40.4244,178.6049,41.8805,178.7892,43.3366,178.8518,44.7927,178.5142,46.2488,178.7306,46.1781,178.7306,45.8606,187.8585,45.8998,196.9864,46.1868,206.1143,45.6196,215.2423,46.7526,224.3702,45.6752,233.4981,46.0688,242.626,46.6419,251.754,46.1707,260.8819,46.3109,270.0098,46.2197,279.1377,46.4113,288.2656,46.4664,297.3936,46.7818,306.5215,46.8595,315.6494,46.8669,324.7773,46.4805,333.9053,46.6707,343.0332,46.8879,352.1611,45.5925,361.289,46.8663,370.4169,45.9789,379.5449,46.7346,388.6728,45.7983,397.8007,46.1864,406.9286,46.9237,416.0566,46.2044,425.1845,46.3446,434.3124,46.557,443.4403,46.6276,452.5682,46.2452,461.6962,46.5102,470.8241,45.7278,479.952,46.5076,489.0799,46.7477,498.2079,46.6533,507.3358,46.8067,516.4637,45.8092,525.5916,45.6553,534.7196,45.6833,543.8475,46.1952,552.9754,46.0699,562.1033,46.8689,571.2312,46.0898,580.3592,45.9366,589.4871,46.4565,598.615,45.6419,607.7429,45.7763,616.8709,46.8394,625.9988,46.6453,635.1267,46.9172,644.2546,45.9559,653.3825,46.2488,662.5105,46.2488,662.6073,44.7927,662.6896,43.3366,662.3672,41.8805,662.4814,40.4244,662.5487,38.9683,662.5105,39.5614,662.5105,38.9645,653.3825,39.3893,644.2546,38.4643,635.1267,38.3519,625.9988,39.4266,616.8709,38.3158,607.7429,39.4315,598.615,39.1563,589.4871,38.7245,580.3592,38.6463,571.2312,39.3858,562.1033,38.6959,552.9754,39.5069,543.8475,38.4653,534.7196,39.5302,525.5916,39.409,516.4637,39.1912,507.3358,39.0113,498.2079,39.6296,489.0799,39.5267,479.952,39.1223,470.8241,39.2124,461.6962,38.8497,452.5682,39.6203,443.4403,39.1092,434.3124,39.1253,425.1845,38.4147,416.0566,38.5995,406.9286,39.4513,397.8007,39.3594,388.6728,38.9292,379.5449,38.6751,370.4169,38.7691,361.289,38.3438,352.1611,39.3457,343.0332,39.6413,333.9053,39.4473,324.7773,39.6007,315.6494,38.8439,306.5215,39.0477,297.3936,38.6156,288.2656,39.2268,279.1377,39.1929,270.0098,39.471,260.8819,38.7593,251.754,38.846,242.626,39.3719,233.4981,39.4846,224.3702,38.5019,215.2423,38.7918,206.1143,39.1041,196.9864,38.4124,187.8585,38.9683,178.7306"/><path d="M41.8628,178.7306 L42.1179,178.7306 L41.3601,187.8585 L42.0974,196.9864 L42.3478,206.1143 L40.9972,215.2423 L41.7685,224.3702 L41.3453,233.4981 L41.3975,242.626 L41.7801,251.754 L41.0239,260.8819 L42.5346,270.0098 L41.098,279.1377 L41.6229,288.2656 L42.387,297.3936 L41.7588,306.5215 L41.9456,315.6494 L41.8241,324.7773 L42.0795,333.9053 L42.153,343.0332 L42.5735,352.1611 L42.6771,361.289 L42.6871,370.4169 L42.1718,379.5449 L42.4254,388.6728 L42.7149,397.8007 L40.9877,406.9286 L42.6862,416.0566 L41.5031,425.1845 L42.5106,434.3124 L41.2622,443.4403 L41.7797,452.5682 L42.7627,461.6962 L41.8037,470.8241 L41.9906,479.952 L42.2737,489.0799 L42.3679,498.2079 L41.8581,507.3358 L42.2113,516.4637 L41.1683,525.5916 L42.2079,534.7196 L42.528,543.8475 L42.4022,552.9754 L42.6067,562.1033 L41.2767,571.2312 L41.0715,580.3592 L41.1088,589.4871 L41.7914,598.615 L41.6244,607.7429 L42.6897,616.8709 L41.6509,625.9988 L41.4466,635.1267 L42.1398,644.2546 L41.0537,653.3825 L41.8628,662.5105" fill="none" style="stroke:#0000FF;stroke-width:0.455;stroke-dasharray:4.5503,4.5503;"/></g><g><title>Linha de produ..o</title><polygon fill="#000000" fill-opacity="0.00000" points="160.4927,178.7306,160.4927,178.7943,161.9488,178.6049,163.4048,178.7892,164.8609,178.8518,166.317,178.5142,167.7731,178.7306,167.7024,178.7306,167.385,187.8585,167.4241,196.9864,167.7111,206.1143,167.144,215.2423,168.277,224.3702,167.1996,233.4981,167.5932,242.626,168.1662,251.754,167.6951,260.8819,167.8352,270.0098,167.7441,279.1377,167.9356,288.2656,167.9908,297.3936,168.3062,306.5215,168.3838,315.6494,168.3913,324.7773,168.0049,333.9053,168.195,343.0332,168.4122,352.1611,167.1168,361.289,168.3906,370.4169,167.5033,379.5449,168.2589,388.6728,167.3226,397.8007,167.7108,406.9286,168.4481,416.0566,167.7288,425.1845,167.869,434.3124,168.0813,443.4403,168.1519,452.5682,167.7696,461.6962,168.0345,470.8241,167.2522,479.952,168.032,489.0799,168.272,498.2079,168.1777,507.3358,168.331,516.4637,167.3335,525.5916,167.1796,534.7196,167.2076,543.8475,167.7196,552.9754,167.5943,562.1033,168.3933,571.2312,167.6142,580.3592,167.4609,589.4871,167.9809,598.615,167.1663,607.7429,167.3007,616.8709,168.3637,625.9988,168.1696,635.1267,168.4416,644.2546,167.4803,653.3825,167.7731,662.5105,167.7731,662.6073,166.317,662.6896,164.8609,662.3672,163.4048,662.4814,161.9488,662.5487,160.4927,662.5105,161.0858,662.5105,160.4888,653.3825,160.9136,644.2546,159.9887,635.1267,159.8763,625.9988,160.951,616.8709,159.8402,607.7429,160.9558,598.615,160.6807,589.4871,160.2488,580.3592,160.1707,571.2312,160.9102,562.1033,160.2202,552.9754,161.0313,543.8475,159.9896,534.7196,161.0545,525.5916,160.9334,516.4637,160.7156,507.3358,160.5356,498.2079,161.1539,489.0799,161.051,479.952,160.6467,470.8241,160.7367,461.6962,160.3741,452.5682,161.1447,443.4403,160.6336,434.3124,160.6497,425.1845,159.939,416.0566,160.1239,406.9286,160.9757,397.8007,160.8838,388.6728,160.4536,379.5449,160.1995,370.4169,160.2934,361.289,159.8682,352.1611,160.8701,343.0332,161.1657,333.9053,160.9717,324.7773,161.1251,315.6494,160.3682,306.5215,160.572,297.3936,160.1399,288.2656,160.7511,279.1377,160.7172,270.0098,160.9954,260.8819,160.2837,251.754,160.3703,242.626,160.8962,233.4981,161.009,224.3702,160.0262,215.2423,160.3162,206.1143,160.6285,196.9864,159.9367,187.8585,160.4927,178.7306"/><path d="M163.4824,178.7306 L163.7374,178.7306 L162.9796,187.8585 L163.7169,196.9864 L163.9674,206.1143 L162.6167,215.2423 L163.3881,224.3702 L162.9649,233.4981 L163.017,242.626 L163.3997,251.754 L162.6435,260.8819 L164.1542,270.0098 L162.7176,279.1377 L163.2424,288.2656 L164.0065,297.3936 L163.3783,306.5215 L163.5652,315.6494 L163.4436,324.7773 L163.699,333.9053 L163.7725,343.0332 L164.1931,352.1611 L164.2966,361.289 L164.3066,370.4169 L163.7913,379.5449 L164.0449,388.6728 L164.3345,397.8007 L162.6073,406.9286 L164.3057,416.0566 L163.1226,425.1845 L164.1301,434.3124 L162.8817,443.4403 L163.3993,452.5682 L164.3823,461.6962 L163.4232,470.8241 L163.6102,479.952 L163.8933,489.0799 L163.9874,498.2079 L163.4776,507.3358 L163.8309,516.4637 L162.7878,525.5916 L163.8275,534.7196 L164.1476,543.8475 L164.0218,552.9754 L164.2262,562.1033 L162.8962,571.2312 L162.691,580.3592 L162.7284,589.4871 L163.4109,598.615 L163.2439,607.7429 L164.3092,616.8709 L163.2704,625.9988 L163.0661,635.1267 L163.7594,644.2546 L162.6732,653.3825 L163.4824,662.5105" fill="none" style="stroke:#0000FF;stroke-width:0.455;stroke-dasharray:4.5503,4.5503;"/></g><g><title>Contagem em tempo real</title><polygon fill="#000000" fill-opacity="0.00000" points="343.5111,178.7306,343.5111,178.7943,344.9672,178.6049,346.4233,178.7892,347.8794,178.8518,349.3355,178.5142,350.7916,178.7306,350.7209,178.7306,350.4035,187.8585,350.4426,196.9864,350.7296,206.1143,350.1624,215.2423,351.2954,224.3702,350.218,233.4981,350.6116,242.626,351.1847,251.754,350.7135,260.8819,350.8537,270.0098,350.7625,279.1377,350.9541,288.2656,351.0092,297.3936,351.3246,306.5215,351.4023,315.6494,351.4098,324.7773,351.0233,333.9053,351.2135,343.0332,351.4307,352.1611,350.1353,361.289,351.4091,370.4169,350.5218,379.5449,351.2774,388.6728,350.3411,397.8007,350.7292,406.9286,351.4665,416.0566,350.7472,425.1845,350.8874,434.3124,351.0998,443.4403,351.1704,452.5682,350.788,461.6962,351.053,470.8241,350.2707,479.952,351.0504,489.0799,351.2905,498.2079,351.1961,507.3358,351.3495,516.4637,350.352,525.5916,350.1981,534.7196,350.2261,543.8475,350.738,552.9754,350.6127,562.1033,351.4117,571.2312,350.6326,580.3592,350.4794,589.4871,350.9993,598.615,350.1847,607.7429,350.3192,616.8709,351.3822,625.9988,351.1881,635.1267,351.46,644.2546,350.4987,653.3825,350.7916,662.5105,350.7916,662.6073,349.3355,662.6896,347.8794,662.3672,346.4233,662.4814,344.9672,662.5487,343.5111,662.5105,344.1042,662.5105,343.5073,653.3825,343.9321,644.2546,343.0071,635.1267,342.8947,625.9988,343.9694,616.8709,342.8586,607.7429,343.9743,598.615,343.6991,589.4871,343.2673,580.3592,343.1891,571.2312,343.9286,562.1033,343.2387,552.9754,344.0497,543.8475,343.0081,534.7196,344.073,525.5916,343.9518,516.4637,343.734,507.3358,343.5541,498.2079,344.1724,489.0799,344.0695,479.952,343.6651,470.8241,343.7552,461.6962,343.3925,452.5682,344.1631,443.4403,343.652,434.3124,343.6681,425.1845,342.9575,416.0566,343.1423,406.9286,343.9941,397.8007,343.9022,388.6728,343.472,379.5449,343.2179,370.4169,343.3119,361.289,342.8866,352.1611,343.8885,343.0332,344.1841,333.9053,343.9901,324.7773,344.1435,315.6494,343.3867,306.5215,343.5905,297.3936,343.1584,288.2656,343.7696,279.1377,343.7357,270.0098,344.0138,260.8819,343.3021,251.754,343.3888,242.626,343.9147,233.4981,344.0274,224.3702,343.0447,215.2423,343.3346,206.1143,343.6469,196.9864,342.9552,187.8585,343.5111,178.7306"/><path d="M346.7958,178.7306 L347.0508,178.7306 L346.293,187.8585 L347.0303,196.9864 L347.2807,206.1143 L345.9301,215.2423 L346.7015,224.3702 L346.2782,233.4981 L346.3304,242.626 L346.713,251.754 L345.9568,260.8819 L347.4675,270.0098 L346.031,279.1377 L346.5558,288.2656 L347.3199,297.3936 L346.6917,306.5215 L346.8786,315.6494 L346.757,324.7773 L347.0124,333.9053 L347.0859,343.0332 L347.5064,352.1611 L347.61,361.289 L347.62,370.4169 L347.1047,379.5449 L347.3583,388.6728 L347.6478,397.8007 L345.9207,406.9286 L347.6191,416.0566 L346.436,425.1845 L347.4435,434.3124 L346.1951,443.4403 L346.7126,452.5682 L347.6956,461.6962 L346.7366,470.8241 L346.9235,479.952 L347.2066,489.0799 L347.3008,498.2079 L346.791,507.3358 L347.1443,516.4637 L346.1012,525.5916 L347.1408,534.7196 L347.4609,543.8475 L347.3352,552.9754 L347.5396,562.1033 L346.2096,571.2312 L346.0044,580.3592 L346.0417,589.4871 L346.7243,598.615 L346.5573,607.7429 L347.6226,616.8709 L346.5838,625.9988 L346.3795,635.1267 L347.0727,644.2546 L345.9866,653.3825 L346.7958,662.5105" fill="none" style="stroke:#0000FF;stroke-width:0.455;stroke-dasharray:4.5503,4.5503;"/></g><g><title>Status do sistema</title><polygon fill="#000000" fill-opacity="0.00000" points="522.7855,178.7306,522.7855,178.7943,524.2416,178.6049,525.6977,178.7892,527.1538,178.8518,528.6099,178.5142,530.066,178.7306,529.9953,178.7306,529.6779,187.8585,529.717,196.9864,530.004,206.1143,529.4368,215.2423,530.5699,224.3702,529.4924,233.4981,529.886,242.626,530.4591,251.754,529.988,260.8819,530.1281,270.0098,530.0369,279.1377,530.2285,288.2656,530.2836,297.3936,530.599,306.5215,530.6767,315.6494,530.6842,324.7773,530.2977,333.9053,530.4879,343.0332,530.7051,352.1611,529.4097,361.289,530.6835,370.4169,529.7962,379.5449,530.5518,388.6728,529.6155,397.8007,530.0037,406.9286,530.7409,416.0566,530.0217,425.1845,530.1619,434.3124,530.3742,443.4403,530.4448,452.5682,530.0625,461.6962,530.3274,470.8241,529.5451,479.952,530.3248,489.0799,530.5649,498.2079,530.4706,507.3358,530.6239,516.4637,529.6264,525.5916,529.4725,534.7196,529.5005,543.8475,530.0124,552.9754,529.8872,562.1033,530.6861,571.2312,529.9071,580.3592,529.7538,589.4871,530.2738,598.615,529.4592,607.7429,529.5936,616.8709,530.6566,625.9988,530.4625,635.1267,530.7345,644.2546,529.7732,653.3825,530.066,662.5105,530.066,662.6073,528.6099,662.6896,527.1538,662.3672,525.6977,662.4814,524.2416,662.5487,522.7855,662.5105,523.3787,662.5105,522.7817,653.3825,523.2065,644.2546,522.2816,635.1267,522.1692,625.9988,523.2438,616.8709,522.1331,607.7429,523.2487,598.615,522.9736,589.4871,522.5417,580.3592,522.4636,571.2312,523.203,562.1033,522.5131,552.9754,523.3242,543.8475,522.2825,534.7196,523.3474,525.5916,523.2263,516.4637,523.0085,507.3358,522.8285,498.2079,523.4468,489.0799,523.3439,479.952,522.9396,470.8241,523.0296,461.6962,522.667,452.5682,523.4375,443.4403,522.9265,434.3124,522.9426,425.1845,522.2319,416.0566,522.4168,406.9286,523.2685,397.8007,523.1766,388.6728,522.7465,379.5449,522.4923,370.4169,522.5863,361.289,522.1611,352.1611,523.163,343.0332,523.4586,333.9053,523.2646,324.7773,523.418,315.6494,522.6611,306.5215,522.8649,297.3936,522.4328,288.2656,523.044,279.1377,523.0101,270.0098,523.2882,260.8819,522.5765,251.754,522.6632,242.626,523.1891,233.4981,523.3018,224.3702,522.3191,215.2423,522.6091,206.1143,522.9214,196.9864,522.2296,187.8585,522.7855,178.7306"/><path d="M525.879,178.7306 L526.1341,178.7306 L525.3763,187.8585 L526.1135,196.9864 L526.364,206.1143 L525.0134,215.2423 L525.7847,224.3702 L525.3615,233.4981 L525.4137,242.626 L525.7963,251.754 L525.0401,260.8819 L526.5508,270.0098 L525.1142,279.1377 L525.639,288.2656 L526.4031,297.3936 L525.7749,306.5215 L525.9618,315.6494 L525.8402,324.7773 L526.0956,333.9053 L526.1692,343.0332 L526.5897,352.1611 L526.6933,361.289 L526.7032,370.4169 L526.188,379.5449 L526.4415,388.6728 L526.7311,397.8007 L525.0039,406.9286 L526.7023,416.0566 L525.5192,425.1845 L526.5267,434.3124 L525.2783,443.4403 L525.7959,452.5682 L526.7789,461.6962 L525.8199,470.8241 L526.0068,479.952 L526.2899,489.0799 L526.3841,498.2079 L525.8743,507.3358 L526.2275,516.4637 L525.1844,525.5916 L526.2241,534.7196 L526.5442,543.8475 L526.4184,552.9754 L526.6229,562.1033 L525.2928,571.2312 L525.0876,580.3592 L525.125,589.4871 L525.8076,598.615 L525.6405,607.7429 L526.7058,616.8709 L525.6671,625.9988 L525.4627,635.1267 L526.156,644.2546 L525.0699,653.3825 L525.879,662.5105" fill="none" style="stroke:#0000FF;stroke-width:0.455;stroke-dasharray:4.5503,4.5503;"/></g><g><title>Supervisor</title><polygon fill="#000000" fill-opacity="0.00000" points="644.0856,178.7306,644.0856,178.7943,645.5416,178.6049,646.9977,178.7892,648.4538,178.8518,649.9099,178.5142,651.366,178.7306,651.2953,178.7306,650.9779,187.8585,651.017,196.9864,651.304,206.1143,650.7369,215.2423,651.8699,224.3702,650.7924,233.4981,651.1861,242.626,651.7591,251.754,651.288,260.8819,651.4281,270.0098,651.337,279.1377,651.5285,288.2656,651.5837,297.3936,651.8991,306.5215,651.9767,315.6494,651.9842,324.7773,651.5978,333.9053,651.7879,343.0332,652.0051,352.1611,650.7097,361.289,651.9835,370.4169,651.0962,379.5449,651.8518,388.6728,650.9155,397.8007,651.3037,406.9286,652.0409,416.0566,651.3217,425.1845,651.4619,434.3124,651.6742,443.4403,651.7448,452.5682,651.3625,461.6962,651.6274,470.8241,650.8451,479.952,651.6249,489.0799,651.8649,498.2079,651.7706,507.3358,651.9239,516.4637,650.9264,525.5916,650.7725,534.7196,650.8005,543.8475,651.3125,552.9754,651.1872,562.1033,651.9862,571.2312,651.2071,580.3592,651.0538,589.4871,651.5738,598.615,650.7592,607.7429,650.8936,616.8709,651.9566,625.9988,651.7625,635.1267,652.0345,644.2546,651.0732,653.3825,651.366,662.5105,651.366,662.6073,649.9099,662.6896,648.4538,662.3672,646.9977,662.4814,645.5416,662.5487,644.0856,662.5105,644.6787,662.5105,644.0817,653.3825,644.5065,644.2546,643.5816,635.1267,643.4692,625.9988,644.5439,616.8709,643.4331,607.7429,644.5487,598.615,644.2736,589.4871,643.8417,580.3592,643.7636,571.2312,644.503,562.1033,643.8131,552.9754,644.6242,543.8475,643.5825,534.7196,644.6474,525.5916,644.5263,516.4637,644.3085,507.3358,644.1285,498.2079,644.7468,489.0799,644.6439,479.952,644.2396,470.8241,644.3296,461.6962,643.967,452.5682,644.7376,443.4403,644.2265,434.3124,644.2426,425.1845,643.5319,416.0566,643.7168,406.9286,644.5686,397.8007,644.4767,388.6728,644.0465,379.5449,643.7924,370.4169,643.8863,361.289,643.4611,352.1611,644.463,343.0332,644.7586,333.9053,644.5646,324.7773,644.718,315.6494,643.9611,306.5215,644.1649,297.3936,643.7328,288.2656,644.344,279.1377,644.3101,270.0098,644.5883,260.8819,643.8765,251.754,643.9632,242.626,644.4891,233.4981,644.6019,224.3702,643.6191,215.2423,643.9091,206.1143,644.2214,196.9864,643.5296,187.8585,644.0856,178.7306"/><path d="M647.1007,178.7306 L647.3557,178.7306 L646.5979,187.8585 L647.3352,196.9864 L647.5857,206.1143 L646.235,215.2423 L647.0064,224.3702 L646.5832,233.4981 L646.6353,242.626 L647.018,251.754 L646.2618,260.8819 L647.7725,270.0098 L646.3359,279.1377 L646.8607,288.2656 L647.6248,297.3936 L646.9966,306.5215 L647.1835,315.6494 L647.0619,324.7773 L647.3173,333.9053 L647.3908,343.0332 L647.8114,352.1611 L647.9149,361.289 L647.9249,370.4169 L647.4096,379.5449 L647.6632,388.6728 L647.9528,397.8007 L646.2256,406.9286 L647.924,416.0566 L646.7409,425.1845 L647.7484,434.3124 L646.5,443.4403 L647.0176,452.5682 L648.0006,461.6962 L647.0415,470.8241 L647.2285,479.952 L647.5116,489.0799 L647.6057,498.2079 L647.0959,507.3358 L647.4492,516.4637 L646.4061,525.5916 L647.4458,534.7196 L647.7659,543.8475 L647.6401,552.9754 L647.8445,562.1033 L646.5145,571.2312 L646.3093,580.3592 L646.3467,589.4871 L647.0292,598.615 L646.8622,607.7429 L647.9275,616.8709 L646.8887,625.9988 L646.6844,635.1267 L647.3777,644.2546 L646.2915,653.3825 L647.1007,662.5105" fill="none" style="stroke:#0000FF;stroke-width:0.455;stroke-dasharray:4.5503,4.5503;"/></g><g><title>IHM</title><polygon fill="#000000" fill-opacity="0.00000" points="785.7613,178.7306,785.7613,178.7943,787.2174,178.6049,788.6735,178.7892,790.1296,178.8518,791.5857,178.5142,793.0418,178.7306,792.9711,178.7306,792.6537,187.8585,792.6928,196.9864,792.9798,206.1143,792.4126,215.2423,793.5457,224.3702,792.4682,233.4981,792.8618,242.626,793.4349,251.754,792.9638,260.8819,793.1039,270.0098,793.0127,279.1377,793.2043,288.2656,793.2594,297.3936,793.5748,306.5215,793.6525,315.6494,793.66,324.7773,793.2735,333.9053,793.4637,343.0332,793.6809,352.1611,792.3855,361.289,793.6593,370.4169,792.772,379.5449,793.5276,388.6728,792.5913,397.8007,792.9795,406.9286,793.7167,416.0566,792.9975,425.1845,793.1377,434.3124,793.35,443.4403,793.4206,452.5682,793.0383,461.6962,793.3032,470.8241,792.5209,479.952,793.3006,489.0799,793.5407,498.2079,793.4464,507.3358,793.5997,516.4637,792.6022,525.5916,792.4483,534.7196,792.4763,543.8475,792.9882,552.9754,792.863,562.1033,793.6619,571.2312,792.8829,580.3592,792.7296,589.4871,793.2496,598.615,792.435,607.7429,792.5694,616.8709,793.6324,625.9988,793.4383,635.1267,793.7103,644.2546,792.749,653.3825,793.0418,662.5105,793.0418,662.6073,791.5857,662.6896,790.1296,662.3672,788.6735,662.4814,787.2174,662.5487,785.7613,662.5105,786.3545,662.5105,785.7575,653.3825,786.1823,644.2546,785.2573,635.1267,785.145,625.9988,786.2196,616.8709,785.1089,607.7429,786.2245,598.615,785.9494,589.4871,785.5175,580.3592,785.4394,571.2312,786.1788,562.1033,785.4889,552.9754,786.3,543.8475,785.2583,534.7196,786.3232,525.5916,786.2021,516.4637,785.9843,507.3358,785.8043,498.2079,786.4226,489.0799,786.3197,479.952,785.9154,470.8241,786.0054,461.6962,785.6428,452.5682,786.4133,443.4403,785.9023,434.3124,785.9184,425.1845,785.2077,416.0566,785.3926,406.9286,786.2443,397.8007,786.1524,388.6728,785.7223,379.5449,785.4681,370.4169,785.5621,361.289,785.1369,352.1611,786.1388,343.0332,786.4344,333.9053,786.2404,324.7773,786.3938,315.6494,785.6369,306.5215,785.8407,297.3936,785.4086,288.2656,786.0198,279.1377,785.9859,270.0098,786.264,260.8819,785.5523,251.754,785.639,242.626,786.1649,233.4981,786.2776,224.3702,785.2949,215.2423,785.5849,206.1143,785.8972,196.9864,785.2054,187.8585,785.7613,178.7306"/><path d="M788.9465,178.7306 L789.2016,178.7306 L788.4438,187.8585 L789.1811,196.9864 L789.4315,206.1143 L788.0809,215.2423 L788.8522,224.3702 L788.429,233.4981 L788.4812,242.626 L788.8638,251.754 L788.1076,260.8819 L789.6183,270.0098 L788.1818,279.1377 L788.7066,288.2656 L789.4707,297.3936 L788.8425,306.5215 L789.0293,315.6494 L788.9078,324.7773 L789.1632,333.9053 L789.2367,343.0332 L789.6572,352.1611 L789.7608,361.289 L789.7708,370.4169 L789.2555,379.5449 L789.5091,388.6728 L789.7986,397.8007 L788.0714,406.9286 L789.7699,416.0566 L788.5868,425.1845 L789.5943,434.3124 L788.3459,443.4403 L788.8634,452.5682 L789.8464,461.6962 L788.8874,470.8241 L789.0743,479.952 L789.3574,489.0799 L789.4516,498.2079 L788.9418,507.3358 L789.2951,516.4637 L788.252,525.5916 L789.2916,534.7196 L789.6117,543.8475 L789.4859,552.9754 L789.6904,562.1033 L788.3604,571.2312 L788.1552,580.3592 L788.1925,589.4871 L788.8751,598.615 L788.7081,607.7429 L789.7734,616.8709 L788.7346,625.9988 L788.5303,635.1267 L789.2235,644.2546 L788.1374,653.3825 L788.9465,662.5105" fill="none" style="stroke:#0000FF;stroke-width:0.455;stroke-dasharray:4.5503,4.5503;"/></g><g><title>Sistema</title><polygon fill="#000000" fill-opacity="0.00000" points="1076.0821,178.7306,1076.0821,178.7943,1077.5382,178.6049,1078.9943,178.7892,1080.4504,178.8518,1081.9065,178.5142,1083.3626,178.7306,1083.2919,178.7306,1082.9745,187.8585,1083.0136,196.9864,1083.3006,206.1143,1082.7334,215.2423,1083.8664,224.3702,1082.789,233.4981,1083.1826,242.626,1083.7557,251.754,1083.2845,260.8819,1083.4247,270.0098,1083.3335,279.1377,1083.5251,288.2656,1083.5802,297.3936,1083.8956,306.5215,1083.9733,315.6494,1083.9808,324.7773,1083.5943,333.9053,1083.7845,343.0332,1084.0017,352.1611,1082.7063,361.289,1083.9801,370.4169,1083.0928,379.5449,1083.8484,388.6728,1082.9121,397.8007,1083.3003,406.9286,1084.0375,416.0566,1083.3182,425.1845,1083.4584,434.3124,1083.6708,443.4403,1083.7414,452.5682,1083.359,461.6962,1083.624,470.8241,1082.8417,479.952,1083.6214,489.0799,1083.8615,498.2079,1083.7671,507.3358,1083.9205,516.4637,1082.923,525.5916,1082.7691,534.7196,1082.7971,543.8475,1083.309,552.9754,1083.1837,562.1033,1083.9827,571.2312,1083.2036,580.3592,1083.0504,589.4871,1083.5703,598.615,1082.7557,607.7429,1082.8902,616.8709,1083.9532,625.9988,1083.7591,635.1267,1084.031,644.2546,1083.0697,653.3825,1083.3626,662.5105,1083.3626,662.6073,1081.9065,662.6896,1080.4504,662.3672,1078.9943,662.4814,1077.5382,662.5487,1076.0821,662.5105,1076.6752,662.5105,1076.0783,653.3825,1076.5031,644.2546,1075.5781,635.1267,1075.4658,625.9988,1076.5404,616.8709,1075.4296,607.7429,1076.5453,598.615,1076.2701,589.4871,1075.8383,580.3592,1075.7601,571.2312,1076.4996,562.1033,1075.8097,552.9754,1076.6207,543.8475,1075.5791,534.7196,1076.644,525.5916,1076.5228,516.4637,1076.305,507.3358,1076.1251,498.2079,1076.7434,489.0799,1076.6405,479.952,1076.2361,470.8241,1076.3262,461.6962,1075.9636,452.5682,1076.7341,443.4403,1076.223,434.3124,1076.2392,425.1845,1075.5285,416.0566,1075.7133,406.9286,1076.5651,397.8007,1076.4732,388.6728,1076.043,379.5449,1075.7889,370.4169,1075.8829,361.289,1075.4576,352.1611,1076.4595,343.0332,1076.7551,333.9053,1076.5612,324.7773,1076.7145,315.6494,1075.9577,306.5215,1076.1615,297.3936,1075.7294,288.2656,1076.3406,279.1377,1076.3067,270.0098,1076.5848,260.8819,1075.8731,251.754,1075.9598,242.626,1076.4857,233.4981,1076.5984,224.3702,1075.6157,215.2423,1075.9057,206.1143,1076.2179,196.9864,1075.5262,187.8585,1076.0821,178.7306"/><path d="M1078.8588,178.7306 L1079.1138,178.7306 L1078.356,187.8585 L1079.0933,196.9864 L1079.3438,206.1143 L1077.9931,215.2423 L1078.7645,224.3702 L1078.3413,233.4981 L1078.3934,242.626 L1078.7761,251.754 L1078.0199,260.8819 L1079.5306,270.0098 L1078.094,279.1377 L1078.6188,288.2656 L1079.3829,297.3936 L1078.7547,306.5215 L1078.9416,315.6494 L1078.82,324.7773 L1079.0754,333.9053 L1079.149,343.0332 L1079.5695,352.1611 L1079.6731,361.289 L1079.683,370.4169 L1079.1678,379.5449 L1079.4213,388.6728 L1079.7109,397.8007 L1077.9837,406.9286 L1079.6821,416.0566 L1078.499,425.1845 L1079.5065,434.3124 L1078.2581,443.4403 L1078.7757,452.5682 L1079.7587,461.6962 L1078.7996,470.8241 L1078.9866,479.952 L1079.2697,489.0799 L1079.3638,498.2079 L1078.854,507.3358 L1079.2073,516.4637 L1078.1642,525.5916 L1079.2039,534.7196 L1079.524,543.8475 L1079.3982,552.9754 L1079.6026,562.1033 L1078.2726,571.2312 L1078.0674,580.3592 L1078.1048,589.4871 L1078.7873,598.615 L1078.6203,607.7429 L1079.6856,616.8709 L1078.6468,625.9988 L1078.4425,635.1267 L1079.1358,644.2546 L1078.0496,653.3825 L1078.8588,662.5105" fill="none" style="stroke:#0000FF;stroke-width:0.455;stroke-dasharray:4.5503,4.5503;"/></g><g><title>Banco de Dados</title><polygon fill="#000000" fill-opacity="0.00000" points="1287.8463,178.7306,1287.8463,178.7943,1289.3024,178.6049,1290.7585,178.7892,1292.2146,178.8518,1293.6707,178.5142,1295.1268,178.7306,1295.0561,178.7306,1294.7387,187.8585,1294.7778,196.9864,1295.0648,206.1143,1294.4976,215.2423,1295.6306,224.3702,1294.5532,233.4981,1294.9468,242.626,1295.5199,251.754,1295.0487,260.8819,1295.1889,270.0098,1295.0977,279.1377,1295.2893,288.2656,1295.3444,297.3936,1295.6598,306.5215,1295.7375,315.6494,1295.745,324.7773,1295.3585,333.9053,1295.5487,343.0332,1295.7659,352.1611,1294.4705,361.289,1295.7443,370.4169,1294.857,379.5449,1295.6126,388.6728,1294.6763,397.8007,1295.0645,406.9286,1295.8017,416.0566,1295.0824,425.1845,1295.2226,434.3124,1295.435,443.4403,1295.5056,452.5682,1295.1232,461.6962,1295.3882,470.8241,1294.6059,479.952,1295.3856,489.0799,1295.6257,498.2079,1295.5313,507.3358,1295.6847,516.4637,1294.6872,525.5916,1294.5333,534.7196,1294.5613,543.8475,1295.0732,552.9754,1294.9479,562.1033,1295.7469,571.2312,1294.9678,580.3592,1294.8146,589.4871,1295.3345,598.615,1294.5199,607.7429,1294.6544,616.8709,1295.7174,625.9988,1295.5233,635.1267,1295.7952,644.2546,1294.8339,653.3825,1295.1268,662.5105,1295.1268,662.6073,1293.6707,662.6896,1292.2146,662.3672,1290.7585,662.4814,1289.3024,662.5487,1287.8463,662.5105,1288.4394,662.5105,1287.8425,653.3825,1288.2673,644.2546,1287.3423,635.1267,1287.23,625.9988,1288.3046,616.8709,1287.1938,607.7429,1288.3095,598.615,1288.0343,589.4871,1287.6025,580.3592,1287.5243,571.2312,1288.2638,562.1033,1287.5739,552.9754,1288.3849,543.8475,1287.3433,534.7196,1288.4082,525.5916,1288.287,516.4637,1288.0692,507.3358,1287.8893,498.2079,1288.5076,489.0799,1288.4047,479.952,1288.0003,470.8241,1288.0904,461.6962,1287.7278,452.5682,1288.4983,443.4403,1287.9872,434.3124,1288.0034,425.1845,1287.2927,416.0566,1287.4775,406.9286,1288.3293,397.8007,1288.2374,388.6728,1287.8072,379.5449,1287.5531,370.4169,1287.6471,361.289,1287.2218,352.1611,1288.2237,343.0332,1288.5194,333.9053,1288.3254,324.7773,1288.4787,315.6494,1287.7219,306.5215,1287.9257,297.3936,1287.4936,288.2656,1288.1048,279.1377,1288.0709,270.0098,1288.349,260.8819,1287.6373,251.754,1287.724,242.626,1288.2499,233.4981,1288.3626,224.3702,1287.3799,215.2423,1287.6699,206.1143,1287.9821,196.9864,1287.2904,187.8585,1287.8463,178.7306"/><path d="M1291.2856,178.7306 L1291.5407,178.7306 L1290.7829,187.8585 L1291.5201,196.9864 L1291.7706,206.1143 L1290.42,215.2423 L1291.1913,224.3702 L1290.7681,233.4981 L1290.8203,242.626 L1291.2029,251.754 L1290.4467,260.8819 L1291.9574,270.0098 L1290.5208,279.1377 L1291.0456,288.2656 L1291.8097,297.3936 L1291.1815,306.5215 L1291.3684,315.6494 L1291.2468,324.7773 L1291.5022,333.9053 L1291.5758,343.0332 L1291.9963,352.1611 L1292.0999,361.289 L1292.1098,370.4169 L1291.5946,379.5449 L1291.8481,388.6728 L1292.1377,397.8007 L1290.4105,406.9286 L1292.1089,416.0566 L1290.9258,425.1845 L1291.9333,434.3124 L1290.6849,443.4403 L1291.2025,452.5682 L1292.1855,461.6962 L1291.2265,470.8241 L1291.4134,479.952 L1291.6965,489.0799 L1291.7907,498.2079 L1291.2809,507.3358 L1291.6341,516.4637 L1290.591,525.5916 L1291.6307,534.7196 L1291.9508,543.8475 L1291.825,552.9754 L1292.0295,562.1033 L1290.6994,571.2312 L1290.4942,580.3592 L1290.5316,589.4871 L1291.2142,598.615 L1291.0471,607.7429 L1292.1124,616.8709 L1291.0737,625.9988 L1290.8693,635.1267 L1291.5626,644.2546 L1290.4765,653.3825 L1291.2856,662.5105" fill="none" style="stroke:#0000FF;stroke-width:0.455;stroke-dasharray:4.5503,4.5503;"/></g><g><title>M.dulo Edge</title><polygon fill="#000000" fill-opacity="0.00000" points="1402.5811,178.7306,1402.5811,178.7943,1404.0372,178.6049,1405.4933,178.7892,1406.9494,178.8518,1408.4055,178.5142,1409.8616,178.7306,1409.7909,178.7306,1409.4735,187.8585,1409.5126,196.9864,1409.7996,206.1143,1409.2324,215.2423,1410.3654,224.3702,1409.288,233.4981,1409.6816,242.626,1410.2547,251.754,1409.7835,260.8819,1409.9237,270.0098,1409.8325,279.1377,1410.0241,288.2656,1410.0792,297.3936,1410.3946,306.5215,1410.4723,315.6494,1410.4798,324.7773,1410.0933,333.9053,1410.2835,343.0332,1410.5007,352.1611,1409.2053,361.289,1410.4791,370.4169,1409.5918,379.5449,1410.3474,388.6728,1409.4111,397.8007,1409.7993,406.9286,1410.5365,416.0566,1409.8172,425.1845,1409.9574,434.3124,1410.1698,443.4403,1410.2404,452.5682,1409.858,461.6962,1410.123,470.8241,1409.3407,479.952,1410.1204,489.0799,1410.3605,498.2079,1410.2662,507.3358,1410.4195,516.4637,1409.422,525.5916,1409.2681,534.7196,1409.2961,543.8475,1409.808,552.9754,1409.6827,562.1033,1410.4817,571.2312,1409.7026,580.3592,1409.5494,589.4871,1410.0693,598.615,1409.2547,607.7429,1409.3892,616.8709,1410.4522,625.9988,1410.2581,635.1267,1410.53,644.2546,1409.5687,653.3825,1409.8616,662.5105,1409.8616,662.6073,1408.4055,662.6896,1406.9494,662.3672,1405.4933,662.4814,1404.0372,662.5487,1402.5811,662.5105,1403.1742,662.5105,1402.5773,653.3825,1403.0021,644.2546,1402.0771,635.1267,1401.9648,625.9988,1403.0394,616.8709,1401.9286,607.7429,1403.0443,598.615,1402.7692,589.4871,1402.3373,580.3592,1402.2592,571.2312,1402.9986,562.1033,1402.3087,552.9754,1403.1197,543.8475,1402.0781,534.7196,1403.143,525.5916,1403.0219,516.4637,1402.804,507.3358,1402.6241,498.2079,1403.2424,489.0799,1403.1395,479.952,1402.7351,470.8241,1402.8252,461.6962,1402.4626,452.5682,1403.2331,443.4403,1402.722,434.3124,1402.7382,425.1845,1402.0275,416.0566,1402.2123,406.9286,1403.0641,397.8007,1402.9722,388.6728,1402.542,379.5449,1402.2879,370.4169,1402.3819,361.289,1401.9566,352.1611,1402.9585,343.0332,1403.2542,333.9053,1403.0602,324.7773,1403.2135,315.6494,1402.4567,306.5215,1402.6605,297.3936,1402.2284,288.2656,1402.8396,279.1377,1402.8057,270.0098,1403.0838,260.8819,1402.3721,251.754,1402.4588,242.626,1402.9847,233.4981,1403.0974,224.3702,1402.1147,215.2423,1402.4047,206.1143,1402.7169,196.9864,1402.0252,187.8585,1402.5811,178.7306"/><path d="M1405.4452,178.7306 L1405.7002,178.7306 L1404.9424,187.8585 L1405.6797,196.9864 L1405.9302,206.1143 L1404.5795,215.2423 L1405.3509,224.3702 L1404.9277,233.4981 L1404.9798,242.626 L1405.3625,251.754 L1404.6063,260.8819 L1406.117,270.0098 L1404.6804,279.1377 L1405.2052,288.2656 L1405.9693,297.3936 L1405.3411,306.5215 L1405.528,315.6494 L1405.4064,324.7773 L1405.6618,333.9053 L1405.7354,343.0332 L1406.1559,352.1611 L1406.2595,361.289 L1406.2694,370.4169 L1405.7542,379.5449 L1406.0077,388.6728 L1406.2973,397.8007 L1404.5701,406.9286 L1406.2685,416.0566 L1405.0854,425.1845 L1406.0929,434.3124 L1404.8445,443.4403 L1405.3621,452.5682 L1406.3451,461.6962 L1405.3861,470.8241 L1405.573,479.952 L1405.8561,489.0799 L1405.9503,498.2079 L1405.4405,507.3358 L1405.7937,516.4637 L1404.7506,525.5916 L1405.7903,534.7196 L1406.1104,543.8475 L1405.9846,552.9754 L1406.189,562.1033 L1404.859,571.2312 L1404.6538,580.3592 L1404.6912,589.4871 L1405.3737,598.615 L1405.2067,607.7429 L1406.272,616.8709 L1405.2332,625.9988 L1405.0289,635.1267 L1405.7222,644.2546 L1404.636,653.3825 L1405.4452,662.5105" fill="none" style="stroke:#0000FF;stroke-width:0.455;stroke-dasharray:4.5503,4.5503;"/></g><g class="participant participant-head" data-participant="Operador"><text fill="#1E90FF" font-family="Aapex" font-size="15.471" lengthAdjust="spacing" textLength="70.6561" x="4.5503" y="174.1976">Operador</text><polygon fill="#00BFFF" points="49.9293,112.5618,48.8621,114.02,47.5998,116.1557,45.7945,117.5951,43.8974,118.3822,42.3848,118.4505,40.4407,117.4661,38.6064,116.823,37.214,115.5174,36.4837,114.0226,36.0506,112.8324,35.6263,111.2778,34.9375,109.94,35.4668,108.6339,35.9305,107.2031,37.6706,106.0715,38.8948,104.6032,40.4101,104.1156,42.2115,103.6957,44.5216,103.9452,45.7869,104.5419,47.2579,104.8124,49.0466,106.645,49.6701,108.5796,49.941,109.8996,49.6342,112.0748" style="stroke:#00BFFF;stroke-width:0.455;"/><path d="M42.6085,118.0714 L42.7786,118.0714 L42.2734,122.9857 L42.7649,127.9 L42.9319,132.8144 L42.0314,137.7287 L42.6085,142.643 M30.7777,125.3519 L30.7777,125.289 L35.5101,125.0069 L40.2424,125.0416 L44.9747,125.2967 L49.707,124.7926 L54.4393,125.3519 M42.6085,142.643 L42.947,142.9364 L39.8571,145.0393 L37.7553,147.9986 L35.7741,151.0624 L33.0915,153.5183 L30.7777,156.294 M42.6085,142.643 L42.6503,142.6792 L44.9552,145.3563 L47.45,148.198 L49.8532,150.9603 L52.4312,153.8741 L54.4393,156.294" fill="none" style="stroke:#00BFFF;stroke-width:0.455;"/></g><g class="participant participant-head" data-participant="A"><polygon fill="#1E90FF" points="92.0425,144.0081,92.0425,144.1994,101.0538,143.6311,110.0651,144.184,119.0764,144.3719,128.0877,143.3589,137.099,143.9374,146.1103,143.62,155.1216,143.6591,164.1329,143.9461,173.1442,143.3789,182.1555,144.512,191.1668,143.4345,200.1781,143.8282,209.1894,144.4012,218.2007,143.9301,227.212,144.0702,236.2233,144.0081,236.2196,143.9992,236.5657,144.1914,236.8945,144.3417,237.2565,144.5721,237.5882,144.7293,237.832,144.6745,238.0224,144.7534,238.0367,145.0258,238.2285,145.3718,238.4287,145.7213,238.163,145.8778,238.4984,146.2833,238.7042,146.2833,238.4085,152.1357,238.6603,157.9881,238.3482,163.8405,238.4776,169.6929,238.4984,175.5454,238.7063,175.6314,238.3515,175.8615,238.2614,176.2011,238.1935,176.5499,238.082,176.8807,237.832,177.1541,237.8316,177.153,237.5436,177.3679,237.1221,177.2603,236.8998,177.6337,236.6087,177.8409,236.2233,177.8205,236.2233,178.2251,227.212,178.3784,218.2007,177.3809,209.1894,177.227,200.1781,177.255,191.1668,177.7669,182.1555,177.6417,173.1442,178.4406,164.1329,177.6615,155.1216,177.5083,146.1103,178.0282,137.099,177.2136,128.0877,177.3481,119.0764,178.4111,110.0651,178.217,101.0538,178.4889,92.0425,177.8205,92.0052,177.7303,91.7578,177.7767,91.4676,177.7194,91.0224,177.2883,90.7444,177.2605,90.4338,177.1541,90.4691,177.1688,90.4831,176.908,90.166,176.5101,90.1636,176.2426,89.7455,175.8028,89.7674,175.5454,89.5619,175.5454,89.9202,169.6929,89.5499,163.8405,89.9218,157.9881,89.8301,152.1357,89.7674,146.2833,89.6923,146.2522,89.8015,145.9205,90.1625,145.693,90.0833,145.2833,90.4664,145.065,90.4338,144.6745,90.3696,144.5196,90.8272,144.7143,91.1335,144.5437,91.4275,144.3433,91.7263,144.1546,92.0425,144.0081" style="stroke:#00BFFF;stroke-width:0.455;"/><text fill="#A9DCDF" font-family="Impact" font-size="15.471" lengthAdjust="spacing" textLength="135.9902" x="96.1378" y="166.9171">Linha de produ&#231;&#227;o</text></g><g class="participant participant-head" data-participant="B"><polygon fill="#1E90FF" points="249.8742,144.0081,249.8742,144.1994,259.1387,143.6311,268.4032,144.184,277.6677,144.3719,286.9322,143.3589,296.1966,143.9374,305.4611,143.62,314.7256,143.6591,323.9901,143.9461,333.2546,143.3789,342.5191,144.512,351.7836,143.4345,361.0481,143.8282,370.3126,144.4012,379.5771,143.9301,388.8416,144.0702,398.106,143.9791,407.3705,144.1706,416.635,144.2258,425.8995,144.5411,435.164,144.6188,444.4285,144.0081,444.5073,144.1985,444.7798,144.2128,445.1258,144.4046,445.4753,144.6048,445.6318,144.3391,446.0373,144.6745,446.2274,144.7533,446.0874,144.9618,446.4534,145.38,446.2984,145.5823,446.5512,145.9536,446.7036,146.2833,446.9286,146.2833,446.6889,152.1357,446.7356,157.9881,446.8064,163.8405,446.8299,169.6929,446.7036,175.5454,446.7026,175.5449,446.6509,175.9005,446.2767,176.1224,446.3835,176.5436,446.3242,176.896,446.0373,177.1541,446.0889,177.2787,445.7867,177.4592,445.3377,177.2853,444.9963,177.3712,444.6781,177.5131,444.4285,177.8205,444.4285,177.7669,435.164,177.6417,425.8995,178.4406,416.635,177.6615,407.3705,177.5083,398.106,178.0282,388.8416,177.2136,379.5771,177.3481,370.3126,178.4111,361.0481,178.217,351.7836,178.4889,342.5191,177.5277,333.2546,178.111,323.9901,178.3578,314.7256,177.3906,305.4611,177.7333,296.1966,177.9352,286.9322,178.4137,277.6677,177.8167,268.4032,178.2415,259.1387,177.3165,249.8742,177.8205,249.7956,177.6307,249.6109,177.8284,249.1474,177.353,248.968,177.5633,248.6112,177.3453,248.2654,177.1541,248.1903,177.123,248.033,176.7913,248.1274,176.5639,247.7817,176.1541,247.8982,175.9358,247.599,175.5454,247.4314,175.5454,247.7863,169.6929,247.7459,163.8405,247.6733,157.9881,247.6134,152.1357,247.599,146.2833,247.8027,146.3676,247.9043,146.0328,247.913,145.6594,248.074,145.3492,248.0956,144.9811,248.2654,144.6745,248.3486,144.8753,248.6051,144.5846,248.929,144.4563,249.1601,144.1042,249.5054,144.0278,249.8742,144.0081" style="stroke:#00BFFF;stroke-width:0.455;"/><text fill="#A9DCDF" font-family="Impact" font-size="15.471" lengthAdjust="spacing" textLength="186.3638" x="253.9695" y="166.9171">Contagem em tempo real</text></g><g class="participant participant-head" data-participant="C"><polygon fill="#1E90FF" points="458.0794,144.0081,458.0794,144.1994,467.1923,143.6311,476.3051,144.184,485.418,144.3719,494.5308,143.3589,503.6437,143.9374,512.7565,143.62,521.8694,143.6591,530.9822,143.9461,540.095,143.3789,549.2079,144.512,558.3207,143.4345,567.4336,143.8282,576.5464,144.4012,585.6593,143.9301,594.7721,144.0081,594.7801,144.0273,595.0902,144.1325,595.4364,144.3247,595.7652,144.475,596.1271,144.7054,596.3809,144.6745,596.569,144.7524,596.7046,145.0751,596.7188,145.3476,596.9107,145.6936,597.1108,146.0431,597.0473,146.2833,596.8285,146.2833,597.2531,152.1357,596.9573,157.9881,597.2092,163.8405,596.8971,169.6929,597.0473,175.5454,597.0281,175.5374,597.1219,175.9532,596.7671,176.1832,596.677,176.5228,596.6091,176.8717,596.3809,177.1541,596.4292,177.2708,596.0587,177.2863,595.7707,177.5012,595.3492,177.3935,595.1269,177.7669,594.7721,177.8205,594.7721,178.3194,585.6593,178.2251,576.5464,178.3784,567.4336,177.3809,558.3207,177.227,549.2079,177.255,540.095,177.7669,530.9822,177.6417,521.8694,178.4406,512.7565,177.6615,503.6437,177.5083,494.5308,178.0282,485.418,177.2136,476.3051,177.3481,467.1923,178.4111,458.0794,177.8205,458.13,177.9426,457.8429,177.8931,457.3986,177.4638,457.1512,177.5101,456.8609,177.4529,456.4706,177.1541,456.3382,177.0993,456.3105,176.8213,456.2394,176.5252,456.2535,176.2645,455.9364,175.8666,455.8043,175.5454,455.9446,175.5454,455.6363,169.6929,455.5988,163.8405,455.957,157.9881,455.5868,152.1357,455.8043,146.2833,455.9469,146.3424,455.9955,145.9855,455.9957,145.6087,456.1049,145.2769,456.4659,145.0495,456.4706,144.6745,456.4359,144.5906,456.8611,144.7071,457.05,144.253,457.5076,144.4477,457.8139,144.2771,458.0794,144.0081" style="stroke:#00BFFF;stroke-width:0.455;"/><text fill="#A9DCDF" font-family="Impact" font-size="15.471" lengthAdjust="spacing" textLength="128.5022" x="462.1747" y="166.9171">Status do sistema</text></g><g class="participant participant-head" data-participant="Supervisor"><text fill="#1E90FF" font-family="Aapex" font-size="15.471" lengthAdjust="spacing" textLength="77.6954" x="606.1479" y="174.1976">Supervisor</text><polygon fill="#00BFFF" points="655.0465,112.5618,653.9793,114.02,652.717,116.1557,650.9118,117.5951,649.0147,118.3822,647.5021,118.4505,645.558,117.4661,643.7236,116.823,642.3313,115.5174,641.601,114.0226,641.1678,112.8324,640.7435,111.2778,640.0548,109.94,640.584,108.6339,641.0477,107.2031,642.7878,106.0715,644.0121,104.6032,645.5273,104.1156,647.3288,103.6957,649.6388,103.9452,650.9041,104.5419,652.3752,104.8124,654.1639,106.645,654.7874,108.5796,655.0583,109.8996,654.7514,112.0748" style="stroke:#00BFFF;stroke-width:0.455;"/><path d="M647.7258,118.0714 L647.8958,118.0714 L647.3906,122.9857 L647.8822,127.9 L648.0491,132.8144 L647.1487,137.7287 L647.7258,142.643 M635.895,125.3519 L635.895,125.289 L640.6273,125.0069 L645.3596,125.0416 L650.092,125.2967 L654.8243,124.7926 L659.5566,125.3519 M647.7258,142.643 L648.0642,142.9364 L644.9743,145.0393 L642.8726,147.9986 L640.8914,151.0624 L638.2087,153.5183 L635.895,156.294 M647.7258,142.643 L647.7675,142.6792 L650.0724,145.3563 L652.5673,148.198 L654.9705,150.9603 L657.5485,153.8741 L659.5566,156.294" fill="none" style="stroke:#00BFFF;stroke-width:0.455;"/></g><g class="participant participant-head" data-participant="IHM"><text fill="#000000" font-family="sans-serif" font-size="12.7409" lengthAdjust="spacing" textLength="25.316" x="774.0134" y="174.9975">IHM</text><path d="M770.7453,135.8959 L770.9153,135.8959 L770.4101,140.2642 L770.9017,144.6325 L771.0686,149.0008 L770.1682,153.3691 L770.7453,157.7373 M770.7453,146.8166 L770.7453,146.7537 L773.8395,146.4716 L776.9337,146.5064 L780.0279,146.7615 L783.1221,146.2573 L786.2164,146.8166" fill="none" style="stroke:#181818;stroke-width:0.455;"/><polygon fill="#E2E2F0" points="808.1182,149.473,806.5174,151.6602,804.624,154.8639,801.916,157.0229,799.0705,158.2036,796.8015,158.306,793.8854,156.8295,791.1338,155.8649,789.0454,153.9063,787.9498,151.6642,787.3002,149.8789,786.6637,147.547,785.6306,145.5403,786.4245,143.5811,787.12,141.4349,789.7302,139.7375,791.5665,137.5351,793.8394,136.8037,796.5415,136.1739,800.0067,136.5481,801.9046,137.4432,804.1112,137.8489,806.7942,140.5977,807.7295,143.4996,808.1358,145.4797,807.6756,148.7425" style="stroke:#181818;stroke-width:0.455;"/></g><g class="participant participant-head" data-participant="Sistema"><text fill="#000000" font-family="sans-serif" font-size="12.7409" lengthAdjust="spacing" textLength="47.2302" x="1053.3771" y="174.9975">Sistema</text><polygon fill="#E2E2F0" points="1090.7034,149.473,1089.1026,151.6602,1087.2092,154.8639,1084.5013,157.0229,1081.6557,158.2036,1079.3868,158.306,1076.4706,156.8295,1073.7191,155.8649,1071.6306,153.9063,1070.5351,151.6642,1069.8854,149.8789,1069.2489,147.547,1068.2158,145.5403,1069.0097,143.5811,1069.7052,141.4349,1072.3154,139.7375,1074.1517,137.5351,1076.4247,136.8037,1079.1268,136.1739,1082.5919,136.5481,1084.4898,137.4432,1086.6964,137.8489,1089.3794,140.5977,1090.3147,143.4996,1090.7211,145.4797,1090.2608,148.7425" style="stroke:#181818;stroke-width:0.455;"/><polygon fill="#181818" points="1076.0821,135.8959,1076.1229,135.9448,1077.0937,134.8893,1078.3038,134.1208,1079.4359,133.2588,1080.3119,132.0894,1081.5425,131.3456,1081.5206,131.3368,1081.0583,132.2076,1080.7064,133.1225,1080.4312,134.0681,1079.8916,134.9079,1079.7223,135.8959,1079.8783,135.9582,1079.9088,136.7349,1080.3947,137.6937,1080.9361,138.6747,1081.1543,139.5265,1081.5425,140.4462,1081.5557,140.4621,1080.4442,139.5287,1079.393,138.6677,1078.3127,137.7717,1077.2879,136.9424,1076.0821,135.8959" style="stroke:#181818;stroke-width:0.9101;"/></g><g class="participant participant-head" data-participant="DB"><text fill="#000000" font-family="sans-serif" font-size="12.7409" lengthAdjust="spacing" textLength="96.8684" x="1240.3222" y="174.9975">Banco de Dados</text><path d="M1275.1054,128.6154 L1275.1054,128.6154 L1275.1647,128.6763 L1276.6267,126.9026 L1278.4362,125.4862 L1280.1325,123.9535 L1281.4567,122.0381 L1283.296,120.6523 L1283.2917,120.6212 L1284.9104,120.254 L1286.5509,120.0437 L1288.2065,119.9425 L1289.81,119.4653 L1291.4865,119.5148 L1291.4865,119.5148 L1291.5174,119.7366 L1293.0896,119.4898 L1294.7518,119.8906 L1296.4249,120.3704 L1298.0342,120.3905 L1299.6771,120.6523 L1299.6963,120.6721 L1301.3062,122.2357 L1303.0037,123.8893 L1304.6589,125.4995 L1306.3947,127.1926 L1307.8677,128.6154 L1308.4105,128.6154 L1308.4171,133.3477 L1308.0736,138.08 L1308.2427,142.8123 L1308.4357,147.5447 L1307.8677,152.277 L1307.8677,152.277 L1307.6643,152.0678 L1306.4209,154.0664 L1304.5078,155.3762 L1303.1038,157.2096 L1301.1756,158.5039 L1299.6771,160.24 L1299.6733,160.2126 L1298.0803,160.7646 L1296.3982,160.6755 L1294.7686,160.9647 L1293.1435,161.2857 L1291.4865,161.3776 L1291.4865,161.3776 L1291.5097,161.5443 L1289.8482,161.1485 L1288.2263,161.0376 L1286.5404,160.4657 L1284.9499,160.5815 L1283.296,160.24 L1283.4506,160.399 L1281.7832,158.7763 L1280.1926,157.2326 L1278.2455,155.3221 L1276.5597,153.6804 L1275.1054,152.277 L1274.6028,152.277 L1275.0578,147.5447 L1274.9465,142.8123 L1275.6567,138.08 L1274.9641,133.3477 L1275.1054,128.6154" fill="#E2E2F0" style="stroke:#181818;stroke-width:0.455;"/><path d="M1275.1054,128.6154 L1275.1054,128.6154 L1275.1647,128.6763 L1276.6267,130.0878 L1278.4362,131.8566 L1280.1325,133.5091 L1281.4567,134.7789 L1283.296,136.5784 L1283.2917,136.5473 L1284.9104,136.6351 L1286.5509,136.8798 L1288.2065,137.2337 L1289.81,137.2115 L1291.4865,137.716 L1291.4865,137.716 L1291.5174,137.9378 L1293.0896,137.236 L1294.7518,137.1817 L1296.4249,137.2065 L1298.0342,136.7716 L1299.6771,136.5784 L1299.6963,136.5982 L1301.3062,134.9765 L1303.0037,133.445 L1304.6589,131.8699 L1306.3947,130.3778 L1307.8677,128.6154" fill="none" style="stroke:#181818;stroke-width:0.455;"/></g><g class="participant participant-head" data-participant="M.dulo Edge"><polygon fill="#1E90FF" points="1354.0267,144.0081,1354.0267,144.1994,1363.5166,143.6311,1373.0066,144.184,1382.4965,144.3719,1391.9865,143.3589,1401.4764,143.9374,1410.9663,143.62,1420.4563,143.6591,1429.9462,143.9461,1439.4361,143.3789,1448.9261,144.512,1458.416,144.0081,1458.3428,143.8315,1458.7148,144.086,1459.1097,144.3957,1459.3713,144.3839,1459.7109,144.5604,1460.0248,144.6745,1460.0158,144.6708,1460.2081,145.017,1460.3583,145.3458,1460.5887,145.7078,1460.7459,146.0394,1460.6912,146.2833,1460.8972,146.2833,1460.7684,152.1357,1460.8318,157.9881,1460.9042,163.8405,1460.4724,169.6929,1460.6912,175.5454,1460.8813,175.6241,1460.4748,175.8327,1460.5742,176.2508,1460.1526,176.4532,1460.1389,176.8244,1460.0248,177.1541,1460.1109,177.362,1459.6974,177.2738,1459.3935,177.4502,1459.0988,177.6489,1458.7861,177.8039,1458.416,177.8205,1458.416,177.817,1448.9261,178.0819,1439.4361,177.2996,1429.9462,178.0793,1420.4563,178.3194,1410.9663,178.2251,1401.4764,178.3784,1391.9865,177.3809,1382.4965,177.227,1373.0066,177.255,1363.5166,177.7669,1354.0267,177.8205,1354.0039,177.7654,1353.7841,177.8782,1353.3629,177.505,1353.0216,177.3245,1352.7662,177.3514,1352.4179,177.1541,1352.231,177.0767,1352.1392,176.7721,1352.3333,176.586,1352.1402,176.2394,1352.0907,175.9524,1351.7516,175.5454,1351.6539,175.5454,1351.8484,169.6929,1351.9307,163.8405,1351.6082,157.9881,1351.7225,152.1357,1351.7516,146.2833,1351.7869,146.2979,1352.0675,146.0372,1352.0169,145.6393,1352.281,145.3717,1352.1295,144.932,1352.4179,144.6745,1352.3393,144.4847,1352.7982,144.6824,1352.9782,144.207,1353.4423,144.4173,1353.7289,144.1993,1354.0267,144.0081" style="stroke:#00BFFF;stroke-width:0.455;"/><text fill="#A9DCDF" font-family="Impact" font-size="15.471" lengthAdjust="spacing" textLength="96.1987" x="1358.122" y="166.9171">M&#243;dulo Edge</text></g><g><title>Linha de produ..o</title><polygon fill="#A9DCDF" points="159.5826,209.4051,159.5826,209.4689,161.4027,209.2794,163.2228,209.4638,165.043,209.5264,166.8631,209.1887,168.6832,209.4051,168.6125,209.4051,168.2951,219.0233,168.3342,228.6414,168.6212,238.2596,168.054,247.8777,169.1871,257.4958,168.6832,267.114,168.6832,266.9228,166.8631,267.054,165.043,267.245,163.2228,267.088,161.4027,267.1347,159.5826,267.114,159.5535,267.114,159.7451,257.4958,159.8002,247.8777,160.1156,238.2596,160.1933,228.6414,160.2008,219.0233,159.5826,209.4051" style="stroke:#181818;stroke-width:0.9101;"/></g><g><title>IHM</title><polygon fill="#A9DCDF" points="784.8513,295.9684,784.8513,296.0322,786.6714,295.8427,788.4915,296.027,790.3116,296.0897,792.1318,295.752,793.9519,295.9684,793.8812,295.9684,793.5637,305.1569,793.6029,314.3454,793.8899,323.5339,793.3227,332.7224,794.4557,341.9109,793.3783,351.0994,793.7719,360.2879,794.345,369.4764,793.8738,378.6649,794.014,387.8534,793.9228,397.0419,794.1144,406.2304,794.1695,415.4189,794.4849,424.6074,794.5626,433.7959,794.57,442.9844,794.1836,452.1729,794.3738,461.3614,794.591,470.5499,793.2956,479.7384,794.5694,488.9269,793.682,498.1154,794.4377,507.3039,793.5014,516.4924,793.8895,525.6809,794.6268,534.8694,793.9075,544.0579,794.0477,553.2464,794.2601,562.4349,794.3307,571.6234,793.9483,580.8119,794.2133,590.0004,793.4309,599.1889,794.2107,608.3774,794.4508,617.5659,794.3564,626.7544,794.5098,635.9429,793.5123,645.1314,793.9519,654.3199,793.9519,654.1221,792.1318,654.1314,790.3116,654.302,788.4915,654.2603,786.6714,654.5266,784.8513,654.3199,784.6923,654.3199,784.5391,645.1314,785.059,635.9429,784.2444,626.7544,784.3788,617.5659,785.4419,608.3774,785.2478,599.1889,785.5197,590.0004,784.5584,580.8119,785.1418,571.6234,785.3886,562.4349,784.4213,553.2464,784.764,544.0579,784.9659,534.8694,785.4444,525.6809,784.8475,516.4924,785.2722,507.3039,784.3473,498.1154,784.2349,488.9269,785.3096,479.7384,784.1988,470.5499,785.3145,461.3614,785.0393,452.1729,784.6074,442.9844,784.5293,433.7959,785.2688,424.6074,784.5789,415.4189,785.3899,406.2304,784.3482,397.0419,785.4132,387.8534,785.292,378.6649,785.0742,369.4764,784.8942,360.2879,785.5125,351.0994,785.4097,341.9109,785.0053,332.7224,785.0953,323.5339,784.7327,314.3454,785.5033,305.1569,784.8513,295.9684" style="stroke:#181818;stroke-width:0.9101;"/></g><g><title>Sistema</title><polygon fill="#A9DCDF" points="1075.172,415.0264,1075.172,415.0901,1076.9922,414.9007,1078.8123,415.085,1080.6324,415.1476,1082.4525,414.81,1084.2727,415.0264,1084.2019,415.0264,1083.8845,424.23,1083.9236,433.4336,1084.2106,442.6372,1083.6435,451.8408,1084.7765,461.0444,1083.6991,470.248,1084.0927,479.4516,1084.6658,488.6552,1084.1946,497.8588,1084.3348,507.0624,1084.2436,516.2659,1084.4351,525.4695,1084.4903,534.6731,1084.8057,543.8767,1084.8834,553.0803,1084.8908,562.2839,1084.5044,571.4875,1084.6945,580.6911,1084.9117,589.8947,1083.6163,599.0983,1084.8901,608.3019,1084.0028,617.5055,1084.7585,626.7091,1083.8222,635.9127,1084.2103,645.1163,1084.2727,654.3199,1084.2727,654.5449,1082.4525,654.3051,1080.6324,654.3519,1078.8123,654.4226,1076.9922,654.4462,1075.172,654.3199,1075.1685,654.3199,1075.4334,645.1163,1074.6511,635.9127,1075.4308,626.7091,1075.6709,617.5055,1075.5766,608.3019,1075.7299,599.0983,1074.7324,589.8947,1074.5785,580.6911,1074.6065,571.4875,1075.1185,562.2839,1074.9932,553.0803,1075.7922,543.8767,1075.0131,534.6731,1074.8598,525.4695,1075.3798,516.2659,1074.5652,507.0624,1074.6996,497.8588,1075.7626,488.6552,1075.5685,479.4516,1075.8405,470.248,1074.8792,461.0444,1075.4625,451.8408,1075.7094,442.6372,1074.7421,433.4336,1075.0848,424.23,1075.172,415.0264" style="stroke:#181818;stroke-width:0.9101;"/></g><g><title>Banco de Dados</title><polygon fill="#A9DCDF" points="1286.9362,295.9684,1286.9362,296.0322,1288.7564,295.8427,1290.5765,296.027,1292.3966,296.0897,1294.2167,295.752,1296.0369,295.9684,1295.9661,295.9684,1295.6487,305.1569,1295.6879,314.3454,1295.9748,323.5339,1295.4077,332.7224,1296.5407,341.9109,1295.4633,351.0994,1295.8569,360.2879,1296.43,369.4764,1295.9588,378.6649,1296.099,387.8534,1296.0078,397.0419,1296.1993,406.2304,1296.2545,415.4189,1296.5699,424.6074,1296.6476,433.7959,1296.655,442.9844,1296.2686,452.1729,1296.4587,461.3614,1296.6759,470.5499,1295.3805,479.7384,1296.6543,488.9269,1295.767,498.1154,1296.5227,507.3039,1295.5864,516.4924,1295.9745,525.6809,1296.7118,534.8694,1295.9925,544.0579,1296.1327,553.2464,1296.345,562.4349,1296.4157,571.6234,1296.0333,580.8119,1296.2982,590.0004,1295.5159,599.1889,1296.2957,608.3774,1296.5357,617.5659,1296.4414,626.7544,1296.5947,635.9429,1295.5972,645.1314,1296.0369,654.3199,1296.0369,654.1221,1294.2167,654.1314,1292.3966,654.302,1290.5765,654.2603,1288.7564,654.5266,1286.9362,654.3199,1286.7773,654.3199,1286.624,645.1314,1287.144,635.9429,1286.3294,626.7544,1286.4638,617.5659,1287.5268,608.3774,1287.3327,599.1889,1287.6047,590.0004,1286.6434,580.8119,1287.2267,571.6234,1287.4736,562.4349,1286.5063,553.2464,1286.849,544.0579,1287.0509,534.8694,1287.5294,525.6809,1286.9324,516.4924,1287.3572,507.3039,1286.4323,498.1154,1286.3199,488.9269,1287.3946,479.7384,1286.2838,470.5499,1287.3994,461.3614,1287.1243,452.1729,1286.6924,442.9844,1286.6143,433.7959,1287.3537,424.6074,1286.6638,415.4189,1287.4749,406.2304,1286.4332,397.0419,1287.4981,387.8534,1287.377,378.6649,1287.1592,369.4764,1286.9792,360.2879,1287.5975,351.0994,1287.4946,341.9109,1287.0903,332.7224,1287.1803,323.5339,1286.8177,314.3454,1287.5883,305.1569,1286.9362,295.9684" style="stroke:#181818;stroke-width:0.9101;"/></g><g class="message" data-participant-1="Operador" data-participant-2="A"><polygon fill="#00BFFF" points="148.6619,205.7649,148.6855,205.8241,150.4353,206.3762,152.3239,207.2754,154.1673,208.0616,155.862,208.4761,157.7625,209.4051,157.7537,209.3832,155.8943,210.0131,154.079,210.7532,152.2944,211.5701,150.4041,212.1226,148.6619,213.0454,148.7806,213.1641,149.2547,212.1821,150.0755,211.5469,150.9387,210.9539,151.5556,210.1148,152.3021,209.4051,152.3167,209.4198,151.5672,208.6702,150.8843,207.9873,150.1692,207.2723,149.5155,206.6186,148.6619,205.7649" style="stroke:#00BFFF;stroke-width:0.9101;"/><path d="M42.6085,209.4051 L42.6085,209.6602 L51.9013,208.9024 L61.1942,209.6397 L70.487,209.8901 L79.7798,208.5395 L89.0726,209.3108 L98.3654,208.8876 L107.6582,208.9398 L116.951,209.3224 L126.2438,208.5662 L135.5366,210.0769 L144.8294,208.6403 L154.1222,209.4051" fill="none" style="stroke:#00BFFF;stroke-width:0.9101;"/><text fill="#000000" font-family="sans-serif" font-size="11.8308" lengthAdjust="spacing" textLength="69.2339" x="48.979" y="204.1186">Iniciar/Parar</text></g><g class="message" data-participant-1="A" data-participant-2="B"><polygon fill="#00BFFF" points="336.2306,234.6193,336.2543,234.6785,338.004,235.2307,339.8926,236.1298,341.736,236.916,343.4307,237.3306,345.3312,238.2596,345.3225,238.2377,343.463,238.8675,341.6478,239.6076,339.8632,240.4245,337.9728,240.977,336.2306,241.8998,336.3494,242.0186,336.8235,241.0366,337.6443,240.4013,338.5074,239.8083,339.1244,238.9692,339.8708,238.2596,339.8855,238.2742,339.1359,237.5247,338.453,236.8418,337.738,236.1267,337.0843,235.473,336.2306,234.6193" style="stroke:#00BFFF;stroke-width:0.9101;"/><path d="M168.6832,238.2596 L168.6832,238.5146 L177.7889,237.7568 L186.8946,238.4941 L196.0002,238.7445 L205.1059,237.3939 L214.2116,238.1653 L223.3172,237.742 L232.4229,237.7942 L241.5286,238.1769 L250.6343,237.4206 L259.7399,238.9314 L268.8456,237.4948 L277.9513,238.0196 L287.0569,238.7837 L296.1626,238.1555 L305.2683,238.3424 L314.374,238.2208 L323.4796,238.4762 L332.5853,238.5497 L341.691,238.2596" fill="none" style="stroke:#00BFFF;stroke-width:0.9101;"/><text fill="#000000" font-family="sans-serif" font-size="11.8308" lengthAdjust="spacing" textLength="93.6172" x="175.0536" y="232.973">Enviar contagem</text></g><g class="message" data-participant-1="B" data-participant-2="C"><polygon fill="#00BFFF" points="515.505,263.4737,515.5287,263.5329,517.2785,264.0851,519.1671,264.9843,521.0104,265.7705,522.7052,266.185,524.6057,267.114,524.5969,267.0921,522.7375,267.7219,520.9222,268.4621,519.1376,269.2789,517.2473,269.8315,515.505,270.7542,515.6238,270.873,516.0979,269.891,516.9187,269.2557,517.7818,268.6627,518.3988,267.8236,519.1453,267.114,519.1599,267.1286,518.4104,266.3791,517.7275,265.6962,517.0124,264.9811,516.3587,264.3274,515.505,263.4737" style="stroke:#00BFFF;stroke-width:0.9101;"/><path d="M347.1513,267.114 L347.1513,267.369 L356.2994,266.6112 L365.4476,267.3485 L374.5957,267.599 L383.7438,266.2483 L392.8919,267.0197 L402.04,266.5965 L411.1881,266.6486 L420.3362,267.0313 L429.4843,266.2751 L438.6324,267.7858 L447.7805,266.3492 L456.9286,266.874 L466.0768,267.6381 L475.2249,267.0099 L484.373,267.1968 L493.5211,267.0752 L502.6692,267.3306 L511.8173,267.4042 L520.9654,267.114" fill="none" style="stroke:#00BFFF;stroke-width:0.9101;"/><text fill="#000000" font-family="sans-serif" font-size="11.8308" lengthAdjust="spacing" textLength="85.868" x="353.5218" y="261.8274">Atualizar status</text></g><g class="message" data-participant-1="Supervisor" data-participant-2="IHM"><polygon fill="#00BFFF" points="773.9305,292.3282,773.9542,292.3874,775.704,292.9395,777.5926,293.8387,779.4359,294.6249,781.1306,295.0394,783.0311,295.9684,783.0224,295.9465,781.163,296.5763,779.3477,297.3165,777.5631,298.1334,775.6728,298.6859,773.9305,299.6087,774.0493,299.7274,774.5234,298.7454,775.3442,298.1101,776.2073,297.5172,776.8243,296.6781,777.5708,295.9684,777.5854,295.9831,776.8359,295.2335,776.153,294.5506,775.4379,293.8356,774.7842,293.1818,773.9305,292.3282" style="stroke:#00BFFF;stroke-width:0.9101;"/><path d="M647.7258,295.9684 L647.7258,296.2235 L657.1304,295.4657 L666.5351,296.203 L675.9397,296.4534 L685.3444,295.1028 L694.749,295.8741 L704.1537,295.4509 L713.5583,295.5031 L722.963,295.8857 L732.3676,295.1295 L741.7723,296.6402 L751.1769,295.2036 L760.5816,295.7284 L769.9862,296.4925 L779.3909,295.9684" fill="none" style="stroke:#00BFFF;stroke-width:0.9101;"/><text fill="#000000" font-family="sans-serif" font-size="11.8308" lengthAdjust="spacing" textLength="119.8343" x="654.0962" y="290.6819">Define in&#237;cio de turno</text></g><g class="message" data-participant-1="IHM" data-participant-2="DB"><polygon fill="#00BFFF" points="1276.0155,321.1826,1276.0392,321.2418,1277.7889,321.794,1279.6775,322.6931,1281.5209,323.4793,1283.2156,323.8939,1285.1161,324.8228,1285.1074,324.801,1283.2479,325.4308,1281.4327,326.1709,1279.6481,326.9878,1277.7577,327.5403,1276.0155,328.4631,1276.1343,328.5818,1276.6084,327.5998,1277.4292,326.9646,1278.2923,326.3716,1278.9093,325.5325,1279.6557,324.8228,1279.6704,324.8375,1278.9208,324.0879,1278.2379,323.405,1277.5229,322.69,1276.8692,322.0363,1276.0155,321.1826" style="stroke:#00BFFF;stroke-width:0.9101;"/><path d="M793.9519,324.8228 L793.9519,325.0779 L802.9801,324.3201 L812.0083,325.0574 L821.0365,325.3078 L830.0648,323.9572 L839.093,324.7285 L848.1212,324.3053 L857.1494,324.3575 L866.1777,324.7401 L875.2059,323.9839 L884.2341,325.4946 L893.2623,324.0581 L902.2905,324.5829 L911.3188,325.347 L920.347,324.7188 L929.3752,324.9056 L938.4034,324.7841 L947.4317,325.0395 L956.4599,325.113 L965.4881,325.5335 L974.5163,325.6371 L983.5445,325.6471 L992.5728,325.1318 L1001.601,325.3854 L1010.6292,325.6749 L1019.6574,323.9477 L1028.6857,325.6462 L1037.7139,324.4631 L1046.7421,325.4706 L1055.7703,324.2222 L1064.7985,324.7397 L1073.8268,325.7227 L1082.855,324.7637 L1091.8832,324.9506 L1100.9114,325.2337 L1109.9397,325.3279 L1118.9679,324.8181 L1127.9961,325.1714 L1137.0243,324.1283 L1146.0525,325.1679 L1155.0808,325.488 L1164.109,325.3622 L1173.1372,325.5667 L1182.1654,324.2367 L1191.1937,324.0315 L1200.2219,324.0688 L1209.2501,324.7514 L1218.2783,324.5844 L1227.3065,325.6497 L1236.3348,324.6109 L1245.363,324.4066 L1254.3912,325.0998 L1263.4194,324.0137 L1272.4476,324.1929 L1281.4759,324.8228" fill="none" style="stroke:#00BFFF;stroke-width:0.9101;"/><text fill="#000000" font-family="sans-serif" font-size="11.8308" lengthAdjust="spacing" textLength="129.2398" x="800.3223" y="319.5363">Registra in&#237;cio de turno</text></g><polygon fill="#FEFFDD" points="728.0493,336.6536,728.0493,336.8449,737.4299,336.2766,746.8106,336.8295,756.1912,337.0174,765.5719,336.0044,774.9525,336.5829,784.3331,336.2655,793.7138,336.3046,803.0944,336.5916,812.475,336.0245,821.8557,337.1575,831.2363,336.0801,840.6169,336.4737,849.9976,336.6536,850.0982,336.7375,851.7977,338.8211,853.6537,341.0352,855.4505,343.1999,857.3197,345.4249,859.0982,347.5744,859.1557,347.6186,857.4189,350.0489,855.6193,352.4308,853.8011,354.7985,851.8789,357.0861,849.9976,359.4052,849.9976,359.8271,840.6169,360.0443,831.2363,358.7489,821.8557,360.0227,812.475,359.1353,803.0944,359.891,793.7138,358.9547,784.3331,359.3428,774.9525,360.0801,765.5719,359.3608,756.1912,359.501,746.8106,359.7134,737.4299,359.784,728.0493,359.4052,728.0484,359.4045,726.2982,357.0921,724.2714,354.567,722.6573,352.3593,720.9006,350.0419,718.9487,347.5744,719.0523,347.6607,720.9117,345.5093,722.4764,343.1123,724.2571,340.8953,726.0844,338.7171,728.0493,336.6536" style="stroke:#181818;stroke-width:0.455;"/><text fill="#000000" font-family="sans-serif" font-size="11.8308" lengthAdjust="spacing" textLength="118.734" x="729.8694" y="352.941">Tempo total do turno</text><g class="message" data-participant-1="Supervisor" data-participant-2="IHM"><polygon fill="#00BFFF" points="773.9305,382.5317,773.9542,382.5909,775.704,383.1431,777.5926,384.0422,779.4359,384.8284,781.1306,385.243,783.0311,386.1719,783.0224,386.1501,781.163,386.7799,779.3477,387.52,777.5631,388.3369,775.6728,388.8894,773.9305,389.8122,774.0493,389.931,774.5234,388.9489,775.3442,388.3137,776.2073,387.7207,776.8243,386.8816,777.5708,386.1719,777.5854,386.1866,776.8359,385.437,776.153,384.7541,775.4379,384.0391,774.7842,383.3854,773.9305,382.5317" style="stroke:#00BFFF;stroke-width:0.9101;"/><path d="M647.7258,386.1719 L647.7258,386.427 L657.1304,385.6692 L666.5351,386.4065 L675.9397,386.6569 L685.3444,385.3063 L694.749,386.0777 L704.1537,385.6544 L713.5583,385.7066 L722.963,386.0892 L732.3676,385.333 L741.7723,386.8437 L751.1769,385.4072 L760.5816,385.932 L769.9862,386.6961 L779.3909,386.1719" fill="none" style="stroke:#00BFFF;stroke-width:0.9101;"/><text fill="#000000" font-family="sans-serif" font-size="11.8308" lengthAdjust="spacing" textLength="108.7133" x="654.0962" y="380.8854">Define fim de turno</text></g><g class="message" data-participant-1="IHM" data-participant-2="Sistema"><polygon fill="#00BFFF" points="1064.2513,411.3861,1064.275,411.4453,1066.0247,411.9975,1067.9133,412.8967,1069.7567,413.6829,1071.4514,414.0974,1073.3519,415.0264,1073.3432,415.0045,1071.4837,415.6343,1069.6685,416.3745,1067.8839,417.1913,1065.9935,417.7438,1064.2513,418.6666,1064.3701,418.7854,1064.8442,417.8034,1065.665,417.1681,1066.5281,416.5751,1067.1451,415.736,1067.8915,415.0264,1067.9062,415.041,1067.1566,414.2915,1066.4737,413.6086,1065.7587,412.8935,1065.105,412.2398,1064.2513,411.3861" style="stroke:#00BFFF;stroke-width:0.9101;"/><path d="M793.9519,415.0264 L793.9519,415.2814 L803.1439,414.5236 L812.3359,415.2609 L821.5279,415.5114 L830.7199,414.1607 L839.9118,414.9321 L849.1038,414.5089 L858.2958,414.561 L867.4878,414.9437 L876.6798,414.1875 L885.8718,415.6982 L895.0638,414.2616 L904.2558,414.7864 L913.4478,415.5505 L922.6398,414.9223 L931.8318,415.1092 L941.0238,414.9876 L950.2158,415.243 L959.4078,415.3165 L968.5997,415.7371 L977.7917,415.8406 L986.9837,415.8506 L996.1757,415.3353 L1005.3677,415.5889 L1014.5597,415.8785 L1023.7517,414.1513 L1032.9437,415.8497 L1042.1357,414.6666 L1051.3277,415.6741 L1060.5197,414.4257 L1069.7117,415.0264" fill="none" style="stroke:#00BFFF;stroke-width:0.9101;"/><text fill="#000000" font-family="sans-serif" font-size="11.8308" lengthAdjust="spacing" textLength="215.2498" x="800.3223" y="409.7398">Solicita relat&#243;rio de produ&#231;&#227;o do turno</text></g><g class="message" data-participant-1="Sistema" data-participant-2="DB"><polygon fill="#00BFFF" points="1276.0155,440.2406,1276.0392,440.2998,1277.7889,440.8519,1279.6775,441.7511,1281.5209,442.5373,1283.2156,442.9518,1285.1161,443.8808,1285.1074,443.8589,1283.2479,444.4887,1281.4327,445.2289,1279.6481,446.0458,1277.7577,446.5983,1276.0155,447.5211,1276.1343,447.6398,1276.6084,446.6578,1277.4292,446.0225,1278.2923,445.4296,1278.9093,444.5905,1279.6557,443.8808,1279.6704,443.8954,1278.9208,443.1459,1278.2379,442.463,1277.5229,441.748,1276.8692,441.0942,1276.0155,440.2406" style="stroke:#00BFFF;stroke-width:0.9101;"/><path d="M1084.2727,443.8808 L1084.2727,444.1358 L1093.2364,443.3781 L1102.2002,444.1153 L1111.164,444.3658 L1120.1278,443.0152 L1129.0916,443.7865 L1138.0554,443.3633 L1147.0191,443.4155 L1155.9829,443.7981 L1164.9467,443.0419 L1173.9105,444.5526 L1182.8743,443.116 L1191.838,443.6408 L1200.8018,444.4049 L1209.7656,443.7767 L1218.7294,443.9636 L1227.6932,443.842 L1236.657,444.0974 L1245.6207,444.171 L1254.5845,444.5915 L1263.5483,444.6951 L1272.5121,444.705 L1281.4759,443.8808" fill="none" style="stroke:#00BFFF;stroke-width:0.9101;"/><text fill="#000000" font-family="sans-serif" font-size="11.8308" lengthAdjust="spacing" textLength="137.4977" x="1090.6431" y="438.5943">Consulta dados do turno</text></g><g class="message" data-participant-1="DB" data-participant-2="Sistema"><polygon fill="#00BFFF" points="1094.2833,469.095,1094.307,469.1542,1092.4165,469.7063,1090.6649,470.6055,1088.868,471.3917,1086.9225,471.8063,1085.1827,472.7352,1085.174,472.7133,1086.9548,473.3432,1088.7798,474.0833,1090.6354,474.9002,1092.3853,475.4527,1094.2833,476.3755,1094.4021,476.4942,1093.4201,475.5122,1092.7848,474.877,1092.1918,474.284,1091.3527,473.4449,1090.6431,472.7352,1090.6577,472.7499,1091.3643,472.0003,1092.1375,471.3174,1092.8785,470.6024,1093.6809,469.9487,1094.2833,469.095" style="stroke:#00BFFF;stroke-width:0.9101;"/><path d="M1088.823,472.7352 L1088.823,472.9903 L1097.7867,472.2325 L1106.7505,472.9698 L1115.7143,473.2202 L1124.6781,471.8696 L1133.6419,472.6409 L1142.6057,472.2177 L1151.5694,472.2699 L1160.5332,472.6525 L1169.497,471.8963 L1178.4608,473.407 L1187.4246,471.9704 L1196.3884,472.4953 L1205.3521,473.2594 L1214.3159,472.6312 L1223.2797,472.818 L1232.2435,472.6965 L1241.2073,472.9519 L1250.171,473.0254 L1259.1348,473.4459 L1268.0986,473.5495 L1277.0624,473.5595 L1286.0262,472.7352" fill="none" style="stroke:#00BFFF;stroke-width:0.9101;stroke-dasharray:1.8201,1.8201;"/><text fill="#000000" font-family="sans-serif" font-size="11.8308" lengthAdjust="spacing" textLength="132.9074" x="1099.7437" y="467.4487">Retorna dados do turno</text></g><path d="M958.2949,484.566 L958.4649,484.566 L957.9597,489.4804 L958.4513,494.3947 L958.6182,499.309 L957.7178,504.2234 L958.2949,509.1377 L958.2949,508.9491 L967.2607,508.1027 L976.2265,508.207 L985.1923,508.9723 L994.1581,507.4599 L1003.1239,510.4813 L1012.0897,507.6081 L1021.0555,508.6578 L1030.0212,510.186 L1038.987,508.9295 L1047.9528,509.3033 L1056.9186,509.0602 L1065.8844,509.571 L1074.8502,509.718 L1083.816,510.5591 L1092.7818,510.7662 L1101.7476,510.7861 L1110.7134,509.7556 L1119.6792,510.2627 L1128.645,510.8419 L1137.6108,507.3875 L1146.5765,510.7843 L1155.5423,508.4181 L1164.5081,510.4332 L1173.4739,507.9364 L1182.4397,508.9715 L1191.4055,510.9375 L1200.3713,509.1377 L1200.3319,509.1377 L1200.4565,506.0435 L1200.6452,502.9493 L1200.708,499.8551 L1200.3681,496.7609 L1200.3713,493.6667 L1200.5356,493.8309 L1198.2237,491.5191 L1196.8937,490.1891 L1195.2245,488.5199 L1193.3451,486.6404 L1191.2707,484.566 L1191.2707,486.0537 L1182.3101,483.3937 L1173.3495,482.9833 L1164.3889,483.058 L1155.4283,484.4231 L1146.4677,484.0891 L1137.507,486.2197 L1128.5464,484.1421 L1119.5858,483.7335 L1110.6252,485.12 L1101.6646,482.9477 L1092.704,483.3062 L1083.7434,486.1409 L1074.7828,485.6233 L1065.8222,486.3485 L1056.8616,483.7851 L1047.901,485.3407 L1038.9404,485.9989 L1029.9798,483.4196 L1021.0192,484.3334 L1012.0585,484.8718 L1003.0979,486.1477 L994.1373,484.5559 L985.1767,485.6886 L976.2161,483.2221 L967.2555,482.9224 L958.2949,484.566" fill="#FEFFDD" style="stroke:#181818;stroke-width:0.455;"/><path d="M1191.2707,484.566 L1191.6781,484.566 L1190.6907,486.3862 L1191.6824,488.2063 L1191.4378,490.0264 L1191.054,491.8465 L1191.2707,493.6667 L1191.2707,493.3805 L1193.0908,494.0378 L1194.9109,493.4245 L1196.7311,494.1454 L1198.5512,493.2195 L1200.3713,493.6667 L1200.7245,494.0198 L1198.8282,492.1236 L1196.8712,490.1665 L1194.9379,488.2333 L1193.5064,486.8018 L1191.2707,484.566" fill="#FEFFDD" style="stroke:#181818;stroke-width:0.455;"/><text fill="#000000" font-family="sans-serif" font-size="11.8308" lengthAdjust="spacing" textLength="223.555" x="963.7553" y="501.7635">Processa dados para gerar relat&#243;rio CSV</text><g class="message" data-participant-1="Sistema" data-participant-2="Sistema"><path d="M1084.2727,535.9045 L1084.2727,535.9895 L1091.9172,535.7369 L1099.5617,535.9826 L1107.2062,536.0661 L1114.8507,535.6159 L1122.4952,535.9045" fill="none" style="stroke:#00BFFF;stroke-width:0.9101;"/><path d="M1122.4952,535.9045 L1122.5803,535.9045 L1122.3277,538.2706 L1122.5734,540.6368 L1122.6569,543.0029 L1122.2067,545.3691 L1122.4952,547.7353" fill="none" style="stroke:#00BFFF;stroke-width:0.9101;"/><path d="M1085.1827,547.7353 L1085.1827,547.8203 L1092.6452,547.5677 L1100.1077,547.8134 L1107.5702,547.8969 L1115.0327,547.4467 L1122.4952,547.7353" fill="none" style="stroke:#00BFFF;stroke-width:0.9101;"/><polygon fill="#00BFFF" points="1094.2833,544.095,1094.307,544.1542,1092.4165,544.7064,1090.6649,545.6056,1088.868,546.3917,1086.9225,546.8063,1085.1827,547.7353,1085.174,547.7134,1086.9548,548.3432,1088.7798,549.0834,1090.6354,549.9002,1092.3853,550.4527,1094.2833,551.3755,1094.4021,551.4943,1093.4201,550.5123,1092.7848,549.877,1092.1918,549.284,1091.3527,548.4449,1090.6431,547.7353,1090.6577,547.7499,1091.3643,547.0004,1092.1375,546.3175,1092.8785,545.6024,1093.6809,544.9487,1094.2833,544.095" style="stroke:#00BFFF;stroke-width:0.9101;"/><text fill="#000000" font-family="sans-serif" font-size="11.8308" lengthAdjust="spacing" textLength="180.8221" x="1090.6431" y="530.6179">Converte dados em formato CSV</text></g><g class="message" data-participant-1="Sistema" data-participant-2="Sistema"><path d="M1084.2727,576.5897 L1084.2727,576.6747 L1091.9172,576.4221 L1099.5617,576.6679 L1107.2062,576.7514 L1114.8507,576.3011 L1122.4952,576.5897" fill="none" style="stroke:#00BFFF;stroke-width:0.9101;"/><path d="M1122.4952,576.5897 L1122.5803,576.5897 L1122.3277,578.9559 L1122.5734,581.322 L1122.6569,583.6882 L1122.2067,586.0543 L1122.4952,588.4205" fill="none" style="stroke:#00BFFF;stroke-width:0.9101;"/><path d="M1085.1827,588.4205 L1085.1827,588.5055 L1092.6452,588.2529 L1100.1077,588.4987 L1107.5702,588.5822 L1115.0327,588.1319 L1122.4952,588.4205" fill="none" style="stroke:#00BFFF;stroke-width:0.9101;"/><polygon fill="#00BFFF" points="1094.2833,584.7803,1094.307,584.8395,1092.4165,585.3916,1090.6649,586.2908,1088.868,587.077,1086.9225,587.4915,1085.1827,588.4205,1085.174,588.3986,1086.9548,589.0284,1088.7798,589.7686,1090.6354,590.5854,1092.3853,591.138,1094.2833,592.0607,1094.4021,592.1795,1093.4201,591.1975,1092.7848,590.5622,1092.1918,589.9693,1091.3527,589.1301,1090.6431,588.4205,1090.6577,588.4351,1091.3643,587.6856,1092.1375,587.0027,1092.8785,586.2876,1093.6809,585.6339,1094.2833,584.7803" style="stroke:#00BFFF;stroke-width:0.9101;"/><text fill="#000000" font-family="sans-serif" font-size="11.8308" lengthAdjust="spacing" textLength="141.2717" x="1090.6431" y="571.3031">Exporta arquivo CSV local</text></g><g class="message" data-participant-1="Sistema" data-participant-2="M.dulo Edge"><polygon fill="#00BFFF" points="1395.3006,613.6347,1395.3243,613.6939,1397.0741,614.246,1398.9626,615.1452,1400.806,615.9314,1402.5007,616.3459,1404.4012,617.2749,1404.3925,617.253,1402.5331,617.8829,1400.7178,618.623,1398.9332,619.4399,1397.0428,619.9924,1395.3006,620.9152,1395.4194,621.0339,1395.8935,620.0519,1396.7143,619.4167,1397.5774,618.8237,1398.1944,617.9846,1398.9409,617.2749,1398.9555,617.2896,1398.206,616.54,1397.5231,615.8571,1396.808,615.1421,1396.1543,614.4884,1395.3006,613.6347" style="stroke:#00BFFF;stroke-width:0.9101;"/><path d="M1084.2727,617.2749 L1084.2727,617.53 L1093.3152,616.7722 L1102.3577,617.5095 L1111.4002,617.7599 L1120.4427,616.4093 L1129.4853,617.1806 L1138.5278,616.7574 L1147.5703,616.8096 L1156.6128,617.1922 L1165.6554,616.436 L1174.6979,617.9467 L1183.7404,616.5101 L1192.7829,617.035 L1201.8255,617.7991 L1210.868,617.1708 L1219.9105,617.3577 L1228.953,617.2362 L1237.9956,617.4916 L1247.0381,617.5651 L1256.0806,617.9856 L1265.1231,618.0892 L1274.1657,618.0991 L1283.2082,617.5839 L1292.2507,617.8374 L1301.2932,618.127 L1310.3357,616.3998 L1319.3783,618.0982 L1328.4208,616.9151 L1337.4633,617.9227 L1346.5058,616.6743 L1355.5484,617.1918 L1364.5909,618.1748 L1373.6334,617.2158 L1382.6759,617.4027 L1391.7185,617.6858 L1400.761,617.2749" fill="none" style="stroke:#00BFFF;stroke-width:0.9101;"/><text fill="#000000" font-family="sans-serif" font-size="11.8308" lengthAdjust="spacing" textLength="170.7778" x="1090.6431" y="611.9884">Envia arquivo CSV para Nuvem</text></g><g class="message" data-participant-1="Sistema" data-participant-2="IHM"><polygon fill="#00BFFF" points="803.9626,642.4891,803.9862,642.5483,802.0958,643.1005,800.3441,643.9996,798.5472,644.7858,796.6017,645.2004,794.8619,646.1294,794.8532,646.1075,796.634,646.7373,798.459,647.4774,800.3146,648.2943,802.0645,648.8468,803.9626,649.7696,804.0813,649.8884,803.0993,648.9064,802.464,648.2711,801.8711,647.6781,801.032,646.839,800.3223,646.1294,800.337,646.144,801.0435,645.3945,801.8167,644.7116,802.5578,643.9965,803.3601,643.3428,803.9626,642.4891" style="stroke:#00BFFF;stroke-width:0.9101;"/><path d="M798.5022,646.1294 L798.5022,646.3844 L807.6942,645.6266 L816.8862,646.3639 L826.0782,646.6143 L835.2702,645.2637 L844.4622,646.0351 L853.6541,645.6118 L862.8461,645.664 L872.0381,646.0467 L881.2301,645.2904 L890.4221,646.8012 L899.6141,645.3646 L908.8061,645.8894 L917.9981,646.6535 L927.1901,646.0253 L936.3821,646.2122 L945.5741,646.0906 L954.7661,646.346 L963.9581,646.4195 L973.1501,646.84 L982.342,646.9436 L991.534,646.9536 L1000.726,646.4383 L1009.918,646.6919 L1019.11,646.9815 L1028.302,645.2543 L1037.494,646.9527 L1046.686,645.7696 L1055.878,646.7771 L1065.07,645.5287 L1074.262,646.1294" fill="none" style="stroke:#00BFFF;stroke-width:0.9101;stroke-dasharray:1.8201,1.8201;"/><text fill="#000000" font-family="sans-serif" font-size="11.8308" lengthAdjust="spacing" textLength="259.3787" x="809.4229" y="640.8428">Mensagem de confirma&#231;&#227;o de turno finalizado</text></g><text fill="#1E90FF" font-family="Arial" font-size="12.7409" font-weight="bold" lengthAdjust="spacing" textLength="144.9395" x="27.3018" y="695.2417">Casos de Uso cobertos:</text><text fill="#1E90FF" font-family="Arial" font-size="12.7409" lengthAdjust="spacing" textLength="4.1025" x="27.3018" y="712.5947">-</text><text fill="#1E90FF" font-family="Arial" font-size="12.7409" font-weight="bold" lengthAdjust="spacing" textLength="55.5245" x="34.717" y="712.5947">MDC-001</text><text fill="#1E90FF" font-family="Arial" font-size="12.7409" lengthAdjust="spacing" textLength="177.9" x="93.5541" y="712.5947">Gera&#231;&#227;o de relat&#243;rio de turno</text><polygon fill="none" points="345.8175,22.7515,345.8175,22.9428,354.908,22.3745,363.9986,22.9274,373.0891,23.1153,382.1797,22.1023,391.2702,22.6808,400.3608,22.3634,409.4513,22.4025,418.5419,22.6895,427.6324,22.1224,436.7229,23.2554,445.8135,22.1779,454.904,22.5716,463.9946,23.1446,473.0851,22.6735,482.1757,22.8136,491.2662,22.7225,500.3568,22.914,509.4473,22.9692,518.5379,23.2846,527.6284,23.3622,536.719,23.3697,545.8095,22.9833,554.9,23.1734,563.9906,23.3906,573.0811,22.0952,582.1717,23.369,591.2622,22.4817,600.3528,23.2373,609.4433,22.301,618.5339,22.6892,627.6244,23.4264,636.715,22.7072,645.8055,22.8474,654.8961,23.0597,663.9866,23.1303,673.0771,22.748,682.1677,23.0129,691.2582,22.2306,700.3488,23.0104,709.4393,23.2504,718.5299,23.1561,727.6204,23.3094,736.711,22.3119,745.8015,22.158,754.8921,22.186,763.9826,22.698,773.0732,22.5727,782.1637,23.3717,791.2542,22.5926,800.3448,22.4393,809.4353,22.9593,818.5259,22.1447,827.6164,22.2791,836.707,23.3421,845.7975,23.148,854.8881,23.42,863.9786,22.4587,873.0692,23.042,882.1597,23.2889,891.2503,22.3216,900.3408,22.6643,909.4314,22.8662,918.5219,23.3447,927.6124,22.7477,936.703,23.1725,945.7935,22.2476,954.8841,22.1352,963.9746,23.2099,973.0652,22.0991,982.1557,23.2147,991.2463,22.9396,1000.3368,22.5077,1009.4274,22.4296,1018.5179,23.169,1027.6085,22.4791,1036.699,23.2902,1045.7895,22.2485,1054.8801,23.3134,1063.9706,23.1923,1073.0612,22.9745,1082.1517,22.7945,1091.2423,23.4128,1100.3328,23.3099,1109.4234,22.9056,1118.5139,22.7515,1118.545,22.8267,1119.4641,23.1149,1120.5276,23.752,1121.4277,23.9944,1122.395,24.3992,1123.3402,24.7507,1123.1697,24.68,1123.6265,25.6689,1124.2886,26.7428,1124.6602,27.6964,1124.9275,28.6068,1125.3394,29.577,1125.0462,29.577,1125.1401,39.0853,1124.7149,48.5936,1125.7168,58.102,1126.0124,67.6103,1125.3394,77.1186,1125.4869,77.1797,1125.1343,78.1645,1124.5014,79.0333,1124.1643,80.0245,1123.6314,80.9347,1123.3402,81.9449,1123.3732,82.0245,1122.4036,82.4139,1121.4738,82.8994,1120.4178,83.08,1119.4636,83.5066,1118.5139,83.9441,1118.5139,84.3476,1109.4234,84.4604,1100.3328,83.4776,1091.2423,83.7676,1082.1517,84.0799,1073.0612,83.3882,1063.9706,84.2657,1054.8801,84.1788,1045.7895,83.8524,1036.699,84.0735,1027.6085,84.6072,1018.5179,83.6593,1009.4274,84.2307,1000.3368,84.204,991.2463,84.0494,982.1557,84.0723,973.0652,84.0473,963.9746,83.376,954.8841,83.5793,945.7935,83.524,936.703,84.0021,927.6124,84.0243,918.5219,84.0913,909.4314,83.6793,900.3408,83.8826,891.2503,83.8347,882.1597,84.469,873.0692,84.3323,863.9786,83.5022,854.8881,83.8777,845.7975,83.4187,836.707,84.2065,827.6164,84.4978,818.5259,84.4396,809.4353,83.5477,800.3448,84.3663,791.2542,83.2681,782.1637,84.1262,773.0732,83.6717,763.9826,84.0321,754.8921,84.1628,745.8015,84.3737,736.711,83.2889,727.6204,84.3768,718.5299,84.1062,709.4393,84.2674,700.3488,84.6246,691.2582,83.949,682.1677,84.1036,673.0771,84.1383,663.9866,84.1236,654.8961,83.9433,645.8055,84.5908,636.715,83.3892,627.6244,84.4585,618.5339,83.3762,609.4433,83.4523,600.3528,83.9805,591.2622,83.9698,582.1717,83.4956,573.0811,84.3206,563.9906,84.0431,554.9,84.6054,545.8095,84.5512,536.719,83.5361,527.6284,83.5819,518.5379,83.8265,509.4473,84.2676,500.3568,84.3108,491.2662,84.2181,482.1757,83.6329,473.0851,84.5232,463.9946,84.5208,454.904,83.901,445.8135,83.7265,436.7229,83.5788,427.6324,83.7488,418.5419,84.0691,409.4513,83.8818,400.3608,83.5638,391.2702,84.3876,382.1797,83.5264,373.0891,84.4013,363.9986,84.3329,354.908,84.2825,345.8175,83.9441,345.8979,84.1381,344.8237,83.4753,343.852,83.0602,342.9819,82.89,341.8871,82.1775,340.9912,81.9449,340.9256,81.9178,340.6237,80.9931,340.2108,80.0224,339.6912,79.0075,339.3798,78.0789,338.992,77.1186,339.6696,77.1186,339.5822,67.6103,338.4494,58.102,339.0635,48.5936,338.5243,39.0853,338.992,29.577,338.9846,29.5739,339.474,28.6457,339.9093,27.6952,340.0052,26.604,340.7036,25.7624,340.9912,24.7507,340.9921,24.753,341.8919,24.1952,342.867,23.819,343.9249,23.6427,344.8812,23.2214,345.8175,22.7515" style="stroke:#000000;stroke-width:0.9101;"/><text fill="#1E90FF" font-family="Arial" font-size="18.2012" font-weight="bold" lengthAdjust="spacing" textLength="749.9449" x="357.1933" y="60.4099">Diagrama de Sequ&#234;ncia - M&#243;dulo de Dados e Conectividade (MDC) - Relat&#243;rio turno</text><!--SRC=[VLDDZzCm4BtxLmoz0D5cMQuv8B5D1IjHjDeMxjDuabfoxApjHC3VuO24n6blNFF7TfoFfgiLz9B6UVFclJVZ5yeKkfK4-IxTRxQtdzxlDvTDMsiXD5La90JR280aoHLM3ci41k_elkr_cq8XfB3j7sIhRJpFKLeF16jhg0YgKnBvzDKsNxzcu1rf3Fs3KnP2wunD4X4RZ7s4m29O1-DlrpRaEkMj4mVR6edkUpo- -RWLXJN1MJt2b0zKen0B7j9t4PP1JgKo1ChqVmerg1kQnZQgmq03cSI01_G4gsiqnU9X1UWXlrx0_9_naJo_XeojLDpQuNFwex4Cjnsvs82XUweRDcm3Qf2Jy__eBLMza4qj9viPxAnMXGe8RecImOspikr_zJ_jqk6aVCveUeuMiZWYtsgcaiFCJdLiBprlUKSy5VCCzX9kyjFR1Hoj6nPZYkCDkxY0E2cig9xDJqB3i2Ac_rkJ6-MZGybvDvn6YVg8bs89SPQTmQsp1Na_IubLK953Tvx6UlVrtEd91jjbDYOTYrbKQLsDuTyLcs-iX_D1Tz-gRi21jWNgS_HgNlwDh6Z5HQPJJqi6cP_RZkgbRXxvbemV0k8GEAnIiQ9fZDC6y3eOrEe7YnQYj9oA6oxZ6dsS1i4NRxdqmDQip_X2yQL8-JlVkFJgwcsIm0TEwCJvT6t6ISOhE34_0W00]--></g></svg>