<svg xmlns="http://www.w3.org/2000/svg" xmlns:xlink="http://www.w3.org/1999/xlink" contentStyleType="text/css" data-diagram-type="SEQUENCE" height="751.0254px" preserveAspectRatio="none" style="width:974px;height:751px;background:#EEEBDC;" version="1.1" viewBox="0 0 974 751" width="974.9974px" zoomAndPan="magnify"><defs/><g><rect fill="#EEEBDC" height="751.0254" style="stroke:none;stroke-width:1.0274;" width="974.9974" x="0" y="0"/><g><title>IHM</title><polygon fill="#A9DCDF" points="206.8803,237.4308,206.8803,237.5028,208.9351,237.2889,210.9899,237.497,213.0447,237.5677,215.0994,237.1865,217.1542,237.4308,217.0744,237.4308,216.7161,247.804,216.7602,258.1771,217.0842,268.5503,216.4439,278.9234,217.723,289.2966,216.5067,299.6698,216.9511,310.0429,217.598,320.4161,217.0661,330.7892,217.2243,341.1624,217.1214,351.5356,217.3377,361.9087,217.3999,372.2819,217.756,382.655,217.8437,393.0282,217.8521,403.4014,217.4158,413.7745,217.6305,424.1477,217.8757,434.5208,216.4133,444.894,217.8513,455.2672,216.8496,465.6403,217.7027,476.0135,216.6457,486.3866,217.0839,496.7598,217.9162,507.133,217.1042,517.5061,217.2624,527.8793,217.5021,538.2524,217.5819,548.6256,217.1502,558.9987,217.4493,569.3719,216.5661,579.7451,217.4464,590.1182,217.7174,600.4914,217.6109,610.8645,217.7841,621.2377,216.6579,631.6109,217.1542,641.984,217.1542,641.7607,215.0994,641.7712,213.0447,641.9639,210.9899,641.9167,208.9351,642.2174,206.8803,641.984,206.7008,641.984,206.5278,631.6109,207.1148,621.2377,206.1952,610.8645,206.3469,600.4914,207.547,590.1182,207.3279,579.7451,207.6349,569.3719,206.5497,558.9987,207.2082,548.6256,207.4869,538.2524,206.3949,527.8793,206.7818,517.5061,207.0097,507.133,207.5499,496.7598,206.876,486.3866,207.3555,476.0135,206.3113,465.6403,206.1845,455.2672,207.3977,444.894,206.1437,434.5208,207.4032,424.1477,207.0926,413.7745,206.605,403.4014,206.5168,393.0282,207.3516,382.655,206.5728,372.2819,207.4884,361.9087,206.3124,351.5356,207.5146,341.1624,207.3779,330.7892,207.132,320.4161,206.9288,310.0429,207.6268,299.6698,207.5107,289.2966,207.0542,278.9234,207.1558,268.5503,206.7465,258.1771,207.6164,247.804,206.8803,237.4308" style="stroke:#181818;stroke-width:1.0274;"/></g><g><title>Sistema</title><polygon fill="#A9DCDF" points="534.6317,371.8387,534.6317,371.9107,536.6865,371.6968,538.7413,371.9049,540.796,371.9756,542.8508,371.5944,544.9056,371.8387,544.8258,371.8387,544.4674,382.2289,544.5116,392.6191,544.8356,403.0093,544.1953,413.3995,545.4744,423.7898,544.2581,434.18,544.7024,444.5702,545.3494,454.9604,544.8175,465.3506,544.9757,475.7408,544.8728,486.131,545.089,496.5212,545.1513,506.9114,545.5074,517.3016,545.5951,527.6918,545.6035,538.082,545.1672,548.4722,545.3819,558.8624,545.6271,569.2526,544.1647,579.6428,545.6027,590.033,544.601,600.4232,545.4541,610.8134,544.397,621.2036,544.8353,631.5938,544.9056,641.984,544.9056,642.238,542.8508,641.9673,540.796,642.0201,538.7413,642.1,536.6865,642.1266,534.6317,641.984,534.6277,641.984,534.9268,631.5938,534.0436,621.2036,534.9239,610.8134,535.1949,600.4232,535.0884,590.033,535.2615,579.6428,534.1354,569.2526,533.9616,558.8624,533.9933,548.4722,534.5712,538.082,534.4298,527.6918,535.3318,517.3016,534.4522,506.9114,534.2792,496.5212,534.8662,486.131,533.9466,475.7408,534.0983,465.3506,535.2984,454.9604,535.0793,444.5702,535.3863,434.18,534.3011,423.7898,534.9596,413.3995,535.2383,403.0093,534.1463,392.6191,534.5332,382.2289,534.6317,371.8387" style="stroke:#181818;stroke-width:1.0274;"/></g><g><title>Banco de Dados</title><polygon fill="#A9DCDF" points="773.6983,237.4308,773.6983,237.5028,775.7531,237.2889,777.8079,237.497,779.8627,237.5677,781.9175,237.1865,783.9723,237.4308,783.8924,237.4308,783.5341,247.804,783.5783,258.1771,783.9022,268.5503,783.262,278.9234,784.5411,289.2966,783.3247,299.6698,783.7691,310.0429,784.416,320.4161,783.8841,330.7892,784.0424,341.1624,783.9394,351.5356,784.1557,361.9087,784.218,372.2819,784.574,382.655,784.6617,393.0282,784.6701,403.4014,784.2339,413.7745,784.4486,424.1477,784.6937,434.5208,783.2313,444.894,784.6694,455.2672,783.6676,465.6403,784.5207,476.0135,783.4637,486.3866,783.9019,496.7598,784.7342,507.133,783.9222,517.5061,784.0805,527.8793,784.3202,538.2524,784.3999,548.6256,783.9683,558.9987,784.2673,569.3719,783.3842,579.7451,784.2644,590.1182,784.5355,600.4914,784.429,610.8645,784.6021,621.2377,783.476,631.6109,783.9723,641.984,783.9723,641.7607,781.9175,641.7712,779.8627,641.9639,777.8079,641.9167,775.7531,642.2174,773.6983,641.984,773.5189,641.984,773.3459,631.6109,773.9328,621.2377,773.0132,610.8645,773.165,600.4914,774.3651,590.1182,774.1459,579.7451,774.4529,569.3719,773.3677,558.9987,774.0263,548.6256,774.3049,538.2524,773.213,527.8793,773.5998,517.5061,773.8278,507.133,774.3679,496.7598,773.694,486.3866,774.1736,476.0135,773.1294,465.6403,773.0025,455.2672,774.2157,444.894,772.9617,434.5208,774.2212,424.1477,773.9106,413.7745,773.4231,403.4014,773.3349,393.0282,774.1696,382.655,773.3908,372.2819,774.3064,361.9087,773.1304,351.5356,774.3327,341.1624,774.1959,330.7892,773.95,320.4161,773.7468,310.0429,774.4448,299.6698,774.3287,289.2966,773.8722,278.9234,773.9739,268.5503,773.5645,258.1771,774.4344,247.804,773.6983,237.4308" style="stroke:#181818;stroke-width:1.0274;"/></g><g><title>Supervisor</title><polygon fill="#000000" fill-opacity="0.00000" points="47.9659,202.8014,47.9659,202.8734,49.6097,202.6595,51.2535,202.8676,52.8974,202.9383,54.5412,202.5571,56.185,202.8014,56.1052,202.8014,55.7468,212.993,55.791,223.1846,56.115,233.3761,55.4747,243.5677,56.7538,253.7593,55.5375,263.9509,55.9818,274.1424,56.6288,284.334,56.0969,294.5256,56.2551,304.7171,56.1522,314.9087,56.3684,325.1003,56.4307,335.2919,56.7868,345.4834,56.8745,355.675,56.8829,365.8666,56.4466,376.0581,56.6613,386.2497,56.9065,396.4413,55.4441,406.6329,56.8821,416.8244,55.8804,427.016,56.7335,437.2076,55.6764,447.3991,56.1146,457.5907,56.9469,467.7823,56.1349,477.9739,56.2932,488.1654,56.5329,498.357,56.6127,508.5486,56.181,518.7401,56.4801,528.9317,55.5969,539.1233,56.4772,549.3149,56.7482,559.5064,56.6417,569.698,56.8148,579.8896,55.6887,590.0811,55.515,600.2727,55.5466,610.4643,56.1245,620.6559,55.9831,630.8474,56.8851,641.039,56.185,651.2306,56.185,651.1708,54.5412,651.1131,52.8974,651.3087,51.2535,651.0022,49.6097,651.0528,47.9659,651.2306,48.6326,651.2306,48.4135,641.039,48.7205,630.8474,47.6353,620.6559,48.2938,610.4643,48.5725,600.2727,47.4805,590.0811,47.8674,579.8896,48.0953,569.698,48.6355,559.5064,47.9616,549.3149,48.4411,539.1233,47.3969,528.9317,47.2701,518.7401,48.4833,508.5486,47.2293,498.357,48.4888,488.1654,48.1782,477.9739,47.6906,467.7823,47.6024,457.5907,48.4372,447.3991,47.6583,437.2076,48.5739,427.016,47.398,416.8244,48.6002,406.6329,48.4634,396.4413,48.2175,386.2497,48.0144,376.0581,48.7124,365.8666,48.5962,355.675,48.1398,345.4834,48.2414,335.2919,47.832,325.1003,48.7019,314.9087,48.125,304.7171,48.1432,294.5256,47.3408,284.334,47.5495,274.1424,48.5111,263.9509,48.4074,253.7593,47.9218,243.5677,47.6349,233.3761,47.7409,223.1846,47.2609,212.993,47.9659,202.8014"/><path d="M51.3697,202.8014 L51.6576,202.8014 L50.8022,212.993 L51.6345,223.1846 L51.9172,233.3761 L50.3925,243.5677 L51.2633,253.7593 L50.7855,263.9509 L50.8444,274.1424 L51.2764,284.334 L50.4226,294.5256 L52.1281,304.7171 L50.5063,314.9087 L51.0988,325.1003 L51.9614,335.2919 L51.2522,345.4834 L51.4632,355.675 L51.326,365.8666 L51.6143,376.0581 L51.6973,386.2497 L52.172,396.4413 L52.289,406.6329 L52.3002,416.8244 L51.7185,427.016 L52.0048,437.2076 L52.3317,447.3991 L50.3818,457.5907 L52.2992,467.7823 L50.9636,477.9739 L52.101,488.1654 L50.6916,498.357 L51.2759,508.5486 L52.3856,518.7401 L51.303,528.9317 L51.514,539.1233 L51.8336,549.3149 L51.9399,559.5064 L51.3644,569.698 L51.7632,579.8896 L50.5856,590.0811 L51.7593,600.2727 L52.1207,610.4643 L51.9787,620.6559 L52.2095,630.8474 L50.708,641.039 L51.3697,651.2306" fill="none" style="stroke:#0000FF;stroke-width:0.5137;stroke-dasharray:5.137,5.137;"/></g><g><title>IHM</title><polygon fill="#000000" fill-opacity="0.00000" points="207.9077,202.8014,207.9077,202.8734,209.5515,202.6595,211.1953,202.8676,212.8392,202.9383,214.483,202.5571,216.1268,202.8014,216.047,202.8014,215.6887,212.993,215.7328,223.1846,216.0568,233.3761,215.4165,243.5677,216.6956,253.7593,215.4793,263.9509,215.9237,274.1424,216.5706,284.334,216.0387,294.5256,216.1969,304.7171,216.094,314.9087,216.3103,325.1003,216.3725,335.2919,216.7286,345.4834,216.8163,355.675,216.8247,365.8666,216.3884,376.0581,216.6031,386.2497,216.8483,396.4413,215.3859,406.6329,216.8239,416.8244,215.8222,427.016,216.6753,437.2076,215.6183,447.3991,216.0565,457.5907,216.8888,467.7823,216.0768,477.9739,216.235,488.1654,216.4747,498.357,216.5545,508.5486,216.1228,518.7401,216.4219,528.9317,215.5387,539.1233,216.419,549.3149,216.6901,559.5064,216.5836,569.698,216.7567,579.8896,215.6305,590.0811,215.4568,600.2727,215.4884,610.4643,216.0663,620.6559,215.9249,630.8474,216.8269,641.039,216.1268,651.2306,216.1268,651.1708,214.483,651.1131,212.8392,651.3087,211.1953,651.0022,209.5515,651.0528,207.9077,651.2306,208.5744,651.2306,208.3553,641.039,208.6623,630.8474,207.5771,620.6559,208.2356,610.4643,208.5143,600.2727,207.4223,590.0811,207.8092,579.8896,208.0371,569.698,208.5773,559.5064,207.9034,549.3149,208.3829,539.1233,207.3387,528.9317,207.2119,518.7401,208.4251,508.5486,207.1711,498.357,208.4306,488.1654,208.12,477.9739,207.6324,467.7823,207.5442,457.5907,208.379,447.3991,207.6002,437.2076,208.5158,427.016,207.3398,416.8244,208.542,406.6329,208.4053,396.4413,208.1594,386.2497,207.9562,376.0581,208.6542,365.8666,208.5381,355.675,208.0816,345.4834,208.1832,335.2919,207.7739,325.1003,208.6438,314.9087,208.0668,304.7171,208.085,294.5256,207.2827,284.334,207.4914,274.1424,208.453,263.9509,208.3492,253.7593,207.8636,243.5677,207.5767,233.3761,207.6828,223.1846,207.2027,212.993,207.9077,202.8014"/><path d="M211.5036,202.8014 L211.7915,202.8014 L210.936,212.993 L211.7683,223.1846 L212.0511,233.3761 L210.5263,243.5677 L211.3971,253.7593 L210.9193,263.9509 L210.9782,274.1424 L211.4102,284.334 L210.5565,294.5256 L212.262,304.7171 L210.6402,314.9087 L211.2327,325.1003 L212.0953,335.2919 L211.3861,345.4834 L211.597,355.675 L211.4598,365.8666 L211.7481,376.0581 L211.8311,386.2497 L212.3059,396.4413 L212.4228,406.6329 L212.4341,416.8244 L211.8524,427.016 L212.1386,437.2076 L212.4655,447.3991 L210.5156,457.5907 L212.433,467.7823 L211.0974,477.9739 L212.2348,488.1654 L210.8255,498.357 L211.4097,508.5486 L212.5195,518.7401 L211.4368,528.9317 L211.6478,539.1233 L211.9674,549.3149 L212.0737,559.5064 L211.4982,569.698 L211.897,579.8896 L210.7194,590.0811 L211.8931,600.2727 L212.2545,610.4643 L212.1125,620.6559 L212.3433,630.8474 L210.8418,641.039 L211.5036,651.2306" fill="none" style="stroke:#0000FF;stroke-width:0.5137;stroke-dasharray:5.137,5.137;"/></g><g><title>Sistema</title><polygon fill="#000000" fill-opacity="0.00000" points="535.6591,202.8014,535.6591,202.8734,537.3029,202.6595,538.9467,202.8676,540.5906,202.9383,542.2344,202.5571,543.8782,202.8014,543.7984,202.8014,543.4401,212.993,543.4842,223.1846,543.8082,233.3761,543.1679,243.5677,544.447,253.7593,543.2307,263.9509,543.675,274.1424,544.322,284.334,543.7901,294.5256,543.9483,304.7171,543.8454,314.9087,544.0616,325.1003,544.1239,335.2919,544.48,345.4834,544.5677,355.675,544.5761,365.8666,544.1398,376.0581,544.3545,386.2497,544.5997,396.4413,543.1373,406.6329,544.5753,416.8244,543.5736,427.016,544.4267,437.2076,543.3696,447.3991,543.8079,457.5907,544.6402,467.7823,543.8282,477.9739,543.9864,488.1654,544.2261,498.357,544.3059,508.5486,543.8742,518.7401,544.1733,528.9317,543.2901,539.1233,544.1704,549.3149,544.4414,559.5064,544.3349,569.698,544.508,579.8896,543.3819,590.0811,543.2082,600.2727,543.2398,610.4643,543.8177,620.6559,543.6763,630.8474,544.5783,641.039,543.8782,651.2306,543.8782,651.1708,542.2344,651.1131,540.5906,651.3087,538.9467,651.0022,537.3029,651.0528,535.6591,651.2306,536.3258,651.2306,536.1067,641.039,536.4137,630.8474,535.3285,620.6559,535.987,610.4643,536.2657,600.2727,535.1737,590.0811,535.5606,579.8896,535.7885,569.698,536.3287,559.5064,535.6548,549.3149,536.1343,539.1233,535.0901,528.9317,534.9633,518.7401,536.1765,508.5486,534.9225,498.357,536.182,488.1654,535.8714,477.9739,535.3838,467.7823,535.2956,457.5907,536.1304,447.3991,535.3515,437.2076,536.2672,427.016,535.0912,416.8244,536.2934,406.6329,536.1566,396.4413,535.9108,386.2497,535.7076,376.0581,536.4056,365.8666,536.2895,355.675,535.833,345.4834,535.9346,335.2919,535.5252,325.1003,536.3952,314.9087,535.8182,304.7171,535.8364,294.5256,535.0341,284.334,535.2428,274.1424,536.2044,263.9509,536.1006,253.7593,535.615,243.5677,535.3281,233.3761,535.4341,223.1846,534.9541,212.993,535.6591,202.8014"/><path d="M538.7938,202.8014 L539.0817,202.8014 L538.2262,212.993 L539.0585,223.1846 L539.3413,233.3761 L537.8165,243.5677 L538.6873,253.7593 L538.2095,263.9509 L538.2684,274.1424 L538.7004,284.334 L537.8467,294.5256 L539.5522,304.7171 L537.9304,314.9087 L538.5228,325.1003 L539.3855,335.2919 L538.6763,345.4834 L538.8872,355.675 L538.75,365.8666 L539.0383,376.0581 L539.1213,386.2497 L539.5961,396.4413 L539.713,406.6329 L539.7242,416.8244 L539.1426,427.016 L539.4288,437.2076 L539.7557,447.3991 L537.8058,457.5907 L539.7232,467.7823 L538.3876,477.9739 L539.525,488.1654 L538.1156,498.357 L538.6999,508.5486 L539.8096,518.7401 L538.727,528.9317 L538.938,539.1233 L539.2576,549.3149 L539.3639,559.5064 L538.7884,569.698 L539.1872,579.8896 L538.0096,590.0811 L539.1833,600.2727 L539.5447,610.4643 L539.4027,620.6559 L539.6335,630.8474 L538.132,641.039 L538.7938,651.2306" fill="none" style="stroke:#0000FF;stroke-width:0.5137;stroke-dasharray:5.137,5.137;"/></g><g><title>Banco de Dados</title><polygon fill="#000000" fill-opacity="0.00000" points="774.7257,202.8014,774.7257,202.8734,776.3695,202.6595,778.0134,202.8676,779.6572,202.9383,781.301,202.5571,782.9449,202.8014,782.865,202.8014,782.5067,212.993,782.5509,223.1846,782.8748,233.3761,782.2346,243.5677,783.5137,253.7593,782.2973,263.9509,782.7417,274.1424,783.3887,284.334,782.8567,294.5256,783.015,304.7171,782.9121,314.9087,783.1283,325.1003,783.1906,335.2919,783.5466,345.4834,783.6343,355.675,783.6427,365.8666,783.2065,376.0581,783.4212,386.2497,783.6663,396.4413,782.2039,406.6329,783.642,416.8244,782.6402,427.016,783.4933,437.2076,782.4363,447.3991,782.8745,457.5907,783.7068,467.7823,782.8948,477.9739,783.0531,488.1654,783.2928,498.357,783.3725,508.5486,782.9409,518.7401,783.24,528.9317,782.3568,539.1233,783.2371,549.3149,783.5081,559.5064,783.4016,569.698,783.5747,579.8896,782.4486,590.0811,782.2748,600.2727,782.3065,610.4643,782.8844,620.6559,782.743,630.8474,783.645,641.039,782.9449,651.2306,782.9449,651.1708,781.301,651.1131,779.6572,651.3087,778.0134,651.0022,776.3695,651.0528,774.7257,651.2306,775.3924,651.2306,775.1733,641.039,775.4803,630.8474,774.3951,620.6559,775.0537,610.4643,775.3323,600.2727,774.2404,590.0811,774.6272,579.8896,774.8552,569.698,775.3953,559.5064,774.7214,549.3149,775.201,539.1233,774.1568,528.9317,774.0299,518.7401,775.2431,508.5486,773.9891,498.357,775.2486,488.1654,774.938,477.9739,774.4505,467.7823,774.3623,457.5907,775.197,447.3991,774.4182,437.2076,775.3338,427.016,774.1578,416.8244,775.3601,406.6329,775.2233,396.4413,774.9774,386.2497,774.7742,376.0581,775.4722,365.8666,775.3561,355.675,774.8996,345.4834,775.0013,335.2919,774.5919,325.1003,775.4618,314.9087,774.8848,304.7171,774.903,294.5256,774.1007,284.334,774.3094,274.1424,775.271,263.9509,775.1673,253.7593,774.6816,243.5677,774.3947,233.3761,774.5008,223.1846,774.0207,212.993,774.7257,202.8014"/><path d="M778.6085,202.8014 L778.8964,202.8014 L778.0409,212.993 L778.8732,223.1846 L779.156,233.3761 L777.6312,243.5677 L778.502,253.7593 L778.0242,263.9509 L778.0831,274.1424 L778.5151,284.334 L777.6614,294.5256 L779.3669,304.7171 L777.7451,314.9087 L778.3375,325.1003 L779.2002,335.2919 L778.491,345.4834 L778.7019,355.675 L778.5647,365.8666 L778.853,376.0581 L778.936,386.2497 L779.4108,396.4413 L779.5277,406.6329 L779.5389,416.8244 L778.9573,427.016 L779.2435,437.2076 L779.5704,447.3991 L777.6205,457.5907 L779.5379,467.7823 L778.2023,477.9739 L779.3397,488.1654 L777.9303,498.357 L778.5146,508.5486 L779.6243,518.7401 L778.5417,528.9317 L778.7527,539.1233 L779.0723,549.3149 L779.1786,559.5064 L778.6031,569.698 L779.0019,579.8896 L777.8243,590.0811 L778.998,600.2727 L779.3594,610.4643 L779.2174,620.6559 L779.4482,630.8474 L777.9467,641.039 L778.6085,651.2306" fill="none" style="stroke:#0000FF;stroke-width:0.5137;stroke-dasharray:5.137,5.137;"/></g><g><title>M.dulo Edge</title><polygon fill="#000000" fill-opacity="0.00000" points="904.2531,202.8014,904.2531,202.8734,905.8969,202.6595,907.5408,202.8676,909.1846,202.9383,910.8284,202.5571,912.4723,202.8014,912.3924,202.8014,912.0341,212.993,912.0783,223.1846,912.4022,233.3761,911.762,243.5677,913.0411,253.7593,911.8247,263.9509,912.2691,274.1424,912.916,284.334,912.3841,294.5256,912.5424,304.7171,912.4394,314.9087,912.6557,325.1003,912.7179,335.2919,913.074,345.4834,913.1617,355.675,913.1701,365.8666,912.7339,376.0581,912.9485,386.2497,913.1937,396.4413,911.7313,406.6329,913.1694,416.8244,912.1676,427.016,913.0207,437.2076,911.9637,447.3991,912.4019,457.5907,913.2342,467.7823,912.4222,477.9739,912.5804,488.1654,912.8202,498.357,912.8999,508.5486,912.4682,518.7401,912.7673,528.9317,911.8842,539.1233,912.7644,549.3149,913.0355,559.5064,912.929,569.698,913.1021,579.8896,911.9759,590.0811,911.8022,600.2727,911.8338,610.4643,912.4118,620.6559,912.2703,630.8474,913.1723,641.039,912.4723,651.2306,912.4723,651.1708,910.8284,651.1131,909.1846,651.3087,907.5408,651.0022,905.8969,651.0528,904.2531,651.2306,904.9198,651.2306,904.7007,641.039,905.0077,630.8474,903.9225,620.6559,904.581,610.4643,904.8597,600.2727,903.7678,590.0811,904.1546,579.8896,904.3825,569.698,904.9227,559.5064,904.2488,549.3149,904.7283,539.1233,903.6841,528.9317,903.5573,518.7401,904.7705,508.5486,903.5165,498.357,904.776,488.1654,904.4654,477.9739,903.9778,467.7823,903.8896,457.5907,904.7244,447.3991,903.9456,437.2076,904.8612,427.016,903.6852,416.8244,904.8874,406.6329,904.7507,396.4413,904.5048,386.2497,904.3016,376.0581,904.9996,365.8666,904.8835,355.675,904.427,345.4834,904.5286,335.2919,904.1193,325.1003,904.9892,314.9087,904.4122,304.7171,904.4304,294.5256,903.6281,284.334,903.8368,274.1424,904.7984,263.9509,904.6946,253.7593,904.209,243.5677,903.9221,233.3761,904.0282,223.1846,903.5481,212.993,904.2531,202.8014"/><path d="M907.4865,202.8014 L907.7744,202.8014 L906.9189,212.993 L907.7512,223.1846 L908.034,233.3761 L906.5092,243.5677 L907.38,253.7593 L906.9022,263.9509 L906.9611,274.1424 L907.3931,284.334 L906.5394,294.5256 L908.2449,304.7171 L906.6231,314.9087 L907.2155,325.1003 L908.0782,335.2919 L907.369,345.4834 L907.5799,355.675 L907.4427,365.8666 L907.731,376.0581 L907.814,386.2497 L908.2888,396.4413 L908.4057,406.6329 L908.4169,416.8244 L907.8353,427.016 L908.1215,437.2076 L908.4484,447.3991 L906.4985,457.5907 L908.4159,467.7823 L907.0803,477.9739 L908.2177,488.1654 L906.8083,498.357 L907.3926,508.5486 L908.5023,518.7401 L907.4197,528.9317 L907.6307,539.1233 L907.9503,549.3149 L908.0566,559.5064 L907.4811,569.698 L907.8799,579.8896 L906.7023,590.0811 L907.876,600.2727 L908.2374,610.4643 L908.0954,620.6559 L908.3262,630.8474 L906.8247,641.039 L907.4865,651.2306" fill="none" style="stroke:#0000FF;stroke-width:0.5137;stroke-dasharray:5.137,5.137;"/></g><g class="participant participant-head" data-participant="Supervisor"><text fill="#1E90FF" font-family="Aapex" font-size="17.4657" lengthAdjust="spacing" textLength="87.7126" x="5.137" y="197.684">Supervisor</text><polygon fill="#00BFFF" points="68.6046,137.2926,66.195,140.585,63.345,145.4072,59.2689,148.6571,54.9856,150.4342,51.5703,150.5885,47.1808,148.3659,43.0391,146.9139,39.8955,143.9659,38.2464,140.5909,37.2685,137.9036,36.3105,134.3936,34.7554,131.3731,35.9504,128.4239,36.9973,125.1934,40.9262,122.6383,43.6903,119.3232,47.1117,118.2224,51.179,117.2743,56.3948,117.8376,59.2516,119.1849,62.5731,119.7956,66.6117,123.9332,68.0195,128.3013,68.6312,131.2817,67.9383,136.1931" style="stroke:#00BFFF;stroke-width:0.5137;"/><path d="M52.0754,153.842 L52.0754,153.842 L52.1082,153.9322 L54.2711,152.8423 L56.6261,152.2811 L58.9186,151.5478 L61.0052,150.2482 L63.3768,149.7325 L63.3768,149.7325 L63.3621,149.7001 L65.5565,150.5826 L67.8249,151.6278 L70.1447,152.7863 L72.2872,153.5546 L74.6781,154.8694 L74.9083,154.974 L75.4435,157.0106 L76.6507,159.3526 L77.9399,161.7318 L78.752,163.8943 L79.8151,166.1708 L79.8774,166.1708 L79.7859,166.9927 L79.9781,167.8146 L80.0335,168.6365 L80.35,169.4584 L79.8151,170.2803 L79.8151,170.2803 L80.0318,170.497 L78.3906,172.1435 L76.6096,173.6502 L75.0333,175.3615 L73.4665,177.0824 L71.5959,178.4995 L71.5959,177.8409 L63.7877,179.1191 L55.9795,178.2287 L48.1713,178.987 L40.3631,178.0474 L32.5549,178.4995 L32.5549,178.4995 L32.5328,178.4774 L31.1506,177.0951 L29.2515,175.1961 L27.6575,173.602 L26.089,172.0335 L24.3358,170.2803 L24.7159,170.2803 L24.3322,169.4584 L24.5981,168.6365 L23.813,167.8146 L24.5955,166.9927 L24.3358,166.1708 L24.3358,166.1708 L24.5637,166.2743 L25.548,163.9945 L26.6454,161.7661 L27.2172,159.2987 L28.1743,157.0065 L29.4728,154.8694 L29.3553,154.6111 L31.7219,153.8176 L33.9562,152.7329 L36.3823,152.0705 L38.4808,150.6872 L40.7741,149.7325 L40.7741,149.7325 L40.7206,149.5852 L43.07,150.6523 L45.1906,151.0901 L47.4739,151.9754 L49.9164,153.2986 L52.0754,153.842" fill="#00BFFF"/></g><g class="participant participant-head" data-participant="IHM"><text fill="#000000" font-family="sans-serif" font-size="14.3835" lengthAdjust="spacing" textLength="28.58" x="194.6451" y="198.5871">IHM</text><path d="M190.9557,154.4441 L191.1476,154.4441 L190.5773,159.3756 L191.1322,164.3071 L191.3207,169.2386 L190.3042,174.1701 L190.9557,179.1016 M190.9557,166.7728 L190.9557,166.7019 L194.4488,166.3834 L197.942,166.4226 L201.4351,166.7106 L204.9282,166.1415 L208.4214,166.7728" fill="none" style="stroke:#181818;stroke-width:0.5137;"/><polygon fill="#E2E2F0" points="233.147,169.7717,231.3398,172.241,229.2023,175.8577,226.1452,178.2951,222.9327,179.6279,220.3713,179.7436,217.0792,178.0767,213.9729,176.9877,211.6151,174.7766,210.3784,172.2454,209.6449,170.23,208.9264,167.5974,207.7601,165.332,208.6563,163.1202,209.4415,160.6973,212.3882,158.781,214.4613,156.2947,217.0273,155.469,220.0778,154.758,223.9897,155.1804,226.1323,156.1909,228.6234,156.6489,231.6523,159.7522,232.7082,163.0282,233.1669,165.2635,232.6473,168.947" style="stroke:#181818;stroke-width:0.5137;"/></g><g class="participant participant-head" data-participant="Sistema"><text fill="#000000" font-family="sans-serif" font-size="14.3835" lengthAdjust="spacing" textLength="53.3195" x="510.0267" y="198.5871">Sistema</text><polygon fill="#E2E2F0" points="552.1655,169.7717,550.3583,172.241,548.2208,175.8577,545.1637,178.2951,541.9513,179.6279,539.3898,179.7436,536.0977,178.0767,532.9914,176.9877,530.6337,174.7766,529.3969,172.2454,528.6635,170.23,527.9449,167.5974,526.7786,165.332,527.6749,163.1202,528.4601,160.6973,531.4067,158.781,533.4798,156.2947,536.0458,155.469,539.0963,154.758,543.0082,155.1804,545.1508,156.1909,547.6419,156.6489,550.6708,159.7522,551.7267,163.0282,552.1855,165.2635,551.6658,168.947" style="stroke:#181818;stroke-width:0.5137;"/><polygon fill="#181818" points="535.6591,154.4441,535.7052,154.4994,536.8011,153.3077,538.1672,152.4402,539.4453,151.4671,540.4342,150.1468,541.8234,149.3071,541.7987,149.2973,541.2769,150.2803,540.8796,151.3132,540.5689,152.3807,539.9598,153.3288,539.7687,154.4441,539.9447,154.5145,539.9792,155.3913,540.5277,156.4737,541.1389,157.5812,541.3852,158.5428,541.8234,159.5811,541.8384,159.599,540.5836,158.5453,539.3968,157.5733,538.1773,156.5618,537.0204,155.6256,535.6591,154.4441" style="stroke:#181818;stroke-width:1.0274;"/></g><g class="participant participant-head" data-participant="DB"><text fill="#000000" font-family="sans-serif" font-size="14.3835" lengthAdjust="spacing" textLength="109.3575" x="721.0744" y="198.5871">Banco de Dados</text><path d="M760.3422,146.225 L760.3422,146.225 L760.4091,146.2938 L762.0596,144.2914 L764.1023,142.6924 L766.0173,140.962 L767.5124,138.7996 L769.5887,137.2353 L769.5839,137.2001 L771.4113,136.7855 L773.2633,136.5481 L775.1324,136.4339 L776.9426,135.8952 L778.8353,135.951 L778.8353,135.951 L778.8701,136.2014 L780.645,135.9228 L782.5215,136.3753 L784.4104,136.9169 L786.2271,136.9396 L788.0818,137.2353 L788.1036,137.2576 L789.921,139.0227 L791.8373,140.8896 L793.7059,142.7074 L795.6655,144.6188 L797.3284,146.225 L797.9412,146.225 L797.9487,151.5674 L797.5609,156.9099 L797.7518,162.2523 L797.9697,167.5948 L797.3284,172.9372 L797.3284,172.9372 L797.0988,172.7011 L795.6951,174.9573 L793.5354,176.436 L791.9504,178.5058 L789.7736,179.9669 L788.0818,181.9269 L788.0775,181.8959 L786.2791,182.5192 L784.3802,182.4186 L782.5405,182.7451 L780.7059,183.1075 L778.8353,183.2112 L778.8353,183.2112 L778.8614,183.3994 L776.9857,182.9525 L775.1547,182.8274 L773.2514,182.1817 L771.4559,182.3124 L769.5887,181.9269 L769.7632,182.1064 L767.8809,180.2745 L766.0853,178.5317 L763.8871,176.3749 L761.9839,174.5216 L760.3422,172.9372 L759.7747,172.9372 L760.2884,167.5948 L760.1627,162.2523 L760.9645,156.9099 L760.1827,151.5674 L760.3422,146.225" fill="#E2E2F0" style="stroke:#181818;stroke-width:0.5137;"/><path d="M760.3422,146.225 L760.3422,146.225 L760.4091,146.2938 L762.0596,147.8872 L764.1023,149.8841 L766.0173,151.7496 L767.5124,153.1832 L769.5887,155.2147 L769.5839,155.1795 L771.4113,155.2786 L773.2633,155.5549 L775.1324,155.9544 L776.9426,155.9294 L778.8353,156.4989 L778.8353,156.4989 L778.8701,156.7493 L780.645,155.957 L782.5215,155.8958 L784.4104,155.9237 L786.2271,155.4327 L788.0818,155.2147 L788.1036,155.237 L789.921,153.4063 L791.8373,151.6772 L793.7059,149.8991 L795.6655,148.2146 L797.3284,146.225" fill="none" style="stroke:#181818;stroke-width:0.5137;"/></g><g class="participant participant-head" data-participant="M.dulo Edge"><polygon fill="#1E90FF" points="849.4387,163.6023,849.4387,163.8182,860.1521,163.1766,870.8656,163.8009,881.579,164.0129,892.2925,162.8693,903.006,163.5224,913.7194,163.1641,924.4329,163.2083,935.1463,163.5323,945.8598,162.892,956.5732,164.1711,967.2867,163.6023,967.2041,163.4029,967.624,163.6902,968.0698,164.0399,968.3652,164.0265,968.7486,164.2257,969.1029,164.3546,969.0928,164.3504,969.3098,164.7412,969.4795,165.1124,969.7396,165.521,969.9171,165.8955,969.8552,166.1708,970.0878,166.1708,969.9424,172.7777,970.014,179.3847,970.0957,185.9916,969.6082,192.5986,969.8552,199.2056,970.0699,199.2945,969.6109,199.5299,969.7232,200.002,969.2472,200.2304,969.2317,200.6495,969.1029,201.0217,969.2001,201.2564,968.7333,201.1568,968.3902,201.356,968.0576,201.5803,967.7045,201.7553,967.2867,201.774,967.2867,201.77,956.5732,202.0691,945.8598,201.1859,935.1463,202.0662,924.4329,202.3372,913.7194,202.2307,903.006,202.4039,892.2925,201.2777,881.579,201.104,870.8656,201.1356,860.1521,201.7135,849.4387,201.774,849.4129,201.7119,849.1647,201.8392,848.6893,201.4179,848.304,201.2141,848.0156,201.2444,847.6225,201.0217,847.4115,200.9344,847.3078,200.5905,847.5269,200.3803,847.3089,199.9891,847.253,199.665,846.8702,199.2056,846.76,199.2056,846.9795,192.5986,847.0724,185.9916,846.7084,179.3847,846.8373,172.7777,846.8702,166.1708,846.91,166.1873,847.2268,165.8929,847.1698,165.4437,847.4679,165.1417,847.2968,164.6452,847.6225,164.3546,847.5337,164.1403,848.0517,164.3635,848.255,163.8268,848.7789,164.0642,849.1025,163.8181,849.4387,163.6023" style="stroke:#00BFFF;stroke-width:0.5137;"/><text fill="#A9DCDF" font-family="Impact" font-size="17.4657" lengthAdjust="spacing" textLength="108.6015" x="854.0619" y="189.4648">M&#243;dulo Edge</text></g><g><title>IHM</title><polygon fill="#A9DCDF" points="206.8803,237.4308,206.8803,237.5028,208.9351,237.2889,210.9899,237.497,213.0447,237.5677,215.0994,237.1865,217.1542,237.4308,217.0744,237.4308,216.7161,247.804,216.7602,258.1771,217.0842,268.5503,216.4439,278.9234,217.723,289.2966,216.5067,299.6698,216.9511,310.0429,217.598,320.4161,217.0661,330.7892,217.2243,341.1624,217.1214,351.5356,217.3377,361.9087,217.3999,372.2819,217.756,382.655,217.8437,393.0282,217.8521,403.4014,217.4158,413.7745,217.6305,424.1477,217.8757,434.5208,216.4133,444.894,217.8513,455.2672,216.8496,465.6403,217.7027,476.0135,216.6457,486.3866,217.0839,496.7598,217.9162,507.133,217.1042,517.5061,217.2624,527.8793,217.5021,538.2524,217.5819,548.6256,217.1502,558.9987,217.4493,569.3719,216.5661,579.7451,217.4464,590.1182,217.7174,600.4914,217.6109,610.8645,217.7841,621.2377,216.6579,631.6109,217.1542,641.984,217.1542,641.7607,215.0994,641.7712,213.0447,641.9639,210.9899,641.9167,208.9351,642.2174,206.8803,641.984,206.7008,641.984,206.5278,631.6109,207.1148,621.2377,206.1952,610.8645,206.3469,600.4914,207.547,590.1182,207.3279,579.7451,207.6349,569.3719,206.5497,558.9987,207.2082,548.6256,207.4869,538.2524,206.3949,527.8793,206.7818,517.5061,207.0097,507.133,207.5499,496.7598,206.876,486.3866,207.3555,476.0135,206.3113,465.6403,206.1845,455.2672,207.3977,444.894,206.1437,434.5208,207.4032,424.1477,207.0926,413.7745,206.605,403.4014,206.5168,393.0282,207.3516,382.655,206.5728,372.2819,207.4884,361.9087,206.3124,351.5356,207.5146,341.1624,207.3779,330.7892,207.132,320.4161,206.9288,310.0429,207.6268,299.6698,207.5107,289.2966,207.0542,278.9234,207.1558,268.5503,206.7465,258.1771,207.6164,247.804,206.8803,237.4308" style="stroke:#181818;stroke-width:1.0274;"/></g><g><title>Sistema</title><polygon fill="#A9DCDF" points="534.6317,371.8387,534.6317,371.9107,536.6865,371.6968,538.7413,371.9049,540.796,371.9756,542.8508,371.5944,544.9056,371.8387,544.8258,371.8387,544.4674,382.2289,544.5116,392.6191,544.8356,403.0093,544.1953,413.3995,545.4744,423.7898,544.2581,434.18,544.7024,444.5702,545.3494,454.9604,544.8175,465.3506,544.9757,475.7408,544.8728,486.131,545.089,496.5212,545.1513,506.9114,545.5074,517.3016,545.5951,527.6918,545.6035,538.082,545.1672,548.4722,545.3819,558.8624,545.6271,569.2526,544.1647,579.6428,545.6027,590.033,544.601,600.4232,545.4541,610.8134,544.397,621.2036,544.8353,631.5938,544.9056,641.984,544.9056,642.238,542.8508,641.9673,540.796,642.0201,538.7413,642.1,536.6865,642.1266,534.6317,641.984,534.6277,641.984,534.9268,631.5938,534.0436,621.2036,534.9239,610.8134,535.1949,600.4232,535.0884,590.033,535.2615,579.6428,534.1354,569.2526,533.9616,558.8624,533.9933,548.4722,534.5712,538.082,534.4298,527.6918,535.3318,517.3016,534.4522,506.9114,534.2792,496.5212,534.8662,486.131,533.9466,475.7408,534.0983,465.3506,535.2984,454.9604,535.0793,444.5702,535.3863,434.18,534.3011,423.7898,534.9596,413.3995,535.2383,403.0093,534.1463,392.6191,534.5332,382.2289,534.6317,371.8387" style="stroke:#181818;stroke-width:1.0274;"/></g><g><title>Banco de Dados</title><polygon fill="#A9DCDF" points="773.6983,237.4308,773.6983,237.5028,775.7531,237.2889,777.8079,237.497,779.8627,237.5677,781.9175,237.1865,783.9723,237.4308,783.8924,237.4308,783.5341,247.804,783.5783,258.1771,783.9022,268.5503,783.262,278.9234,784.5411,289.2966,783.3247,299.6698,783.7691,310.0429,784.416,320.4161,783.8841,330.7892,784.0424,341.1624,783.9394,351.5356,784.1557,361.9087,784.218,372.2819,784.574,382.655,784.6617,393.0282,784.6701,403.4014,784.2339,413.7745,784.4486,424.1477,784.6937,434.5208,783.2313,444.894,784.6694,455.2672,783.6676,465.6403,784.5207,476.0135,783.4637,486.3866,783.9019,496.7598,784.7342,507.133,783.9222,517.5061,784.0805,527.8793,784.3202,538.2524,784.3999,548.6256,783.9683,558.9987,784.2673,569.3719,783.3842,579.7451,784.2644,590.1182,784.5355,600.4914,784.429,610.8645,784.6021,621.2377,783.476,631.6109,783.9723,641.984,783.9723,641.7607,781.9175,641.7712,779.8627,641.9639,777.8079,641.9167,775.7531,642.2174,773.6983,641.984,773.5189,641.984,773.3459,631.6109,773.9328,621.2377,773.0132,610.8645,773.165,600.4914,774.3651,590.1182,774.1459,579.7451,774.4529,569.3719,773.3677,558.9987,774.0263,548.6256,774.3049,538.2524,773.213,527.8793,773.5998,517.5061,773.8278,507.133,774.3679,496.7598,773.694,486.3866,774.1736,476.0135,773.1294,465.6403,773.0025,455.2672,774.2157,444.894,772.9617,434.5208,774.2212,424.1477,773.9106,413.7745,773.4231,403.4014,773.3349,393.0282,774.1696,382.655,773.3908,372.2819,774.3064,361.9087,773.1304,351.5356,774.3327,341.1624,774.1959,330.7892,773.95,320.4161,773.7468,310.0429,774.4448,299.6698,774.3287,289.2966,773.8722,278.9234,773.9739,268.5503,773.5645,258.1771,774.4344,247.804,773.6983,237.4308" style="stroke:#181818;stroke-width:1.0274;"/></g><g class="message" data-participant-1="Supervisor" data-participant-2="IHM"><polygon fill="#00BFFF" points="194.5516,233.3212,194.5783,233.3881,196.5536,234.0114,198.6857,235.0265,200.7668,235.9141,202.68,236.3821,204.8255,237.4308,204.8156,237.4061,202.7165,238.1171,200.6671,238.9527,198.6525,239.8749,196.5184,240.4986,194.5516,241.5404,194.6856,241.6745,195.2208,240.5658,196.1475,239.8487,197.1219,239.1792,197.8184,238.232,198.6611,237.4308,198.6777,237.4473,197.8315,236.6012,197.0605,235.8302,196.2533,235.023,195.5153,234.285,194.5516,233.3212" style="stroke:#00BFFF;stroke-width:1.0274;"/><path d="M52.0754,237.4308 L52.0754,237.7187 L62.6926,236.8632 L73.3098,237.6956 L83.927,237.9783 L94.5441,236.4536 L105.1613,237.3244 L115.7785,236.8466 L126.3957,236.9055 L137.0129,237.3374 L147.63,236.4837 L158.2472,238.1892 L168.8644,236.5674 L179.4816,237.1599 L190.0987,238.0225 L200.7159,237.4308" fill="none" style="stroke:#00BFFF;stroke-width:1.0274;"/><text fill="#000000" font-family="sans-serif" font-size="13.3561" lengthAdjust="spacing" textLength="135.2844" x="59.2672" y="231.4627">Define in&#237;cio de turno</text></g><g class="message" data-participant-1="IHM" data-participant-2="DB"><polygon fill="#00BFFF" points="761.3696,265.8958,761.3963,265.9626,763.3717,266.586,765.5038,267.6011,767.5848,268.4886,769.498,268.9566,771.6435,270.0054,771.6336,269.9807,769.5345,270.6917,767.4852,271.5273,765.4705,272.4495,763.3364,273.0732,761.3696,274.115,761.5037,274.249,762.0389,273.1404,762.9655,272.4233,763.9399,271.7538,764.6365,270.8065,765.4792,270.0054,765.4957,270.0219,764.6495,269.1757,763.8786,268.4048,763.0713,267.5976,762.3333,266.8596,761.3696,265.8958" style="stroke:#00BFFF;stroke-width:1.0274;"/><path d="M217.1542,270.0054 L217.1542,270.2933 L227.3465,269.4378 L237.5387,270.2702 L247.7309,270.5529 L257.9231,269.0281 L268.1153,269.8989 L278.3075,269.4212 L288.4998,269.4801 L298.692,269.912 L308.8842,269.0583 L319.0764,270.7638 L329.2686,269.142 L339.4608,269.7345 L349.6531,270.5971 L359.8453,269.8879 L370.0375,270.0989 L380.2297,269.9616 L390.4219,270.25 L400.6141,270.333 L410.8064,270.8077 L420.9986,270.9246 L431.1908,270.9359 L441.383,270.3542 L451.5752,270.6404 L461.7674,270.9674 L471.9597,269.0175 L482.1519,270.9349 L492.3441,269.5992 L502.5363,270.7366 L512.7285,269.3273 L522.9207,269.9116 L533.113,271.0213 L543.3052,269.9386 L553.4974,270.1496 L563.6896,270.4693 L573.8818,270.5756 L584.074,270 L594.2663,270.3988 L604.4585,269.2213 L614.6507,270.395 L624.8429,270.7563 L635.0351,270.6143 L645.2274,270.8452 L655.4196,269.3436 L665.6118,269.112 L675.804,269.1542 L685.9962,269.9247 L696.1884,269.7362 L706.3807,270.9388 L716.5729,269.7661 L726.7651,269.5355 L736.9573,270.3181 L747.1495,269.0919 L757.3417,269.2943 L767.534,270.0054" fill="none" style="stroke:#00BFFF;stroke-width:1.0274;"/><text fill="#000000" font-family="sans-serif" font-size="13.3561" lengthAdjust="spacing" textLength="145.9025" x="224.346" y="264.0373">Registra in&#237;cio de turno</text></g><polygon fill="#FEFFDD" points="142.8078,283.3615,142.8078,283.5775,153.3979,282.9359,163.988,283.5601,174.578,283.7722,185.1681,282.6286,195.7582,283.2817,206.3482,282.9233,216.9383,282.9675,227.5284,283.2915,238.1184,282.6512,248.7085,283.9303,259.2986,282.714,269.8886,283.1583,280.4787,283.3615,280.5923,283.4562,282.5109,285.8085,284.6062,288.308,286.6347,290.7518,288.7448,293.2637,290.7526,295.6903,290.8176,295.7402,288.8568,298.4838,286.8252,301.1728,284.7727,303.8458,282.6026,306.4283,280.4787,309.0464,280.4787,309.5227,269.8886,309.7679,259.2986,308.3054,248.7085,309.7435,238.1184,308.7418,227.5284,309.5948,216.9383,308.5378,206.3482,308.976,195.7582,309.8083,185.1681,308.9963,174.578,309.1546,163.988,309.3943,153.3979,309.474,142.8078,309.0464,142.8068,309.0456,140.831,306.4351,138.5429,303.5844,136.7207,301.0921,134.7375,298.4759,132.5339,295.6903,132.6508,295.7877,134.75,293.3589,136.5164,290.6529,138.5267,288.15,140.5896,285.691,142.8078,283.3615" style="stroke:#181818;stroke-width:0.5137;"/><text fill="#000000" font-family="sans-serif" font-size="13.3561" lengthAdjust="spacing" textLength="134.0423" x="144.8626" y="301.7488">Tempo total do turno</text><g class="message" data-participant-1="Supervisor" data-participant-2="IHM"><polygon fill="#00BFFF" points="194.5516,335.1546,194.5783,335.2214,196.5536,335.8447,198.6857,336.8599,200.7668,337.7474,202.68,338.2154,204.8255,339.2641,204.8156,339.2394,202.7165,339.9505,200.6671,340.786,198.6525,341.7082,196.5184,342.332,194.5516,343.3737,194.6856,343.5078,195.2208,342.3992,196.1475,341.682,197.1219,341.0126,197.8184,340.0653,198.6611,339.2641,198.6777,339.2807,197.8315,338.4345,197.0605,337.6635,196.2533,336.8563,195.5153,336.1183,194.5516,335.1546" style="stroke:#00BFFF;stroke-width:1.0274;"/><path d="M52.0754,339.2641 L52.0754,339.5521 L62.6926,338.6966 L73.3098,339.5289 L83.927,339.8117 L94.5441,338.2869 L105.1613,339.1577 L115.7785,338.6799 L126.3957,338.7388 L137.0129,339.1708 L147.63,338.3171 L158.2472,340.0226 L168.8644,338.4008 L179.4816,338.9932 L190.0987,339.8559 L200.7159,339.2641" fill="none" style="stroke:#00BFFF;stroke-width:1.0274;"/><text fill="#000000" font-family="sans-serif" font-size="13.3561" lengthAdjust="spacing" textLength="122.7296" x="59.2672" y="333.296">Define fim de turno</text></g><g class="message" data-participant-1="IHM" data-participant-2="Sistema"><polygon fill="#00BFFF" points="522.3029,367.7292,522.3297,367.796,524.305,368.4193,526.4371,369.4344,528.5181,370.322,530.4314,370.79,532.5769,371.8387,532.567,371.814,530.4679,372.525,528.4185,373.3606,526.4039,374.2828,524.2698,374.9066,522.3029,375.9483,522.437,376.0824,522.9722,374.9738,523.8989,374.2566,524.8733,373.5872,525.5698,372.6399,526.4125,371.8387,526.429,371.8553,525.5829,371.0091,524.8119,370.2381,524.0047,369.4309,523.2667,368.6929,522.3029,367.7292" style="stroke:#00BFFF;stroke-width:1.0274;"/><path d="M217.1542,371.8387 L217.1542,372.1267 L227.5313,371.2712 L237.9084,372.1035 L248.2855,372.3862 L258.6626,370.8615 L269.0397,371.7323 L279.4169,371.2545 L289.794,371.3134 L300.1711,371.7454 L310.5482,370.8917 L320.9253,372.5971 L331.3024,370.9753 L341.6795,371.5678 L352.0566,372.4304 L362.4337,371.7212 L372.8108,371.9322 L383.1879,371.795 L393.565,372.0833 L403.9421,372.1663 L414.3192,372.641 L424.6963,372.758 L435.0734,372.7692 L445.4505,372.1875 L455.8276,372.4738 L466.2047,372.8007 L476.5818,370.8508 L486.9589,372.7682 L497.336,371.4326 L507.7131,372.57 L518.0902,371.1606 L528.4673,371.8387" fill="none" style="stroke:#00BFFF;stroke-width:1.0274;"/><text fill="#000000" font-family="sans-serif" font-size="13.3561" lengthAdjust="spacing" textLength="243.0016" x="224.346" y="365.8706">Solicita relat&#243;rio de produ&#231;&#227;o do turno</text></g><g class="message" data-participant-1="Sistema" data-participant-2="DB"><polygon fill="#00BFFF" points="761.3696,400.3037,761.3963,400.3706,763.3717,400.9939,765.5038,402.009,767.5848,402.8966,769.498,403.3646,771.6435,404.4133,771.6336,404.3886,769.5345,405.0996,767.4852,405.9352,765.4705,406.8574,763.3364,407.4811,761.3696,408.5229,761.5037,408.657,762.0389,407.5484,762.9655,406.8312,763.9399,406.1618,764.6365,405.2145,765.4792,404.4133,765.4957,404.4298,764.6495,403.5837,763.8786,402.8127,763.0713,402.0055,762.3333,401.2675,761.3696,400.3037" style="stroke:#00BFFF;stroke-width:1.0274;"/><path d="M544.9056,404.4133 L544.9056,404.7012 L555.0251,403.8458 L565.1446,404.6781 L575.264,404.9608 L585.3835,403.4361 L595.503,404.3069 L605.6224,403.8291 L615.7419,403.888 L625.8614,404.32 L635.9809,403.4662 L646.1003,405.1717 L656.2198,403.5499 L666.3393,404.1424 L676.4587,405.005 L686.5782,404.2958 L696.6977,404.5068 L706.8171,404.3696 L716.9366,404.6579 L727.0561,404.7409 L737.1755,405.2156 L747.295,405.3326 L757.4145,405.3438 L767.534,404.4133" fill="none" style="stroke:#00BFFF;stroke-width:1.0274;"/><text fill="#000000" font-family="sans-serif" font-size="13.3561" lengthAdjust="spacing" textLength="155.2251" x="552.0974" y="398.4452">Consulta dados do turno</text></g><g class="message" data-participant-1="DB" data-participant-2="Sistema"><polygon fill="#00BFFF" points="556.207,432.8783,556.2337,432.9452,554.0995,433.5685,552.122,434.5836,550.0934,435.4712,547.8971,435.9392,545.933,436.9879,545.9231,436.9632,547.9336,437.6742,549.9938,438.5098,552.0887,439.432,554.0642,440.0557,556.207,441.0975,556.341,441.2316,555.2324,440.1229,554.5152,439.4058,553.8458,438.7363,552.8985,437.7891,552.0974,436.9879,552.1139,437.0044,552.9116,436.1583,553.7845,435.3873,554.621,434.5801,555.5269,433.8421,556.207,432.8783" style="stroke:#00BFFF;stroke-width:1.0274;"/><path d="M550.0426,436.9879 L550.0426,437.2758 L560.1621,436.4203 L570.2815,437.2527 L580.401,437.5354 L590.5205,436.0107 L600.6399,436.8815 L610.7594,436.4037 L620.8789,436.4626 L630.9984,436.8945 L641.1178,436.0408 L651.2373,437.7463 L661.3568,436.1245 L671.4762,436.717 L681.5957,437.5796 L691.7152,436.8704 L701.8346,437.0814 L711.9541,436.9441 L722.0736,437.2325 L732.1931,437.3155 L742.3125,437.7902 L752.432,437.9072 L762.5515,437.9184 L772.6709,436.9879" fill="none" style="stroke:#00BFFF;stroke-width:1.0274;stroke-dasharray:2.0548,2.0548;"/><text fill="#000000" font-family="sans-serif" font-size="13.3561" lengthAdjust="spacing" textLength="150.0429" x="562.3713" y="431.0198">Retorna dados do turno</text></g><path d="M402.7386,450.344 L402.9306,450.344 L402.3603,455.892 L402.9152,461.4399 L403.1037,466.9878 L402.0871,472.5358 L402.7386,478.0837 L402.7386,477.8708 L412.8604,476.9152 L422.9821,477.033 L433.1039,477.897 L443.2256,476.1895 L453.3473,479.6005 L463.4691,476.3569 L473.5908,477.5419 L483.7126,479.2671 L493.8343,477.8487 L503.956,478.2706 L514.0778,477.9962 L524.1995,478.5728 L534.3212,478.7388 L544.443,479.6883 L554.5647,479.9222 L564.6865,479.9447 L574.8082,478.7813 L584.9299,479.3538 L595.0517,480.0076 L605.1734,476.1078 L615.2952,479.9426 L625.4169,477.2714 L635.5386,479.5462 L645.6604,476.7275 L655.7821,477.896 L665.9039,480.1155 L676.0256,478.0837 L675.9811,478.0837 L676.1218,474.5905 L676.3348,471.0974 L676.4057,467.6043 L676.022,464.1111 L676.0256,460.618 L676.2111,460.8035 L673.6012,458.1936 L672.0997,456.6921 L670.2152,454.8076 L668.0935,452.6859 L665.7516,450.344 L665.7516,452.0236 L655.6358,449.0205 L645.5199,448.5572 L635.404,448.6416 L625.2881,450.1827 L615.1722,449.8056 L605.0563,452.2109 L594.9405,449.8655 L584.8246,449.4042 L574.7087,450.9694 L564.5928,448.5171 L554.4769,448.9218 L544.361,452.122 L534.2451,451.5376 L524.1293,452.3563 L514.0134,449.4624 L503.8975,451.2185 L493.7816,451.9616 L483.6657,449.0498 L473.5498,450.0814 L463.434,450.6892 L453.3181,452.1297 L443.2022,450.3326 L433.0863,451.6113 L422.9704,448.8268 L412.8545,448.4885 L402.7386,450.344" fill="#FEFFDD" style="stroke:#181818;stroke-width:0.5137;"/><path d="M665.7516,450.344 L666.2116,450.344 L665.0969,452.3988 L666.2164,454.4536 L665.9403,456.5084 L665.507,458.5632 L665.7516,460.618 L665.7516,460.2949 L667.8064,461.0369 L669.8612,460.3446 L671.916,461.1585 L673.9708,460.1132 L676.0256,460.618 L676.4243,461.0167 L674.2835,458.8759 L672.0742,456.6666 L669.8917,454.4841 L668.2756,452.868 L665.7516,450.344" fill="#FEFFDD" style="stroke:#181818;stroke-width:0.5137;"/><text fill="#000000" font-family="sans-serif" font-size="13.3561" lengthAdjust="spacing" textLength="252.3776" x="408.903" y="469.7587">Processa dados para gerar relat&#243;rio CSV</text><g class="message" data-participant-1="Sistema" data-participant-2="Sistema"><path d="M544.9056,508.3015 L544.9056,508.3974 L553.5357,508.1123 L562.1659,508.3897 L570.796,508.484 L579.4261,507.9757 L588.0562,508.3015" fill="none" style="stroke:#00BFFF;stroke-width:1.0274;"/><path d="M588.0562,508.3015 L588.1522,508.3015 L587.867,510.9727 L588.1445,513.6439 L588.2387,516.3151 L587.7304,518.9864 L588.0562,521.6576" fill="none" style="stroke:#00BFFF;stroke-width:1.0274;"/><path d="M545.933,521.6576 L545.933,521.7536 L554.3577,521.4684 L562.7823,521.7458 L571.2069,521.8401 L579.6316,521.3318 L588.0562,521.6576" fill="none" style="stroke:#00BFFF;stroke-width:1.0274;"/><polygon fill="#00BFFF" points="556.207,517.548,556.2337,517.6148,554.0995,518.2382,552.122,519.2533,550.0934,520.1408,547.8971,520.6088,545.933,521.6576,545.9231,521.6329,547.9336,522.3439,549.9938,523.1795,552.0887,524.1017,554.0642,524.7254,556.207,525.7672,556.341,525.9012,555.2324,524.7926,554.5152,524.0754,553.8458,523.406,552.8985,522.4587,552.0974,521.6576,552.1139,521.6741,552.9116,520.8279,553.7845,520.057,554.621,519.2497,555.5269,518.5117,556.207,517.548" style="stroke:#00BFFF;stroke-width:1.0274;"/><text fill="#000000" font-family="sans-serif" font-size="13.3561" lengthAdjust="spacing" textLength="204.1352" x="552.0974" y="502.3333">Converte dados em formato CSV</text></g><g class="message" data-participant-1="Sistema" data-participant-2="Sistema"><path d="M544.9056,554.2322 L544.9056,554.3281 L553.5357,554.043 L562.1659,554.3204 L570.796,554.4147 L579.4261,553.9064 L588.0562,554.2322" fill="none" style="stroke:#00BFFF;stroke-width:1.0274;"/><path d="M588.0562,554.2322 L588.1522,554.2322 L587.867,556.9034 L588.1445,559.5746 L588.2387,562.2458 L587.7304,564.9171 L588.0562,567.5883" fill="none" style="stroke:#00BFFF;stroke-width:1.0274;"/><path d="M545.933,567.5883 L545.933,567.6843 L554.3577,567.3991 L562.7823,567.6766 L571.2069,567.7708 L579.6316,567.2625 L588.0562,567.5883" fill="none" style="stroke:#00BFFF;stroke-width:1.0274;"/><polygon fill="#00BFFF" points="556.207,563.4787,556.2337,563.5455,554.0995,564.1689,552.122,565.184,550.0934,566.0716,547.8971,566.5395,545.933,567.5883,545.9231,567.5636,547.9336,568.2746,549.9938,569.1102,552.0887,570.0324,554.0642,570.6561,556.207,571.6979,556.341,571.8319,555.2324,570.7233,554.5152,570.0062,553.8458,569.3367,552.8985,568.3894,552.0974,567.5883,552.1139,567.6048,552.9116,566.7586,553.7845,565.9877,554.621,565.1805,555.5269,564.4425,556.207,563.4787" style="stroke:#00BFFF;stroke-width:1.0274;"/><text fill="#000000" font-family="sans-serif" font-size="13.3561" lengthAdjust="spacing" textLength="159.4857" x="552.0974" y="548.264">Exporta arquivo CSV local</text></g><g class="message" data-participant-1="Sistema" data-participant-2="M.dulo Edge"><polygon fill="#00BFFF" points="896.0339,596.0533,896.0607,596.1201,898.036,596.7435,900.1681,597.7586,902.2492,598.6461,904.1624,599.1141,906.3079,600.1629,906.298,600.1382,904.1989,600.8492,902.1495,601.6848,900.1349,602.607,898.0008,603.2307,896.0339,604.2725,896.168,604.4065,896.7032,603.2979,897.6299,602.5807,898.6043,601.9113,899.3008,600.964,900.1435,600.1629,900.1601,600.1794,899.3139,599.3332,898.5429,598.5623,897.7357,597.755,896.9977,597.0171,896.0339,596.0533" style="stroke:#00BFFF;stroke-width:1.0274;"/><path d="M544.9056,600.1629 L544.9056,600.4508 L555.114,599.5953 L565.3224,600.4277 L575.5307,600.7104 L585.7391,599.1856 L595.9474,600.0564 L606.1558,599.5786 L616.3642,599.6375 L626.5725,600.0695 L636.7809,599.2158 L646.9893,600.9213 L657.1976,599.2995 L667.406,599.892 L677.6143,600.7546 L687.8227,600.0454 L698.0311,600.2564 L708.2394,600.1191 L718.4478,600.4074 L728.6562,600.4905 L738.8645,600.9652 L749.0729,601.0821 L759.2812,601.0934 L769.4896,600.5117 L779.698,600.7979 L789.9063,601.1248 L800.1147,599.175 L810.3231,601.0923 L820.5314,599.7567 L830.7398,600.8941 L840.9481,599.4848 L851.1565,600.0691 L861.3649,601.1788 L871.5732,600.0961 L881.7816,600.3071 L891.99,600.6268 L902.1983,600.1629" fill="none" style="stroke:#00BFFF;stroke-width:1.0274;"/><text fill="#000000" font-family="sans-serif" font-size="13.3561" lengthAdjust="spacing" textLength="192.7959" x="552.0974" y="594.1947">Envia arquivo CSV para Nuvem</text></g><g class="message" data-participant-1="Sistema" data-participant-2="IHM"><polygon fill="#00BFFF" points="228.4556,628.6279,228.4823,628.6947,226.3481,629.3181,224.3706,630.3332,222.342,631.2207,220.1457,631.6887,218.1816,632.7375,218.1717,632.7128,220.1822,633.4238,222.2424,634.2594,224.3373,635.1815,226.3129,635.8053,228.4556,636.847,228.5896,636.9811,227.481,635.8725,226.7639,635.1553,226.0944,634.4859,225.1471,633.5386,224.346,632.7375,224.3625,632.754,225.1602,631.9078,226.0331,631.1369,226.8697,630.3296,227.7755,629.5916,228.4556,628.6279" style="stroke:#00BFFF;stroke-width:1.0274;"/><path d="M222.2912,632.7375 L222.2912,633.0254 L232.6683,632.1699 L243.0454,633.0022 L253.4225,633.285 L263.7996,631.7602 L274.1767,632.631 L284.5538,632.1532 L294.9309,632.2121 L305.308,632.6441 L315.6851,631.7904 L326.0622,633.4959 L336.4393,631.8741 L346.8164,632.4666 L357.1935,633.3292 L367.5706,632.62 L377.9477,632.8309 L388.3248,632.6937 L398.702,632.982 L409.0791,633.0651 L419.4562,633.5398 L429.8333,633.6567 L440.2104,633.668 L450.5875,633.0863 L460.9646,633.3725 L471.3417,633.6994 L481.7188,631.7495 L492.0959,633.6669 L502.473,632.3313 L512.8501,633.4687 L523.2272,632.0594 L533.6043,632.7375" fill="none" style="stroke:#00BFFF;stroke-width:1.0274;stroke-dasharray:2.0548,2.0548;"/><text fill="#000000" font-family="sans-serif" font-size="13.3561" lengthAdjust="spacing" textLength="292.82" x="234.6199" y="626.7693">Mensagem de confirma&#231;&#227;o de turno finalizado</text></g><text fill="#1E90FF" font-family="Arial" font-size="14.3835" font-weight="bold" lengthAdjust="spacing" textLength="163.6264" x="30.8218" y="688.1818">Casos de Uso cobertos:</text><text fill="#1E90FF" font-family="Arial" font-size="14.3835" lengthAdjust="spacing" textLength="4.6315" x="30.8218" y="707.772">-</text><text fill="#1E90FF" font-family="Arial" font-size="14.3835" font-weight="bold" lengthAdjust="spacing" textLength="62.6831" x="39.193" y="707.772">MDC-001</text><text fill="#1E90FF" font-family="Arial" font-size="14.3835" lengthAdjust="spacing" textLength="200.8364" x="105.6158" y="707.772">Gera&#231;&#227;o de relat&#243;rio de turno</text><polygon fill="none" points="50.8229,25.6849,50.8229,25.9008,61.0855,25.2592,71.348,25.8834,81.6106,26.0955,91.8732,24.9519,102.1358,25.605,112.3983,25.2467,122.6609,25.2909,132.9235,25.6148,143.1861,24.9746,153.4486,26.2537,163.7112,25.0373,173.9738,25.4817,184.2364,26.1286,194.4989,25.5967,204.7615,25.755,215.0241,25.652,225.2867,25.8683,235.5493,25.9305,245.8118,26.2866,256.0744,26.3743,266.337,26.3827,276.5996,25.9465,286.8621,26.1611,297.1247,26.4063,307.3873,24.9439,317.6499,26.382,327.9124,25.3802,338.175,26.2333,348.4376,25.1763,358.7002,25.6145,368.9628,26.4468,379.2253,25.6348,389.4879,25.793,399.7505,26.0328,410.0131,26.1125,420.2756,25.6808,430.5382,25.9799,440.8008,25.0968,451.0634,25.977,461.3259,26.2481,471.5885,26.1416,481.8511,26.3147,492.1137,25.1885,502.3762,25.0148,512.6388,25.0464,522.9014,25.6244,533.164,25.483,543.4266,26.3849,553.6891,25.5054,563.9517,25.3324,574.2143,25.9194,584.4769,24.9998,594.7394,25.1515,605.002,26.3516,615.2646,26.1325,625.5272,26.4395,635.7897,25.3543,646.0523,26.0128,656.3149,26.2915,666.5775,25.1995,676.8401,25.5864,687.1026,25.8143,697.3652,26.3545,707.6278,25.6806,717.8904,26.1601,728.1529,25.1159,738.4155,24.9891,748.6781,26.2023,758.9407,24.9483,769.2032,26.2078,779.4658,25.8972,789.7284,25.4096,799.991,25.3214,810.2535,26.1562,820.5161,25.3773,830.7787,26.2929,841.0413,25.117,851.3039,26.3192,861.5664,26.1824,871.829,25.9365,882.0916,25.7334,892.3542,26.4314,902.6167,26.3152,912.8793,25.8588,923.1419,25.6849,923.177,25.7697,924.2145,26.095,925.4152,26.8143,926.4313,27.088,927.5234,27.545,928.5905,27.9417,928.398,27.862,928.9136,28.9783,929.6612,30.1907,930.0806,31.2672,930.3824,32.295,930.8474,33.3903,930.5164,33.3903,930.6224,44.1245,930.1424,54.8587,931.2735,65.593,931.6072,76.3272,930.8474,87.0614,931.0139,87.1304,930.6159,88.2422,929.9013,89.2229,929.5208,90.342,928.9192,91.3695,928.5905,92.51,928.6277,92.5998,927.5331,93.0394,926.4834,93.5875,925.2912,93.7914,924.214,94.2729,923.1419,94.7668,923.1419,95.2225,912.8793,95.3497,902.6167,94.2403,892.3542,94.5677,882.0916,94.9202,871.829,94.1393,861.5664,95.1299,851.3039,95.0319,841.0413,94.6633,830.7787,94.913,820.5161,95.5155,810.2535,94.4454,799.991,95.0905,789.7284,95.0603,779.4658,94.8858,769.2032,94.9116,758.9407,94.8834,748.6781,94.1256,738.4155,94.355,728.1529,94.2927,717.8904,94.8324,707.6278,94.8574,697.3652,94.933,687.1026,94.4679,676.8401,94.6975,666.5775,94.6433,656.3149,95.3595,646.0523,95.2051,635.7897,94.268,625.5272,94.6919,615.2646,94.1738,605.002,95.0631,594.7394,95.392,584.4769,95.3263,574.2143,94.3194,563.9517,95.2435,553.6891,94.0037,543.4266,94.9725,533.164,94.4593,522.9014,94.8662,512.6388,95.0138,502.3762,95.2519,492.1137,94.0272,481.8511,95.2553,471.5885,94.9499,461.3259,95.1319,451.0634,95.5351,440.8008,94.7725,430.5382,94.9469,420.2756,94.9861,410.0131,94.9695,399.7505,94.766,389.4879,95.497,379.2253,94.1404,368.9628,95.3476,358.7002,94.1257,348.4376,94.2117,338.175,94.808,327.9124,94.7959,317.6499,94.2605,307.3873,95.1919,297.1247,94.8787,286.8621,95.5134,276.5996,95.4522,266.337,94.3063,256.0744,94.358,245.8118,94.6341,235.5493,95.1321,225.2867,95.1809,215.0241,95.0762,204.7615,94.4155,194.4989,95.4206,184.2364,95.418,173.9738,94.7183,163.7112,94.5212,153.4486,94.3545,143.1861,94.5464,132.9235,94.908,122.6609,94.6966,112.3983,94.3376,102.1358,95.2676,91.8732,94.2953,81.6106,95.283,71.348,95.2058,61.0855,95.1489,50.8229,94.7668,50.9136,94.9859,49.7009,94.2377,48.604,93.769,47.6217,93.5769,46.3858,92.7725,45.3743,92.51,45.3003,92.4793,44.9595,91.4354,44.4933,90.3395,43.9068,89.1938,43.5552,88.1455,43.1174,87.0614,43.8824,87.0614,43.7837,76.3272,42.5048,65.593,43.1981,54.8587,42.5894,44.1245,43.1174,33.3903,43.1091,33.3869,43.6615,32.339,44.153,31.2659,44.2612,30.0341,45.0496,29.0839,45.3743,27.9417,45.3754,27.9444,46.3912,27.3147,47.492,26.89,48.6862,26.6909,49.7659,26.2153,50.8229,25.6849" style="stroke:#000000;stroke-width:1.0274;"/><text fill="#1E90FF" font-family="Arial" font-size="20.5479" font-weight="bold" lengthAdjust="spacing" textLength="846.6342" x="63.6653" y="68.1984">Diagrama de Sequ&#234;ncia - M&#243;dulo de Dados e Conectividade (MDC) - Relat&#243;rio turno</text><!--SRC=[VLCzZzD04EttLmnf0Ejo7AqBYiG1hWX25w2VUCVEIkiTttfj0N-70Wc9wZfQ_p5c_H7dT88qZjTlthptPlQPSRbjDK6sUtkuhjlAAcMf9ASXSAq0aYGpM7gi40HreFks_-LoWx26VV-WMylnF4FD3H1isL4UJ6SqokcBVRPzAS0xiXZw1syOGkiT9ucA3SO-Ic4UsCFuExGr-SuqxDMHMwVHVul7j-_tAcSNFDiHPff05Igru67z9i9IoAWmZi2u_dTk1dL3qzZ6T1Xe8DCOy8WDmMg3Bbyyh00Ro3OBMFuBFf9d6qZ5IYcjFJwbFpaME7VaOmE1VgAg5iCSq8AUdFz7Rs6gXMngETbCuS3Mv2OW-2LA0TUUTTl_x7_mqk6iVCveUeuMqZYYfhL2fOUPdUl4tlgovHt9LDmJs7EupSvlLt1YFop65CShSN45SL9OKZMRduI6OKLS_wSYFyf7ZrhohYMD0kq9hzKIuYmxXO-USsgQMKgiWf8y-iiqjeSlbqxFDiIki0dfM2oY2lOLXdzNxBwA7ia7_NrhkW47bdEqb-ZLlFmxNT9AYbnd7fSCCZ-q7LLBtJpoFRbc24X2aB0A8ugcCKuR8ElWq9hl8bgfWYKLFrp6BJPn6WIV6vRIerZZ9fKB9PTYBT_bngrlRbud2RoJXCwSZzTcd6IyWXFpNm00]--></g></svg>