<svg xmlns="http://www.w3.org/2000/svg" xmlns:xlink="http://www.w3.org/1999/xlink" contentStyleType="text/css" data-diagram-type="SEQUENCE" height="750.3497px" preserveAspectRatio="none" style="width:943px;height:750px;background:#EEEBDC;" version="1.1" viewBox="0 0 943 750" width="943.0731px" zoomAndPan="magnify"><defs/><g><rect fill="#EEEBDC" height="750.3497" style="stroke:none;stroke-width:0.9783;" width="943.0731" x="0" y="0"/><rect fill="#FFFFCC" height="26.0623" rx="2.4457" ry="2.4457" style="stroke:#FFDD88;stroke-width:2.9349;" width="933.2852" x="4.8915" y="4.8915"/><text fill="#000000" font-family="monospace" font-size="9.7829" lengthAdjust="spacing" textLength="347.4989" x="9.7829" y="19.5658">Please&#160;use&#160;'!option&#160;handwritten&#160;true'&#160;to&#160;enable&#160;handwritten</text><g><title>IHM</title><polygon fill="#A9DCDF" points="196.9927,261.9283,196.9927,261.9969,198.9493,261.7932,200.9059,261.9914,202.8625,262.0587,204.8191,261.6957,206.7756,261.9283,206.6996,261.9283,206.3584,271.8057,206.4005,281.6831,206.709,291.5605,206.0993,301.4379,207.3173,311.3153,206.159,321.1927,206.5822,331.0701,207.1982,340.9475,206.6917,350.8248,206.8424,360.7022,206.7444,370.5796,206.9503,380.457,207.0096,390.3344,207.3486,400.2118,207.4321,410.0892,207.4402,419.9666,207.0247,429.8439,207.2292,439.7213,207.4626,449.5987,206.0701,459.4761,207.4394,469.3535,206.4856,479.2309,207.2979,489.1083,206.2914,498.9857,206.7086,508.8631,207.5012,518.7404,206.728,528.6178,206.8787,538.4952,207.1069,548.3726,207.1828,558.25,206.7718,568.1274,207.0566,578.0048,206.2157,587.8822,207.0539,597.7596,207.3119,607.6369,207.2105,617.5143,207.3754,627.3917,206.3031,637.2691,206.7756,647.1465,206.7756,646.9338,204.8191,646.9439,202.8625,647.1273,200.9059,647.0824,198.9493,647.3687,196.9927,647.1465,196.8218,647.1465,196.6571,637.2691,197.216,627.3917,196.3404,617.5143,196.4849,607.6369,197.6276,597.7596,197.4189,587.8822,197.7113,578.0048,196.6779,568.1274,197.305,558.25,197.5703,548.3726,196.5306,538.4952,196.899,528.6178,197.116,518.7404,197.6303,508.8631,196.9886,498.9857,197.4453,489.1083,196.451,479.2309,196.3302,469.3535,197.4854,459.4761,196.2914,449.5987,197.4906,439.7213,197.1949,429.8439,196.7306,419.9666,196.6466,410.0892,197.4415,400.2118,196.6999,390.3344,197.5717,380.457,196.452,370.5796,197.5968,360.7022,197.4665,350.8248,197.2324,340.9475,197.0389,331.0701,197.7036,321.1927,197.593,311.3153,197.1583,301.4379,197.2551,291.5605,196.8653,281.6831,197.6936,271.8057,196.9927,261.9283" style="stroke:#181818;stroke-width:0.9783;"/></g><g><title>Sistema</title><polygon fill="#A9DCDF" points="509.0797,389.9124,509.0797,389.981,511.0363,389.7773,512.9929,389.9755,514.9494,390.0428,516.906,389.6798,518.8626,389.9124,518.7866,389.9124,518.4454,399.806,518.4874,409.6997,518.7959,419.5933,518.1863,429.4869,519.4042,439.3805,518.246,449.2741,518.6691,459.1678,519.2852,469.0614,518.7787,478.955,518.9294,488.8486,518.8314,498.7422,519.0373,508.6358,519.0966,518.5295,519.4356,528.4231,519.5191,538.3167,519.5271,548.2103,519.1117,558.1039,519.3161,567.9976,519.5496,577.8912,518.1571,587.7848,519.5264,597.6784,518.5725,607.572,519.3848,617.4656,518.3783,627.3593,518.7956,637.2529,518.8626,647.1465,518.8626,647.3883,516.906,647.1306,514.9494,647.1808,512.9929,647.2569,511.0363,647.2822,509.0797,647.1465,509.0759,647.1465,509.3607,637.2529,508.5197,627.3593,509.3579,617.4656,509.616,607.572,509.5146,597.6784,509.6794,587.7848,508.6071,577.8912,508.4417,567.9976,508.4718,558.1039,509.0221,548.2103,508.8874,538.3167,509.7463,528.4231,508.9088,518.5295,508.7441,508.6358,509.303,498.7422,508.4273,488.8486,508.5718,478.955,509.7146,469.0614,509.5059,459.1678,509.7982,449.2741,508.7649,439.3805,509.392,429.4869,509.6573,419.5933,508.6175,409.6997,508.9859,399.806,509.0797,389.9124" style="stroke:#181818;stroke-width:0.9783;"/></g><g><title>Banco de Dados</title><polygon fill="#A9DCDF" points="736.7205,261.9283,736.7205,261.9969,738.6771,261.7932,740.6336,261.9914,742.5902,262.0587,744.5468,261.6957,746.5034,261.9283,746.4274,261.9283,746.0862,271.8057,746.1282,281.6831,746.4367,291.5605,745.827,301.4379,747.045,311.3153,745.8868,321.1927,746.3099,331.0701,746.926,340.9475,746.4195,350.8248,746.5702,360.7022,746.4721,370.5796,746.678,380.457,746.7373,390.3344,747.0764,400.2118,747.1599,410.0892,747.1679,419.9666,746.7525,429.8439,746.9569,439.7213,747.1904,449.5987,745.7979,459.4761,747.1672,469.3535,746.2133,479.2309,747.0256,489.1083,746.0191,498.9857,746.4364,508.8631,747.2289,518.7404,746.4557,528.6178,746.6064,538.4952,746.8347,548.3726,746.9106,558.25,746.4996,568.1274,746.7844,578.0048,745.9434,587.8822,746.7816,597.7596,747.0397,607.6369,746.9383,617.5143,747.1031,627.3917,746.0308,637.2691,746.5034,647.1465,746.5034,646.9338,744.5468,646.9439,742.5902,647.1273,740.6336,647.0824,738.6771,647.3687,736.7205,647.1465,736.5496,647.1465,736.3849,637.2691,736.9438,627.3917,736.0681,617.5143,736.2126,607.6369,737.3553,597.7596,737.1467,587.8822,737.439,578.0048,736.4057,568.1274,737.0327,558.25,737.2981,548.3726,736.2583,538.4952,736.6267,528.6178,736.8437,518.7404,737.3581,508.8631,736.7164,498.9857,737.173,489.1083,736.1787,479.2309,736.0579,469.3535,737.2132,459.4761,736.0191,449.5987,737.2184,439.7213,736.9226,429.8439,736.4584,419.9666,736.3744,410.0892,737.1693,400.2118,736.4276,390.3344,737.2995,380.457,736.1797,370.5796,737.3245,360.7022,737.1943,350.8248,736.9601,340.9475,736.7667,331.0701,737.4313,321.1927,737.3207,311.3153,736.8861,301.4379,736.9828,291.5605,736.593,281.6831,737.4214,271.8057,736.7205,261.9283" style="stroke:#181818;stroke-width:0.9783;"/></g><g><title>Supervisor</title><polygon fill="#000000" fill-opacity="0.00000" points="45.6734,228.954,45.6734,229.0226,47.2387,228.8189,48.8039,229.0171,50.3692,229.0844,51.9345,228.7214,53.4997,228.954,53.4237,228.954,53.0825,238.6585,53.1246,248.363,53.4331,258.0675,52.8234,267.7719,54.0414,277.4764,52.8831,287.1809,53.3063,296.8854,53.9223,306.5899,53.4158,316.2943,53.5665,325.9988,53.4685,335.7033,53.6744,345.4078,53.7337,355.1123,54.0727,364.8167,54.1562,374.5212,54.1642,384.2257,53.7488,393.9302,53.9533,403.6347,54.1867,413.3391,52.7942,423.0436,54.1635,432.7481,53.2097,442.4526,54.022,452.1571,53.0155,461.8615,53.4327,471.566,54.2252,481.2705,53.4521,490.975,53.6027,500.6795,53.831,510.3839,53.9069,520.0884,53.4959,529.7929,53.7807,539.4974,52.9397,549.2018,53.7779,558.9063,54.036,568.6108,53.9346,578.3153,54.0994,588.0198,53.0271,597.7242,52.8617,607.4287,52.8918,617.1332,53.4421,626.8377,53.3075,636.5422,54.1664,646.2466,53.4997,655.9511,53.4997,655.8942,51.9345,655.8393,50.3692,656.0256,48.8039,655.7337,47.2387,655.7818,45.6734,655.9511,46.3083,655.9511,46.0996,646.2466,46.3919,636.5422,45.3586,626.8377,45.9857,617.1332,46.251,607.4287,45.2112,597.7242,45.5796,588.0198,45.7966,578.3153,46.311,568.6108,45.6693,558.9063,46.1259,549.2018,45.1316,539.4974,45.0108,529.7929,46.1661,520.0884,44.972,510.3839,46.1713,500.6795,45.8755,490.975,45.4113,481.2705,45.3273,471.566,46.1222,461.8615,45.3806,452.1571,46.2524,442.4526,45.1327,432.7481,46.2774,423.0436,46.1472,413.3391,45.9131,403.6347,45.7196,393.9302,46.3842,384.2257,46.2737,374.5212,45.839,364.8167,45.9358,355.1123,45.546,345.4078,46.3743,335.7033,45.8249,325.9988,45.8422,316.2943,45.0783,306.5899,45.277,296.8854,46.1926,287.1809,46.0938,277.4764,45.6314,267.7719,45.3582,258.0675,45.4592,248.363,45.0021,238.6585,45.6734,228.954"/><path d="M48.9146,228.954 L49.1887,228.954 L48.3741,238.6585 L49.1667,248.363 L49.4359,258.0675 L47.984,267.7719 L48.8132,277.4764 L48.3583,287.1809 L48.4143,296.8854 L48.8257,306.5899 L48.0128,316.2943 L49.6367,325.9988 L48.0924,335.7033 L48.6566,345.4078 L49.478,355.1123 L48.8027,364.8167 L49.0036,374.5212 L48.8729,384.2257 L49.1474,393.9302 L49.2265,403.6347 L49.6785,413.3391 L49.7899,423.0436 L49.8006,432.7481 L49.2467,442.4526 L49.5193,452.1571 L49.8306,461.8615 L47.9739,471.566 L49.7996,481.2705 L48.5278,490.975 L49.6109,500.6795 L48.2689,510.3839 L48.8252,520.0884 L49.8819,529.7929 L48.851,539.4974 L49.0519,549.2018 L49.3563,558.9063 L49.4575,568.6108 L48.9095,578.3153 L49.2892,588.0198 L48.1679,597.7242 L49.2855,607.4287 L49.6296,617.1332 L49.4944,626.8377 L49.7142,636.5422 L48.2845,646.2466 L48.9146,655.9511" fill="none" style="stroke:#0000FF;stroke-width:0.4891;stroke-dasharray:4.8915,4.8915;"/></g><g><title>IHM</title><polygon fill="#000000" fill-opacity="0.00000" points="197.971,228.954,197.971,229.0226,199.5363,228.8189,201.1016,229.0171,202.6668,229.0844,204.2321,228.7214,205.7974,228.954,205.7213,228.954,205.3801,238.6585,205.4222,248.363,205.7307,258.0675,205.121,267.7719,206.339,277.4764,205.1808,287.1809,205.6039,296.8854,206.2199,306.5899,205.7134,316.2943,205.8641,325.9988,205.7661,335.7033,205.972,345.4078,206.0313,355.1123,206.3703,364.8167,206.4538,374.5212,206.4619,384.2257,206.0465,393.9302,206.2509,403.6347,206.4843,413.3391,205.0918,423.0436,206.4611,432.7481,205.5073,442.4526,206.3196,452.1571,205.3131,461.8615,205.7303,471.566,206.5229,481.2705,205.7497,490.975,205.9004,500.6795,206.1286,510.3839,206.2046,520.0884,205.7935,529.7929,206.0783,539.4974,205.2374,549.2018,206.0756,558.9063,206.3337,568.6108,206.2322,578.3153,206.3971,588.0198,205.3248,597.7242,205.1593,607.4287,205.1894,617.1332,205.7398,626.8377,205.6051,636.5422,206.464,646.2466,205.7974,655.9511,205.7974,655.8942,204.2321,655.8393,202.6668,656.0256,201.1016,655.7337,199.5363,655.7818,197.971,655.9511,198.6059,655.9511,198.3972,646.2466,198.6896,636.5422,197.6562,626.8377,198.2833,617.1332,198.5486,607.4287,197.5089,597.7242,197.8772,588.0198,198.0943,578.3153,198.6086,568.6108,197.9669,558.9063,198.4236,549.2018,197.4293,539.4974,197.3085,529.7929,198.4637,520.0884,197.2696,510.3839,198.4689,500.6795,198.1732,490.975,197.7089,481.2705,197.6249,471.566,198.4198,461.8615,197.6782,452.1571,198.55,442.4526,197.4303,432.7481,198.575,423.0436,198.4448,413.3391,198.2107,403.6347,198.0172,393.9302,198.6819,384.2257,198.5713,374.5212,198.1366,364.8167,198.2334,355.1123,197.8436,345.4078,198.6719,335.7033,198.1225,325.9988,198.1399,316.2943,197.3759,306.5899,197.5746,296.8854,198.4902,287.1809,198.3915,277.4764,197.929,267.7719,197.6558,258.0675,197.7568,248.363,197.2997,238.6585,197.971,228.954"/><path d="M201.395,228.954 L201.6692,228.954 L200.8546,238.6585 L201.6472,248.363 L201.9164,258.0675 L200.4645,267.7719 L201.2937,277.4764 L200.8387,287.1809 L200.8948,296.8854 L201.3061,306.5899 L200.4932,316.2943 L202.1172,325.9988 L200.5729,335.7033 L201.1371,345.4078 L201.9585,355.1123 L201.2832,364.8167 L201.4841,374.5212 L201.3534,384.2257 L201.6279,393.9302 L201.707,403.6347 L202.159,413.3391 L202.2704,423.0436 L202.2811,432.7481 L201.7272,442.4526 L201.9997,452.1571 L202.311,461.8615 L200.4543,471.566 L202.2801,481.2705 L201.0083,490.975 L202.0913,500.6795 L200.7493,510.3839 L201.3057,520.0884 L202.3624,529.7929 L201.3315,539.4974 L201.5324,549.2018 L201.8367,558.9063 L201.938,568.6108 L201.3899,578.3153 L201.7697,588.0198 L200.6484,597.7242 L201.766,607.4287 L202.1101,617.1332 L201.9749,626.8377 L202.1947,636.5422 L200.7649,646.2466 L201.395,655.9511" fill="none" style="stroke:#0000FF;stroke-width:0.4891;stroke-dasharray:4.8915,4.8915;"/></g><g><title>Sistema</title><polygon fill="#000000" fill-opacity="0.00000" points="510.058,228.954,510.058,229.0226,511.6233,228.8189,513.1885,229.0171,514.7538,229.0844,516.3191,228.7214,517.8843,228.954,517.8083,228.954,517.4671,238.6585,517.5091,248.363,517.8176,258.0675,517.208,267.7719,518.4259,277.4764,517.2677,287.1809,517.6908,296.8854,518.3069,306.5899,517.8004,316.2943,517.9511,325.9988,517.8531,335.7033,518.059,345.4078,518.1183,355.1123,518.4573,364.8167,518.5408,374.5212,518.5488,384.2257,518.1334,393.9302,518.3378,403.6347,518.5713,413.3391,517.1788,423.0436,518.5481,432.7481,517.5943,442.4526,518.4065,452.1571,517.4,461.8615,517.8173,471.566,518.6098,481.2705,517.8366,490.975,517.9873,500.6795,518.2156,510.3839,518.2915,520.0884,517.8805,529.7929,518.1653,539.4974,517.3243,549.2018,518.1625,558.9063,518.4206,568.6108,518.3192,578.3153,518.484,588.0198,517.4117,597.7242,517.2463,607.4287,517.2764,617.1332,517.8267,626.8377,517.6921,636.5422,518.5509,646.2466,517.8843,655.9511,517.8843,655.8942,516.3191,655.8393,514.7538,656.0256,513.1885,655.7337,511.6233,655.7818,510.058,655.9511,510.6929,655.9511,510.4842,646.2466,510.7765,636.5422,509.7432,626.8377,510.3703,617.1332,510.6356,607.4287,509.5958,597.7242,509.9642,588.0198,510.1812,578.3153,510.6956,568.6108,510.0539,558.9063,510.5105,549.2018,509.5162,539.4974,509.3954,529.7929,510.5507,520.0884,509.3566,510.3839,510.5559,500.6795,510.2601,490.975,509.7959,481.2705,509.7119,471.566,510.5068,461.8615,509.7652,452.1571,510.637,442.4526,509.5172,432.7481,510.662,423.0436,510.5318,413.3391,510.2976,403.6347,510.1042,393.9302,510.7688,384.2257,510.6582,374.5212,510.2236,364.8167,510.3204,355.1123,509.9306,345.4078,510.7589,335.7033,510.2095,325.9988,510.2268,316.2943,509.4628,306.5899,509.6616,296.8854,510.5772,287.1809,510.4784,277.4764,510.016,267.7719,509.7428,258.0675,509.8438,248.363,509.3867,238.6585,510.058,228.954"/><path d="M513.0428,228.954 L513.317,228.954 L512.5024,238.6585 L513.295,248.363 L513.5642,258.0675 L512.1123,267.7719 L512.9415,277.4764 L512.4865,287.1809 L512.5426,296.8854 L512.9539,306.5899 L512.141,316.2943 L513.765,325.9988 L512.2207,335.7033 L512.7849,345.4078 L513.6063,355.1123 L512.931,364.8167 L513.1319,374.5212 L513.0012,384.2257 L513.2757,393.9302 L513.3548,403.6347 L513.8068,413.3391 L513.9182,423.0436 L513.9289,432.7481 L513.375,442.4526 L513.6475,452.1571 L513.9588,461.8615 L512.1021,471.566 L513.9279,481.2705 L512.6561,490.975 L513.7391,500.6795 L512.3971,510.3839 L512.9535,520.0884 L514.0102,529.7929 L512.9793,539.4974 L513.1802,549.2018 L513.4846,558.9063 L513.5858,568.6108 L513.0378,578.3153 L513.4175,588.0198 L512.2962,597.7242 L513.4138,607.4287 L513.7579,617.1332 L513.6227,626.8377 L513.8425,636.5422 L512.4127,646.2466 L513.0428,655.9511" fill="none" style="stroke:#0000FF;stroke-width:0.4891;stroke-dasharray:4.8915,4.8915;"/></g><g><title>Banco de Dados</title><polygon fill="#000000" fill-opacity="0.00000" points="737.6988,228.954,737.6988,229.0226,739.264,228.8189,740.8293,229.0171,742.3946,229.0844,743.9598,228.7214,745.5251,228.954,745.4491,228.954,745.1079,238.6585,745.1499,248.363,745.4584,258.0675,744.8487,267.7719,746.0667,277.4764,744.9085,287.1809,745.3316,296.8854,745.9477,306.5899,745.4412,316.2943,745.5919,325.9988,745.4938,335.7033,745.6998,345.4078,745.759,355.1123,746.0981,364.8167,746.1816,374.5212,746.1896,384.2257,745.7742,393.9302,745.9786,403.6347,746.2121,413.3391,744.8196,423.0436,746.1889,432.7481,745.235,442.4526,746.0473,452.1571,745.0408,461.8615,745.4581,471.566,746.2506,481.2705,745.4774,490.975,745.6281,500.6795,745.8564,510.3839,745.9323,520.0884,745.5213,529.7929,745.8061,539.4974,744.9651,549.2018,745.8033,558.9063,746.0614,568.6108,745.96,578.3153,746.1248,588.0198,745.0525,597.7242,744.8871,607.4287,744.9172,617.1332,745.4675,626.8377,745.3328,636.5422,746.1917,646.2466,745.5251,655.9511,745.5251,655.8942,743.9598,655.8393,742.3946,656.0256,740.8293,655.7337,739.264,655.7818,737.6988,655.9511,738.3336,655.9511,738.125,646.2466,738.4173,636.5422,737.384,626.8377,738.011,617.1332,738.2764,607.4287,737.2366,597.7242,737.605,588.0198,737.822,578.3153,738.3364,568.6108,737.6947,558.9063,738.1513,549.2018,737.157,539.4974,737.0362,529.7929,738.1914,520.0884,736.9974,510.3839,738.1967,500.6795,737.9009,490.975,737.4367,481.2705,737.3527,471.566,738.1476,461.8615,737.4059,452.1571,738.2778,442.4526,737.158,432.7481,738.3028,423.0436,738.1726,413.3391,737.9384,403.6347,737.745,393.9302,738.4096,384.2257,738.299,374.5212,737.8644,364.8167,737.9611,355.1123,737.5713,345.4078,738.3997,335.7033,737.8503,325.9988,737.8676,316.2943,737.1036,306.5899,737.3023,296.8854,738.218,287.1809,738.1192,277.4764,737.6568,267.7719,737.3836,258.0675,737.4846,248.363,737.0275,238.6585,737.6988,228.954"/><path d="M741.3959,228.954 L741.6701,228.954 L740.8555,238.6585 L741.6481,248.363 L741.9173,258.0675 L740.4654,267.7719 L741.2946,277.4764 L740.8396,287.1809 L740.8957,296.8854 L741.307,306.5899 L740.4941,316.2943 L742.1181,325.9988 L740.5738,335.7033 L741.138,345.4078 L741.9594,355.1123 L741.284,364.8167 L741.4849,374.5212 L741.3543,384.2257 L741.6288,393.9302 L741.7079,403.6347 L742.1599,413.3391 L742.2712,423.0436 L742.282,432.7481 L741.7281,442.4526 L742.0006,452.1571 L742.3119,461.8615 L740.4552,471.566 L742.281,481.2705 L741.0092,490.975 L742.0922,500.6795 L740.7502,510.3839 L741.3066,520.0884 L742.3633,529.7929 L741.3324,539.4974 L741.5333,549.2018 L741.8376,558.9063 L741.9389,568.6108 L741.3908,578.3153 L741.7706,588.0198 L740.6493,597.7242 L741.7669,607.4287 L742.111,617.1332 L741.9758,626.8377 L742.1956,636.5422 L740.7658,646.2466 L741.3959,655.9511" fill="none" style="stroke:#0000FF;stroke-width:0.4891;stroke-dasharray:4.8915,4.8915;"/></g><g><title>M.dulo Edge</title><polygon fill="#000000" fill-opacity="0.00000" points="861.0356,228.954,861.0356,229.0226,862.6008,228.8189,864.1661,229.0171,865.7314,229.0844,867.2966,228.7214,868.8619,228.954,868.7859,228.954,868.4447,238.6585,868.4867,248.363,868.7952,258.0675,868.1855,267.7719,869.4035,277.4764,868.2453,287.1809,868.6684,296.8854,869.2845,306.5899,868.778,316.2943,868.9287,325.9988,868.8307,335.7033,869.0366,345.4078,869.0959,355.1123,869.4349,364.8167,869.5184,374.5212,869.5264,384.2257,869.111,393.9302,869.3154,403.6347,869.5489,413.3391,868.1564,423.0436,869.5257,432.7481,868.5718,442.4526,869.3841,452.1571,868.3776,461.8615,868.7949,471.566,869.5874,481.2705,868.8142,490.975,868.9649,500.6795,869.1932,510.3839,869.2691,520.0884,868.8581,529.7929,869.1429,539.4974,868.3019,549.2018,869.1401,558.9063,869.3982,568.6108,869.2968,578.3153,869.4616,588.0198,868.3893,597.7242,868.2239,607.4287,868.254,617.1332,868.8043,626.8377,868.6696,636.5422,869.5285,646.2466,868.8619,655.9511,868.8619,655.8942,867.2966,655.8393,865.7314,656.0256,864.1661,655.7337,862.6008,655.7818,861.0356,655.9511,861.6704,655.9511,861.4618,646.2466,861.7541,636.5422,860.7208,626.8377,861.3478,617.1332,861.6132,607.4287,860.5734,597.7242,860.9418,588.0198,861.1588,578.3153,861.6732,568.6108,861.0315,558.9063,861.4881,549.2018,860.4938,539.4974,860.373,529.7929,861.5283,520.0884,860.3342,510.3839,861.5335,500.6795,861.2377,490.975,860.7735,481.2705,860.6895,471.566,861.4844,461.8615,860.7427,452.1571,861.6146,442.4526,860.4948,432.7481,861.6396,423.0436,861.5094,413.3391,861.2752,403.6347,861.0818,393.9302,861.7464,384.2257,861.6358,374.5212,861.2012,364.8167,861.2979,355.1123,860.9081,345.4078,861.7365,335.7033,861.1871,325.9988,861.2044,316.2943,860.4404,306.5899,860.6391,296.8854,861.5548,287.1809,861.456,277.4764,860.9936,267.7719,860.7204,258.0675,860.8214,248.363,860.3643,238.6585,861.0356,228.954"/><path d="M864.1144,228.954 L864.3885,228.954 L863.574,238.6585 L864.3665,248.363 L864.6357,258.0675 L863.1838,267.7719 L864.013,277.4764 L863.5581,287.1809 L863.6142,296.8854 L864.0255,306.5899 L863.2126,316.2943 L864.8366,325.9988 L863.2923,335.7033 L863.8564,345.4078 L864.6778,355.1123 L864.0025,364.8167 L864.2034,374.5212 L864.0727,384.2257 L864.3473,393.9302 L864.4263,403.6347 L864.8784,413.3391 L864.9897,423.0436 L865.0004,432.7481 L864.4465,442.4526 L864.7191,452.1571 L865.0304,461.8615 L863.1737,471.566 L864.9994,481.2705 L863.7276,490.975 L864.8107,500.6795 L863.4687,510.3839 L864.025,520.0884 L865.0817,529.7929 L864.0508,539.4974 L864.2517,549.2018 L864.5561,558.9063 L864.6573,568.6108 L864.1093,578.3153 L864.489,588.0198 L863.3677,597.7242 L864.4853,607.4287 L864.8294,617.1332 L864.6942,626.8377 L864.914,636.5422 L863.4843,646.2466 L864.1144,655.9511" fill="none" style="stroke:#0000FF;stroke-width:0.4891;stroke-dasharray:4.8915,4.8915;"/></g><g class="participant participant-head" data-participant="Supervisor"><text fill="#1E90FF" font-family="Aapex" font-size="16.631" lengthAdjust="spacing" textLength="83.5205" x="4.8915" y="224.0812">Supervisor</text><polygon fill="#00BFFF" points="65.3257,166.5761,63.0313,169.7111,60.3175,174.3029,56.4362,177.3974,52.3576,179.0897,49.1056,179.2365,44.9259,177.1202,40.9821,175.7376,37.9887,172.9304,36.4185,169.7168,35.4873,167.1579,34.5751,163.8156,33.0943,160.9395,34.2322,158.1313,35.2291,155.0551,38.9702,152.6222,41.6022,149.4655,44.86,148.4173,48.733,147.5146,53.6995,148.0509,56.4198,149.3338,59.5825,149.9153,63.4281,153.8552,64.7686,158.0145,65.351,160.8525,64.6913,165.5291" style="stroke:#00BFFF;stroke-width:0.4891;"/><path d="M49.5866,182.3346 L49.5866,182.3346 L49.6178,182.4205 L51.6772,181.3826 L53.9198,180.8483 L56.1027,180.15 L58.0895,178.9125 L60.3478,178.4214 L60.3478,178.4214 L60.3338,178.3906 L62.4233,179.2309 L64.5833,180.2262 L66.7922,181.3293 L68.8323,182.0609 L71.109,183.3129 L71.3281,183.4125 L71.8378,185.3517 L72.9873,187.5818 L74.2148,189.8473 L74.9882,191.9064 L76.0004,194.0741 L76.0598,194.0741 L75.9727,194.8567 L76.1557,195.6393 L76.2084,196.422 L76.5098,197.2046 L76.0004,197.9872 L76.0004,197.9872 L76.2068,198.1936 L74.644,199.7613 L72.9482,201.1961 L71.4472,202.8256 L69.9553,204.4642 L68.1741,205.8136 L68.1741,205.1864 L60.7391,206.4036 L53.3041,205.5557 L45.8691,206.2778 L38.434,205.3831 L30.999,205.8136 L30.999,205.8136 L30.978,205.7925 L29.6618,204.4763 L27.8535,202.6681 L26.3356,201.1502 L24.8421,199.6566 L23.1727,197.9872 L23.5346,197.9872 L23.1693,197.2046 L23.4225,196.422 L22.6749,195.6393 L23.42,194.8567 L23.1727,194.0741 L23.1727,194.0741 L23.3897,194.1727 L24.3269,192.0018 L25.3719,189.8799 L25.9164,187.5304 L26.8277,185.3478 L28.0642,183.3129 L27.9523,183.0669 L30.2058,182.3113 L32.3333,181.2785 L34.6435,180.6477 L36.6417,179.3306 L38.8254,178.4214 L38.8254,178.4214 L38.7744,178.2812 L41.0115,179.2973 L43.0308,179.7142 L45.2049,180.5572 L47.5308,181.8171 L49.5866,182.3346" fill="#00BFFF"/></g><g class="participant participant-head" data-participant="IHM"><text fill="#000000" font-family="sans-serif" font-size="13.6961" lengthAdjust="spacing" textLength="27.214" x="185.3423" y="224.9411">IHM</text><path d="M181.8292,182.9079 L182.012,182.9079 L181.4689,187.6037 L181.9973,192.2995 L182.1768,196.9953 L181.2088,201.6911 L181.8292,206.3869 M181.8292,194.6474 L181.8292,194.5798 L185.1554,194.2765 L188.4816,194.3139 L191.8078,194.5881 L195.134,194.0462 L198.4602,194.6474" fill="none" style="stroke:#181818;stroke-width:0.4891;"/><polygon fill="#E2E2F0" points="222.004,197.5029,220.2832,199.8542,218.2479,203.298,215.3369,205.6189,212.278,206.8881,209.839,206.9982,206.7042,205.411,203.7463,204.374,201.5013,202.2686,200.3236,199.8584,199.6252,197.9393,198.941,195.4325,197.8305,193.2754,198.6839,191.1693,199.4316,188.8622,202.2374,187.0375,204.2114,184.67,206.6548,183.8838,209.5595,183.2068,213.2844,183.609,215.3246,184.5712,217.6966,185.0073,220.5808,187.9623,221.5862,191.0817,222.023,193.2102,221.5282,196.7177" style="stroke:#181818;stroke-width:0.4891;"/></g><g class="participant participant-head" data-participant="Sistema"><text fill="#000000" font-family="sans-serif" font-size="13.6961" lengthAdjust="spacing" textLength="50.7712" x="485.6507" y="224.9411">Sistema</text><polygon fill="#E2E2F0" points="525.7755,197.5029,524.0547,199.8542,522.0193,203.298,519.1084,205.6189,516.0495,206.8881,513.6104,206.9982,510.4757,205.411,507.5178,204.374,505.2728,202.2686,504.0951,199.8584,503.3967,197.9393,502.7125,195.4325,501.602,193.2754,502.4554,191.1693,503.203,188.8622,506.0089,187.0375,507.9829,184.67,510.4262,183.8838,513.3309,183.2068,517.0559,183.609,519.0961,184.5712,521.4681,185.0073,524.3523,187.9623,525.3577,191.0817,525.7945,193.2102,525.2997,196.7177" style="stroke:#181818;stroke-width:0.4891;"/><polygon fill="#181818" points="510.058,182.9079,510.1019,182.9605,511.1454,181.8258,512.4462,180.9997,513.6633,180.0731,514.6049,178.816,515.9277,178.0164,515.9042,178.007,515.4073,178.9431,515.029,179.9266,514.7332,180.943,514.1531,181.8459,513.9712,182.9079,514.1388,182.9749,514.1716,183.8098,514.6939,184.8405,515.2759,185.8951,515.5105,186.8107,515.9277,187.7993,515.942,187.8164,514.7471,186.813,513.6171,185.8875,512.4558,184.9244,511.3542,184.0329,510.058,182.9079" style="stroke:#181818;stroke-width:0.9783;"/></g><g class="participant participant-head" data-participant="DB"><text fill="#000000" font-family="sans-serif" font-size="13.6961" lengthAdjust="spacing" textLength="104.1309" x="686.6116" y="224.9411">Banco de Dados</text><path d="M724.0027,175.0816 L724.0027,175.0816 L724.0664,175.1471 L725.638,173.2404 L727.5831,171.7178 L729.4066,170.0701 L730.8302,168.0111 L732.8073,166.5215 L732.8027,166.488 L734.5427,166.0933 L736.3062,165.8672 L738.086,165.7584 L739.8097,165.2455 L741.6119,165.2986 L741.6119,165.2986 L741.6451,165.5371 L743.3352,165.2718 L745.122,165.7026 L746.9205,166.2184 L748.6505,166.24 L750.4166,166.5215 L750.4372,166.5428 L752.1678,168.2236 L753.9925,170.0012 L755.7718,171.7321 L757.6378,173.5521 L759.2212,175.0816 L759.8047,175.0816 L759.8119,180.1687 L759.4426,185.2558 L759.6243,190.3429 L759.8318,195.43 L759.2212,200.5171 L759.2212,200.5171 L759.0026,200.2923 L757.6659,202.4407 L755.6095,203.8487 L754.1002,205.8196 L752.0275,207.2109 L750.4166,209.0772 L750.4125,209.0477 L748.7,209.6411 L746.8918,209.5453 L745.1401,209.8563 L743.3931,210.2013 L741.6119,210.3 L741.6119,210.3 L741.6368,210.4793 L739.8508,210.0538 L738.1073,209.9346 L736.2949,209.3198 L734.5852,209.4442 L732.8073,209.0772 L732.9735,209.2481 L731.1811,207.5038 L729.4713,205.8443 L727.3781,203.7906 L725.5659,202.0258 L724.0027,200.5171 L723.4623,200.5171 L723.9515,195.43 L723.8318,190.3429 L724.5952,185.2558 L723.8508,180.1687 L724.0027,175.0816" fill="#E2E2F0" style="stroke:#181818;stroke-width:0.4891;"/><path d="M724.0027,175.0816 L724.0027,175.0816 L724.0664,175.1471 L725.638,176.6644 L727.5831,178.5658 L729.4066,180.3422 L730.8302,181.7072 L732.8073,183.6416 L732.8027,183.6081 L734.5427,183.7025 L736.3062,183.9656 L738.086,184.346 L739.8097,184.3221 L741.6119,184.8645 L741.6119,184.8645 L741.6451,185.1029 L743.3352,184.3485 L745.122,184.2902 L746.9205,184.3168 L748.6505,183.8492 L750.4166,183.6416 L750.4372,183.6629 L752.1678,181.9196 L753.9925,180.2732 L755.7718,178.5801 L757.6378,176.9761 L759.2212,175.0816" fill="none" style="stroke:#181818;stroke-width:0.4891;"/></g><g class="participant participant-head" data-participant="M.dulo Edge"><polygon fill="#1E90FF" points="808.8409,191.6283,808.8409,191.834,819.0423,191.223,829.2438,191.8174,839.4452,192.0194,849.6466,190.9304,859.848,191.5523,870.0495,191.2111,880.2509,191.2532,890.4523,191.5617,900.6537,190.952,910.8551,192.17,921.0566,191.6283,920.9779,191.4385,921.3778,191.712,921.8022,192.045,922.0835,192.0323,922.4486,192.222,922.786,192.3447,922.7763,192.3407,922.983,192.7128,923.1445,193.0663,923.3922,193.4554,923.5612,193.8119,923.5023,194.0741,923.7238,194.0741,923.5853,200.3653,923.6535,206.6565,923.7313,212.9476,923.2671,219.2388,923.5023,225.53,923.7067,225.6147,923.2697,225.8389,923.3766,226.2884,922.9234,226.5059,922.9086,226.905,922.786,227.2594,922.8785,227.4828,922.434,227.388,922.1073,227.5777,921.7906,227.7912,921.4544,227.9579,921.0566,227.9757,921.0566,227.9719,910.8551,228.2567,900.6537,227.4157,890.4523,228.254,880.2509,228.512,870.0495,228.4106,859.848,228.5755,849.6466,227.5031,839.4452,227.3377,829.2438,227.3678,819.0423,227.9181,808.8409,227.9757,808.8164,227.9165,808.5801,228.0378,808.1274,227.6366,807.7605,227.4426,807.4859,227.4714,807.1115,227.2594,806.9106,227.1762,806.8119,226.8487,807.0205,226.6486,806.813,226.2761,806.7597,225.9675,806.3952,225.53,806.2902,225.53,806.4993,219.2388,806.5877,212.9476,806.2411,206.6565,806.3639,200.3653,806.3952,194.0741,806.4331,194.0898,806.7348,193.8095,806.6805,193.3818,806.9643,193.0942,806.8014,192.6215,807.1115,192.3447,807.027,192.1406,807.5202,192.3531,807.7138,191.8422,808.2127,192.0682,808.5208,191.8339,808.8409,191.6283" style="stroke:#00BFFF;stroke-width:0.4891;"/><text fill="#A9DCDF" font-family="Impact" font-size="16.631" lengthAdjust="spacing" textLength="103.411" x="813.2432" y="216.2548">M&#243;dulo Edge</text></g><g><title>IHM</title><polygon fill="#A9DCDF" points="196.9927,261.9283,196.9927,261.9969,198.9493,261.7932,200.9059,261.9914,202.8625,262.0587,204.8191,261.6957,206.7756,261.9283,206.6996,261.9283,206.3584,271.8057,206.4005,281.6831,206.709,291.5605,206.0993,301.4379,207.3173,311.3153,206.159,321.1927,206.5822,331.0701,207.1982,340.9475,206.6917,350.8248,206.8424,360.7022,206.7444,370.5796,206.9503,380.457,207.0096,390.3344,207.3486,400.2118,207.4321,410.0892,207.4402,419.9666,207.0247,429.8439,207.2292,439.7213,207.4626,449.5987,206.0701,459.4761,207.4394,469.3535,206.4856,479.2309,207.2979,489.1083,206.2914,498.9857,206.7086,508.8631,207.5012,518.7404,206.728,528.6178,206.8787,538.4952,207.1069,548.3726,207.1828,558.25,206.7718,568.1274,207.0566,578.0048,206.2157,587.8822,207.0539,597.7596,207.3119,607.6369,207.2105,617.5143,207.3754,627.3917,206.3031,637.2691,206.7756,647.1465,206.7756,646.9338,204.8191,646.9439,202.8625,647.1273,200.9059,647.0824,198.9493,647.3687,196.9927,647.1465,196.8218,647.1465,196.6571,637.2691,197.216,627.3917,196.3404,617.5143,196.4849,607.6369,197.6276,597.7596,197.4189,587.8822,197.7113,578.0048,196.6779,568.1274,197.305,558.25,197.5703,548.3726,196.5306,538.4952,196.899,528.6178,197.116,518.7404,197.6303,508.8631,196.9886,498.9857,197.4453,489.1083,196.451,479.2309,196.3302,469.3535,197.4854,459.4761,196.2914,449.5987,197.4906,439.7213,197.1949,429.8439,196.7306,419.9666,196.6466,410.0892,197.4415,400.2118,196.6999,390.3344,197.5717,380.457,196.452,370.5796,197.5968,360.7022,197.4665,350.8248,197.2324,340.9475,197.0389,331.0701,197.7036,321.1927,197.593,311.3153,197.1583,301.4379,197.2551,291.5605,196.8653,281.6831,197.6936,271.8057,196.9927,261.9283" style="stroke:#181818;stroke-width:0.9783;"/></g><g><title>Sistema</title><polygon fill="#A9DCDF" points="509.0797,389.9124,509.0797,389.981,511.0363,389.7773,512.9929,389.9755,514.9494,390.0428,516.906,389.6798,518.8626,389.9124,518.7866,389.9124,518.4454,399.806,518.4874,409.6997,518.7959,419.5933,518.1863,429.4869,519.4042,439.3805,518.246,449.2741,518.6691,459.1678,519.2852,469.0614,518.7787,478.955,518.9294,488.8486,518.8314,498.7422,519.0373,508.6358,519.0966,518.5295,519.4356,528.4231,519.5191,538.3167,519.5271,548.2103,519.1117,558.1039,519.3161,567.9976,519.5496,577.8912,518.1571,587.7848,519.5264,597.6784,518.5725,607.572,519.3848,617.4656,518.3783,627.3593,518.7956,637.2529,518.8626,647.1465,518.8626,647.3883,516.906,647.1306,514.9494,647.1808,512.9929,647.2569,511.0363,647.2822,509.0797,647.1465,509.0759,647.1465,509.3607,637.2529,508.5197,627.3593,509.3579,617.4656,509.616,607.572,509.5146,597.6784,509.6794,587.7848,508.6071,577.8912,508.4417,567.9976,508.4718,558.1039,509.0221,548.2103,508.8874,538.3167,509.7463,528.4231,508.9088,518.5295,508.7441,508.6358,509.303,498.7422,508.4273,488.8486,508.5718,478.955,509.7146,469.0614,509.5059,459.1678,509.7982,449.2741,508.7649,439.3805,509.392,429.4869,509.6573,419.5933,508.6175,409.6997,508.9859,399.806,509.0797,389.9124" style="stroke:#181818;stroke-width:0.9783;"/></g><g><title>Banco de Dados</title><polygon fill="#A9DCDF" points="736.7205,261.9283,736.7205,261.9969,738.6771,261.7932,740.6336,261.9914,742.5902,262.0587,744.5468,261.6957,746.5034,261.9283,746.4274,261.9283,746.0862,271.8057,746.1282,281.6831,746.4367,291.5605,745.827,301.4379,747.045,311.3153,745.8868,321.1927,746.3099,331.0701,746.926,340.9475,746.4195,350.8248,746.5702,360.7022,746.4721,370.5796,746.678,380.457,746.7373,390.3344,747.0764,400.2118,747.1599,410.0892,747.1679,419.9666,746.7525,429.8439,746.9569,439.7213,747.1904,449.5987,745.7979,459.4761,747.1672,469.3535,746.2133,479.2309,747.0256,489.1083,746.0191,498.9857,746.4364,508.8631,747.2289,518.7404,746.4557,528.6178,746.6064,538.4952,746.8347,548.3726,746.9106,558.25,746.4996,568.1274,746.7844,578.0048,745.9434,587.8822,746.7816,597.7596,747.0397,607.6369,746.9383,617.5143,747.1031,627.3917,746.0308,637.2691,746.5034,647.1465,746.5034,646.9338,744.5468,646.9439,742.5902,647.1273,740.6336,647.0824,738.6771,647.3687,736.7205,647.1465,736.5496,647.1465,736.3849,637.2691,736.9438,627.3917,736.0681,617.5143,736.2126,607.6369,737.3553,597.7596,737.1467,587.8822,737.439,578.0048,736.4057,568.1274,737.0327,558.25,737.2981,548.3726,736.2583,538.4952,736.6267,528.6178,736.8437,518.7404,737.3581,508.8631,736.7164,498.9857,737.173,489.1083,736.1787,479.2309,736.0579,469.3535,737.2132,459.4761,736.0191,449.5987,737.2184,439.7213,736.9226,429.8439,736.4584,419.9666,736.3744,410.0892,737.1693,400.2118,736.4276,390.3344,737.2995,380.457,736.1797,370.5796,737.3245,360.7022,737.1943,350.8248,736.9601,340.9475,736.7667,331.0701,737.4313,321.1927,737.3207,311.3153,736.8861,301.4379,736.9828,291.5605,736.593,281.6831,737.4214,271.8057,736.7205,261.9283" style="stroke:#181818;stroke-width:0.9783;"/></g><g class="message" data-participant-1="Supervisor" data-participant-2="IHM"><polygon fill="#00BFFF" points="185.2532,258.0152,185.2787,258.0788,187.1596,258.6724,189.1898,259.639,191.1714,260.4841,192.9932,260.9297,195.0361,261.9283,195.0267,261.9048,193.0279,262.5818,191.0765,263.3775,189.1581,264.2556,187.1261,264.8496,185.2532,265.8415,185.3809,265.9692,185.8905,264.9135,186.7729,264.2306,187.7007,263.5932,188.364,262.6912,189.1664,261.9283,189.1821,261.9441,188.3764,261.1383,187.6423,260.4042,186.8736,259.6356,186.1709,258.9329,185.2532,258.0152" style="stroke:#00BFFF;stroke-width:0.9783;"/><path d="M49.5866,261.9283 L49.5866,262.2025 L59.6963,261.3879 L69.8061,262.1805 L79.9158,262.4497 L90.0255,260.9978 L100.1353,261.827 L110.245,261.372 L120.3548,261.4281 L130.4645,261.8394 L140.5743,261.0265 L150.684,262.6505 L160.7938,261.1062 L170.9035,261.6704 L181.0132,262.4918 L191.123,261.9283" fill="none" style="stroke:#00BFFF;stroke-width:0.9783;"/><text fill="#000000" font-family="sans-serif" font-size="12.7178" lengthAdjust="spacing" textLength="128.8186" x="56.4346" y="256.2454">Define in&#237;cio de turno</text></g><g class="message" data-participant-1="IHM" data-participant-2="DB"><polygon fill="#00BFFF" points="724.981,289.0329,725.0064,289.0965,726.8874,289.6901,728.9176,290.6567,730.8991,291.5018,732.7209,291.9474,734.7639,292.9461,734.7545,292.9225,732.7557,293.5996,730.8043,294.3952,728.8859,295.2733,726.8538,295.8673,724.981,296.8592,725.1086,296.9869,725.6183,295.9313,726.5006,295.2484,727.4285,294.6109,728.0917,293.7089,728.8941,292.9461,728.9099,292.9618,728.1041,292.1561,727.37,291.422,726.6014,290.6533,725.8987,289.9506,724.981,289.0329" style="stroke:#00BFFF;stroke-width:0.9783;"/><path d="M206.7756,292.9461 L206.7756,293.2202 L216.4807,292.4056 L226.1858,293.1982 L235.8909,293.4674 L245.596,292.0155 L255.3011,292.8447 L265.0062,292.3898 L274.7113,292.4458 L284.4164,292.8572 L294.1215,292.0443 L303.8266,293.6682 L313.5317,292.1239 L323.2368,292.6881 L332.9419,293.5095 L342.647,292.8342 L352.3521,293.0351 L362.0572,292.9044 L371.7622,293.1789 L381.4673,293.258 L391.1724,293.71 L400.8775,293.8214 L410.5826,293.8321 L420.2877,293.2782 L429.9928,293.5508 L439.6979,293.8621 L449.403,292.0054 L459.1081,293.8311 L468.8132,292.5593 L478.5183,293.6424 L488.2234,292.3004 L497.9285,292.8567 L507.6336,293.9134 L517.3387,292.8825 L527.0438,293.0834 L536.7488,293.3878 L546.4539,293.489 L556.159,292.941 L565.8641,293.3207 L575.5692,292.1994 L585.2743,293.317 L594.9794,293.6611 L604.6845,293.5259 L614.3896,293.7457 L624.0947,292.316 L633.7998,292.0954 L643.5049,292.1355 L653.21,292.8693 L662.9151,292.6897 L672.6202,293.8349 L682.3253,292.7182 L692.0304,292.4986 L701.7354,293.2438 L711.4405,292.0763 L721.1456,292.2689 L730.8507,292.9461" fill="none" style="stroke:#00BFFF;stroke-width:0.9783;"/><text fill="#000000" font-family="sans-serif" font-size="12.7178" lengthAdjust="spacing" textLength="138.9293" x="213.6237" y="287.2632">Registra in&#237;cio de turno</text></g><polygon fill="#FEFFDD" points="135.9825,305.6639,135.9825,305.8695,146.0665,305.2585,156.1504,305.853,166.2343,306.0549,176.3182,304.966,186.4022,305.5878,196.4861,305.2466,206.57,305.2887,216.654,305.5972,226.7379,304.9875,236.8218,306.2055,246.9058,305.0473,256.9897,305.4704,267.0736,305.6639,267.1818,305.754,269.0087,307.9939,271.0039,310.3739,272.9354,312.7009,274.9447,315.0927,276.8565,317.4034,276.9183,317.4509,275.0513,320.0634,273.1168,322.6239,271.1623,325.1691,269.096,327.6282,267.0736,330.1212,267.0736,330.5747,256.9897,330.8081,246.9058,329.4156,236.8218,330.7849,226.7379,329.8311,216.654,330.6434,206.57,329.6369,196.4861,330.0541,186.4022,330.8467,176.3182,330.0735,166.2343,330.2242,156.1504,330.4524,146.0665,330.5284,135.9825,330.1212,135.9815,330.1204,134.1002,327.6347,131.9214,324.9202,130.1863,322.547,128.2979,320.0559,126.1996,317.4034,126.311,317.4962,128.3098,315.1834,129.9918,312.6067,131.906,310.2235,133.8703,307.882,135.9825,305.6639" style="stroke:#181818;stroke-width:0.4891;"/><text fill="#000000" font-family="sans-serif" font-size="12.7178" lengthAdjust="spacing" textLength="127.6359" x="137.9391" y="323.1724">Tempo total do turno</text><g class="message" data-participant-1="Supervisor" data-participant-2="IHM"><polygon fill="#00BFFF" points="185.2532,354.9815,185.2787,355.0452,187.1596,355.6387,189.1898,356.6053,191.1714,357.4504,192.9932,357.8961,195.0361,358.8947,195.0267,358.8712,193.0279,359.5482,191.0765,360.3439,189.1581,361.222,187.1261,361.8159,185.2532,362.8079,185.3809,362.9355,185.8905,361.8799,186.7729,361.197,187.7007,360.5596,188.364,359.6576,189.1664,358.8947,189.1821,358.9104,188.3764,358.1047,187.6423,357.3706,186.8736,356.6019,186.1709,355.8992,185.2532,354.9815" style="stroke:#00BFFF;stroke-width:0.9783;"/><path d="M49.5866,358.8947 L49.5866,359.1689 L59.6963,358.3543 L69.8061,359.1468 L79.9158,359.416 L90.0255,357.9642 L100.1353,358.7933 L110.245,358.3384 L120.3548,358.3945 L130.4645,358.8058 L140.5743,357.9929 L150.684,359.6169 L160.7938,358.0726 L170.9035,358.6367 L181.0132,359.4581 L191.123,358.8947" fill="none" style="stroke:#00BFFF;stroke-width:0.9783;"/><text fill="#000000" font-family="sans-serif" font-size="12.7178" lengthAdjust="spacing" textLength="116.8639" x="56.4346" y="353.2118">Define fim de turno</text></g><g class="message" data-participant-1="IHM" data-participant-2="Sistema"><polygon fill="#00BFFF" points="497.3402,385.9993,497.3657,386.0629,499.2466,386.6565,501.2768,387.6231,503.2584,388.4682,505.0801,388.9138,507.1231,389.9124,507.1137,389.8889,505.1149,390.5659,503.1635,391.3616,501.2451,392.2397,499.213,392.8336,497.3402,393.8256,497.4679,393.9533,497.9775,392.8976,498.8599,392.2147,499.7877,391.5773,500.451,390.6753,501.2534,389.9124,501.2691,389.9282,500.4634,389.1224,499.7293,388.3883,498.9606,387.6197,498.2579,386.9169,497.3402,385.9993" style="stroke:#00BFFF;stroke-width:0.9783;"/><path d="M206.7756,389.9124 L206.7756,390.1866 L216.6568,389.372 L226.5379,390.1646 L236.4191,390.4338 L246.3002,388.9819 L256.1814,389.8111 L266.0625,389.3561 L275.9437,389.4122 L285.8248,389.8235 L295.7059,389.0106 L305.5871,390.6346 L315.4682,389.0903 L325.3494,389.6545 L335.2305,390.4759 L345.1117,389.8005 L354.9928,390.0014 L364.8739,389.8708 L374.7551,390.1453 L384.6362,390.2244 L394.5174,390.6764 L404.3985,390.7877 L414.2797,390.7984 L424.1608,390.2446 L434.0419,390.5171 L443.9231,390.8284 L453.8042,388.9717 L463.6854,390.7975 L473.5665,389.5257 L483.4477,390.6087 L493.3288,389.2667 L503.2099,389.9124" fill="none" style="stroke:#00BFFF;stroke-width:0.9783;"/><text fill="#000000" font-family="sans-serif" font-size="12.7178" lengthAdjust="spacing" textLength="231.3877" x="213.6237" y="384.2295">Solicita relat&#243;rio de produ&#231;&#227;o do turno</text></g><g class="message" data-participant-1="Sistema" data-participant-2="DB"><polygon fill="#00BFFF" points="724.981,417.017,725.0064,417.0806,726.8874,417.6742,728.9176,418.6408,730.8991,419.4859,732.7209,419.9315,734.7639,420.9302,734.7545,420.9066,732.7557,421.5837,730.8043,422.3793,728.8859,423.2574,726.8538,423.8514,724.981,424.8433,725.1086,424.971,725.6183,423.9154,726.5006,423.2325,727.4285,422.595,728.0917,421.693,728.8941,420.9302,728.9099,420.9459,728.1041,420.1402,727.37,419.4061,726.6014,418.6374,725.8987,417.9347,724.981,417.017" style="stroke:#00BFFF;stroke-width:0.9783;"/><path d="M518.8626,420.9302 L518.8626,421.2043 L528.4984,420.3897 L538.1343,421.1823 L547.7701,421.4515 L557.4059,419.9996 L567.0417,420.8288 L576.6776,420.3738 L586.3134,420.4299 L595.9492,420.8413 L605.585,420.0283 L615.2208,421.6523 L624.8567,420.108 L634.4925,420.6722 L644.1283,421.4936 L653.7641,420.8183 L663.4,421.0192 L673.0358,420.8885 L682.6716,421.163 L692.3074,421.2421 L701.9433,421.6941 L711.5791,421.8055 L721.2149,421.8162 L730.8507,420.9302" fill="none" style="stroke:#00BFFF;stroke-width:0.9783;"/><text fill="#000000" font-family="sans-serif" font-size="12.7178" lengthAdjust="spacing" textLength="147.8063" x="525.7107" y="415.2473">Consulta dados do turno</text></g><g class="message" data-participant-1="DB" data-participant-2="Sistema"><polygon fill="#00BFFF" points="529.6238,448.0347,529.6493,448.0984,527.6171,448.6919,525.7341,449.6585,523.8025,450.5036,521.7111,450.9493,519.8409,451.9479,519.8315,451.9244,521.7458,452.6014,523.7076,453.397,525.7024,454.2752,527.5835,454.8691,529.6238,455.8611,529.7515,455.9887,528.6959,454.9331,528.013,454.2502,527.3755,453.6128,526.4735,452.7107,525.7107,451.9479,525.7264,451.9636,526.4859,451.1579,527.3171,450.4238,528.1137,449.6551,528.9762,448.9524,529.6238,448.0347" style="stroke:#00BFFF;stroke-width:0.9783;"/><path d="M523.7541,451.9479 L523.7541,452.222 L533.3899,451.4075 L543.0257,452.2 L552.6615,452.4692 L562.2974,451.0173 L571.9332,451.8465 L581.569,451.3916 L591.2048,451.4477 L600.8407,451.859 L610.4765,451.0461 L620.1123,452.6701 L629.7481,451.1258 L639.384,451.6899 L649.0198,452.5113 L658.6556,451.836 L668.2914,452.0369 L677.9272,451.9062 L687.5631,452.1808 L697.1989,452.2598 L706.8347,452.7119 L716.4705,452.8232 L726.1064,452.8339 L735.7422,451.9479" fill="none" style="stroke:#00BFFF;stroke-width:0.9783;stroke-dasharray:1.9566,1.9566;"/><text fill="#000000" font-family="sans-serif" font-size="12.7178" lengthAdjust="spacing" textLength="142.8718" x="535.4936" y="446.265">Retorna dados do turno</text></g><path d="M383.4903,464.6657 L383.6731,464.6657 L383.13,469.9485 L383.6584,475.2312 L383.8379,480.514 L382.8699,485.7968 L383.4903,491.0796 L383.4903,490.8768 L393.1283,489.9669 L402.7663,490.0791 L412.4043,490.9017 L422.0422,489.2759 L431.6802,492.5239 L441.3182,489.4353 L450.9562,490.5636 L460.5942,492.2064 L470.2322,490.8558 L479.8701,491.2576 L489.5081,490.9962 L499.1461,491.5453 L508.7841,491.7034 L518.4221,492.6075 L528.0601,492.8302 L537.6981,492.8516 L547.336,491.7438 L556.974,492.2889 L566.612,492.9115 L576.25,489.1981 L585.888,492.8496 L595.526,490.306 L605.1639,492.4722 L614.8019,489.7881 L624.4399,490.9009 L634.0779,493.0142 L643.7159,491.0796 L643.6735,491.0796 L643.8074,487.7534 L644.0103,484.4272 L644.0778,481.101 L643.7125,477.7748 L643.7159,474.4486 L643.8925,474.6252 L641.4073,472.14 L639.9776,470.7103 L638.1832,468.9159 L636.1629,466.8956 L633.933,464.6657 L633.933,466.2649 L624.3006,463.4054 L614.6681,462.9643 L605.0357,463.0446 L595.4033,464.5121 L585.7709,464.153 L576.1385,466.4433 L566.5061,464.21 L556.8737,463.7707 L547.2413,465.2612 L537.6089,462.926 L527.9765,463.3114 L518.344,466.3587 L508.7116,465.8022 L499.0792,466.5818 L489.4468,463.8262 L479.8144,465.4984 L470.182,466.206 L460.5496,463.4333 L450.9172,464.4156 L441.2848,464.9943 L431.6524,466.366 L422.0199,464.6547 L412.3875,465.8724 L402.7551,463.221 L393.1227,462.8989 L383.4903,464.6657" fill="#FEFFDD" style="stroke:#181818;stroke-width:0.4891;"/><path d="M633.933,464.6657 L634.3709,464.6657 L633.3095,466.6223 L634.3756,468.5788 L634.1126,470.5354 L633.7,472.492 L633.933,474.4486 L633.933,474.141 L635.8895,474.8475 L637.8461,474.1883 L639.8027,474.9633 L641.7593,473.9679 L643.7159,474.4486 L644.0955,474.8282 L642.0571,472.7898 L639.9533,470.6861 L637.8752,468.6079 L636.3363,467.0691 L633.933,464.6657" fill="#FEFFDD" style="stroke:#181818;stroke-width:0.4891;"/><text fill="#000000" font-family="sans-serif" font-size="12.7178" lengthAdjust="spacing" textLength="240.3155" x="389.3601" y="483.1525">Processa dados para gerar relat&#243;rio CSV</text><g class="message" data-participant-1="Sistema" data-participant-2="Sistema"><path d="M518.8626,519.8531 L518.8626,519.9445 L527.0803,519.673 L535.2979,519.9371 L543.5156,520.0269 L551.7332,519.5429 L559.9509,519.8531" fill="none" style="stroke:#00BFFF;stroke-width:0.9783;"/><path d="M559.9509,519.8531 L560.0422,519.8531 L559.7707,522.3967 L560.0349,524.9402 L560.1246,527.4838 L559.6407,530.0273 L559.9509,532.5709" fill="none" style="stroke:#00BFFF;stroke-width:0.9783;"/><path d="M519.8409,532.5709 L519.8409,532.6623 L527.8629,532.3907 L535.8849,532.6549 L543.9069,532.7447 L551.9289,532.2607 L559.9509,532.5709" fill="none" style="stroke:#00BFFF;stroke-width:0.9783;"/><polygon fill="#00BFFF" points="529.6238,528.6577,529.6493,528.7214,527.6171,529.3149,525.7341,530.2815,523.8025,531.1266,521.7111,531.5723,519.8409,532.5709,519.8315,532.5474,521.7458,533.2244,523.7076,534.02,525.7024,534.8982,527.5835,535.4921,529.6238,536.4841,529.7515,536.6117,528.6959,535.5561,528.013,534.8732,527.3755,534.2358,526.4735,533.3337,525.7107,532.5709,525.7264,532.5866,526.4859,531.7809,527.3171,531.0468,528.1137,530.2781,528.9762,529.5754,529.6238,528.6577" style="stroke:#00BFFF;stroke-width:0.9783;"/><text fill="#000000" font-family="sans-serif" font-size="12.7178" lengthAdjust="spacing" textLength="194.3789" x="525.7107" y="514.1702">Converte dados em formato CSV</text></g><g class="message" data-participant-1="Sistema" data-participant-2="Sistema"><path d="M518.8626,563.5886 L518.8626,563.68 L527.0803,563.4085 L535.2979,563.6727 L543.5156,563.7624 L551.7332,563.2784 L559.9509,563.5886" fill="none" style="stroke:#00BFFF;stroke-width:0.9783;"/><path d="M559.9509,563.5886 L560.0422,563.5886 L559.7707,566.1322 L560.0349,568.6757 L560.1246,571.2193 L559.6407,573.7629 L559.9509,576.3064" fill="none" style="stroke:#00BFFF;stroke-width:0.9783;"/><path d="M519.8409,576.3064 L519.8409,576.3978 L527.8629,576.1263 L535.8849,576.3905 L543.9069,576.4802 L551.9289,575.9962 L559.9509,576.3064" fill="none" style="stroke:#00BFFF;stroke-width:0.9783;"/><polygon fill="#00BFFF" points="529.6238,572.3932,529.6493,572.4569,527.6171,573.0504,525.7341,574.017,523.8025,574.8622,521.7111,575.3078,519.8409,576.3064,519.8315,576.2829,521.7458,576.9599,523.7076,577.7556,525.7024,578.6337,527.5835,579.2276,529.6238,580.2196,529.7515,580.3472,528.6959,579.2916,528.013,578.6087,527.3755,577.9713,526.4735,577.0693,525.7107,576.3064,525.7264,576.3221,526.4859,575.5164,527.3171,574.7823,528.1137,574.0137,528.9762,573.3109,529.6238,572.3932" style="stroke:#00BFFF;stroke-width:0.9783;"/><text fill="#000000" font-family="sans-serif" font-size="12.7178" lengthAdjust="spacing" textLength="151.8633" x="525.7107" y="557.9057">Exporta arquivo CSV local</text></g><g class="message" data-participant-1="Sistema" data-participant-2="M.dulo Edge"><polygon fill="#00BFFF" points="853.2092,603.411,853.2347,603.4746,855.1156,604.0682,857.1458,605.0348,859.1274,605.8799,860.9492,606.3255,862.9922,607.3241,862.9827,607.3006,860.9839,607.9776,859.0325,608.7733,857.1142,609.6514,855.0821,610.2453,853.2092,611.2373,853.3369,611.365,853.8465,610.3093,854.7289,609.6264,855.6567,608.989,856.32,608.087,857.1224,607.3241,857.1381,607.3399,856.3324,606.5341,855.5983,605.8,854.8296,605.0314,854.1269,604.3287,853.2092,603.411" style="stroke:#00BFFF;stroke-width:0.9783;"/><path d="M518.8626,607.3241 L518.8626,607.5983 L528.5831,606.7837 L538.3035,607.5763 L548.024,607.8455 L557.7445,606.3936 L567.465,607.2228 L577.1854,606.7678 L586.9059,606.8239 L596.6264,607.2352 L606.3468,606.4223 L616.0673,608.0463 L625.7878,606.502 L635.5082,607.0662 L645.2287,607.8876 L654.9492,607.2123 L664.6696,607.4132 L674.3901,607.2825 L684.1106,607.557 L693.831,607.6361 L703.5515,608.0881 L713.272,608.1995 L722.9924,608.2102 L732.7129,607.6563 L742.4334,607.9288 L752.1538,608.2401 L761.8743,606.3834 L771.5948,608.2092 L781.3152,606.9374 L791.0357,608.0204 L800.7562,606.6784 L810.4767,607.2348 L820.1971,608.2915 L829.9176,607.2606 L839.6381,607.4615 L849.3585,607.7658 L859.079,607.3241" fill="none" style="stroke:#00BFFF;stroke-width:0.9783;"/><text fill="#000000" font-family="sans-serif" font-size="12.7178" lengthAdjust="spacing" textLength="183.5815" x="525.7107" y="601.6412">Envia arquivo CSV para Nuvem</text></g><g class="message" data-participant-1="Sistema" data-participant-2="IHM"><polygon fill="#00BFFF" points="217.5369,634.4287,217.5623,634.4923,215.5301,635.0859,213.6471,636.0525,211.7155,636.8976,209.6241,637.3432,207.7539,638.3419,207.7445,638.3183,209.6589,638.9954,211.6207,639.791,213.6154,640.6691,215.4965,641.2631,217.5369,642.255,217.6645,642.3827,216.6089,641.3271,215.926,640.6442,215.2886,640.0067,214.3865,639.1047,213.6237,638.3419,213.6394,638.3576,214.399,637.5519,215.2301,636.8178,216.0267,636.0491,216.8893,635.3464,217.5369,634.4287" style="stroke:#00BFFF;stroke-width:0.9783;"/><path d="M211.6671,638.3419 L211.6671,638.616 L221.5482,637.8014 L231.4294,638.594 L241.3105,638.8632 L251.1917,637.4113 L261.0728,638.2405 L270.954,637.7856 L280.8351,637.8416 L290.7163,638.253 L300.5974,637.4401 L310.4785,639.064 L320.3597,637.5197 L330.2408,638.0839 L340.122,638.9053 L350.0031,638.23 L359.8843,638.4309 L369.7654,638.3002 L379.6465,638.5747 L389.5277,638.6538 L399.4088,639.1058 L409.29,639.2172 L419.1711,639.2279 L429.0523,638.674 L438.9334,638.9466 L448.8145,639.2579 L458.6957,637.4012 L468.5768,639.2269 L478.458,637.9551 L488.3391,639.0382 L498.2203,637.6962 L508.1014,638.3419" fill="none" style="stroke:#00BFFF;stroke-width:0.9783;stroke-dasharray:1.9566,1.9566;"/><text fill="#000000" font-family="sans-serif" font-size="12.7178" lengthAdjust="spacing" textLength="278.8251" x="223.4066" y="632.659">Mensagem de confirma&#231;&#227;o de turno finalizado</text></g><text fill="#1E90FF" font-family="Arial" font-size="13.6961" font-weight="bold" lengthAdjust="spacing" textLength="155.8061" x="29.3487" y="691.1363">Casos de Uso cobertos:</text><text fill="#1E90FF" font-family="Arial" font-size="13.6961" lengthAdjust="spacing" textLength="4.4101" x="29.3487" y="709.7903">-</text><text fill="#1E90FF" font-family="Arial" font-size="13.6961" font-weight="bold" lengthAdjust="spacing" textLength="59.6873" x="37.3198" y="709.7903">MDC-001</text><text fill="#1E90FF" font-family="Arial" font-size="13.6961" lengthAdjust="spacing" textLength="191.2377" x="100.5681" y="709.7903">Gera&#231;&#227;o de relat&#243;rio de turno</text><polygon fill="none" points="48.3939,60.3025,48.3939,60.5081,58.166,59.8972,67.938,60.4916,77.7101,60.6935,87.4822,59.6046,97.2543,60.2265,107.0264,59.8853,116.7985,59.9273,126.5706,60.2358,136.3427,59.6261,146.1148,60.8441,155.8869,59.6859,165.659,60.109,175.431,60.7251,185.2031,60.2186,194.9752,60.3693,204.7473,60.2713,214.5194,60.4772,224.2915,60.5364,234.0636,60.8755,243.8357,60.959,253.6078,60.967,263.3799,60.5516,273.152,60.756,282.924,60.9895,292.6961,59.597,302.4682,60.9663,312.2403,60.0124,322.0124,60.8247,331.7845,59.8182,341.5566,60.2355,351.3287,61.028,361.1008,60.2548,370.8729,60.4055,380.645,60.6338,390.4171,60.7097,400.1891,60.2987,409.9612,60.5835,419.7333,59.7425,429.5054,60.5807,439.2775,60.8388,449.0496,60.7374,458.8217,60.9022,468.5938,59.8299,478.3659,59.6645,488.138,59.6946,497.9101,60.2449,507.6821,60.1102,517.4542,60.9691,527.2263,60.1316,536.9984,59.9669,546.7705,60.5258,556.5426,59.6501,566.3147,59.7947,576.0868,60.9374,585.8589,60.7287,595.631,61.0211,605.4031,59.9877,615.1751,60.6148,624.9472,60.8801,634.7193,59.8404,644.4914,60.2087,654.2635,60.4258,664.0356,60.9401,673.8077,60.2984,683.5798,60.755,693.3519,59.7607,703.124,59.64,712.8961,60.7952,722.6681,59.6011,732.4402,60.8004,742.2123,60.5046,751.9844,60.0404,761.7565,59.9564,771.5286,60.7513,781.3007,60.0097,791.0728,60.8815,800.8449,59.7618,810.617,60.9065,820.3891,60.7763,830.1611,60.5422,839.9332,60.3487,849.7053,61.0133,859.4774,60.9028,869.2495,60.4681,879.0216,60.3025,879.0551,60.3833,880.043,60.6931,881.1863,61.378,882.1538,61.6386,883.1937,62.0737,884.2098,62.4515,884.0265,62.3756,884.5175,63.4386,885.2293,64.593,885.6287,65.6181,885.916,66.5967,886.3588,67.6397,886.0436,67.6397,886.1446,77.8609,885.6875,88.0821,886.7645,98.3033,887.0823,108.5244,886.3588,118.7456,886.5174,118.8113,886.1383,119.87,885.458,120.8038,885.0957,121.8694,884.5228,122.8478,884.2098,123.9338,884.2452,124.0194,883.2029,124.4379,882.2034,124.9598,881.0682,125.154,880.0425,125.6125,879.0216,126.0828,879.0216,126.5166,869.2495,126.6378,859.4774,125.5814,849.7053,125.8931,839.9332,126.2288,830.1611,125.4852,820.3891,126.4285,810.617,126.3352,800.8449,125.9842,791.0728,126.222,781.3007,126.7957,771.5286,125.7767,761.7565,126.391,751.9844,126.3623,742.2123,126.1961,732.4402,126.2207,722.6681,126.1938,712.8961,125.4722,703.124,125.6907,693.3519,125.6313,683.5798,126.1452,673.8077,126.169,664.0356,126.241,654.2635,125.7982,644.4914,126.0168,634.7193,125.9652,624.9472,126.6471,615.1751,126.5001,605.4031,125.6078,595.631,126.0115,585.8589,125.5181,576.0868,126.3649,566.3147,126.6781,556.5426,126.6156,546.7705,125.6567,536.9984,126.5367,527.2263,125.3561,517.4542,126.2786,507.6821,125.79,497.9101,126.1774,488.138,126.3179,478.3659,126.5447,468.5938,125.3785,458.8217,126.548,449.0496,126.2571,439.2775,126.4304,429.5054,126.8144,419.7333,126.0882,409.9612,126.2543,400.1891,126.2916,390.4171,126.2758,380.645,126.082,370.8729,126.7781,361.1008,125.4863,351.3287,126.6358,341.5566,125.4724,331.7845,125.5542,322.0124,126.122,312.2403,126.1105,302.4682,125.6007,292.6961,126.4875,282.924,126.1893,273.152,126.7937,263.3799,126.7354,253.6078,125.6443,243.8357,125.6935,234.0636,125.9564,224.2915,126.4306,214.5194,126.477,204.7473,126.3774,194.9752,125.7483,185.2031,126.7054,175.431,126.7028,165.659,126.0366,155.8869,125.8489,146.1148,125.6901,136.3427,125.8729,126.5706,126.2172,116.7985,126.0159,107.0264,125.6741,97.2543,126.5596,87.4822,125.6338,77.7101,126.5743,67.938,126.5008,58.166,126.4466,48.3939,126.0828,48.4803,126.2914,47.3255,125.5789,46.2811,125.1326,45.3457,124.9497,44.1688,124.1838,43.2057,123.9338,43.1352,123.9046,42.8107,122.9106,42.3668,121.8671,41.8083,120.7762,41.4735,119.7779,41.0567,118.7456,41.7851,118.7456,41.6911,108.5244,40.4733,98.3033,41.1335,88.0821,40.5539,77.8609,41.0567,67.6397,41.0488,67.6364,41.5748,66.6386,42.0428,65.6168,42.1458,64.4438,42.8966,63.5391,43.2057,62.4515,43.2067,62.454,44.174,61.8544,45.2222,61.45,46.3594,61.2605,47.3874,60.8076,48.3939,60.3025" style="stroke:#000000;stroke-width:0.9783;"/><text fill="#1E90FF" font-family="Arial" font-size="19.5658" font-weight="bold" lengthAdjust="spacing" textLength="806.1704" x="60.6225" y="100.7842">Diagrama de Sequ&#234;ncia - M&#243;dulo de Dados e Conectividade (MDC) - Relat&#243;rio turno</text><!--SRC=[VLCzZzD04EttLmnf0Ejo7AqBYiG1hWX25w2VUCVEIkiTttfj0N-70Wc9wZfQ_p5c_H7dT88qZjTlthptPlQPSRbjDK6sUtkuhjlAAcMf9ASXSAq0aYGpM7gi40HreFks_-LoWx26VV-WMylnF4FD3H1isL4UJ6SqokcBVRPzAS0xiXZw1syOGkiT9ucA3SO-Ic4UsCFuExGr-SuqxDMHMwVHVul7j-_tAcSNFDiHPff05Igru67z9i9IoAWmZi2u_dTk1dL3qzZ6T1Xe8DCOy8WDmMg3Bbyyh00Ro3OBMFuBFf9d6qZ5IYcjFJwbFpaME7VaOmE1VgAg5iCSq8AUdFz7Rs6gXMngETbCuS3Mv2OW-2LA0TUUTTl_x7_mqk6iVCveUeuMqZYYfhL2fOUPdUl4tlgovHt9LDmJs7EupSvlLt1YFop65CShSN45SL9OKZMRduI6OKLS_wSYFyf7ZrhohYMD0kq9hzKIuYmxXO-USsgQMKgiWf8y-iiqjeSlbqxFDiIki0dfM2oY2lOLXdzNxBwA7ia7_NrhkW47bdEqb-ZLlFmxNT9AYbnd7fSCCZ-q7LLBtJpoFRbc24X2aB0A8ugcCKuR8ElWq9hl8bgfWYKLFrp6BJPn6WIV6vRIerZZ9fKB9PTYBT_bngrlRbud2RoJXCwSZzTcd6IyWXFpNm00]--></g></svg>