<svg xmlns="http://www.w3.org/2000/svg" xmlns:xlink="http://www.w3.org/1999/xlink" contentStyleType="text/css" data-diagram-type="SEQUENCE" height="752.6091px" preserveAspectRatio="none" style="width:2372px;height:752px;background:#EEEBDC;" version="1.1" viewBox="0 0 2372 752" width="2372.5105px" zoomAndPan="magnify"><defs/><g><rect fill="#EEEBDC" height="752.6091" style="stroke:none;stroke-width:3.5839;" width="2372.5105" x="0" y="0"/><g><title>Linha de produ..o</title><polygon fill="#A9DCDF" points="628.4415,436.7282,628.4415,436.9792,635.6092,436.2332,642.7769,436.9591,649.9446,437.2056,657.1123,435.8759,664.28,436.7282,664.0015,436.7282,662.7515,474.6047,662.9056,512.4813,664.0358,550.3578,661.8023,588.2344,666.2642,626.111,664.28,663.9875,664.28,663.2346,657.1123,663.7513,649.9446,664.5035,642.7769,663.8851,635.6092,664.0691,628.4415,663.9875,628.327,663.9875,629.0813,626.111,629.2985,588.2344,630.5405,550.3578,630.8465,512.4813,630.8759,474.6047,628.4415,436.7282" style="stroke:#181818;stroke-width:3.5839;"/></g><g><title>Operador</title><polygon fill="#000000" fill-opacity="0.00000" points="153.4584,315.9308,153.4584,316.1818,159.1926,315.4358,164.9267,316.1617,170.6609,316.4082,176.3951,315.0785,182.1292,315.9308,181.8507,315.9308,180.6007,350.3113,180.7548,384.6918,181.885,419.0723,179.6515,453.4528,184.1134,487.8333,179.8704,522.2138,181.4205,556.5943,183.6773,590.9748,181.8218,625.3554,182.3738,659.7359,182.0147,694.1164,182.1292,728.4969,182.1292,728.7102,176.3951,728.7826,170.6609,729.1966,164.9267,729.2985,159.1926,729.3083,153.4584,728.4969,154.371,728.4969,155.1198,694.1164,155.9751,659.7359,150.8738,625.3554,155.8901,590.9748,152.3958,556.5943,155.3715,522.2138,151.6843,487.8333,153.2129,453.4528,156.1162,419.0723,153.2838,384.6918,153.8358,350.3113,153.4584,315.9308"/><path d="M164.8572,315.9308 L165.8616,315.9308 L162.8774,350.3113 L165.7808,384.6918 L166.7671,419.0723 L161.4483,453.4528 L164.4859,487.8333 L162.8192,522.2138 L163.0247,556.5943 L164.5315,590.9748 L161.5535,625.3554 L167.5028,659.7359 L161.8454,694.1164 L164.8572,728.4969" fill="none" style="stroke:#0000FF;stroke-width:1.7919;stroke-dasharray:17.9193,17.9193;"/></g><g><title>Linha de produ..o</title><polygon fill="#000000" fill-opacity="0.00000" points="632.0253,315.9308,632.0253,316.1818,637.7595,315.4358,643.4937,316.1617,649.2278,316.4082,654.962,315.0785,660.6962,315.9308,660.4177,315.9308,659.1677,350.3113,659.3218,384.6918,660.4519,419.0723,658.2184,453.4528,662.6803,487.8333,658.4373,522.2138,659.9874,556.5943,662.2442,590.9748,660.3888,625.3554,660.9407,659.7359,660.5817,694.1164,660.6962,728.4969,660.6962,728.7102,654.962,728.7826,649.2278,729.1966,643.4937,729.2985,637.7595,729.3083,632.0253,728.4969,632.9379,728.4969,633.6868,694.1164,634.542,659.7359,629.4407,625.3554,634.457,590.9748,630.9627,556.5943,633.9384,522.2138,630.2513,487.8333,631.7799,453.4528,634.6832,419.0723,631.8507,384.6918,632.4027,350.3113,632.0253,315.9308"/><path d="M643.799,315.9308 L644.8033,315.9308 L641.8192,350.3113 L644.7226,384.6918 L645.7088,419.0723 L640.39,453.4528 L643.4276,487.8333 L641.761,522.2138 L641.9664,556.5943 L643.4733,590.9748 L640.4953,625.3554 L646.4445,659.7359 L640.7872,694.1164 L643.799,728.4969" fill="none" style="stroke:#0000FF;stroke-width:1.7919;stroke-dasharray:17.9193,17.9193;"/></g><g><title>Contagem em tempo real</title><polygon fill="#000000" fill-opacity="0.00000" points="1352.758,315.9308,1352.758,316.1818,1358.4922,315.4358,1364.2263,316.1617,1369.9605,316.4082,1375.6946,315.0785,1381.4288,315.9308,1381.1503,315.9308,1379.9003,350.3113,1380.0544,384.6918,1381.1845,419.0723,1378.951,453.4528,1383.413,487.8333,1379.17,522.2138,1380.72,556.5943,1382.9768,590.9748,1381.1214,625.3554,1381.6734,659.7359,1381.3143,694.1164,1381.4288,728.4969,1381.4288,728.7102,1375.6946,728.7826,1369.9605,729.1966,1364.2263,729.2985,1358.4922,729.3083,1352.758,728.4969,1353.6705,728.4969,1354.4194,694.1164,1355.2747,659.7359,1350.1734,625.3554,1355.1897,590.9748,1351.6954,556.5943,1354.6711,522.2138,1350.9839,487.8333,1352.5125,453.4528,1355.4158,419.0723,1352.5833,384.6918,1353.1354,350.3113,1352.758,315.9308"/><path d="M1365.6931,315.9308 L1366.6974,315.9308 L1363.7133,350.3113 L1366.6167,384.6918 L1367.6029,419.0723 L1362.2841,453.4528 L1365.3217,487.8333 L1363.6551,522.2138 L1363.8605,556.5943 L1365.3674,590.9748 L1362.3894,625.3554 L1368.3386,659.7359 L1362.6813,694.1164 L1365.6931,728.4969" fill="none" style="stroke:#0000FF;stroke-width:1.7919;stroke-dasharray:17.9193,17.9193;"/></g><g><title>Status do sistema</title><polygon fill="#000000" fill-opacity="0.00000" points="2058.7466,315.9308,2058.7466,316.1818,2064.4808,315.4358,2070.2149,316.1617,2075.9491,316.4082,2081.6833,315.0785,2087.4174,315.9308,2087.1389,315.9308,2085.8889,350.3113,2086.043,384.6918,2087.1732,419.0723,2084.9397,453.4528,2089.4016,487.8333,2085.1586,522.2138,2086.7087,556.5943,2088.9655,590.9748,2087.11,625.3554,2087.662,659.7359,2087.3029,694.1164,2087.4174,728.4969,2087.4174,728.7102,2081.6833,728.7826,2075.9491,729.1966,2070.2149,729.2985,2064.4808,729.3083,2058.7466,728.4969,2059.6592,728.4969,2060.408,694.1164,2061.2633,659.7359,2056.162,625.3554,2061.1783,590.9748,2057.684,556.5943,2060.6597,522.2138,2056.9725,487.8333,2058.5011,453.4528,2061.4044,419.0723,2058.572,384.6918,2059.124,350.3113,2058.7466,315.9308"/><path d="M2070.9288,315.9308 L2071.9332,315.9308 L2068.949,350.3113 L2071.8525,384.6918 L2072.8387,419.0723 L2067.5199,453.4528 L2070.5575,487.8333 L2068.8909,522.2138 L2069.0963,556.5943 L2070.6032,590.9748 L2067.6252,625.3554 L2073.5744,659.7359 L2067.9171,694.1164 L2070.9288,728.4969" fill="none" style="stroke:#0000FF;stroke-width:1.7919;stroke-dasharray:17.9193,17.9193;"/></g><g class="participant participant-head" data-participant="Operador"><text fill="#1E90FF" font-family="Aapex" font-size="60.9255" lengthAdjust="spacing" textLength="278.246" x="17.9193" y="298.0796">Operador</text><polygon fill="#00BFFF" points="196.623,55.3559,192.4204,61.0983,187.4495,69.509,180.3402,75.1772,172.8696,78.2768,166.9129,78.5459,159.2569,74.6694,152.0331,72.1369,146.5501,66.9951,143.674,61.1087,141.9684,56.4217,140.2974,50.2996,137.5852,45.0314,139.6694,39.8876,141.4954,34.2531,148.348,29.7967,153.169,24.0147,159.1363,22.0946,166.2303,20.4411,175.3275,21.4235,180.3101,23.7734,186.1033,24.8385,193.1471,32.0552,195.6026,39.6738,196.6694,44.8721,195.461,53.4382" style="stroke:#00BFFF;stroke-width:1.7919;"/><path d="M167.7938,77.0528 L168.4634,77.0528 L166.4739,96.4056 L168.4096,115.7584 L169.0671,135.1112 L165.5212,154.4641 L167.7938,173.8169 M121.2037,105.7237 L121.2037,105.4761 L139.8398,104.365 L158.4758,104.502 L177.1118,105.5065 L195.7479,103.5212 L214.3839,105.7237 M167.7938,173.8169 L169.1266,174.972 L156.9585,183.2534 L148.6817,194.9074 L140.8796,206.9727 L130.3153,216.6441 L121.2037,227.5746 M167.7938,173.8169 L167.9581,173.9592 L177.0349,184.5018 L186.8596,195.6924 L196.3236,206.5705 L206.4759,218.0451 L214.3839,227.5746" fill="none" style="stroke:#00BFFF;stroke-width:1.7919;"/></g><g class="participant participant-head" data-participant="A"><polygon fill="#1E90FF" points="362.4665,179.1926,362.4665,179.9459,397.9533,177.7078,433.4401,179.8853,468.9269,180.625,504.4136,176.6359,539.9004,178.9141,575.3872,177.6641,610.874,177.8182,646.3608,178.9484,681.8475,176.7149,717.3343,181.1768,752.8211,176.9338,788.3079,178.4839,823.7946,180.7407,859.2814,178.8852,894.7682,179.4372,930.255,179.1926,930.2404,179.1574,931.6037,179.9145,932.8985,180.5062,934.324,181.4136,935.6301,182.0326,936.5904,181.8168,937.3401,182.1274,937.3963,183.2003,938.1517,184.5629,938.94,185.9391,937.8938,186.5555,939.2146,188.1523,940.0252,188.1523,938.8604,211.1993,939.8523,234.2463,938.6232,257.2933,939.1328,280.3403,939.2146,303.3873,940.0331,303.7263,938.636,304.6321,938.2811,305.9696,938.0138,307.3433,937.5746,308.6459,936.5904,309.7227,936.5886,309.7184,935.4546,310.5645,933.7945,310.1406,932.9192,311.6111,931.7727,312.4271,930.255,312.3469,930.255,313.94,894.7682,314.5439,859.2814,310.6156,823.7946,310.0096,788.3079,310.1199,752.8211,312.1359,717.3343,311.6426,681.8475,314.789,646.3608,311.7209,610.874,311.1174,575.3872,313.165,539.9004,309.957,504.4136,310.4864,468.9269,314.6726,433.4401,313.9083,397.9533,314.9792,362.4665,312.3469,362.3194,311.9917,361.3454,312.1744,360.2023,311.9489,358.4493,310.251,357.3544,310.1417,356.1311,309.7227,356.2702,309.7803,356.3256,308.7536,355.0768,307.1866,355.0671,306.1329,353.4205,304.4012,353.5069,303.3873,352.6978,303.3873,354.1085,280.3403,352.6504,257.2933,354.1149,234.2463,353.7537,211.1993,353.5069,188.1523,353.2112,188.0298,353.6413,186.7235,355.0629,185.8278,354.7511,184.2142,356.2595,183.3545,356.1311,181.8168,355.8784,181.2068,357.6805,181.9734,358.8867,181.3017,360.0444,180.5127,361.221,179.7696,362.4665,179.1926" style="stroke:#00BFFF;stroke-width:1.7919;"/><text fill="#A9DCDF" font-family="Impact" font-size="60.9255" lengthAdjust="spacing" textLength="535.5338" x="378.5939" y="269.4088">Linha de produ&#231;&#227;o</text></g><g class="participant participant-head" data-participant="B"><polygon fill="#1E90FF" points="984.0128,179.1926,984.0128,179.9459,1020.4966,177.7078,1056.9805,179.8853,1093.4644,180.625,1129.9482,176.6359,1166.4321,178.9141,1202.916,177.6641,1239.3999,177.8182,1275.8837,178.9484,1312.3676,176.7149,1348.8515,181.1768,1385.3353,176.9338,1421.8192,178.4839,1458.3031,180.7407,1494.7869,178.8852,1531.2708,179.4372,1567.7547,179.0781,1604.2386,179.8324,1640.7224,180.0497,1677.2063,181.2917,1713.6902,181.5976,1750.174,179.1926,1750.4846,179.9423,1751.5575,179.9985,1752.9201,180.754,1754.2963,181.5422,1754.9127,180.496,1756.5095,181.8168,1757.2583,182.127,1756.707,182.9484,1758.1483,184.5951,1757.5376,185.3918,1758.5332,186.8539,1759.1337,188.1523,1760.0196,188.1523,1759.0754,211.1993,1759.2595,234.2463,1759.5382,257.2933,1759.6309,280.3403,1759.1337,303.3873,1759.1294,303.3855,1758.9258,304.7857,1757.4522,305.6597,1757.873,307.3185,1757.6393,308.7062,1756.5095,309.7227,1756.7127,310.2133,1755.5226,310.9241,1753.7544,310.2392,1752.41,310.5774,1751.157,311.1362,1750.174,312.3469,1750.174,312.1359,1713.6902,311.6426,1677.2063,314.789,1640.7224,311.7209,1604.2386,311.1174,1567.7547,313.165,1531.2708,309.957,1494.7869,310.4864,1458.3031,314.6726,1421.8192,313.9083,1385.3353,314.9792,1348.8515,311.1936,1312.3676,313.4909,1275.8837,314.4629,1239.3999,310.6539,1202.916,312.0034,1166.4321,312.7984,1129.9482,314.6827,1093.4644,312.3319,1056.9805,314.0047,1020.4966,310.3622,984.0128,312.3469,983.7032,311.5994,982.9759,312.3779,981.1508,310.5059,980.4442,311.3341,979.0389,310.4756,977.6774,309.7227,977.3817,309.6002,976.7621,308.2939,977.134,307.3982,975.7725,305.7846,976.2312,304.9249,975.0531,303.3873,974.3928,303.3873,975.7907,280.3403,975.6317,257.2933,975.3458,234.2463,975.1095,211.1993,975.0531,188.1523,975.8551,188.4844,976.2552,187.1657,976.2896,185.6955,976.9237,184.4736,977.0087,183.0244,977.6774,181.8168,978.0049,182.6076,979.0152,181.4629,980.2904,180.9576,981.2005,179.5709,982.5604,179.2702,984.0128,179.1926" style="stroke:#00BFFF;stroke-width:1.7919;"/><text fill="#A9DCDF" font-family="Impact" font-size="60.9255" lengthAdjust="spacing" textLength="733.9066" x="1000.1401" y="269.4088">Contagem em tempo real</text></g><g class="participant participant-head" data-participant="C"><polygon fill="#1E90FF" points="1803.9318,179.1926,1803.9318,179.9459,1839.8185,177.7078,1875.7052,179.8853,1911.5919,180.625,1947.4786,176.6359,1983.3653,178.9141,2019.252,177.6641,2055.1387,177.8182,2091.0254,178.9484,2126.9121,176.7149,2162.7988,181.1768,2198.6855,176.9338,2234.5721,178.4839,2270.4588,180.7407,2306.3455,178.8852,2342.2322,179.1926,2342.2634,179.2679,2343.4847,179.6822,2344.848,180.4394,2346.1428,181.0311,2347.5683,181.9384,2348.5676,181.8168,2349.3083,182.1236,2349.8422,183.3945,2349.8984,184.4674,2350.6538,185.83,2351.4421,187.2062,2351.1919,188.1523,2350.3303,188.1523,2352.0024,211.1993,2350.8377,234.2463,2351.8296,257.2933,2350.6005,280.3403,2351.1919,303.3873,2351.1163,303.356,2351.4855,304.9934,2350.0884,305.8992,2349.7336,307.2367,2349.4662,308.6104,2348.5676,309.7227,2348.7579,310.1821,2347.2988,310.2432,2346.1648,311.0894,2344.5047,310.6654,2343.6293,312.1359,2342.2322,312.3469,2342.2322,314.3116,2306.3455,313.94,2270.4588,314.5439,2234.5721,310.6156,2198.6855,310.0096,2162.7988,310.1199,2126.9121,312.1359,2091.0254,311.6426,2055.1387,314.789,2019.252,311.7209,1983.3653,311.1174,1947.4786,313.165,1911.5919,309.957,1875.7052,310.4864,1839.8185,314.6726,1803.9318,312.3469,1804.131,312.8277,1803.0005,312.6327,1801.2505,310.9421,1800.2765,311.1247,1799.1334,310.8992,1797.5964,309.7227,1797.075,309.5067,1796.9658,308.4118,1796.6858,307.2461,1796.7412,306.2194,1795.4924,304.6524,1794.9722,303.3873,1795.5248,303.3873,1794.3106,280.3403,1794.1631,257.2933,1795.5738,234.2463,1794.1157,211.1993,1794.9722,188.1523,1795.5339,188.3849,1795.7251,186.9796,1795.7262,185.4956,1796.1563,184.1893,1797.5779,183.2937,1797.5964,181.8168,1797.4596,181.4865,1799.1341,181.9452,1799.8779,180.1571,1801.6799,180.9238,1802.8861,180.252,1803.9318,179.1926" style="stroke:#00BFFF;stroke-width:1.7919;"/><text fill="#A9DCDF" font-family="Impact" font-size="60.9255" lengthAdjust="spacing" textLength="506.0457" x="1820.0592" y="269.4088">Status do sistema</text></g><g><title>Linha de produ..o</title><polygon fill="#A9DCDF" points="628.4415,436.7282,628.4415,436.9792,635.6092,436.2332,642.7769,436.9591,649.9446,437.2056,657.1123,435.8759,664.28,436.7282,664.0015,436.7282,662.7515,474.6047,662.9056,512.4813,664.0358,550.3578,661.8023,588.2344,666.2642,626.111,664.28,663.9875,664.28,663.2346,657.1123,663.7513,649.9446,664.5035,642.7769,663.8851,635.6092,664.0691,628.4415,663.9875,628.327,663.9875,629.0813,626.111,629.2985,588.2344,630.5405,550.3578,630.8465,512.4813,630.8759,474.6047,628.4415,436.7282" style="stroke:#181818;stroke-width:3.5839;"/></g><g class="message" data-participant-1="Operador" data-participant-2="A"><polygon fill="#00BFFF" points="585.4353,422.3927,585.5285,422.6259,592.4191,424.8003,599.8564,428.3413,607.1157,431.4373,613.7896,433.0698,621.2738,436.7282,621.2393,436.642,613.9169,439.1222,606.7682,442.0369,599.7404,445.2538,592.2962,447.4296,585.4353,451.0636,585.9029,451.5312,587.7699,447.6641,591.0024,445.1623,594.4014,442.8272,596.8311,439.5228,599.7707,436.7282,599.8283,436.7858,596.8766,433.8341,594.1873,431.1448,591.3714,428.3289,588.7971,425.7546,585.4353,422.3927" style="stroke:#00BFFF;stroke-width:3.5839;"/><path d="M167.7938,436.7282 L167.7938,437.7325 L204.3892,434.7483 L240.9846,437.6518 L277.58,438.638 L314.1753,433.3192 L350.7707,436.3568 L387.3661,434.6902 L423.9615,434.8956 L460.5569,436.4025 L497.1522,433.4245 L533.7476,439.3737 L570.343,433.7164 L606.9384,436.7282" fill="none" style="stroke:#00BFFF;stroke-width:3.5839;"/><text fill="#000000" font-family="sans-serif" font-size="46.5901" lengthAdjust="spacing" textLength="272.6453" x="192.8808" y="415.9095">Iniciar/Parar</text></g><g class="message" data-participant-1="A" data-participant-2="B"><polygon fill="#00BFFF" points="1324.0872,536.0224,1324.1804,536.2556,1331.0711,538.43,1338.5083,541.971,1345.7676,545.067,1352.4415,546.6995,1359.9257,550.3578,1359.8912,550.2716,1352.5688,552.7519,1345.4201,555.6666,1338.3923,558.8835,1330.9481,561.0593,1324.0872,564.6933,1324.5548,565.1609,1326.4218,561.2938,1329.6543,558.792,1333.0533,556.4569,1335.483,553.1525,1338.4226,550.3578,1338.4802,550.4155,1335.5285,547.4638,1332.8392,544.7745,1330.0233,541.9586,1327.449,539.3843,1324.0872,536.0224" style="stroke:#00BFFF;stroke-width:3.5839;"/><path d="M664.28,550.3578 L664.28,551.3622 L700.1385,548.378 L735.9969,551.2815 L771.8553,552.2677 L807.7138,546.9489 L843.5722,549.9865 L879.4306,548.3199 L915.2891,548.5253 L951.1475,550.0322 L987.0059,547.0542 L1022.8644,553.0034 L1058.7228,547.3461 L1094.5812,549.4128 L1130.4397,552.4219 L1166.2981,549.948 L1202.1565,550.6839 L1238.015,550.2052 L1273.8734,551.2109 L1309.7319,551.5005 L1345.5903,550.3578" fill="none" style="stroke:#00BFFF;stroke-width:3.5839;"/><text fill="#000000" font-family="sans-serif" font-size="46.5901" lengthAdjust="spacing" textLength="368.6677" x="689.367" y="529.5392">Enviar contagem</text></g><g class="message" data-participant-1="B" data-participant-2="C"><polygon fill="#00BFFF" points="2030.0758,649.6521,2030.169,649.8853,2037.0597,652.0597,2044.497,655.6007,2051.7562,658.6967,2058.4301,660.3292,2065.9143,663.9875,2065.8798,663.9013,2058.5574,666.3816,2051.4088,669.2963,2044.381,672.5132,2036.9368,674.689,2030.0758,678.3229,2030.5435,678.7906,2032.4105,674.9235,2035.6429,672.4217,2039.0419,670.0866,2041.4717,666.7822,2044.4112,663.9875,2044.4688,664.0452,2041.5171,661.0935,2038.8278,658.4042,2036.012,655.5883,2033.4376,653.014,2030.0758,649.6521" style="stroke:#00BFFF;stroke-width:3.5839;"/><path d="M1367.0934,663.9875 L1367.0934,664.9919 L1403.119,662.0077 L1439.1445,664.9111 L1475.1701,665.8974 L1511.1956,660.5786 L1547.2212,663.6162 L1583.2467,661.9495 L1619.2723,662.155 L1655.2978,663.6619 L1691.3234,660.6839 L1727.3489,666.6331 L1763.3745,660.9758 L1799.4,663.0425 L1835.4256,666.0516 L1871.4511,663.5777 L1907.4767,664.3136 L1943.5023,663.8349 L1979.5278,664.8406 L2015.5534,665.1302 L2051.5789,663.9875" fill="none" style="stroke:#00BFFF;stroke-width:3.5839;"/><text fill="#000000" font-family="sans-serif" font-size="46.5901" lengthAdjust="spacing" textLength="338.1511" x="1392.1804" y="643.1689">Atualizar status</text></g><!--SRC=[dP3FIWCn4CRlUOgn5nLSUrzGsDssK10K-WH3Tcm7iadCdptuEXvy0F49ziMSh1PQyDGXXv3vVVDblYksskIUOBNUxEvz7enIrr1L5QpebIrFdzCtHH00amiKbnv3OiqUROfmWs-Pxy0wm22tqHNGJ5zxrdXRfYZK8eDdJm5x5zI96XPFR0zO53wuFelJXri0HcZEiSxPX7iQG4wYmJi8X6OcstDobp1b-Qo3o55GdA6kRFHmKOdmtzfQyPHbyRZivGx7QA1wXAR-dOnX-O81GqcFHqmaaJG5Q6jOsr7weFz2KMrvxsfeKaR3xzAASmggfnFr3m00]--></g></svg>